  0
SECTION
  2
HEADER
  9
$ACADVER
  1
AC1014
  9
$ACADMAINTVER
 70
     9
  9
$DWGCODEPAGE
  3
ANSI_1252
  9
$INSBASE
 10
0.0
 20
0.0
 30
0.0
  9
$EXTMIN
 10
374.2683464980219
 20
0.1871846741996706
 30
0.0
  9
$EXTMAX
 10
598.5366848085541
 20
600.1873067445122
 30
0.0
  9
$LIMMIN
 10
0.0
 20
0.0
  9
$LIMMAX
 10
12.0
 20
9.0
  9
$ORTHOMODE
 70
     0
  9
$REGENMODE
 70
     1
  9
$FILLMODE
 70
     1
  9
$QTEXTMODE
 70
     0
  9
$MIRRTEXT
 70
     1
  9
$DRAGMODE
 70
     2
  9
$LTSCALE
 40
1.0
  9
$OSMODE
 70
    37
  9
$ATTMODE
 70
     1
  9
$TEXTSIZE
 40
0.2
  9
$TRACEWID
 40
0.05
  9
$TEXTSTYLE
  7
STANDARD
  9
$CLAYER
  8
0
  9
$CELTYPE
  6
BYLAYER
  9
$CECOLOR
 62
   256
  9
$CELTSCALE
 40
1.0
  9
$DELOBJ
 70
     1
  9
$DISPSILH
 70
     0
  9
$DIMSCALE
 40
1.0
  9
$DIMASZ
 40
0.18
  9
$DIMEXO
 40
0.0625
  9
$DIMDLI
 40
0.38
  9
$DIMRND
 40
0.0
  9
$DIMDLE
 40
0.0
  9
$DIMEXE
 40
0.18
  9
$DIMTP
 40
0.0
  9
$DIMTM
 40
0.0
  9
$DIMTXT
 40
0.18
  9
$DIMCEN
 40
0.09
  9
$DIMTSZ
 40
0.0
  9
$DIMTOL
 70
     0
  9
$DIMLIM
 70
     0
  9
$DIMTIH
 70
     1
  9
$DIMTOH
 70
     1
  9
$DIMSE1
 70
     0
  9
$DIMSE2
 70
     0
  9
$DIMTAD
 70
     0
  9
$DIMZIN
 70
     0
  9
$DIMBLK
  1

  9
$DIMASO
 70
     1
  9
$DIMSHO
 70
     1
  9
$DIMPOST
  1

  9
$DIMAPOST
  1

  9
$DIMALT
 70
     0
  9
$DIMALTD
 70
     2
  9
$DIMALTF
 40
25.4
  9
$DIMLFAC
 40
1.0
  9
$DIMTOFL
 70
     0
  9
$DIMTVP
 40
0.0
  9
$DIMTIX
 70
     0
  9
$DIMSOXD
 70
     0
  9
$DIMSAH
 70
     0
  9
$DIMBLK1
  1

  9
$DIMBLK2
  1

  9
$DIMSTYLE
  2
STANDARD
  9
$DIMCLRD
 70
     0
  9
$DIMCLRE
 70
     0
  9
$DIMCLRT
 70
     0
  9
$DIMTFAC
 40
1.0
  9
$DIMGAP
 40
0.09
  9
$DIMJUST
 70
     0
  9
$DIMSD1
 70
     0
  9
$DIMSD2
 70
     0
  9
$DIMTOLJ
 70
     1
  9
$DIMTZIN
 70
     0
  9
$DIMALTZ
 70
     0
  9
$DIMALTTZ
 70
     0
  9
$DIMFIT
 70
     3
  9
$DIMUPT
 70
     0
  9
$DIMUNIT
 70
     2
  9
$DIMDEC
 70
     4
  9
$DIMTDEC
 70
     4
  9
$DIMALTU
 70
     2
  9
$DIMALTTD
 70
     2
  9
$DIMTXSTY
  7
STANDARD
  9
$DIMAUNIT
 70
     0
  9
$LUNITS
 70
     2
  9
$LUPREC
 70
     4
  9
$SKETCHINC
 40
0.1
  9
$FILLETRAD
 40
0.5
  9
$AUNITS
 70
     0
  9
$AUPREC
 70
     0
  9
$MENU
  1
.
  9
$ELEVATION
 40
0.0
  9
$PELEVATION
 40
0.0
  9
$THICKNESS
 40
0.0
  9
$LIMCHECK
 70
     0
  9
$CHAMFERA
 40
0.0
  9
$CHAMFERB
 40
0.0
  9
$CHAMFERC
 40
0.0
  9
$CHAMFERD
 40
0.0
  9
$SKPOLY
 70
     0
  9
$TDCREATE
 40
2458589.574030011
  9
$TDUPDATE
 40
2458589.574030914
  9
$TDINDWG
 40
0.0000000116
  9
$TDUSRTIMER
 40
0.0000000116
  9
$USRTIMER
 70
     1
  9
$ANGBASE
 50
0.0
  9
$ANGDIR
 70
     0
  9
$PDMODE
 70
     0
  9
$PDSIZE
 40
0.0
  9
$PLINEWID
 40
0.0
  9
$COORDS
 70
     1
  9
$SPLFRAME
 70
     0
  9
$SPLINETYPE
 70
     6
  9
$SPLINESEGS
 70
     8
  9
$ATTDIA
 70
     0
  9
$ATTREQ
 70
     1
  9
$HANDLING
 70
     1
  9
$HANDSEED
  5
29F
  9
$SURFTAB1
 70
     6
  9
$SURFTAB2
 70
     6
  9
$SURFTYPE
 70
     6
  9
$SURFU
 70
     6
  9
$SURFV
 70
     6
  9
$UCSNAME
  2

  9
$UCSORG
 10
0.0
 20
0.0
 30
0.0
  9
$UCSXDIR
 10
1.0
 20
0.0
 30
0.0
  9
$UCSYDIR
 10
0.0
 20
1.0
 30
0.0
  9
$PUCSNAME
  2

  9
$PUCSORG
 10
0.0
 20
0.0
 30
0.0
  9
$PUCSXDIR
 10
1.0
 20
0.0
 30
0.0
  9
$PUCSYDIR
 10
0.0
 20
1.0
 30
0.0
  9
$USERI1
 70
     0
  9
$USERI2
 70
     0
  9
$USERI3
 70
     0
  9
$USERI4
 70
     0
  9
$USERI5
 70
     0
  9
$USERR1
 40
0.0
  9
$USERR2
 40
0.0
  9
$USERR3
 40
0.0
  9
$USERR4
 40
0.0
  9
$USERR5
 40
0.0
  9
$WORLDVIEW
 70
     1
  9
$SHADEDGE
 70
     3
  9
$SHADEDIF
 70
    70
  9
$TILEMODE
 70
     1
  9
$MAXACTVP
 70
    64
  9
$PINSBASE
 10
0.0
 20
0.0
 30
0.0
  9
$PLIMCHECK
 70
     0
  9
$PEXTMIN
 10
1.000000000000000E+20
 20
1.000000000000000E+20
 30
1.000000000000000E+20
  9
$PEXTMAX
 10
-1.000000000000000E+20
 20
-1.000000000000000E+20
 30
-1.000000000000000E+20
  9
$PLIMMIN
 10
0.0
 20
0.0
  9
$PLIMMAX
 10
12.0
 20
9.0
  9
$UNITMODE
 70
     0
  9
$VISRETAIN
 70
     1
  9
$PLINEGEN
 70
     0
  9
$PSLTSCALE
 70
     1
  9
$TREEDEPTH
 70
  3020
  9
$PICKSTYLE
 70
     1
  9
$CMLSTYLE
  2
STANDARD
  9
$CMLJUST
 70
     0
  9
$CMLSCALE
 40
1.0
  9
$PROXYGRAPHICS
 70
     1
  9
$MEASUREMENT
 70
     0
  0
ENDSEC
  0
SECTION
  2
CLASSES
  0
CLASS
  1
ACDBDICTIONARYWDFLT
  2
AcDbDictionaryWithDefault
  3
ObjectDBX Classes
 90
        0
280
     0
281
     0
  0
CLASS
  1
VISUALSTYLE
  2
AcDbVisualStyle
  3
ObjectDBX Classes
 90
     4095
280
     0
281
     0
  0
CLASS
  1
MATERIAL
  2
AcDbMaterial
  3
ObjectDBX Classes
 90
     1153
280
     0
281
     0
  0
CLASS
  1
SCALE
  2
AcDbScale
  3
ObjectDBX Classes
 90
     1153
280
     0
281
     0
  0
CLASS
  1
TABLESTYLE
  2
AcDbTableStyle
  3
ObjectDBX Classes
 90
     4095
280
     0
281
     0
  0
CLASS
  1
MLEADERSTYLE
  2
AcDbMLeaderStyle
  3
ACDB_MLEADERSTYLE_CLASS
 90
     4095
280
     0
281
     0
  0
CLASS
  1
SUN
  2
AcDbSun
  3
SCENEOE
 90
     1153
280
     0
281
     0
  0
CLASS
  1
DICTIONARYVAR
  2
AcDbDictionaryVar
  3
ObjectDBX Classes
 90
        0
280
     0
281
     0
  0
CLASS
  1
XRECORD
  2
AcDbXrecord
  3
ObjectDBX Classes
 90
        0
280
     0
281
     0
  0
CLASS
  1
LWPOLYLINE
  2
AcDbPolyline
  3
ObjectDBX Classes
 90
        0
280
     0
281
     1
  0
CLASS
  1
HATCH
  2
AcDbHatch
  3
ObjectDBX Classes
 90
        0
280
     0
281
     1
  0
CLASS
  1
ACDBPLACEHOLDER
  2
AcDbPlaceHolder
  3
ObjectDBX Classes
 90
        0
280
     0
281
     0
  0
CLASS
  1
LAYOUT
  2
AcDbLayout
  3
ObjectDBX Classes
 90
        0
280
     0
281
     0
  0
ENDSEC
  0
SECTION
  2
TABLES
  0
TABLE
  2
VPORT
  5
8
102
{ACAD_XDICTIONARY
360
296
102
}
330
0
100
AcDbSymbolTable
 70
     1
  0
VPORT
  5
29
330
8
100
AcDbSymbolTableRecord
100
AcDbViewportTableRecord
  2
*ACTIVE
 70
     0
 10
0.0
 20
0.0
 11
1.0
 21
1.0
 12
486.402515653288
 22
300.1872457093559
 13
0.0
 23
0.0
 14
0.5
 24
0.5
 15
0.5
 25
0.5
 16
0.0
 26
0.0
 36
1.0
 17
0.0
 27
0.0
 37
0.0
 40
612.0001245117188
 41
0.3737804878050522
 42
50.0
 43
0.0
 44
0.0
 50
0.0
 51
0.0
 71
     0
 72
   100
 73
     1
 74
     3
 75
     0
 76
     0
 77
     0
 78
     0
  0
ENDTAB
  0
TABLE
  2
LTYPE
  5
5
330
0
100
AcDbSymbolTable
 70
     1
  0
LTYPE
  5
14
330
5
100
AcDbSymbolTableRecord
100
AcDbLinetypeTableRecord
  2
BYBLOCK
 70
     0
  3

 72
    65
 73
     0
 40
0.0
  0
LTYPE
  5
15
330
5
100
AcDbSymbolTableRecord
100
AcDbLinetypeTableRecord
  2
BYLAYER
 70
     0
  3

 72
    65
 73
     0
 40
0.0
  0
LTYPE
  5
16
330
5
100
AcDbSymbolTableRecord
100
AcDbLinetypeTableRecord
  2
CONTINUOUS
 70
     0
  3
Solid line
 72
    65
 73
     0
 40
0.0
  0
ENDTAB
  0
TABLE
  2
LAYER
  5
2
330
0
100
AcDbSymbolTable
 70
     2
  0
LAYER
  5
10
330
2
100
AcDbSymbolTableRecord
100
AcDbLayerTableRecord
  2
0
 70
     0
 62
     7
  6
CONTINUOUS
  0
LAYER
  5
A1
330
2
100
AcDbSymbolTableRecord
100
AcDbLayerTableRecord
  2
LIMESTONE_FSET3
 70
     0
 62
   136
  6
CONTINUOUS
  0
ENDTAB
  0
TABLE
  2
STYLE
  5
3
330
0
100
AcDbSymbolTable
 70
     1
  0
STYLE
  5
11
330
3
100
AcDbSymbolTableRecord
100
AcDbTextStyleTableRecord
  2
STANDARD
 70
     0
 40
0.0
 41
1.0
 50
0.0
 71
     0
 42
0.2
  3
txt
  4

  0
ENDTAB
  0
TABLE
  2
VIEW
  5
6
330
0
100
AcDbSymbolTable
 70
     0
  0
ENDTAB
  0
TABLE
  2
UCS
  5
7
330
0
100
AcDbSymbolTable
 70
     0
  0
ENDTAB
  0
TABLE
  2
APPID
  5
9
330
0
100
AcDbSymbolTable
 70
     2
  0
APPID
  5
12
330
9
100
AcDbSymbolTableRecord
100
AcDbRegAppTableRecord
  2
ACAD
 70
     0
  0
APPID
  5
29E
330
9
100
AcDbSymbolTableRecord
100
AcDbRegAppTableRecord
  2
ACAD_MLEADERVER
 70
     0
  0
ENDTAB
  0
TABLE
  2
DIMSTYLE
  5
A
330
0
100
AcDbSymbolTable
 70
     1
  0
DIMSTYLE
105
27
330
A
100
AcDbSymbolTableRecord
100
AcDbDimStyleTableRecord
  2
STANDARD
 70
     0
  3

  4

  5

  6

  7

 40
1.0
 41
0.18
 42
0.0625
 43
0.38
 44
0.18
 45
0.0
 46
0.0
 47
0.0
 48
0.0
140
0.18
141
0.09
142
0.0
143
25.4
144
1.0
145
0.0
146
1.0
147
0.09
 71
     0
 72
     0
 73
     1
 74
     1
 75
     0
 76
     0
 77
     0
 78
     0
170
     0
171
     2
172
     0
173
     0
174
     0
175
     0
176
     0
177
     0
178
     0
270
     2
271
     4
272
     4
273
     2
274
     2
340
11
275
     0
280
     0
281
     0
282
     0
283
     1
284
     0
285
     0
286
     0
287
     3
288
     0
  0
ENDTAB
  0
TABLE
  2
BLOCK_RECORD
  5
1
330
0
100
AcDbSymbolTable
 70
     1
  0
BLOCK_RECORD
  5
1F
330
1
100
AcDbSymbolTableRecord
100
AcDbBlockTableRecord
  2
*MODEL_SPACE
  0
BLOCK_RECORD
  5
1B
330
1
100
AcDbSymbolTableRecord
100
AcDbBlockTableRecord
  2
*PAPER_SPACE
  0
ENDTAB
  0
ENDSEC
  0
SECTION
  2
BLOCKS
  0
BLOCK
  5
20
330
1F
100
AcDbEntity
  8
0
100
AcDbBlockBegin
  2
*MODEL_SPACE
 70
     0
 10
0.0
 20
0.0
 30
0.0
  3
*MODEL_SPACE
  1

  0
ENDBLK
  5
21
330
1F
100
AcDbEntity
  8
0
100
AcDbBlockEnd
  0
BLOCK
  5
1C
330
1B
100
AcDbEntity
 67
     1
  8
0
100
AcDbBlockBegin
  2
*PAPER_SPACE
 70
     0
 10
0.0
 20
0.0
 30
0.0
  3
*PAPER_SPACE
  1

  0
ENDBLK
  5
1D
330
1B
100
AcDbEntity
 67
     1
  8
0
100
AcDbBlockEnd
  0
ENDSEC
  0
SECTION
  2
ENTITIES
  0
LINE
  5
A2
330
1F
100
AcDbEntity
  8
LIMESTONE_FSET3
100
AcDbLine
 10
374.2683464980219
 20
37.25427489867434
 30
0.0
 11
375.1829808305483
 21
38.56472758343443
 31
0.0
  0
LINE
  5
A3
330
1F
100
AcDbEntity
  8
LIMESTONE_FSET3
100
AcDbLine
 10
388.9024958168156
 20
40.99842542642727
 30
0.0
 11
390.0000570158008
 21
42.8705006907694
 31
0.0
  0
LINE
  5
A4
330
1F
100
AcDbEntity
  8
LIMESTONE_FSET3
100
AcDbLine
 10
389.634203282767
 20
191.5132766417228
 30
0.0
 11
390.9146913482109
 21
193.5725594316609
 31
0.0
  0
LINE
  5
A5
330
1F
100
AcDbEntity
  8
LIMESTONE_FSET3
100
AcDbLine
 10
402.9878645362332
 20
192.6365217999555
 30
0.0
 11
404.8171332010534
 21
196.5678798542358
 31
0.0
  0
LINE
  5
A6
330
1F
100
AcDbEntity
  8
LIMESTONE_FSET3
100
AcDbLine
 10
403.3537182692671
 20
10.8580136783421
 30
0.0
 11
404.2683526015608
 21
11.98125883657485
 31
0.0
  0
LINE
  5
A7
330
1F
100
AcDbEntity
  8
LIMESTONE_FSET3
100
AcDbLine
 10
403.3537182692671
 20
409.9844599352218
 30
0.0
 11
404.6342063345946
 21
412.7925728308037
 31
0.0
  0
LINE
  5
A8
330
1F
100
AcDbEntity
  8
LIMESTONE_FSET3
100
AcDbLine
 10
405.7317675335798
 20
109.3291725576855
 30
0.0
 11
406.6464018658735
 21
111.3884553480893
 31
0.0
  0
LINE
  5
A9
330
1F
100
AcDbEntity
  8
LIMESTONE_FSET3
100
AcDbLine
 10
405.7317675335798
 20
384.149821294006
 30
0.0
 11
406.4634749994148
 21
385.2730664522387
 31
0.0
  0
LINE
  5
AA
330
1F
100
AcDbEntity
  8
LIMESTONE_FSET3
100
AcDbLine
 10
407.9268899313174
 20
138.5335466740653
 30
0.0
 11
409.2073779967614
 21
140.9672445170581
 31
0.0
  0
LINE
  5
AB
330
1F
100
AcDbEntity
  8
LIMESTONE_FSET3
100
AcDbLine
 10
408.6585973972687
 20
577.7224035779946
 30
0.0
 11
410.122012329055
 21
579.96889389446
 31
0.0
  0
LINE
  5
AC
330
1F
100
AcDbEntity
  8
LIMESTONE_FSET3
100
AcDbLine
 10
412.6829884599429
 20
336.4119020653889
 30
0.0
 11
413.4146959258942
 21
337.7223547496833
 31
0.0
  0
LINE
  5
AD
330
1F
100
AcDbEntity
  8
LIMESTONE_FSET3
100
AcDbLine
 10
417.6220138549106
 20
120.000001561828
 30
0.0
 11
418.3537213209784
 21
121.3104542465881
 31
0.0
  0
LINE
  5
AE
330
1F
100
AcDbEntity
  8
LIMESTONE_FSET3
100
AcDbLine
 10
419.0854287869297
 20
122.8081144578755
 30
0.0
 11
420.0000631193398
 21
123.9313596161082
 31
0.0
  0
LINE
  5
AF
330
1F
100
AcDbEntity
  8
LIMESTONE_FSET3
100
AcDbLine
 10
420.0000631193398
 20
437.1295512611978
 30
0.0
 11
422.0122586506186
 21
440.8737017889507
 31
0.0
  0
LINE
  5
B0
330
1F
100
AcDbEntity
  8
LIMESTONE_FSET3
100
AcDbLine
 10
421.8293317841599
 20
421.2169115184806
 30
0.0
 11
423.1098198496038
 21
423.2761943084188
 31
0.0
  0
LINE
  5
B1
330
1F
100
AcDbEntity
  8
LIMESTONE_FSET3
100
AcDbLine
 10
422.7439661166864
 20
441.9969469476491
 30
0.0
 11
423.4756735825213
 21
443.4946071584709
 31
0.0
  0
LINE
  5
B2
330
1F
100
AcDbEntity
  8
LIMESTONE_FSET3
100
AcDbLine
 10
424.0244541818975
 20
444.2434372641146
 30
0.0
 11
425.1220153808827
 21
445.7410974749364
 31
0.0
  0
LINE
  5
B3
330
1F
100
AcDbEntity
  8
LIMESTONE_FSET3
100
AcDbLine
 10
425.853722846834
 20
447.8003802653402
 30
0.0
 11
426.9512840457028
 21
449.859663055744
 31
0.0
  0
LINE
  5
B4
330
1F
100
AcDbEntity
  8
LIMESTONE_FSET3
100
AcDbLine
 10
426.9512840457028
 20
377.5975578702055
 30
0.0
 11
427.8659183782293
 21
378.9080105554312
 31
0.0
  0
LINE
  5
B5
330
1F
100
AcDbEntity
  8
LIMESTONE_FSET3
100
AcDbLine
 10
427.3171377787367
 20
98.65834355400875
 30
0.0
 11
430.243967642542
 21
104.0873618191108
 31
0.0
  0
LINE
  5
B6
330
1F
100
AcDbEntity
  8
LIMESTONE_FSET3
100
AcDbLine
 10
427.5000646451954
 20
535.7879176675342
 30
0.0
 11
428.7805527105229
 21
537.8472004574724
 31
0.0
  0
LINE
  5
B7
330
1F
100
AcDbEntity
  8
LIMESTONE_FSET3
100
AcDbLine
 10
427.6829915116541
 20
297.6599441030994
 30
0.0
 11
431.3415288414108
 21
303.6505849473178
 31
0.0
  0
LINE
  5
B8
330
1F
100
AcDbEntity
  8
LIMESTONE_FSET3
100
AcDbLine
 10
427.6829915116541
 20
520.4369005039334
 30
0.0
 11
428.4146989776054
 21
522.1217682412826
 31
0.0
  0
LINE
  5
B9
330
1F
100
AcDbEntity
  8
LIMESTONE_FSET3
100
AcDbLine
 10
428.4146989776054
 20
461.6537372181192
 30
0.0
 11
429.1464064435568
 21
462.9641899028793
 31
0.0
  0
LINE
  5
BA
330
1F
100
AcDbEntity
  8
LIMESTONE_FSET3
100
AcDbLine
 10
429.6951870430494
 20
596.0687411641702
 30
0.0
 11
431.5244557078695
 21
599.0640615858138
 31
0.0
  0
LINE
  5
BB
330
1F
100
AcDbEntity
  8
LIMESTONE_FSET3
100
AcDbLine
 10
429.8781139093917
 20
473.6350189070217
 30
0.0
 11
431.1586019748356
 21
475.6943016969599
 31
0.0
  0
LINE
  5
BC
330
1F
100
AcDbEntity
  8
LIMESTONE_FSET3
100
AcDbLine
 10
431.7073825743282
 20
342.2153353830799
 30
0.0
 11
432.6220169067383
 21
343.52578806784
 31
0.0
  0
LINE
  5
BD
330
1F
100
AcDbEntity
  8
LIMESTONE_FSET3
100
AcDbLine
 10
431.7073825743282
 20
444.2434372641146
 30
0.0
 11
432.804943773197
 21
446.1155125279911
 31
0.0
  0
LINE
  5
BE
330
1F
100
AcDbEntity
  8
LIMESTONE_FSET3
100
AcDbLine
 10
433.1707975062309
 20
521.1857306091115
 30
0.0
 11
434.8171393045923
 21
524.5554660842754
 31
0.0
  0
LINE
  5
BF
330
1F
100
AcDbEntity
  8
LIMESTONE_FSET3
100
AcDbLine
 10
434.4512855716748
 20
580.1561014209874
 30
0.0
 11
437.5610423018225
 21
585.7723272126168
 31
0.0
  0
LINE
  5
C0
330
1F
100
AcDbEntity
  8
LIMESTONE_FSET3
100
AcDbLine
 10
435.1829930375097
 20
375.5382750798017
 30
0.0
 11
436.2805542364949
 21
377.0359352910891
 31
0.0
  0
LINE
  5
C1
330
1F
100
AcDbEntity
  8
LIMESTONE_FSET3
100
AcDbLine
 10
435.1829930375097
 20
525.4915037159808
 30
0.0
 11
436.6464079694124
 21
527.5507865063846
 31
0.0
  0
LINE
  5
C2
330
1F
100
AcDbEntity
  8
LIMESTONE_FSET3
100
AcDbLine
 10
435.7317736370023
 20
146.3962627826259
 30
0.0
 11
437.5610423018225
 21
149.2043756782077
 31
0.0
  0
LINE
  5
C3
330
1F
100
AcDbEntity
  8
LIMESTONE_FSET3
100
AcDbLine
 10
436.8293348359875
 20
295.4134537861682
 30
0.0
 11
437.5610423018225
 21
296.5366989448667
 31
0.0
  0
LINE
  5
C4
330
1F
100
AcDbEntity
  8
LIMESTONE_FSET3
100
AcDbLine
 10
437.0122617023299
 20
528.861239190679
 30
0.0
 11
439.3903109666426
 21
532.4181821923703
 31
0.0
  0
LINE
  5
C5
330
1F
100
AcDbEntity
  8
LIMESTONE_FSET3
100
AcDbLine
 10
437.5610423018225
 20
591.3885530042462
 30
0.0
 11
438.6586035006912
 21
593.44783579465
 31
0.0
  0
LINE
  5
C6
330
1F
100
AcDbEntity
  8
LIMESTONE_FSET3
100
AcDbLine
 10
437.7439691683976
 20
407.1763470391743
 30
0.0
 11
443.0488482963992
 21
416.1623083059676
 31
0.0
  0
LINE
  5
C7
330
1F
100
AcDbEntity
  8
LIMESTONE_FSET3
100
AcDbLine
 10
438.2927497677738
 20
418.0343835698441
 30
0.0
 11
438.8415303672664
 21
419.3448362546042
 31
0.0
  0
LINE
  5
C8
330
1F
100
AcDbEntity
  8
LIMESTONE_FSET3
100
AcDbLine
 10
438.6586035006912
 20
116.6302660871297
 30
0.0
 11
439.7561646997929
 21
119.0639639296569
 31
0.0
  0
LINE
  5
C9
330
1F
100
AcDbEntity
  8
LIMESTONE_FSET3
100
AcDbLine
 10
438.8415303672664
 20
161.5600724196993
 30
0.0
 11
439.5732378332177
 21
163.0577326305211
 31
0.0
  0
LINE
  5
CA
330
1F
100
AcDbEntity
  8
LIMESTONE_FSET3
100
AcDbLine
 10
439.2073841003003
 20
594.5710809528828
 30
0.0
 11
440.1220184325939
 21
596.4431562167592
 31
0.0
  0
LINE
  5
CB
330
1F
100
AcDbEntity
  8
LIMESTONE_FSET3
100
AcDbLine
 10
440.1220184325939
 20
61.40404580254108
 30
0.0
 11
441.2195796315791
 21
63.0889135398902
 31
0.0
  0
LINE
  5
CC
330
1F
100
AcDbEntity
  8
LIMESTONE_FSET3
100
AcDbLine
 10
440.4878721656278
 20
212.854934649542
 30
0.0
 11
445.0610438277945
 21
221.0920658106916
 31
0.0
  0
LINE
  5
CD
330
1F
100
AcDbEntity
  8
LIMESTONE_FSET3
100
AcDbLine
 10
440.6707990320865
 20
193.9469744847156
 30
0.0
 11
441.7683602309553
 21
195.8190497485921
 31
0.0
  0
LINE
  5
CE
330
1F
100
AcDbEntity
  8
LIMESTONE_FSET3
100
AcDbLine
 10
440.8537258986617
 20
19.09514483902603
 30
0.0
 11
442.6829945634818
 21
21.90325773507357
 31
0.0
  0
LINE
  5
CF
330
1F
100
AcDbEntity
  8
LIMESTONE_FSET3
100
AcDbLine
 10
440.8537258986617
 20
597.3791938484646
 30
0.0
 11
442.3171408304479
 21
599.8128916914575
 31
0.0
  0
LINE
  5
D0
330
1F
100
AcDbEntity
  8
LIMESTONE_FSET3
100
AcDbLine
 10
441.4025064980378
 20
254.0405904548243
 30
0.0
 11
442.8659214299405
 21
256.6614958243445
 31
0.0
  0
LINE
  5
D1
330
1F
100
AcDbEntity
  8
LIMESTONE_FSET3
100
AcDbLine
 10
441.9512870975304
 20
348.3931837542914
 30
0.0
 11
443.0488482963992
 21
350.2652590177022
 31
0.0
  0
LINE
  5
D2
330
1F
100
AcDbEntity
  8
LIMESTONE_FSET3
100
AcDbLine
 10
442.3171408304479
 20
196.5678798542358
 30
0.0
 11
443.0488482963992
 21
198.0655400650576
 31
0.0
  0
LINE
  5
D3
330
1F
100
AcDbEntity
  8
LIMESTONE_FSET3
100
AcDbLine
 10
442.8659214299405
 20
512.9485994479619
 30
0.0
 11
445.7927512936294
 21
518.1904101870023
 31
0.0
  0
LINE
  5
D4
330
1F
100
AcDbEntity
  8
LIMESTONE_FSET3
100
AcDbLine
 10
443.7805557623506
 20
312.0749236349948
 30
0.0
 11
444.5122632281855
 21
313.5725838458166
 31
0.0
  0
LINE
  5
D5
330
1F
100
AcDbEntity
  8
LIMESTONE_FSET3
100
AcDbLine
 10
443.9634826288093
 20
351.950126755517
 30
0.0
 11
446.1586050266633
 21
355.5070697567426
 31
0.0
  0
LINE
  5
D6
330
1F
100
AcDbEntity
  8
LIMESTONE_FSET3
100
AcDbLine
 10
444.5122632281855
 20
398.7520083524287
 30
0.0
 11
445.7927512936294
 21
400.9984986684285
 31
0.0
  0
LINE
  5
D7
330
1F
100
AcDbEntity
  8
LIMESTONE_FSET3
100
AcDbLine
 10
444.8781169612193
 20
580.3433089475147
 30
0.0
 11
445.9756781602046
 21
582.2153842113912
 31
0.0
  0
LINE
  5
D8
330
1F
100
AcDbEntity
  8
LIMESTONE_FSET3
100
AcDbLine
 10
445.0610438277945
 20
148.2683380465023
 30
0.0
 11
446.1586050266633
 21
150.7020358894952
 31
0.0
  0
LINE
  5
D9
330
1F
100
AcDbEntity
  8
LIMESTONE_FSET3
100
AcDbLine
 10
445.0610438277945
 20
541.96576603828
 30
0.0
 11
445.9756781602046
 21
544.2122563547455
 31
0.0
  0
LINE
  5
DA
330
1F
100
AcDbEntity
  8
LIMESTONE_FSET3
100
AcDbLine
 10
445.7927512936294
 20
299.3448118404485
 30
0.0
 11
447.4390930919908
 21
302.1529247364961
 31
0.0
  0
LINE
  5
DB
330
1F
100
AcDbEntity
  8
LIMESTONE_FSET3
100
AcDbLine
 10
445.9756781602046
 20
201.2480680136941
 30
0.0
 11
446.8903124924982
 21
203.1201432775706
 31
0.0
  0
LINE
  5
DC
330
1F
100
AcDbEntity
  8
LIMESTONE_FSET3
100
AcDbLine
 10
446.1586050266633
 20
428.7052125739865
 30
0.0
 11
447.2561662256485
 21
430.3900803118013
 31
0.0
  0
LINE
  5
DD
330
1F
100
AcDbEntity
  8
LIMESTONE_FSET3
100
AcDbLine
 10
446.341531893122
 20
519.313655345235
 30
0.0
 11
447.6220199584495
 21
521.3729381356388
 31
0.0
  0
LINE
  5
DE
330
1F
100
AcDbEntity
  8
LIMESTONE_FSET3
100
AcDbLine
 10
446.5244587595807
 20
30.14038889622316
 30
0.0
 11
447.4390930919908
 21
31.63804910704494
 31
0.0
  0
LINE
  5
DF
330
1F
100
AcDbEntity
  8
LIMESTONE_FSET3
100
AcDbLine
 10
446.5244587595807
 20
384.3370288205333
 30
0.0
 11
447.6220199584495
 21
386.0218965578824
 31
0.0
  0
LINE
  5
E0
330
1F
100
AcDbEntity
  8
LIMESTONE_FSET3
100
AcDbLine
 10
446.7073856261559
 20
452.4805684252642
 30
0.0
 11
447.6220199584495
 21
454.1654361626133
 31
0.0
  0
LINE
  5
E1
330
1F
100
AcDbEntity
  8
LIMESTONE_FSET3
100
AcDbLine
 10
446.7073856261559
 20
583.713044422213
 30
0.0
 11
448.3537274245173
 21
586.7083648447879
 31
0.0
  0
LINE
  5
E2
330
1F
100
AcDbEntity
  8
LIMESTONE_FSET3
100
AcDbLine
 10
446.8903124924982
 20
266.0218721437268
 30
0.0
 11
448.536654290976
 21
269.2044000918977
 31
0.0
  0
LINE
  5
E3
330
1F
100
AcDbEntity
  8
LIMESTONE_FSET3
100
AcDbLine
 10
447.0732393590733
 20
402.6833664062433
 30
0.0
 11
447.9878736915998
 21
403.9938190910034
 31
0.0
  0
LINE
  5
E4
330
1F
100
AcDbEntity
  8
LIMESTONE_FSET3
100
AcDbLine
 10
447.2561662256485
 20
496.0999220735393
 30
0.0
 11
448.1708005579421
 21
497.2231672313064
 31
0.0
  0
LINE
  5
E5
330
1F
100
AcDbEntity
  8
LIMESTONE_FSET3
100
AcDbLine
 10
447.9878736915998
 20
32.574086739216
 30
0.0
 11
448.7195811574347
 21
33.88453942397609
 31
0.0
  0
LINE
  5
E6
330
1F
100
AcDbEntity
  8
LIMESTONE_FSET3
100
AcDbLine
 10
448.3537274245173
 20
247.3011195049621
 30
0.0
 11
449.2683617568109
 21
248.9859872423112
 31
0.0
  0
LINE
  5
E7
330
1F
100
AcDbEntity
  8
LIMESTONE_FSET3
100
AcDbLine
 10
448.3537274245173
 20
558.2528208340518
 30
0.0
 11
449.0854348904686
 21
559.3760659918189
 31
0.0
  0
LINE
  5
E8
330
1F
100
AcDbEntity
  8
LIMESTONE_FSET3
100
AcDbLine
 10
448.536654290976
 20
0.1871846741996706
 30
0.0
 11
450.0000692228787
 21
2.246467464603484
 31
0.0
  0
LINE
  5
E9
330
1F
100
AcDbEntity
  8
LIMESTONE_FSET3
100
AcDbLine
 10
448.9025080238935
 20
388.6428019274026
 30
0.0
 11
451.8293378876988
 21
393.5101976129226
 31
0.0
  0
LINE
  5
EA
330
1F
100
AcDbEntity
  8
LIMESTONE_FSET3
100
AcDbLine
 10
449.2683617568109
 20
588.393232582137
 30
0.0
 11
451.0976304217475
 21
591.3885530042462
 31
0.0
  0
LINE
  5
EB
330
1F
100
AcDbEntity
  8
LIMESTONE_FSET3
100
AcDbLine
 10
449.4512886233861
 20
572.2933853128925
 30
0.0
 11
450.1829960893374
 21
573.7910455237143
 31
0.0
  0
LINE
  5
EC
330
1F
100
AcDbEntity
  8
LIMESTONE_FSET3
100
AcDbLine
 10
449.6342154898448
 20
239.0639883438125
 30
0.0
 11
450.9147035552887
 21
241.4976861868054
 31
0.0
  0
LINE
  5
ED
330
1F
100
AcDbEntity
  8
LIMESTONE_FSET3
100
AcDbLine
 10
450.0000692228787
 20
213.0421421760693
 30
0.0
 11
452.1951916206162
 21
216.7862927038223
 31
0.0
  0
LINE
  5
EE
330
1F
100
AcDbEntity
  8
LIMESTONE_FSET3
100
AcDbLine
 10
450.5488498222549
 20
2.995297570247203
 30
0.0
 11
451.4634841547813
 21
4.492957781068981
 31
0.0
  0
LINE
  5
EF
330
1F
100
AcDbEntity
  8
LIMESTONE_FSET3
100
AcDbLine
 10
451.0976304217475
 20
289.7972279950045
 30
0.0
 11
453.841533419094
 21
294.8518312075175
 31
0.0
  0
LINE
  5
F0
330
1F
100
AcDbEntity
  8
LIMESTONE_FSET3
100
AcDbLine
 10
451.6464110211236
 20
591.9501755833626
 30
0.0
 11
452.7439722201088
 21
594.1966659002937
 31
0.0
  0
LINE
  5
F1
330
1F
100
AcDbEntity
  8
LIMESTONE_FSET3
100
AcDbLine
 10
452.378118487075
 20
316.9423193205148
 30
0.0
 11
456.768363282783
 21
324.6178279030137
 31
0.0
  0
LINE
  5
F2
330
1F
100
AcDbEntity
  8
LIMESTONE_FSET3
100
AcDbLine
 10
452.7439722201088
 20
81.99687370518222
 30
0.0
 11
455.8537289503729
 21
87.42589197028428
 31
0.0
  0
LINE
  5
F3
330
1F
100
AcDbEntity
  8
LIMESTONE_FSET3
100
AcDbLine
 10
453.4756796860602
 20
17.22306957514957
 30
0.0
 11
454.9390946179628
 21
19.46955989208072
 31
0.0
  0
LINE
  5
F4
330
1F
100
AcDbEntity
  8
LIMESTONE_FSET3
100
AcDbLine
 10
454.0244602854364
 20
27.51948352670297
 30
0.0
 11
458.2317782146856
 21
35.00778458220884
 31
0.0
  0
LINE
  5
F5
330
1F
100
AcDbEntity
  8
LIMESTONE_FSET3
100
AcDbLine
 10
455.4878752174554
 20
494.2278468096629
 30
0.0
 11
457.682997615193
 21
498.3464123900048
 31
0.0
  0
LINE
  5
F6
330
1F
100
AcDbEntity
  8
LIMESTONE_FSET3
100
AcDbLine
 10
456.5854364163242
 20
52.41808453621343
 30
0.0
 11
457.682997615193
 21
54.47736732661724
 31
0.0
  0
LINE
  5
F7
330
1F
100
AcDbEntity
  8
LIMESTONE_FSET3
100
AcDbLine
 10
456.9512901492417
 20
130.109207986854
 30
0.0
 11
457.8659244817682
 21
131.6068681976758
 31
0.0
  0
LINE
  5
F8
330
1F
100
AcDbEntity
  8
LIMESTONE_FSET3
100
AcDbLine
 10
457.3171438822756
 20
429.6412502056919
 30
0.0
 11
459.8781200129306
 21
434.1342308390886
 31
0.0
  0
LINE
  5
F9
330
1F
100
AcDbEntity
  8
LIMESTONE_FSET3
100
AcDbLine
 10
457.5000707487343
 20
72.26208233321086
 30
0.0
 11
458.9634856806369
 21
74.6957801762037
 31
0.0
  0
LINE
  5
FA
330
1F
100
AcDbEntity
  8
LIMESTONE_FSET3
100
AcDbLine
 10
457.5000707487343
 20
515.0078822388314
 30
0.0
 11
460.2439737460809
 21
519.688070397824
 31
0.0
  0
LINE
  5
FB
330
1F
100
AcDbEntity
  8
LIMESTONE_FSET3
100
AcDbLine
 10
458.2317782146856
 20
577.7224035779946
 30
0.0
 11
458.9634856806369
 21
579.0328562627546
 31
0.0
  0
LINE
  5
FC
330
1F
100
AcDbEntity
  8
LIMESTONE_FSET3
100
AcDbLine
 10
458.5976319476031
 20
586.5211573182605
 30
0.0
 11
460.6098274789983
 21
589.8908927929588
 31
0.0
  0
LINE
  5
FD
330
1F
100
AcDbEntity
  8
LIMESTONE_FSET3
100
AcDbLine
 10
459.6951931465883
 20
56.91106516914442
 30
0.0
 11
461.7073886778671
 21
60.8424232234247
 31
0.0
  0
LINE
  5
FE
330
1F
100
AcDbEntity
  8
LIMESTONE_FSET3
100
AcDbLine
 10
459.8781200129306
 20
100.9048338700086
 30
0.0
 11
460.7927543454571
 21
102.2152865552343
 31
0.0
  0
LINE
  5
FF
330
1F
100
AcDbEntity
  8
LIMESTONE_FSET3
100
AcDbLine
 10
460.0610468795057
 20
451.9189458461478
 30
0.0
 11
461.524461811292
 21
454.1654361626133
 31
0.0
  0
LINE
  5
100
330
1F
100
AcDbEntity
  8
LIMESTONE_FSET3
100
AcDbLine
 10
461.7073886778671
 20
591.9501755833626
 30
0.0
 11
463.5366573426872
 21
594.9454960059375
 31
0.0
  0
LINE
  5
101
330
1F
100
AcDbEntity
  8
LIMESTONE_FSET3
100
AcDbLine
 10
462.0732424107846
 20
393.8846126659773
 30
0.0
 11
462.9878767433111
 21
395.7566879298538
 31
0.0
  0
LINE
  5
102
330
1F
100
AcDbEntity
  8
LIMESTONE_FSET3
100
AcDbLine
 10
462.9878767433111
 20
424.7738545197062
 30
0.0
 11
467.7439752719365
 21
433.5726082599722
 31
0.0
  0
LINE
  5
103
330
1F
100
AcDbEntity
  8
LIMESTONE_FSET3
100
AcDbLine
 10
463.7195842092624
 20
25.6474082628265
 30
0.0
 11
464.8171454081312
 21
27.33227600017563
 31
0.0
  0
LINE
  5
104
330
1F
100
AcDbEntity
  8
LIMESTONE_FSET3
100
AcDbLine
 10
463.7195842092624
 20
316.1934892153367
 30
0.0
 11
465.1829991410486
 21
318.6271870587952
 31
0.0
  0
LINE
  5
105
330
1F
100
AcDbEntity
  8
LIMESTONE_FSET3
100
AcDbLine
 10
464.4512916750973
 20
596.8175712693483
 30
0.0
 11
465.914706607
 21
599.0640615858138
 31
0.0
  0
LINE
  5
106
330
1F
100
AcDbEntity
  8
LIMESTONE_FSET3
100
AcDbLine
 10
465.1829991410486
 20
538.221615510527
 30
0.0
 11
466.82934093941
 21
540.4681058269925
 31
0.0
  0
LINE
  5
107
330
1F
100
AcDbEntity
  8
LIMESTONE_FSET3
100
AcDbLine
 10
465.3659260076238
 20
120.7488316674717
 30
0.0
 11
466.82934093941
 21
122.9953219844028
 31
0.0
  0
LINE
  5
108
330
1F
100
AcDbEntity
  8
LIMESTONE_FSET3
100
AcDbLine
 10
465.3659260076238
 20
562.9330089935102
 30
0.0
 11
469.3903170701815
 21
570.2341025224887
 31
0.0
  0
LINE
  5
109
330
1F
100
AcDbEntity
  8
LIMESTONE_FSET3
100
AcDbLine
 10
467.1951946724439
 20
497.0359597052447
 30
0.0
 11
469.2073902037228
 21
500.2184876538813
 31
0.0
  0
LINE
  5
10A
330
1F
100
AcDbEntity
  8
LIMESTONE_FSET3
100
AcDbLine
 10
467.3781215387862
 20
124.4929821952246
 30
0.0
 11
470.3049514025915
 21
129.173170354683
 31
0.0
  0
LINE
  5
10B
330
1F
100
AcDbEntity
  8
LIMESTONE_FSET3
100
AcDbLine
 10
467.3781215387862
 20
541.7785585117526
 30
0.0
 11
468.4756827378878
 21
543.8378413021564
 31
0.0
  0
LINE
  5
10C
330
1F
100
AcDbEntity
  8
LIMESTONE_FSET3
100
AcDbLine
 10
467.5610484053614
 20
51.29483937751502
 30
0.0
 11
469.3903170701815
 21
54.2901598000899
 31
0.0
  0
LINE
  5
10D
330
1F
100
AcDbEntity
  8
LIMESTONE_FSET3
100
AcDbLine
 10
467.9269021382788
 20
436.5679286825471
 30
0.0
 11
468.8415364708053
 21
437.8783813668415
 31
0.0
  0
LINE
  5
10E
330
1F
100
AcDbEntity
  8
LIMESTONE_FSET3
100
AcDbLine
 10
469.3903170701815
 20
177.6599196889438
 30
0.0
 11
471.9512932010693
 21
182.3401078488678
 31
0.0
  0
LINE
  5
10F
330
1F
100
AcDbEntity
  8
LIMESTONE_FSET3
100
AcDbLine
 10
469.9390976696741
 20
571.1701401541941
 30
0.0
 11
470.8537320020841
 21
572.6678003659472
 31
0.0
  0
LINE
  5
110
330
1F
100
AcDbEntity
  8
LIMESTONE_FSET3
100
AcDbLine
 10
470.3049514025915
 20
502.0905629177578
 30
0.0
 11
471.9512932010693
 21
504.8986758133397
 31
0.0
  0
LINE
  5
111
330
1F
100
AcDbEntity
  8
LIMESTONE_FSET3
100
AcDbLine
 10
471.219585735118
 20
409.4228373561054
 30
0.0
 11
472.8659275334794
 21
412.230950252153
 31
0.0
  0
LINE
  5
112
330
1F
100
AcDbEntity
  8
LIMESTONE_FSET3
100
AcDbLine
 10
471.4025126015767
 20
234.0093851312995
 30
0.0
 11
474.1464155988069
 21
238.3151582386345
 31
0.0
  0
LINE
  5
113
330
1F
100
AcDbEntity
  8
LIMESTONE_FSET3
100
AcDbLine
 10
471.4025126015767
 20
334.5398268015124
 30
0.0
 11
472.6830006669043
 21
336.7863171175122
 31
0.0
  0
LINE
  5
114
330
1F
100
AcDbEntity
  8
LIMESTONE_FSET3
100
AcDbLine
 10
471.7683663344942
 20
530.7333144550212
 30
0.0
 11
475.061049931217
 21
536.1623327201232
 31
0.0
  0
LINE
  5
115
330
1F
100
AcDbEntity
  8
LIMESTONE_FSET3
100
AcDbLine
 10
472.1342200674117
 20
251.7941001383588
 30
0.0
 11
473.7805618658895
 21
255.163835613057
 31
0.0
  0
LINE
  5
116
330
1F
100
AcDbEntity
  8
LIMESTONE_FSET3
100
AcDbLine
 10
472.3171469339868
 20
266.3962871967815
 30
0.0
 11
475.9756842637435
 21
272.9485506196506
 31
0.0
  0
LINE
  5
117
330
1F
100
AcDbEntity
  8
LIMESTONE_FSET3
100
AcDbLine
 10
473.4147081328556
 20
184.773805691395
 30
0.0
 11
474.6951961982995
 21
187.0202960083261
 31
0.0
  0
LINE
  5
118
330
1F
100
AcDbEntity
  8
LIMESTONE_FSET3
100
AcDbLine
 10
473.4147081328556
 20
197.5039174859412
 30
0.0
 11
474.6951961982995
 21
199.7504078028724
 31
0.0
  0
LINE
  5
119
330
1F
100
AcDbEntity
  8
LIMESTONE_FSET3
100
AcDbLine
 10
474.1464155988069
 20
384.149821294006
 30
0.0
 11
475.7927573971683
 21
386.7707266635261
 31
0.0
  0
LINE
  5
11A
330
1F
100
AcDbEntity
  8
LIMESTONE_FSET3
100
AcDbLine
 10
474.6951961982995
 20
339.4072224870324
 30
0.0
 11
475.9756842637435
 21
341.6537128039636
 31
0.0
  0
LINE
  5
11B
330
1F
100
AcDbEntity
  8
LIMESTONE_FSET3
100
AcDbLine
 10
474.8781230647583
 20
439.5632491041906
 30
0.0
 11
475.6098305307096
 21
440.8737017889507
 31
0.0
  0
LINE
  5
11C
330
1F
100
AcDbEntity
  8
LIMESTONE_FSET3
100
AcDbLine
 10
475.6098305307096
 20
1.123222305905074
 30
0.0
 11
476.3415379966609
 21
2.808090043719858
 31
0.0
  0
LINE
  5
11D
330
1F
100
AcDbEntity
  8
LIMESTONE_FSET3
100
AcDbLine
 10
475.6098305307096
 20
241.310478660278
 30
0.0
 11
476.8903185960371
 21
243.1825539241545
 31
0.0
  0
LINE
  5
11E
330
1F
100
AcDbEntity
  8
LIMESTONE_FSET3
100
AcDbLine
 10
475.6098305307096
 20
276.3182860952802
 30
0.0
 11
476.5244648631196
 21
277.815946306102
 31
0.0
  0
LINE
  5
11F
330
1F
100
AcDbEntity
  8
LIMESTONE_FSET3
100
AcDbLine
 10
475.7927573971683
 20
152.5741111533716
 30
0.0
 11
476.8903185960371
 21
154.8206014698371
 31
0.0
  0
LINE
  5
120
330
1F
100
AcDbEntity
  8
LIMESTONE_FSET3
100
AcDbLine
 10
475.7927573971683
 20
513.884637080133
 30
0.0
 11
480.5488559257938
 21
522.4961832938716
 31
0.0
  0
LINE
  5
121
330
1F
100
AcDbEntity
  8
LIMESTONE_FSET3
100
AcDbLine
 10
475.7927573971683
 20
583.5258368961513
 30
0.0
 11
477.4390991955297
 21
586.8955723713152
 31
0.0
  0
LINE
  5
122
330
1F
100
AcDbEntity
  8
LIMESTONE_FSET3
100
AcDbLine
 10
477.0732454626122
 20
550.3901047254913
 30
0.0
 11
480.5488559257938
 21
556.9423681488261
 31
0.0
  0
LINE
  5
123
330
1F
100
AcDbEntity
  8
LIMESTONE_FSET3
100
AcDbLine
 10
477.4390991955297
 20
192.4493142738938
 30
0.0
 11
480.7317827923689
 21
197.6911250124685
 31
0.0
  0
LINE
  5
124
330
1F
100
AcDbEntity
  8
LIMESTONE_FSET3
100
AcDbLine
 10
477.4390991955297
 20
204.4305959623307
 30
0.0
 11
480.7317827923689
 21
209.8596142274328
 31
0.0
  0
LINE
  5
125
330
1F
100
AcDbEntity
  8
LIMESTONE_FSET3
100
AcDbLine
 10
477.6220260619884
 20
307.7691505281255
 30
0.0
 11
478.7195872609736
 21
309.6412257920019
 31
0.0
  0
LINE
  5
126
330
1F
100
AcDbEntity
  8
LIMESTONE_FSET3
100
AcDbLine
 10
477.8049529285636
 20
244.6802141359076
 30
0.0
 11
478.5366603943985
 21
246.1778743467294
 31
0.0
  0
LINE
  5
127
330
1F
100
AcDbEntity
  8
LIMESTONE_FSET3
100
AcDbLine
 10
477.9878797950223
 20
588.393232582137
 30
0.0
 11
480.5488559257938
 21
592.6990056890063
 31
0.0
  0
LINE
  5
128
330
1F
100
AcDbEntity
  8
LIMESTONE_FSET3
100
AcDbLine
 10
478.170806661481
 20
6.177825518418103
 30
0.0
 11
482.561051457189
 21
13.85333410045132
 31
0.0
  0
LINE
  5
129
330
1F
100
AcDbEntity
  8
LIMESTONE_FSET3
100
AcDbLine
 10
478.170806661481
 20
160.2496197349392
 30
0.0
 11
480.5488559257938
 21
163.2449401570484
 31
0.0
  0
LINE
  5
12A
330
1F
100
AcDbEntity
  8
LIMESTONE_FSET3
100
AcDbLine
 10
478.5366603943985
 20
462.9641899028793
 30
0.0
 11
480.365929059335
 21
466.7083404306322
 31
0.0
  0
LINE
  5
12B
330
1F
100
AcDbEntity
  8
LIMESTONE_FSET3
100
AcDbLine
 10
478.7195872609736
 20
328.1747709042393
 30
0.0
 11
479.451294726925
 21
329.8596386415884
 31
0.0
  0
LINE
  5
12C
330
1F
100
AcDbEntity
  8
LIMESTONE_FSET3
100
AcDbLine
 10
479.0854409938911
 20
310.3900558976457
 30
0.0
 11
481.2805633917451
 21
314.3214139514603
 31
0.0
  0
LINE
  5
12D
330
1F
100
AcDbEntity
  8
LIMESTONE_FSET3
100
AcDbLine
 10
480.7317827923689
 20
223.7129711802118
 30
0.0
 11
483.2927589230239
 21
228.0187442870811
 31
0.0
  0
LINE
  5
12E
330
1F
100
AcDbEntity
  8
LIMESTONE_FSET3
100
AcDbLine
 10
480.9147096587112
 20
53.16691464139149
 30
0.0
 11
482.9269051901065
 21
56.53665011655539
 31
0.0
  0
LINE
  5
12F
330
1F
100
AcDbEntity
  8
LIMESTONE_FSET3
100
AcDbLine
 10
480.9147096587112
 20
275.0078334105201
 30
0.0
 11
482.9269051901065
 21
278.5647764117457
 31
0.0
  0
LINE
  5
130
330
1F
100
AcDbEntity
  8
LIMESTONE_FSET3
100
AcDbLine
 10
481.0976365252864
 20
593.822250847239
 30
0.0
 11
482.3781245906139
 21
595.8815336376429
 31
0.0
  0
LINE
  5
131
330
1F
100
AcDbEntity
  8
LIMESTONE_FSET3
100
AcDbLine
 10
481.4634902582038
 20
121.6848692991771
 30
0.0
 11
482.7439783236478
 21
123.9313596161082
 31
0.0
  0
LINE
  5
132
330
1F
100
AcDbEntity
  8
LIMESTONE_FSET3
100
AcDbLine
 10
481.8293439912377
 20
286.0530774672516
 30
0.0
 11
482.561051457189
 21
287.925152731128
 31
0.0
  0
LINE
  5
133
330
1F
100
AcDbEntity
  8
LIMESTONE_FSET3
100
AcDbLine
 10
482.1951977241552
 20
33.13570931786671
 30
0.0
 11
483.1098320566816
 21
35.00778458220884
 31
0.0
  0
LINE
  5
134
330
1F
100
AcDbEntity
  8
LIMESTONE_FSET3
100
AcDbLine
 10
482.561051457189
 20
73.19811996491626
 30
0.0
 11
486.5854425198631
 21
80.49921349436045
 31
0.0
  0
LINE
  5
135
330
1F
100
AcDbEntity
  8
LIMESTONE_FSET3
100
AcDbLine
 10
482.561051457189
 20
596.8175712693483
 30
0.0
 11
484.9391007213853
 21
600.1873067445122
 31
0.0
  0
LINE
  5
136
330
1F
100
AcDbEntity
  8
LIMESTONE_FSET3
100
AcDbLine
 10
482.7439783236478
 20
343.9002031208947
 30
0.0
 11
484.756173855043
 21
347.644353648182
 31
0.0
  0
LINE
  5
137
330
1F
100
AcDbEntity
  8
LIMESTONE_FSET3
100
AcDbLine
 10
483.1098320566816
 20
125.0546047738753
 30
0.0
 11
484.9391007213853
 21
127.8627176699229
 31
0.0
  0
LINE
  5
138
330
1F
100
AcDbEntity
  8
LIMESTONE_FSET3
100
AcDbLine
 10
483.2927589230239
 20
375.5382750798017
 30
0.0
 11
488.0488574516494
 21
383.7754062409513
 31
0.0
  0
LINE
  5
139
330
1F
100
AcDbEntity
  8
LIMESTONE_FSET3
100
AcDbLine
 10
483.4756857895991
 20
216.2246701247059
 30
0.0
 11
485.1220275878441
 21
219.0327830202878
 31
0.0
  0
LINE
  5
13A
330
1F
100
AcDbEntity
  8
LIMESTONE_FSET3
100
AcDbLine
 10
484.2073932555504
 20
16.66144699649885
 30
0.0
 11
485.4878813209943
 21
18.53352226037532
 31
0.0
  0
LINE
  5
13B
330
1F
100
AcDbEntity
  8
LIMESTONE_FSET3
100
AcDbLine
 10
484.9391007213853
 20
88.36192960245535
 30
0.0
 11
490.6098335825372
 21
98.28392850095406
 31
0.0
  0
LINE
  5
13C
330
1F
100
AcDbEntity
  8
LIMESTONE_FSET3
100
AcDbLine
 10
485.3049544544192
 20
251.9813076648861
 30
0.0
 11
487.3171499856981
 21
255.7254581921734
 31
0.0
  0
LINE
  5
13D
330
1F
100
AcDbEntity
  8
LIMESTONE_FSET3
100
AcDbLine
 10
485.3049544544192
 20
266.7707022493705
 30
0.0
 11
486.2195887868293
 21
268.4555699867196
 31
0.0
  0
LINE
  5
13E
330
1F
100
AcDbEntity
  8
LIMESTONE_FSET3
100
AcDbLine
 10
485.4878813209943
 20
129.547585407272
 30
0.0
 11
486.7683693862054
 21
131.6068681976758
 31
0.0
  0
LINE
  5
13F
330
1F
100
AcDbEntity
  8
LIMESTONE_FSET3
100
AcDbLine
 10
486.7683693862054
 20
498.5336199165322
 30
0.0
 11
488.4147111846833
 21
501.3417328121141
 31
0.0
  0
LINE
  5
140
330
1F
100
AcDbEntity
  8
LIMESTONE_FSET3
100
AcDbLine
 10
487.1342231192393
 20
462.7769823768176
 30
0.0
 11
490.6098335825372
 21
468.9548307470977
 31
0.0
  0
LINE
  5
141
330
1F
100
AcDbEntity
  8
LIMESTONE_FSET3
100
AcDbLine
 10
487.5000768522732
 20
140.4056219379418
 30
0.0
 11
490.0610529830446
 21
144.336979992222
 31
0.0
  0
LINE
  5
142
330
1F
100
AcDbEntity
  8
LIMESTONE_FSET3
100
AcDbLine
 10
487.8659305851907
 20
55.03898990526795
 30
0.0
 11
488.9634917841759
 21
57.28548022219911
 31
0.0
  0
LINE
  5
143
330
1F
100
AcDbEntity
  8
LIMESTONE_FSET3
100
AcDbLine
 10
488.2317843182245
 20
257.0359108769335
 30
0.0
 11
489.3293455170933
 21
259.0951936673373
 31
0.0
  0
LINE
  5
144
330
1F
100
AcDbEntity
  8
LIMESTONE_FSET3
100
AcDbLine
 10
488.2317843182245
 20
406.9891395131126
 30
0.0
 11
492.6220291136997
 21
414.8518556216732
 31
0.0
  0
LINE
  5
145
330
1F
100
AcDbEntity
  8
LIMESTONE_FSET3
100
AcDbLine
 10
489.3293455170933
 20
372.9173697102815
 30
0.0
 11
491.5244679148309
 21
376.8487277645618
 31
0.0
  0
LINE
  5
146
330
1F
100
AcDbEntity
  8
LIMESTONE_FSET3
100
AcDbLine
 10
489.6951992500108
 20
503.7754306551069
 30
0.0
 11
493.3537365797674
 21
510.14048655238
 31
0.0
  0
LINE
  5
147
330
1F
100
AcDbEntity
  8
LIMESTONE_FSET3
100
AcDbLine
 10
490.0610529830446
 20
13.85333410045132
 30
0.0
 11
490.9756873154547
 21
15.53820183780044
 31
0.0
  0
LINE
  5
148
330
1F
100
AcDbEntity
  8
LIMESTONE_FSET3
100
AcDbLine
 10
490.0610529830446
 20
61.96566838165745
 30
0.0
 11
491.8903216478648
 21
65.33540385682136
 31
0.0
  0
LINE
  5
149
330
1F
100
AcDbEntity
  8
LIMESTONE_FSET3
100
AcDbLine
 10
490.2439798495034
 20
304.0250000003725
 30
0.0
 11
495.3659321111627
 21
312.2621311615221
 31
0.0
  0
LINE
  5
14A
330
1F
100
AcDbEntity
  8
LIMESTONE_FSET3
100
AcDbLine
 10
490.6098335825372
 20
535.6007101410069
 30
0.0
 11
492.0732485143235
 21
537.4727854048833
 31
0.0
  0
LINE
  5
14B
330
1F
100
AcDbEntity
  8
LIMESTONE_FSET3
100
AcDbLine
 10
491.1586141819134
 20
45.67861358635128
 30
0.0
 11
491.8903216478648
 21
47.17627379717305
 31
0.0
  0
LINE
  5
14C
330
1F
100
AcDbEntity
  8
LIMESTONE_FSET3
100
AcDbLine
 10
491.707394781406
 20
594.1966659002937
 30
0.0
 11
492.8049559802748
 21
595.8815336376429
 31
0.0
  0
LINE
  5
14D
330
1F
100
AcDbEntity
  8
LIMESTONE_FSET3
100
AcDbLine
 10
491.8903216478648
 20
50.54600927233696
 30
0.0
 11
492.98788284685
 21
52.04366948315874
 31
0.0
  0
LINE
  5
14E
330
1F
100
AcDbEntity
  8
LIMESTONE_FSET3
100
AcDbLine
 10
492.2561753808986
 20
538.4088230370544
 30
0.0
 11
494.0854440457188
 21
541.5913509852253
 31
0.0
  0
LINE
  5
14F
330
1F
100
AcDbEntity
  8
LIMESTONE_FSET3
100
AcDbLine
 10
492.6220291136997
 20
570.6085175755434
 30
0.0
 11
493.9025171791436
 21
573.2294229445979
 31
0.0
  0
LINE
  5
150
330
1F
100
AcDbEntity
  8
LIMESTONE_FSET3
100
AcDbLine
 10
493.1708097131923
 20
67.39468664675951
 30
0.0
 11
495.548858977505
 21
71.32604470103979
 31
0.0
  0
LINE
  5
151
330
1F
100
AcDbEntity
  8
LIMESTONE_FSET3
100
AcDbLine
 10
493.5366634462262
 20
221.6536883898079
 30
0.0
 11
497.0122739094077
 21
228.2059518136084
 31
0.0
  0
LINE
  5
152
330
1F
100
AcDbEntity
  8
LIMESTONE_FSET3
100
AcDbLine
 10
493.9025171791436
 20
31.45084158051759
 30
0.0
 11
497.5610545089003
 21
38.37752005737275
 31
0.0
  0
LINE
  5
153
330
1F
100
AcDbEntity
  8
LIMESTONE_FSET3
100
AcDbLine
 10
495.0000783781288
 20
278.3775688852184
 30
0.0
 11
496.2805664434563
 21
280.8112667282112
 31
0.0
  0
LINE
  5
154
330
1F
100
AcDbEntity
  8
LIMESTONE_FSET3
100
AcDbLine
 10
495.7317858440802
 20
0.1871846741996706
 30
0.0
 11
496.8293470429489
 21
1.872052411548793
 31
0.0
  0
LINE
  5
155
330
1F
100
AcDbEntity
  8
LIMESTONE_FSET3
100
AcDbLine
 10
495.7317858440802
 20
313.5725838458166
 30
0.0
 11
497.1952007759828
 21
315.6318666362204
 31
0.0
  0
LINE
  5
156
330
1F
100
AcDbEntity
  8
LIMESTONE_FSET3
100
AcDbLine
 10
495.9147127105389
 20
72.26208233321086
 30
0.0
 11
497.3781276423251
 21
75.07019522879273
 31
0.0
  0
LINE
  5
157
330
1F
100
AcDbEntity
  8
LIMESTONE_FSET3
100
AcDbLine
 10
495.9147127105389
 20
446.1155125279911
 30
0.0
 11
497.3781276423251
 21
448.3620028449222
 31
0.0
  0
LINE
  5
158
330
1F
100
AcDbEntity
  8
LIMESTONE_FSET3
100
AcDbLine
 10
496.0976395769976
 20
434.6958534186706
 30
0.0
 11
497.3781276423251
 21
436.9423437346704
 31
0.0
  0
LINE
  5
159
330
1F
100
AcDbEntity
  8
LIMESTONE_FSET3
100
AcDbLine
 10
497.1952007759828
 20
268.2683624601923
 30
0.0
 11
500.6708112391643
 21
274.071795778349
 31
0.0
  0
LINE
  5
15A
330
1F
100
AcDbEntity
  8
LIMESTONE_FSET3
100
AcDbLine
 10
497.9269082418177
 20
548.5180294616148
 30
0.0
 11
502.6830067704432
 21
557.1295756753534
 31
0.0
  0
LINE
  5
15B
330
1F
100
AcDbEntity
  8
LIMESTONE_FSET3
100
AcDbLine
 10
499.2073963072617
 20
5.616202939301729
 30
0.0
 11
499.939103773213
 21
7.675485729705542
 31
0.0
  0
LINE
  5
15C
330
1F
100
AcDbEntity
  8
LIMESTONE_FSET3
100
AcDbLine
 10
499.5732500401791
 20
451.3573232665658
 30
0.0
 11
500.6708112391643
 21
453.0421910039149
 31
0.0
  0
LINE
  5
15D
330
1F
100
AcDbEntity
  8
LIMESTONE_FSET3
100
AcDbLine
 10
499.7561769067543
 20
182.7145229014568
 30
0.0
 11
501.0366649720818
 21
184.9610132179223
 31
0.0
  0
LINE
  5
15E
330
1F
100
AcDbEntity
  8
LIMESTONE_FSET3
100
AcDbLine
 10
499.7561769067543
 20
486.9267532806844
 30
0.0
 11
501.5854455715744
 21
490.1092812288553
 31
0.0
  0
LINE
  5
15F
330
1F
100
AcDbEntity
  8
LIMESTONE_FSET3
100
AcDbLine
 10
500.3049575061304
 20
201.9968981193379
 30
0.0
 11
501.2195918386569
 21
203.681765856687
 31
0.0
  0
LINE
  5
160
330
1F
100
AcDbEntity
  8
LIMESTONE_FSET3
100
AcDbLine
 10
500.6708112391643
 20
585.2107046335004
 30
0.0
 11
505.4269097676734
 21
593.44783579465
 31
0.0
  0
LINE
  5
161
330
1F
100
AcDbEntity
  8
LIMESTONE_FSET3
100
AcDbLine
 10
500.8537381056231
 20
456.4119264795445
 30
0.0
 11
503.5976411029696
 21
461.6537372181192
 31
0.0
  0
LINE
  5
162
330
1F
100
AcDbEntity
  8
LIMESTONE_FSET3
100
AcDbLine
 10
501.2195918386569
 20
51.48204690404236
 30
0.0
 11
502.8659336370183
 21
54.66457485314459
 31
0.0
  0
LINE
  5
163
330
1F
100
AcDbEntity
  8
LIMESTONE_FSET3
100
AcDbLine
 10
501.4025187049992
 20
112.5117005063221
 30
0.0
 11
501.9512993044918
 21
113.8221531910822
 31
0.0
  0
LINE
  5
164
330
1F
100
AcDbEntity
  8
LIMESTONE_FSET3
100
AcDbLine
 10
501.4025187049992
 20
416.9111384111457
 30
0.0
 11
502.5000799039844
 21
418.4087986228988
 31
0.0
  0
LINE
  5
165
330
1F
100
AcDbEntity
  8
LIMESTONE_FSET3
100
AcDbLine
 10
502.5000799039844
 20
514.259052132722
 30
0.0
 11
503.5976411029696
 21
516.3183349231258
 31
0.0
  0
LINE
  5
166
330
1F
100
AcDbEntity
  8
LIMESTONE_FSET3
100
AcDbLine
 10
502.6830067704432
 20
34.25895447656512
 30
0.0
 11
503.4147142363945
 21
35.56940716132522
 31
0.0
  0
LINE
  5
167
330
1F
100
AcDbEntity
  8
LIMESTONE_FSET3
100
AcDbLine
 10
502.8659336370183
 20
413.3541954099201
 30
0.0
 11
503.9634948358871
 21
415.4134782003239
 31
0.0
  0
LINE
  5
168
330
1F
100
AcDbEntity
  8
LIMESTONE_FSET3
100
AcDbLine
 10
503.048860503477
 20
566.3027444686741
 30
0.0
 11
503.780567969312
 21
567.6131971529685
 31
0.0
  0
LINE
  5
169
330
1F
100
AcDbEntity
  8
LIMESTONE_FSET3
100
AcDbLine
 10
503.5976411029696
 20
171.2948637916707
 30
0.0
 11
504.5122754352633
 21
172.9797315290198
 31
0.0
  0
LINE
  5
16A
330
1F
100
AcDbEntity
  8
LIMESTONE_FSET3
100
AcDbLine
 10
503.9634948358871
 20
418.4087986228988
 30
0.0
 11
504.8781291681807
 21
419.5320437811315
 31
0.0
  0
LINE
  5
16B
330
1F
100
AcDbEntity
  8
LIMESTONE_FSET3
100
AcDbLine
 10
504.1464217023458
 20
56.91106516914442
 30
0.0
 11
505.6098366342485
 21
59.53197053866461
 31
0.0
  0
LINE
  5
16C
330
1F
100
AcDbEntity
  8
LIMESTONE_FSET3
100
AcDbLine
 10
504.3293485688046
 20
130.483623039443
 30
0.0
 11
507.0732515661512
 21
135.7254337784834
 31
0.0
  0
LINE
  5
16D
330
1F
100
AcDbEntity
  8
LIMESTONE_FSET3
100
AcDbLine
 10
506.1586172336247
 20
29.39155879057944
 30
0.0
 11
507.2561784326099
 21
31.26363405445591
 31
0.0
  0
LINE
  5
16E
330
1F
100
AcDbEntity
  8
LIMESTONE_FSET3
100
AcDbLine
 10
506.1586172336247
 20
291.1076806792989
 30
0.0
 11
507.2561784326099
 21
292.6053408905864
 31
0.0
  0
LINE
  5
16F
330
1F
100
AcDbEntity
  8
LIMESTONE_FSET3
100
AcDbLine
 10
506.7073978331173
 20
259.0951936673373
 30
0.0
 11
507.4391052990686
 21
260.4056463520974
 31
0.0
  0
LINE
  5
170
330
1F
100
AcDbEntity
  8
LIMESTONE_FSET3
100
AcDbLine
 10
506.7073978331173
 20
531.2949370336719
 30
0.0
 11
507.4391052990686
 21
532.4181821923703
 31
0.0
  0
LINE
  5
171
330
1F
100
AcDbEntity
  8
LIMESTONE_FSET3
100
AcDbLine
 10
506.890324699576
 20
321.4352999539115
 30
0.0
 11
507.9878858985612
 21
323.3073752177879
 31
0.0
  0
LINE
  5
172
330
1F
100
AcDbEntity
  8
LIMESTONE_FSET3
100
AcDbLine
 10
507.4391052990686
 20
541.0297284061089
 30
0.0
 11
510.7317888957914
 21
546.6459541977383
 31
0.0
  0
LINE
  5
173
330
1F
100
AcDbEntity
  8
LIMESTONE_FSET3
100
AcDbLine
 10
507.6220321655273
 20
567.6131971529685
 30
0.0
 11
508.7195933645125
 21
569.6724799433723
 31
0.0
  0
LINE
  5
174
330
1F
100
AcDbEntity
  8
LIMESTONE_FSET3
100
AcDbLine
 10
507.8049590319861
 20
533.3542198240757
 30
0.0
 11
510.0000814299565
 21
537.0983703518286
 31
0.0
  0
LINE
  5
175
330
1F
100
AcDbEntity
  8
LIMESTONE_FSET3
100
AcDbLine
 10
508.5366664979374
 20
67.02027159417048
 30
0.0
 11
509.6342276968062
 21
68.70513933198527
 31
0.0
  0
LINE
  5
176
330
1F
100
AcDbEntity
  8
LIMESTONE_FSET3
100
AcDbLine
 10
508.9025202309713
 20
376.0998976593837
 30
0.0
 11
510.1830082962988
 21
378.1591804493219
 31
0.0
  0
LINE
  5
177
330
1F
100
AcDbEntity
  8
LIMESTONE_FSET3
100
AcDbLine
 10
509.08544709743
 20
194.134182011243
 30
0.0
 11
513.475691893138
 21
201.8096905928105
 31
0.0
  0
LINE
  5
178
330
1F
100
AcDbEntity
  8
LIMESTONE_FSET3
100
AcDbLine
 10
510.1830082962988
 20
446.3027200545184
 30
0.0
 11
511.6464232282015
 21
448.923625423573
 31
0.0
  0
LINE
  5
179
330
1F
100
AcDbEntity
  8
LIMESTONE_FSET3
100
AcDbLine
 10
510.3659351628739
 20
476.2559242765419
 30
0.0
 11
511.0976426288253
 21
478.1279995404184
 31
0.0
  0
LINE
  5
17A
330
1F
100
AcDbEntity
  8
LIMESTONE_FSET3
100
AcDbLine
 10
510.5488620293327
 20
289.2356054154225
 30
0.0
 11
511.4634963617427
 21
290.7332656271756
 31
0.0
  0
LINE
  5
17B
330
1F
100
AcDbEntity
  8
LIMESTONE_FSET3
100
AcDbLine
 10
510.5488620293327
 20
405.8658943548799
 30
0.0
 11
511.280569495284
 21
406.9891395131126
 31
0.0
  0
LINE
  5
17C
330
1F
100
AcDbEntity
  8
LIMESTONE_FSET3
100
AcDbLine
 10
510.7317888957914
 20
183.2761454805732
 30
0.0
 11
511.6464232282015
 21
184.773805691395
 31
0.0
  0
LINE
  5
17D
330
1F
100
AcDbEntity
  8
LIMESTONE_FSET3
100
AcDbLine
 10
511.0976426288253
 20
70.57721459586173
 30
0.0
 11
513.1098381601041
 21
74.32136512361467
 31
0.0
  0
LINE
  5
17E
330
1F
100
AcDbEntity
  8
LIMESTONE_FSET3
100
AcDbLine
 10
511.0976426288253
 20
204.243388436269
 30
0.0
 11
512.0122769611189
 21
205.5538411205634
 31
0.0
  0
LINE
  5
17F
330
1F
100
AcDbEntity
  8
LIMESTONE_FSET3
100
AcDbLine
 10
511.280569495284
 20
586.5211573182605
 30
0.0
 11
512.3781306941528
 21
588.9548551607877
 31
0.0
  0
LINE
  5
180
330
1F
100
AcDbEntity
  8
LIMESTONE_FSET3
100
AcDbLine
 10
511.6464232282015
 20
515.9439198705368
 30
0.0
 11
513.475691893138
 21
518.7520327661186
 31
0.0
  0
LINE
  5
181
330
1F
100
AcDbEntity
  8
LIMESTONE_FSET3
100
AcDbLine
 10
511.6464232282015
 20
575.1014982084744
 30
0.0
 11
514.0244724925142
 21
579.594478841871
 31
0.0
  0
LINE
  5
182
330
1F
100
AcDbEntity
  8
LIMESTONE_FSET3
100
AcDbLine
 10
511.8293500947766
 20
408.4867997244
 30
0.0
 11
515.122033691383
 21
413.7286104629748
 31
0.0
  0
LINE
  5
183
330
1F
100
AcDbEntity
  8
LIMESTONE_FSET3
100
AcDbLine
 10
512.0122769611189
 20
245.4290442410856
 30
0.0
 11
513.2927650265628
 21
247.4883270314895
 31
0.0
  0
LINE
  5
184
330
1F
100
AcDbEntity
  8
LIMESTONE_FSET3
100
AcDbLine
 10
512.9269112936454
 20
230.4524421300739
 30
0.0
 11
514.7561799585819
 21
233.2605550256558
 31
0.0
  0
LINE
  5
185
330
1F
100
AcDbEntity
  8
LIMESTONE_FSET3
100
AcDbLine
 10
514.2073993590893
 20
0.1871846741996706
 30
0.0
 11
517.317156089237
 21
5.241787886247039
 31
0.0
  0
LINE
  5
186
330
1F
100
AcDbEntity
  8
LIMESTONE_FSET3
100
AcDbLine
 10
514.5732530920068
 20
191.3260691151954
 30
0.0
 11
520.0610590865836
 21
200.1248228554614
 31
0.0
  0
LINE
  5
187
330
1F
100
AcDbEntity
  8
LIMESTONE_FSET3
100
AcDbLine
 10
516.036668023793
 20
35.38219963479787
 30
0.0
 11
517.5000829558121
 21
38.75193510996178
 31
0.0
  0
LINE
  5
188
330
1F
100
AcDbEntity
  8
LIMESTONE_FSET3
100
AcDbLine
 10
516.2195948903682
 20
111.575662874151
 30
0.0
 11
517.317156089237
 21
113.2605306119658
 31
0.0
  0
LINE
  5
189
330
1F
100
AcDbEntity
  8
LIMESTONE_FSET3
100
AcDbLine
 10
516.4025217568269
 20
127.8627176699229
 30
0.0
 11
518.4147172881057
 21
131.0452456185594
 31
0.0
  0
LINE
  5
18A
330
1F
100
AcDbEntity
  8
LIMESTONE_FSET3
100
AcDbLine
 10
517.317156089237
 20
176.9110895833001
 30
0.0
 11
520.9756934189936
 21
183.8377680596896
 31
0.0
  0
LINE
  5
18B
330
1F
100
AcDbEntity
  8
LIMESTONE_FSET3
100
AcDbLine
 10
517.6830098222708
 20
106.3338521355763
 30
0.0
 11
521.1586202854523
 21
113.0733230854385
 31
0.0
  0
LINE
  5
18C
330
1F
100
AcDbEntity
  8
LIMESTONE_FSET3
100
AcDbLine
 10
517.6830098222708
 20
165.4914304739796
 30
0.0
 11
519.3293516206322
 21
168.2995433695614
 31
0.0
  0
LINE
  5
18D
330
1F
100
AcDbEntity
  8
LIMESTONE_FSET3
100
AcDbLine
 10
517.8659366887296
 20
417.659968517255
 30
0.0
 11
522.4391083507799
 21
425.3354770988226
 31
0.0
  0
LINE
  5
18E
330
1F
100
AcDbEntity
  8
LIMESTONE_FSET3
100
AcDbLine
 10
517.8659366887296
 20
561.4353487822227
 30
0.0
 11
520.7927665524185
 21
566.8643670477904
 31
0.0
  0
LINE
  5
18F
330
1F
100
AcDbEntity
  8
LIMESTONE_FSET3
100
AcDbLine
 10
518.0488635551883
 20
39.31355768907815
 30
0.0
 11
519.3293516206322
 21
41.56004800554365
 31
0.0
  0
LINE
  5
190
330
1F
100
AcDbEntity
  8
LIMESTONE_FSET3
100
AcDbLine
 10
518.0488635551883
 20
379.0952180810273
 30
0.0
 11
521.3415471519111
 21
384.898651399184
 31
0.0
  0
LINE
  5
191
330
1F
100
AcDbEntity
  8
LIMESTONE_FSET3
100
AcDbLine
 10
518.5976441546809
 20
49.23555658757687
 30
0.0
 11
519.5122784869745
 21
51.48204690404236
 31
0.0
  0
LINE
  5
192
330
1F
100
AcDbEntity
  8
LIMESTONE_FSET3
100
AcDbLine
 10
518.5976441546809
 20
211.5444819647819
 30
0.0
 11
519.6952053535497
 21
213.6037647551857
 31
0.0
  0
LINE
  5
193
330
1F
100
AcDbEntity
  8
LIMESTONE_FSET3
100
AcDbLine
 10
518.9634978875984
 20
590.8269304251298
 30
0.0
 11
520.426912819501
 21
593.6350433207117
 31
0.0
  0
LINE
  5
194
330
1F
100
AcDbEntity
  8
LIMESTONE_FSET3
100
AcDbLine
 10
519.3293516206322
 20
133.853358514607
 30
0.0
 11
520.426912819501
 21
135.1638111989014
 31
0.0
  0
LINE
  5
195
330
1F
100
AcDbEntity
  8
LIMESTONE_FSET3
100
AcDbLine
 10
520.0610590865836
 20
535.9751251935959
 30
0.0
 11
521.1586202854523
 21
537.659992930945
 31
0.0
  0
LINE
  5
196
330
1F
100
AcDbEntity
  8
LIMESTONE_FSET3
100
AcDbLine
 10
520.2439859530423
 20
52.97970711486414
 30
0.0
 11
522.8049620838137
 21
57.28548022219911
 31
0.0
  0
LINE
  5
197
330
1F
100
AcDbEntity
  8
LIMESTONE_FSET3
100
AcDbLine
 10
520.426912819501
 20
11.23242873093113
 30
0.0
 11
523.3537426833063
 21
16.09982441691682
 31
0.0
  0
LINE
  5
198
330
1F
100
AcDbEntity
  8
LIMESTONE_FSET3
100
AcDbLine
 10
520.7927665524185
 20
44.36816090159118
 30
0.0
 11
521.8903277512873
 21
46.24023616546765
 31
0.0
  0
LINE
  5
199
330
1F
100
AcDbEntity
  8
LIMESTONE_FSET3
100
AcDbLine
 10
521.5244740183698
 20
568.3620272586122
 30
0.0
 11
523.5366695497651
 21
571.7317627337761
 31
0.0
  0
LINE
  5
19A
330
1F
100
AcDbEntity
  8
LIMESTONE_FSET3
100
AcDbLine
 10
522.6220352172386
 20
139.0951692531817
 30
0.0
 11
524.2683770156
 21
141.9032821492292
 31
0.0
  0
LINE
  5
19B
330
1F
100
AcDbEntity
  8
LIMESTONE_FSET3
100
AcDbLine
 10
522.8049620838137
 20
70.95162964845076
 30
0.0
 11
524.0854501492577
 21
73.3853274914436
 31
0.0
  0
LINE
  5
19C
330
1F
100
AcDbEntity
  8
LIMESTONE_FSET3
100
AcDbLine
 10
522.9878889503889
 20
426.458722257521
 30
0.0
 11
524.4513038821751
 21
429.2668351531029
 31
0.0
  0
LINE
  5
19D
330
1F
100
AcDbEntity
  8
LIMESTONE_FSET3
100
AcDbLine
 10
522.9878889503889
 20
493.2918091774918
 30
0.0
 11
525.0000844816677
 21
496.4743371261284
 31
0.0
  0
LINE
  5
19E
330
1F
100
AcDbEntity
  8
LIMESTONE_FSET3
100
AcDbLine
 10
523.3537426833063
 20
58.40872538043186
 30
0.0
 11
525.0000844816677
 21
60.65521569736302
 31
0.0
  0
LINE
  5
19F
330
1F
100
AcDbEntity
  8
LIMESTONE_FSET3
100
AcDbLine
 10
523.3537426833063
 20
89.67238228721544
 30
0.0
 11
527.5610606124392
 21
96.78626828966662
 31
0.0
  0
LINE
  5
1A0
330
1F
100
AcDbEntity
  8
LIMESTONE_FSET3
100
AcDbLine
 10
523.3537426833063
 20
584.0874594752677
 30
0.0
 11
527.5610606124392
 21
591.3885530042462
 31
0.0
  0
LINE
  5
1A1
330
1F
100
AcDbEntity
  8
LIMESTONE_FSET3
100
AcDbLine
 10
523.7195964162238
 20
515.9439198705368
 30
0.0
 11
525.0000844816677
 21
517.8159951339476
 31
0.0
  0
LINE
  5
1A2
330
1F
100
AcDbEntity
  8
LIMESTONE_FSET3
100
AcDbLine
 10
523.7195964162238
 20
541.5913509852253
 30
0.0
 11
524.8171576150926
 21
543.4634262491018
 31
0.0
  0
LINE
  5
1A3
330
1F
100
AcDbEntity
  8
LIMESTONE_FSET3
100
AcDbLine
 10
524.4513038821751
 20
17.78469215426594
 30
0.0
 11
525.5488650810439
 21
19.84397494466975
 31
0.0
  0
LINE
  5
1A4
330
1F
100
AcDbEntity
  8
LIMESTONE_FSET3
100
AcDbLine
 10
524.4513038821751
 20
289.0483978888951
 30
0.0
 11
525.3659382145852
 21
290.3588505741209
 31
0.0
  0
LINE
  5
1A5
330
1F
100
AcDbEntity
  8
LIMESTONE_FSET3
100
AcDbLine
 10
524.8171576150926
 20
528.6740316646174
 30
0.0
 11
525.7317919476191
 21
530.1716918759048
 31
0.0
  0
LINE
  5
1A6
330
1F
100
AcDbEntity
  8
LIMESTONE_FSET3
100
AcDbLine
 10
525.1830113481265
 20
61.59125332906842
 30
0.0
 11
527.5610606124392
 21
65.33540385682136
 31
0.0
  0
LINE
  5
1A7
330
1F
100
AcDbEntity
  8
LIMESTONE_FSET3
100
AcDbLine
 10
525.3659382145852
 20
167.5507132639177
 30
0.0
 11
527.5610606124392
 21
170.7332412130199
 31
0.0
  0
LINE
  5
1A8
330
1F
100
AcDbEntity
  8
LIMESTONE_FSET3
100
AcDbLine
 10
525.9147188140778
 20
497.9719973369502
 30
0.0
 11
527.7439874788979
 21
501.5289403386414
 31
0.0
  0
LINE
  5
1A9
330
1F
100
AcDbEntity
  8
LIMESTONE_FSET3
100
AcDbLine
 10
526.2805725469952
 20
406.9891395131126
 30
0.0
 11
527.0122800129466
 21
408.2995921978727
 31
0.0
  0
LINE
  5
1AA
330
1F
100
AcDbEntity
  8
LIMESTONE_FSET3
100
AcDbLine
 10
526.4634994135704
 20
117.1918886657804
 30
0.0
 11
527.5610606124392
 21
119.6255865087733
 31
0.0
  0
LINE
  5
1AB
330
1F
100
AcDbEntity
  8
LIMESTONE_FSET3
100
AcDbLine
 10
526.6464262799127
 20
21.71605020854622
 30
0.0
 11
527.7439874788979
 21
23.58812547242269
 31
0.0
  0
LINE
  5
1AC
330
1F
100
AcDbEntity
  8
LIMESTONE_FSET3
100
AcDbLine
 10
527.0122800129466
 20
188.1435411665589
 30
0.0
 11
527.9269143453566
 21
189.6412013778463
 31
0.0
  0
LINE
  5
1AD
330
1F
100
AcDbEntity
  8
LIMESTONE_FSET3
100
AcDbLine
 10
527.0122800129466
 20
520.9985230825841
 30
0.0
 11
528.1098412119318
 21
523.2450133990496
 31
0.0
  0
LINE
  5
1AE
330
1F
100
AcDbEntity
  8
LIMESTONE_FSET3
100
AcDbLine
 10
527.378133745864
 20
217.7223303359933
 30
0.0
 11
533.963500939426
 21
229.5164044979028
 31
0.0
  0
LINE
  5
1AF
330
1F
100
AcDbEntity
  8
LIMESTONE_FSET3
100
AcDbLine
 10
527.9269143453566
 20
171.856486370787
 30
0.0
 11
530.1220367430942
 21
175.4134293724783
 31
0.0
  0
LINE
  5
1B0
330
1F
100
AcDbEntity
  8
LIMESTONE_FSET3
100
AcDbLine
 10
527.9269143453566
 20
592.1373831098899
 30
0.0
 11
531.4025248085381
 21
598.3152314806357
 31
0.0
  0
LINE
  5
1B1
330
1F
100
AcDbEntity
  8
LIMESTONE_FSET3
100
AcDbLine
 10
528.658621811308
 20
191.3260691151954
 30
0.0
 11
530.6708173425868
 21
194.508597063832
 31
0.0
  0
LINE
  5
1B2
330
1F
100
AcDbEntity
  8
LIMESTONE_FSET3
100
AcDbLine
 10
528.658621811308
 20
348.5803912803531
 30
0.0
 11
529.9391098767519
 21
351.0140891238116
 31
0.0
  0
LINE
  5
1B3
330
1F
100
AcDbEntity
  8
LIMESTONE_FSET3
100
AcDbLine
 10
529.2074024108006
 20
26.20903084194288
 30
0.0
 11
530.3049636096694
 21
28.08110610581934
 31
0.0
  0
LINE
  5
1B4
330
1F
100
AcDbEntity
  8
LIMESTONE_FSET3
100
AcDbLine
 10
529.2074024108006
 20
150.8892434160225
 30
0.0
 11
530.1220367430942
 21
152.3869036268443
 31
0.0
  0
LINE
  5
1B5
330
1F
100
AcDbEntity
  8
LIMESTONE_FSET3
100
AcDbLine
 10
530.3049636096694
 20
427.0203448361717
 30
0.0
 11
534.5122815388022
 21
434.5086458921432
 31
0.0
  0
LINE
  5
1B6
330
1F
100
AcDbEntity
  8
LIMESTONE_FSET3
100
AcDbLine
 10
530.853744209162
 20
313.1981687932275
 30
0.0
 11
532.1342322744895
 21
315.444659109693
 31
0.0
  0
LINE
  5
1B7
330
1F
100
AcDbEntity
  8
LIMESTONE_FSET3
100
AcDbLine
 10
531.9513054080307
 20
545.7099165655673
 30
0.0
 11
533.2317934734747
 21
547.5819918294437
 31
0.0
  0
LINE
  5
1B8
330
1F
100
AcDbEntity
  8
LIMESTONE_FSET3
100
AcDbLine
 10
532.5000860075234
 20
257.0359108769335
 30
0.0
 11
534.6952084053773
 21
260.7800614046864
 31
0.0
  0
LINE
  5
1B9
330
1F
100
AcDbEntity
  8
LIMESTONE_FSET3
100
AcDbLine
 10
532.6830128739821
 20
350.6396740707569
 30
0.0
 11
534.6952084053773
 21
354.0094095454551
 31
0.0
  0
LINE
  5
1BA
330
1F
100
AcDbEntity
  8
LIMESTONE_FSET3
100
AcDbLine
 10
533.2317934734747
 20
317.6911494266242
 30
0.0
 11
534.5122815388022
 21
319.9376397430897
 31
0.0
  0
LINE
  5
1BB
330
1F
100
AcDbEntity
  8
LIMESTONE_FSET3
100
AcDbLine
 10
533.2317934734747
 20
394.0718201925047
 30
0.0
 11
534.5122815388022
 21
396.6927255620249
 31
0.0
  0
LINE
  5
1BC
330
1F
100
AcDbEntity
  8
LIMESTONE_FSET3
100
AcDbLine
 10
533.7805740728509
 20
548.8924445142038
 30
0.0
 11
535.9756964707049
 21
552.8238025684841
 31
0.0
  0
LINE
  5
1BD
330
1F
100
AcDbEntity
  8
LIMESTONE_FSET3
100
AcDbLine
 10
533.963500939426
 20
205.1794260675088
 30
0.0
 11
536.1586233371636
 21
208.9235765952617
 31
0.0
  0
LINE
  5
1BE
330
1F
100
AcDbEntity
  8
LIMESTONE_FSET3
100
AcDbLine
 10
534.3293546723435
 20
441.6225318945944
 30
0.0
 11
535.24398900487
 21
443.1201921054162
 31
0.0
  0
LINE
  5
1BF
330
1F
100
AcDbEntity
  8
LIMESTONE_FSET3
100
AcDbLine
 10
535.4269158712123
 20
111.7628704006784
 30
0.0
 11
537.9878920021001
 21
116.0686435075477
 31
0.0
  0
LINE
  5
1C0
330
1F
100
AcDbEntity
  8
LIMESTONE_FSET3
100
AcDbLine
 10
536.3415502037387
 20
268.8299850393087
 30
0.0
 11
537.2561845361488
 21
270.7020603036508
 31
0.0
  0
LINE
  5
1C1
330
1F
100
AcDbEntity
  8
LIMESTONE_FSET3
100
AcDbLine
 10
537.6220382690663
 20
91.35725002456456
 30
0.0
 11
543.109844263643
 21
100.9048338700086
 31
0.0
  0
LINE
  5
1C2
330
1F
100
AcDbEntity
  8
LIMESTONE_FSET3
100
AcDbLine
 10
538.9025263343938
 20
296.162283891812
 30
0.0
 11
539.6342338003451
 21
297.6599441030994
 31
0.0
  0
LINE
  5
1C3
330
1F
100
AcDbEntity
  8
LIMESTONE_FSET3
100
AcDbLine
 10
539.0854532009689
 20
218.2839529151097
 30
0.0
 11
541.6464293317404
 21
222.7769335485063
 31
0.0
  0
LINE
  5
1C4
330
1F
100
AcDbEntity
  8
LIMESTONE_FSET3
100
AcDbLine
 10
539.0854532009689
 20
380.0312557131983
 30
0.0
 11
541.6464293317404
 21
384.7114438731223
 31
0.0
  0
LINE
  5
1C5
330
1F
100
AcDbEntity
  8
LIMESTONE_FSET3
100
AcDbLine
 10
539.8171606669202
 20
50.35880174580961
 30
0.0
 11
541.0976487323642
 21
52.41808453621343
 31
0.0
  0
LINE
  5
1C6
330
1F
100
AcDbEntity
  8
LIMESTONE_FSET3
100
AcDbLine
 10
540.1830143998377
 20
70.57721459586173
 30
0.0
 11
541.2805755987065
 21
72.63649738626555
 31
0.0
  0
LINE
  5
1C7
330
1F
100
AcDbEntity
  8
LIMESTONE_FSET3
100
AcDbLine
 10
540.1830143998377
 20
166.4274681061506
 30
0.0
 11
542.0122830646578
 21
169.4227885277942
 31
0.0
  0
LINE
  5
1C8
330
1F
100
AcDbEntity
  8
LIMESTONE_FSET3
100
AcDbLine
 10
540.1830143998377
 20
589.5164777403697
 30
0.0
 11
543.109844263643
 21
594.5710809528828
 31
0.0
  0
LINE
  5
1C9
330
1F
100
AcDbEntity
  8
LIMESTONE_FSET3
100
AcDbLine
 10
541.0976487323642
 20
137.5975090423599
 30
0.0
 11
544.2074054625118
 21
142.6521122548729
 31
0.0
  0
LINE
  5
1CA
330
1F
100
AcDbEntity
  8
LIMESTONE_FSET3
100
AcDbLine
 10
541.4635024652816
 20
301.216887104325
 30
0.0
 11
542.3781367975753
 21
303.0889623682015
 31
0.0
  0
LINE
  5
1CB
330
1F
100
AcDbEntity
  8
LIMESTONE_FSET3
100
AcDbLine
 10
542.3781367975753
 20
110.826832768973
 30
0.0
 11
543.4756979966769
 21
112.6989080328494
 31
0.0
  0
LINE
  5
1CC
330
1F
100
AcDbEntity
  8
LIMESTONE_FSET3
100
AcDbLine
 10
542.7439905307256
 20
311.7005085819401
 30
0.0
 11
544.0244785960531
 21
313.5725838458166
 31
0.0
  0
LINE
  5
1CD
330
1F
100
AcDbEntity
  8
LIMESTONE_FSET3
100
AcDbLine
 10
543.109844263643
 20
342.2153353830799
 30
0.0
 11
544.0244785960531
 21
344.0874106469564
 31
0.0
  0
LINE
  5
1CE
330
1F
100
AcDbEntity
  8
LIMESTONE_FSET3
100
AcDbLine
 10
544.3903323289705
 20
272.1997205144726
 30
0.0
 11
545.4878935279557
 21
274.071795778349
 31
0.0
  0
LINE
  5
1CF
330
1F
100
AcDbEntity
  8
LIMESTONE_FSET3
100
AcDbLine
 10
544.5732591955457
 20
389.953254611697
 30
0.0
 11
545.8537472608732
 21
391.8253298755735
 31
0.0
  0
LINE
  5
1D0
330
1F
100
AcDbEntity
  8
LIMESTONE_FSET3
100
AcDbLine
 10
544.9391129284631
 20
428.1435899948701
 30
0.0
 11
546.2196009939071
 21
430.2028727852739
 31
0.0
  0
LINE
  5
1D1
330
1F
100
AcDbEntity
  8
LIMESTONE_FSET3
100
AcDbLine
 10
544.9391129284631
 20
598.1280239541084
 30
0.0
 11
546.0366741273319
 21
599.8128916914575
 31
0.0
  0
LINE
  5
1D2
330
1F
100
AcDbEntity
  8
LIMESTONE_FSET3
100
AcDbLine
 10
545.1220397949219
 20
144.5241875187494
 30
0.0
 11
547.6830159256933
 21
149.2043756782077
 31
0.0
  0
LINE
  5
1D3
330
1F
100
AcDbEntity
  8
LIMESTONE_FSET3
100
AcDbLine
 10
545.1220397949219
 20
480.9361124355346
 30
0.0
 11
547.3171621927759
 21
484.4930554372258
 31
0.0
  0
LINE
  5
1D4
330
1F
100
AcDbEntity
  8
LIMESTONE_FSET3
100
AcDbLine
 10
545.1220397949219
 20
538.5960305631161
 30
0.0
 11
546.2196009939071
 21
540.2808983009309
 31
0.0
  0
LINE
  5
1D5
330
1F
100
AcDbEntity
  8
LIMESTONE_FSET3
100
AcDbLine
 10
545.3049666613806
 20
44.74257595464587
 30
0.0
 11
549.146430857596
 21
51.29483937751502
 31
0.0
  0
LINE
  5
1D6
330
1F
100
AcDbEntity
  8
LIMESTONE_FSET3
100
AcDbLine
 10
545.3049666613806
 20
316.1934892153367
 30
0.0
 11
549.6952114570886
 21
323.4945827443153
 31
0.0
  0
LINE
  5
1D7
330
1F
100
AcDbEntity
  8
LIMESTONE_FSET3
100
AcDbLine
 10
546.7683815932833
 20
245.4290442410856
 30
0.0
 11
549.3293577241711
 21
250.2964399270713
 31
0.0
  0
LINE
  5
1D8
330
1F
100
AcDbEntity
  8
LIMESTONE_FSET3
100
AcDbLine
 10
546.9513084598584
 20
256.8487033504061
 30
0.0
 11
548.0488696587272
 21
258.5335710882209
 31
0.0
  0
LINE
  5
1D9
330
1F
100
AcDbEntity
  8
LIMESTONE_FSET3
100
AcDbLine
 10
547.3171621927759
 20
276.8799086739309
 30
0.0
 11
550.061065190006
 21
281.9345118864439
 31
0.0
  0
LINE
  5
1DA
330
1F
100
AcDbEntity
  8
LIMESTONE_FSET3
100
AcDbLine
 10
547.500089059351
 20
529.0484467172064
 30
0.0
 11
549.146430857596
 21
532.230974665843
 31
0.0
  0
LINE
  5
1DB
330
1F
100
AcDbEntity
  8
LIMESTONE_FSET3
100
AcDbLine
 10
547.6830159256933
 20
11.60684378352016
 30
0.0
 11
548.5976502582198
 21
12.91729646828026
 31
0.0
  0
LINE
  5
1DC
330
1F
100
AcDbEntity
  8
LIMESTONE_FSET3
100
AcDbLine
 10
548.0488696587272
 20
397.8159707202576
 30
0.0
 11
553.1708219202701
 21
406.4275169339962
 31
0.0
  0
LINE
  5
1DD
330
1F
100
AcDbEntity
  8
LIMESTONE_FSET3
100
AcDbLine
 10
548.5976502582198
 20
466.1467178515159
 30
0.0
 11
556.4635055169929
 21
479.6256597512402
 31
0.0
  0
LINE
  5
1DE
330
1F
100
AcDbEntity
  8
LIMESTONE_FSET3
100
AcDbLine
 10
548.5976502582198
 20
493.4790167035535
 30
0.0
 11
549.8781383235473
 21
495.5382994939573
 31
0.0
  0
LINE
  5
1DF
330
1F
100
AcDbEntity
  8
LIMESTONE_FSET3
100
AcDbLine
 10
548.7805771246785
 20
434.5086458921432
 30
0.0
 11
549.5122845905134
 21
436.1935136294924
 31
0.0
  0
LINE
  5
1E0
330
1F
100
AcDbEntity
  8
LIMESTONE_FSET3
100
AcDbLine
 10
549.5122845905134
 20
532.9798047714867
 30
0.0
 11
551.1586263888748
 21
535.4135026144795
 31
0.0
  0
LINE
  5
1E1
330
1F
100
AcDbEntity
  8
LIMESTONE_FSET3
100
AcDbLine
 10
549.6952114570886
 20
567.4259896264412
 30
0.0
 11
550.2439920565812
 21
568.7364423116669
 31
0.0
  0
LINE
  5
1E2
330
1F
100
AcDbEntity
  8
LIMESTONE_FSET3
100
AcDbLine
 10
550.4269189230399
 20
102.2152865552343
 30
0.0
 11
551.5244801219087
 21
104.2745693451725
 31
0.0
  0
LINE
  5
1E3
330
1F
100
AcDbEntity
  8
LIMESTONE_FSET3
100
AcDbLine
 10
551.5244801219087
 20
536.5367477731779
 30
0.0
 11
555.1830174516654
 21
542.7145961439237
 31
0.0
  0
LINE
  5
1E4
330
1F
100
AcDbEntity
  8
LIMESTONE_FSET3
100
AcDbLine
 10
552.2561875879765
 20
118.3151338244788
 30
0.0
 11
553.1708219202701
 21
119.6255865087733
 31
0.0
  0
LINE
  5
1E5
330
1F
100
AcDbEntity
  8
LIMESTONE_FSET3
100
AcDbLine
 10
552.8049681873526
 20
349.3292213855311
 30
0.0
 11
553.7196025197627
 21
351.2012966494076
 31
0.0
  0
LINE
  5
1E6
330
1F
100
AcDbEntity
  8
LIMESTONE_FSET3
100
AcDbLine
 10
552.9878950538114
 20
58.03431032784283
 30
0.0
 11
554.8171637186315
 21
61.96566838165745
 31
0.0
  0
LINE
  5
1E7
330
1F
100
AcDbEntity
  8
LIMESTONE_FSET3
100
AcDbLine
 10
553.1708219202701
 20
242.4337238189764
 30
0.0
 11
557.9269204488955
 21
251.2324775587767
 31
0.0
  0
LINE
  5
1E8
330
1F
100
AcDbEntity
  8
LIMESTONE_FSET3
100
AcDbLine
 10
553.3537487868452
 20
120.3744166148826
 30
0.0
 11
555.5488711845828
 21
124.1185671421699
 31
0.0
  0
LINE
  5
1E9
330
1F
100
AcDbEntity
  8
LIMESTONE_FSET3
100
AcDbLine
 10
553.3537487868452
 20
407.550762092229
 30
0.0
 11
555.731798051158
 21
411.4821201460436
 31
0.0
  0
LINE
  5
1EA
330
1F
100
AcDbEntity
  8
LIMESTONE_FSET3
100
AcDbLine
 10
554.0854562526802
 20
419.9064588337205
 30
0.0
 11
558.292774181813
 21
427.2075523626991
 31
0.0
  0
LINE
  5
1EB
330
1F
100
AcDbEntity
  8
LIMESTONE_FSET3
100
AcDbLine
 10
554.2683831191389
 20
103.7129467660561
 30
0.0
 11
555.3659443181241
 21
105.5850220299326
 31
0.0
  0
LINE
  5
1EC
330
1F
100
AcDbEntity
  8
LIMESTONE_FSET3
100
AcDbLine
 10
554.2683831191389
 20
232.6989324470051
 30
0.0
 11
555.731798051158
 21
235.881460395176
 31
0.0
  0
LINE
  5
1ED
330
1F
100
AcDbEntity
  8
LIMESTONE_FSET3
100
AcDbLine
 10
555.0000905852066
 20
517.8159951339476
 30
0.0
 11
557.7439935824368
 21
522.4961832938716
 31
0.0
  0
LINE
  5
1EE
330
1F
100
AcDbEntity
  8
LIMESTONE_FSET3
100
AcDbLine
 10
555.3659443181241
 20
62.52729096123949
 30
0.0
 11
559.0244816477643
 21
69.0795543845743
 31
0.0
  0
LINE
  5
1EF
330
1F
100
AcDbEntity
  8
LIMESTONE_FSET3
100
AcDbLine
 10
555.5488711845828
 20
395.7566879298538
 30
0.0
 11
557.0122861163691
 21
398.377593299374
 31
0.0
  0
LINE
  5
1F0
330
1F
100
AcDbEntity
  8
LIMESTONE_FSET3
100
AcDbLine
 10
555.5488711845828
 20
575.6631207875907
 30
0.0
 11
557.0122861163691
 21
577.9096111045219
 31
0.0
  0
LINE
  5
1F1
330
1F
100
AcDbEntity
  8
LIMESTONE_FSET3
100
AcDbLine
 10
555.731798051158
 20
148.455545572564
 30
0.0
 11
557.3781398494029
 21
151.4508659946732
 31
0.0
  0
LINE
  5
1F2
330
1F
100
AcDbEntity
  8
LIMESTONE_FSET3
100
AcDbLine
 10
555.731798051158
 20
355.5070697567426
 30
0.0
 11
558.1098473154707
 21
359.6256353370845
 31
0.0
  0
LINE
  5
1F3
330
1F
100
AcDbEntity
  8
LIMESTONE_FSET3
100
AcDbLine
 10
556.2805786505342
 20
485.8035081219859
 30
0.0
 11
557.3781398494029
 21
487.3011683328077
 31
0.0
  0
LINE
  5
1F4
330
1F
100
AcDbEntity
  8
LIMESTONE_FSET3
100
AcDbLine
 10
556.2805786505342
 20
552.6365950424224
 30
0.0
 11
557.9269204488955
 21
556.0063305171207
 31
0.0
  0
LINE
  5
1F5
330
1F
100
AcDbEntity
  8
LIMESTONE_FSET3
100
AcDbLine
 10
556.8293592500268
 20
52.97970711486414
 30
0.0
 11
558.4757010483881
 21
55.78782001091167
 31
0.0
  0
LINE
  5
1F6
330
1F
100
AcDbEntity
  8
LIMESTONE_FSET3
100
AcDbLine
 10
557.1952129829442
 20
349.1420138594694
 30
0.0
 11
559.2074085143395
 21
352.324541808106
 31
0.0
  0
LINE
  5
1F7
330
1F
100
AcDbEntity
  8
LIMESTONE_FSET3
100
AcDbLine
 10
557.5610667159781
 20
152.3869036268443
 30
0.0
 11
560.1220428466331
 21
156.5054692076519
 31
0.0
  0
LINE
  5
1F8
330
1F
100
AcDbEntity
  8
LIMESTONE_FSET3
100
AcDbLine
 10
557.9269204488955
 20
209.4851991748437
 30
0.0
 11
558.4757010483881
 21
210.7956518596038
 31
0.0
  0
LINE
  5
1F9
330
1F
100
AcDbEntity
  8
LIMESTONE_FSET3
100
AcDbLine
 10
558.292774181813
 20
407.7379696187563
 30
0.0
 11
559.7561891138321
 21
409.7972524086945
 31
0.0
  0
LINE
  5
1FA
330
1F
100
AcDbEntity
  8
LIMESTONE_FSET3
100
AcDbLine
 10
558.8415547813056
 20
427.7691749418154
 30
0.0
 11
563.2317995770136
 21
435.631891050376
 31
0.0
  0
LINE
  5
1FB
330
1F
100
AcDbEntity
  8
LIMESTONE_FSET3
100
AcDbLine
 10
559.3903353806818
 20
328.7363934833556
 30
0.0
 11
560.3049697132083
 21
330.2340536946431
 31
0.0
  0
LINE
  5
1FC
330
1F
100
AcDbEntity
  8
LIMESTONE_FSET3
100
AcDbLine
 10
559.3903353806818
 20
582.4025917379186
 30
0.0
 11
560.8537503127009
 21
585.0234971069731
 31
0.0
  0
LINE
  5
1FD
330
1F
100
AcDbEntity
  8
LIMESTONE_FSET3
100
AcDbLine
 10
559.7561891138321
 20
490.858111334499
 30
0.0
 11
560.6708234461257
 21
492.5429790723138
 31
0.0
  0
LINE
  5
1FE
330
1F
100
AcDbEntity
  8
LIMESTONE_FSET3
100
AcDbLine
 10
559.9391159801744
 20
54.2901598000899
 30
0.0
 11
561.9513115115697
 21
58.22151785437018
 31
0.0
  0
LINE
  5
1FF
330
1F
100
AcDbEntity
  8
LIMESTONE_FSET3
100
AcDbLine
 10
560.1220428466331
 20
450.6084931613877
 30
0.0
 11
561.5854577786522
 21
453.2293985304423
 31
0.0
  0
LINE
  5
200
330
1F
100
AcDbEntity
  8
LIMESTONE_FSET3
100
AcDbLine
 10
560.6708234461257
 20
71.88766728015617
 30
0.0
 11
561.5854577786522
 21
73.57253501797095
 31
0.0
  0
LINE
  5
201
330
1F
100
AcDbEntity
  8
LIMESTONE_FSET3
100
AcDbLine
 10
561.402530912077
 20
185.5226357970387
 30
0.0
 11
563.2317995770136
 21
188.7051637461409
 31
0.0
  0
LINE
  5
202
330
1F
100
AcDbEntity
  8
LIMESTONE_FSET3
100
AcDbLine
 10
561.7683846449945
 20
260.4056463520974
 30
0.0
 11
563.0488727104384
 21
263.0265517211519
 31
0.0
  0
LINE
  5
203
330
1F
100
AcDbEntity
  8
LIMESTONE_FSET3
100
AcDbLine
 10
561.9513115115697
 20
454.539851215668
 30
0.0
 11
564.1464339093072
 21
458.284001743421
 31
0.0
  0
LINE
  5
204
330
1F
100
AcDbEntity
  8
LIMESTONE_FSET3
100
AcDbLine
 10
562.3171652444871
 20
42.68329316424206
 30
0.0
 11
563.0488727104384
 21
44.36816090159118
 31
0.0
  0
LINE
  5
205
330
1F
100
AcDbEntity
  8
LIMESTONE_FSET3
100
AcDbLine
 10
563.2317995770136
 20
59.71917806519195
 30
0.0
 11
565.6098488413263
 21
63.46332859294489
 31
0.0
  0
LINE
  5
206
330
1F
100
AcDbEntity
  8
LIMESTONE_FSET3
100
AcDbLine
 10
563.2317995770136
 20
87.80030702333897
 30
0.0
 11
565.6098488413263
 21
91.7316650771536
 31
0.0
  0
LINE
  5
207
330
1F
100
AcDbEntity
  8
LIMESTONE_FSET3
100
AcDbLine
 10
563.2317995770136
 20
174.4773917407729
 30
0.0
 11
564.3293607758824
 21
176.162259478122
 31
0.0
  0
LINE
  5
208
330
1F
100
AcDbEntity
  8
LIMESTONE_FSET3
100
AcDbLine
 10
563.7805801763898
 20
501.1545252855867
 30
0.0
 11
567.0732637731126
 21
507.1451661298051
 31
0.0
  0
LINE
  5
209
330
1F
100
AcDbEntity
  8
LIMESTONE_FSET3
100
AcDbLine
 10
564.3293607758824
 20
566.4899519947357
 30
0.0
 11
566.1586294407025
 21
569.6724799433723
 31
0.0
  0
LINE
  5
20A
330
1F
100
AcDbEntity
  8
LIMESTONE_FSET3
100
AcDbLine
 10
564.5122876423411
 20
0.1871846741996706
 30
0.0
 11
566.3415563072776
 21
2.808090043719858
 31
0.0
  0
LINE
  5
20B
330
1F
100
AcDbEntity
  8
LIMESTONE_FSET3
100
AcDbLine
 10
565.0610682418337
 20
238.3151582386345
 30
0.0
 11
566.7074100401951
 21
240.7488560816273
 31
0.0
  0
LINE
  5
20C
330
1F
100
AcDbEntity
  8
LIMESTONE_FSET3
100
AcDbLine
 10
565.4269219747512
 20
74.6957801762037
 30
0.0
 11
566.3415563072776
 21
76.38064791355282
 31
0.0
  0
LINE
  5
20D
330
1F
100
AcDbEntity
  8
LIMESTONE_FSET3
100
AcDbLine
 10
565.6098488413263
 20
149.0171681516804
 30
0.0
 11
568.719605571474
 21
154.6333939437754
 31
0.0
  0
LINE
  5
20E
330
1F
100
AcDbEntity
  8
LIMESTONE_FSET3
100
AcDbLine
 10
565.6098488413263
 20
460.1560770068318
 30
0.0
 11
569.8171667704592
 21
468.2060006419197
 31
0.0
  0
LINE
  5
20F
330
1F
100
AcDbEntity
  8
LIMESTONE_FSET3
100
AcDbLine
 10
566.1586294407025
 20
396.5055180354975
 30
0.0
 11
571.4635085688205
 21
406.4275169339962
 31
0.0
  0
LINE
  5
210
330
1F
100
AcDbEntity
  8
LIMESTONE_FSET3
100
AcDbLine
 10
566.7074100401951
 20
315.8190741627477
 30
0.0
 11
567.6220443724887
 21
317.5039419000968
 31
0.0
  0
LINE
  5
211
330
1F
100
AcDbEntity
  8
LIMESTONE_FSET3
100
AcDbLine
 10
566.7074100401951
 20
362.0593331800774
 30
0.0
 11
569.2683861709666
 21
365.8034837078303
 31
0.0
  0
LINE
  5
212
330
1F
100
AcDbEntity
  8
LIMESTONE_FSET3
100
AcDbLine
 10
567.0732637731126
 20
241.6848937133327
 30
0.0
 11
569.4513130374253
 21
245.054629188031
 31
0.0
  0
LINE
  5
213
330
1F
100
AcDbEntity
  8
LIMESTONE_FSET3
100
AcDbLine
 10
567.4391175061464
 20
5.241787886247039
 30
0.0
 11
568.1708249719813
 21
6.926655624527484
 31
0.0
  0
LINE
  5
214
330
1F
100
AcDbEntity
  8
LIMESTONE_FSET3
100
AcDbLine
 10
568.3537518385565
 20
509.3916564467363
 30
0.0
 11
569.4513130374253
 21
511.2637317106128
 31
0.0
  0
LINE
  5
215
330
1F
100
AcDbEntity
  8
LIMESTONE_FSET3
100
AcDbLine
 10
568.5366787050152
 20
251.4196850853041
 30
0.0
 11
569.4513130374253
 21
253.1045528226532
 31
0.0
  0
LINE
  5
216
330
1F
100
AcDbEntity
  8
LIMESTONE_FSET3
100
AcDbLine
 10
569.2683861709666
 20
139.0951692531817
 30
0.0
 11
570.9147279693279
 21
142.4649047283456
 31
0.0
  0
LINE
  5
217
330
1F
100
AcDbEntity
  8
LIMESTONE_FSET3
100
AcDbLine
 10
569.4513130374253
 20
264.8986269850284
 30
0.0
 11
572.3781429011142
 21
270.1404377240688
 31
0.0
  0
LINE
  5
218
330
1F
100
AcDbEntity
  8
LIMESTONE_FSET3
100
AcDbLine
 10
569.634239903884
 20
23.213710419368
 30
0.0
 11
571.0976548357867
 21
25.6474082628265
 31
0.0
  0
LINE
  5
219
330
1F
100
AcDbEntity
  8
LIMESTONE_FSET3
100
AcDbLine
 10
569.8171667704592
 20
177.2855046358891
 30
0.0
 11
572.7439966342645
 21
181.9656927958131
 31
0.0
  0
LINE
  5
21A
330
1F
100
AcDbEntity
  8
LIMESTONE_FSET3
100
AcDbLine
 10
570.0000936369179
 20
9.92197604617104
 30
0.0
 11
574.0244846994756
 21
17.41027710167691
 31
0.0
  0
LINE
  5
21B
330
1F
100
AcDbEntity
  8
LIMESTONE_FSET3
100
AcDbLine
 10
570.0000936369179
 20
367.3011439191177
 30
0.0
 11
573.4757041000994
 21
373.4789922898635
 31
0.0
  0
LINE
  5
21C
330
1F
100
AcDbEntity
  8
LIMESTONE_FSET3
100
AcDbLine
 10
570.1830205033766
 20
425.897099677939
 30
0.0
 11
571.829362301738
 21
428.5180050479248
 31
0.0
  0
LINE
  5
21D
330
1F
100
AcDbEntity
  8
LIMESTONE_FSET3
100
AcDbLine
 10
570.1830205033766
 20
513.1358069744892
 30
0.0
 11
571.0976548357867
 21
514.820674712304
 31
0.0
  0
LINE
  5
21E
330
1F
100
AcDbEntity
  8
LIMESTONE_FSET3
100
AcDbLine
 10
570.7318011028692
 20
480.0000748038292
 30
0.0
 11
572.1952160347719
 21
482.620980173815
 31
0.0
  0
LINE
  5
21F
330
1F
100
AcDbEntity
  8
LIMESTONE_FSET3
100
AcDbLine
 10
570.9147279693279
 20
546.6459541977383
 30
0.0
 11
572.5610697676893
 21
549.2668595672585
 31
0.0
  0
LINE
  5
220
330
1F
100
AcDbEntity
  8
LIMESTONE_FSET3
100
AcDbLine
 10
571.4635085688205
 20
248.7987797157839
 30
0.0
 11
574.7561921655433
 21
254.789420560468
 31
0.0
  0
LINE
  5
221
330
1F
100
AcDbEntity
  8
LIMESTONE_FSET3
100
AcDbLine
 10
572.3781429011142
 20
517.0671650283039
 30
0.0
 11
574.0244846994756
 21
519.688070397824
 31
0.0
  0
LINE
  5
222
330
1F
100
AcDbEntity
  8
LIMESTONE_FSET3
100
AcDbLine
 10
572.5610697676893
 20
307.7691505281255
 30
0.0
 11
574.939119032002
 21
311.8877161084674
 31
0.0
  0
LINE
  5
223
330
1F
100
AcDbEntity
  8
LIMESTONE_FSET3
100
AcDbLine
 10
572.5610697676893
 20
550.0156896729022
 30
0.0
 11
574.939119032002
 21
553.7598402006552
 31
0.0
  0
LINE
  5
224
330
1F
100
AcDbEntity
  8
LIMESTONE_FSET3
100
AcDbLine
 10
572.7439966342645
 20
213.4165572286583
 30
0.0
 11
574.7561921655433
 21
216.9735002298839
 31
0.0
  0
LINE
  5
225
330
1F
100
AcDbEntity
  8
LIMESTONE_FSET3
100
AcDbLine
 10
573.1098503671819
 20
316.3806967418641
 30
0.0
 11
573.8415578331333
 21
318.0655644792132
 31
0.0
  0
LINE
  5
226
330
1F
100
AcDbEntity
  8
LIMESTONE_FSET3
100
AcDbLine
 10
573.8415578331333
 20
160.4368272614665
 30
0.0
 11
574.939119032002
 21
162.1216949988157
 31
0.0
  0
LINE
  5
227
330
1F
100
AcDbEntity
  8
LIMESTONE_FSET3
100
AcDbLine
 10
574.0244846994756
 20
278.190361358691
 30
0.0
 11
576.4025339637883
 21
283.244964571204
 31
0.0
  0
LINE
  5
228
330
1F
100
AcDbEntity
  8
LIMESTONE_FSET3
100
AcDbLine
 10
574.7561921655433
 20
445.9283050014637
 30
0.0
 11
576.219607097446
 21
448.3620028449222
 31
0.0
  0
LINE
  5
229
330
1F
100
AcDbEntity
  8
LIMESTONE_FSET3
100
AcDbLine
 10
575.1220458984608
 20
106.3338521355763
 30
0.0
 11
576.219607097446
 21
108.5803424525075
 31
0.0
  0
LINE
  5
22A
330
1F
100
AcDbEntity
  8
LIMESTONE_FSET3
100
AcDbLine
 10
575.8537533644121
 20
437.1295512611978
 30
0.0
 11
579.3293638275936
 21
443.1201921054162
 31
0.0
  0
LINE
  5
22B
330
1F
100
AcDbEntity
  8
LIMESTONE_FSET3
100
AcDbLine
 10
576.0366802308708
 20
531.6693520867266
 30
0.0
 11
578.2318026287248
 21
535.4135026144795
 31
0.0
  0
LINE
  5
22C
330
1F
100
AcDbEntity
  8
LIMESTONE_FSET3
100
AcDbLine
 10
576.7683876968222
 20
58.78314043348655
 30
0.0
 11
577.8659488958074
 21
61.40404580254108
 31
0.0
  0
LINE
  5
22D
330
1F
100
AcDbEntity
  8
LIMESTONE_FSET3
100
AcDbLine
 10
577.5000951627735
 20
151.0764509420842
 30
0.0
 11
580.7927787594963
 21
157.25429931283
 31
0.0
  0
LINE
  5
22E
330
1F
100
AcDbEntity
  8
LIMESTONE_FSET3
100
AcDbLine
 10
578.2318026287248
 20
285.1170398350805
 30
0.0
 11
579.5122906940524
 21
287.363530151546
 31
0.0
  0
LINE
  5
22F
330
1F
100
AcDbEntity
  8
LIMESTONE_FSET3
100
AcDbLine
 10
578.5976563617587
 20
112.5117005063221
 30
0.0
 11
580.2439981601201
 21
115.6942284549586
 31
0.0
  0
LINE
  5
230
330
1F
100
AcDbEntity
  8
LIMESTONE_FSET3
100
AcDbLine
 10
578.9635100946762
 20
536.9111628253013
 30
0.0
 11
580.9757056260714
 21
540.0936907744035
 31
0.0
  0
LINE
  5
231
330
1F
100
AcDbEntity
  8
LIMESTONE_FSET3
100
AcDbLine
 10
579.3293638275936
 20
161.7472799462266
 30
0.0
 11
580.2439981601201
 21
163.2449401570484
 31
0.0
  0
LINE
  5
232
330
1F
100
AcDbEntity
  8
LIMESTONE_FSET3
100
AcDbLine
 10
579.3293638275936
 20
229.3291969718412
 30
0.0
 11
579.8781444269698
 21
230.6396496566013
 31
0.0
  0
LINE
  5
233
330
1F
100
AcDbEntity
  8
LIMESTONE_FSET3
100
AcDbLine
 10
579.5122906940524
 20
351.2012966494076
 30
0.0
 11
580.9757056260714
 21
353.6349944928661
 31
0.0
  0
LINE
  5
234
330
1F
100
AcDbEntity
  8
LIMESTONE_FSET3
100
AcDbLine
 10
579.6952175606275
 20
138.90796172712
 30
0.0
 11
580.4269250264624
 21
140.2184144118801
 31
0.0
  0
LINE
  5
235
330
1F
100
AcDbEntity
  8
LIMESTONE_FSET3
100
AcDbLine
 10
579.8781444269698
 20
329.4852235889994
 30
0.0
 11
581.1586324924137
 21
332.2933364845812
 31
0.0
  0
LINE
  5
236
330
1F
100
AcDbEntity
  8
LIMESTONE_FSET3
100
AcDbLine
 10
580.061071293545
 20
252.9173452961259
 30
0.0
 11
580.9757056260714
 21
254.6022130344063
 31
0.0
  0
LINE
  5
237
330
1F
100
AcDbEntity
  8
LIMESTONE_FSET3
100
AcDbLine
 10
580.7927787594963
 20
260.9672689312138
 30
0.0
 11
582.8049742907751
 21
264.3370044063777
 31
0.0
  0
LINE
  5
238
330
1F
100
AcDbEntity
  8
LIMESTONE_FSET3
100
AcDbLine
 10
580.7927787594963
 20
446.1155125279911
 30
0.0
 11
582.6220474243164
 21
448.923625423573
 31
0.0
  0
LINE
  5
239
330
1F
100
AcDbEntity
  8
LIMESTONE_FSET3
100
AcDbLine
 10
581.1586324924137
 20
290.3588505741209
 30
0.0
 11
582.4391205578577
 21
292.6053408905864
 31
0.0
  0
LINE
  5
23A
330
1F
100
AcDbEntity
  8
LIMESTONE_FSET3
100
AcDbLine
 10
581.3415593589889
 20
354.5710321250372
 30
0.0
 11
583.9025354897603
 21
358.8768052319065
 31
0.0
  0
LINE
  5
23B
330
1F
100
AcDbEntity
  8
LIMESTONE_FSET3
100
AcDbLine
 10
581.5244862254476
 20
49.98438669322059
 30
0.0
 11
582.4391205578577
 21
51.10763185145333
 31
0.0
  0
LINE
  5
23C
330
1F
100
AcDbEntity
  8
LIMESTONE_FSET3
100
AcDbLine
 10
581.5244862254476
 20
165.8658455265686
 30
0.0
 11
583.7196086233016
 21
169.6099960543215
 31
0.0
  0
LINE
  5
23D
330
1F
100
AcDbEntity
  8
LIMESTONE_FSET3
100
AcDbLine
 10
581.5244862254476
 20
541.404143458698
 30
0.0
 11
582.8049742907751
 21
543.6506337756291
 31
0.0
  0
LINE
  5
23E
330
1F
100
AcDbEntity
  8
LIMESTONE_FSET3
100
AcDbLine
 10
581.8903399583651
 20
234.9454227634706
 30
0.0
 11
583.170828023809
 21
237.0047055534087
 31
0.0
  0
LINE
  5
23F
330
1F
100
AcDbEntity
  8
LIMESTONE_FSET3
100
AcDbLine
 10
582.9879011573503
 20
52.04366948315874
 30
0.0
 11
585.0000966887455
 21
55.78782001091167
 31
0.0
  0
LINE
  5
240
330
1F
100
AcDbEntity
  8
LIMESTONE_FSET3
100
AcDbLine
 10
583.170828023809
 20
270.5148527771235
 30
0.0
 11
584.0854623562191
 21
271.8253054618835
 31
0.0
  0
LINE
  5
241
330
1F
100
AcDbEntity
  8
LIMESTONE_FSET3
100
AcDbLine
 10
583.170828023809
 20
294.2902086284012
 30
0.0
 11
584.6342429555953
 21
296.723906471394
 31
0.0
  0
LINE
  5
242
330
1F
100
AcDbEntity
  8
LIMESTONE_FSET3
100
AcDbLine
 10
583.170828023809
 20
450.0468705822714
 30
0.0
 11
584.6342429555953
 21
452.6677759517916
 31
0.0
  0
LINE
  5
243
330
1F
100
AcDbEntity
  8
LIMESTONE_FSET3
100
AcDbLine
 10
583.3537548902677
 20
120.5616241409443
 30
0.0
 11
584.4513160892529
 21
122.2464918787591
 31
0.0
  0
LINE
  5
244
330
1F
100
AcDbEntity
  8
LIMESTONE_FSET3
100
AcDbLine
 10
583.9025354897603
 20
2.808090043719858
 30
0.0
 11
586.8293653535657
 21
8.237108308821917
 31
0.0
  0
LINE
  5
245
330
1F
100
AcDbEntity
  8
LIMESTONE_FSET3
100
AcDbLine
 10
584.2683892226778
 20
170.3588261599652
 30
0.0
 11
585.365950421663
 21
172.4181089503691
 31
0.0
  0
LINE
  5
246
330
1F
100
AcDbEntity
  8
LIMESTONE_FSET3
100
AcDbLine
 10
584.2683892226778
 20
238.8767808177508
 30
0.0
 11
585.365950421663
 21
240.7488560816273
 31
0.0
  0
LINE
  5
247
330
1F
100
AcDbEntity
  8
LIMESTONE_FSET3
100
AcDbLine
 10
584.4513160892529
 20
24.52416310459375
 30
0.0
 11
586.8293653535657
 21
28.26831363234669
 31
0.0
  0
LINE
  5
248
330
1F
100
AcDbEntity
  8
LIMESTONE_FSET3
100
AcDbLine
 10
584.8171698221704
 20
477.379169434309
 30
0.0
 11
588.1098534188932
 21
483.5570178050548
 31
0.0
  0
LINE
  5
249
330
1F
100
AcDbEntity
  8
LIMESTONE_FSET3
100
AcDbLine
 10
586.2805847540731
 20
299.3448118404485
 30
0.0
 11
587.5610728194006
 21
301.4040946308523
 31
0.0
  0
LINE
  5
24A
330
1F
100
AcDbEntity
  8
LIMESTONE_FSET3
100
AcDbLine
 10
586.4635116205318
 20
326.1154881138355
 30
0.0
 11
587.1952190864831
 21
327.4259407985955
 31
0.0
  0
LINE
  5
24B
330
1F
100
AcDbEntity
  8
LIMESTONE_FSET3
100
AcDbLine
 10
586.8293653535657
 20
243.7441765037365
 30
0.0
 11
587.7439996859757
 21
245.2418367145583
 31
0.0
  0
LINE
  5
24C
330
1F
100
AcDbEntity
  8
LIMESTONE_FSET3
100
AcDbLine
 10
587.5610728194006
 20
127.1138875642791
 30
0.0
 11
588.8415608848445
 21
129.9220004603267
 31
0.0
  0
LINE
  5
24D
330
1F
100
AcDbEntity
  8
LIMESTONE_FSET3
100
AcDbLine
 10
587.7439996859757
 20
302.1529247364961
 30
0.0
 11
590.3049758167472
 21
306.8331128964201
 31
0.0
  0
LINE
  5
24E
330
1F
100
AcDbEntity
  8
LIMESTONE_FSET3
100
AcDbLine
 10
588.1098534188932
 20
386.0218965578824
 30
0.0
 11
589.3903414842207
 21
388.2683868743479
 31
0.0
  0
LINE
  5
24F
330
1F
100
AcDbEntity
  8
LIMESTONE_FSET3
100
AcDbLine
 10
588.1098534188932
 20
399.3136309310794
 30
0.0
 11
589.3903414842207
 21
401.5601212480105
 31
0.0
  0
LINE
  5
250
330
1F
100
AcDbEntity
  8
LIMESTONE_FSET3
100
AcDbLine
 10
589.2074146178784
 20
247.3011195049621
 30
0.0
 11
590.3049758167472
 21
249.734817347955
 31
0.0
  0
LINE
  5
251
330
1F
100
AcDbEntity
  8
LIMESTONE_FSET3
100
AcDbLine
 10
589.5732683507958
 20
332.4805440111086
 30
0.0
 11
590.8537564162398
 21
334.7270343280397
 31
0.0
  0
LINE
  5
252
330
1F
100
AcDbEntity
  8
LIMESTONE_FSET3
100
AcDbLine
 10
589.5732683507958
 20
485.9907156485133
 30
0.0
 11
591.0366832825821
 21
488.2372059649788
 31
0.0
  0
LINE
  5
253
330
1F
100
AcDbEntity
  8
LIMESTONE_FSET3
100
AcDbLine
 10
589.756195217371
 20
504.8986758133397
 30
0.0
 11
595.0610743453726
 21
514.6334671857767
 31
0.0
  0
LINE
  5
254
330
1F
100
AcDbEntity
  8
LIMESTONE_FSET3
100
AcDbLine
 10
589.9391220837133
 20
338.096769802738
 30
0.0
 11
591.402537015616
 21
340.7176751722582
 31
0.0
  0
LINE
  5
255
330
1F
100
AcDbEntity
  8
LIMESTONE_FSET3
100
AcDbLine
 10
590.122048950172
 20
39.87518026819453
 30
0.0
 11
591.7683907485334
 21
42.49608563771471
 31
0.0
  0
LINE
  5
256
330
1F
100
AcDbEntity
  8
LIMESTONE_FSET3
100
AcDbLine
 10
590.122048950172
 20
523.8066359786317
 30
0.0
 11
592.1342444815673
 21
527.3635789798573
 31
0.0
  0
LINE
  5
257
330
1F
100
AcDbEntity
  8
LIMESTONE_FSET3
100
AcDbLine
 10
590.3049758167472
 20
132.3556983033195
 30
0.0
 11
591.9513176151086
 21
135.1638111989014
 31
0.0
  0
LINE
  5
258
330
1F
100
AcDbEntity
  8
LIMESTONE_FSET3
100
AcDbLine
 10
591.0366832825821
 20
593.6350433207117
 30
0.0
 11
592.317171348026
 21
595.1327035319991
 31
0.0
  0
LINE
  5
259
330
1F
100
AcDbEntity
  8
LIMESTONE_FSET3
100
AcDbLine
 10
591.2196101491572
 20
212.1061045443639
 30
0.0
 11
592.317171348026
 21
213.9781798082404
 31
0.0
  0
LINE
  5
25A
330
1F
100
AcDbEntity
  8
LIMESTONE_FSET3
100
AcDbLine
 10
591.9513176151086
 20
43.43212326942012
 30
0.0
 11
593.9635131463874
 21
46.98906627111137
 31
0.0
  0
LINE
  5
25B
330
1F
100
AcDbEntity
  8
LIMESTONE_FSET3
100
AcDbLine
 10
592.1342444815673
 20
136.6614714106545
 30
0.0
 11
594.1464400128461
 21
140.4056219379418
 31
0.0
  0
LINE
  5
25C
330
1F
100
AcDbEntity
  8
LIMESTONE_FSET3
100
AcDbLine
 10
592.1342444815673
 20
342.0281278570183
 30
0.0
 11
595.4269280782901
 21
348.0187687012367
 31
0.0
  0
LINE
  5
25D
330
1F
100
AcDbEntity
  8
LIMESTONE_FSET3
100
AcDbLine
 10
592.1342444815673
 20
490.2964887553826
 30
0.0
 11
593.59765941347
 21
493.2918091774918
 31
0.0
  0
LINE
  5
25E
330
1F
100
AcDbEntity
  8
LIMESTONE_FSET3
100
AcDbLine
 10
592.317171348026
 20
178.7831648476422
 30
0.0
 11
594.3293668794213
 21
182.3401078488678
 31
0.0
  0
LINE
  5
25F
330
1F
100
AcDbEntity
  8
LIMESTONE_FSET3
100
AcDbLine
 10
592.317171348026
 20
433.9470233130269
 30
0.0
 11
594.6952206123387
 21
437.6911738403141
 31
0.0
  0
LINE
  5
260
330
1F
100
AcDbEntity
  8
LIMESTONE_FSET3
100
AcDbLine
 10
592.8659519475186
 20
367.6755589717068
 30
0.0
 11
593.9635131463874
 21
369.5476342355832
 31
0.0
  0
LINE
  5
261
330
1F
100
AcDbEntity
  8
LIMESTONE_FSET3
100
AcDbLine
 10
592.8659519475186
 20
596.4431562167592
 30
0.0
 11
594.5122937457636
 21
599.4384766388685
 31
0.0
  0
LINE
  5
262
330
1F
100
AcDbEntity
  8
LIMESTONE_FSET3
100
AcDbLine
 10
593.2318056805525
 20
214.9142174404114
 30
0.0
 11
597.0732698766515
 21
222.4025184954517
 31
0.0
  0
LINE
  5
263
330
1F
100
AcDbEntity
  8
LIMESTONE_FSET3
100
AcDbLine
 10
593.4147325468948
 20
106.3338521355763
 30
0.0
 11
594.3293668794213
 21
107.8315123468637
 31
0.0
  0
LINE
  5
264
330
1F
100
AcDbEntity
  8
LIMESTONE_FSET3
100
AcDbLine
 10
593.7805862799287
 20
550.0156896729022
 30
0.0
 11
595.0610743453726
 21
552.4493875158951
 31
0.0
  0
LINE
  5
265
330
1F
100
AcDbEntity
  8
LIMESTONE_FSET3
100
AcDbLine
 10
593.9635131463874
 20
95.85023065796122
 30
0.0
 11
597.4391236095689
 21
102.028079028707
 31
0.0
  0
LINE
  5
266
330
1F
100
AcDbEntity
  8
LIMESTONE_FSET3
100
AcDbLine
 10
593.9635131463874
 20
270.5148527771235
 30
0.0
 11
595.6098549448652
 21
273.3229656727053
 31
0.0
  0
LINE
  5
267
330
1F
100
AcDbEntity
  8
LIMESTONE_FSET3
100
AcDbLine
 10
593.9635131463874
 20
281.3728893073276
 30
0.0
 11
595.0610743453726
 21
283.244964571204
 31
0.0
  0
LINE
  5
268
330
1F
100
AcDbEntity
  8
LIMESTONE_FSET3
100
AcDbLine
 10
594.8781474787975
 20
438.6272114724852
 30
0.0
 11
596.8903430100763
 21
441.2481168415397
 31
0.0
  0
LINE
  5
269
330
1F
100
AcDbEntity
  8
LIMESTONE_FSET3
100
AcDbLine
 10
595.2440012118313
 20
496.0999220735393
 30
0.0
 11
598.5366848085541
 21
501.9033553912304
 31
0.0
  0
LINE
  5
26A
330
1F
100
AcDbEntity
  8
LIMESTONE_FSET3
100
AcDbLine
 10
595.4269280782901
 20
109.7035876102746
 30
0.0
 11
596.8903430100763
 21
112.5117005063221
 31
0.0
  0
LINE
  5
26B
330
1F
100
AcDbEntity
  8
LIMESTONE_FSET3
100
AcDbLine
 10
595.4269280782901
 20
330.4212612207048
 30
0.0
 11
596.3415624107001
 21
331.9189214319922
 31
0.0
  0
LINE
  5
26C
330
1F
100
AcDbEntity
  8
LIMESTONE_FSET3
100
AcDbLine
 10
595.7927818112075
 20
553.9470477267168
 30
0.0
 11
597.6220504760277
 21
556.9423681488261
 31
0.0
  0
LINE
  5
26D
330
1F
100
AcDbEntity
  8
LIMESTONE_FSET3
100
AcDbLine
 10
596.707416143734
 20
318.0655644792132
 30
0.0
 11
598.5366848085541
 21
321.4352999539115
 31
0.0
  0
LINE
  5
26E
330
1F
100
AcDbEntity
  8
LIMESTONE_FSET3
100
AcDbLine
 10
596.8903430100763
 20
81.06083607301116
 30
0.0
 11
598.5366848085541
 21
84.99219412729144
 31
0.0
  0
LINE
  5
26F
330
1F
100
AcDbEntity
  8
LIMESTONE_FSET3
100
AcDbLine
 10
596.8903430100763
 20
442.1841544737108
 30
0.0
 11
598.3537579420954
 21
444.805059843231
 31
0.0
  0
LINE
  5
270
330
1F
100
AcDbEntity
  8
LIMESTONE_FSET3
100
AcDbLine
 10
597.0732698766515
 20
67.20747912069783
 30
0.0
 11
598.3537579420954
 21
69.64117696369067
 31
0.0
  0
LINE
  5
271
330
1F
100
AcDbEntity
  8
LIMESTONE_FSET3
100
AcDbLine
 10
597.4391236095689
 20
391.2637072964571
 30
0.0
 11
598.5366848085541
 21
393.322990086861
 31
0.0
  0
LINE
  5
272
330
1F
100
AcDbEntity
  8
LIMESTONE_FSET3
100
AcDbLine
 10
597.6220504760277
 20
351.7629192289896
 30
0.0
 11
598.5366848085541
 21
353.0733719132841
 31
0.0
  0
LINE
  5
273
330
1F
100
AcDbEntity
  8
LIMESTONE_FSET3
100
AcDbLine
 10
597.8049773426028
 20
230.0780270774849
 30
0.0
 11
598.5366848085541
 21
231.762894814834
 31
0.0
  0
ENDSEC
  0
SECTION
  2
OBJECTS
  0
DICTIONARY
  5
C
330
0
100
AcDbDictionary
  3
ACAD_GROUP
350
D
  3
ACAD_LAYOUT
350
1A
  3
ACAD_MATERIAL
350
43
  3
ACAD_MLEADERSTYLE
350
6B
  3
ACAD_MLINESTYLE
350
17
  3
ACAD_PLOTSETTINGS
350
19
  3
ACAD_SCALELIST
350
47
  3
ACAD_VISUALSTYLE
350
2A
  3
ACDBHEADERROUNDTRIPXREC
350
275
  3
ACDBVARIABLEDICTIONARY
350
8F
  3
ESRI_PRJ
350
274
  0
DICTIONARY
  5
296
330
8
100
AcDbDictionary
280
     1
  3
ACAD_XREC_ROUNDTRIP
360
297
  0
DICTIONARY
  5
D
102
{ACAD_REACTORS
330
C
102
}
330
C
100
AcDbDictionary
  0
DICTIONARY
  5
1A
102
{ACAD_REACTORS
330
C
102
}
330
C
100
AcDbDictionary
  0
DICTIONARY
  5
43
102
{ACAD_REACTORS
330
C
102
}
330
C
100
AcDbDictionary
  3
BYBLOCK
350
45
  3
BYLAYER
350
44
  3
GLOBAL
350
46
  0
DICTIONARY
  5
6B
102
{ACAD_REACTORS
330
C
102
}
330
C
100
AcDbDictionary
  3
STANDARD
350
6C
  0
DICTIONARY
  5
17
102
{ACAD_REACTORS
330
C
102
}
330
C
100
AcDbDictionary
  3
STANDARD
350
18
  0
DICTIONARY
  5
19
102
{ACAD_REACTORS
330
C
102
}
330
C
100
AcDbDictionary
  0
DICTIONARY
  5
47
102
{ACAD_REACTORS
330
C
102
}
330
C
100
AcDbDictionary
  3
A0
350
48
  3
A1
350
49
  3
A2
350
4A
  3
A3
350
4B
  3
A4
350
4C
  3
A5
350
4D
  3
A6
350
4E
  3
A7
350
4F
  3
A8
350
50
  3
A9
350
51
  3
B0
350
52
  3
B1
350
53
  3
B2
350
54
  3
B3
350
55
  3
B4
350
56
  3
B5
350
57
  3
B6
350
58
  3
B7
350
59
  3
B8
350
5A
  3
B9
350
5B
  3
C0
350
5C
  3
C1
350
5D
  3
C2
350
5E
  3
C3
350
5F
  3
C4
350
60
  3
C5
350
61
  3
C6
350
62
  3
C7
350
63
  3
C8
350
64
  3
C9
350
65
  3
D0
350
66
  3
D1
350
67
  3
D2
350
68
  0
DICTIONARY
  5
2A
102
{ACAD_REACTORS
330
C
102
}
330
C
100
AcDbDictionary
  3
2DWIREFRAME
350
2F
  3
BASIC
350
32
  3
BRIGHTEN
350
36
  3
COLORCHANGE
350
3A
  3
CONCEPTUAL
350
34
  3
DIM
350
35
  3
EDGECOLOROFF
350
3D
  3
FACEPATTERN
350
39
  3
FLAT
350
2B
  3
FLATWITHEDGES
350
2C
  3
GOURAUD
350
2D
  3
GOURAUDWITHEDGES
350
2E
  3
HIDDEN
350
31
  3
JITTEROFF
350
3B
  3
LINEPATTERN
350
38
  3
OVERHANGOFF
350
3C
  3
REALISTIC
350
33
  3
SHADED
350
42
  3
SHADED_WITH_EDGES
350
41
  3
SHADES_OF_GRAY
350
3E
  3
SKETCHY
350
3F
  3
THICKEN
350
37
  3
WIREFRAME
350
30
  3
X-RAY
350
40
  0
DICTIONARY
  5
275
102
{ACAD_REACTORS
330
C
102
}
330
C
100
AcDbDictionary
  3
CEPSNID
350
27F
  3
CEPSNTYPE
350
27E
  3
DIMSTYLEDATA
350
295
  3
FINGERPRINTGUID
350
280
  3
HYPERLINKBASE
350
278
  3
INSUNITS
350
27D
  3
LAYOUTDICT
350
27A
  3
LWETCUNION
350
27C
  3
PLOTSETDICT
350
27B
  3
PSVPSCALE
350
282
  3
PUCSBASE
350
285
  3
PUCSORGBACK
350
28B
  3
PUCSORGBOTTOM
350
287
  3
PUCSORGFRONT
350
28A
  3
PUCSORGLEFT
350
288
  3
PUCSORGRIGHT
350
289
  3
PUCSORGTOP
350
286
  3
PUCSORTHOREF
350
283
  3
PUCSORTHOVIEW
350
284
  3
STYLESHEET
350
279
  3
TSTACKALIGN
350
276
  3
TSTACKSIZE
350
277
  3
UCSBASE
350
28E
  3
UCSORGBACK
350
294
  3
UCSORGBOTTOM
350
290
  3
UCSORGFRONT
350
293
  3
UCSORGLEFT
350
291
  3
UCSORGRIGHT
350
292
  3
UCSORGTOP
350
28F
  3
UCSORTHOREF
350
28C
  3
UCSORTHOVIEW
350
28D
  3
VERSIONGUID
350
281
  0
DICTIONARY
  5
8F
102
{ACAD_REACTORS
330
C
102
}
330
C
100
AcDbDictionary
  3
CANNOSCALE
350
98
  3
CMLEADERSTYLE
350
91
  3
CTABLESTYLE
350
90
  3
DIMASSOC
350
94
  3
HIDETEXT
350
95
  3
MSLTSCALE
350
99
  0
XRECORD
  5
274
102
{ACAD_REACTORS
330
C
102
}
330
C
100
AcDbXrecord
  1
PROJCS["WGS_1984_UTM_Zone_14N",GEOGCS["GCS_WGS_1984",DATUM["D_WGS_1984",SPHEROID["WGS_1984",6378137.0,298.257223563]],PRIMEM["Greenwich",0.0],UNIT["Degree",0.0174532925199433]],PROJECTION["Transverse_Mercator"],PARAMETER["False_Easting",500000.0],PARAMETER["False_Northing",0.0],PARAMETER["Central_Meridian",-99.0],PARAMETER["Scale_Factor",0.9996],PARAMETER["Latitude_Of_Origin",0.0],UNIT["Meter",1.0]]
  0
XRECORD
  5
297
102
{ACAD_REACTORS
330
296
102
}
330
296
100
AcDbXrecord
102
VTR_0.000_0.000_1.000_1.000_VISUALSTYLE
340
2F
102
VTR_0.000_0.000_1.000_1.000_GRIDDISPLAY
 70
     3
102
VTR_0.000_0.000_1.000_1.000_GRIDMAJOR
 70
     5
102
VTR_0.000_0.000_1.000_1.000_DEFAULTLIGHTING
280
     1
102
VTR_0.000_0.000_1.000_1.000_DEFAULTLIGHTINGTYPE
 70
     1
102
VTR_0.000_0.000_1.000_1.000_BRIGHTNESS
141
0.0
102
VTR_0.000_0.000_1.000_1.000_CONTRAST
142
0.0
  0
MATERIAL
  5
45
102
{ACAD_REACTORS
330
43
102
}
102
{ACAD_XDICTIONARY
360
29A
102
}
330
43
100
AcDbMaterial
  1
BYBLOCK
  0
MATERIAL
  5
44
102
{ACAD_REACTORS
330
43
102
}
102
{ACAD_XDICTIONARY
360
298
102
}
330
43
100
AcDbMaterial
  1
BYLAYER
  0
MATERIAL
  5
46
102
{ACAD_REACTORS
330
43
102
}
102
{ACAD_XDICTIONARY
360
29C
102
}
330
43
100
AcDbMaterial
  1
GLOBAL
  0
ACAD_PROXY_OBJECT
  5
6C
102
{ACAD_REACTORS
330
6B
102
}
330
6B
100
AcDbProxyObject
 90
      499
 91
      505
 93
      610
310
40901902A4063FBFFFFFE056BD1B81E855B9FC0AD7A3703D0AD73F4214DD185B99185C9900AD7A3703D0AC73F90141901A02B5E8DC0F42B1CFC02B5E8DC0F42B1CFE5764000000000000300FC0
340
14
340
0
340
11
340
0
 94
        0
1001
ACAD_MLEADERVER
1070
     2
  0
MLINESTYLE
  5
18
102
{ACAD_REACTORS
330
17
102
}
330
17
100
AcDbMlineStyle
  2
Standard
 70
     0
  3

 62
   256
 51
90.0
 52
90.0
 71
     2
 49
0.5
 62
   256
  6
BYLAYER
 49
-0.5
 62
   256
  6
BYLAYER
  0
ACAD_PROXY_OBJECT
  5
48
102
{ACAD_REACTORS
330
47
102
}
330
47
100
AcDbProxyObject
 90
      499
 91
      503
 93
       41
310
903313A31580
  0
ACAD_PROXY_OBJECT
  5
49
102
{ACAD_REACTORS
330
47
102
}
330
47
100
AcDbProxyObject
 90
      499
 91
      503
 93
      105
310
903313A324000000000000004000
  0
ACAD_PROXY_OBJECT
  5
4A
102
{ACAD_REACTORS
330
47
102
}
330
47
100
AcDbProxyObject
 90
      499
 91
      503
 93
      105
310
903313A344000000000000104000
  0
ACAD_PROXY_OBJECT
  5
4B
102
{ACAD_REACTORS
330
47
102
}
330
47
100
AcDbProxyObject
 90
      499
 91
      503
 93
      105
310
903313A354000000000000144000
  0
ACAD_PROXY_OBJECT
  5
4C
102
{ACAD_REACTORS
330
47
102
}
330
47
100
AcDbProxyObject
 90
      499
 91
      503
 93
      105
310
903313A384000000000000204000
  0
ACAD_PROXY_OBJECT
  5
4D
102
{ACAD_REACTORS
330
47
102
}
330
47
100
AcDbProxyObject
 90
      499
 91
      503
 93
      113
310
904313A31304000000000000244000
  0
ACAD_PROXY_OBJECT
  5
4E
102
{ACAD_REACTORS
330
47
102
}
330
47
100
AcDbProxyObject
 90
      499
 91
      503
 93
      113
310
904313A31364000000000000304000
  0
ACAD_PROXY_OBJECT
  5
4F
102
{ACAD_REACTORS
330
47
102
}
330
47
100
AcDbProxyObject
 90
      499
 91
      503
 93
      113
310
904313A32304000000000000344000
  0
ACAD_PROXY_OBJECT
  5
50
102
{ACAD_REACTORS
330
47
102
}
330
47
100
AcDbProxyObject
 90
      499
 91
      503
 93
      113
310
904313A333040000000000003E4000
  0
ACAD_PROXY_OBJECT
  5
51
102
{ACAD_REACTORS
330
47
102
}
330
47
100
AcDbProxyObject
 90
      499
 91
      503
 93
      113
310
904313A34304000000000000444000
  0
ACAD_PROXY_OBJECT
  5
52
102
{ACAD_REACTORS
330
47
102
}
330
47
100
AcDbProxyObject
 90
      499
 91
      503
 93
      113
310
904313A35304000000000000494000
  0
ACAD_PROXY_OBJECT
  5
53
102
{ACAD_REACTORS
330
47
102
}
330
47
100
AcDbProxyObject
 90
      499
 91
      503
 93
      121
310
905313A3130304000000000000594000
  0
ACAD_PROXY_OBJECT
  5
54
102
{ACAD_REACTORS
330
47
102
}
330
47
100
AcDbProxyObject
 90
      499
 91
      503
 93
      105
310
903323A310000000000000010100
  0
ACAD_PROXY_OBJECT
  5
55
102
{ACAD_REACTORS
330
47
102
}
330
47
100
AcDbProxyObject
 90
      499
 91
      503
 93
      105
310
903343A310000000000000410100
  0
ACAD_PROXY_OBJECT
  5
56
102
{ACAD_REACTORS
330
47
102
}
330
47
100
AcDbProxyObject
 90
      499
 91
      503
 93
      105
310
903383A310000000000000810100
  0
ACAD_PROXY_OBJECT
  5
57
102
{ACAD_REACTORS
330
47
102
}
330
47
100
AcDbProxyObject
 90
      499
 91
      503
 93
      113
310
90431303A310000000000000910100
  0
ACAD_PROXY_OBJECT
  5
58
102
{ACAD_REACTORS
330
47
102
}
330
47
100
AcDbProxyObject
 90
      499
 91
      503
 93
      121
310
9053130303A310000000000001650100
  0
ACAD_PROXY_OBJECT
  5
59
102
{ACAD_REACTORS
330
47
102
}
330
47
100
AcDbProxyObject
 90
      499
 91
      503
 93
      257
310
90E312F31323822203D2031272D3022000000000000200FC000000000000284000
  0
ACAD_PROXY_OBJECT
  5
5A
102
{ACAD_REACTORS
330
47
102
}
330
47
100
AcDbProxyObject
 90
      499
 91
      503
 93
      249
310
90D312F363422203D2031272D3022000000000000240FC000000000000284000
  0
ACAD_PROXY_OBJECT
  5
5B
102
{ACAD_REACTORS
330
47
102
}
330
47
100
AcDbProxyObject
 90
      499
 91
      503
 93
      249
310
90D312F333222203D2031272D3022000000000000280FC000000000000284000
  0
ACAD_PROXY_OBJECT
  5
5C
102
{ACAD_REACTORS
330
47
102
}
330
47
100
AcDbProxyObject
 90
      499
 91
      503
 93
      249
310
90D312F313622203D2031272D30220000000000002C0FC000000000000284000
  0
ACAD_PROXY_OBJECT
  5
5D
102
{ACAD_REACTORS
330
47
102
}
330
47
100
AcDbProxyObject
 90
      499
 91
      503
 93
      249
310
90D332F333222203D2031272D30220000000000002E0FC000000000000284000
  0
ACAD_PROXY_OBJECT
  5
5E
102
{ACAD_REACTORS
330
47
102
}
330
47
100
AcDbProxyObject
 90
      499
 91
      503
 93
      241
310
90C312F3822203D2031272D3022000000000000300FC000000000000284000
  0
ACAD_PROXY_OBJECT
  5
5F
102
{ACAD_REACTORS
330
47
102
}
330
47
100
AcDbProxyObject
 90
      499
 91
      503
 93
      249
310
90D332F313622203D2031272D3022000000000000320FC000000000000284000
  0
ACAD_PROXY_OBJECT
  5
60
102
{ACAD_REACTORS
330
47
102
}
330
47
100
AcDbProxyObject
 90
      499
 91
      503
 93
      241
310
90C312F3422203D2031272D3022000000000000340FC000000000000284000
  0
ACAD_PROXY_OBJECT
  5
61
102
{ACAD_REACTORS
330
47
102
}
330
47
100
AcDbProxyObject
 90
      499
 91
      503
 93
      241
310
90C332F3822203D2031272D3022000000000000360FC000000000000284000
  0
ACAD_PROXY_OBJECT
  5
62
102
{ACAD_REACTORS
330
47
102
}
330
47
100
AcDbProxyObject
 90
      499
 91
      503
 93
      241
310
90C312F3222203D2031272D3022000000000000380FC000000000000284000
  0
ACAD_PROXY_OBJECT
  5
63
102
{ACAD_REACTORS
330
47
102
}
330
47
100
AcDbProxyObject
 90
      499
 91
      503
 93
      241
310
90C332F3422203D2031272D30220000000000003A0FC000000000000284000
  0
ACAD_PROXY_OBJECT
  5
64
102
{ACAD_REACTORS
330
47
102
}
330
47
100
AcDbProxyObject
 90
      499
 91
      503
 93
      161
310
90A3122203D2031272D30224000000000000284000
  0
ACAD_PROXY_OBJECT
  5
65
102
{ACAD_REACTORS
330
47
102
}
330
47
100
AcDbProxyObject
 90
      499
 91
      503
 93
      257
310
90E312D312F3222203D2031272D30220000000000003E0FC000000000000284000
  0
ACAD_PROXY_OBJECT
  5
66
102
{ACAD_REACTORS
330
47
102
}
330
47
100
AcDbProxyObject
 90
      499
 91
      503
 93
      225
310
90A3322203D2031272D302200000000000002100000000000000284000
  0
ACAD_PROXY_OBJECT
  5
67
102
{ACAD_REACTORS
330
47
102
}
330
47
100
AcDbProxyObject
 90
      499
 91
      503
 93
      225
310
90A3622203D2031272D302200000000000006100000000000000284000
  0
ACAD_PROXY_OBJECT
  5
68
102
{ACAD_REACTORS
330
47
102
}
330
47
100
AcDbProxyObject
 90
      499
 91
      503
 93
      249
310
90D31272D3022203D2031272D30220000000000000A100000000000000284000
  0
ACAD_PROXY_OBJECT
  5
2F
102
{ACAD_REACTORS
330
2A
102
}
330
2A
100
AcDbProxyObject
 90
      499
 91
      501
 93
      436
310
42CC9915DA5C99599C985B595049028333333333333E33F0000000000000F90107901411070040501600405405064090741402480A0340
1001
ACAD
1000
AcDbSavedByObjectVersion
1070
     0
  0
ACAD_PROXY_OBJECT
  5
32
102
{ACAD_REACTORS
330
2A
102
}
330
2A
100
AcDbProxyObject
 90
      499
 91
      501
 93
      388
310
4150985CDA58D07406404333333333333E33F0000000000000F90107A41107004050150841D405064090741402480A0350
1001
ACAD
1000
AcDbSavedByObjectVersion
1070
     0
  0
ACAD_PROXY_OBJECT
  5
36
102
{ACAD_REACTORS
330
2A
102
}
330
2A
100
AcDbProxyObject
 90
      499
 91
      501
 93
      428
310
42109C9A59DA1D195B90C409028333333333333E33F0000000000000F9010790141107004050150841D405064090741402480A029950
1001
ACAD
1000
AcDbSavedByObjectVersion
1070
     0
  0
ACAD_PROXY_OBJECT
  5
3A
102
{ACAD_REACTORS
330
2A
102
}
330
2A
100
AcDbProxyObject
 90
      499
 91
      501
 93
      452
310
42D0DBDB1BDC90DA185B99D95104090240C333333333333E33F0000000000000F90108901411070040501508421405064090741402480A0350
1001
ACAD
1000
AcDbSavedByObjectVersion
1070
     0
  0
ACAD_PROXY_OBJECT
  5
34
102
{ACAD_REACTORS
330
2A
102
}
330
2A
100
AcDbProxyObject
 90
      499
 91
      501
 93
      500
310
4290DBDB98D95C1D1D585B10940D028333333333333E33F0000000000000F90107902409070040501000000000018199010841D405064090740C02480A0340
1001
ACAD
1000
AcDbSavedByObjectVersion
1070
     0
  0
ACAD_PROXY_OBJECT
  5
35
102
{ACAD_REACTORS
330
2A
102
}
330
2A
100
AcDbProxyObject
 90
      499
 91
      501
 93
      412
310
40D11A5B50B409028333333333333E33F0000000000000F9010790141107004050150841D405064090741402480A02677FFFFFD0
1001
ACAD
1000
AcDbSavedByObjectVersion
1070
     0
  0
ACAD_PROXY_OBJECT
  5
3D
102
{ACAD_REACTORS
330
2A
102
}
330
2A
100
AcDbProxyObject
 90
      499
 91
      501
 93
      452
310
43115919D950DBDB1BDC93D999916409028333333333333E33F0000000000000F9010790141107004050150841D405064090741402480A0350
1001
ACAD
1000
AcDbSavedByObjectVersion
1070
     0
  0
ACAD_PROXY_OBJECT
  5
39
102
{ACAD_REACTORS
330
2A
102
}
330
2A
100
AcDbProxyObject
 90
      499
 91
      501
 93
      444
310
42D19858D95C185D1D195C9B90F409028333333333333E33F0000000000000F9010790141107004050150841D405064090741402480A0350
1001
ACAD
1000
AcDbSavedByObjectVersion
1070
     0
  0
ACAD_PROXY_OBJECT
  5
2B
102
{ACAD_REACTORS
330
2A
102
}
330
2A
100
AcDbProxyObject
 90
      499
 91
      501
 93
      380
310
41119B185D240901404333333333333E33F0000000000000F9010740A907004050150841D405064090741402480A1B50
1001
ACAD
1000
AcDbSavedByObjectVersion
1070
     0
  0
ACAD_PROXY_OBJECT
  5
2C
102
{ACAD_REACTORS
330
2A
102
}
330
2A
100
AcDbProxyObject
 90
      499
 91
      501
 93
      468
310
43519B185D15DA5D1A115919D95CD0140901404333333333333E33F0000000000000F90107409019070040501600405405064090741402480A1B50
1001
ACAD
1000
AcDbSavedByObjectVersion
1070
     0
  0
ACAD_PROXY_OBJECT
  5
2D
102
{ACAD_REACTORS
330
2A
102
}
330
2A
100
AcDbProxyObject
 90
      499
 91
      501
 93
      404
310
41D1DBDD5C985D5910240902404333333333333E33F0000000000000F9010740A9070040501641D405064090741402480A1B50
1001
ACAD
1000
AcDbSavedByObjectVersion
1070
     0
  0
ACAD_PROXY_OBJECT
  5
2E
102
{ACAD_REACTORS
330
2A
102
}
330
2A
100
AcDbProxyObject
 90
      499
 91
      501
 93
      492
310
4411DBDD5C985D5915DA5D1A115919D95CD0340902404333333333333E33F0000000000000F90107409019070040501600405405064090741402480A1B50
1001
ACAD
1000
AcDbSavedByObjectVersion
1070
     0
  0
ACAD_PROXY_OBJECT
  5
31
102
{ACAD_REACTORS
330
2A
102
}
330
2A
100
AcDbProxyObject
 90
      499
 91
      501
 93
      476
310
41921A5919195B90640502408333333333333E33F0000000000000F901079024090700405020000000000001110200405405064090740C02480A0340
1001
ACAD
1000
AcDbSavedByObjectVersion
1070
     0
  0
ACAD_PROXY_OBJECT
  5
3B
102
{ACAD_REACTORS
330
2A
102
}
330
2A
100
AcDbProxyObject
 90
      499
 91
      501
 93
      428
310
42529A5D1D195C93D999914409028333333333333E33F0000000000000F9010790141107004050150A41D405064090741402480A0350
1001
ACAD
1000
AcDbSavedByObjectVersion
1070
     0
  0
ACAD_PROXY_OBJECT
  5
38
102
{ACAD_REACTORS
330
2A
102
}
330
2A
100
AcDbProxyObject
 90
      499
 91
      501
 93
      444
310
42D31A5B995C185D1D195C9B90E409028333333333333E33F0000000000000F9010790141107004050750841D405064090741402483A0350
1001
ACAD
1000
AcDbSavedByObjectVersion
1070
     0
  0
ACAD_PROXY_OBJECT
  5
3C
102
{ACAD_REACTORS
330
2A
102
}
330
2A
100
AcDbProxyObject
 90
      499
 91
      501
 93
      444
310
42D3DD995C9A185B99D3D999915409028333333333333E33F0000000000000F9010790141107004050150941D405064090741402480A0350
1001
ACAD
1000
AcDbSavedByObjectVersion
1070
     0
  0
ACAD_PROXY_OBJECT
  5
33
102
{ACAD_REACTORS
330
2A
102
}
330
2A
100
AcDbProxyObject
 90
      499
 91
      501
 93
      428
310
425499585B1A5CDD1A58D08409038333333333333E33F0000000000000F9010740A907004050150800405405064090740C02480A1B40
1001
ACAD
1000
AcDbSavedByObjectVersion
1070
     0
  0
ACAD_PROXY_OBJECT
  5
42
102
{ACAD_REACTORS
330
2A
102
}
330
2A
100
AcDbProxyObject
 90
      499
 91
      501
 93
      420
310
4194DA1859195911B40902404333333333333E33F0000000000000F9010740A41107004050150800405405064090840C02480A0B40
1001
ACAD
1000
AcDbSavedByObjectVersion
1070
     0
  0
ACAD_PROXY_OBJECT
  5
41
102
{ACAD_REACTORS
330
2A
102
}
330
2A
100
AcDbProxyObject
 90
      499
 91
      501
 93
      516
310
4454DA18591959081DDA5D1A08195919D95CD1A40902404333333333333E33F0000000000000F901074090142907004050250800405405064090740C02480A0B40
1001
ACAD
1000
AcDbSavedByObjectVersion
1070
     0
  0
ACAD_PROXY_OBJECT
  5
3E
102
{ACAD_REACTORS
330
2A
102
}
330
2A
100
AcDbProxyObject
 90
      499
 91
      501
 93
      532
310
4394DA1859195CC81BD98811DC985E5174090240C333333333333E33F0000000000000F901079024090741D01000000000000111010841D405064090740C02480A0340
1001
ACAD
1000
AcDbSavedByObjectVersion
1070
     0
  0
ACAD_PROXY_OBJECT
  5
3F
102
{ACAD_REACTORS
330
2A
102
}
330
2A
100
AcDbProxyObject
 90
      499
 91
      501
 93
      476
310
41D4DAD95D18DA1E51840502408333333333333E33F0000000000000F901079024090741D01000000000000111010B41D405064090741802480A0340
1001
ACAD
1000
AcDbSavedByObjectVersion
1070
     0
  0
ACAD_PROXY_OBJECT
  5
37
102
{ACAD_REACTORS
330
2A
102
}
330
2A
100
AcDbProxyObject
 90
      499
 91
      501
 93
      412
310
41D51A1A58DAD95B90D409028333333333333E33F0000000000000F9010790141107004050150C41D405064090741402480A0350
1001
ACAD
1000
AcDbSavedByObjectVersion
1070
     0
  0
ACAD_PROXY_OBJECT
  5
30
102
{ACAD_REACTORS
330
2A
102
}
330
2A
100
AcDbProxyObject
 90
      499
 91
      501
 93
      420
310
4255DA5C99599C985B595059028333333333333E33F0000000000000F90107901411070040501600405405064090740C02480A0340
1001
ACAD
1000
AcDbSavedByObjectVersion
1070
     0
  0
ACAD_PROXY_OBJECT
  5
40
102
{ACAD_REACTORS
330
2A
102
}
330
2A
100
AcDbProxyObject
 90
      499
 91
      501
 93
      404
310
41560B54985E51940902404000000000000E03F0000000000000F9010740501907004050150841D405064090740C02480A1B40
1001
ACAD
1000
AcDbSavedByObjectVersion
1070
     0
  0
XRECORD
  5
27F
102
{ACAD_REACTORS
330
275
102
}
330
275
100
AcDbXrecord
340
0
  0
XRECORD
  5
27E
102
{ACAD_REACTORS
330
275
102
}
330
275
100
AcDbXrecord
 90
        0
  0
XRECORD
  5
295
102
{ACAD_REACTORS
330
275
102
}
330
275
100
AcDbXrecord
1000
DSTYLE
1002
{
1070
   340
340
11
1002
}
  0
XRECORD
  5
280
102
{ACAD_REACTORS
330
275
102
}
330
275
100
AcDbXrecord
  1
{7A7568A2-F0AB-4BE4-A887-7BEA78020AA3}
  0
XRECORD
  5
278
102
{ACAD_REACTORS
330
275
102
}
330
275
100
AcDbXrecord
  1

  0
XRECORD
  5
27D
102
{ACAD_REACTORS
330
275
102
}
330
275
100
AcDbXrecord
 90
        1
  0
XRECORD
  5
27A
102
{ACAD_REACTORS
330
275
102
}
330
275
100
AcDbXrecord
340
1A
  0
XRECORD
  5
27C
102
{ACAD_REACTORS
330
275
102
}
330
275
100
AcDbXrecord
 90
    10781
  0
XRECORD
  5
27B
102
{ACAD_REACTORS
330
275
102
}
330
275
100
AcDbXrecord
340
19
  0
XRECORD
  5
282
102
{ACAD_REACTORS
330
275
102
}
330
275
100
AcDbXrecord
 40
0.0
  0
XRECORD
  5
285
102
{ACAD_REACTORS
330
275
102
}
330
275
100
AcDbXrecord
340
0
  0
XRECORD
  5
28B
102
{ACAD_REACTORS
330
275
102
}
330
275
100
AcDbXrecord
 10
0.0
 20
0.0
 30
0.0
  0
XRECORD
  5
287
102
{ACAD_REACTORS
330
275
102
}
330
275
100
AcDbXrecord
 10
0.0
 20
0.0
 30
0.0
  0
XRECORD
  5
28A
102
{ACAD_REACTORS
330
275
102
}
330
275
100
AcDbXrecord
 10
0.0
 20
0.0
 30
0.0
  0
XRECORD
  5
288
102
{ACAD_REACTORS
330
275
102
}
330
275
100
AcDbXrecord
 10
0.0
 20
0.0
 30
0.0
  0
XRECORD
  5
289
102
{ACAD_REACTORS
330
275
102
}
330
275
100
AcDbXrecord
 10
0.0
 20
0.0
 30
0.0
  0
XRECORD
  5
286
102
{ACAD_REACTORS
330
275
102
}
330
275
100
AcDbXrecord
 10
0.0
 20
0.0
 30
0.0
  0
XRECORD
  5
283
102
{ACAD_REACTORS
330
275
102
}
330
275
100
AcDbXrecord
340
0
  0
XRECORD
  5
284
102
{ACAD_REACTORS
330
275
102
}
330
275
100
AcDbXrecord
 70
     0
  0
XRECORD
  5
279
102
{ACAD_REACTORS
330
275
102
}
330
275
100
AcDbXrecord
  1

  0
XRECORD
  5
276
102
{ACAD_REACTORS
330
275
102
}
330
275
100
AcDbXrecord
 90
        1
  0
XRECORD
  5
277
102
{ACAD_REACTORS
330
275
102
}
330
275
100
AcDbXrecord
 90
       70
  0
XRECORD
  5
28E
102
{ACAD_REACTORS
330
275
102
}
330
275
100
AcDbXrecord
340
0
  0
XRECORD
  5
294
102
{ACAD_REACTORS
330
275
102
}
330
275
100
AcDbXrecord
 10
0.0
 20
0.0
 30
0.0
  0
XRECORD
  5
290
102
{ACAD_REACTORS
330
275
102
}
330
275
100
AcDbXrecord
 10
0.0
 20
0.0
 30
0.0
  0
XRECORD
  5
293
102
{ACAD_REACTORS
330
275
102
}
330
275
100
AcDbXrecord
 10
0.0
 20
0.0
 30
0.0
  0
XRECORD
  5
291
102
{ACAD_REACTORS
330
275
102
}
330
275
100
AcDbXrecord
 10
0.0
 20
0.0
 30
0.0
  0
XRECORD
  5
292
102
{ACAD_REACTORS
330
275
102
}
330
275
100
AcDbXrecord
 10
0.0
 20
0.0
 30
0.0
  0
XRECORD
  5
28F
102
{ACAD_REACTORS
330
275
102
}
330
275
100
AcDbXrecord
 10
0.0
 20
0.0
 30
0.0
  0
XRECORD
  5
28C
102
{ACAD_REACTORS
330
275
102
}
330
275
100
AcDbXrecord
340
0
  0
XRECORD
  5
28D
102
{ACAD_REACTORS
330
275
102
}
330
275
100
AcDbXrecord
 70
     0
  0
XRECORD
  5
281
102
{ACAD_REACTORS
330
275
102
}
330
275
100
AcDbXrecord
  1
{FAEB1C32-E019-11D5-929B-00C0DF256EC4}
  0
DICTIONARYVAR
  5
98
102
{ACAD_REACTORS
330
8F
102
}
330
8F
100
DictionaryVariables
280
     0
  1
1:1
  0
DICTIONARYVAR
  5
91
102
{ACAD_REACTORS
330
8F
102
}
330
8F
100
DictionaryVariables
280
     0
  1
Standard
  0
DICTIONARYVAR
  5
90
102
{ACAD_REACTORS
330
8F
102
}
330
8F
100
DictionaryVariables
280
     0
  1
Standard
  0
DICTIONARYVAR
  5
94
102
{ACAD_REACTORS
330
8F
102
}
330
8F
100
DictionaryVariables
280
     0
  1
2
  0
DICTIONARYVAR
  5
95
102
{ACAD_REACTORS
330
8F
102
}
330
8F
100
DictionaryVariables
280
     0
  1
1
  0
DICTIONARYVAR
  5
99
102
{ACAD_REACTORS
330
8F
102
}
330
8F
100
DictionaryVariables
280
     0
  1
1
  0
DICTIONARY
  5
29A
330
45
100
AcDbDictionary
280
     1
  3
ACAD_XREC_ROUNDTRIP
360
29B
  0
DICTIONARY
  5
298
330
44
100
AcDbDictionary
280
     1
  3
ACAD_XREC_ROUNDTRIP
360
299
  0
DICTIONARY
  5
29C
330
46
100
AcDbDictionary
280
     1
  3
ACAD_XREC_ROUNDTRIP
360
29D
  0
XRECORD
  5
29B
102
{ACAD_REACTORS
330
29A
102
}
330
29A
100
AcDbXrecord
102
MATERIAL
148
0.0
149
0.0
149
0.0
 93
        0
 94
      127
282
     0
 72
     1
 77
     1
171
     1
175
     1
179
     1
273
     0
  0
XRECORD
  5
299
102
{ACAD_REACTORS
330
298
102
}
330
298
100
AcDbXrecord
102
MATERIAL
148
0.0
149
0.0
149
0.0
 93
        0
 94
      127
282
     0
 72
     1
 77
     1
171
     1
175
     1
179
     1
273
     0
  0
XRECORD
  5
29D
102
{ACAD_REACTORS
330
29C
102
}
330
29C
100
AcDbXrecord
102
MATERIAL
148
0.0
149
0.0
149
0.0
 93
        0
 94
      127
282
     0
 72
     1
 77
     1
171
     1
175
     1
179
     1
273
     0
  0
ENDSEC
  0
EOF
