  0
SECTION
  2
HEADER
  9
$ACADVER
  1
AC1014
  9
$ACADMAINTVER
 70
     9
  9
$DWGCODEPAGE
  3
ANSI_1252
  9
$INSBASE
 10
0.0
 20
0.0
 30
0.0
  9
$EXTMIN
 10
406.0976212664973
 20
2.059259938076138
 30
0.0
  9
$EXTMAX
 10
597.0732698766515
 20
594.5710809528828
 30
0.0
  9
$LIMMIN
 10
0.0
 20
0.0
  9
$LIMMAX
 10
12.0
 20
9.0
  9
$ORTHOMODE
 70
     0
  9
$REGENMODE
 70
     1
  9
$FILLMODE
 70
     1
  9
$QTEXTMODE
 70
     0
  9
$MIRRTEXT
 70
     1
  9
$DRAGMODE
 70
     2
  9
$LTSCALE
 40
1.0
  9
$OSMODE
 70
    37
  9
$ATTMODE
 70
     1
  9
$TEXTSIZE
 40
0.2
  9
$TRACEWID
 40
0.05
  9
$TEXTSTYLE
  7
STANDARD
  9
$CLAYER
  8
0
  9
$CELTYPE
  6
BYLAYER
  9
$CECOLOR
 62
   256
  9
$CELTSCALE
 40
1.0
  9
$DELOBJ
 70
     1
  9
$DISPSILH
 70
     0
  9
$DIMSCALE
 40
1.0
  9
$DIMASZ
 40
0.18
  9
$DIMEXO
 40
0.0625
  9
$DIMDLI
 40
0.38
  9
$DIMRND
 40
0.0
  9
$DIMDLE
 40
0.0
  9
$DIMEXE
 40
0.18
  9
$DIMTP
 40
0.0
  9
$DIMTM
 40
0.0
  9
$DIMTXT
 40
0.18
  9
$DIMCEN
 40
0.09
  9
$DIMTSZ
 40
0.0
  9
$DIMTOL
 70
     0
  9
$DIMLIM
 70
     0
  9
$DIMTIH
 70
     1
  9
$DIMTOH
 70
     1
  9
$DIMSE1
 70
     0
  9
$DIMSE2
 70
     0
  9
$DIMTAD
 70
     0
  9
$DIMZIN
 70
     0
  9
$DIMBLK
  1

  9
$DIMASO
 70
     1
  9
$DIMSHO
 70
     1
  9
$DIMPOST
  1

  9
$DIMAPOST
  1

  9
$DIMALT
 70
     0
  9
$DIMALTD
 70
     2
  9
$DIMALTF
 40
25.4
  9
$DIMLFAC
 40
1.0
  9
$DIMTOFL
 70
     0
  9
$DIMTVP
 40
0.0
  9
$DIMTIX
 70
     0
  9
$DIMSOXD
 70
     0
  9
$DIMSAH
 70
     0
  9
$DIMBLK1
  1

  9
$DIMBLK2
  1

  9
$DIMSTYLE
  2
STANDARD
  9
$DIMCLRD
 70
     0
  9
$DIMCLRE
 70
     0
  9
$DIMCLRT
 70
     0
  9
$DIMTFAC
 40
1.0
  9
$DIMGAP
 40
0.09
  9
$DIMJUST
 70
     0
  9
$DIMSD1
 70
     0
  9
$DIMSD2
 70
     0
  9
$DIMTOLJ
 70
     1
  9
$DIMTZIN
 70
     0
  9
$DIMALTZ
 70
     0
  9
$DIMALTTZ
 70
     0
  9
$DIMFIT
 70
     3
  9
$DIMUPT
 70
     0
  9
$DIMUNIT
 70
     2
  9
$DIMDEC
 70
     4
  9
$DIMTDEC
 70
     4
  9
$DIMALTU
 70
     2
  9
$DIMALTTD
 70
     2
  9
$DIMTXSTY
  7
STANDARD
  9
$DIMAUNIT
 70
     0
  9
$LUNITS
 70
     2
  9
$LUPREC
 70
     4
  9
$SKETCHINC
 40
0.1
  9
$FILLETRAD
 40
0.5
  9
$AUNITS
 70
     0
  9
$AUPREC
 70
     0
  9
$MENU
  1
.
  9
$ELEVATION
 40
0.0
  9
$PELEVATION
 40
0.0
  9
$THICKNESS
 40
0.0
  9
$LIMCHECK
 70
     0
  9
$CHAMFERA
 40
0.0
  9
$CHAMFERB
 40
0.0
  9
$CHAMFERC
 40
0.0
  9
$CHAMFERD
 40
0.0
  9
$SKPOLY
 70
     0
  9
$TDCREATE
 40
2458589.578562917
  9
$TDUPDATE
 40
2458589.578563461
  9
$TDINDWG
 40
0.0000000116
  9
$TDUSRTIMER
 40
0.0000000116
  9
$USRTIMER
 70
     1
  9
$ANGBASE
 50
0.0
  9
$ANGDIR
 70
     0
  9
$PDMODE
 70
     0
  9
$PDSIZE
 40
0.0
  9
$PLINEWID
 40
0.0
  9
$COORDS
 70
     1
  9
$SPLFRAME
 70
     0
  9
$SPLINETYPE
 70
     6
  9
$SPLINESEGS
 70
     8
  9
$ATTDIA
 70
     0
  9
$ATTREQ
 70
     1
  9
$HANDLING
 70
     1
  9
$HANDSEED
  5
158
  9
$SURFTAB1
 70
     6
  9
$SURFTAB2
 70
     6
  9
$SURFTYPE
 70
     6
  9
$SURFU
 70
     6
  9
$SURFV
 70
     6
  9
$UCSNAME
  2

  9
$UCSORG
 10
0.0
 20
0.0
 30
0.0
  9
$UCSXDIR
 10
1.0
 20
0.0
 30
0.0
  9
$UCSYDIR
 10
0.0
 20
1.0
 30
0.0
  9
$PUCSNAME
  2

  9
$PUCSORG
 10
0.0
 20
0.0
 30
0.0
  9
$PUCSXDIR
 10
1.0
 20
0.0
 30
0.0
  9
$PUCSYDIR
 10
0.0
 20
1.0
 30
0.0
  9
$USERI1
 70
     0
  9
$USERI2
 70
     0
  9
$USERI3
 70
     0
  9
$USERI4
 70
     0
  9
$USERI5
 70
     0
  9
$USERR1
 40
0.0
  9
$USERR2
 40
0.0
  9
$USERR3
 40
0.0
  9
$USERR4
 40
0.0
  9
$USERR5
 40
0.0
  9
$WORLDVIEW
 70
     1
  9
$SHADEDGE
 70
     3
  9
$SHADEDIF
 70
    70
  9
$TILEMODE
 70
     1
  9
$MAXACTVP
 70
    64
  9
$PINSBASE
 10
0.0
 20
0.0
 30
0.0
  9
$PLIMCHECK
 70
     0
  9
$PEXTMIN
 10
1.000000000000000E+20
 20
1.000000000000000E+20
 30
1.000000000000000E+20
  9
$PEXTMAX
 10
-1.000000000000000E+20
 20
-1.000000000000000E+20
 30
-1.000000000000000E+20
  9
$PLIMMIN
 10
0.0
 20
0.0
  9
$PLIMMAX
 10
12.0
 20
9.0
  9
$UNITMODE
 70
     0
  9
$VISRETAIN
 70
     1
  9
$PLINEGEN
 70
     0
  9
$PSLTSCALE
 70
     1
  9
$TREEDEPTH
 70
  3020
  9
$PICKSTYLE
 70
     1
  9
$CMLSTYLE
  2
STANDARD
  9
$CMLJUST
 70
     0
  9
$CMLSCALE
 40
1.0
  9
$PROXYGRAPHICS
 70
     1
  9
$MEASUREMENT
 70
     0
  0
ENDSEC
  0
SECTION
  2
CLASSES
  0
CLASS
  1
ACDBDICTIONARYWDFLT
  2
AcDbDictionaryWithDefault
  3
ObjectDBX Classes
 90
        0
280
     0
281
     0
  0
CLASS
  1
VISUALSTYLE
  2
AcDbVisualStyle
  3
ObjectDBX Classes
 90
     4095
280
     0
281
     0
  0
CLASS
  1
MATERIAL
  2
AcDbMaterial
  3
ObjectDBX Classes
 90
     1153
280
     0
281
     0
  0
CLASS
  1
SCALE
  2
AcDbScale
  3
ObjectDBX Classes
 90
     1153
280
     0
281
     0
  0
CLASS
  1
TABLESTYLE
  2
AcDbTableStyle
  3
ObjectDBX Classes
 90
     4095
280
     0
281
     0
  0
CLASS
  1
MLEADERSTYLE
  2
AcDbMLeaderStyle
  3
ACDB_MLEADERSTYLE_CLASS
 90
     4095
280
     0
281
     0
  0
CLASS
  1
SUN
  2
AcDbSun
  3
SCENEOE
 90
     1153
280
     0
281
     0
  0
CLASS
  1
DICTIONARYVAR
  2
AcDbDictionaryVar
  3
ObjectDBX Classes
 90
        0
280
     0
281
     0
  0
CLASS
  1
XRECORD
  2
AcDbXrecord
  3
ObjectDBX Classes
 90
        0
280
     0
281
     0
  0
CLASS
  1
LWPOLYLINE
  2
AcDbPolyline
  3
ObjectDBX Classes
 90
        0
280
     0
281
     1
  0
CLASS
  1
HATCH
  2
AcDbHatch
  3
ObjectDBX Classes
 90
        0
280
     0
281
     1
  0
CLASS
  1
ACDBPLACEHOLDER
  2
AcDbPlaceHolder
  3
ObjectDBX Classes
 90
        0
280
     0
281
     0
  0
CLASS
  1
LAYOUT
  2
AcDbLayout
  3
ObjectDBX Classes
 90
        0
280
     0
281
     0
  0
ENDSEC
  0
SECTION
  2
TABLES
  0
TABLE
  2
VPORT
  5
8
102
{ACAD_XDICTIONARY
360
14F
102
}
330
0
100
AcDbSymbolTable
 70
     1
  0
VPORT
  5
29
330
8
100
AcDbSymbolTableRecord
100
AcDbViewportTableRecord
  2
*ACTIVE
 70
     0
 10
0.0
 20
0.0
 11
1.0
 21
1.0
 12
501.5854455715744
 22
298.3151704454795
 13
0.0
 23
0.0
 14
0.5
 24
0.5
 15
0.5
 25
0.5
 16
0.0
 26
0.0
 36
1.0
 17
0.0
 27
0.0
 37
0.0
 40
604.3620574351028
 41
0.3223153392670992
 42
50.0
 43
0.0
 44
0.0
 50
0.0
 51
0.0
 71
     0
 72
   100
 73
     1
 74
     3
 75
     0
 76
     0
 77
     0
 78
     0
  0
ENDTAB
  0
TABLE
  2
LTYPE
  5
5
330
0
100
AcDbSymbolTable
 70
     1
  0
LTYPE
  5
14
330
5
100
AcDbSymbolTableRecord
100
AcDbLinetypeTableRecord
  2
BYBLOCK
 70
     0
  3

 72
    65
 73
     0
 40
0.0
  0
LTYPE
  5
15
330
5
100
AcDbSymbolTableRecord
100
AcDbLinetypeTableRecord
  2
BYLAYER
 70
     0
  3

 72
    65
 73
     0
 40
0.0
  0
LTYPE
  5
16
330
5
100
AcDbSymbolTableRecord
100
AcDbLinetypeTableRecord
  2
CONTINUOUS
 70
     0
  3
Solid line
 72
    65
 73
     0
 40
0.0
  0
ENDTAB
  0
TABLE
  2
LAYER
  5
2
330
0
100
AcDbSymbolTable
 70
     2
  0
LAYER
  5
10
330
2
100
AcDbSymbolTableRecord
100
AcDbLayerTableRecord
  2
0
 70
     0
 62
     7
  6
CONTINUOUS
  0
LAYER
  5
A1
330
2
100
AcDbSymbolTableRecord
100
AcDbLayerTableRecord
  2
LIMESTONE_FSET6
 70
     0
 62
    34
  6
CONTINUOUS
  0
ENDTAB
  0
TABLE
  2
STYLE
  5
3
330
0
100
AcDbSymbolTable
 70
     1
  0
STYLE
  5
11
330
3
100
AcDbSymbolTableRecord
100
AcDbTextStyleTableRecord
  2
STANDARD
 70
     0
 40
0.0
 41
1.0
 50
0.0
 71
     0
 42
0.2
  3
txt
  4

  0
ENDTAB
  0
TABLE
  2
VIEW
  5
6
330
0
100
AcDbSymbolTable
 70
     0
  0
ENDTAB
  0
TABLE
  2
UCS
  5
7
330
0
100
AcDbSymbolTable
 70
     0
  0
ENDTAB
  0
TABLE
  2
APPID
  5
9
330
0
100
AcDbSymbolTable
 70
     2
  0
APPID
  5
12
330
9
100
AcDbSymbolTableRecord
100
AcDbRegAppTableRecord
  2
ACAD
 70
     0
  0
APPID
  5
157
330
9
100
AcDbSymbolTableRecord
100
AcDbRegAppTableRecord
  2
ACAD_MLEADERVER
 70
     0
  0
ENDTAB
  0
TABLE
  2
DIMSTYLE
  5
A
330
0
100
AcDbSymbolTable
 70
     1
  0
DIMSTYLE
105
27
330
A
100
AcDbSymbolTableRecord
100
AcDbDimStyleTableRecord
  2
STANDARD
 70
     0
  3

  4

  5

  6

  7

 40
1.0
 41
0.18
 42
0.0625
 43
0.38
 44
0.18
 45
0.0
 46
0.0
 47
0.0
 48
0.0
140
0.18
141
0.09
142
0.0
143
25.4
144
1.0
145
0.0
146
1.0
147
0.09
 71
     0
 72
     0
 73
     1
 74
     1
 75
     0
 76
     0
 77
     0
 78
     0
170
     0
171
     2
172
     0
173
     0
174
     0
175
     0
176
     0
177
     0
178
     0
270
     2
271
     4
272
     4
273
     2
274
     2
340
11
275
     0
280
     0
281
     0
282
     0
283
     1
284
     0
285
     0
286
     0
287
     3
288
     0
  0
ENDTAB
  0
TABLE
  2
BLOCK_RECORD
  5
1
330
0
100
AcDbSymbolTable
 70
     1
  0
BLOCK_RECORD
  5
1F
330
1
100
AcDbSymbolTableRecord
100
AcDbBlockTableRecord
  2
*MODEL_SPACE
  0
BLOCK_RECORD
  5
1B
330
1
100
AcDbSymbolTableRecord
100
AcDbBlockTableRecord
  2
*PAPER_SPACE
  0
ENDTAB
  0
ENDSEC
  0
SECTION
  2
BLOCKS
  0
BLOCK
  5
20
330
1F
100
AcDbEntity
  8
0
100
AcDbBlockBegin
  2
*MODEL_SPACE
 70
     0
 10
0.0
 20
0.0
 30
0.0
  3
*MODEL_SPACE
  1

  0
ENDBLK
  5
21
330
1F
100
AcDbEntity
  8
0
100
AcDbBlockEnd
  0
BLOCK
  5
1C
330
1B
100
AcDbEntity
 67
     1
  8
0
100
AcDbBlockBegin
  2
*PAPER_SPACE
 70
     0
 10
0.0
 20
0.0
 30
0.0
  3
*PAPER_SPACE
  1

  0
ENDBLK
  5
1D
330
1B
100
AcDbEntity
 67
     1
  8
0
100
AcDbBlockEnd
  0
ENDSEC
  0
SECTION
  2
ENTITIES
  0
LINE
  5
A2
330
1F
100
AcDbEntity
  8
LIMESTONE_FSET6
100
AcDbLine
 10
406.0976212664973
 20
444.9922673692927
 30
0.0
 11
407.7439630648587
 21
444.6178523171693
 31
0.0
  0
LINE
  5
A3
330
1F
100
AcDbEntity
  8
LIMESTONE_FSET6
100
AcDbLine
 10
421.2805511846673
 20
335.8502794858068
 30
0.0
 11
423.4756735825213
 21
335.1014493801631
 31
0.0
  0
LINE
  5
A4
330
1F
100
AcDbEntity
  8
LIMESTONE_FSET6
100
AcDbLine
 10
427.8659183782293
 20
87.61309949681163
 30
0.0
 11
430.4268945088843
 21
86.67706186510623
 31
0.0
  0
LINE
  5
A5
330
1F
100
AcDbEntity
  8
LIMESTONE_FSET6
100
AcDbLine
 10
432.0732363073621
 20
429.6412502056919
 30
0.0
 11
434.4512855716748
 21
429.0796276265755
 31
0.0
  0
LINE
  5
A6
330
1F
100
AcDbEntity
  8
LIMESTONE_FSET6
100
AcDbLine
 10
434.0854318386409
 20
235.6942528691143
 30
0.0
 11
435.5488467705436
 21
235.3198378160596
 31
0.0
  0
LINE
  5
A7
330
1F
100
AcDbEntity
  8
LIMESTONE_FSET6
100
AcDbLine
 10
438.4756766343489
 20
444.9922673692927
 30
0.0
 11
440.8537258986617
 21
444.2434372641146
 31
0.0
  0
LINE
  5
A8
330
1F
100
AcDbEntity
  8
LIMESTONE_FSET6
100
AcDbLine
 10
438.8415303672664
 20
500.031280127354
 30
0.0
 11
442.500067697023
 21
499.0952424951829
 31
0.0
  0
LINE
  5
A9
330
1F
100
AcDbEntity
  8
LIMESTONE_FSET6
100
AcDbLine
 10
441.4025064980378
 20
322.9329601656646
 30
0.0
 11
443.0488482963992
 21
322.7457526391372
 31
0.0
  0
LINE
  5
AA
330
1F
100
AcDbEntity
  8
LIMESTONE_FSET6
100
AcDbLine
 10
442.500067697023
 20
331.1700913263485
 30
0.0
 11
445.9756781602046
 21
330.2340536946431
 31
0.0
  0
LINE
  5
AB
330
1F
100
AcDbEntity
  8
LIMESTONE_FSET6
100
AcDbLine
 10
444.3293363618432
 20
402.8705739327706
 30
0.0
 11
446.341531893122
 21
402.3089513536543
 31
0.0
  0
LINE
  5
AC
330
1F
100
AcDbEntity
  8
LIMESTONE_FSET6
100
AcDbLine
 10
444.6951900947606
 20
218.2839529151097
 30
0.0
 11
446.341531893122
 21
217.7223303359933
 31
0.0
  0
LINE
  5
AD
330
1F
100
AcDbEntity
  8
LIMESTONE_FSET6
100
AcDbLine
 10
445.0610438277945
 20
20.0311824711971
 30
0.0
 11
450.0000692228787
 21
18.720729786437
 31
0.0
  0
LINE
  5
AE
330
1F
100
AcDbEntity
  8
LIMESTONE_FSET6
100
AcDbLine
 10
445.6098244272871
 20
207.8003314374946
 30
0.0
 11
448.7195811574347
 21
207.0515013313852
 31
0.0
  0
LINE
  5
AF
330
1F
100
AcDbEntity
  8
LIMESTONE_FSET6
100
AcDbLine
 10
445.7927512936294
 20
248.2371571371332
 30
0.0
 11
448.1708005579421
 21
247.6755345575511
 31
0.0
  0
LINE
  5
B0
330
1F
100
AcDbEntity
  8
LIMESTONE_FSET6
100
AcDbLine
 10
447.0732393590733
 20
84.24336402211338
 30
0.0
 11
449.6342154898448
 21
83.68174144253135
 31
0.0
  0
LINE
  5
B1
330
1F
100
AcDbEntity
  8
LIMESTONE_FSET6
100
AcDbLine
 10
447.0732393590733
 20
100.5304188178852
 30
0.0
 11
448.7195811574347
 21
99.96879623830318
 31
0.0
  0
LINE
  5
B2
330
1F
100
AcDbEntity
  8
LIMESTONE_FSET6
100
AcDbLine
 10
449.6342154898448
 20
456.7863415316679
 30
0.0
 11
452.0122647541575
 21
456.0375114264898
 31
0.0
  0
LINE
  5
B3
330
1F
100
AcDbEntity
  8
LIMESTONE_FSET6
100
AcDbLine
 10
452.0122647541575
 20
474.9454715917818
 30
0.0
 11
453.4756796860602
 21
474.5710565387271
 31
0.0
  0
LINE
  5
B4
330
1F
100
AcDbEntity
  8
LIMESTONE_FSET6
100
AcDbLine
 10
452.9268990865676
 20
139.4695843057707
 30
0.0
 11
454.3903140184702
 21
139.0951692531817
 31
0.0
  0
LINE
  5
B5
330
1F
100
AcDbEntity
  8
LIMESTONE_FSET6
100
AcDbLine
 10
452.9268990865676
 20
550.0156896729022
 30
0.0
 11
455.6708020837978
 21
549.4540670933202
 31
0.0
  0
LINE
  5
B6
330
1F
100
AcDbEntity
  8
LIMESTONE_FSET6
100
AcDbLine
 10
453.1098259531427
 20
225.0234238645062
 30
0.0
 11
454.9390946179628
 21
224.6490088123828
 31
0.0
  0
LINE
  5
B7
330
1F
100
AcDbEntity
  8
LIMESTONE_FSET6
100
AcDbLine
 10
454.3903140184702
 20
52.79249958880246
 30
0.0
 11
456.2195826832904
 21
52.41808453621343
 31
0.0
  0
LINE
  5
B8
330
1F
100
AcDbEntity
  8
LIMESTONE_FSET6
100
AcDbLine
 10
456.0366558168316
 20
561.2481412556954
 30
0.0
 11
459.8781200129306
 21
559.9376885714009
 31
0.0
  0
LINE
  5
B9
330
1F
100
AcDbEntity
  8
LIMESTONE_FSET6
100
AcDbLine
 10
457.1342170157004
 20
250.2964399270713
 30
0.0
 11
460.0610468795057
 21
249.5476098214276
 31
0.0
  0
LINE
  5
BA
330
1F
100
AcDbEntity
  8
LIMESTONE_FSET6
100
AcDbLine
 10
457.682997615193
 20
101.4664564495906
 30
0.0
 11
459.3293394135544
 21
100.7176263439469
 31
0.0
  0
LINE
  5
BB
330
1F
100
AcDbEntity
  8
LIMESTONE_FSET6
100
AcDbLine
 10
458.4147050811443
 20
22.65208784071729
 30
0.0
 11
460.4269006124232
 21
22.09046526160091
 31
0.0
  0
LINE
  5
BC
330
1F
100
AcDbEntity
  8
LIMESTONE_FSET6
100
AcDbLine
 10
458.4147050811443
 20
175.0390143194236
 30
0.0
 11
460.2439737460809
 21
174.2901842142455
 31
0.0
  0
LINE
  5
BD
330
1F
100
AcDbEntity
  8
LIMESTONE_FSET6
100
AcDbLine
 10
458.7805588140618
 20
354.0094095454551
 30
0.0
 11
460.2439737460809
 21
353.4477869663388
 31
0.0
  0
LINE
  5
BE
330
1F
100
AcDbEntity
  8
LIMESTONE_FSET6
100
AcDbLine
 10
459.5122662800131
 20
351.7629192289896
 30
0.0
 11
462.4390961438185
 21
351.0140891238116
 31
0.0
  0
LINE
  5
BF
330
1F
100
AcDbEntity
  8
LIMESTONE_FSET6
100
AcDbLine
 10
459.6951931465883
 20
478.5024145930074
 30
0.0
 11
461.1586080783745
 21
478.1279995404184
 31
0.0
  0
LINE
  5
C0
330
1F
100
AcDbEntity
  8
LIMESTONE_FSET6
100
AcDbLine
 10
461.3415349449497
 20
410.9204975673929
 30
0.0
 11
463.7195842092624
 21
410.1716674617492
 31
0.0
  0
LINE
  5
C1
330
1F
100
AcDbEntity
  8
LIMESTONE_FSET6
100
AcDbLine
 10
461.8903155443259
 20
449.1108329501003
 30
0.0
 11
464.2683648086386
 21
448.5492103709839
 31
0.0
  0
LINE
  5
C2
330
1F
100
AcDbEntity
  8
LIMESTONE_FSET6
100
AcDbLine
 10
469.7561708032154
 20
150.5148283629678
 30
0.0
 11
472.1342200674117
 21
149.9532057838514
 31
0.0
  0
LINE
  5
C3
330
1F
100
AcDbEntity
  8
LIMESTONE_FSET6
100
AcDbLine
 10
474.8781230647583
 20
179.5319949528202
 30
0.0
 11
477.8049529285636
 21
178.4087497945875
 31
0.0
  0
LINE
  5
C4
330
1F
100
AcDbEntity
  8
LIMESTONE_FSET6
100
AcDbLine
 10
475.6098305307096
 20
351.7629192289896
 30
0.0
 11
477.9878797950223
 21
351.2012966494076
 31
0.0
  0
LINE
  5
C5
330
1F
100
AcDbEntity
  8
LIMESTONE_FSET6
100
AcDbLine
 10
475.7927573971683
 20
72.26208233321086
 30
0.0
 11
477.9878797950223
 21
71.88766728015617
 31
0.0
  0
LINE
  5
C6
330
1F
100
AcDbEntity
  8
LIMESTONE_FSET6
100
AcDbLine
 10
481.2805633917451
 20
157.8159218919463
 30
0.0
 11
482.7439783236478
 21
157.25429931283
 31
0.0
  0
LINE
  5
C7
330
1F
100
AcDbEntity
  8
LIMESTONE_FSET6
100
AcDbLine
 10
481.4634902582038
 20
217.1607077564113
 30
0.0
 11
483.2927589230239
 21
216.7862927038223
 31
0.0
  0
LINE
  5
C8
330
1F
100
AcDbEntity
  8
LIMESTONE_FSET6
100
AcDbLine
 10
482.01227085758
 20
475.6943016969599
 30
0.0
 11
484.2073932555504
 21
474.9454715917818
 31
0.0
  0
LINE
  5
C9
330
1F
100
AcDbEntity
  8
LIMESTONE_FSET6
100
AcDbLine
 10
484.0244663889753
 20
116.0686435075477
 30
0.0
 11
485.6708081873367
 21
115.6942284549586
 31
0.0
  0
LINE
  5
CA
330
1F
100
AcDbEntity
  8
LIMESTONE_FSET6
100
AcDbLine
 10
484.2073932555504
 20
538.7832380896434
 30
0.0
 11
486.0366619203705
 21
538.221615510527
 31
0.0
  0
LINE
  5
CB
330
1F
100
AcDbEntity
  8
LIMESTONE_FSET6
100
AcDbLine
 10
484.5732469884679
 20
16.28703194344416
 30
0.0
 11
486.0366619203705
 21
15.91261689085513
 31
0.0
  0
LINE
  5
CC
330
1F
100
AcDbEntity
  8
LIMESTONE_FSET6
100
AcDbLine
 10
484.5732469884679
 20
479.8128672777675
 30
0.0
 11
486.5854425198631
 21
479.2512446981855
 31
0.0
  0
LINE
  5
CD
330
1F
100
AcDbEntity
  8
LIMESTONE_FSET6
100
AcDbLine
 10
489.8781261164695
 20
275.0078334105201
 30
0.0
 11
491.8903216478648
 21
274.4462108314037
 31
0.0
  0
LINE
  5
CE
330
1F
100
AcDbEntity
  8
LIMESTONE_FSET6
100
AcDbLine
 10
491.5244679148309
 20
460.7176995864138
 30
0.0
 11
492.98788284685
 21
460.3432845333591
 31
0.0
  0
LINE
  5
CF
330
1F
100
AcDbEntity
  8
LIMESTONE_FSET6
100
AcDbLine
 10
492.2561753808986
 20
498.5336199165322
 30
0.0
 11
494.0854440457188
 21
497.9719973369502
 31
0.0
  0
LINE
  5
D0
330
1F
100
AcDbEntity
  8
LIMESTONE_FSET6
100
AcDbLine
 10
493.9025171791436
 20
269.391607618425
 30
0.0
 11
496.6464201763738
 21
268.4555699867196
 31
0.0
  0
LINE
  5
D1
330
1F
100
AcDbEntity
  8
LIMESTONE_FSET6
100
AcDbLine
 10
494.4512977786362
 20
208.361954016611
 30
0.0
 11
495.9147127105389
 21
207.9875389635563
 31
0.0
  0
LINE
  5
D2
330
1F
100
AcDbEntity
  8
LIMESTONE_FSET6
100
AcDbLine
 10
494.6342246450949
 20
249.734817347955
 30
0.0
 11
497.7439813754754
 21
248.9859872423112
 31
0.0
  0
LINE
  5
D3
330
1F
100
AcDbEntity
  8
LIMESTONE_FSET6
100
AcDbLine
 10
497.3781276423251
 20
183.2761454805732
 30
0.0
 11
499.3903231737204
 21
182.7145229014568
 31
0.0
  0
LINE
  5
D4
330
1F
100
AcDbEntity
  8
LIMESTONE_FSET6
100
AcDbLine
 10
498.4756888413103
 20
296.723906471394
 30
0.0
 11
501.0366649720818
 21
296.162283891812
 31
0.0
  0
LINE
  5
D5
330
1F
100
AcDbEntity
  8
LIMESTONE_FSET6
100
AcDbLine
 10
498.6586157077691
 20
340.1560525931418
 30
0.0
 11
500.4878843727056
 21
339.5944300135598
 31
0.0
  0
LINE
  5
D6
330
1F
100
AcDbEntity
  8
LIMESTONE_FSET6
100
AcDbLine
 10
499.0244694406865
 20
462.2153597972356
 30
0.0
 11
500.6708112391643
 21
461.8409447446465
 31
0.0
  0
LINE
  5
D7
330
1F
100
AcDbEntity
  8
LIMESTONE_FSET6
100
AcDbLine
 10
499.5732500401791
 20
102.2152865552343
 30
0.0
 11
503.4147142363945
 21
101.2792489230633
 31
0.0
  0
LINE
  5
D8
330
1F
100
AcDbEntity
  8
LIMESTONE_FSET6
100
AcDbLine
 10
499.939103773213
 20
236.8174980268814
 30
0.0
 11
502.6830067704432
 21
236.0686679217033
 31
0.0
  0
LINE
  5
D9
330
1F
100
AcDbEntity
  8
LIMESTONE_FSET6
100
AcDbLine
 10
500.1220306396717
 20
360.0000503901392
 30
0.0
 11
502.5000799039844
 21
359.4384278105572
 31
0.0
  0
LINE
  5
DA
330
1F
100
AcDbEntity
  8
LIMESTONE_FSET6
100
AcDbLine
 10
500.4878843727056
 20
139.8439993588254
 30
0.0
 11
502.3171530375257
 21
139.282376779709
 31
0.0
  0
LINE
  5
DB
330
1F
100
AcDbEntity
  8
LIMESTONE_FSET6
100
AcDbLine
 10
500.8537381056231
 20
171.6692788447253
 30
0.0
 11
502.8659336370183
 21
171.1076562651433
 31
0.0
  0
LINE
  5
DC
330
1F
100
AcDbEntity
  8
LIMESTONE_FSET6
100
AcDbLine
 10
500.8537381056231
 20
475.6943016969599
 30
0.0
 11
503.2317873699358
 21
475.1326791178435
 31
0.0
  0
LINE
  5
DD
330
1F
100
AcDbEntity
  8
LIMESTONE_FSET6
100
AcDbLine
 10
501.2195918386569
 20
389.017216979526
 30
0.0
 11
504.1464217023458
 21
388.0811793478206
 31
0.0
  0
LINE
  5
DE
330
1F
100
AcDbEntity
  8
LIMESTONE_FSET6
100
AcDbLine
 10
502.6830067704432
 20
221.0920658106916
 30
0.0
 11
504.1464217023458
 21
220.9048582841642
 31
0.0
  0
LINE
  5
DF
330
1F
100
AcDbEntity
  8
LIMESTONE_FSET6
100
AcDbLine
 10
504.3293485688046
 20
291.2948882058263
 30
0.0
 11
505.6098366342485
 21
290.9204731532373
 31
0.0
  0
LINE
  5
E0
330
1F
100
AcDbEntity
  8
LIMESTONE_FSET6
100
AcDbLine
 10
504.6952023018384
 20
425.1482695722952
 30
0.0
 11
507.4391052990686
 21
424.3994394671172
 31
0.0
  0
LINE
  5
E1
330
1F
100
AcDbEntity
  8
LIMESTONE_FSET6
100
AcDbLine
 10
510.0000814299565
 20
383.0265761353076
 30
0.0
 11
512.9269112936454
 21
382.0905385036021
 31
0.0
  0
LINE
  5
E2
330
1F
100
AcDbEntity
  8
LIMESTONE_FSET6
100
AcDbLine
 10
511.0976426288253
 20
233.4477625521831
 30
0.0
 11
513.1098381601041
 21
232.8861399730667
 31
0.0
  0
LINE
  5
E3
330
1F
100
AcDbEntity
  8
LIMESTONE_FSET6
100
AcDbLine
 10
512.1952038276941
 20
446.3027200545184
 30
0.0
 11
515.3049605579581
 21
445.3666824223474
 31
0.0
  0
LINE
  5
E4
330
1F
100
AcDbEntity
  8
LIMESTONE_FSET6
100
AcDbLine
 10
513.2927650265628
 20
525.8659187690355
 30
0.0
 11
514.7561799585819
 21
525.4915037159808
 31
0.0
  0
LINE
  5
E5
330
1F
100
AcDbEntity
  8
LIMESTONE_FSET6
100
AcDbLine
 10
516.036668023793
 20
243.3697614506818
 30
0.0
 11
518.4147172881057
 21
242.8081388720311
 31
0.0
  0
LINE
  5
E6
330
1F
100
AcDbEntity
  8
LIMESTONE_FSET6
100
AcDbLine
 10
516.7683754897444
 20
212.4805195969529
 30
0.0
 11
518.2317904217634
 21
211.9188970178366
 31
0.0
  0
LINE
  5
E7
330
1F
100
AcDbEntity
  8
LIMESTONE_FSET6
100
AcDbLine
 10
516.9513023563195
 20
21.71605020854622
 30
0.0
 11
518.5976441546809
 21
21.15442762942985
 31
0.0
  0
LINE
  5
E8
330
1F
100
AcDbEntity
  8
LIMESTONE_FSET6
100
AcDbLine
 10
517.1342292227782
 20
226.3338765497319
 30
0.0
 11
518.7805710211396
 21
225.9594614966772
 31
0.0
  0
LINE
  5
E9
330
1F
100
AcDbEntity
  8
LIMESTONE_FSET6
100
AcDbLine
 10
519.5122784869745
 20
248.7987797157839
 30
0.0
 11
521.3415471519111
 21
248.0499496106058
 31
0.0
  0
LINE
  5
EA
330
1F
100
AcDbEntity
  8
LIMESTONE_FSET6
100
AcDbLine
 10
519.6952053535497
 20
2.246467464603484
 30
0.0
 11
521.1586202854523
 21
2.059259938076138
 31
0.0
  0
LINE
  5
EB
330
1F
100
AcDbEntity
  8
LIMESTONE_FSET6
100
AcDbLine
 10
520.6098396860762
 20
434.5086458921432
 30
0.0
 11
522.9878889503889
 21
433.7598157864995
 31
0.0
  0
LINE
  5
EC
330
1F
100
AcDbEntity
  8
LIMESTONE_FSET6
100
AcDbLine
 10
520.9756934189936
 20
404.5554416701198
 30
0.0
 11
523.3537426833063
 21
403.9938190910034
 31
0.0
  0
LINE
  5
ED
330
1F
100
AcDbEntity
  8
LIMESTONE_FSET6
100
AcDbLine
 10
521.707400884945
 20
44.18095337506384
 30
0.0
 11
522.9878889503889
 21
43.61933079594746
 31
0.0
  0
LINE
  5
EE
330
1F
100
AcDbEntity
  8
LIMESTONE_FSET6
100
AcDbLine
 10
523.1708158167312
 20
65.89702643593773
 30
0.0
 11
524.6342307486339
 21
65.5226113833487
 31
0.0
  0
LINE
  5
EF
330
1F
100
AcDbEntity
  8
LIMESTONE_FSET6
100
AcDbLine
 10
523.5366695497651
 20
224.0873862332664
 30
0.0
 11
525.9147188140778
 21
223.3385561271571
 31
0.0
  0
LINE
  5
F0
330
1F
100
AcDbEntity
  8
LIMESTONE_FSET6
100
AcDbLine
 10
525.1830113481265
 20
411.6693276725709
 30
0.0
 11
527.378133745864
 21
411.1077050934546
 31
0.0
  0
LINE
  5
F1
330
1F
100
AcDbEntity
  8
LIMESTONE_FSET6
100
AcDbLine
 10
525.1830113481265
 20
537.0983703518286
 30
0.0
 11
528.4756949448492
 21
536.1623327201232
 31
0.0
  0
LINE
  5
F2
330
1F
100
AcDbEntity
  8
LIMESTONE_FSET6
100
AcDbLine
 10
527.378133745864
 20
369.1732191825286
 30
0.0
 11
529.3903292772593
 21
368.7988041299395
 31
0.0
  0
LINE
  5
F3
330
1F
100
AcDbEntity
  8
LIMESTONE_FSET6
100
AcDbLine
 10
528.1098412119318
 20
544.9610864599235
 30
0.0
 11
532.1342322744895
 21
543.8378413021564
 31
0.0
  0
LINE
  5
F4
330
1F
100
AcDbEntity
  8
LIMESTONE_FSET6
100
AcDbLine
 10
528.658621811308
 20
345.0234482786618
 30
0.0
 11
530.1220367430942
 21
344.4618257000111
 31
0.0
  0
LINE
  5
F5
330
1F
100
AcDbEntity
  8
LIMESTONE_FSET6
100
AcDbLine
 10
528.658621811308
 20
452.6677759517916
 30
0.0
 11
530.6708173425868
 21
451.9189458461478
 31
0.0
  0
LINE
  5
F6
330
1F
100
AcDbEntity
  8
LIMESTONE_FSET6
100
AcDbLine
 10
529.9391098767519
 20
594.5710809528828
 30
0.0
 11
531.768378541572
 21
594.0094583737664
 31
0.0
  0
LINE
  5
F7
330
1F
100
AcDbEntity
  8
LIMESTONE_FSET6
100
AcDbLine
 10
530.3049636096694
 20
327.4259407985955
 30
0.0
 11
533.5976472063921
 21
326.4899031668901
 31
0.0
  0
LINE
  5
F8
330
1F
100
AcDbEntity
  8
LIMESTONE_FSET6
100
AcDbLine
 10
532.1342322744895
 20
406.4275169339962
 30
0.0
 11
533.5976472063921
 21
406.0531018814072
 31
0.0
  0
LINE
  5
F9
330
1F
100
AcDbEntity
  8
LIMESTONE_FSET6
100
AcDbLine
 10
532.3171591410646
 20
263.0265517211519
 30
0.0
 11
535.0610621382948
 21
262.0905140894465
 31
0.0
  0
LINE
  5
FA
330
1F
100
AcDbEntity
  8
LIMESTONE_FSET6
100
AcDbLine
 10
536.1586233371636
 20
413.1669878838584
 30
0.0
 11
538.3537457350176
 21
412.230950252153
 31
0.0
  0
LINE
  5
FB
330
1F
100
AcDbEntity
  8
LIMESTONE_FSET6
100
AcDbLine
 10
536.7074039366562
 20
132.3556983033195
 30
0.0
 11
540.7317949993303
 21
131.4196606711484
 31
0.0
  0
LINE
  5
FC
330
1F
100
AcDbEntity
  8
LIMESTONE_FSET6
100
AcDbLine
 10
536.7074039366562
 20
507.5195811828598
 30
0.0
 11
538.1708188685589
 21
507.1451661298051
 31
0.0
  0
LINE
  5
FD
330
1F
100
AcDbEntity
  8
LIMESTONE_FSET6
100
AcDbLine
 10
537.4391114026075
 20
70.76442212238908
 30
0.0
 11
539.2683800674276
 21
70.20279954280704
 31
0.0
  0
LINE
  5
FE
330
1F
100
AcDbEntity
  8
LIMESTONE_FSET6
100
AcDbLine
 10
538.9025263343938
 20
289.2356054154225
 30
0.0
 11
540.7317949993303
 21
288.6739828367718
 31
0.0
  0
LINE
  5
FF
330
1F
100
AcDbEntity
  8
LIMESTONE_FSET6
100
AcDbLine
 10
538.9025263343938
 20
301.7785096834414
 30
0.0
 11
540.914721865789
 21
301.4040946308523
 31
0.0
  0
LINE
  5
100
330
1F
100
AcDbEntity
  8
LIMESTONE_FSET6
100
AcDbLine
 10
540.5488681328716
 20
275.1950409365818
 30
0.0
 11
542.0122830646578
 21
275.0078334105201
 31
0.0
  0
LINE
  5
101
330
1F
100
AcDbEntity
  8
LIMESTONE_FSET6
100
AcDbLine
 10
541.0976487323642
 20
508.8300338671543
 30
0.0
 11
545.3049666613806
 21
507.7067887093872
 31
0.0
  0
LINE
  5
102
330
1F
100
AcDbEntity
  8
LIMESTONE_FSET6
100
AcDbLine
 10
542.0122830646578
 20
256.2870807717554
 30
0.0
 11
544.5732591955457
 21
255.5382506661117
 31
0.0
  0
LINE
  5
103
330
1F
100
AcDbEntity
  8
LIMESTONE_FSET6
100
AcDbLine
 10
542.195209931233
 20
591.2013454777189
 30
0.0
 11
544.0244785960531
 21
590.8269304251298
 31
0.0
  0
LINE
  5
104
330
1F
100
AcDbEntity
  8
LIMESTONE_FSET6
100
AcDbLine
 10
545.8537472608732
 20
236.2558754482307
 30
0.0
 11
548.4147233916447
 21
235.5070453425869
 31
0.0
  0
LINE
  5
105
330
1F
100
AcDbEntity
  8
LIMESTONE_FSET6
100
AcDbLine
 10
546.9513084598584
 20
383.7754062409513
 30
0.0
 11
548.7805771246785
 21
383.2137836618349
 31
0.0
  0
LINE
  5
106
330
1F
100
AcDbEntity
  8
LIMESTONE_FSET6
100
AcDbLine
 10
548.4147233916447
 20
252.1685151909478
 30
0.0
 11
549.8781383235473
 21
251.9813076648861
 31
0.0
  0
LINE
  5
107
330
1F
100
AcDbEntity
  8
LIMESTONE_FSET6
100
AcDbLine
 10
550.061065190006
 20
439.5632491041906
 30
0.0
 11
551.8903338548262
 21
439.0016265255399
 31
0.0
  0
LINE
  5
108
330
1F
100
AcDbEntity
  8
LIMESTONE_FSET6
100
AcDbLine
 10
551.7074069884839
 20
5.428995412774384
 30
0.0
 11
553.9025293862214
 21
4.680165307596326
 31
0.0
  0
LINE
  5
109
330
1F
100
AcDbEntity
  8
LIMESTONE_FSET6
100
AcDbLine
 10
552.6220413207775
 20
547.9564068824984
 30
0.0
 11
554.6342368521728
 21
547.2075767768547
 31
0.0
  0
LINE
  5
10A
330
1F
100
AcDbEntity
  8
LIMESTONE_FSET6
100
AcDbLine
 10
553.1708219202701
 20
486.5523382276297
 30
0.0
 11
555.9147249175003
 21
485.9907156485133
 31
0.0
  0
LINE
  5
10B
330
1F
100
AcDbEntity
  8
LIMESTONE_FSET6
100
AcDbLine
 10
553.9025293862214
 20
92.48049518326297
 30
0.0
 11
556.2805786505342
 21
91.54445755109191
 31
0.0
  0
LINE
  5
10C
330
1F
100
AcDbEntity
  8
LIMESTONE_FSET6
100
AcDbLine
 10
556.8293592500268
 20
80.49921349436045
 30
0.0
 11
558.6586279148469
 21
79.93759091524407
 31
0.0
  0
LINE
  5
10D
330
1F
100
AcDbEntity
  8
LIMESTONE_FSET6
100
AcDbLine
 10
557.3781398494029
 20
83.49453391646966
 30
0.0
 11
559.3903353806818
 21
82.93291133735329
 31
0.0
  0
LINE
  5
10E
330
1F
100
AcDbEntity
  8
LIMESTONE_FSET6
100
AcDbLine
 10
560.1220428466331
 20
319.3760171639733
 30
0.0
 11
561.5854577786522
 21
319.0016021113843
 31
0.0
  0
LINE
  5
10F
330
1F
100
AcDbEntity
  8
LIMESTONE_FSET6
100
AcDbLine
 10
560.3049697132083
 20
533.7286348771304
 30
0.0
 11
563.0488727104384
 21
532.9798047714867
 31
0.0
  0
LINE
  5
110
330
1F
100
AcDbEntity
  8
LIMESTONE_FSET6
100
AcDbLine
 10
562.5000921110623
 20
286.9891150994226
 30
0.0
 11
565.0610682418337
 21
286.2402849937789
 31
0.0
  0
LINE
  5
111
330
1F
100
AcDbEntity
  8
LIMESTONE_FSET6
100
AcDbLine
 10
563.7805801763898
 20
547.2075767768547
 30
0.0
 11
566.7074100401951
 21
546.4587466716766
 31
0.0
  0
LINE
  5
112
330
1F
100
AcDbEntity
  8
LIMESTONE_FSET6
100
AcDbLine
 10
565.4269219747512
 20
90.23400486633182
 30
0.0
 11
567.6220443724887
 21
89.4851747606881
 31
0.0
  0
LINE
  5
113
330
1F
100
AcDbEntity
  8
LIMESTONE_FSET6
100
AcDbLine
 10
566.8903369066538
 20
228.2059518136084
 30
0.0
 11
568.9025324379327
 21
227.644329234492
 31
0.0
  0
LINE
  5
114
330
1F
100
AcDbEntity
  8
LIMESTONE_FSET6
100
AcDbLine
 10
567.6220443724887
 20
20.78001257637516
 30
0.0
 11
570.3659473699518
 21
19.84397494466975
 31
0.0
  0
LINE
  5
115
330
1F
100
AcDbEntity
  8
LIMESTONE_FSET6
100
AcDbLine
 10
570.7318011028692
 20
388.0811793478206
 30
0.0
 11
572.3781429011142
 21
387.7067642952316
 31
0.0
  0
LINE
  5
116
330
1F
100
AcDbEntity
  8
LIMESTONE_FSET6
100
AcDbLine
 10
572.1952160347719
 20
343.52578806784
 30
0.0
 11
575.3049727649195
 21
342.9641654891893
 31
0.0
  0
LINE
  5
117
330
1F
100
AcDbEntity
  8
LIMESTONE_FSET6
100
AcDbLine
 10
572.3781429011142
 20
88.5491371289827
 30
0.0
 11
575.4878996314947
 21
87.61309949681163
 31
0.0
  0
LINE
  5
118
330
1F
100
AcDbEntity
  8
LIMESTONE_FSET6
100
AcDbLine
 10
572.5610697676893
 20
370.296464341227
 30
0.0
 11
574.2074115660507
 21
369.9220492886379
 31
0.0
  0
LINE
  5
119
330
1F
100
AcDbEntity
  8
LIMESTONE_FSET6
100
AcDbLine
 10
573.1098503671819
 20
168.1123358434997
 30
0.0
 11
575.4878996314947
 21
167.3635057373904
 31
0.0
  0
LINE
  5
11A
330
1F
100
AcDbEntity
  8
LIMESTONE_FSET6
100
AcDbLine
 10
574.2074115660507
 20
309.8284333180636
 30
0.0
 11
575.4878996314947
 21
309.4540182654746
 31
0.0
  0
LINE
  5
11B
330
1F
100
AcDbEntity
  8
LIMESTONE_FSET6
100
AcDbLine
 10
574.939119032002
 20
452.6677759517916
 30
0.0
 11
580.061071293545
 21
451.1701157400385
 31
0.0
  0
LINE
  5
11C
330
1F
100
AcDbEntity
  8
LIMESTONE_FSET6
100
AcDbLine
 10
579.5122906940524
 20
398.377593299374
 30
0.0
 11
581.1586324924137
 21
397.8159707202576
 31
0.0
  0
LINE
  5
11D
330
1F
100
AcDbEntity
  8
LIMESTONE_FSET6
100
AcDbLine
 10
580.6098518930376
 20
253.1045528226532
 30
0.0
 11
582.256193691399
 21
252.5429302440025
 31
0.0
  0
LINE
  5
11E
330
1F
100
AcDbEntity
  8
LIMESTONE_FSET6
100
AcDbLine
 10
581.1586324924137
 20
322.9329601656646
 30
0.0
 11
584.4513160892529
 21
321.9969225334935
 31
0.0
  0
LINE
  5
11F
330
1F
100
AcDbEntity
  8
LIMESTONE_FSET6
100
AcDbLine
 10
581.8903399583651
 20
532.9798047714867
 30
0.0
 11
584.0854623562191
 21
532.4181821923703
 31
0.0
  0
LINE
  5
120
330
1F
100
AcDbEntity
  8
LIMESTONE_FSET6
100
AcDbLine
 10
583.5366817567265
 20
449.2980404766276
 30
0.0
 11
585.1830235550879
 21
448.923625423573
 31
0.0
  0
LINE
  5
121
330
1F
100
AcDbEntity
  8
LIMESTONE_FSET6
100
AcDbLine
 10
585.1830235550879
 20
55.2261974317953
 30
0.0
 11
587.5610728194006
 21
54.47736732661724
 31
0.0
  0
LINE
  5
122
330
1F
100
AcDbEntity
  8
LIMESTONE_FSET6
100
AcDbLine
 10
586.0976578876143
 20
140.4056219379418
 30
0.0
 11
587.5610728194006
 21
140.0312068853527
 31
0.0
  0
LINE
  5
123
330
1F
100
AcDbEntity
  8
LIMESTONE_FSET6
100
AcDbLine
 10
586.6464384869905
 20
331.9189214319922
 30
0.0
 11
588.475707151927
 21
331.3572988524102
 31
0.0
  0
LINE
  5
124
330
1F
100
AcDbEntity
  8
LIMESTONE_FSET6
100
AcDbLine
 10
588.475707151927
 20
105.0233994508162
 30
0.0
 11
591.2196101491572
 21
104.0873618191108
 31
0.0
  0
LINE
  5
125
330
1F
100
AcDbEntity
  8
LIMESTONE_FSET6
100
AcDbLine
 10
588.8415608848445
 20
342.9641654891893
 30
0.0
 11
590.6708295496646
 21
342.5897504361346
 31
0.0
  0
LINE
  5
126
330
1F
100
AcDbEntity
  8
LIMESTONE_FSET6
100
AcDbLine
 10
589.5732683507958
 20
500.4056951804087
 30
0.0
 11
593.9635131463874
 21
499.0952424951829
 31
0.0
  0
LINE
  5
127
330
1F
100
AcDbEntity
  8
LIMESTONE_FSET6
100
AcDbLine
 10
593.7805862799287
 20
380.7800858188421
 30
0.0
 11
595.9757086777827
 21
380.0312557131983
 31
0.0
  0
LINE
  5
128
330
1F
100
AcDbEntity
  8
LIMESTONE_FSET6
100
AcDbLine
 10
594.1464400128461
 20
10.10918357269838
 30
0.0
 11
597.0732698766515
 21
9.17314594052732
 31
0.0
  0
LINE
  5
129
330
1F
100
AcDbEntity
  8
LIMESTONE_FSET6
100
AcDbLine
 10
594.1464400128461
 20
529.9844843493775
 30
0.0
 11
595.9757086777827
 21
529.2356542437337
 31
0.0
  0
LINE
  5
12A
330
1F
100
AcDbEntity
  8
LIMESTONE_FSET6
100
AcDbLine
 10
594.8781474787975
 20
446.6771351071075
 30
0.0
 11
596.1586355442414
 21
446.1155125279911
 31
0.0
  0
LINE
  5
12B
330
1F
100
AcDbEntity
  8
LIMESTONE_FSET6
100
AcDbLine
 10
595.0610743453726
 20
67.7691016998142
 30
0.0
 11
597.0732698766515
 21
67.02027159417048
 31
0.0
  0
LINE
  5
12C
330
1F
100
AcDbEntity
  8
LIMESTONE_FSET6
100
AcDbLine
 10
595.0610743453726
 20
586.5211573182605
 30
0.0
 11
596.8903430100763
 21
586.1467422656715
 31
0.0
  0
ENDSEC
  0
SECTION
  2
OBJECTS
  0
DICTIONARY
  5
C
330
0
100
AcDbDictionary
  3
ACAD_GROUP
350
D
  3
ACAD_LAYOUT
350
1A
  3
ACAD_MATERIAL
350
43
  3
ACAD_MLEADERSTYLE
350
6B
  3
ACAD_MLINESTYLE
350
17
  3
ACAD_PLOTSETTINGS
350
19
  3
ACAD_SCALELIST
350
47
  3
ACAD_VISUALSTYLE
350
2A
  3
ACDBHEADERROUNDTRIPXREC
350
12E
  3
ACDBVARIABLEDICTIONARY
350
8F
  3
ESRI_PRJ
350
12D
  0
DICTIONARY
  5
14F
330
8
100
AcDbDictionary
280
     1
  3
ACAD_XREC_ROUNDTRIP
360
150
  0
DICTIONARY
  5
D
102
{ACAD_REACTORS
330
C
102
}
330
C
100
AcDbDictionary
  0
DICTIONARY
  5
1A
102
{ACAD_REACTORS
330
C
102
}
330
C
100
AcDbDictionary
  0
DICTIONARY
  5
43
102
{ACAD_REACTORS
330
C
102
}
330
C
100
AcDbDictionary
  3
BYBLOCK
350
45
  3
BYLAYER
350
44
  3
GLOBAL
350
46
  0
DICTIONARY
  5
6B
102
{ACAD_REACTORS
330
C
102
}
330
C
100
AcDbDictionary
  3
STANDARD
350
6C
  0
DICTIONARY
  5
17
102
{ACAD_REACTORS
330
C
102
}
330
C
100
AcDbDictionary
  3
STANDARD
350
18
  0
DICTIONARY
  5
19
102
{ACAD_REACTORS
330
C
102
}
330
C
100
AcDbDictionary
  0
DICTIONARY
  5
47
102
{ACAD_REACTORS
330
C
102
}
330
C
100
AcDbDictionary
  3
A0
350
48
  3
A1
350
49
  3
A2
350
4A
  3
A3
350
4B
  3
A4
350
4C
  3
A5
350
4D
  3
A6
350
4E
  3
A7
350
4F
  3
A8
350
50
  3
A9
350
51
  3
B0
350
52
  3
B1
350
53
  3
B2
350
54
  3
B3
350
55
  3
B4
350
56
  3
B5
350
57
  3
B6
350
58
  3
B7
350
59
  3
B8
350
5A
  3
B9
350
5B
  3
C0
350
5C
  3
C1
350
5D
  3
C2
350
5E
  3
C3
350
5F
  3
C4
350
60
  3
C5
350
61
  3
C6
350
62
  3
C7
350
63
  3
C8
350
64
  3
C9
350
65
  3
D0
350
66
  3
D1
350
67
  3
D2
350
68
  0
DICTIONARY
  5
2A
102
{ACAD_REACTORS
330
C
102
}
330
C
100
AcDbDictionary
  3
2DWIREFRAME
350
2F
  3
BASIC
350
32
  3
BRIGHTEN
350
36
  3
COLORCHANGE
350
3A
  3
CONCEPTUAL
350
34
  3
DIM
350
35
  3
EDGECOLOROFF
350
3D
  3
FACEPATTERN
350
39
  3
FLAT
350
2B
  3
FLATWITHEDGES
350
2C
  3
GOURAUD
350
2D
  3
GOURAUDWITHEDGES
350
2E
  3
HIDDEN
350
31
  3
JITTEROFF
350
3B
  3
LINEPATTERN
350
38
  3
OVERHANGOFF
350
3C
  3
REALISTIC
350
33
  3
SHADED
350
42
  3
SHADED_WITH_EDGES
350
41
  3
SHADES_OF_GRAY
350
3E
  3
SKETCHY
350
3F
  3
THICKEN
350
37
  3
WIREFRAME
350
30
  3
X-RAY
350
40
  0
DICTIONARY
  5
12E
102
{ACAD_REACTORS
330
C
102
}
330
C
100
AcDbDictionary
  3
CEPSNID
350
138
  3
CEPSNTYPE
350
137
  3
DIMSTYLEDATA
350
14E
  3
FINGERPRINTGUID
350
139
  3
HYPERLINKBASE
350
131
  3
INSUNITS
350
136
  3
LAYOUTDICT
350
133
  3
LWETCUNION
350
135
  3
PLOTSETDICT
350
134
  3
PSVPSCALE
350
13B
  3
PUCSBASE
350
13E
  3
PUCSORGBACK
350
144
  3
PUCSORGBOTTOM
350
140
  3
PUCSORGFRONT
350
143
  3
PUCSORGLEFT
350
141
  3
PUCSORGRIGHT
350
142
  3
PUCSORGTOP
350
13F
  3
PUCSORTHOREF
350
13C
  3
PUCSORTHOVIEW
350
13D
  3
STYLESHEET
350
132
  3
TSTACKALIGN
350
12F
  3
TSTACKSIZE
350
130
  3
UCSBASE
350
147
  3
UCSORGBACK
350
14D
  3
UCSORGBOTTOM
350
149
  3
UCSORGFRONT
350
14C
  3
UCSORGLEFT
350
14A
  3
UCSORGRIGHT
350
14B
  3
UCSORGTOP
350
148
  3
UCSORTHOREF
350
145
  3
UCSORTHOVIEW
350
146
  3
VERSIONGUID
350
13A
  0
DICTIONARY
  5
8F
102
{ACAD_REACTORS
330
C
102
}
330
C
100
AcDbDictionary
  3
CANNOSCALE
350
98
  3
CMLEADERSTYLE
350
91
  3
CTABLESTYLE
350
90
  3
DIMASSOC
350
94
  3
HIDETEXT
350
95
  3
MSLTSCALE
350
99
  0
XRECORD
  5
12D
102
{ACAD_REACTORS
330
C
102
}
330
C
100
AcDbXrecord
  1
PROJCS["WGS_1984_UTM_Zone_14N",GEOGCS["GCS_WGS_1984",DATUM["D_WGS_1984",SPHEROID["WGS_1984",6378137.0,298.257223563]],PRIMEM["Greenwich",0.0],UNIT["Degree",0.0174532925199433]],PROJECTION["Transverse_Mercator"],PARAMETER["False_Easting",500000.0],PARAMETER["False_Northing",0.0],PARAMETER["Central_Meridian",-99.0],PARAMETER["Scale_Factor",0.9996],PARAMETER["Latitude_Of_Origin",0.0],UNIT["Meter",1.0]]
  0
XRECORD
  5
150
102
{ACAD_REACTORS
330
14F
102
}
330
14F
100
AcDbXrecord
102
VTR_0.000_0.000_1.000_1.000_VISUALSTYLE
340
2F
102
VTR_0.000_0.000_1.000_1.000_GRIDDISPLAY
 70
     3
102
VTR_0.000_0.000_1.000_1.000_GRIDMAJOR
 70
     5
102
VTR_0.000_0.000_1.000_1.000_DEFAULTLIGHTING
280
     1
102
VTR_0.000_0.000_1.000_1.000_DEFAULTLIGHTINGTYPE
 70
     1
102
VTR_0.000_0.000_1.000_1.000_BRIGHTNESS
141
0.0
102
VTR_0.000_0.000_1.000_1.000_CONTRAST
142
0.0
  0
MATERIAL
  5
45
102
{ACAD_REACTORS
330
43
102
}
102
{ACAD_XDICTIONARY
360
153
102
}
330
43
100
AcDbMaterial
  1
BYBLOCK
  0
MATERIAL
  5
44
102
{ACAD_REACTORS
330
43
102
}
102
{ACAD_XDICTIONARY
360
151
102
}
330
43
100
AcDbMaterial
  1
BYLAYER
  0
MATERIAL
  5
46
102
{ACAD_REACTORS
330
43
102
}
102
{ACAD_XDICTIONARY
360
155
102
}
330
43
100
AcDbMaterial
  1
GLOBAL
  0
ACAD_PROXY_OBJECT
  5
6C
102
{ACAD_REACTORS
330
6B
102
}
330
6B
100
AcDbProxyObject
 90
      499
 91
      505
 93
      610
310
40901902A4063FBFFFFFE056BD1B81E855B9FC0AD7A3703D0AD73F4214DD185B99185C9900AD7A3703D0AC73F90141901A02B5E8DC0F42B1CFC02B5E8DC0F42B1CFE5764000000000000300FC0
340
14
340
0
340
11
340
0
 94
        0
1001
ACAD_MLEADERVER
1070
     2
  0
MLINESTYLE
  5
18
102
{ACAD_REACTORS
330
17
102
}
330
17
100
AcDbMlineStyle
  2
Standard
 70
     0
  3

 62
   256
 51
90.0
 52
90.0
 71
     2
 49
0.5
 62
   256
  6
BYLAYER
 49
-0.5
 62
   256
  6
BYLAYER
  0
ACAD_PROXY_OBJECT
  5
48
102
{ACAD_REACTORS
330
47
102
}
330
47
100
AcDbProxyObject
 90
      499
 91
      503
 93
       41
310
903313A31580
  0
ACAD_PROXY_OBJECT
  5
49
102
{ACAD_REACTORS
330
47
102
}
330
47
100
AcDbProxyObject
 90
      499
 91
      503
 93
      105
310
903313A324000000000000004000
  0
ACAD_PROXY_OBJECT
  5
4A
102
{ACAD_REACTORS
330
47
102
}
330
47
100
AcDbProxyObject
 90
      499
 91
      503
 93
      105
310
903313A344000000000000104000
  0
ACAD_PROXY_OBJECT
  5
4B
102
{ACAD_REACTORS
330
47
102
}
330
47
100
AcDbProxyObject
 90
      499
 91
      503
 93
      105
310
903313A354000000000000144000
  0
ACAD_PROXY_OBJECT
  5
4C
102
{ACAD_REACTORS
330
47
102
}
330
47
100
AcDbProxyObject
 90
      499
 91
      503
 93
      105
310
903313A384000000000000204000
  0
ACAD_PROXY_OBJECT
  5
4D
102
{ACAD_REACTORS
330
47
102
}
330
47
100
AcDbProxyObject
 90
      499
 91
      503
 93
      113
310
904313A31304000000000000244000
  0
ACAD_PROXY_OBJECT
  5
4E
102
{ACAD_REACTORS
330
47
102
}
330
47
100
AcDbProxyObject
 90
      499
 91
      503
 93
      113
310
904313A31364000000000000304000
  0
ACAD_PROXY_OBJECT
  5
4F
102
{ACAD_REACTORS
330
47
102
}
330
47
100
AcDbProxyObject
 90
      499
 91
      503
 93
      113
310
904313A32304000000000000344000
  0
ACAD_PROXY_OBJECT
  5
50
102
{ACAD_REACTORS
330
47
102
}
330
47
100
AcDbProxyObject
 90
      499
 91
      503
 93
      113
310
904313A333040000000000003E4000
  0
ACAD_PROXY_OBJECT
  5
51
102
{ACAD_REACTORS
330
47
102
}
330
47
100
AcDbProxyObject
 90
      499
 91
      503
 93
      113
310
904313A34304000000000000444000
  0
ACAD_PROXY_OBJECT
  5
52
102
{ACAD_REACTORS
330
47
102
}
330
47
100
AcDbProxyObject
 90
      499
 91
      503
 93
      113
310
904313A35304000000000000494000
  0
ACAD_PROXY_OBJECT
  5
53
102
{ACAD_REACTORS
330
47
102
}
330
47
100
AcDbProxyObject
 90
      499
 91
      503
 93
      121
310
905313A3130304000000000000594000
  0
ACAD_PROXY_OBJECT
  5
54
102
{ACAD_REACTORS
330
47
102
}
330
47
100
AcDbProxyObject
 90
      499
 91
      503
 93
      105
310
903323A310000000000000010100
  0
ACAD_PROXY_OBJECT
  5
55
102
{ACAD_REACTORS
330
47
102
}
330
47
100
AcDbProxyObject
 90
      499
 91
      503
 93
      105
310
903343A310000000000000410100
  0
ACAD_PROXY_OBJECT
  5
56
102
{ACAD_REACTORS
330
47
102
}
330
47
100
AcDbProxyObject
 90
      499
 91
      503
 93
      105
310
903383A310000000000000810100
  0
ACAD_PROXY_OBJECT
  5
57
102
{ACAD_REACTORS
330
47
102
}
330
47
100
AcDbProxyObject
 90
      499
 91
      503
 93
      113
310
90431303A310000000000000910100
  0
ACAD_PROXY_OBJECT
  5
58
102
{ACAD_REACTORS
330
47
102
}
330
47
100
AcDbProxyObject
 90
      499
 91
      503
 93
      121
310
9053130303A310000000000001650100
  0
ACAD_PROXY_OBJECT
  5
59
102
{ACAD_REACTORS
330
47
102
}
330
47
100
AcDbProxyObject
 90
      499
 91
      503
 93
      257
310
90E312F31323822203D2031272D3022000000000000200FC000000000000284000
  0
ACAD_PROXY_OBJECT
  5
5A
102
{ACAD_REACTORS
330
47
102
}
330
47
100
AcDbProxyObject
 90
      499
 91
      503
 93
      249
310
90D312F363422203D2031272D3022000000000000240FC000000000000284000
  0
ACAD_PROXY_OBJECT
  5
5B
102
{ACAD_REACTORS
330
47
102
}
330
47
100
AcDbProxyObject
 90
      499
 91
      503
 93
      249
310
90D312F333222203D2031272D3022000000000000280FC000000000000284000
  0
ACAD_PROXY_OBJECT
  5
5C
102
{ACAD_REACTORS
330
47
102
}
330
47
100
AcDbProxyObject
 90
      499
 91
      503
 93
      249
310
90D312F313622203D2031272D30220000000000002C0FC000000000000284000
  0
ACAD_PROXY_OBJECT
  5
5D
102
{ACAD_REACTORS
330
47
102
}
330
47
100
AcDbProxyObject
 90
      499
 91
      503
 93
      249
310
90D332F333222203D2031272D30220000000000002E0FC000000000000284000
  0
ACAD_PROXY_OBJECT
  5
5E
102
{ACAD_REACTORS
330
47
102
}
330
47
100
AcDbProxyObject
 90
      499
 91
      503
 93
      241
310
90C312F3822203D2031272D3022000000000000300FC000000000000284000
  0
ACAD_PROXY_OBJECT
  5
5F
102
{ACAD_REACTORS
330
47
102
}
330
47
100
AcDbProxyObject
 90
      499
 91
      503
 93
      249
310
90D332F313622203D2031272D3022000000000000320FC000000000000284000
  0
ACAD_PROXY_OBJECT
  5
60
102
{ACAD_REACTORS
330
47
102
}
330
47
100
AcDbProxyObject
 90
      499
 91
      503
 93
      241
310
90C312F3422203D2031272D3022000000000000340FC000000000000284000
  0
ACAD_PROXY_OBJECT
  5
61
102
{ACAD_REACTORS
330
47
102
}
330
47
100
AcDbProxyObject
 90
      499
 91
      503
 93
      241
310
90C332F3822203D2031272D3022000000000000360FC000000000000284000
  0
ACAD_PROXY_OBJECT
  5
62
102
{ACAD_REACTORS
330
47
102
}
330
47
100
AcDbProxyObject
 90
      499
 91
      503
 93
      241
310
90C312F3222203D2031272D3022000000000000380FC000000000000284000
  0
ACAD_PROXY_OBJECT
  5
63
102
{ACAD_REACTORS
330
47
102
}
330
47
100
AcDbProxyObject
 90
      499
 91
      503
 93
      241
310
90C332F3422203D2031272D30220000000000003A0FC000000000000284000
  0
ACAD_PROXY_OBJECT
  5
64
102
{ACAD_REACTORS
330
47
102
}
330
47
100
AcDbProxyObject
 90
      499
 91
      503
 93
      161
310
90A3122203D2031272D30224000000000000284000
  0
ACAD_PROXY_OBJECT
  5
65
102
{ACAD_REACTORS
330
47
102
}
330
47
100
AcDbProxyObject
 90
      499
 91
      503
 93
      257
310
90E312D312F3222203D2031272D30220000000000003E0FC000000000000284000
  0
ACAD_PROXY_OBJECT
  5
66
102
{ACAD_REACTORS
330
47
102
}
330
47
100
AcDbProxyObject
 90
      499
 91
      503
 93
      225
310
90A3322203D2031272D302200000000000002100000000000000284000
  0
ACAD_PROXY_OBJECT
  5
67
102
{ACAD_REACTORS
330
47
102
}
330
47
100
AcDbProxyObject
 90
      499
 91
      503
 93
      225
310
90A3622203D2031272D302200000000000006100000000000000284000
  0
ACAD_PROXY_OBJECT
  5
68
102
{ACAD_REACTORS
330
47
102
}
330
47
100
AcDbProxyObject
 90
      499
 91
      503
 93
      249
310
90D31272D3022203D2031272D30220000000000000A100000000000000284000
  0
ACAD_PROXY_OBJECT
  5
2F
102
{ACAD_REACTORS
330
2A
102
}
330
2A
100
AcDbProxyObject
 90
      499
 91
      501
 93
      436
310
42CC9915DA5C99599C985B595049028333333333333E33F0000000000000F90107901411070040501600405405064090741402480A0340
1001
ACAD
1000
AcDbSavedByObjectVersion
1070
     0
  0
ACAD_PROXY_OBJECT
  5
32
102
{ACAD_REACTORS
330
2A
102
}
330
2A
100
AcDbProxyObject
 90
      499
 91
      501
 93
      388
310
4150985CDA58D07406404333333333333E33F0000000000000F90107A41107004050150841D405064090741402480A0350
1001
ACAD
1000
AcDbSavedByObjectVersion
1070
     0
  0
ACAD_PROXY_OBJECT
  5
36
102
{ACAD_REACTORS
330
2A
102
}
330
2A
100
AcDbProxyObject
 90
      499
 91
      501
 93
      428
310
42109C9A59DA1D195B90C409028333333333333E33F0000000000000F9010790141107004050150841D405064090741402480A029950
1001
ACAD
1000
AcDbSavedByObjectVersion
1070
     0
  0
ACAD_PROXY_OBJECT
  5
3A
102
{ACAD_REACTORS
330
2A
102
}
330
2A
100
AcDbProxyObject
 90
      499
 91
      501
 93
      452
310
42D0DBDB1BDC90DA185B99D95104090240C333333333333E33F0000000000000F90108901411070040501508421405064090741402480A0350
1001
ACAD
1000
AcDbSavedByObjectVersion
1070
     0
  0
ACAD_PROXY_OBJECT
  5
34
102
{ACAD_REACTORS
330
2A
102
}
330
2A
100
AcDbProxyObject
 90
      499
 91
      501
 93
      500
310
4290DBDB98D95C1D1D585B10940D028333333333333E33F0000000000000F90107902409070040501000000000018199010841D405064090740C02480A0340
1001
ACAD
1000
AcDbSavedByObjectVersion
1070
     0
  0
ACAD_PROXY_OBJECT
  5
35
102
{ACAD_REACTORS
330
2A
102
}
330
2A
100
AcDbProxyObject
 90
      499
 91
      501
 93
      412
310
40D11A5B50B409028333333333333E33F0000000000000F9010790141107004050150841D405064090741402480A02677FFFFFD0
1001
ACAD
1000
AcDbSavedByObjectVersion
1070
     0
  0
ACAD_PROXY_OBJECT
  5
3D
102
{ACAD_REACTORS
330
2A
102
}
330
2A
100
AcDbProxyObject
 90
      499
 91
      501
 93
      452
310
43115919D950DBDB1BDC93D999916409028333333333333E33F0000000000000F9010790141107004050150841D405064090741402480A0350
1001
ACAD
1000
AcDbSavedByObjectVersion
1070
     0
  0
ACAD_PROXY_OBJECT
  5
39
102
{ACAD_REACTORS
330
2A
102
}
330
2A
100
AcDbProxyObject
 90
      499
 91
      501
 93
      444
310
42D19858D95C185D1D195C9B90F409028333333333333E33F0000000000000F9010790141107004050150841D405064090741402480A0350
1001
ACAD
1000
AcDbSavedByObjectVersion
1070
     0
  0
ACAD_PROXY_OBJECT
  5
2B
102
{ACAD_REACTORS
330
2A
102
}
330
2A
100
AcDbProxyObject
 90
      499
 91
      501
 93
      380
310
41119B185D240901404333333333333E33F0000000000000F9010740A907004050150841D405064090741402480A1B50
1001
ACAD
1000
AcDbSavedByObjectVersion
1070
     0
  0
ACAD_PROXY_OBJECT
  5
2C
102
{ACAD_REACTORS
330
2A
102
}
330
2A
100
AcDbProxyObject
 90
      499
 91
      501
 93
      468
310
43519B185D15DA5D1A115919D95CD0140901404333333333333E33F0000000000000F90107409019070040501600405405064090741402480A1B50
1001
ACAD
1000
AcDbSavedByObjectVersion
1070
     0
  0
ACAD_PROXY_OBJECT
  5
2D
102
{ACAD_REACTORS
330
2A
102
}
330
2A
100
AcDbProxyObject
 90
      499
 91
      501
 93
      404
310
41D1DBDD5C985D5910240902404333333333333E33F0000000000000F9010740A9070040501641D405064090741402480A1B50
1001
ACAD
1000
AcDbSavedByObjectVersion
1070
     0
  0
ACAD_PROXY_OBJECT
  5
2E
102
{ACAD_REACTORS
330
2A
102
}
330
2A
100
AcDbProxyObject
 90
      499
 91
      501
 93
      492
310
4411DBDD5C985D5915DA5D1A115919D95CD0340902404333333333333E33F0000000000000F90107409019070040501600405405064090741402480A1B50
1001
ACAD
1000
AcDbSavedByObjectVersion
1070
     0
  0
ACAD_PROXY_OBJECT
  5
31
102
{ACAD_REACTORS
330
2A
102
}
330
2A
100
AcDbProxyObject
 90
      499
 91
      501
 93
      476
310
41921A5919195B90640502408333333333333E33F0000000000000F901079024090700405020000000000001110200405405064090740C02480A0340
1001
ACAD
1000
AcDbSavedByObjectVersion
1070
     0
  0
ACAD_PROXY_OBJECT
  5
3B
102
{ACAD_REACTORS
330
2A
102
}
330
2A
100
AcDbProxyObject
 90
      499
 91
      501
 93
      428
310
42529A5D1D195C93D999914409028333333333333E33F0000000000000F9010790141107004050150A41D405064090741402480A0350
1001
ACAD
1000
AcDbSavedByObjectVersion
1070
     0
  0
ACAD_PROXY_OBJECT
  5
38
102
{ACAD_REACTORS
330
2A
102
}
330
2A
100
AcDbProxyObject
 90
      499
 91
      501
 93
      444
310
42D31A5B995C185D1D195C9B90E409028333333333333E33F0000000000000F9010790141107004050750841D405064090741402483A0350
1001
ACAD
1000
AcDbSavedByObjectVersion
1070
     0
  0
ACAD_PROXY_OBJECT
  5
3C
102
{ACAD_REACTORS
330
2A
102
}
330
2A
100
AcDbProxyObject
 90
      499
 91
      501
 93
      444
310
42D3DD995C9A185B99D3D999915409028333333333333E33F0000000000000F9010790141107004050150941D405064090741402480A0350
1001
ACAD
1000
AcDbSavedByObjectVersion
1070
     0
  0
ACAD_PROXY_OBJECT
  5
33
102
{ACAD_REACTORS
330
2A
102
}
330
2A
100
AcDbProxyObject
 90
      499
 91
      501
 93
      428
310
425499585B1A5CDD1A58D08409038333333333333E33F0000000000000F9010740A907004050150800405405064090740C02480A1B40
1001
ACAD
1000
AcDbSavedByObjectVersion
1070
     0
  0
ACAD_PROXY_OBJECT
  5
42
102
{ACAD_REACTORS
330
2A
102
}
330
2A
100
AcDbProxyObject
 90
      499
 91
      501
 93
      420
310
4194DA1859195911B40902404333333333333E33F0000000000000F9010740A41107004050150800405405064090840C02480A0B40
1001
ACAD
1000
AcDbSavedByObjectVersion
1070
     0
  0
ACAD_PROXY_OBJECT
  5
41
102
{ACAD_REACTORS
330
2A
102
}
330
2A
100
AcDbProxyObject
 90
      499
 91
      501
 93
      516
310
4454DA18591959081DDA5D1A08195919D95CD1A40902404333333333333E33F0000000000000F901074090142907004050250800405405064090740C02480A0B40
1001
ACAD
1000
AcDbSavedByObjectVersion
1070
     0
  0
ACAD_PROXY_OBJECT
  5
3E
102
{ACAD_REACTORS
330
2A
102
}
330
2A
100
AcDbProxyObject
 90
      499
 91
      501
 93
      532
310
4394DA1859195CC81BD98811DC985E5174090240C333333333333E33F0000000000000F901079024090741D01000000000000111010841D405064090740C02480A0340
1001
ACAD
1000
AcDbSavedByObjectVersion
1070
     0
  0
ACAD_PROXY_OBJECT
  5
3F
102
{ACAD_REACTORS
330
2A
102
}
330
2A
100
AcDbProxyObject
 90
      499
 91
      501
 93
      476
310
41D4DAD95D18DA1E51840502408333333333333E33F0000000000000F901079024090741D01000000000000111010B41D405064090741802480A0340
1001
ACAD
1000
AcDbSavedByObjectVersion
1070
     0
  0
ACAD_PROXY_OBJECT
  5
37
102
{ACAD_REACTORS
330
2A
102
}
330
2A
100
AcDbProxyObject
 90
      499
 91
      501
 93
      412
310
41D51A1A58DAD95B90D409028333333333333E33F0000000000000F9010790141107004050150C41D405064090741402480A0350
1001
ACAD
1000
AcDbSavedByObjectVersion
1070
     0
  0
ACAD_PROXY_OBJECT
  5
30
102
{ACAD_REACTORS
330
2A
102
}
330
2A
100
AcDbProxyObject
 90
      499
 91
      501
 93
      420
310
4255DA5C99599C985B595059028333333333333E33F0000000000000F90107901411070040501600405405064090740C02480A0340
1001
ACAD
1000
AcDbSavedByObjectVersion
1070
     0
  0
ACAD_PROXY_OBJECT
  5
40
102
{ACAD_REACTORS
330
2A
102
}
330
2A
100
AcDbProxyObject
 90
      499
 91
      501
 93
      404
310
41560B54985E51940902404000000000000E03F0000000000000F9010740501907004050150841D405064090740C02480A1B40
1001
ACAD
1000
AcDbSavedByObjectVersion
1070
     0
  0
XRECORD
  5
138
102
{ACAD_REACTORS
330
12E
102
}
330
12E
100
AcDbXrecord
340
0
  0
XRECORD
  5
137
102
{ACAD_REACTORS
330
12E
102
}
330
12E
100
AcDbXrecord
 90
        0
  0
XRECORD
  5
14E
102
{ACAD_REACTORS
330
12E
102
}
330
12E
100
AcDbXrecord
1000
DSTYLE
1002
{
1070
   340
340
11
1002
}
  0
XRECORD
  5
139
102
{ACAD_REACTORS
330
12E
102
}
330
12E
100
AcDbXrecord
  1
{91F874E8-1739-44C2-8F26-2C0559BC4682}
  0
XRECORD
  5
131
102
{ACAD_REACTORS
330
12E
102
}
330
12E
100
AcDbXrecord
  1

  0
XRECORD
  5
136
102
{ACAD_REACTORS
330
12E
102
}
330
12E
100
AcDbXrecord
 90
        1
  0
XRECORD
  5
133
102
{ACAD_REACTORS
330
12E
102
}
330
12E
100
AcDbXrecord
340
1A
  0
XRECORD
  5
135
102
{ACAD_REACTORS
330
12E
102
}
330
12E
100
AcDbXrecord
 90
    10781
  0
XRECORD
  5
134
102
{ACAD_REACTORS
330
12E
102
}
330
12E
100
AcDbXrecord
340
19
  0
XRECORD
  5
13B
102
{ACAD_REACTORS
330
12E
102
}
330
12E
100
AcDbXrecord
 40
0.0
  0
XRECORD
  5
13E
102
{ACAD_REACTORS
330
12E
102
}
330
12E
100
AcDbXrecord
340
0
  0
XRECORD
  5
144
102
{ACAD_REACTORS
330
12E
102
}
330
12E
100
AcDbXrecord
 10
0.0
 20
0.0
 30
0.0
  0
XRECORD
  5
140
102
{ACAD_REACTORS
330
12E
102
}
330
12E
100
AcDbXrecord
 10
0.0
 20
0.0
 30
0.0
  0
XRECORD
  5
143
102
{ACAD_REACTORS
330
12E
102
}
330
12E
100
AcDbXrecord
 10
0.0
 20
0.0
 30
0.0
  0
XRECORD
  5
141
102
{ACAD_REACTORS
330
12E
102
}
330
12E
100
AcDbXrecord
 10
0.0
 20
0.0
 30
0.0
  0
XRECORD
  5
142
102
{ACAD_REACTORS
330
12E
102
}
330
12E
100
AcDbXrecord
 10
0.0
 20
0.0
 30
0.0
  0
XRECORD
  5
13F
102
{ACAD_REACTORS
330
12E
102
}
330
12E
100
AcDbXrecord
 10
0.0
 20
0.0
 30
0.0
  0
XRECORD
  5
13C
102
{ACAD_REACTORS
330
12E
102
}
330
12E
100
AcDbXrecord
340
0
  0
XRECORD
  5
13D
102
{ACAD_REACTORS
330
12E
102
}
330
12E
100
AcDbXrecord
 70
     0
  0
XRECORD
  5
132
102
{ACAD_REACTORS
330
12E
102
}
330
12E
100
AcDbXrecord
  1

  0
XRECORD
  5
12F
102
{ACAD_REACTORS
330
12E
102
}
330
12E
100
AcDbXrecord
 90
        1
  0
XRECORD
  5
130
102
{ACAD_REACTORS
330
12E
102
}
330
12E
100
AcDbXrecord
 90
       70
  0
XRECORD
  5
147
102
{ACAD_REACTORS
330
12E
102
}
330
12E
100
AcDbXrecord
340
0
  0
XRECORD
  5
14D
102
{ACAD_REACTORS
330
12E
102
}
330
12E
100
AcDbXrecord
 10
0.0
 20
0.0
 30
0.0
  0
XRECORD
  5
149
102
{ACAD_REACTORS
330
12E
102
}
330
12E
100
AcDbXrecord
 10
0.0
 20
0.0
 30
0.0
  0
XRECORD
  5
14C
102
{ACAD_REACTORS
330
12E
102
}
330
12E
100
AcDbXrecord
 10
0.0
 20
0.0
 30
0.0
  0
XRECORD
  5
14A
102
{ACAD_REACTORS
330
12E
102
}
330
12E
100
AcDbXrecord
 10
0.0
 20
0.0
 30
0.0
  0
XRECORD
  5
14B
102
{ACAD_REACTORS
330
12E
102
}
330
12E
100
AcDbXrecord
 10
0.0
 20
0.0
 30
0.0
  0
XRECORD
  5
148
102
{ACAD_REACTORS
330
12E
102
}
330
12E
100
AcDbXrecord
 10
0.0
 20
0.0
 30
0.0
  0
XRECORD
  5
145
102
{ACAD_REACTORS
330
12E
102
}
330
12E
100
AcDbXrecord
340
0
  0
XRECORD
  5
146
102
{ACAD_REACTORS
330
12E
102
}
330
12E
100
AcDbXrecord
 70
     0
  0
XRECORD
  5
13A
102
{ACAD_REACTORS
330
12E
102
}
330
12E
100
AcDbXrecord
  1
{FAEB1C32-E019-11D5-929B-00C0DF256EC4}
  0
DICTIONARYVAR
  5
98
102
{ACAD_REACTORS
330
8F
102
}
330
8F
100
DictionaryVariables
280
     0
  1
1:1
  0
DICTIONARYVAR
  5
91
102
{ACAD_REACTORS
330
8F
102
}
330
8F
100
DictionaryVariables
280
     0
  1
Standard
  0
DICTIONARYVAR
  5
90
102
{ACAD_REACTORS
330
8F
102
}
330
8F
100
DictionaryVariables
280
     0
  1
Standard
  0
DICTIONARYVAR
  5
94
102
{ACAD_REACTORS
330
8F
102
}
330
8F
100
DictionaryVariables
280
     0
  1
2
  0
DICTIONARYVAR
  5
95
102
{ACAD_REACTORS
330
8F
102
}
330
8F
100
DictionaryVariables
280
     0
  1
1
  0
DICTIONARYVAR
  5
99
102
{ACAD_REACTORS
330
8F
102
}
330
8F
100
DictionaryVariables
280
     0
  1
1
  0
DICTIONARY
  5
153
330
45
100
AcDbDictionary
280
     1
  3
ACAD_XREC_ROUNDTRIP
360
154
  0
DICTIONARY
  5
151
330
44
100
AcDbDictionary
280
     1
  3
ACAD_XREC_ROUNDTRIP
360
152
  0
DICTIONARY
  5
155
330
46
100
AcDbDictionary
280
     1
  3
ACAD_XREC_ROUNDTRIP
360
156
  0
XRECORD
  5
154
102
{ACAD_REACTORS
330
153
102
}
330
153
100
AcDbXrecord
102
MATERIAL
148
0.0
149
0.0
149
0.0
 93
        0
 94
      127
282
     0
 72
     1
 77
     1
171
     1
175
     1
179
     1
273
     0
  0
XRECORD
  5
152
102
{ACAD_REACTORS
330
151
102
}
330
151
100
AcDbXrecord
102
MATERIAL
148
0.0
149
0.0
149
0.0
 93
        0
 94
      127
282
     0
 72
     1
 77
     1
171
     1
175
     1
179
     1
273
     0
  0
XRECORD
  5
156
102
{ACAD_REACTORS
330
155
102
}
330
155
100
AcDbXrecord
102
MATERIAL
148
0.0
149
0.0
149
0.0
 93
        0
 94
      127
282
     0
 72
     1
 77
     1
171
     1
175
     1
179
     1
273
     0
  0
ENDSEC
  0
EOF
