  0
SECTION
  2
HEADER
  9
$ACADVER
  1
AC1018
  9
$ACADMAINTVER
 70
     0
  9
$DWGCODEPAGE
  3
ANSI_1252
  9
$INSBASE
 10
0.0
 20
0.0
 30
0.0
  9
$EXTMIN
 10
694000.18302657
 20
2178000.18730671
 30
0.0
  9
$EXTMAX
 10
694179.451319253
 20
2178188.89245491
 30
0.0
  9
$LIMMIN
 10
0.0
 20
0.0
  9
$LIMMAX
 10
12.0
 20
9.0
  9
$ORTHOMODE
 70
     0
  9
$REGENMODE
 70
     1
  9
$FILLMODE
 70
     1
  9
$QTEXTMODE
 70
     0
  9
$MIRRTEXT
 70
     1
  9
$LTSCALE
 40
1.0
  9
$ATTMODE
 70
     1
  9
$TEXTSIZE
 40
0.2
  9
$TRACEWID
 40
0.05
  9
$TEXTSTYLE
  7
Standard
  9
$CLAYER
  8
0
  9
$CELTYPE
  6
ByLayer
  9
$CECOLOR
 62
   256
  9
$CELTSCALE
 40
1.0
  9
$DISPSILH
 70
     0
  9
$DIMSCALE
 40
1.0
  9
$DIMASZ
 40
0.18
  9
$DIMEXO
 40
0.0625
  9
$DIMDLI
 40
0.38
  9
$DIMRND
 40
0.0
  9
$DIMDLE
 40
0.0
  9
$DIMEXE
 40
0.18
  9
$DIMTP
 40
0.0
  9
$DIMTM
 40
0.0
  9
$DIMTXT
 40
0.18
  9
$DIMCEN
 40
0.09
  9
$DIMTSZ
 40
0.0
  9
$DIMTOL
 70
     0
  9
$DIMLIM
 70
     0
  9
$DIMTIH
 70
     1
  9
$DIMTOH
 70
     1
  9
$DIMSE1
 70
     0
  9
$DIMSE2
 70
     0
  9
$DIMTAD
 70
     0
  9
$DIMZIN
 70
     0
  9
$DIMBLK
  1

  9
$DIMASO
 70
     1
  9
$DIMSHO
 70
     1
  9
$DIMPOST
  1

  9
$DIMAPOST
  1

  9
$DIMALT
 70
     0
  9
$DIMALTD
 70
     2
  9
$DIMALTF
 40
25.4
  9
$DIMLFAC
 40
1.0
  9
$DIMTOFL
 70
     0
  9
$DIMTVP
 40
0.0
  9
$DIMTIX
 70
     0
  9
$DIMSOXD
 70
     0
  9
$DIMSAH
 70
     0
  9
$DIMBLK1
  1

  9
$DIMBLK2
  1

  9
$DIMSTYLE
  2
Standard
  9
$DIMCLRD
 70
     0
  9
$DIMCLRE
 70
     0
  9
$DIMCLRT
 70
     0
  9
$DIMTFAC
 40
1.0
  9
$DIMGAP
 40
0.09
  9
$DIMJUST
 70
     0
  9
$DIMSD1
 70
     0
  9
$DIMSD2
 70
     0
  9
$DIMTOLJ
 70
     1
  9
$DIMTZIN
 70
     0
  9
$DIMALTZ
 70
     0
  9
$DIMALTTZ
 70
     0
  9
$DIMUPT
 70
     0
  9
$DIMDEC
 70
     4
  9
$DIMTDEC
 70
     4
  9
$DIMALTU
 70
     2
  9
$DIMALTTD
 70
     2
  9
$DIMTXSTY
  7
Standard
  9
$DIMAUNIT
 70
     0
  9
$DIMADEC
 70
     0
  9
$DIMALTRND
 40
0.0
  9
$DIMAZIN
 70
     0
  9
$DIMDSEP
 70
    46
  9
$DIMATFIT
 70
     3
  9
$DIMFRAC
 70
     0
  9
$DIMLDRBLK
  1

  9
$DIMLUNIT
 70
     2
  9
$DIMLWD
 70
    -2
  9
$DIMLWE
 70
    -2
  9
$DIMTMOVE
 70
     0
  9
$LUNITS
 70
     2
  9
$LUPREC
 70
     4
  9
$SKETCHINC
 40
0.1
  9
$FILLETRAD
 40
0.5
  9
$AUNITS
 70
     0
  9
$AUPREC
 70
     0
  9
$MENU
  1
.
  9
$ELEVATION
 40
0.0
  9
$PELEVATION
 40
0.0
  9
$THICKNESS
 40
0.0
  9
$LIMCHECK
 70
     0
  9
$CHAMFERA
 40
0.5
  9
$CHAMFERB
 40
0.5
  9
$CHAMFERC
 40
1.0
  9
$CHAMFERD
 40
0.0
  9
$SKPOLY
 70
     0
  9
$TDCREATE
 40
2455343.56230316
  9
$TDUCREATE
 40
2455343.728969826
  9
$TDUPDATE
 40
2455343.562303171
  9
$TDUUPDATE
 40
2455343.728969838
  9
$TDINDWG
 40
0.0000000116
  9
$TDUSRTIMER
 40
0.0000000116
  9
$USRTIMER
 70
     1
  9
$ANGBASE
 50
0.0
  9
$ANGDIR
 70
     0
  9
$PDMODE
 70
     0
  9
$PDSIZE
 40
0.0
  9
$PLINEWID
 40
0.0
  9
$SPLFRAME
 70
     0
  9
$SPLINETYPE
 70
     6
  9
$SPLINESEGS
 70
     8
  9
$HANDSEED
  5
000202D0
  9
$SURFTAB1
 70
     6
  9
$SURFTAB2
 70
     6
  9
$SURFTYPE
 70
     6
  9
$SURFU
 70
     6
  9
$SURFV
 70
     6
  9
$UCSBASE
  2

  9
$UCSNAME
  2

  9
$UCSORG
 10
0.0
 20
0.0
 30
0.0
  9
$UCSXDIR
 10
1.0
 20
0.0
 30
0.0
  9
$UCSYDIR
 10
0.0
 20
1.0
 30
0.0
  9
$UCSORTHOREF
  2

  9
$UCSORTHOVIEW
 70
     0
  9
$UCSORGTOP
 10
0.0
 20
0.0
 30
0.0
  9
$UCSORGBOTTOM
 10
0.0
 20
0.0
 30
0.0
  9
$UCSORGLEFT
 10
0.0
 20
0.0
 30
0.0
  9
$UCSORGRIGHT
 10
0.0
 20
0.0
 30
0.0
  9
$UCSORGFRONT
 10
0.0
 20
0.0
 30
0.0
  9
$UCSORGBACK
 10
0.0
 20
0.0
 30
0.0
  9
$PUCSBASE
  2

  9
$PUCSNAME
  2

  9
$PUCSORG
 10
0.0
 20
0.0
 30
0.0
  9
$PUCSXDIR
 10
1.0
 20
0.0
 30
0.0
  9
$PUCSYDIR
 10
0.0
 20
1.0
 30
0.0
  9
$PUCSORTHOREF
  2

  9
$PUCSORTHOVIEW
 70
     0
  9
$PUCSORGTOP
 10
0.0
 20
0.0
 30
0.0
  9
$PUCSORGBOTTOM
 10
0.0
 20
0.0
 30
0.0
  9
$PUCSORGLEFT
 10
0.0
 20
0.0
 30
0.0
  9
$PUCSORGRIGHT
 10
0.0
 20
0.0
 30
0.0
  9
$PUCSORGFRONT
 10
0.0
 20
0.0
 30
0.0
  9
$PUCSORGBACK
 10
0.0
 20
0.0
 30
0.0
  9
$USERI1
 70
     0
  9
$USERI2
 70
     0
  9
$USERI3
 70
     0
  9
$USERI4
 70
     0
  9
$USERI5
 70
     0
  9
$USERR1
 40
0.0
  9
$USERR2
 40
0.0
  9
$USERR3
 40
0.0
  9
$USERR4
 40
0.0
  9
$USERR5
 40
0.0
  9
$WORLDVIEW
 70
     1
  9
$SHADEDGE
 70
     3
  9
$SHADEDIF
 70
    70
  9
$TILEMODE
 70
     1
  9
$MAXACTVP
 70
    64
  9
$PINSBASE
 10
0.0
 20
0.0
 30
0.0
  9
$PLIMCHECK
 70
     0
  9
$PEXTMIN
 10
1.000000000000000E+20
 20
1.000000000000000E+20
 30
1.000000000000000E+20
  9
$PEXTMAX
 10
-1.000000000000000E+20
 20
-1.000000000000000E+20
 30
-1.000000000000000E+20
  9
$PLIMMIN
 10
0.0
 20
0.0
  9
$PLIMMAX
 10
12.0
 20
9.0
  9
$UNITMODE
 70
     0
  9
$VISRETAIN
 70
     1
  9
$PLINEGEN
 70
     0
  9
$PSLTSCALE
 70
     1
  9
$TREEDEPTH
 70
  3020
  9
$CMLSTYLE
  2
Standard
  9
$CMLJUST
 70
     0
  9
$CMLSCALE
 40
1.0
  9
$PROXYGRAPHICS
 70
     1
  9
$MEASUREMENT
 70
     0
  9
$CELWEIGHT
370
    -1
  9
$ENDCAPS
280
     0
  9
$JOINSTYLE
280
     0
  9
$LWDISPLAY
290
     0
  9
$INSUNITS
 70
     1
  9
$HYPERLINKBASE
  1

  9
$STYLESHEET
  1

  9
$XEDIT
290
     1
  9
$CEPSNTYPE
380
     0
  9
$PSTYLEMODE
290
     1
  9
$FINGERPRINTGUID
  2
{E7F7769E-AACA-40AB-9EF3-61BBAFBCBA26}
  9
$VERSIONGUID
  2
{FAEB1C32-E019-11D5-929B-00C0DF256EC4}
  9
$EXTNAMES
290
     1
  9
$PSVPSCALE
 40
0.0
  9
$OLESTARTUP
290
     0
  9
$SORTENTS
280
   127
  9
$INDEXCTL
280
     0
  9
$HIDETEXT
280
     1
  9
$XCLIPFRAME
290
     0
  9
$HALOGAP
280
     0
  9
$OBSCOLOR
 70
   257
  9
$OBSLTYPE
280
     0
  9
$INTERSECTIONDISPLAY
280
     0
  9
$INTERSECTIONCOLOR
 70
   257
  9
$DIMASSOC
280
     2
  9
$PROJECTNAME
  1

  0
ENDSEC
  0
SECTION
  2
CLASSES
  0
CLASS
  1
ACDBDICTIONARYWDFLT
  2
AcDbDictionaryWithDefault
  3
ObjectDBX Classes
 90
        0
 91
        4
280
     0
281
     0
  0
CLASS
  1
VISUALSTYLE
  2
AcDbVisualStyle
  3
ObjectDBX Classes
 90
     4095
 91
        4
280
     0
281
     0
  0
ENDSEC
  0
SECTION
  2
TABLES
  0
TABLE
  2
VPORT
  5
8
330
0
100
AcDbSymbolTable
 70
     1
  0
VPORT
  5
29
330
8
100
AcDbSymbolTableRecord
100
AcDbViewportTableRecord
  2
*Active
 70
     0
 10
0.0
 20
0.0
 11
1.0
 21
1.0
 12
80.25
 22
106.4409457059851
 13
0.0
 23
0.0
 14
0.5
 24
0.5
 15
0.5
 25
0.5
 16
0.0
 26
0.0
 36
1.0
 17
0.0
 27
0.0
 37
0.0
 40
113.3818914119703
 41
0.8863849310366128
 42
50.0
 43
0.0
 44
0.0
 50
0.0
 51
0.0
 71
     0
 72
  1000
 73
     1
 74
     3
 75
     0
 76
     0
 77
     0
 78
     0
281
     0
 65
     1
110
0.0
120
0.0
130
0.0
111
1.0
121
0.0
131
0.0
112
0.0
122
1.0
132
0.0
 79
     0
146
0.0
  0
ENDTAB
  0
TABLE
  2
LTYPE
  5
5
330
0
100
AcDbSymbolTable
 70
     1
  0
LTYPE
  5
14
330
5
100
AcDbSymbolTableRecord
100
AcDbLinetypeTableRecord
  2
ByBlock
 70
     0
  3

 72
    65
 73
     0
 40
0.0
  0
LTYPE
  5
15
330
5
100
AcDbSymbolTableRecord
100
AcDbLinetypeTableRecord
  2
ByLayer
 70
     0
  3

 72
    65
 73
     0
 40
0.0
  0
LTYPE
  5
16
330
5
100
AcDbSymbolTableRecord
100
AcDbLinetypeTableRecord
  2
Continuous
 70
     0
  3
Solid line
 72
    65
 73
     0
 40
0.0
  0
ENDTAB
  0
TABLE
  2
LAYER
  5
2
330
0
100
AcDbSymbolTable
 70
     1
  0
LAYER
  5
10
330
2
100
AcDbSymbolTableRecord
100
AcDbLayerTableRecord
  2
0
 70
     0
 62
     7
  6
Continuous
370
    -3
390
F
  0
ENDTAB
  0
TABLE
  2
STYLE
  5
3
330
0
100
AcDbSymbolTable
 70
     1
  0
STYLE
  5
11
330
3
100
AcDbSymbolTableRecord
100
AcDbTextStyleTableRecord
  2
Standard
 70
     0
 40
0.0
 41
1.0
 50
0.0
 71
     0
 42
0.2
  3
txt
  4

  0
ENDTAB
  0
TABLE
  2
VIEW
  5
6
330
0
100
AcDbSymbolTable
 70
     0
  0
ENDTAB
  0
TABLE
  2
UCS
  5
7
330
0
100
AcDbSymbolTable
 70
     0
  0
ENDTAB
  0
TABLE
  2
APPID
  5
9
330
0
100
AcDbSymbolTable
 70
     1
  0
APPID
  5
12
330
9
100
AcDbSymbolTableRecord
100
AcDbRegAppTableRecord
  2
ACAD
 70
     0
  0
ENDTAB
  0
TABLE
  2
DIMSTYLE
  5
A
330
0
100
AcDbSymbolTable
 70
     1
100
AcDbDimStyleTable
  0
DIMSTYLE
105
27
330
A
100
AcDbSymbolTableRecord
100
AcDbDimStyleTableRecord
  2
Standard
 70
     0
340
11
  0
ENDTAB
  0
TABLE
  2
BLOCK_RECORD
  5
1
330
0
100
AcDbSymbolTable
 70
     1
  0
BLOCK_RECORD
  5
1F
330
1
100
AcDbSymbolTableRecord
100
AcDbBlockTableRecord
  2
*Model_Space
340
22
  0
BLOCK_RECORD
  5
1B
330
1
100
AcDbSymbolTableRecord
100
AcDbBlockTableRecord
  2
*Paper_Space
340
1E
  0
BLOCK_RECORD
  5
23
330
1
100
AcDbSymbolTableRecord
100
AcDbBlockTableRecord
  2
*Paper_Space0
340
26
  0
ENDTAB
  0
ENDSEC
  0
SECTION
  2
BLOCKS
  0
BLOCK
  5
20
330
1F
100
AcDbEntity
  8
0
100
AcDbBlockBegin
  2
*Model_Space
 70
     0
 10
0.0
 20
0.0
 30
0.0
  3
*Model_Space
  1

  0
ENDBLK
  5
21
330
1F
100
AcDbEntity
  8
0
100
AcDbBlockEnd
  0
BLOCK
  5
1C
330
1B
100
AcDbEntity
 67
     1
  8
0
100
AcDbBlockBegin
  2
*Paper_Space
 70
     0
 10
0.0
 20
0.0
 30
0.0
  3
*Paper_Space
  1

  0
ENDBLK
  5
1D
330
1B
100
AcDbEntity
 67
     1
  8
0
100
AcDbBlockEnd
  0
BLOCK
  5
24
330
23
100
AcDbEntity
  8
0
100
AcDbBlockBegin
  2
*Paper_Space0
 70
     0
 10
0.0
 20
0.0
 30
0.0
  3
*Paper_Space0
  1

  0
ENDBLK
  5
25
330
23
100
AcDbEntity
  8
0
100
AcDbBlockEnd
  0
ENDSEC
  0
SECTION
  2
ENTITIES
  0
LWPOLYLINE
  5
20000
  8
0
100
AcDbEntity
100
AcDbPolyline
 70
0
 90
2
 38
0
 10
694000.18302657
 20
2178006.92677628
 10
694002.744002179
 20
2178005.99073884
  0
LWPOLYLINE
  5
20001
  8
0
100
AcDbEntity
100
AcDbPolyline
 70
0
 90
2
 38
0
 10
694000.18302657
 20
2178012.73020842
 10
694001.646441204
 20
2178012.16858596
  0
LWPOLYLINE
  5
20002
  8
0
100
AcDbEntity
100
AcDbPolyline
 70
0
 90
2
 38
0
 10
694000.18302657
 20
2178039.87529423
 10
694003.658636326
 20
2178038.37763432
  0
LWPOLYLINE
  5
20003
  8
0
100
AcDbEntity
100
AcDbPolyline
 70
0
 90
2
 38
0
 10
694000.18302657
 20
2178166.42755632
 10
694001.829368033
 20
2178165.49151888
  0
LWPOLYLINE
  5
20004
  8
0
100
AcDbEntity
100
AcDbPolyline
 70
0
 90
2
 38
0
 10
694000.18302657
 20
2178178.97045803
 10
694001.646441204
 20
2178178.22162808
  0
LWPOLYLINE
  5
20005
  8
0
100
AcDbEntity
100
AcDbPolyline
 70
0
 90
2
 38
0
 10
694000.548880228
 20
2178034.63348455
 10
694002.744002179
 20
2178033.69744711
  0
LWPOLYLINE
  5
20006
  8
0
100
AcDbEntity
100
AcDbPolyline
 70
0
 90
2
 38
0
 10
694000.548880228
 20
2178042.12178408
 10
694002.012294862
 20
2178041.37295413
  0
LWPOLYLINE
  5
20007
  8
0
100
AcDbEntity
100
AcDbPolyline
 70
0
 90
2
 38
0
 10
694000.548880228
 20
2178081.99697909
 10
694003.292782667
 20
2178080.87373416
  0
LWPOLYLINE
  5
20008
  8
0
100
AcDbEntity
100
AcDbPolyline
 70
0
 90
2
 38
0
 10
694001.463514375
 20
2178058.59604306
 10
694003.475709497
 20
2178057.8472131
  0
LWPOLYLINE
  5
20009
  8
0
100
AcDbEntity
100
AcDbPolyline
 70
0
 90
2
 38
0
 10
694001.463514375
 20
2178115.88153447
 10
694003.841563155
 20
2178114.75828955
  0
LWPOLYLINE
  5
2000A
  8
0
100
AcDbEntity
100
AcDbPolyline
 70
0
 90
2
 38
0
 10
694001.646441204
 20
2178113.8222521
 10
694005.487904618
 20
2178112.51179969
  0
LWPOLYLINE
  5
2000B
  8
0
100
AcDbEntity
100
AcDbPolyline
 70
0
 90
2
 38
0
 10
694001.646441204
 20
2178176.72396817
 10
694003.841563155
 20
2178175.78793073
  0
LWPOLYLINE
  5
2000C
  8
0
100
AcDbEntity
100
AcDbPolyline
 70
0
 90
2
 38
0
 10
694002.195221692
 20
2178013.1046234
 10
694003.658636326
 20
2178012.54300093
  0
LWPOLYLINE
  5
2000D
  8
0
100
AcDbEntity
100
AcDbPolyline
 70
0
 90
2
 38
0
 10
694002.195221692
 20
2178046.42755632
 10
694004.390343643
 20
2178045.86593385
  0
LWPOLYLINE
  5
2000E
  8
0
100
AcDbEntity
100
AcDbPolyline
 70
0
 90
2
 38
0
 10
694002.195221692
 20
2178097.53520062
 10
694004.024489984
 20
2178096.78637067
  0
LWPOLYLINE
  5
2000F
  8
0
100
AcDbEntity
100
AcDbPolyline
 70
0
 90
2
 38
0
 10
694002.378148521
 20
2178152.19978721
 10
694005.304977789
 20
2178151.07654228
  0
LWPOLYLINE
  5
20010
  8
0
100
AcDbEntity
100
AcDbPolyline
 70
0
 90
2
 38
0
 10
694002.56107535
 20
2178009.36047363
 10
694006.036685106
 20
2178007.86281373
  0
LWPOLYLINE
  5
20011
  8
0
100
AcDbEntity
100
AcDbPolyline
 70
0
 90
2
 38
0
 10
694002.56107535
 20
2178063.83785273
 10
694005.304977789
 20
2178063.08902278
  0
LWPOLYLINE
  5
20012
  8
0
100
AcDbEntity
100
AcDbPolyline
 70
0
 90
2
 38
0
 10
694003.109855838
 20
2178004.11866396
 10
694005.670831448
 20
2178003.36983401
  0
LWPOLYLINE
  5
20013
  8
0
100
AcDbEntity
100
AcDbPolyline
 70
0
 90
2
 38
0
 10
694003.109855838
 20
2178087.42599625
 10
694005.12205096
 20
2178086.48995881
  0
LWPOLYLINE
  5
20014
  8
0
100
AcDbEntity
100
AcDbPolyline
 70
0
 90
2
 38
0
 10
694003.109855838
 20
2178131.60696349
 10
694005.12205096
 20
2178130.85813354
  0
LWPOLYLINE
  5
20015
  8
0
100
AcDbEntity
100
AcDbPolyline
 70
0
 90
2
 38
0
 10
694003.475709497
 20
2178120.56172168
 10
694005.304977789
 20
2178119.81289173
  0
LWPOLYLINE
  5
20016
  8
0
100
AcDbEntity
100
AcDbPolyline
 70
0
 90
2
 38
0
 10
694004.390343643
 20
2178115.88153447
 10
694008.231807058
 20
2178114.38387457
  0
LWPOLYLINE
  5
20017
  8
0
100
AcDbEntity
100
AcDbPolyline
 70
0
 90
2
 38
0
 10
694004.573270472
 20
2178118.31523182
 10
694007.317172911
 20
2178117.0047794
  0
LWPOLYLINE
  5
20018
  8
0
100
AcDbEntity
100
AcDbPolyline
 70
0
 90
2
 38
0
 10
694004.756197301
 20
2178094.53988081
 10
694008.231807058
 20
2178093.41663588
  0
LWPOLYLINE
  5
20019
  8
0
100
AcDbEntity
100
AcDbPolyline
 70
0
 90
2
 38
0
 10
694004.756197301
 20
2178181.40415538
 10
694006.951319253
 20
2178181.0297404
  0
LWPOLYLINE
  5
2001A
  8
0
100
AcDbEntity
100
AcDbPolyline
 70
0
 90
2
 38
0
 10
694005.12205096
 20
2178101.65376537
 10
694007.317172911
 20
2178100.90493541
  0
LWPOLYLINE
  5
2001B
  8
0
100
AcDbEntity
100
AcDbPolyline
 70
0
 90
2
 38
0
 10
694005.304977789
 20
2178030.88933479
 10
694006.585465594
 20
2178030.51491981
  0
LWPOLYLINE
  5
2001C
  8
0
100
AcDbEntity
100
AcDbPolyline
 70
0
 90
2
 38
0
 10
694005.487904618
 20
2178099.03286053
 10
694009.146441204
 20
2178097.72240811
  0
LWPOLYLINE
  5
2001D
  8
0
100
AcDbEntity
100
AcDbPolyline
 70
0
 90
2
 38
0
 10
694005.670831448
 20
2178014.22786833
 10
694008.231807058
 20
2178013.29183089
  0
LWPOLYLINE
  5
2001E
  8
0
100
AcDbEntity
100
AcDbPolyline
 70
0
 90
2
 38
0
 10
694005.853758277
 20
2178034.44627707
 10
694008.780587545
 20
2178033.32303214
  0
LWPOLYLINE
  5
2001F
  8
0
100
AcDbEntity
100
AcDbPolyline
 70
0
 90
2
 38
0
 10
694006.036685106
 20
2178119.43847675
 10
694008.231807058
 20
2178118.50243931
  0
LWPOLYLINE
  5
20020
  8
0
100
AcDbEntity
100
AcDbPolyline
 70
0
 90
2
 38
0
 10
694006.036685106
 20
2178133.29183089
 10
694009.146441204
 20
2178132.16858596
  0
LWPOLYLINE
  5
20021
  8
0
100
AcDbEntity
100
AcDbPolyline
 70
0
 90
2
 38
0
 10
694006.219611936
 20
2178135.91273572
 10
694008.414733887
 20
2178134.78949079
  0
LWPOLYLINE
  5
20022
  8
0
100
AcDbEntity
100
AcDbPolyline
 70
0
 90
2
 38
0
 10
694006.768392423
 20
2178015.16390577
 10
694008.963514375
 20
2178014.41507582
  0
LWPOLYLINE
  5
20023
  8
0
100
AcDbEntity
100
AcDbPolyline
 70
0
 90
2
 38
0
 10
694006.951319253
 20
2178050.73332855
 10
694009.695221692
 20
2178049.61008362
  0
LWPOLYLINE
  5
20024
  8
0
100
AcDbEntity
100
AcDbPolyline
 70
0
 90
2
 38
0
 10
694007.317172911
 20
2178155.94393697
 10
694009.329368033
 20
2178155.38231451
  0
LWPOLYLINE
  5
20025
  8
0
100
AcDbEntity
100
AcDbPolyline
 70
0
 90
2
 38
0
 10
694007.68302657
 20
2178071.70056724
 10
694009.512294862
 20
2178071.32615226
  0
LWPOLYLINE
  5
20026
  8
0
100
AcDbEntity
100
AcDbPolyline
 70
0
 90
2
 38
0
 10
694007.865953399
 20
2178037.81601185
 10
694009.146441204
 20
2178037.0671819
  0
LWPOLYLINE
  5
20027
  8
0
100
AcDbEntity
100
AcDbPolyline
 70
0
 90
2
 38
0
 10
694007.865953399
 20
2178040.81133167
 10
694009.512294862
 20
2178040.2497092
  0
LWPOLYLINE
  5
20028
  8
0
100
AcDbEntity
100
AcDbPolyline
 70
0
 90
2
 38
0
 10
694007.865953399
 20
2178120.3745142
 10
694009.878148521
 20
2178119.62568424
  0
LWPOLYLINE
  5
20029
  8
0
100
AcDbEntity
100
AcDbPolyline
 70
0
 90
2
 38
0
 10
694008.414733887
 20
2178018.72084805
 10
694010.06107535
 20
2178018.15922558
  0
LWPOLYLINE
  5
2002A
  8
0
100
AcDbEntity
100
AcDbPolyline
 70
0
 90
2
 38
0
 10
694008.597660716
 20
2178055.22630827
 10
694011.890343643
 20
2178053.91585585
  0
LWPOLYLINE
  5
2002B
  8
0
100
AcDbEntity
100
AcDbPolyline
 70
0
 90
2
 38
0
 10
694008.597660716
 20
2178140.03130047
 10
694010.426929009
 20
2178139.469678
  0
LWPOLYLINE
  5
2002C
  8
0
100
AcDbEntity
100
AcDbPolyline
 70
0
 90
2
 38
0
 10
694008.780587545
 20
2178036.13114446
 10
694012.439124131
 20
2178034.82069204
  0
LWPOLYLINE
  5
2002D
  8
0
100
AcDbEntity
100
AcDbPolyline
 70
0
 90
2
 38
0
 10
694008.780587545
 20
2178052.60540343
 10
694011.341563155
 20
2178051.4821585
  0
LWPOLYLINE
  5
2002E
  8
0
100
AcDbEntity
100
AcDbPolyline
 70
0
 90
2
 38
0
 10
694008.780587545
 20
2178122.99541903
 10
694010.975709497
 20
2178122.24658908
  0
LWPOLYLINE
  5
2002F
  8
0
100
AcDbEntity
100
AcDbPolyline
 70
0
 90
2
 38
0
 10
694008.963514375
 20
2178182.34019282
 10
694011.341563155
 20
2178181.77857036
  0
LWPOLYLINE
  5
20030
  8
0
100
AcDbEntity
100
AcDbPolyline
 70
0
 90
2
 38
0
 10
694009.146441204
 20
2178114.00945959
 10
694010.792782667
 20
2178113.44783713
  0
LWPOLYLINE
  5
20031
  8
0
100
AcDbEntity
100
AcDbPolyline
 70
0
 90
2
 38
0
 10
694009.878148521
 20
2178152.94861716
 10
694013.719611936
 20
2178151.63816474
  0
LWPOLYLINE
  5
20032
  8
0
100
AcDbEntity
100
AcDbPolyline
 70
0
 90
2
 38
0
 10
694010.06107535
 20
2178046.42755632
 10
694012.073270472
 20
2178045.49151888
  0
LWPOLYLINE
  5
20033
  8
0
100
AcDbEntity
100
AcDbPolyline
 70
0
 90
2
 38
0
 10
694010.426929009
 20
2178039.87529423
 10
694012.256197301
 20
2178039.12646427
  0
LWPOLYLINE
  5
20034
  8
0
100
AcDbEntity
100
AcDbPolyline
 70
0
 90
2
 38
0
 10
694010.792782667
 20
2178160.06250171
 10
694012.987904618
 20
2178158.93925678
  0
LWPOLYLINE
  5
20035
  8
0
100
AcDbEntity
100
AcDbPolyline
 70
0
 90
2
 38
0
 10
694010.975709497
 20
2178055.78793073
 10
694014.085465594
 20
2178054.6646858
  0
LWPOLYLINE
  5
20036
  8
0
100
AcDbEntity
100
AcDbPolyline
 70
0
 90
2
 38
0
 10
694010.975709497
 20
2178093.79105086
 10
694013.902538765
 20
2178092.85501341
  0
LWPOLYLINE
  5
20037
  8
0
100
AcDbEntity
100
AcDbPolyline
 70
0
 90
2
 38
0
 10
694011.158636326
 20
2178009.9220961
 10
694013.536685106
 20
2178009.17326614
  0
LWPOLYLINE
  5
20038
  8
0
100
AcDbEntity
100
AcDbPolyline
 70
0
 90
2
 38
0
 10
694011.341563155
 20
2178095.47591825
 10
694013.170831448
 20
2178094.7270883
  0
LWPOLYLINE
  5
20039
  8
0
100
AcDbEntity
100
AcDbPolyline
 70
0
 90
2
 38
0
 10
694011.524489984
 20
2178076.75516942
 10
694012.987904618
 20
2178076.00633947
  0
LWPOLYLINE
  5
2003A
  8
0
100
AcDbEntity
100
AcDbPolyline
 70
0
 90
2
 38
0
 10
694011.524489984
 20
2178124.11866396
 10
694014.451319253
 20
2178122.99541903
  0
LWPOLYLINE
  5
2003B
  8
0
100
AcDbEntity
100
AcDbPolyline
 70
0
 90
2
 38
0
 10
694011.890343643
 20
2178176.53676069
 10
694015.18302657
 20
2178175.22630827
  0
LWPOLYLINE
  5
2003C
  8
0
100
AcDbEntity
100
AcDbPolyline
 70
0
 90
2
 38
0
 10
694012.073270472
 20
2178016.47435819
 10
694014.268392423
 20
2178015.72552824
  0
LWPOLYLINE
  5
2003D
  8
0
100
AcDbEntity
100
AcDbPolyline
 70
0
 90
2
 38
0
 10
694012.256197301
 20
2178072.07498221
 10
694015.914733887
 20
2178070.76452979
  0
LWPOLYLINE
  5
2003E
  8
0
100
AcDbEntity
100
AcDbPolyline
 70
0
 90
2
 38
0
 10
694012.256197301
 20
2178074.69588705
 10
694014.634246082
 20
2178073.57264212
  0
LWPOLYLINE
  5
2003F
  8
0
100
AcDbEntity
100
AcDbPolyline
 70
0
 90
2
 38
0
 10
694012.256197301
 20
2178097.53520062
 10
694013.902538765
 20
2178096.59916318
  0
LWPOLYLINE
  5
20040
  8
0
100
AcDbEntity
100
AcDbPolyline
 70
0
 90
2
 38
0
 10
694012.256197301
 20
2178118.50243931
 10
694013.536685106
 20
2178117.94081685
  0
LWPOLYLINE
  5
20041
  8
0
100
AcDbEntity
100
AcDbPolyline
 70
0
 90
2
 38
0
 10
694012.62205096
 20
2178100.34331295
 10
694014.451319253
 20
2178099.59448299
  0
LWPOLYLINE
  5
20042
  8
0
100
AcDbEntity
100
AcDbPolyline
 70
0
 90
2
 38
0
 10
694012.804977789
 20
2178164.74268892
 10
694014.817172911
 20
2178163.99385897
  0
LWPOLYLINE
  5
20043
  8
0
100
AcDbEntity
100
AcDbPolyline
 70
0
 90
2
 38
0
 10
694012.987904618
 20
2178043.4322365
 10
694015.548880228
 20
2178042.68340655
  0
LWPOLYLINE
  5
20044
  8
0
100
AcDbEntity
100
AcDbPolyline
 70
0
 90
2
 38
0
 10
694013.170831448
 20
2178032.76140967
 10
694014.634246082
 20
2178032.19978721
  0
LWPOLYLINE
  5
20045
  8
0
100
AcDbEntity
100
AcDbPolyline
 70
0
 90
2
 38
0
 10
694013.353758277
 20
2178082.37139407
 10
694017.195221692
 20
2178080.87373416
  0
LWPOLYLINE
  5
20046
  8
0
100
AcDbEntity
100
AcDbPolyline
 70
0
 90
2
 38
0
 10
694013.353758277
 20
2178134.60228331
 10
694016.097660716
 20
2178133.47903837
  0
LWPOLYLINE
  5
20047
  8
0
100
AcDbEntity
100
AcDbPolyline
 70
0
 90
2
 38
0
 10
694013.719611936
 20
2178098.28403057
 10
694016.829368033
 20
2178096.78637067
  0
LWPOLYLINE
  5
20048
  8
0
100
AcDbEntity
100
AcDbPolyline
 70
0
 90
2
 38
0
 10
694014.085465594
 20
2178046.98917878
 10
694015.914733887
 20
2178046.05314134
  0
LWPOLYLINE
  5
20049
  8
0
100
AcDbEntity
100
AcDbPolyline
 70
0
 90
2
 38
0
 10
694014.085465594
 20
2178075.63192449
 10
694016.097660716
 20
2178075.07030203
  0
LWPOLYLINE
  5
2004A
  8
0
100
AcDbEntity
100
AcDbPolyline
 70
0
 90
2
 38
0
 10
694014.451319253
 20
2178017.9720181
 10
694016.463514375
 20
2178017.22318814
  0
LWPOLYLINE
  5
2004B
  8
0
100
AcDbEntity
100
AcDbPolyline
 70
0
 90
2
 38
0
 10
694014.634246082
 20
2178056.3495532
 10
694016.646441204
 20
2178055.78793073
  0
LWPOLYLINE
  5
2004C
  8
0
100
AcDbEntity
100
AcDbPolyline
 70
0
 90
2
 38
0
 10
694015.00009974
 20
2178099.22006802
 10
694017.56107535
 20
2178098.65844555
  0
LWPOLYLINE
  5
2004D
  8
0
100
AcDbEntity
100
AcDbPolyline
 70
0
 90
2
 38
0
 10
694015.00009974
 20
2178180.84253292
 10
694017.744002179
 20
2178179.90649547
  0
LWPOLYLINE
  5
2004E
  8
0
100
AcDbEntity
100
AcDbPolyline
 70
0
 90
2
 38
0
 10
694015.18302657
 20
2178076.75516942
 10
694017.012294862
 20
2178076.19354696
  0
LWPOLYLINE
  5
2004F
  8
0
100
AcDbEntity
100
AcDbPolyline
 70
0
 90
2
 38
0
 10
694015.18302657
 20
2178095.10150327
 10
694017.378148521
 20
2178094.35267332
  0
LWPOLYLINE
  5
20050
  8
0
100
AcDbEntity
100
AcDbPolyline
 70
0
 90
2
 38
0
 10
694015.365953399
 20
2178154.44627707
 10
694018.658636326
 20
2178153.32303214
  0
LWPOLYLINE
  5
20051
  8
0
100
AcDbEntity
100
AcDbPolyline
 70
0
 90
2
 38
0
 10
694015.548880228
 20
2178002.99541903
 10
694018.658636326
 20
2178002.05938159
  0
LWPOLYLINE
  5
20052
  8
0
100
AcDbEntity
100
AcDbPolyline
 70
0
 90
2
 38
0
 10
694016.097660716
 20
2178044.55548143
 10
694017.378148521
 20
2178043.99385897
  0
LWPOLYLINE
  5
20053
  8
0
100
AcDbEntity
100
AcDbPolyline
 70
0
 90
2
 38
0
 10
694016.463514375
 20
2178017.9720181
 10
694017.926929009
 20
2178017.59760312
  0
LWPOLYLINE
  5
20054
  8
0
100
AcDbEntity
100
AcDbPolyline
 70
0
 90
2
 38
0
 10
694016.463514375
 20
2178068.70524742
 10
694017.926929009
 20
2178068.33083245
  0
LWPOLYLINE
  5
20055
  8
0
100
AcDbEntity
100
AcDbPolyline
 70
0
 90
2
 38
0
 10
694016.463514375
 20
2178152.19978721
 10
694020.12205096
 20
2178150.88933479
  0
LWPOLYLINE
  5
20056
  8
0
100
AcDbEntity
100
AcDbPolyline
 70
0
 90
2
 38
0
 10
694016.463514375
 20
2178181.77857036
 10
694018.475709497
 20
2178180.84253292
  0
LWPOLYLINE
  5
20057
  8
0
100
AcDbEntity
100
AcDbPolyline
 70
0
 90
2
 38
0
 10
694016.646441204
 20
2178051.66936599
 10
694019.024489984
 20
2178050.73332855
  0
LWPOLYLINE
  5
20058
  8
0
100
AcDbEntity
100
AcDbPolyline
 70
0
 90
2
 38
0
 10
694017.012294862
 20
2178168.86125366
 10
694020.853758277
 20
2178167.55080125
  0
LWPOLYLINE
  5
20059
  8
0
100
AcDbEntity
100
AcDbPolyline
 70
0
 90
2
 38
0
 10
694017.195221692
 20
2178016.09994321
 10
694019.024489984
 20
2178015.53832075
  0
LWPOLYLINE
  5
2005A
  8
0
100
AcDbEntity
100
AcDbPolyline
 70
0
 90
2
 38
0
 10
694017.378148521
 20
2178082.74580905
 10
694019.207416814
 20
2178082.18418658
  0
LWPOLYLINE
  5
2005B
  8
0
100
AcDbEntity
100
AcDbPolyline
 70
0
 90
2
 38
0
 10
694018.475709497
 20
2178005.61632387
 10
694021.768392423
 20
2178004.30587145
  0
LWPOLYLINE
  5
2005C
  8
0
100
AcDbEntity
100
AcDbPolyline
 70
0
 90
2
 38
0
 10
694018.475709497
 20
2178158.56484181
 10
694019.756197301
 20
2178158.19042683
  0
LWPOLYLINE
  5
2005D
  8
0
100
AcDbEntity
100
AcDbPolyline
 70
0
 90
2
 38
0
 10
694018.658636326
 20
2178048.86125366
 10
694020.853758277
 20
2178048.11242371
  0
LWPOLYLINE
  5
2005E
  8
0
100
AcDbEntity
100
AcDbPolyline
 70
0
 90
2
 38
0
 10
694018.658636326
 20
2178102.96421778
 10
694020.487904618
 20
2178102.02818034
  0
LWPOLYLINE
  5
2005F
  8
0
100
AcDbEntity
100
AcDbPolyline
 70
0
 90
2
 38
0
 10
694018.841563155
 20
2178044.74268892
 10
694020.853758277
 20
2178043.99385897
  0
LWPOLYLINE
  5
20060
  8
0
100
AcDbEntity
100
AcDbPolyline
 70
0
 90
2
 38
0
 10
694018.841563155
 20
2178170.73332855
 10
694020.853758277
 20
2178169.98449859
  0
LWPOLYLINE
  5
20061
  8
0
100
AcDbEntity
100
AcDbPolyline
 70
0
 90
2
 38
0
 10
694019.207416814
 20
2178057.09838315
 10
694021.768392423
 20
2178055.97513822
  0
LWPOLYLINE
  5
20062
  8
0
100
AcDbEntity
100
AcDbPolyline
 70
0
 90
2
 38
0
 10
694019.207416814
 20
2178060.09370296
 10
694021.768392423
 20
2178058.97045803
  0
LWPOLYLINE
  5
20063
  8
0
100
AcDbEntity
100
AcDbPolyline
 70
0
 90
2
 38
0
 10
694019.207416814
 20
2178156.69276692
 10
694021.951319253
 20
2178155.38231451
  0
LWPOLYLINE
  5
20064
  8
0
100
AcDbEntity
100
AcDbPolyline
 70
0
 90
2
 38
0
 10
694019.207416814
 20
2178172.97981841
 10
694023.231807058
 20
2178171.4821585
  0
LWPOLYLINE
  5
20065
  8
0
100
AcDbEntity
100
AcDbPolyline
 70
0
 90
2
 38
0
 10
694019.573270472
 20
2178080.3121117
 10
694022.68302657
 20
2178079.37607426
  0
LWPOLYLINE
  5
20066
  8
0
100
AcDbEntity
100
AcDbPolyline
 70
0
 90
2
 38
0
 10
694019.573270472
 20
2178154.07186209
 10
694023.048880228
 20
2178152.57420218
  0
LWPOLYLINE
  5
20067
  8
0
100
AcDbEntity
100
AcDbPolyline
 70
0
 90
2
 38
0
 10
694020.12205096
 20
2178008.98605866
 10
694021.768392423
 20
2178008.2372287
  0
LWPOLYLINE
  5
20068
  8
0
100
AcDbEntity
100
AcDbPolyline
 70
0
 90
2
 38
0
 10
694020.12205096
 20
2178012.73020842
 10
694022.134246082
 20
2178012.16858596
  0
LWPOLYLINE
  5
20069
  8
0
100
AcDbEntity
100
AcDbPolyline
 70
0
 90
2
 38
0
 10
694020.304977789
 20
2178074.88309454
 10
694021.402538765
 20
2178074.13426459
  0
LWPOLYLINE
  5
2006A
  8
0
100
AcDbEntity
100
AcDbPolyline
 70
0
 90
2
 38
0
 10
694020.304977789
 20
2178087.80041123
 10
694021.951319253
 20
2178086.86437379
  0
LWPOLYLINE
  5
2006B
  8
0
100
AcDbEntity
100
AcDbPolyline
 70
0
 90
2
 38
0
 10
694020.487904618
 20
2178157.62880437
 10
694021.951319253
 20
2178157.25438939
  0
LWPOLYLINE
  5
2006C
  8
0
100
AcDbEntity
100
AcDbPolyline
 70
0
 90
2
 38
0
 10
694021.036685106
 20
2178163.99385897
 10
694023.780587545
 20
2178162.87061404
  0
LWPOLYLINE
  5
2006D
  8
0
100
AcDbEntity
100
AcDbPolyline
 70
0
 90
2
 38
0
 10
694021.402538765
 20
2178081.06094165
 10
694024.512294862
 20
2178079.93769672
  0
LWPOLYLINE
  5
2006E
  8
0
100
AcDbEntity
100
AcDbPolyline
 70
0
 90
2
 38
0
 10
694021.585465594
 20
2178173.72864836
 10
694023.963514375
 20
2178172.79261092
  0
LWPOLYLINE
  5
2006F
  8
0
100
AcDbEntity
100
AcDbPolyline
 70
0
 90
2
 38
0
 10
694021.768392423
 20
2178002.24658908
 10
694024.146441204
 20
2178001.12334415
  0
LWPOLYLINE
  5
20070
  8
0
100
AcDbEntity
100
AcDbPolyline
 70
0
 90
2
 38
0
 10
694021.951319253
 20
2178047.17638627
 10
694025.06107535
 20
2178045.86593385
  0
LWPOLYLINE
  5
20071
  8
0
100
AcDbEntity
100
AcDbPolyline
 70
0
 90
2
 38
0
 10
694022.134246082
 20
2178084.80509142
 10
694023.780587545
 20
2178084.24346895
  0
LWPOLYLINE
  5
20072
  8
0
100
AcDbEntity
100
AcDbPolyline
 70
0
 90
2
 38
0
 10
694022.134246082
 20
2178139.28247051
 10
694023.963514375
 20
2178138.53364056
  0
LWPOLYLINE
  5
20073
  8
0
100
AcDbEntity
100
AcDbPolyline
 70
0
 90
2
 38
0
 10
694022.134246082
 20
2178162.12178408
 10
694024.878148521
 20
2178160.99853915
  0
LWPOLYLINE
  5
20074
  8
0
100
AcDbEntity
100
AcDbPolyline
 70
0
 90
2
 38
0
 10
694022.317172911
 20
2178045.30431139
 10
694024.695221692
 20
2178044.55548143
  0
LWPOLYLINE
  5
20075
  8
0
100
AcDbEntity
100
AcDbPolyline
 70
0
 90
2
 38
0
 10
694022.317172911
 20
2178158.7520493
 10
694024.329368033
 20
2178158.00321934
  0
LWPOLYLINE
  5
20076
  8
0
100
AcDbEntity
100
AcDbPolyline
 70
0
 90
2
 38
0
 10
694022.68302657
 20
2178051.29495101
 10
694026.890343643
 20
2178049.79729111
  0
LWPOLYLINE
  5
20077
  8
0
100
AcDbEntity
100
AcDbPolyline
 70
0
 90
2
 38
0
 10
694022.865953399
 20
2178157.0671819
 10
694024.329368033
 20
2178155.94393697
  0
LWPOLYLINE
  5
20078
  8
0
100
AcDbEntity
100
AcDbPolyline
 70
0
 90
2
 38
0
 10
694023.231807058
 20
2178103.15142527
 10
694024.695221692
 20
2178102.7770103
  0
LWPOLYLINE
  5
20079
  8
0
100
AcDbEntity
100
AcDbPolyline
 70
0
 90
2
 38
0
 10
694023.414733887
 20
2178104.46187769
 10
694025.426929009
 20
2178103.71304774
  0
LWPOLYLINE
  5
2007A
  8
0
100
AcDbEntity
100
AcDbPolyline
 70
0
 90
2
 38
0
 10
694023.780587545
 20
2178061.0297404
 10
694025.244002179
 20
2178061.0297404
  0
LWPOLYLINE
  5
2007B
  8
0
100
AcDbEntity
100
AcDbPolyline
 70
0
 90
2
 38
0
 10
694024.512294862
 20
2178046.98917878
 10
694026.890343643
 20
2178046.05314134
  0
LWPOLYLINE
  5
2007C
  8
0
100
AcDbEntity
100
AcDbPolyline
 70
0
 90
2
 38
0
 10
694024.695221692
 20
2178164.74268892
 10
694026.341563155
 20
2178163.99385897
  0
LWPOLYLINE
  5
2007D
  8
0
100
AcDbEntity
100
AcDbPolyline
 70
0
 90
2
 38
0
 10
694024.878148521
 20
2178004.68028643
 10
694028.719611936
 20
2178003.36983401
  0
LWPOLYLINE
  5
2007E
  8
0
100
AcDbEntity
100
AcDbPolyline
 70
0
 90
2
 38
0
 10
694024.878148521
 20
2178135.91273572
 10
694026.890343643
 20
2178135.35111326
  0
LWPOLYLINE
  5
2007F
  8
0
100
AcDbEntity
100
AcDbPolyline
 70
0
 90
2
 38
0
 10
694025.06107535
 20
2178017.9720181
 10
694026.890343643
 20
2178017.22318814
  0
LWPOLYLINE
  5
20080
  8
0
100
AcDbEntity
100
AcDbPolyline
 70
0
 90
2
 38
0
 10
694025.792782667
 20
2178047.92521622
 10
694027.256197301
 20
2178047.36359376
  0
LWPOLYLINE
  5
20081
  8
0
100
AcDbEntity
100
AcDbPolyline
 70
0
 90
2
 38
0
 10
694025.975709497
 20
2178081.06094165
 10
694027.987904618
 20
2178080.49931919
  0
LWPOLYLINE
  5
20082
  8
0
100
AcDbEntity
100
AcDbPolyline
 70
0
 90
2
 38
0
 10
694025.975709497
 20
2178082.74580905
 10
694029.085465594
 20
2178081.99697909
  0
LWPOLYLINE
  5
20083
  8
0
100
AcDbEntity
100
AcDbPolyline
 70
0
 90
2
 38
0
 10
694025.975709497
 20
2178089.8596936
 10
694027.439124131
 20
2178089.29807114
  0
LWPOLYLINE
  5
20084
  8
0
100
AcDbEntity
100
AcDbPolyline
 70
0
 90
2
 38
0
 10
694026.341563155
 20
2178162.49619906
 10
694027.804977789
 20
2178161.74736911
  0
LWPOLYLINE
  5
20085
  8
0
100
AcDbEntity
100
AcDbPolyline
 70
0
 90
2
 38
0
 10
694026.524489984
 20
2178087.05158128
 10
694029.268392423
 20
2178086.11554384
  0
LWPOLYLINE
  5
20086
  8
0
100
AcDbEntity
100
AcDbPolyline
 70
0
 90
2
 38
0
 10
694026.890343643
 20
2178125.24190889
 10
694030.548880228
 20
2178124.11866396
  0
LWPOLYLINE
  5
20087
  8
0
100
AcDbEntity
100
AcDbPolyline
 70
0
 90
2
 38
0
 10
694026.890343643
 20
2178127.30119126
 10
694029.634246082
 20
2178126.36515382
  0
LWPOLYLINE
  5
20088
  8
0
100
AcDbEntity
100
AcDbPolyline
 70
0
 90
2
 38
0
 10
694026.890343643
 20
2178169.79729111
 10
694029.268392423
 20
2178168.67404618
  0
LWPOLYLINE
  5
20089
  8
0
100
AcDbEntity
100
AcDbPolyline
 70
0
 90
2
 38
0
 10
694027.439124131
 20
2178104.83629266
 10
694029.451319253
 20
2178104.08746271
  0
LWPOLYLINE
  5
2008A
  8
0
100
AcDbEntity
100
AcDbPolyline
 70
0
 90
2
 38
0
 10
694027.62205096
 20
2178129.36047363
 10
694029.817172911
 20
2178128.42443619
  0
LWPOLYLINE
  5
2008B
  8
0
100
AcDbEntity
100
AcDbPolyline
 70
0
 90
2
 38
0
 10
694028.170831448
 20
2178051.66936599
 10
694029.634246082
 20
2178050.92053604
  0
LWPOLYLINE
  5
2008C
  8
0
100
AcDbEntity
100
AcDbPolyline
 70
0
 90
2
 38
0
 10
694028.353758277
 20
2178011.04534103
 10
694030.731807058
 20
2178010.29651107
  0
LWPOLYLINE
  5
2008D
  8
0
100
AcDbEntity
100
AcDbPolyline
 70
0
 90
2
 38
0
 10
694028.536685106
 20
2178154.07186209
 10
694030.18302657
 20
2178153.32303214
  0
LWPOLYLINE
  5
2008E
  8
0
100
AcDbEntity
100
AcDbPolyline
 70
0
 90
2
 38
0
 10
694028.719611936
 20
2178012.35579345
 10
694031.829368033
 20
2178011.23254852
  0
LWPOLYLINE
  5
2008F
  8
0
100
AcDbEntity
100
AcDbPolyline
 70
0
 90
2
 38
0
 10
694028.719611936
 20
2178131.98137847
 10
694030.731807058
 20
2178131.23254852
  0
LWPOLYLINE
  5
20090
  8
0
100
AcDbEntity
100
AcDbPolyline
 70
0
 90
2
 38
0
 10
694028.902538765
 20
2178159.31367176
 10
694030.18302657
 20
2178158.7520493
  0
LWPOLYLINE
  5
20091
  8
0
100
AcDbEntity
100
AcDbPolyline
 70
0
 90
2
 38
0
 10
694029.085465594
 20
2178022.09058284
 10
694032.926929009
 20
2178020.40571544
  0
LWPOLYLINE
  5
20092
  8
0
100
AcDbEntity
100
AcDbPolyline
 70
0
 90
2
 38
0
 10
694029.085465594
 20
2178105.9595376
 10
694032.195221692
 20
2178105.58512262
  0
LWPOLYLINE
  5
20093
  8
0
100
AcDbEntity
100
AcDbPolyline
 70
0
 90
2
 38
0
 10
694029.268392423
 20
2178083.68184649
 10
694031.646441204
 20
2178082.93301653
  0
LWPOLYLINE
  5
20094
  8
0
100
AcDbEntity
100
AcDbPolyline
 70
0
 90
2
 38
0
 10
694029.634246082
 20
2178166.61476381
 10
694031.646441204
 20
2178165.67872636
  0
LWPOLYLINE
  5
20095
  8
0
100
AcDbEntity
100
AcDbPolyline
 70
0
 90
2
 38
0
 10
694029.817172911
 20
2178023.77545023
 10
694031.463514375
 20
2178023.40103525
  0
LWPOLYLINE
  5
20096
  8
0
100
AcDbEntity
100
AcDbPolyline
 70
0
 90
2
 38
0
 10
694029.817172911
 20
2178129.9220961
 10
694032.56107535
 20
2178128.61164368
  0
LWPOLYLINE
  5
20097
  8
0
100
AcDbEntity
100
AcDbPolyline
 70
0
 90
2
 38
0
 10
694029.817172911
 20
2178141.34175288
 10
694031.280587545
 20
2178140.96733791
  0
LWPOLYLINE
  5
20098
  8
0
100
AcDbEntity
100
AcDbPolyline
 70
0
 90
2
 38
0
 10
694030.18302657
 20
2178127.11398377
 10
694033.658636326
 20
2178125.99073884
  0
LWPOLYLINE
  5
20099
  8
0
100
AcDbEntity
100
AcDbPolyline
 70
0
 90
2
 38
0
 10
694030.731807058
 20
2178044.92989641
 10
694032.195221692
 20
2178044.55548143
  0
LWPOLYLINE
  5
2009A
  8
0
100
AcDbEntity
100
AcDbPolyline
 70
0
 90
2
 38
0
 10
694030.914733887
 20
2178013.66624586
 10
694032.378148521
 20
2178013.29183089
  0
LWPOLYLINE
  5
2009B
  8
0
100
AcDbEntity
100
AcDbPolyline
 70
0
 90
2
 38
0
 10
694030.914733887
 20
2178087.80041123
 10
694033.658636326
 20
2178086.86437379
  0
LWPOLYLINE
  5
2009C
  8
0
100
AcDbEntity
100
AcDbPolyline
 70
0
 90
2
 38
0
 10
694031.097660716
 20
2178007.11398377
 10
694033.292782667
 20
2178006.36515382
  0
LWPOLYLINE
  5
2009D
  8
0
100
AcDbEntity
100
AcDbPolyline
 70
0
 90
2
 38
0
 10
694031.280587545
 20
2178005.42911638
 10
694036.585465594
 20
2178003.36983401
  0
LWPOLYLINE
  5
2009E
  8
0
100
AcDbEntity
100
AcDbPolyline
 70
0
 90
2
 38
0
 10
694031.463514375
 20
2178130.85813354
 10
694033.292782667
 20
2178130.29651107
  0
LWPOLYLINE
  5
2009F
  8
0
100
AcDbEntity
100
AcDbPolyline
 70
0
 90
2
 38
0
 10
694031.646441204
 20
2178048.48683869
 10
694033.658636326
 20
2178047.73800873
  0
LWPOLYLINE
  5
200A0
  8
0
100
AcDbEntity
100
AcDbPolyline
 70
0
 90
2
 38
0
 10
694031.646441204
 20
2178104.2746702
 10
694032.926929009
 20
2178103.71304774
  0
LWPOLYLINE
  5
200A1
  8
0
100
AcDbEntity
100
AcDbPolyline
 70
0
 90
2
 38
0
 10
694032.012294862
 20
2178137.22318814
 10
694035.304977789
 20
2178136.09994321
  0
LWPOLYLINE
  5
200A2
  8
0
100
AcDbEntity
100
AcDbPolyline
 70
0
 90
2
 38
0
 10
694032.195221692
 20
2178078.81445179
 10
694033.658636326
 20
2178078.25282933
  0
LWPOLYLINE
  5
200A3
  8
0
100
AcDbEntity
100
AcDbPolyline
 70
0
 90
2
 38
0
 10
694032.56107535
 20
2178001.8721741
 10
694033.841563155
 20
2178001.12334415
  0
LWPOLYLINE
  5
200A4
  8
0
100
AcDbEntity
100
AcDbPolyline
 70
0
 90
2
 38
0
 10
694032.56107535
 20
2178046.24034883
 10
694035.670831448
 20
2178045.30431139
  0
LWPOLYLINE
  5
200A5
  8
0
100
AcDbEntity
100
AcDbPolyline
 70
0
 90
2
 38
0
 10
694032.56107535
 20
2178163.4322365
 10
694035.12205096
 20
2178162.68340655
  0
LWPOLYLINE
  5
200A6
  8
0
100
AcDbEntity
100
AcDbPolyline
 70
0
 90
2
 38
0
 10
694032.744002179
 20
2178164.74268892
 10
694036.402538765
 20
2178163.4322365
  0
LWPOLYLINE
  5
200A7
  8
0
100
AcDbEntity
100
AcDbPolyline
 70
0
 90
2
 38
0
 10
694032.926929009
 20
2178132.16858596
 10
694034.939124131
 20
2178131.23254852
  0
LWPOLYLINE
  5
200A8
  8
0
100
AcDbEntity
100
AcDbPolyline
 70
0
 90
2
 38
0
 10
694032.926929009
 20
2178172.04378096
 10
694034.390343643
 20
2178171.29495101
  0
LWPOLYLINE
  5
200A9
  8
0
100
AcDbEntity
100
AcDbPolyline
 70
0
 90
2
 38
0
 10
694033.292782667
 20
2178014.97669828
 10
694036.768392423
 20
2178013.66624586
  0
LWPOLYLINE
  5
200AA
  8
0
100
AcDbEntity
100
AcDbPolyline
 70
0
 90
2
 38
0
 10
694033.292782667
 20
2178082.18418658
 10
694035.12205096
 20
2178081.62256412
  0
LWPOLYLINE
  5
200AB
  8
0
100
AcDbEntity
100
AcDbPolyline
 70
0
 90
2
 38
0
 10
694033.475709497
 20
2178084.24346895
 10
694035.670831448
 20
2178083.30743151
  0
LWPOLYLINE
  5
200AC
  8
0
100
AcDbEntity
100
AcDbPolyline
 70
0
 90
2
 38
0
 10
694033.658636326
 20
2178020.96733791
 10
694035.853758277
 20
2178020.21850795
  0
LWPOLYLINE
  5
200AD
  8
0
100
AcDbEntity
100
AcDbPolyline
 70
0
 90
2
 38
0
 10
694033.658636326
 20
2178168.86125366
 10
694037.134246082
 20
2178167.36359376
  0
LWPOLYLINE
  5
200AE
  8
0
100
AcDbEntity
100
AcDbPolyline
 70
0
 90
2
 38
0
 10
694034.024489984
 20
2178102.40259532
 10
694035.670831448
 20
2178101.65376537
  0
LWPOLYLINE
  5
200AF
  8
0
100
AcDbEntity
100
AcDbPolyline
 70
0
 90
2
 38
0
 10
694034.390343643
 20
2178022.46499781
 10
694036.768392423
 20
2178021.34175288
  0
LWPOLYLINE
  5
200B0
  8
0
100
AcDbEntity
100
AcDbPolyline
 70
0
 90
2
 38
0
 10
694034.390343643
 20
2178134.60228331
 10
694036.585465594
 20
2178133.85345335
  0
LWPOLYLINE
  5
200B1
  8
0
100
AcDbEntity
100
AcDbPolyline
 70
0
 90
2
 38
0
 10
694034.573270472
 20
2178052.79261092
 10
694036.402538765
 20
2178052.04378096
  0
LWPOLYLINE
  5
200B2
  8
0
100
AcDbEntity
100
AcDbPolyline
 70
0
 90
2
 38
0
 10
694034.573270472
 20
2178079.18886677
 10
694036.036685106
 20
2178078.6272443
  0
LWPOLYLINE
  5
200B3
  8
0
100
AcDbEntity
100
AcDbPolyline
 70
0
 90
2
 38
0
 10
694034.573270472
 20
2178106.14674508
 10
694036.768392423
 20
2178105.02350015
  0
LWPOLYLINE
  5
200B4
  8
0
100
AcDbEntity
100
AcDbPolyline
 70
0
 90
2
 38
0
 10
694034.573270472
 20
2178164.92989641
 10
694036.768392423
 20
2178164.18106646
  0
LWPOLYLINE
  5
200B5
  8
0
100
AcDbEntity
100
AcDbPolyline
 70
0
 90
2
 38
0
 10
694034.756197301
 20
2178188.70524742
 10
694036.036685106
 20
2178188.14362496
  0
LWPOLYLINE
  5
200B6
  8
0
100
AcDbEntity
100
AcDbPolyline
 70
0
 90
2
 38
0
 10
694035.12205096
 20
2178140.03130047
 10
694036.585465594
 20
2178139.469678
  0
LWPOLYLINE
  5
200B7
  8
0
100
AcDbEntity
100
AcDbPolyline
 70
0
 90
2
 38
0
 10
694035.304977789
 20
2178023.96265772
 10
694039.146441204
 20
2178022.6522053
  0
LWPOLYLINE
  5
200B8
  8
0
100
AcDbEntity
100
AcDbPolyline
 70
0
 90
2
 38
0
 10
694035.487904618
 20
2178048.11242371
 10
694037.50009974
 20
2178047.55080125
  0
LWPOLYLINE
  5
200B9
  8
0
100
AcDbEntity
100
AcDbPolyline
 70
0
 90
2
 38
0
 10
694035.487904618
 20
2178107.64440499
 10
694036.951319253
 20
2178107.08278253
  0
LWPOLYLINE
  5
200BA
  8
0
100
AcDbEntity
100
AcDbPolyline
 70
0
 90
2
 38
0
 10
694035.670831448
 20
2178018.72084805
 10
694038.048880228
 20
2178017.9720181
  0
LWPOLYLINE
  5
200BB
  8
0
100
AcDbEntity
100
AcDbPolyline
 70
0
 90
2
 38
0
 10
694035.670831448
 20
2178050.54612106
 10
694037.865953399
 20
2178049.61008362
  0
LWPOLYLINE
  5
200BC
  8
0
100
AcDbEntity
100
AcDbPolyline
 70
0
 90
2
 38
0
 10
694036.402538765
 20
2178009.54768112
 10
694038.048880228
 20
2178009.17326614
  0
LWPOLYLINE
  5
200BD
  8
0
100
AcDbEntity
100
AcDbPolyline
 70
0
 90
2
 38
0
 10
694036.585465594
 20
2178051.66936599
 10
694038.963514375
 20
2178051.10774352
  0
LWPOLYLINE
  5
200BE
  8
0
100
AcDbEntity
100
AcDbPolyline
 70
0
 90
2
 38
0
 10
694036.768392423
 20
2178005.61632387
 10
694040.426929009
 20
2178004.30587145
  0
LWPOLYLINE
  5
200BF
  8
0
100
AcDbEntity
100
AcDbPolyline
 70
0
 90
2
 38
0
 10
694037.134246082
 20
2178057.8472131
 10
694039.146441204
 20
2178057.28559064
  0
LWPOLYLINE
  5
200C0
  8
0
100
AcDbEntity
100
AcDbPolyline
 70
0
 90
2
 38
0
 10
694037.317172911
 20
2178007.48839875
 10
694040.06107535
 20
2178006.36515382
  0
LWPOLYLINE
  5
200C1
  8
0
100
AcDbEntity
100
AcDbPolyline
 70
0
 90
2
 38
0
 10
694037.317172911
 20
2178063.65064524
 10
694039.146441204
 20
2178063.08902278
  0
LWPOLYLINE
  5
200C2
  8
0
100
AcDbEntity
100
AcDbPolyline
 70
0
 90
2
 38
0
 10
694037.50009974
 20
2178020.21850795
 10
694039.329368033
 20
2178019.469678
  0
LWPOLYLINE
  5
200C3
  8
0
100
AcDbEntity
100
AcDbPolyline
 70
0
 90
2
 38
0
 10
694037.50009974
 20
2178024.71148767
 10
694040.609855838
 20
2178023.58824274
  0
LWPOLYLINE
  5
200C4
  8
0
100
AcDbEntity
100
AcDbPolyline
 70
0
 90
2
 38
0
 10
694037.865953399
 20
2178135.53832075
 10
694040.975709497
 20
2178134.41507582
  0
LWPOLYLINE
  5
200C5
  8
0
100
AcDbEntity
100
AcDbPolyline
 70
0
 90
2
 38
0
 10
694037.865953399
 20
2178186.27155008
 10
694040.792782667
 20
2178185.70992761
  0
LWPOLYLINE
  5
200C6
  8
0
100
AcDbEntity
100
AcDbPolyline
 70
0
 90
2
 38
0
 10
694038.780587545
 20
2178106.14674508
 10
694040.426929009
 20
2178105.58512262
  0
LWPOLYLINE
  5
200C7
  8
0
100
AcDbEntity
100
AcDbPolyline
 70
0
 90
2
 38
0
 10
694038.963514375
 20
2178014.04066084
 10
694040.426929009
 20
2178013.47903837
  0
LWPOLYLINE
  5
200C8
  8
0
100
AcDbEntity
100
AcDbPolyline
 70
0
 90
2
 38
0
 10
694038.963514375
 20
2178188.33083245
 10
694041.524489984
 20
2178187.20758752
  0
LWPOLYLINE
  5
200C9
  8
0
100
AcDbEntity
100
AcDbPolyline
 70
0
 90
2
 38
0
 10
694039.329368033
 20
2178027.33239251
 10
694041.524489984
 20
2178026.02194009
  0
LWPOLYLINE
  5
200CA
  8
0
100
AcDbEntity
100
AcDbPolyline
 70
0
 90
2
 38
0
 10
694039.512294862
 20
2178001.68496661
 10
694041.158636326
 20
2178000.93613666
  0
LWPOLYLINE
  5
200CB
  8
0
100
AcDbEntity
100
AcDbPolyline
 70
0
 90
2
 38
0
 10
694039.512294862
 20
2178055.41351575
 10
694042.073270472
 20
2178054.6646858
  0
LWPOLYLINE
  5
200CC
  8
0
100
AcDbEntity
100
AcDbPolyline
 70
0
 90
2
 38
0
 10
694039.512294862
 20
2178136.09994321
 10
694041.890343643
 20
2178135.16390577
  0
LWPOLYLINE
  5
200CD
  8
0
100
AcDbEntity
100
AcDbPolyline
 70
0
 90
2
 38
0
 10
694040.06107535
 20
2178011.60696349
 10
694043.719611936
 20
2178010.10930359
  0
LWPOLYLINE
  5
200CE
  8
0
100
AcDbEntity
100
AcDbPolyline
 70
0
 90
2
 38
0
 10
694040.06107535
 20
2178062.7146078
 10
694041.341563155
 20
2178062.34019282
  0
LWPOLYLINE
  5
200CF
  8
0
100
AcDbEntity
100
AcDbPolyline
 70
0
 90
2
 38
0
 10
694040.06107535
 20
2178139.84409298
 10
694042.439124131
 20
2178138.90805554
  0
LWPOLYLINE
  5
200D0
  8
0
100
AcDbEntity
100
AcDbPolyline
 70
0
 90
2
 38
0
 10
694040.06107535
 20
2178149.39167488
 10
694041.341563155
 20
2178148.83005242
  0
LWPOLYLINE
  5
200D1
  8
0
100
AcDbEntity
100
AcDbPolyline
 70
0
 90
2
 38
0
 10
694040.244002179
 20
2178010.29651107
 10
694042.62205096
 20
2178009.54768112
  0
LWPOLYLINE
  5
200D2
  8
0
100
AcDbEntity
100
AcDbPolyline
 70
0
 90
2
 38
0
 10
694040.244002179
 20
2178033.32303214
 10
694041.524489984
 20
2178032.94861716
  0
LWPOLYLINE
  5
200D3
  8
0
100
AcDbEntity
100
AcDbPolyline
 70
0
 90
2
 38
0
 10
694040.426929009
 20
2178109.51647987
 10
694041.890343643
 20
2178108.76764992
  0
LWPOLYLINE
  5
200D4
  8
0
100
AcDbEntity
100
AcDbPolyline
 70
0
 90
2
 38
0
 10
694040.609855838
 20
2178058.78325054
 10
694042.256197301
 20
2178058.22162808
  0
LWPOLYLINE
  5
200D5
  8
0
100
AcDbEntity
100
AcDbPolyline
 70
0
 90
2
 38
0
 10
694040.975709497
 20
2178003.18262652
 10
694043.902538765
 20
2178002.24658908
  0
LWPOLYLINE
  5
200D6
  8
0
100
AcDbEntity
100
AcDbPolyline
 70
0
 90
2
 38
0
 10
694040.975709497
 20
2178027.5196
 10
694042.804977789
 20
2178026.77077004
  0
LWPOLYLINE
  5
200D7
  8
0
100
AcDbEntity
100
AcDbPolyline
 70
0
 90
2
 38
0
 10
694041.158636326
 20
2178111.38855476
 10
694045.00009974
 20
2178109.89089485
  0
LWPOLYLINE
  5
200D8
  8
0
100
AcDbEntity
100
AcDbPolyline
 70
0
 90
2
 38
0
 10
694041.341563155
 20
2178017.9720181
 10
694043.353758277
 20
2178017.22318814
  0
LWPOLYLINE
  5
200D9
  8
0
100
AcDbEntity
100
AcDbPolyline
 70
0
 90
2
 38
0
 10
694041.524489984
 20
2178029.76608986
 10
694043.353758277
 20
2178029.0172599
  0
LWPOLYLINE
  5
200DA
  8
0
100
AcDbEntity
100
AcDbPolyline
 70
0
 90
2
 38
0
 10
694041.707416814
 20
2178015.72552824
 10
694047.012294862
 20
2178013.85345335
  0
LWPOLYLINE
  5
200DB
  8
0
100
AcDbEntity
100
AcDbPolyline
 70
0
 90
2
 38
0
 10
694041.707416814
 20
2178181.59136287
 10
694043.170831448
 20
2178181.21694789
  0
LWPOLYLINE
  5
200DC
  8
0
100
AcDbEntity
100
AcDbPolyline
 70
0
 90
2
 38
0
 10
694041.890343643
 20
2178000.56172168
 10
694043.902538765
 20
2178000.18730671
  0
LWPOLYLINE
  5
200DD
  8
0
100
AcDbEntity
100
AcDbPolyline
 70
0
 90
2
 38
0
 10
694042.256197301
 20
2178023.40103525
 10
694045.731807058
 20
2178022.09058284
  0
LWPOLYLINE
  5
200DE
  8
0
100
AcDbEntity
100
AcDbPolyline
 70
0
 90
2
 38
0
 10
694042.256197301
 20
2178031.26374976
 10
694043.536685106
 20
2178030.7021273
  0
LWPOLYLINE
  5
200DF
  8
0
100
AcDbEntity
100
AcDbPolyline
 70
0
 90
2
 38
0
 10
694042.804977789
 20
2178006.92677628
 10
694045.00009974
 20
2178005.99073884
  0
LWPOLYLINE
  5
200E0
  8
0
100
AcDbEntity
100
AcDbPolyline
 70
0
 90
2
 38
0
 10
694042.804977789
 20
2178018.72084805
 10
694047.012294862
 20
2178017.03598065
  0
LWPOLYLINE
  5
200E1
  8
0
100
AcDbEntity
100
AcDbPolyline
 70
0
 90
2
 38
0
 10
694042.987904618
 20
2178025.27311014
 10
694044.451319253
 20
2178024.52428018
  0
LWPOLYLINE
  5
200E2
  8
0
100
AcDbEntity
100
AcDbPolyline
 70
0
 90
2
 38
0
 10
694043.536685106
 20
2178011.419756
 10
694045.548880228
 20
2178010.48371856
  0
LWPOLYLINE
  5
200E3
  8
0
100
AcDbEntity
100
AcDbPolyline
 70
0
 90
2
 38
0
 10
694043.902538765
 20
2178136.2871507
 10
694046.097660716
 20
2178135.72552824
  0
LWPOLYLINE
  5
200E4
  8
0
100
AcDbEntity
100
AcDbPolyline
 70
0
 90
2
 38
0
 10
694043.902538765
 20
2178137.9720181
 10
694046.646441204
 20
2178136.84877317
  0
LWPOLYLINE
  5
200E5
  8
0
100
AcDbEntity
100
AcDbPolyline
 70
0
 90
2
 38
0
 10
694044.085465594
 20
2178027.89401498
 10
694045.731807058
 20
2178027.5196
  0
LWPOLYLINE
  5
200E6
  8
0
100
AcDbEntity
100
AcDbPolyline
 70
0
 90
2
 38
0
 10
694044.085465594
 20
2178055.97513822
 10
694045.914733887
 20
2178055.22630827
  0
LWPOLYLINE
  5
200E7
  8
0
100
AcDbEntity
100
AcDbPolyline
 70
0
 90
2
 38
0
 10
694044.085465594
 20
2178092.66780593
 10
694046.829368033
 20
2178091.73176849
  0
LWPOLYLINE
  5
200E8
  8
0
100
AcDbEntity
100
AcDbPolyline
 70
0
 90
2
 38
0
 10
694044.268392423
 20
2178008.79885117
 10
694045.548880228
 20
2178008.42443619
  0
LWPOLYLINE
  5
200E9
  8
0
100
AcDbEntity
100
AcDbPolyline
 70
0
 90
2
 38
0
 10
694044.817172911
 20
2178025.46031763
 10
694046.646441204
 20
2178024.71148767
  0
LWPOLYLINE
  5
200EA
  8
0
100
AcDbEntity
100
AcDbPolyline
 70
0
 90
2
 38
0
 10
694045.00009974
 20
2178053.54144087
 10
694046.463514375
 20
2178052.79261092
  0
LWPOLYLINE
  5
200EB
  8
0
100
AcDbEntity
100
AcDbPolyline
 70
0
 90
2
 38
0
 10
694045.365953399
 20
2178108.39323494
 10
694046.829368033
 20
2178107.83161248
  0
LWPOLYLINE
  5
200EC
  8
0
100
AcDbEntity
100
AcDbPolyline
 70
0
 90
2
 38
0
 10
694045.548880228
 20
2178029.0172599
 10
694047.378148521
 20
2178028.26842995
  0
LWPOLYLINE
  5
200ED
  8
0
100
AcDbEntity
100
AcDbPolyline
 70
0
 90
2
 38
0
 10
694045.731807058
 20
2178018.90805554
 10
694047.926929009
 20
2178017.78481061
  0
LWPOLYLINE
  5
200EE
  8
0
100
AcDbEntity
100
AcDbPolyline
 70
0
 90
2
 38
0
 10
694045.914733887
 20
2178141.71616786
 10
694047.926929009
 20
2178140.59292293
  0
LWPOLYLINE
  5
200EF
  8
0
100
AcDbEntity
100
AcDbPolyline
 70
0
 90
2
 38
0
 10
694046.097660716
 20
2178056.53676069
 10
694047.744002179
 20
2178055.97513822
  0
LWPOLYLINE
  5
200F0
  8
0
100
AcDbEntity
100
AcDbPolyline
 70
0
 90
2
 38
0
 10
694046.280587545
 20
2178060.46811794
 10
694047.926929009
 20
2178059.90649547
  0
LWPOLYLINE
  5
200F1
  8
0
100
AcDbEntity
100
AcDbPolyline
 70
0
 90
2
 38
0
 10
694046.280587545
 20
2178181.96577785
 10
694047.926929009
 20
2178181.21694789
  0
LWPOLYLINE
  5
200F2
  8
0
100
AcDbEntity
100
AcDbPolyline
 70
0
 90
2
 38
0
 10
694046.463514375
 20
2178002.05938159
 10
694047.744002179
 20
2178001.49775912
  0
LWPOLYLINE
  5
200F3
  8
0
100
AcDbEntity
100
AcDbPolyline
 70
0
 90
2
 38
0
 10
694047.195221692
 20
2178138.90805554
 10
694049.207416814
 20
2178138.15922558
  0
LWPOLYLINE
  5
200F4
  8
0
100
AcDbEntity
100
AcDbPolyline
 70
0
 90
2
 38
0
 10
694047.378148521
 20
2178023.02662028
 10
694050.304977789
 20
2178021.71616786
  0
LWPOLYLINE
  5
200F5
  8
0
100
AcDbEntity
100
AcDbPolyline
 70
0
 90
2
 38
0
 10
694047.926929009
 20
2178024.52428018
 10
694049.207416814
 20
2178023.96265772
  0
LWPOLYLINE
  5
200F6
  8
0
100
AcDbEntity
100
AcDbPolyline
 70
0
 90
2
 38
0
 10
694047.926929009
 20
2178149.0172599
 10
694049.756197301
 20
2178148.08122246
  0
LWPOLYLINE
  5
200F7
  8
0
100
AcDbEntity
100
AcDbPolyline
 70
0
 90
2
 38
0
 10
694048.475709497
 20
2178092.85501341
 10
694050.12205096
 20
2178092.29339095
  0
LWPOLYLINE
  5
200F8
  8
0
100
AcDbEntity
100
AcDbPolyline
 70
0
 90
2
 38
0
 10
694048.841563155
 20
2178058.78325054
 10
694050.487904618
 20
2178058.59604306
  0
LWPOLYLINE
  5
200F9
  8
0
100
AcDbEntity
100
AcDbPolyline
 70
0
 90
2
 38
0
 10
694049.024489984
 20
2178086.11554384
 10
694050.670831448
 20
2178085.55392137
  0
LWPOLYLINE
  5
200FA
  8
0
100
AcDbEntity
100
AcDbPolyline
 70
0
 90
2
 38
0
 10
694049.024489984
 20
2178143.02662028
 10
694051.402538765
 20
2178142.09058284
  0
LWPOLYLINE
  5
200FB
  8
0
100
AcDbEntity
100
AcDbPolyline
 70
0
 90
2
 38
0
 10
694049.207416814
 20
2178057.09838315
 10
694050.853758277
 20
2178056.3495532
  0
LWPOLYLINE
  5
200FC
  8
0
100
AcDbEntity
100
AcDbPolyline
 70
0
 90
2
 38
0
 10
694049.390343643
 20
2178180.65532543
 10
694052.317172911
 20
2178179.5320805
  0
LWPOLYLINE
  5
200FD
  8
0
100
AcDbEntity
100
AcDbPolyline
 70
0
 90
2
 38
0
 10
694049.390343643
 20
2178182.15298533
 10
694051.219611936
 20
2178181.77857036
  0
LWPOLYLINE
  5
200FE
  8
0
100
AcDbEntity
100
AcDbPolyline
 70
0
 90
2
 38
0
 10
694049.939124131
 20
2178133.85345335
 10
694051.768392423
 20
2178133.29183089
  0
LWPOLYLINE
  5
200FF
  8
0
100
AcDbEntity
100
AcDbPolyline
 70
0
 90
2
 38
0
 10
694050.304977789
 20
2178098.28403057
 10
694051.768392423
 20
2178097.72240811
  0
LWPOLYLINE
  5
20100
  8
0
100
AcDbEntity
100
AcDbPolyline
 70
0
 90
2
 38
0
 10
694050.670831448
 20
2178184.2122677
 10
694052.317172911
 20
2178183.65064524
  0
LWPOLYLINE
  5
20101
  8
0
100
AcDbEntity
100
AcDbPolyline
 70
0
 90
2
 38
0
 10
694051.036685106
 20
2178187.20758752
 10
694052.68302657
 20
2178186.45875756
  0
LWPOLYLINE
  5
20102
  8
0
100
AcDbEntity
100
AcDbPolyline
 70
0
 90
2
 38
0
 10
694051.219611936
 20
2178137.59760312
 10
694052.865953399
 20
2178136.84877317
  0
LWPOLYLINE
  5
20103
  8
0
100
AcDbEntity
100
AcDbPolyline
 70
0
 90
2
 38
0
 10
694051.402538765
 20
2178094.16546583
 10
694053.414733887
 20
2178093.60384337
  0
LWPOLYLINE
  5
20104
  8
0
100
AcDbEntity
100
AcDbPolyline
 70
0
 90
2
 38
0
 10
694051.402538765
 20
2178139.469678
 10
694053.231807058
 20
2178138.72084805
  0
LWPOLYLINE
  5
20105
  8
0
100
AcDbEntity
100
AcDbPolyline
 70
0
 90
2
 38
0
 10
694051.951319253
 20
2178029.95329735
 10
694053.414733887
 20
2178029.20446739
  0
LWPOLYLINE
  5
20106
  8
0
100
AcDbEntity
100
AcDbPolyline
 70
0
 90
2
 38
0
 10
694051.951319253
 20
2178058.59604306
 10
694053.963514375
 20
2178058.03442059
  0
LWPOLYLINE
  5
20107
  8
0
100
AcDbEntity
100
AcDbPolyline
 70
0
 90
2
 38
0
 10
694052.134246082
 20
2178095.47591825
 10
694053.963514375
 20
2178094.7270883
  0
LWPOLYLINE
  5
20108
  8
0
100
AcDbEntity
100
AcDbPolyline
 70
0
 90
2
 38
0
 10
694052.317172911
 20
2178182.7146078
 10
694057.073270472
 20
2178180.84253292
  0
LWPOLYLINE
  5
20109
  8
0
100
AcDbEntity
100
AcDbPolyline
 70
0
 90
2
 38
0
 10
694052.68302657
 20
2178059.90649547
 10
694054.878148521
 20
2178058.78325054
  0
LWPOLYLINE
  5
2010A
  8
0
100
AcDbEntity
100
AcDbPolyline
 70
0
 90
2
 38
0
 10
694053.597660716
 20
2178000.93613666
 10
694055.06107535
 20
2178000.56172168
  0
LWPOLYLINE
  5
2010B
  8
0
100
AcDbEntity
100
AcDbPolyline
 70
0
 90
2
 38
0
 10
694053.963514375
 20
2178099.4072755
 10
694056.707416814
 20
2178098.47123806
  0
LWPOLYLINE
  5
2010C
  8
0
100
AcDbEntity
100
AcDbPolyline
 70
0
 90
2
 38
0
 10
694054.146441204
 20
2178152.01257972
 10
694055.609855838
 20
2178151.45095725
  0
LWPOLYLINE
  5
2010D
  8
0
100
AcDbEntity
100
AcDbPolyline
 70
0
 90
2
 38
0
 10
694054.695221692
 20
2178032.38699469
 10
694056.524489984
 20
2178031.82537223
  0
LWPOLYLINE
  5
2010E
  8
0
100
AcDbEntity
100
AcDbPolyline
 70
0
 90
2
 38
0
 10
694055.244002179
 20
2178187.02038003
 10
694057.256197301
 20
2178186.45875756
  0
LWPOLYLINE
  5
2010F
  8
0
100
AcDbEntity
100
AcDbPolyline
 70
0
 90
2
 38
0
 10
694055.426929009
 20
2178034.07186209
 10
694059.268392423
 20
2178032.38699469
  0
LWPOLYLINE
  5
20110
  8
0
100
AcDbEntity
100
AcDbPolyline
 70
0
 90
2
 38
0
 10
694055.609855838
 20
2178162.68340655
 10
694057.256197301
 20
2178162.12178408
  0
LWPOLYLINE
  5
20111
  8
0
100
AcDbEntity
100
AcDbPolyline
 70
0
 90
2
 38
0
 10
694055.792782667
 20
2178090.04690109
 10
694057.256197301
 20
2178089.48527863
  0
LWPOLYLINE
  5
20112
  8
0
100
AcDbEntity
100
AcDbPolyline
 70
0
 90
2
 38
0
 10
694055.792782667
 20
2178138.90805554
 10
694057.256197301
 20
2178138.34643307
  0
LWPOLYLINE
  5
20113
  8
0
100
AcDbEntity
100
AcDbPolyline
 70
0
 90
2
 38
0
 10
694056.341563155
 20
2178058.59604306
 10
694057.987904618
 20
2178057.8472131
  0
LWPOLYLINE
  5
20114
  8
0
100
AcDbEntity
100
AcDbPolyline
 70
0
 90
2
 38
0
 10
694056.524489984
 20
2178095.85033323
 10
694058.170831448
 20
2178095.10150327
  0
LWPOLYLINE
  5
20115
  8
0
100
AcDbEntity
100
AcDbPolyline
 70
0
 90
2
 38
0
 10
694057.804977789
 20
2178142.6522053
 10
694060.18302657
 20
2178141.71616786
  0
LWPOLYLINE
  5
20116
  8
0
100
AcDbEntity
100
AcDbPolyline
 70
0
 90
2
 38
0
 10
694057.804977789
 20
2178164.36827395
 10
694059.451319253
 20
2178163.80665148
  0
LWPOLYLINE
  5
20117
  8
0
100
AcDbEntity
100
AcDbPolyline
 70
0
 90
2
 38
0
 10
694058.170831448
 20
2178025.64752511
 10
694060.914733887
 20
2178024.89869516
  0
LWPOLYLINE
  5
20118
  8
0
100
AcDbEntity
100
AcDbPolyline
 70
0
 90
2
 38
0
 10
694058.353758277
 20
2178040.81133167
 10
694060.00009974
 20
2178040.62412418
  0
LWPOLYLINE
  5
20119
  8
0
100
AcDbEntity
100
AcDbPolyline
 70
0
 90
2
 38
0
 10
694058.719611936
 20
2178163.4322365
 10
694062.378148521
 20
2178161.74736911
  0
LWPOLYLINE
  5
2011A
  8
0
100
AcDbEntity
100
AcDbPolyline
 70
0
 90
2
 38
0
 10
694058.902538765
 20
2178028.64284493
 10
694060.548880228
 20
2178028.08122246
  0
LWPOLYLINE
  5
2011B
  8
0
100
AcDbEntity
100
AcDbPolyline
 70
0
 90
2
 38
0
 10
694058.902538765
 20
2178165.49151888
 10
694060.365953399
 20
2178164.92989641
  0
LWPOLYLINE
  5
2011C
  8
0
100
AcDbEntity
100
AcDbPolyline
 70
0
 90
2
 38
0
 10
694059.085465594
 20
2178080.12490421
 10
694060.548880228
 20
2178079.75048923
  0
LWPOLYLINE
  5
2011D
  8
0
100
AcDbEntity
100
AcDbPolyline
 70
0
 90
2
 38
0
 10
694059.451319253
 20
2178154.63348455
 10
694061.829368033
 20
2178153.51023962
  0
LWPOLYLINE
  5
2011E
  8
0
100
AcDbEntity
100
AcDbPolyline
 70
0
 90
2
 38
0
 10
694059.634246082
 20
2178184.02506022
 10
694061.463514375
 20
2178183.46343775
  0
LWPOLYLINE
  5
2011F
  8
0
100
AcDbEntity
100
AcDbPolyline
 70
0
 90
2
 38
0
 10
694060.00009974
 20
2178094.35267332
 10
694061.829368033
 20
2178093.60384337
  0
LWPOLYLINE
  5
20120
  8
0
100
AcDbEntity
100
AcDbPolyline
 70
0
 90
2
 38
0
 10
694060.00009974
 20
2178157.62880437
 10
694062.56107535
 20
2178156.50555944
  0
LWPOLYLINE
  5
20121
  8
0
100
AcDbEntity
100
AcDbPolyline
 70
0
 90
2
 38
0
 10
694060.365953399
 20
2178032.94861716
 10
694062.744002179
 20
2178032.19978721
  0
LWPOLYLINE
  5
20122
  8
0
100
AcDbEntity
100
AcDbPolyline
 70
0
 90
2
 38
0
 10
694060.548880228
 20
2178034.44627707
 10
694063.109855838
 20
2178033.51023962
  0
LWPOLYLINE
  5
20123
  8
0
100
AcDbEntity
100
AcDbPolyline
 70
0
 90
2
 38
0
 10
694061.097660716
 20
2178001.31055164
 10
694062.926929009
 20
2178000.18730671
  0
LWPOLYLINE
  5
20124
  8
0
100
AcDbEntity
100
AcDbPolyline
 70
0
 90
2
 38
0
 10
694061.463514375
 20
2178061.77857036
 10
694062.56107535
 20
2178061.0297404
  0
LWPOLYLINE
  5
20125
  8
0
100
AcDbEntity
100
AcDbPolyline
 70
0
 90
2
 38
0
 10
694062.012294862
 20
2178154.63348455
 10
694064.024489984
 20
2178153.8846546
  0
LWPOLYLINE
  5
20126
  8
0
100
AcDbEntity
100
AcDbPolyline
 70
0
 90
2
 38
0
 10
694062.195221692
 20
2178143.77545023
 10
694064.390343643
 20
2178143.58824274
  0
LWPOLYLINE
  5
20127
  8
0
100
AcDbEntity
100
AcDbPolyline
 70
0
 90
2
 38
0
 10
694062.378148521
 20
2178035.94393697
 10
694065.670831448
 20
2178034.63348455
  0
LWPOLYLINE
  5
20128
  8
0
100
AcDbEntity
100
AcDbPolyline
 70
0
 90
2
 38
0
 10
694062.56107535
 20
2178030.88933479
 10
694064.573270472
 20
2178030.32771232
  0
LWPOLYLINE
  5
20129
  8
0
100
AcDbEntity
100
AcDbPolyline
 70
0
 90
2
 38
0
 10
694062.56107535
 20
2178152.01257972
 10
694066.219611936
 20
2178150.51491981
  0
LWPOLYLINE
  5
2012A
  8
0
100
AcDbEntity
100
AcDbPolyline
 70
0
 90
2
 38
0
 10
694062.744002179
 20
2178099.03286053
 10
694070.426929009
 20
2178096.41195569
  0
LWPOLYLINE
  5
2012B
  8
0
100
AcDbEntity
100
AcDbPolyline
 70
0
 90
2
 38
0
 10
694062.926929009
 20
2178004.49307894
 10
694064.573270472
 20
2178004.11866396
  0
LWPOLYLINE
  5
2012C
  8
0
100
AcDbEntity
100
AcDbPolyline
 70
0
 90
2
 38
0
 10
694062.926929009
 20
2178159.50087925
 10
694066.036685106
 20
2178158.56484181
  0
LWPOLYLINE
  5
2012D
  8
0
100
AcDbEntity
100
AcDbPolyline
 70
0
 90
2
 38
0
 10
694063.109855838
 20
2178001.8721741
 10
694066.036685106
 20
2178000.93613666
  0
LWPOLYLINE
  5
2012E
  8
0
100
AcDbEntity
100
AcDbPolyline
 70
0
 90
2
 38
0
 10
694063.475709497
 20
2178110.07810234
 10
694064.939124131
 20
2178109.51647987
  0
LWPOLYLINE
  5
2012F
  8
0
100
AcDbEntity
100
AcDbPolyline
 70
0
 90
2
 38
0
 10
694063.658636326
 20
2178166.80197129
 10
694065.670831448
 20
2178166.24034883
  0
LWPOLYLINE
  5
20130
  8
0
100
AcDbEntity
100
AcDbPolyline
 70
0
 90
2
 38
0
 10
694064.024489984
 20
2178126.7395688
 10
694065.304977789
 20
2178126.36515382
  0
LWPOLYLINE
  5
20131
  8
0
100
AcDbEntity
100
AcDbPolyline
 70
0
 90
2
 38
0
 10
694065.304977789
 20
2178036.50555944
 10
694068.597660716
 20
2178035.19510702
  0
LWPOLYLINE
  5
20132
  8
0
100
AcDbEntity
100
AcDbPolyline
 70
0
 90
2
 38
0
 10
694065.304977789
 20
2178145.08590265
 10
694067.317172911
 20
2178143.96265772
  0
LWPOLYLINE
  5
20133
  8
0
100
AcDbEntity
100
AcDbPolyline
 70
0
 90
2
 38
0
 10
694066.585465594
 20
2178001.68496661
 10
694068.963514375
 20
2178000.93613666
  0
LWPOLYLINE
  5
20134
  8
0
100
AcDbEntity
100
AcDbPolyline
 70
0
 90
2
 38
0
 10
694066.768392423
 20
2178003.18262652
 10
694069.329368033
 20
2178002.24658908
  0
LWPOLYLINE
  5
20135
  8
0
100
AcDbEntity
100
AcDbPolyline
 70
0
 90
2
 38
0
 10
694066.951319253
 20
2178090.42131607
 10
694070.244002179
 20
2178089.67248611
  0
LWPOLYLINE
  5
20136
  8
0
100
AcDbEntity
100
AcDbPolyline
 70
0
 90
2
 38
0
 10
694067.317172911
 20
2178152.76140967
 10
694068.780587545
 20
2178152.01257972
  0
LWPOLYLINE
  5
20137
  8
0
100
AcDbEntity
100
AcDbPolyline
 70
0
 90
2
 38
0
 10
694067.865953399
 20
2178127.86281373
 10
694069.146441204
 20
2178127.30119126
  0
LWPOLYLINE
  5
20138
  8
0
100
AcDbEntity
100
AcDbPolyline
 70
0
 90
2
 38
0
 10
694068.231807058
 20
2178004.68028643
 10
694069.512294862
 20
2178004.11866396
  0
LWPOLYLINE
  5
20139
  8
0
100
AcDbEntity
100
AcDbPolyline
 70
0
 90
2
 38
0
 10
694068.231807058
 20
2178110.07810234
 10
694069.878148521
 20
2178109.51647987
  0
LWPOLYLINE
  5
2013A
  8
0
100
AcDbEntity
100
AcDbPolyline
 70
0
 90
2
 38
0
 10
694069.146441204
 20
2178091.91897597
 10
694071.707416814
 20
2178090.98293853
  0
LWPOLYLINE
  5
2013B
  8
0
100
AcDbEntity
100
AcDbPolyline
 70
0
 90
2
 38
0
 10
694069.146441204
 20
2178101.27935039
 10
694071.707416814
 20
2178100.34331295
  0
LWPOLYLINE
  5
2013C
  8
0
100
AcDbEntity
100
AcDbPolyline
 70
0
 90
2
 38
0
 10
694069.512294862
 20
2178073.19822714
 10
694070.975709497
 20
2178072.2621897
  0
LWPOLYLINE
  5
2013D
  8
0
100
AcDbEntity
100
AcDbPolyline
 70
0
 90
2
 38
0
 10
694069.512294862
 20
2178111.01413978
 10
694070.975709497
 20
2178110.6397248
  0
LWPOLYLINE
  5
2013E
  8
0
100
AcDbEntity
100
AcDbPolyline
 70
0
 90
2
 38
0
 10
694069.512294862
 20
2178145.27311014
 10
694071.524489984
 20
2178144.3370727
  0
LWPOLYLINE
  5
2013F
  8
0
100
AcDbEntity
100
AcDbPolyline
 70
0
 90
2
 38
0
 10
694069.878148521
 20
2178088.54924118
 10
694072.62205096
 20
2178087.61320374
  0
LWPOLYLINE
  5
20140
  8
0
100
AcDbEntity
100
AcDbPolyline
 70
0
 90
2
 38
0
 10
694070.06107535
 20
2178107.26999001
 10
694072.804977789
 20
2178105.9595376
  0
LWPOLYLINE
  5
20141
  8
0
100
AcDbEntity
100
AcDbPolyline
 70
0
 90
2
 38
0
 10
694070.244002179
 20
2178117.37919438
 10
694071.707416814
 20
2178117.0047794
  0
LWPOLYLINE
  5
20142
  8
0
100
AcDbEntity
100
AcDbPolyline
 70
0
 90
2
 38
0
 10
694070.244002179
 20
2178152.94861716
 10
694071.341563155
 20
2178152.01257972
  0
LWPOLYLINE
  5
20143
  8
0
100
AcDbEntity
100
AcDbPolyline
 70
0
 90
2
 38
0
 10
694070.244002179
 20
2178164.74268892
 10
694071.890343643
 20
2178164.36827395
  0
LWPOLYLINE
  5
20144
  8
0
100
AcDbEntity
100
AcDbPolyline
 70
0
 90
2
 38
0
 10
694070.792782667
 20
2178000.74892917
 10
694072.62205096
 20
2178000.18730671
  0
LWPOLYLINE
  5
20145
  8
0
100
AcDbEntity
100
AcDbPolyline
 70
0
 90
2
 38
0
 10
694071.341563155
 20
2178067.95641747
 10
694073.902538765
 20
2178066.45875756
  0
LWPOLYLINE
  5
20146
  8
0
100
AcDbEntity
100
AcDbPolyline
 70
0
 90
2
 38
0
 10
694071.524489984
 20
2178166.98917878
 10
694073.170831448
 20
2178166.42755632
  0
LWPOLYLINE
  5
20147
  8
0
100
AcDbEntity
100
AcDbPolyline
 70
0
 90
2
 38
0
 10
694071.890343643
 20
2178064.77389017
 10
694073.353758277
 20
2178064.39947519
  0
LWPOLYLINE
  5
20148
  8
0
100
AcDbEntity
100
AcDbPolyline
 70
0
 90
2
 38
0
 10
694072.073270472
 20
2178150.51491981
 10
694075.731807058
 20
2178149.20446739
  0
LWPOLYLINE
  5
20149
  8
0
100
AcDbEntity
100
AcDbPolyline
 70
0
 90
2
 38
0
 10
694072.804977789
 20
2178170.35891357
 10
694075.00009974
 20
2178169.61008362
  0
LWPOLYLINE
  5
2014A
  8
0
100
AcDbEntity
100
AcDbPolyline
 70
0
 90
2
 38
0
 10
694072.987904618
 20
2178008.05002121
 10
694075.18302657
 20
2178007.30119126
  0
LWPOLYLINE
  5
2014B
  8
0
100
AcDbEntity
100
AcDbPolyline
 70
0
 90
2
 38
0
 10
694073.536685106
 20
2178167.73800873
 10
694075.548880228
 20
2178166.98917878
  0
LWPOLYLINE
  5
2014C
  8
0
100
AcDbEntity
100
AcDbPolyline
 70
0
 90
2
 38
0
 10
694073.902538765
 20
2178114.94549703
 10
694076.097660716
 20
2178114.00945959
  0
LWPOLYLINE
  5
2014D
  8
0
100
AcDbEntity
100
AcDbPolyline
 70
0
 90
2
 38
0
 10
694074.268392423
 20
2178070.76452979
 10
694075.548880228
 20
2178070.20290733
  0
LWPOLYLINE
  5
2014E
  8
0
100
AcDbEntity
100
AcDbPolyline
 70
0
 90
2
 38
0
 10
694075.548880228
 20
2178090.79573104
 10
694076.829368033
 20
2178090.42131607
  0
LWPOLYLINE
  5
2014F
  8
0
100
AcDbEntity
100
AcDbPolyline
 70
0
 90
2
 38
0
 10
694076.097660716
 20
2178096.78637067
 10
694078.841563155
 20
2178095.66312574
  0
LWPOLYLINE
  5
20150
  8
0
100
AcDbEntity
100
AcDbPolyline
 70
0
 90
2
 38
0
 10
694076.097660716
 20
2178150.32771232
 10
694079.573270472
 20
2178149.0172599
  0
LWPOLYLINE
  5
20151
  8
0
100
AcDbEntity
100
AcDbPolyline
 70
0
 90
2
 38
0
 10
694076.463514375
 20
2178076.19354696
 10
694078.109855838
 20
2178075.81913198
  0
LWPOLYLINE
  5
20152
  8
0
100
AcDbEntity
100
AcDbPolyline
 70
0
 90
2
 38
0
 10
694076.463514375
 20
2178152.57420218
 10
694078.475709497
 20
2178151.82537223
  0
LWPOLYLINE
  5
20153
  8
0
100
AcDbEntity
100
AcDbPolyline
 70
0
 90
2
 38
0
 10
694077.012294862
 20
2178034.82069204
 10
694078.292782667
 20
2178034.44627707
  0
LWPOLYLINE
  5
20154
  8
0
100
AcDbEntity
100
AcDbPolyline
 70
0
 90
2
 38
0
 10
694077.012294862
 20
2178167.55080125
 10
694079.024489984
 20
2178166.80197129
  0
LWPOLYLINE
  5
20155
  8
0
100
AcDbEntity
100
AcDbPolyline
 70
0
 90
2
 38
0
 10
694077.195221692
 20
2178069.26686989
 10
694079.573270472
 20
2178068.33083245
  0
LWPOLYLINE
  5
20156
  8
0
100
AcDbEntity
100
AcDbPolyline
 70
0
 90
2
 38
0
 10
694077.378148521
 20
2178153.69744711
 10
694079.390343643
 20
2178153.13582465
  0
LWPOLYLINE
  5
20157
  8
0
100
AcDbEntity
100
AcDbPolyline
 70
0
 90
2
 38
0
 10
694077.56107535
 20
2178112.51179969
 10
694078.841563155
 20
2178112.13738471
  0
LWPOLYLINE
  5
20158
  8
0
100
AcDbEntity
100
AcDbPolyline
 70
0
 90
2
 38
0
 10
694077.56107535
 20
2178168.86125366
 10
694080.12205096
 20
2178167.92521622
  0
LWPOLYLINE
  5
20159
  8
0
100
AcDbEntity
100
AcDbPolyline
 70
0
 90
2
 38
0
 10
694077.744002179
 20
2178160.06250171
 10
694080.670831448
 20
2178159.12646427
  0
LWPOLYLINE
  5
2015A
  8
0
100
AcDbEntity
100
AcDbPolyline
 70
0
 90
2
 38
0
 10
694077.744002179
 20
2178164.92989641
 10
694079.390343643
 20
2178164.36827395
  0
LWPOLYLINE
  5
2015B
  8
0
100
AcDbEntity
100
AcDbPolyline
 70
0
 90
2
 38
0
 10
694078.475709497
 20
2178005.99073884
 10
694079.939124131
 20
2178005.61632387
  0
LWPOLYLINE
  5
2015C
  8
0
100
AcDbEntity
100
AcDbPolyline
 70
0
 90
2
 38
0
 10
694078.658636326
 20
2178114.57108206
 10
694080.304977789
 20
2178113.8222521
  0
LWPOLYLINE
  5
2015D
  8
0
100
AcDbEntity
100
AcDbPolyline
 70
0
 90
2
 38
0
 10
694078.658636326
 20
2178170.35891357
 10
694082.317172911
 20
2178169.04846115
  0
LWPOLYLINE
  5
2015E
  8
0
100
AcDbEntity
100
AcDbPolyline
 70
0
 90
2
 38
0
 10
694079.024489984
 20
2178154.82069204
 10
694081.402538765
 20
2178154.07186209
  0
LWPOLYLINE
  5
2015F
  8
0
100
AcDbEntity
100
AcDbPolyline
 70
0
 90
2
 38
0
 10
694079.390343643
 20
2178008.05002121
 10
694082.865953399
 20
2178006.36515382
  0
LWPOLYLINE
  5
20160
  8
0
100
AcDbEntity
100
AcDbPolyline
 70
0
 90
2
 38
0
 10
694079.390343643
 20
2178074.32147207
 10
694081.219611936
 20
2178073.75984961
  0
LWPOLYLINE
  5
20161
  8
0
100
AcDbEntity
100
AcDbPolyline
 70
0
 90
2
 38
0
 10
694079.390343643
 20
2178106.33395257
 10
694081.219611936
 20
2178105.77233011
  0
LWPOLYLINE
  5
20162
  8
0
100
AcDbEntity
100
AcDbPolyline
 70
0
 90
2
 38
0
 10
694079.573270472
 20
2178002.99541903
 10
694081.402538765
 20
2178002.24658908
  0
LWPOLYLINE
  5
20163
  8
0
100
AcDbEntity
100
AcDbPolyline
 70
0
 90
2
 38
0
 10
694079.573270472
 20
2178115.88153447
 10
694083.048880228
 20
2178114.57108206
  0
LWPOLYLINE
  5
20164
  8
0
100
AcDbEntity
100
AcDbPolyline
 70
0
 90
2
 38
0
 10
694080.12205096
 20
2178118.12802434
 10
694081.951319253
 20
2178117.37919438
  0
LWPOLYLINE
  5
20165
  8
0
100
AcDbEntity
100
AcDbPolyline
 70
0
 90
2
 38
0
 10
694080.12205096
 20
2178157.62880437
 10
694082.865953399
 20
2178156.69276692
  0
LWPOLYLINE
  5
20166
  8
0
100
AcDbEntity
100
AcDbPolyline
 70
0
 90
2
 38
0
 10
694080.670831448
 20
2178148.64284493
 10
694082.134246082
 20
2178148.08122246
  0
LWPOLYLINE
  5
20167
  8
0
100
AcDbEntity
100
AcDbPolyline
 70
0
 90
2
 38
0
 10
694080.853758277
 20
2178171.10774352
 10
694083.597660716
 20
2178170.17170608
  0
LWPOLYLINE
  5
20168
  8
0
100
AcDbEntity
100
AcDbPolyline
 70
0
 90
2
 38
0
 10
694081.036685106
 20
2178166.42755632
 10
694082.865953399
 20
2178165.86593385
  0
LWPOLYLINE
  5
20169
  8
0
100
AcDbEntity
100
AcDbPolyline
 70
0
 90
2
 38
0
 10
694081.219611936
 20
2178003.93145647
 10
694083.597660716
 20
2178003.18262652
  0
LWPOLYLINE
  5
2016A
  8
0
100
AcDbEntity
100
AcDbPolyline
 70
0
 90
2
 38
0
 10
694081.585465594
 20
2178008.61164368
 10
694085.06107535
 20
2178007.11398377
  0
LWPOLYLINE
  5
2016B
  8
0
100
AcDbEntity
100
AcDbPolyline
 70
0
 90
2
 38
0
 10
694081.585465594
 20
2178107.64440499
 10
694083.597660716
 20
2178107.08278253
  0
LWPOLYLINE
  5
2016C
  8
0
100
AcDbEntity
100
AcDbPolyline
 70
0
 90
2
 38
0
 10
694081.768392423
 20
2178062.15298533
 10
694083.597660716
 20
2178061.59136287
  0
LWPOLYLINE
  5
2016D
  8
0
100
AcDbEntity
100
AcDbPolyline
 70
0
 90
2
 38
0
 10
694082.134246082
 20
2178083.68184649
 10
694083.597660716
 20
2178083.30743151
  0
LWPOLYLINE
  5
2016E
  8
0
100
AcDbEntity
100
AcDbPolyline
 70
0
 90
2
 38
0
 10
694082.865953399
 20
2178110.6397248
 10
694084.329368033
 20
2178110.07810234
  0
LWPOLYLINE
  5
2016F
  8
0
100
AcDbEntity
100
AcDbPolyline
 70
0
 90
2
 38
0
 10
694083.048880228
 20
2178077.87841435
 10
694086.341563155
 20
2178076.75516942
  0
LWPOLYLINE
  5
20170
  8
0
100
AcDbEntity
100
AcDbPolyline
 70
0
 90
2
 38
0
 10
694083.597660716
 20
2178104.83629266
 10
694086.524489984
 20
2178103.90025522
  0
LWPOLYLINE
  5
20171
  8
0
100
AcDbEntity
100
AcDbPolyline
 70
0
 90
2
 38
0
 10
694084.146441204
 20
2178174.10306334
 10
694085.792782667
 20
2178173.35423338
  0
LWPOLYLINE
  5
20172
  8
0
100
AcDbEntity
100
AcDbPolyline
 70
0
 90
2
 38
0
 10
694084.695221692
 20
2178105.77233011
 10
694087.439124131
 20
2178104.83629266
  0
LWPOLYLINE
  5
20173
  8
0
100
AcDbEntity
100
AcDbPolyline
 70
0
 90
2
 38
0
 10
694085.06107535
 20
2178116.25594945
 10
694086.707416814
 20
2178115.69432699
  0
LWPOLYLINE
  5
20174
  8
0
100
AcDbEntity
100
AcDbPolyline
 70
0
 90
2
 38
0
 10
694085.244002179
 20
2178075.07030203
 10
694086.707416814
 20
2178074.13426459
  0
LWPOLYLINE
  5
20175
  8
0
100
AcDbEntity
100
AcDbPolyline
 70
0
 90
2
 38
0
 10
694085.426929009
 20
2178078.44003682
 10
694087.804977789
 20
2178077.50399937
  0
LWPOLYLINE
  5
20176
  8
0
100
AcDbEntity
100
AcDbPolyline
 70
0
 90
2
 38
0
 10
694085.426929009
 20
2178155.56952199
 10
694087.073270472
 20
2178154.82069204
  0
LWPOLYLINE
  5
20177
  8
0
100
AcDbEntity
100
AcDbPolyline
 70
0
 90
2
 38
0
 10
694085.426929009
 20
2178179.71928799
 10
694086.707416814
 20
2178178.97045803
  0
LWPOLYLINE
  5
20178
  8
0
100
AcDbEntity
100
AcDbPolyline
 70
0
 90
2
 38
0
 10
694085.975709497
 20
2178014.22786833
 10
694087.256197301
 20
2178013.85345335
  0
LWPOLYLINE
  5
20179
  8
0
100
AcDbEntity
100
AcDbPolyline
 70
0
 90
2
 38
0
 10
694085.975709497
 20
2178109.1420649
 10
694087.987904618
 20
2178108.39323494
  0
LWPOLYLINE
  5
2017A
  8
0
100
AcDbEntity
100
AcDbPolyline
 70
0
 90
2
 38
0
 10
694085.975709497
 20
2178169.42287613
 10
694087.439124131
 20
2178169.23566864
  0
LWPOLYLINE
  5
2017B
  8
0
100
AcDbEntity
100
AcDbPolyline
 70
0
 90
2
 38
0
 10
694086.158636326
 20
2178122.62100405
 10
694087.256197301
 20
2178121.68496661
  0
LWPOLYLINE
  5
2017C
  8
0
100
AcDbEntity
100
AcDbPolyline
 70
0
 90
2
 38
0
 10
694086.341563155
 20
2178171.66936599
 10
694090.548880228
 20
2178169.61008362
  0
LWPOLYLINE
  5
2017D
  8
0
100
AcDbEntity
100
AcDbPolyline
 70
0
 90
2
 38
0
 10
694086.524489984
 20
2178128.79885117
 10
694087.987904618
 20
2178128.79885117
  0
LWPOLYLINE
  5
2017E
  8
0
100
AcDbEntity
100
AcDbPolyline
 70
0
 90
2
 38
0
 10
694086.707416814
 20
2178124.30587145
 10
694088.536685106
 20
2178123.74424898
  0
LWPOLYLINE
  5
2017F
  8
0
100
AcDbEntity
100
AcDbPolyline
 70
0
 90
2
 38
0
 10
694086.890343643
 20
2178174.47747831
 10
694088.719611936
 20
2178173.72864836
  0
LWPOLYLINE
  5
20180
  8
0
100
AcDbEntity
100
AcDbPolyline
 70
0
 90
2
 38
0
 10
694087.256197301
 20
2178126.55236131
 10
694090.365953399
 20
2178125.42911638
  0
LWPOLYLINE
  5
20181
  8
0
100
AcDbEntity
100
AcDbPolyline
 70
0
 90
2
 38
0
 10
694087.62205096
 20
2178129.54768112
 10
694089.634246082
 20
2178128.61164368
  0
LWPOLYLINE
  5
20182
  8
0
100
AcDbEntity
100
AcDbPolyline
 70
0
 90
2
 38
0
 10
694087.804977789
 20
2178053.91585585
 10
694089.268392423
 20
2178053.35423338
  0
LWPOLYLINE
  5
20183
  8
0
100
AcDbEntity
100
AcDbPolyline
 70
0
 90
2
 38
0
 10
694087.804977789
 20
2178181.96577785
 10
694090.00009974
 20
2178181.21694789
  0
LWPOLYLINE
  5
20184
  8
0
100
AcDbEntity
100
AcDbPolyline
 70
0
 90
2
 38
0
 10
694088.719611936
 20
2178136.84877317
 10
694090.18302657
 20
2178136.2871507
  0
LWPOLYLINE
  5
20185
  8
0
100
AcDbEntity
100
AcDbPolyline
 70
0
 90
2
 38
0
 10
694088.902538765
 20
2178105.9595376
 10
694091.097660716
 20
2178105.21070764
  0
LWPOLYLINE
  5
20186
  8
0
100
AcDbEntity
100
AcDbPolyline
 70
0
 90
2
 38
0
 10
694089.085465594
 20
2178022.6522053
 10
694090.548880228
 20
2178021.71616786
  0
LWPOLYLINE
  5
20187
  8
0
100
AcDbEntity
100
AcDbPolyline
 70
0
 90
2
 38
0
 10
694089.451319253
 20
2178052.79261092
 10
694091.097660716
 20
2178052.60540343
  0
LWPOLYLINE
  5
20188
  8
0
100
AcDbEntity
100
AcDbPolyline
 70
0
 90
2
 38
0
 10
694089.451319253
 20
2178080.3121117
 10
694092.012294862
 20
2178079.56328175
  0
LWPOLYLINE
  5
20189
  8
0
100
AcDbEntity
100
AcDbPolyline
 70
0
 90
2
 38
0
 10
694089.634246082
 20
2178078.6272443
 10
694091.463514375
 20
2178078.06562184
  0
LWPOLYLINE
  5
2018A
  8
0
100
AcDbEntity
100
AcDbPolyline
 70
0
 90
2
 38
0
 10
694089.634246082
 20
2178127.11398377
 10
694091.280587545
 20
2178126.55236131
  0
LWPOLYLINE
  5
2018B
  8
0
100
AcDbEntity
100
AcDbPolyline
 70
0
 90
2
 38
0
 10
694089.817172911
 20
2178159.12646427
 10
694092.012294862
 20
2178158.19042683
  0
LWPOLYLINE
  5
2018C
  8
0
100
AcDbEntity
100
AcDbPolyline
 70
0
 90
2
 38
0
 10
694090.914733887
 20
2178084.24346895
 10
694093.292782667
 20
2178083.30743151
  0
LWPOLYLINE
  5
2018D
  8
0
100
AcDbEntity
100
AcDbPolyline
 70
0
 90
2
 38
0
 10
694091.097660716
 20
2178008.05002121
 10
694092.378148521
 20
2178007.48839875
  0
LWPOLYLINE
  5
2018E
  8
0
100
AcDbEntity
100
AcDbPolyline
 70
0
 90
2
 38
0
 10
694091.280587545
 20
2178107.64440499
 10
694094.024489984
 20
2178106.70836755
  0
LWPOLYLINE
  5
2018F
  8
0
100
AcDbEntity
100
AcDbPolyline
 70
0
 90
2
 38
0
 10
694091.463514375
 20
2178124.11866396
 10
694093.475709497
 20
2178123.36983401
  0
LWPOLYLINE
  5
20190
  8
0
100
AcDbEntity
100
AcDbPolyline
 70
0
 90
2
 38
0
 10
694091.463514375
 20
2178125.80353136
 10
694093.475709497
 20
2178125.0547014
  0
LWPOLYLINE
  5
20191
  8
0
100
AcDbEntity
100
AcDbPolyline
 70
0
 90
2
 38
0
 10
694092.195221692
 20
2178161.37295413
 10
694095.304977789
 20
2178160.43691669
  0
LWPOLYLINE
  5
20192
  8
0
100
AcDbEntity
100
AcDbPolyline
 70
0
 90
2
 38
0
 10
694092.56107535
 20
2178159.87529423
 10
694094.756197301
 20
2178159.12646427
  0
LWPOLYLINE
  5
20193
  8
0
100
AcDbEntity
100
AcDbPolyline
 70
0
 90
2
 38
0
 10
694092.744002179
 20
2178081.43535663
 10
694095.12205096
 20
2178080.3121117
  0
LWPOLYLINE
  5
20194
  8
0
100
AcDbEntity
100
AcDbPolyline
 70
0
 90
2
 38
0
 10
694093.109855838
 20
2178165.67872636
 10
694096.402538765
 20
2178164.36827395
  0
LWPOLYLINE
  5
20195
  8
0
100
AcDbEntity
100
AcDbPolyline
 70
0
 90
2
 38
0
 10
694093.475709497
 20
2178052.23098845
 10
694095.12205096
 20
2178051.66936599
  0
LWPOLYLINE
  5
20196
  8
0
100
AcDbEntity
100
AcDbPolyline
 70
0
 90
2
 38
0
 10
694093.658636326
 20
2178131.60696349
 10
694095.304977789
 20
2178131.04534103
  0
LWPOLYLINE
  5
20197
  8
0
100
AcDbEntity
100
AcDbPolyline
 70
0
 90
2
 38
0
 10
694094.024489984
 20
2178010.48371856
 10
694095.670831448
 20
2178009.73488861
  0
LWPOLYLINE
  5
20198
  8
0
100
AcDbEntity
100
AcDbPolyline
 70
0
 90
2
 38
0
 10
694094.207416814
 20
2178175.78793073
 10
694096.219611936
 20
2178174.85189329
  0
LWPOLYLINE
  5
20199
  8
0
100
AcDbEntity
100
AcDbPolyline
 70
0
 90
2
 38
0
 10
694094.573270472
 20
2178011.98137847
 10
694097.68302657
 20
2178010.85813354
  0
LWPOLYLINE
  5
2019A
  8
0
100
AcDbEntity
100
AcDbPolyline
 70
0
 90
2
 38
0
 10
694094.756197301
 20
2178000.93613666
 10
694097.317172911
 20
2178000.18730671
  0
LWPOLYLINE
  5
2019B
  8
0
100
AcDbEntity
100
AcDbPolyline
 70
0
 90
2
 38
0
 10
694094.756197301
 20
2178002.24658908
 10
694098.048880228
 20
2178001.31055164
  0
LWPOLYLINE
  5
2019C
  8
0
100
AcDbEntity
100
AcDbPolyline
 70
0
 90
2
 38
0
 10
694094.756197301
 20
2178161.37295413
 10
694097.317172911
 20
2178160.62412418
  0
LWPOLYLINE
  5
2019D
  8
0
100
AcDbEntity
100
AcDbPolyline
 70
0
 90
2
 38
0
 10
694095.12205096
 20
2178084.99229891
 10
694097.317172911
 20
2178084.43067644
  0
LWPOLYLINE
  5
2019E
  8
0
100
AcDbEntity
100
AcDbPolyline
 70
0
 90
2
 38
0
 10
694095.304977789
 20
2178014.04066084
 10
694097.50009974
 20
2178013.29183089
  0
LWPOLYLINE
  5
2019F
  8
0
100
AcDbEntity
100
AcDbPolyline
 70
0
 90
2
 38
0
 10
694095.487904618
 20
2178055.78793073
 10
694099.512294862
 20
2178053.91585585
  0
LWPOLYLINE
  5
201A0
  8
0
100
AcDbEntity
100
AcDbPolyline
 70
0
 90
2
 38
0
 10
694096.036685106
 20
2178162.30899157
 10
694097.865953399
 20
2178161.56016162
  0
LWPOLYLINE
  5
201A1
  8
0
100
AcDbEntity
100
AcDbPolyline
 70
0
 90
2
 38
0
 10
694096.219611936
 20
2178057.66000561
 10
694097.865953399
 20
2178056.91117566
  0
LWPOLYLINE
  5
201A2
  8
0
100
AcDbEntity
100
AcDbPolyline
 70
0
 90
2
 38
0
 10
694096.219611936
 20
2178088.54924118
 10
694097.865953399
 20
2178087.80041123
  0
LWPOLYLINE
  5
201A3
  8
0
100
AcDbEntity
100
AcDbPolyline
 70
0
 90
2
 38
0
 10
694096.402538765
 20
2178035.56952199
 10
694097.68302657
 20
2178035.19510702
  0
LWPOLYLINE
  5
201A4
  8
0
100
AcDbEntity
100
AcDbPolyline
 70
0
 90
2
 38
0
 10
694096.402538765
 20
2178076.00633947
 10
694097.68302657
 20
2178075.63192449
  0
LWPOLYLINE
  5
201A5
  8
0
100
AcDbEntity
100
AcDbPolyline
 70
0
 90
2
 38
0
 10
694096.585465594
 20
2178159.31367176
 10
694098.231807058
 20
2178158.7520493
  0
LWPOLYLINE
  5
201A6
  8
0
100
AcDbEntity
100
AcDbPolyline
 70
0
 90
2
 38
0
 10
694096.768392423
 20
2178079.93769672
 10
694098.597660716
 20
2178079.18886677
  0
LWPOLYLINE
  5
201A7
  8
0
100
AcDbEntity
100
AcDbPolyline
 70
0
 90
2
 38
0
 10
694097.50009974
 20
2178081.62256412
 10
694099.146441204
 20
2178080.68652667
  0
LWPOLYLINE
  5
201A8
  8
0
100
AcDbEntity
100
AcDbPolyline
 70
0
 90
2
 38
0
 10
694097.68302657
 20
2178029.39167488
 10
694100.975709497
 20
2178028.08122246
  0
LWPOLYLINE
  5
201A9
  8
0
100
AcDbEntity
100
AcDbPolyline
 70
0
 90
2
 38
0
 10
694097.865953399
 20
2178003.5570415
 10
694099.695221692
 20
2178002.99541903
  0
LWPOLYLINE
  5
201AA
  8
0
100
AcDbEntity
100
AcDbPolyline
 70
0
 90
2
 38
0
 10
694097.865953399
 20
2178023.77545023
 10
694099.329368033
 20
2178023.40103525
  0
LWPOLYLINE
  5
201AB
  8
0
100
AcDbEntity
100
AcDbPolyline
 70
0
 90
2
 38
0
 10
694097.865953399
 20
2178135.16390577
 10
694099.695221692
 20
2178134.41507582
  0
LWPOLYLINE
  5
201AC
  8
0
100
AcDbEntity
100
AcDbPolyline
 70
0
 90
2
 38
0
 10
694098.231807058
 20
2178027.14518502
 10
694101.707416814
 20
2178026.20914758
  0
LWPOLYLINE
  5
201AD
  8
0
100
AcDbEntity
100
AcDbPolyline
 70
0
 90
2
 38
0
 10
694098.780587545
 20
2178089.29807114
 10
694102.256197301
 20
2178087.98761872
  0
LWPOLYLINE
  5
201AE
  8
0
100
AcDbEntity
100
AcDbPolyline
 70
0
 90
2
 38
0
 10
694098.780587545
 20
2178111.20134727
 10
694100.426929009
 20
2178110.6397248
  0
LWPOLYLINE
  5
201AF
  8
0
100
AcDbEntity
100
AcDbPolyline
 70
0
 90
2
 38
0
 10
694098.780587545
 20
2178132.73020842
 10
694100.244002179
 20
2178132.35579345
  0
LWPOLYLINE
  5
201B0
  8
0
100
AcDbEntity
100
AcDbPolyline
 70
0
 90
2
 38
0
 10
694098.780587545
 20
2178136.66156568
 10
694102.439124131
 20
2178135.16390577
  0
LWPOLYLINE
  5
201B1
  8
0
100
AcDbEntity
100
AcDbPolyline
 70
0
 90
2
 38
0
 10
694100.06107535
 20
2178030.88933479
 10
694101.890343643
 20
2178030.14050483
  0
LWPOLYLINE
  5
201B2
  8
0
100
AcDbEntity
100
AcDbPolyline
 70
0
 90
2
 38
0
 10
694100.06107535
 20
2178162.87061404
 10
694102.073270472
 20
2178162.12178408
  0
LWPOLYLINE
  5
201B3
  8
0
100
AcDbEntity
100
AcDbPolyline
 70
0
 90
2
 38
0
 10
694100.426929009
 20
2178044.36827395
 10
694102.256197301
 20
2178043.99385897
  0
LWPOLYLINE
  5
201B4
  8
0
100
AcDbEntity
100
AcDbPolyline
 70
0
 90
2
 38
0
 10
694100.609855838
 20
2178080.3121117
 10
694102.62205096
 20
2178079.56328175
  0
LWPOLYLINE
  5
201B5
  8
0
100
AcDbEntity
100
AcDbPolyline
 70
0
 90
2
 38
0
 10
694101.524489984
 20
2178029.20446739
 10
694103.902538765
 20
2178028.08122246
  0
LWPOLYLINE
  5
201B6
  8
0
100
AcDbEntity
100
AcDbPolyline
 70
0
 90
2
 38
0
 10
694101.707416814
 20
2178128.05002121
 10
694103.170831448
 20
2178127.48839875
  0
LWPOLYLINE
  5
201B7
  8
0
100
AcDbEntity
100
AcDbPolyline
 70
0
 90
2
 38
0
 10
694101.707416814
 20
2178130.67092605
 10
694102.987904618
 20
2178130.29651107
  0
LWPOLYLINE
  5
201B8
  8
0
100
AcDbEntity
100
AcDbPolyline
 70
0
 90
2
 38
0
 10
694102.073270472
 20
2178089.67248611
 10
694104.085465594
 20
2178088.73644867
  0
LWPOLYLINE
  5
201B9
  8
0
100
AcDbEntity
100
AcDbPolyline
 70
0
 90
2
 38
0
 10
694102.256197301
 20
2178035.00789953
 10
694103.719611936
 20
2178034.44627707
  0
LWPOLYLINE
  5
201BA
  8
0
100
AcDbEntity
100
AcDbPolyline
 70
0
 90
2
 38
0
 10
694102.256197301
 20
2178092.66780593
 10
694103.719611936
 20
2178092.10618346
  0
LWPOLYLINE
  5
201BB
  8
0
100
AcDbEntity
100
AcDbPolyline
 70
0
 90
2
 38
0
 10
694102.62205096
 20
2178031.07654228
 10
694104.451319253
 20
2178030.32771232
  0
LWPOLYLINE
  5
201BC
  8
0
100
AcDbEntity
100
AcDbPolyline
 70
0
 90
2
 38
0
 10
694102.62205096
 20
2178042.12178408
 10
694103.902538765
 20
2178041.56016162
  0
LWPOLYLINE
  5
201BD
  8
0
100
AcDbEntity
100
AcDbPolyline
 70
0
 90
2
 38
0
 10
694102.987904618
 20
2178038.00321934
 10
694108.658636326
 20
2178035.75672948
  0
LWPOLYLINE
  5
201BE
  8
0
100
AcDbEntity
100
AcDbPolyline
 70
0
 90
2
 38
0
 10
694102.987904618
 20
2178182.90181529
 10
694105.00009974
 20
2178182.15298533
  0
LWPOLYLINE
  5
201BF
  8
0
100
AcDbEntity
100
AcDbPolyline
 70
0
 90
2
 38
0
 10
694103.719611936
 20
2178009.54768112
 10
694105.731807058
 20
2178009.17326614
  0
LWPOLYLINE
  5
201C0
  8
0
100
AcDbEntity
100
AcDbPolyline
 70
0
 90
2
 38
0
 10
694103.902538765
 20
2178002.80821154
 10
694106.097660716
 20
2178002.05938159
  0
LWPOLYLINE
  5
201C1
  8
0
100
AcDbEntity
100
AcDbPolyline
 70
0
 90
2
 38
0
 10
694104.085465594
 20
2178161.18574664
 10
694105.731807058
 20
2178160.43691669
  0
LWPOLYLINE
  5
201C2
  8
0
100
AcDbEntity
100
AcDbPolyline
 70
0
 90
2
 38
0
 10
694104.268392423
 20
2178136.84877317
 10
694106.280587545
 20
2178136.47435819
  0
LWPOLYLINE
  5
201C3
  8
0
100
AcDbEntity
100
AcDbPolyline
 70
0
 90
2
 38
0
 10
694104.634246082
 20
2178027.89401498
 10
694107.195221692
 20
2178026.77077004
  0
LWPOLYLINE
  5
201C4
  8
0
100
AcDbEntity
100
AcDbPolyline
 70
0
 90
2
 38
0
 10
694104.817172911
 20
2178061.21694789
 10
694106.646441204
 20
2178060.28091045
  0
LWPOLYLINE
  5
201C5
  8
0
100
AcDbEntity
100
AcDbPolyline
 70
0
 90
2
 38
0
 10
694105.00009974
 20
2178097.16078564
 10
694106.463514375
 20
2178096.78637067
  0
LWPOLYLINE
  5
201C6
  8
0
100
AcDbEntity
100
AcDbPolyline
 70
0
 90
2
 38
0
 10
694105.731807058
 20
2178025.64752511
 10
694107.56107535
 20
2178025.08590265
  0
LWPOLYLINE
  5
201C7
  8
0
100
AcDbEntity
100
AcDbPolyline
 70
0
 90
2
 38
0
 10
694105.731807058
 20
2178131.419756
 10
694107.195221692
 20
2178130.48371856
  0
LWPOLYLINE
  5
201C8
  8
0
100
AcDbEntity
100
AcDbPolyline
 70
0
 90
2
 38
0
 10
694106.097660716
 20
2178014.22786833
 10
694107.378148521
 20
2178013.85345335
  0
LWPOLYLINE
  5
201C9
  8
0
100
AcDbEntity
100
AcDbPolyline
 70
0
 90
2
 38
0
 10
694106.097660716
 20
2178138.15922558
 10
694108.658636326
 20
2178137.41039563
  0
LWPOLYLINE
  5
201CA
  8
0
100
AcDbEntity
100
AcDbPolyline
 70
0
 90
2
 38
0
 10
694107.378148521
 20
2178165.86593385
 10
694109.756197301
 20
2178164.92989641
  0
LWPOLYLINE
  5
201CB
  8
0
100
AcDbEntity
100
AcDbPolyline
 70
0
 90
2
 38
0
 10
694107.56107535
 20
2178010.85813354
 10
694109.573270472
 20
2178009.9220961
  0
LWPOLYLINE
  5
201CC
  8
0
100
AcDbEntity
100
AcDbPolyline
 70
0
 90
2
 38
0
 10
694107.56107535
 20
2178065.8971351
 10
694109.024489984
 20
2178064.77389017
  0
LWPOLYLINE
  5
201CD
  8
0
100
AcDbEntity
100
AcDbPolyline
 70
0
 90
2
 38
0
 10
694107.926929009
 20
2178083.494639
 10
694109.390343643
 20
2178082.93301653
  0
LWPOLYLINE
  5
201CE
  8
0
100
AcDbEntity
100
AcDbPolyline
 70
0
 90
2
 38
0
 10
694107.926929009
 20
2178139.09526302
 10
694110.670831448
 20
2178138.15922558
  0
LWPOLYLINE
  5
201CF
  8
0
100
AcDbEntity
100
AcDbPolyline
 70
0
 90
2
 38
0
 10
694108.109855838
 20
2178012.16858596
 10
694109.756197301
 20
2178011.419756
  0
LWPOLYLINE
  5
201D0
  8
0
100
AcDbEntity
100
AcDbPolyline
 70
0
 90
2
 38
0
 10
694108.109855838
 20
2178177.09838315
 10
694109.573270472
 20
2178176.16234571
  0
LWPOLYLINE
  5
201D1
  8
0
100
AcDbEntity
100
AcDbPolyline
 70
0
 90
2
 38
0
 10
694108.475709497
 20
2178146.77077004
 10
694109.573270472
 20
2178145.8347326
  0
LWPOLYLINE
  5
201D2
  8
0
100
AcDbEntity
100
AcDbPolyline
 70
0
 90
2
 38
0
 10
694108.475709497
 20
2178183.65064524
 10
694109.939124131
 20
2178182.90181529
  0
LWPOLYLINE
  5
201D3
  8
0
100
AcDbEntity
100
AcDbPolyline
 70
0
 90
2
 38
0
 10
694108.841563155
 20
2178186.64596505
 10
694110.304977789
 20
2178186.45875756
  0
LWPOLYLINE
  5
201D4
  8
0
100
AcDbEntity
100
AcDbPolyline
 70
0
 90
2
 38
0
 10
694109.024489984
 20
2178090.23410858
 10
694110.304977789
 20
2178089.67248611
  0
LWPOLYLINE
  5
201D5
  8
0
100
AcDbEntity
100
AcDbPolyline
 70
0
 90
2
 38
0
 10
694109.207416814
 20
2178066.64596505
 10
694110.487904618
 20
2178065.8971351
  0
LWPOLYLINE
  5
201D6
  8
0
100
AcDbEntity
100
AcDbPolyline
 70
0
 90
2
 38
0
 10
694109.573270472
 20
2178026.95797753
 10
694111.219611936
 20
2178026.20914758
  0
LWPOLYLINE
  5
201D7
  8
0
100
AcDbEntity
100
AcDbPolyline
 70
0
 90
2
 38
0
 10
694109.573270472
 20
2178031.63816474
 10
694113.048880228
 20
2178030.7021273
  0
LWPOLYLINE
  5
201D8
  8
0
100
AcDbEntity
100
AcDbPolyline
 70
0
 90
2
 38
0
 10
694109.573270472
 20
2178141.52896037
 10
694111.219611936
 20
2178140.78013042
  0
LWPOLYLINE
  5
201D9
  8
0
100
AcDbEntity
100
AcDbPolyline
 70
0
 90
2
 38
0
 10
694109.756197301
 20
2178093.60384337
 10
694113.048880228
 20
2178092.10618346
  0
LWPOLYLINE
  5
201DA
  8
0
100
AcDbEntity
100
AcDbPolyline
 70
0
 90
2
 38
0
 10
694110.12205096
 20
2178008.98605866
 10
694111.402538765
 20
2178008.42443619
  0
LWPOLYLINE
  5
201DB
  8
0
100
AcDbEntity
100
AcDbPolyline
 70
0
 90
2
 38
0
 10
694110.12205096
 20
2178090.98293853
 10
694111.585465594
 20
2178090.60852356
  0
LWPOLYLINE
  5
201DC
  8
0
100
AcDbEntity
100
AcDbPolyline
 70
0
 90
2
 38
0
 10
694110.487904618
 20
2178142.27779033
 10
694113.048880228
 20
2178141.34175288
  0
LWPOLYLINE
  5
201DD
  8
0
100
AcDbEntity
100
AcDbPolyline
 70
0
 90
2
 38
0
 10
694110.670831448
 20
2178167.92521622
 10
694112.134246082
 20
2178167.36359376
  0
LWPOLYLINE
  5
201DE
  8
0
100
AcDbEntity
100
AcDbPolyline
 70
0
 90
2
 38
0
 10
694110.670831448
 20
2178182.34019282
 10
694113.963514375
 20
2178181.21694789
  0
LWPOLYLINE
  5
201DF
  8
0
100
AcDbEntity
100
AcDbPolyline
 70
0
 90
2
 38
0
 10
694110.853758277
 20
2178074.50867956
 10
694114.329368033
 20
2178073.01101966
  0
LWPOLYLINE
  5
201E0
  8
0
100
AcDbEntity
100
AcDbPolyline
 70
0
 90
2
 38
0
 10
694111.219611936
 20
2178076.56796193
 10
694113.414733887
 20
2178076.00633947
  0
LWPOLYLINE
  5
201E1
  8
0
100
AcDbEntity
100
AcDbPolyline
 70
0
 90
2
 38
0
 10
694111.219611936
 20
2178132.54300093
 10
694113.414733887
 20
2178132.16858596
  0
LWPOLYLINE
  5
201E2
  8
0
100
AcDbEntity
100
AcDbPolyline
 70
0
 90
2
 38
0
 10
694111.402538765
 20
2178067.20758752
 10
694112.865953399
 20
2178066.83317254
  0
LWPOLYLINE
  5
201E3
  8
0
100
AcDbEntity
100
AcDbPolyline
 70
0
 90
2
 38
0
 10
694111.402538765
 20
2178180.46811794
 10
694114.146441204
 20
2178179.34487301
  0
LWPOLYLINE
  5
201E4
  8
0
100
AcDbEntity
100
AcDbPolyline
 70
0
 90
2
 38
0
 10
694112.317172911
 20
2178016.2871507
 10
694113.780587545
 20
2178015.91273572
  0
LWPOLYLINE
  5
201E5
  8
0
100
AcDbEntity
100
AcDbPolyline
 70
0
 90
2
 38
0
 10
694112.50009974
 20
2178078.06562184
 10
694114.146441204
 20
2178077.50399937
  0
LWPOLYLINE
  5
201E6
  8
0
100
AcDbEntity
100
AcDbPolyline
 70
0
 90
2
 38
0
 10
694112.50009974
 20
2178084.24346895
 10
694115.792782667
 20
2178083.30743151
  0
LWPOLYLINE
  5
201E7
  8
0
100
AcDbEntity
100
AcDbPolyline
 70
0
 90
2
 38
0
 10
694112.865953399
 20
2178001.8721741
 10
694114.512294862
 20
2178001.12334415
  0
LWPOLYLINE
  5
201E8
  8
0
100
AcDbEntity
100
AcDbPolyline
 70
0
 90
2
 38
0
 10
694113.048880228
 20
2178145.8347326
 10
694114.329368033
 20
2178145.27311014
  0
LWPOLYLINE
  5
201E9
  8
0
100
AcDbEntity
100
AcDbPolyline
 70
0
 90
2
 38
0
 10
694113.048880228
 20
2178184.02506022
 10
694114.512294862
 20
2178183.27623026
  0
LWPOLYLINE
  5
201EA
  8
0
100
AcDbEntity
100
AcDbPolyline
 70
0
 90
2
 38
0
 10
694113.597660716
 20
2178093.79105086
 10
694116.158636326
 20
2178093.0422209
  0
LWPOLYLINE
  5
201EB
  8
0
100
AcDbEntity
100
AcDbPolyline
 70
0
 90
2
 38
0
 10
694113.780587545
 20
2178028.64284493
 10
694116.524489984
 20
2178027.70680749
  0
LWPOLYLINE
  5
201EC
  8
0
100
AcDbEntity
100
AcDbPolyline
 70
0
 90
2
 38
0
 10
694113.963514375
 20
2178026.58356256
 10
694117.804977789
 20
2178025.46031763
  0
LWPOLYLINE
  5
201ED
  8
0
100
AcDbEntity
100
AcDbPolyline
 70
0
 90
2
 38
0
 10
694114.512294862
 20
2178184.77389017
 10
694117.256197301
 20
2178183.83785273
  0
LWPOLYLINE
  5
201EE
  8
0
100
AcDbEntity
100
AcDbPolyline
 70
0
 90
2
 38
0
 10
694114.695221692
 20
2178142.09058284
 10
694116.524489984
 20
2178141.52896037
  0
LWPOLYLINE
  5
201EF
  8
0
100
AcDbEntity
100
AcDbPolyline
 70
0
 90
2
 38
0
 10
694114.878148521
 20
2178081.99697909
 10
694117.256197301
 20
2178081.24814914
  0
LWPOLYLINE
  5
201F0
  8
0
100
AcDbEntity
100
AcDbPolyline
 70
0
 90
2
 38
0
 10
694114.878148521
 20
2178117.56640187
 10
694116.158636326
 20
2178116.81757192
  0
LWPOLYLINE
  5
201F1
  8
0
100
AcDbEntity
100
AcDbPolyline
 70
0
 90
2
 38
0
 10
694114.878148521
 20
2178182.15298533
 10
694118.353758277
 20
2178180.65532543
  0
LWPOLYLINE
  5
201F2
  8
0
100
AcDbEntity
100
AcDbPolyline
 70
0
 90
2
 38
0
 10
694115.06107535
 20
2178030.14050483
 10
694117.439124131
 20
2178029.57888237
  0
LWPOLYLINE
  5
201F3
  8
0
100
AcDbEntity
100
AcDbPolyline
 70
0
 90
2
 38
0
 10
694115.426929009
 20
2178148.83005242
 10
694116.890343643
 20
2178148.08122246
  0
LWPOLYLINE
  5
201F4
  8
0
100
AcDbEntity
100
AcDbPolyline
 70
0
 90
2
 38
0
 10
694115.426929009
 20
2178149.95329735
 10
694116.890343643
 20
2178149.39167488
  0
LWPOLYLINE
  5
201F5
  8
0
100
AcDbEntity
100
AcDbPolyline
 70
0
 90
2
 38
0
 10
694115.792782667
 20
2178033.32303214
 10
694117.256197301
 20
2178032.57420218
  0
LWPOLYLINE
  5
201F6
  8
0
100
AcDbEntity
100
AcDbPolyline
 70
0
 90
2
 38
0
 10
694115.792782667
 20
2178085.36671388
 10
694117.439124131
 20
2178084.61788393
  0
LWPOLYLINE
  5
201F7
  8
0
100
AcDbEntity
100
AcDbPolyline
 70
0
 90
2
 38
0
 10
694115.792782667
 20
2178185.70992761
 10
694117.804977789
 20
2178185.14830515
  0
LWPOLYLINE
  5
201F8
  8
0
100
AcDbEntity
100
AcDbPolyline
 70
0
 90
2
 38
0
 10
694116.707416814
 20
2178044.55548143
 10
694118.902538765
 20
2178044.18106646
  0
LWPOLYLINE
  5
201F9
  8
0
100
AcDbEntity
100
AcDbPolyline
 70
0
 90
2
 38
0
 10
694117.073270472
 20
2178031.07654228
 10
694120.00009974
 20
2178029.76608986
  0
LWPOLYLINE
  5
201FA
  8
0
100
AcDbEntity
100
AcDbPolyline
 70
0
 90
2
 38
0
 10
694117.256197301
 20
2178028.45563744
 10
694123.475709497
 20
2178026.20914758
  0
LWPOLYLINE
  5
201FB
  8
0
100
AcDbEntity
100
AcDbPolyline
 70
0
 90
2
 38
0
 10
694117.439124131
 20
2178187.02038003
 10
694119.451319253
 20
2178186.27155008
  0
LWPOLYLINE
  5
201FC
  8
0
100
AcDbEntity
100
AcDbPolyline
 70
0
 90
2
 38
0
 10
694117.987904618
 20
2178041.37295413
 10
694120.548880228
 20
2178040.43691669
  0
LWPOLYLINE
  5
201FD
  8
0
100
AcDbEntity
100
AcDbPolyline
 70
0
 90
2
 38
0
 10
694118.353758277
 20
2178038.37763432
 10
694121.097660716
 20
2178037.44159688
  0
LWPOLYLINE
  5
201FE
  8
0
100
AcDbEntity
100
AcDbPolyline
 70
0
 90
2
 38
0
 10
694118.353758277
 20
2178090.23410858
 10
694120.548880228
 20
2178089.29807114
  0
LWPOLYLINE
  5
201FF
  8
0
100
AcDbEntity
100
AcDbPolyline
 70
0
 90
2
 38
0
 10
694118.353758277
 20
2178141.71616786
 10
694122.012294862
 20
2178140.59292293
  0
LWPOLYLINE
  5
20200
  8
0
100
AcDbEntity
100
AcDbPolyline
 70
0
 90
2
 38
0
 10
694118.719611936
 20
2178032.01257972
 10
694120.731807058
 20
2178031.63816474
  0
LWPOLYLINE
  5
20201
  8
0
100
AcDbEntity
100
AcDbPolyline
 70
0
 90
2
 38
0
 10
694118.902538765
 20
2178114.00945959
 10
694119.817172911
 20
2178113.07342215
  0
LWPOLYLINE
  5
20202
  8
0
100
AcDbEntity
100
AcDbPolyline
 70
0
 90
2
 38
0
 10
694119.085465594
 20
2178178.78325054
 10
694120.548880228
 20
2178178.22162808
  0
LWPOLYLINE
  5
20203
  8
0
100
AcDbEntity
100
AcDbPolyline
 70
0
 90
2
 38
0
 10
694120.18302657
 20
2178080.12490421
 10
694122.012294862
 20
2178079.00165928
  0
LWPOLYLINE
  5
20204
  8
0
100
AcDbEntity
100
AcDbPolyline
 70
0
 90
2
 38
0
 10
694120.731807058
 20
2178008.61164368
 10
694122.744002179
 20
2178007.86281373
  0
LWPOLYLINE
  5
20205
  8
0
100
AcDbEntity
100
AcDbPolyline
 70
0
 90
2
 38
0
 10
694120.914733887
 20
2178123.93145647
 10
694122.744002179
 20
2178123.36983401
  0
LWPOLYLINE
  5
20206
  8
0
100
AcDbEntity
100
AcDbPolyline
 70
0
 90
2
 38
0
 10
694120.914733887
 20
2178162.87061404
 10
694122.744002179
 20
2178162.12178408
  0
LWPOLYLINE
  5
20207
  8
0
100
AcDbEntity
100
AcDbPolyline
 70
0
 90
2
 38
0
 10
694121.280587545
 20
2178035.94393697
 10
694123.841563155
 20
2178035.00789953
  0
LWPOLYLINE
  5
20208
  8
0
100
AcDbEntity
100
AcDbPolyline
 70
0
 90
2
 38
0
 10
694121.280587545
 20
2178061.77857036
 10
694123.841563155
 20
2178060.84253292
  0
LWPOLYLINE
  5
20209
  8
0
100
AcDbEntity
100
AcDbPolyline
 70
0
 90
2
 38
0
 10
694121.463514375
 20
2178092.29339095
 10
694123.841563155
 20
2178091.35735351
  0
LWPOLYLINE
  5
2020A
  8
0
100
AcDbEntity
100
AcDbPolyline
 70
0
 90
2
 38
0
 10
694121.646441204
 20
2178121.49775912
 10
694122.926929009
 20
2178120.93613666
  0
LWPOLYLINE
  5
2020B
  8
0
100
AcDbEntity
100
AcDbPolyline
 70
0
 90
2
 38
0
 10
694121.646441204
 20
2178125.0547014
 10
694124.573270472
 20
2178124.11866396
  0
LWPOLYLINE
  5
2020C
  8
0
100
AcDbEntity
100
AcDbPolyline
 70
0
 90
2
 38
0
 10
694121.829368033
 20
2178166.61476381
 10
694123.109855838
 20
2178165.86593385
  0
LWPOLYLINE
  5
2020D
  8
0
100
AcDbEntity
100
AcDbPolyline
 70
0
 90
2
 38
0
 10
694122.56107535
 20
2178137.9720181
 10
694128.780587545
 20
2178135.91273572
  0
LWPOLYLINE
  5
2020E
  8
0
100
AcDbEntity
100
AcDbPolyline
 70
0
 90
2
 38
0
 10
694122.926929009
 20
2178094.7270883
 10
694124.207416814
 20
2178094.35267332
  0
LWPOLYLINE
  5
2020F
  8
0
100
AcDbEntity
100
AcDbPolyline
 70
0
 90
2
 38
0
 10
694123.109855838
 20
2178010.10930359
 10
694124.756197301
 20
2178009.36047363
  0
LWPOLYLINE
  5
20210
  8
0
100
AcDbEntity
100
AcDbPolyline
 70
0
 90
2
 38
0
 10
694123.658636326
 20
2178187.58200249
 10
694125.670831448
 20
2178186.64596505
  0
LWPOLYLINE
  5
20211
  8
0
100
AcDbEntity
100
AcDbPolyline
 70
0
 90
2
 38
0
 10
694123.841563155
 20
2178145.08590265
 10
694125.487904618
 20
2178144.71148767
  0
LWPOLYLINE
  5
20212
  8
0
100
AcDbEntity
100
AcDbPolyline
 70
0
 90
2
 38
0
 10
694124.207416814
 20
2178092.29339095
 10
694126.036685106
 20
2178091.544561
  0
LWPOLYLINE
  5
20213
  8
0
100
AcDbEntity
100
AcDbPolyline
 70
0
 90
2
 38
0
 10
694124.573270472
 20
2178083.68184649
 10
694126.402538765
 20
2178083.12022402
  0
LWPOLYLINE
  5
20214
  8
0
100
AcDbEntity
100
AcDbPolyline
 70
0
 90
2
 38
0
 10
694124.573270472
 20
2178085.17950639
 10
694127.68302657
 20
2178084.43067644
  0
LWPOLYLINE
  5
20215
  8
0
100
AcDbEntity
100
AcDbPolyline
 70
0
 90
2
 38
0
 10
694124.573270472
 20
2178089.48527863
 10
694128.231807058
 20
2178088.17482621
  0
LWPOLYLINE
  5
20216
  8
0
100
AcDbEntity
100
AcDbPolyline
 70
0
 90
2
 38
0
 10
694124.939124131
 20
2178008.61164368
 10
694127.134246082
 20
2178007.67560624
  0
LWPOLYLINE
  5
20217
  8
0
100
AcDbEntity
100
AcDbPolyline
 70
0
 90
2
 38
0
 10
694124.939124131
 20
2178060.46811794
 10
694126.402538765
 20
2178059.90649547
  0
LWPOLYLINE
  5
20218
  8
0
100
AcDbEntity
100
AcDbPolyline
 70
0
 90
2
 38
0
 10
694125.304977789
 20
2178062.15298533
 10
694127.317172911
 20
2178061.40415538
  0
LWPOLYLINE
  5
20219
  8
0
100
AcDbEntity
100
AcDbPolyline
 70
0
 90
2
 38
0
 10
694126.585465594
 20
2178166.24034883
 10
694129.512294862
 20
2178165.1171039
  0
LWPOLYLINE
  5
2021A
  8
0
100
AcDbEntity
100
AcDbPolyline
 70
0
 90
2
 38
0
 10
694126.768392423
 20
2178128.05002121
 10
694128.231807058
 20
2178127.48839875
  0
LWPOLYLINE
  5
2021B
  8
0
100
AcDbEntity
100
AcDbPolyline
 70
0
 90
2
 38
0
 10
694127.134246082
 20
2178012.54300093
 10
694130.426929009
 20
2178012.16858596
  0
LWPOLYLINE
  5
2021C
  8
0
100
AcDbEntity
100
AcDbPolyline
 70
0
 90
2
 38
0
 10
694127.68302657
 20
2178005.42911638
 10
694130.426929009
 20
2178004.68028643
  0
LWPOLYLINE
  5
2021D
  8
0
100
AcDbEntity
100
AcDbPolyline
 70
0
 90
2
 38
0
 10
694127.865953399
 20
2178086.30275132
 10
694130.06107535
 20
2178085.36671388
  0
LWPOLYLINE
  5
2021E
  8
0
100
AcDbEntity
100
AcDbPolyline
 70
0
 90
2
 38
0
 10
694128.048880228
 20
2178064.58668268
 10
694130.609855838
 20
2178063.46343775
  0
LWPOLYLINE
  5
2021F
  8
0
100
AcDbEntity
100
AcDbPolyline
 70
0
 90
2
 38
0
 10
694128.231807058
 20
2178083.12022402
 10
694130.06107535
 20
2178082.74580905
  0
LWPOLYLINE
  5
20220
  8
0
100
AcDbEntity
100
AcDbPolyline
 70
0
 90
2
 38
0
 10
694128.597660716
 20
2178142.6522053
 10
694130.244002179
 20
2178142.09058284
  0
LWPOLYLINE
  5
20221
  8
0
100
AcDbEntity
100
AcDbPolyline
 70
0
 90
2
 38
0
 10
694129.512294862
 20
2178090.23410858
 10
694132.256197301
 20
2178089.29807114
  0
LWPOLYLINE
  5
20222
  8
0
100
AcDbEntity
100
AcDbPolyline
 70
0
 90
2
 38
0
 10
694129.695221692
 20
2178143.58824274
 10
694131.341563155
 20
2178143.02662028
  0
LWPOLYLINE
  5
20223
  8
0
100
AcDbEntity
100
AcDbPolyline
 70
0
 90
2
 38
0
 10
694130.792782667
 20
2178169.61008362
 10
694132.073270472
 20
2178169.04846115
  0
LWPOLYLINE
  5
20224
  8
0
100
AcDbEntity
100
AcDbPolyline
 70
0
 90
2
 38
0
 10
694130.975709497
 20
2178042.49619906
 10
694133.536685106
 20
2178041.56016162
  0
LWPOLYLINE
  5
20225
  8
0
100
AcDbEntity
100
AcDbPolyline
 70
0
 90
2
 38
0
 10
694130.975709497
 20
2178145.27311014
 10
694132.987904618
 20
2178144.52428018
  0
LWPOLYLINE
  5
20226
  8
0
100
AcDbEntity
100
AcDbPolyline
 70
0
 90
2
 38
0
 10
694131.158636326
 20
2178065.14830515
 10
694132.62205096
 20
2178064.39947519
  0
LWPOLYLINE
  5
20227
  8
0
100
AcDbEntity
100
AcDbPolyline
 70
0
 90
2
 38
0
 10
694131.158636326
 20
2178163.80665148
 10
694132.439124131
 20
2178163.24502902
  0
LWPOLYLINE
  5
20228
  8
0
100
AcDbEntity
100
AcDbPolyline
 70
0
 90
2
 38
0
 10
694131.524489984
 20
2178147.14518502
 10
694135.914733887
 20
2178145.08590265
  0
LWPOLYLINE
  5
20229
  8
0
100
AcDbEntity
100
AcDbPolyline
 70
0
 90
2
 38
0
 10
694131.890343643
 20
2178086.86437379
 10
694133.719611936
 20
2178085.92833635
  0
LWPOLYLINE
  5
2022A
  8
0
100
AcDbEntity
100
AcDbPolyline
 70
0
 90
2
 38
0
 10
694132.073270472
 20
2178084.61788393
 10
694133.353758277
 20
2178084.24346895
  0
LWPOLYLINE
  5
2022B
  8
0
100
AcDbEntity
100
AcDbPolyline
 70
0
 90
2
 38
0
 10
694132.073270472
 20
2178164.74268892
 10
694134.085465594
 20
2178163.99385897
  0
LWPOLYLINE
  5
2022C
  8
0
100
AcDbEntity
100
AcDbPolyline
 70
0
 90
2
 38
0
 10
694132.256197301
 20
2178058.78325054
 10
694133.536685106
 20
2178058.22162808
  0
LWPOLYLINE
  5
2022D
  8
0
100
AcDbEntity
100
AcDbPolyline
 70
0
 90
2
 38
0
 10
694132.804977789
 20
2178103.33863276
 10
694134.085465594
 20
2178102.7770103
  0
LWPOLYLINE
  5
2022E
  8
0
100
AcDbEntity
100
AcDbPolyline
 70
0
 90
2
 38
0
 10
694132.804977789
 20
2178148.64284493
 10
694134.085465594
 20
2178148.26842995
  0
LWPOLYLINE
  5
2022F
  8
0
100
AcDbEntity
100
AcDbPolyline
 70
0
 90
2
 38
0
 10
694133.170831448
 20
2178168.48683869
 10
694138.475709497
 20
2178166.61476381
  0
LWPOLYLINE
  5
20230
  8
0
100
AcDbEntity
100
AcDbPolyline
 70
0
 90
2
 38
0
 10
694133.353758277
 20
2178010.29651107
 10
694135.18302657
 20
2178009.54768112
  0
LWPOLYLINE
  5
20231
  8
0
100
AcDbEntity
100
AcDbPolyline
 70
0
 90
2
 38
0
 10
694133.353758277
 20
2178066.08434259
 10
694134.817172911
 20
2178065.33551263
  0
LWPOLYLINE
  5
20232
  8
0
100
AcDbEntity
100
AcDbPolyline
 70
0
 90
2
 38
0
 10
694133.353758277
 20
2178122.43379657
 10
694134.634246082
 20
2178121.8721741
  0
LWPOLYLINE
  5
20233
  8
0
100
AcDbEntity
100
AcDbPolyline
 70
0
 90
2
 38
0
 10
694133.719611936
 20
2178166.61476381
 10
694135.548880228
 20
2178165.86593385
  0
LWPOLYLINE
  5
20234
  8
0
100
AcDbEntity
100
AcDbPolyline
 70
0
 90
2
 38
0
 10
694134.268392423
 20
2178132.35579345
 10
694135.731807058
 20
2178131.60696349
  0
LWPOLYLINE
  5
20235
  8
0
100
AcDbEntity
100
AcDbPolyline
 70
0
 90
2
 38
0
 10
694134.268392423
 20
2178188.89245491
 10
694136.463514375
 20
2178188.14362496
  0
LWPOLYLINE
  5
20236
  8
0
100
AcDbEntity
100
AcDbPolyline
 70
0
 90
2
 38
0
 10
694134.634246082
 20
2178042.87061404
 10
694137.012294862
 20
2178041.9345766
  0
LWPOLYLINE
  5
20237
  8
0
100
AcDbEntity
100
AcDbPolyline
 70
0
 90
2
 38
0
 10
694135.00009974
 20
2178170.17170608
 10
694137.195221692
 20
2178169.23566864
  0
LWPOLYLINE
  5
20238
  8
0
100
AcDbEntity
100
AcDbPolyline
 70
0
 90
2
 38
0
 10
694135.18302657
 20
2178046.61476381
 10
694136.646441204
 20
2178046.24034883
  0
LWPOLYLINE
  5
20239
  8
0
100
AcDbEntity
100
AcDbPolyline
 70
0
 90
2
 38
0
 10
694135.548880228
 20
2178085.17950639
 10
694136.829368033
 20
2178084.43067644
  0
LWPOLYLINE
  5
2023A
  8
0
100
AcDbEntity
100
AcDbPolyline
 70
0
 90
2
 38
0
 10
694135.914733887
 20
2178003.93145647
 10
694137.378148521
 20
2178003.18262652
  0
LWPOLYLINE
  5
2023B
  8
0
100
AcDbEntity
100
AcDbPolyline
 70
0
 90
2
 38
0
 10
694136.463514375
 20
2178145.8347326
 10
694139.024489984
 20
2178144.89869516
  0
LWPOLYLINE
  5
2023C
  8
0
100
AcDbEntity
100
AcDbPolyline
 70
0
 90
2
 38
0
 10
694136.829368033
 20
2178014.41507582
 10
694140.853758277
 20
2178012.91741591
  0
LWPOLYLINE
  5
2023D
  8
0
100
AcDbEntity
100
AcDbPolyline
 70
0
 90
2
 38
0
 10
694137.195221692
 20
2178065.8971351
 10
694138.475709497
 20
2178065.14830515
  0
LWPOLYLINE
  5
2023E
  8
0
100
AcDbEntity
100
AcDbPolyline
 70
0
 90
2
 38
0
 10
694137.378148521
 20
2178016.2871507
 10
694139.207416814
 20
2178015.91273572
  0
LWPOLYLINE
  5
2023F
  8
0
100
AcDbEntity
100
AcDbPolyline
 70
0
 90
2
 38
0
 10
694137.56107535
 20
2178004.49307894
 10
694140.12205096
 20
2178003.36983401
  0
LWPOLYLINE
  5
20240
  8
0
100
AcDbEntity
100
AcDbPolyline
 70
0
 90
2
 38
0
 10
694137.744002179
 20
2178132.73020842
 10
694139.390343643
 20
2178132.16858596
  0
LWPOLYLINE
  5
20241
  8
0
100
AcDbEntity
100
AcDbPolyline
 70
0
 90
2
 38
0
 10
694138.475709497
 20
2178090.04690109
 10
694141.768392423
 20
2178088.73644867
  0
LWPOLYLINE
  5
20242
  8
0
100
AcDbEntity
100
AcDbPolyline
 70
0
 90
2
 38
0
 10
694138.841563155
 20
2178103.90025522
 10
694141.036685106
 20
2178103.15142527
  0
LWPOLYLINE
  5
20243
  8
0
100
AcDbEntity
100
AcDbPolyline
 70
0
 90
2
 38
0
 10
694138.841563155
 20
2178114.00945959
 10
694141.402538765
 20
2178113.07342215
  0
LWPOLYLINE
  5
20244
  8
0
100
AcDbEntity
100
AcDbPolyline
 70
0
 90
2
 38
0
 10
694139.024489984
 20
2178160.99853915
 10
694142.317172911
 20
2178159.68808674
  0
LWPOLYLINE
  5
20245
  8
0
100
AcDbEntity
100
AcDbPolyline
 70
0
 90
2
 38
0
 10
694139.390343643
 20
2178096.2247482
 10
694141.768392423
 20
2178095.28871076
  0
LWPOLYLINE
  5
20246
  8
0
100
AcDbEntity
100
AcDbPolyline
 70
0
 90
2
 38
0
 10
694139.390343643
 20
2178135.91273572
 10
694141.402538765
 20
2178134.97669828
  0
LWPOLYLINE
  5
20247
  8
0
100
AcDbEntity
100
AcDbPolyline
 70
0
 90
2
 38
0
 10
694139.573270472
 20
2178046.61476381
 10
694141.219611936
 20
2178046.05314134
  0
LWPOLYLINE
  5
20248
  8
0
100
AcDbEntity
100
AcDbPolyline
 70
0
 90
2
 38
0
 10
694139.939124131
 20
2178005.99073884
 10
694141.951319253
 20
2178005.24190889
  0
LWPOLYLINE
  5
20249
  8
0
100
AcDbEntity
100
AcDbPolyline
 70
0
 90
2
 38
0
 10
694140.304977789
 20
2178090.98293853
 10
694142.865953399
 20
2178090.04690109
  0
LWPOLYLINE
  5
2024A
  8
0
100
AcDbEntity
100
AcDbPolyline
 70
0
 90
2
 38
0
 10
694141.036685106
 20
2178137.41039563
 10
694143.780587545
 20
2178136.2871507
  0
LWPOLYLINE
  5
2024B
  8
0
100
AcDbEntity
100
AcDbPolyline
 70
0
 90
2
 38
0
 10
694141.402538765
 20
2178015.16390577
 10
694143.780587545
 20
2178014.22786833
  0
LWPOLYLINE
  5
2024C
  8
0
100
AcDbEntity
100
AcDbPolyline
 70
0
 90
2
 38
0
 10
694141.402538765
 20
2178161.37295413
 10
694144.146441204
 20
2178160.43691669
  0
LWPOLYLINE
  5
2024D
  8
0
100
AcDbEntity
100
AcDbPolyline
 70
0
 90
2
 38
0
 10
694141.585465594
 20
2178157.81601185
 10
694143.231807058
 20
2178157.0671819
  0
LWPOLYLINE
  5
2024E
  8
0
100
AcDbEntity
100
AcDbPolyline
 70
0
 90
2
 38
0
 10
694141.768392423
 20
2178007.11398377
 10
694144.878148521
 20
2178005.99073884
  0
LWPOLYLINE
  5
2024F
  8
0
100
AcDbEntity
100
AcDbPolyline
 70
0
 90
2
 38
0
 10
694141.951319253
 20
2178013.29183089
 10
694145.609855838
 20
2178011.79417098
  0
LWPOLYLINE
  5
20250
  8
0
100
AcDbEntity
100
AcDbPolyline
 70
0
 90
2
 38
0
 10
694141.951319253
 20
2178087.05158128
 10
694143.963514375
 20
2178086.6771663
  0
LWPOLYLINE
  5
20251
  8
0
100
AcDbEntity
100
AcDbPolyline
 70
0
 90
2
 38
0
 10
694142.317172911
 20
2178091.91897597
 10
694144.512294862
 20
2178091.17014602
  0
LWPOLYLINE
  5
20252
  8
0
100
AcDbEntity
100
AcDbPolyline
 70
0
 90
2
 38
0
 10
694142.68302657
 20
2178170.54612106
 10
694144.512294862
 20
2178169.79729111
  0
LWPOLYLINE
  5
20253
  8
0
100
AcDbEntity
100
AcDbPolyline
 70
0
 90
2
 38
0
 10
694143.231807058
 20
2178174.85189329
 10
694144.878148521
 20
2178174.47747831
  0
LWPOLYLINE
  5
20254
  8
0
100
AcDbEntity
100
AcDbPolyline
 70
0
 90
2
 38
0
 10
694143.597660716
 20
2178002.43379657
 10
694145.792782667
 20
2178001.68496661
  0
LWPOLYLINE
  5
20255
  8
0
100
AcDbEntity
100
AcDbPolyline
 70
0
 90
2
 38
0
 10
694144.329368033
 20
2178043.99385897
 10
694145.609855838
 20
2178043.4322365
  0
LWPOLYLINE
  5
20256
  8
0
100
AcDbEntity
100
AcDbPolyline
 70
0
 90
2
 38
0
 10
694145.609855838
 20
2178161.56016162
 10
694147.804977789
 20
2178160.99853915
  0
LWPOLYLINE
  5
20257
  8
0
100
AcDbEntity
100
AcDbPolyline
 70
0
 90
2
 38
0
 10
694145.792782667
 20
2178163.24502902
 10
694148.719611936
 20
2178162.49619906
  0
LWPOLYLINE
  5
20258
  8
0
100
AcDbEntity
100
AcDbPolyline
 70
0
 90
2
 38
0
 10
694145.792782667
 20
2178170.35891357
 10
694147.256197301
 20
2178169.79729111
  0
LWPOLYLINE
  5
20259
  8
0
100
AcDbEntity
100
AcDbPolyline
 70
0
 90
2
 38
0
 10
694146.524489984
 20
2178109.32927239
 10
694149.085465594
 20
2178108.58044243
  0
LWPOLYLINE
  5
2025A
  8
0
100
AcDbEntity
100
AcDbPolyline
 70
0
 90
2
 38
0
 10
694147.073270472
 20
2178046.42755632
 10
694148.902538765
 20
2178045.67872636
  0
LWPOLYLINE
  5
2025B
  8
0
100
AcDbEntity
100
AcDbPolyline
 70
0
 90
2
 38
0
 10
694148.353758277
 20
2178118.50243931
 10
694151.646441204
 20
2178117.19198689
  0
LWPOLYLINE
  5
2025C
  8
0
100
AcDbEntity
100
AcDbPolyline
 70
0
 90
2
 38
0
 10
694148.719611936
 20
2178049.98449859
 10
694150.548880228
 20
2178049.23566864
  0
LWPOLYLINE
  5
2025D
  8
0
100
AcDbEntity
100
AcDbPolyline
 70
0
 90
2
 38
0
 10
694148.902538765
 20
2178024.71148767
 10
694152.744002179
 20
2178023.40103525
  0
LWPOLYLINE
  5
2025E
  8
0
100
AcDbEntity
100
AcDbPolyline
 70
0
 90
2
 38
0
 10
694148.902538765
 20
2178176.53676069
 10
694150.00009974
 20
2178175.78793073
  0
LWPOLYLINE
  5
2025F
  8
0
100
AcDbEntity
100
AcDbPolyline
 70
0
 90
2
 38
0
 10
694149.451319253
 20
2178047.36359376
 10
694151.463514375
 20
2178046.61476381
  0
LWPOLYLINE
  5
20260
  8
0
100
AcDbEntity
100
AcDbPolyline
 70
0
 90
2
 38
0
 10
694149.451319253
 20
2178164.18106646
 10
694151.097660716
 20
2178163.4322365
  0
LWPOLYLINE
  5
20261
  8
0
100
AcDbEntity
100
AcDbPolyline
 70
0
 90
2
 38
0
 10
694150.731807058
 20
2178039.87529423
 10
694152.195221692
 20
2178039.31367176
  0
LWPOLYLINE
  5
20262
  8
0
100
AcDbEntity
100
AcDbPolyline
 70
0
 90
2
 38
0
 10
694150.731807058
 20
2178119.62568424
 10
694152.195221692
 20
2178119.06406178
  0
LWPOLYLINE
  5
20263
  8
0
100
AcDbEntity
100
AcDbPolyline
 70
0
 90
2
 38
0
 10
694151.097660716
 20
2178122.62100405
 10
694152.926929009
 20
2178121.8721741
  0
LWPOLYLINE
  5
20264
  8
0
100
AcDbEntity
100
AcDbPolyline
 70
0
 90
2
 38
0
 10
694151.097660716
 20
2178168.2996312
 10
694153.658636326
 20
2178167.36359376
  0
LWPOLYLINE
  5
20265
  8
0
100
AcDbEntity
100
AcDbPolyline
 70
0
 90
2
 38
0
 10
694151.646441204
 20
2178001.8721741
 10
694153.841563155
 20
2178001.12334415
  0
LWPOLYLINE
  5
20266
  8
0
100
AcDbEntity
100
AcDbPolyline
 70
0
 90
2
 38
0
 10
694152.012294862
 20
2178006.55236131
 10
694154.024489984
 20
2178006.55236131
  0
LWPOLYLINE
  5
20267
  8
0
100
AcDbEntity
100
AcDbPolyline
 70
0
 90
2
 38
0
 10
694152.012294862
 20
2178137.41039563
 10
694154.207416814
 20
2178136.66156568
  0
LWPOLYLINE
  5
20268
  8
0
100
AcDbEntity
100
AcDbPolyline
 70
0
 90
2
 38
0
 10
694152.378148521
 20
2178008.61164368
 10
694153.841563155
 20
2178008.2372287
  0
LWPOLYLINE
  5
20269
  8
0
100
AcDbEntity
100
AcDbPolyline
 70
0
 90
2
 38
0
 10
694152.378148521
 20
2178040.81133167
 10
694155.670831448
 20
2178039.68808674
  0
LWPOLYLINE
  5
2026A
  8
0
100
AcDbEntity
100
AcDbPolyline
 70
0
 90
2
 38
0
 10
694152.378148521
 20
2178117.94081685
 10
694154.573270472
 20
2178117.0047794
  0
LWPOLYLINE
  5
2026B
  8
0
100
AcDbEntity
100
AcDbPolyline
 70
0
 90
2
 38
0
 10
694152.378148521
 20
2178169.23566864
 10
694153.841563155
 20
2178168.86125366
  0
LWPOLYLINE
  5
2026C
  8
0
100
AcDbEntity
100
AcDbPolyline
 70
0
 90
2
 38
0
 10
694152.744002179
 20
2178138.90805554
 10
694155.304977789
 20
2178137.9720181
  0
LWPOLYLINE
  5
2026D
  8
0
100
AcDbEntity
100
AcDbPolyline
 70
0
 90
2
 38
0
 10
694152.926929009
 20
2178046.98917878
 10
694154.939124131
 20
2178046.24034883
  0
LWPOLYLINE
  5
2026E
  8
0
100
AcDbEntity
100
AcDbPolyline
 70
0
 90
2
 38
0
 10
694153.109855838
 20
2178120.18730671
 10
694154.939124131
 20
2178119.25126927
  0
LWPOLYLINE
  5
2026F
  8
0
100
AcDbEntity
100
AcDbPolyline
 70
0
 90
2
 38
0
 10
694153.475709497
 20
2178023.96265772
 10
694155.304977789
 20
2178023.40103525
  0
LWPOLYLINE
  5
20270
  8
0
100
AcDbEntity
100
AcDbPolyline
 70
0
 90
2
 38
0
 10
694153.658636326
 20
2178003.5570415
 10
694155.487904618
 20
2178002.80821154
  0
LWPOLYLINE
  5
20271
  8
0
100
AcDbEntity
100
AcDbPolyline
 70
0
 90
2
 38
0
 10
694153.658636326
 20
2178164.55548143
 10
694154.939124131
 20
2178163.99385897
  0
LWPOLYLINE
  5
20272
  8
0
100
AcDbEntity
100
AcDbPolyline
 70
0
 90
2
 38
0
 10
694153.841563155
 20
2178048.11242371
 10
694155.670831448
 20
2178047.55080125
  0
LWPOLYLINE
  5
20273
  8
0
100
AcDbEntity
100
AcDbPolyline
 70
0
 90
2
 38
0
 10
694153.841563155
 20
2178127.67560624
 10
694157.317172911
 20
2178126.7395688
  0
LWPOLYLINE
  5
20274
  8
0
100
AcDbEntity
100
AcDbPolyline
 70
0
 90
2
 38
0
 10
694154.756197301
 20
2178045.1171039
 10
694157.68302657
 20
2178044.18106646
  0
LWPOLYLINE
  5
20275
  8
0
100
AcDbEntity
100
AcDbPolyline
 70
0
 90
2
 38
0
 10
694155.304977789
 20
2178049.61008362
 10
694158.414733887
 20
2178048.48683869
  0
LWPOLYLINE
  5
20276
  8
0
100
AcDbEntity
100
AcDbPolyline
 70
0
 90
2
 38
0
 10
694155.304977789
 20
2178117.0047794
 10
694159.695221692
 20
2178114.94549703
  0
LWPOLYLINE
  5
20277
  8
0
100
AcDbEntity
100
AcDbPolyline
 70
0
 90
2
 38
0
 10
694155.670831448
 20
2178001.8721741
 10
694157.50009974
 20
2178001.31055164
  0
LWPOLYLINE
  5
20278
  8
0
100
AcDbEntity
100
AcDbPolyline
 70
0
 90
2
 38
0
 10
694155.670831448
 20
2178022.09058284
 10
694157.865953399
 20
2178021.1545454
  0
LWPOLYLINE
  5
20279
  8
0
100
AcDbEntity
100
AcDbPolyline
 70
0
 90
2
 38
0
 10
694155.853758277
 20
2178122.24658908
 10
694157.317172911
 20
2178121.8721741
  0
LWPOLYLINE
  5
2027A
  8
0
100
AcDbEntity
100
AcDbPolyline
 70
0
 90
2
 38
0
 10
694156.219611936
 20
2178026.58356256
 10
694158.780587545
 20
2178025.46031763
  0
LWPOLYLINE
  5
2027B
  8
0
100
AcDbEntity
100
AcDbPolyline
 70
0
 90
2
 38
0
 10
694156.402538765
 20
2178046.24034883
 10
694158.963514375
 20
2178045.49151888
  0
LWPOLYLINE
  5
2027C
  8
0
100
AcDbEntity
100
AcDbPolyline
 70
0
 90
2
 38
0
 10
694157.134246082
 20
2178163.24502902
 10
694158.780587545
 20
2178162.49619906
  0
LWPOLYLINE
  5
2027D
  8
0
100
AcDbEntity
100
AcDbPolyline
 70
0
 90
2
 38
0
 10
694157.317172911
 20
2178027.70680749
 10
694159.329368033
 20
2178026.95797753
  0
LWPOLYLINE
  5
2027E
  8
0
100
AcDbEntity
100
AcDbPolyline
 70
0
 90
2
 38
0
 10
694157.865953399
 20
2178128.42443619
 10
694159.329368033
 20
2178127.86281373
  0
LWPOLYLINE
  5
2027F
  8
0
100
AcDbEntity
100
AcDbPolyline
 70
0
 90
2
 38
0
 10
694158.048880228
 20
2178002.80821154
 10
694159.878148521
 20
2178001.8721741
  0
LWPOLYLINE
  5
20280
  8
0
100
AcDbEntity
100
AcDbPolyline
 70
0
 90
2
 38
0
 10
694158.780587545
 20
2178145.08590265
 10
694160.06107535
 20
2178144.71148767
  0
LWPOLYLINE
  5
20281
  8
0
100
AcDbEntity
100
AcDbPolyline
 70
0
 90
2
 38
0
 10
694158.963514375
 20
2178140.21850795
 10
694161.524489984
 20
2178139.28247051
  0
LWPOLYLINE
  5
20282
  8
0
100
AcDbEntity
100
AcDbPolyline
 70
0
 90
2
 38
0
 10
694159.146441204
 20
2178030.32771232
 10
694161.341563155
 20
2178029.0172599
  0
LWPOLYLINE
  5
20283
  8
0
100
AcDbEntity
100
AcDbPolyline
 70
0
 90
2
 38
0
 10
694159.146441204
 20
2178126.36515382
 10
694161.524489984
 20
2178125.61632387
  0
LWPOLYLINE
  5
20284
  8
0
100
AcDbEntity
100
AcDbPolyline
 70
0
 90
2
 38
0
 10
694159.329368033
 20
2178054.10306334
 10
694162.073270472
 20
2178052.79261092
  0
LWPOLYLINE
  5
20285
  8
0
100
AcDbEntity
100
AcDbPolyline
 70
0
 90
2
 38
0
 10
694159.512294862
 20
2178174.85189329
 10
694163.353758277
 20
2178173.35423338
  0
LWPOLYLINE
  5
20286
  8
0
100
AcDbEntity
100
AcDbPolyline
 70
0
 90
2
 38
0
 10
694159.878148521
 20
2178005.99073884
 10
694161.158636326
 20
2178005.42911638
  0
LWPOLYLINE
  5
20287
  8
0
100
AcDbEntity
100
AcDbPolyline
 70
0
 90
2
 38
0
 10
694160.06107535
 20
2178122.43379657
 10
694162.62205096
 20
2178121.12334415
  0
LWPOLYLINE
  5
20288
  8
0
100
AcDbEntity
100
AcDbPolyline
 70
0
 90
2
 38
0
 10
694160.06107535
 20
2178133.29183089
 10
694162.256197301
 20
2178132.35579345
  0
LWPOLYLINE
  5
20289
  8
0
100
AcDbEntity
100
AcDbPolyline
 70
0
 90
2
 38
0
 10
694160.06107535
 20
2178167.92521622
 10
694162.073270472
 20
2178167.17638627
  0
LWPOLYLINE
  5
2028A
  8
0
100
AcDbEntity
100
AcDbPolyline
 70
0
 90
2
 38
0
 10
694160.244002179
 20
2178030.88933479
 10
694162.073270472
 20
2178029.95329735
  0
LWPOLYLINE
  5
2028B
  8
0
100
AcDbEntity
100
AcDbPolyline
 70
0
 90
2
 38
0
 10
694160.975709497
 20
2178141.1545454
 10
694163.536685106
 20
2178140.21850795
  0
LWPOLYLINE
  5
2028C
  8
0
100
AcDbEntity
100
AcDbPolyline
 70
0
 90
2
 38
0
 10
694161.524489984
 20
2178126.92677628
 10
694164.451319253
 20
2178125.99073884
  0
LWPOLYLINE
  5
2028D
  8
0
100
AcDbEntity
100
AcDbPolyline
 70
0
 90
2
 38
0
 10
694161.707416814
 20
2178049.23566864
 10
694163.536685106
 20
2178048.2996312
  0
LWPOLYLINE
  5
2028E
  8
0
100
AcDbEntity
100
AcDbPolyline
 70
0
 90
2
 38
0
 10
694161.707416814
 20
2178169.04846115
 10
694164.268392423
 20
2178168.11242371
  0
LWPOLYLINE
  5
2028F
  8
0
100
AcDbEntity
100
AcDbPolyline
 70
0
 90
2
 38
0
 10
694161.890343643
 20
2178051.29495101
 10
694163.719611936
 20
2178050.54612106
  0
LWPOLYLINE
  5
20290
  8
0
100
AcDbEntity
100
AcDbPolyline
 70
0
 90
2
 38
0
 10
694162.073270472
 20
2178123.36983401
 10
694163.353758277
 20
2178122.62100405
  0
LWPOLYLINE
  5
20291
  8
0
100
AcDbEntity
100
AcDbPolyline
 70
0
 90
2
 38
0
 10
694162.256197301
 20
2178036.69276692
 10
694163.536685106
 20
2178036.13114446
  0
LWPOLYLINE
  5
20292
  8
0
100
AcDbEntity
100
AcDbPolyline
 70
0
 90
2
 38
0
 10
694162.439124131
 20
2178028.26842995
 10
694163.719611936
 20
2178027.89401498
  0
LWPOLYLINE
  5
20293
  8
0
100
AcDbEntity
100
AcDbPolyline
 70
0
 90
2
 38
0
 10
694162.804977789
 20
2178143.58824274
 10
694164.817172911
 20
2178142.6522053
  0
LWPOLYLINE
  5
20294
  8
0
100
AcDbEntity
100
AcDbPolyline
 70
0
 90
2
 38
0
 10
694162.987904618
 20
2178130.29651107
 10
694164.451319253
 20
2178129.73488861
  0
LWPOLYLINE
  5
20295
  8
0
100
AcDbEntity
100
AcDbPolyline
 70
0
 90
2
 38
0
 10
694163.170831448
 20
2178056.72396817
 10
694165.548880228
 20
2178055.60072324
  0
LWPOLYLINE
  5
20296
  8
0
100
AcDbEntity
100
AcDbPolyline
 70
0
 90
2
 38
0
 10
694163.170831448
 20
2178141.90337535
 10
694164.451319253
 20
2178141.34175288
  0
LWPOLYLINE
  5
20297
  8
0
100
AcDbEntity
100
AcDbPolyline
 70
0
 90
2
 38
0
 10
694164.085465594
 20
2178034.82069204
 10
694166.829368033
 20
2178033.8846546
  0
LWPOLYLINE
  5
20298
  8
0
100
AcDbEntity
100
AcDbPolyline
 70
0
 90
2
 38
0
 10
694164.085465594
 20
2178102.21538783
 10
694165.731807058
 20
2178101.65376537
  0
LWPOLYLINE
  5
20299
  8
0
100
AcDbEntity
100
AcDbPolyline
 70
0
 90
2
 38
0
 10
694164.085465594
 20
2178143.96265772
 10
694165.548880228
 20
2178143.40103525
  0
LWPOLYLINE
  5
2029A
  8
0
100
AcDbEntity
100
AcDbPolyline
 70
0
 90
2
 38
0
 10
694164.085465594
 20
2178169.79729111
 10
694165.731807058
 20
2178169.23566864
  0
LWPOLYLINE
  5
2029B
  8
0
100
AcDbEntity
100
AcDbPolyline
 70
0
 90
2
 38
0
 10
694164.268392423
 20
2178037.0671819
 10
694166.280587545
 20
2178036.31835195
  0
LWPOLYLINE
  5
2029C
  8
0
100
AcDbEntity
100
AcDbPolyline
 70
0
 90
2
 38
0
 10
694164.634246082
 20
2178060.46811794
 10
694166.097660716
 20
2178059.71928799
  0
LWPOLYLINE
  5
2029D
  8
0
100
AcDbEntity
100
AcDbPolyline
 70
0
 90
2
 38
0
 10
694164.817172911
 20
2178093.41663588
 10
694166.463514375
 20
2178092.85501341
  0
LWPOLYLINE
  5
2029E
  8
0
100
AcDbEntity
100
AcDbPolyline
 70
0
 90
2
 38
0
 10
694165.00009974
 20
2178045.1171039
 10
694168.658636326
 20
2178043.61944399
  0
LWPOLYLINE
  5
2029F
  8
0
100
AcDbEntity
100
AcDbPolyline
 70
0
 90
2
 38
0
 10
694165.731807058
 20
2178004.30587145
 10
694167.926929009
 20
2178003.5570415
  0
LWPOLYLINE
  5
202A0
  8
0
100
AcDbEntity
100
AcDbPolyline
 70
0
 90
2
 38
0
 10
694165.731807058
 20
2178133.1046234
 10
694169.939124131
 20
2178131.60696349
  0
LWPOLYLINE
  5
202A1
  8
0
100
AcDbEntity
100
AcDbPolyline
 70
0
 90
2
 38
0
 10
694165.914733887
 20
2178126.92677628
 10
694168.109855838
 20
2178126.36515382
  0
LWPOLYLINE
  5
202A2
  8
0
100
AcDbEntity
100
AcDbPolyline
 70
0
 90
2
 38
0
 10
694165.914733887
 20
2178146.20914758
 10
694168.292782667
 20
2178145.46031763
  0
LWPOLYLINE
  5
202A3
  8
0
100
AcDbEntity
100
AcDbPolyline
 70
0
 90
2
 38
0
 10
694166.646441204
 20
2178094.91429579
 10
694168.841563155
 20
2178093.97825834
  0
LWPOLYLINE
  5
202A4
  8
0
100
AcDbEntity
100
AcDbPolyline
 70
0
 90
2
 38
0
 10
694166.646441204
 20
2178101.27935039
 10
694169.024489984
 20
2178100.53052043
  0
LWPOLYLINE
  5
202A5
  8
0
100
AcDbEntity
100
AcDbPolyline
 70
0
 90
2
 38
0
 10
694166.829368033
 20
2178074.50867956
 10
694168.841563155
 20
2178073.75984961
  0
LWPOLYLINE
  5
202A6
  8
0
100
AcDbEntity
100
AcDbPolyline
 70
0
 90
2
 38
0
 10
694167.012294862
 20
2178039.31367176
 10
694168.658636326
 20
2178038.7520493
  0
LWPOLYLINE
  5
202A7
  8
0
100
AcDbEntity
100
AcDbPolyline
 70
0
 90
2
 38
0
 10
694167.012294862
 20
2178057.66000561
 10
694168.292782667
 20
2178057.09838315
  0
LWPOLYLINE
  5
202A8
  8
0
100
AcDbEntity
100
AcDbPolyline
 70
0
 90
2
 38
0
 10
694167.195221692
 20
2178059.90649547
 10
694170.853758277
 20
2178058.59604306
  0
LWPOLYLINE
  5
202A9
  8
0
100
AcDbEntity
100
AcDbPolyline
 70
0
 90
2
 38
0
 10
694167.378148521
 20
2178006.17794633
 10
694168.841563155
 20
2178005.61632387
  0
LWPOLYLINE
  5
202AA
  8
0
100
AcDbEntity
100
AcDbPolyline
 70
0
 90
2
 38
0
 10
694167.378148521
 20
2178128.05002121
 10
694169.024489984
 20
2178127.48839875
  0
LWPOLYLINE
  5
202AB
  8
0
100
AcDbEntity
100
AcDbPolyline
 70
0
 90
2
 38
0
 10
694167.56107535
 20
2178077.87841435
 10
694169.207416814
 20
2178077.31679189
  0
LWPOLYLINE
  5
202AC
  8
0
100
AcDbEntity
100
AcDbPolyline
 70
0
 90
2
 38
0
 10
694167.744002179
 20
2178042.30899157
 10
694170.304977789
 20
2178041.18574664
  0
LWPOLYLINE
  5
202AD
  8
0
100
AcDbEntity
100
AcDbPolyline
 70
0
 90
2
 38
0
 10
694167.744002179
 20
2178128.79885117
 10
694170.487904618
 20
2178127.86281373
  0
LWPOLYLINE
  5
202AE
  8
0
100
AcDbEntity
100
AcDbPolyline
 70
0
 90
2
 38
0
 10
694168.109855838
 20
2178023.21382777
 10
694171.219611936
 20
2178021.90337535
  0
LWPOLYLINE
  5
202AF
  8
0
100
AcDbEntity
100
AcDbPolyline
 70
0
 90
2
 38
0
 10
694168.292782667
 20
2178096.03754072
 10
694170.12205096
 20
2178095.28871076
  0
LWPOLYLINE
  5
202B0
  8
0
100
AcDbEntity
100
AcDbPolyline
 70
0
 90
2
 38
0
 10
694168.658636326
 20
2178009.54768112
 10
694171.219611936
 20
2178008.79885117
  0
LWPOLYLINE
  5
202B1
  8
0
100
AcDbEntity
100
AcDbPolyline
 70
0
 90
2
 38
0
 10
694168.658636326
 20
2178055.03910078
 10
694172.865953399
 20
2178053.35423338
  0
LWPOLYLINE
  5
202B2
  8
0
100
AcDbEntity
100
AcDbPolyline
 70
0
 90
2
 38
0
 10
694168.841563155
 20
2178057.47279813
 10
694170.12205096
 20
2178056.53676069
  0
LWPOLYLINE
  5
202B3
  8
0
100
AcDbEntity
100
AcDbPolyline
 70
0
 90
2
 38
0
 10
694169.024489984
 20
2178045.49151888
 10
694170.487904618
 20
2178044.92989641
  0
LWPOLYLINE
  5
202B4
  8
0
100
AcDbEntity
100
AcDbPolyline
 70
0
 90
2
 38
0
 10
694169.390343643
 20
2178129.73488861
 10
694171.585465594
 20
2178128.61164368
  0
LWPOLYLINE
  5
202B5
  8
0
100
AcDbEntity
100
AcDbPolyline
 70
0
 90
2
 38
0
 10
694169.756197301
 20
2178126.7395688
 10
694171.219611936
 20
2178126.17794633
  0
LWPOLYLINE
  5
202B6
  8
0
100
AcDbEntity
100
AcDbPolyline
 70
0
 90
2
 38
0
 10
694169.756197301
 20
2178182.34019282
 10
694171.219611936
 20
2178181.96577785
  0
LWPOLYLINE
  5
202B7
  8
0
100
AcDbEntity
100
AcDbPolyline
 70
0
 90
2
 38
0
 10
694170.12205096
 20
2178096.59916318
 10
694171.585465594
 20
2178096.41195569
  0
LWPOLYLINE
  5
202B8
  8
0
100
AcDbEntity
100
AcDbPolyline
 70
0
 90
2
 38
0
 10
694170.12205096
 20
2178155.56952199
 10
694172.134246082
 20
2178155.00789953
  0
LWPOLYLINE
  5
202B9
  8
0
100
AcDbEntity
100
AcDbPolyline
 70
0
 90
2
 38
0
 10
694171.036685106
 20
2178116.25594945
 10
694172.68302657
 20
2178116.06874196
  0
LWPOLYLINE
  5
202BA
  8
0
100
AcDbEntity
100
AcDbPolyline
 70
0
 90
2
 38
0
 10
694171.951319253
 20
2178050.35891357
 10
694173.414733887
 20
2178049.61008362
  0
LWPOLYLINE
  5
202BB
  8
0
100
AcDbEntity
100
AcDbPolyline
 70
0
 90
2
 38
0
 10
694172.317172911
 20
2178124.68028643
 10
694174.329368033
 20
2178123.93145647
  0
LWPOLYLINE
  5
202BC
  8
0
100
AcDbEntity
100
AcDbPolyline
 70
0
 90
2
 38
0
 10
694172.50009974
 20
2178079.93769672
 10
694174.146441204
 20
2178079.00165928
  0
LWPOLYLINE
  5
202BD
  8
0
100
AcDbEntity
100
AcDbPolyline
 70
0
 90
2
 38
0
 10
694172.50009974
 20
2178158.93925678
 10
694176.341563155
 20
2178157.44159688
  0
LWPOLYLINE
  5
202BE
  8
0
100
AcDbEntity
100
AcDbPolyline
 70
0
 90
2
 38
0
 10
694172.68302657
 20
2178105.77233011
 10
694174.695221692
 20
2178104.83629266
  0
LWPOLYLINE
  5
202BF
  8
0
100
AcDbEntity
100
AcDbPolyline
 70
0
 90
2
 38
0
 10
694173.048880228
 20
2178040.2497092
 10
694174.695221692
 20
2178039.68808674
  0
LWPOLYLINE
  5
202C0
  8
0
100
AcDbEntity
100
AcDbPolyline
 70
0
 90
2
 38
0
 10
694173.231807058
 20
2178068.89245491
 10
694176.890343643
 20
2178067.58200249
  0
LWPOLYLINE
  5
202C1
  8
0
100
AcDbEntity
100
AcDbPolyline
 70
0
 90
2
 38
0
 10
694173.231807058
 20
2178128.2372287
 10
694174.878148521
 20
2178127.67560624
  0
LWPOLYLINE
  5
202C2
  8
0
100
AcDbEntity
100
AcDbPolyline
 70
0
 90
2
 38
0
 10
694173.414733887
 20
2178047.55080125
 10
694175.975709497
 20
2178046.61476381
  0
LWPOLYLINE
  5
202C3
  8
0
100
AcDbEntity
100
AcDbPolyline
 70
0
 90
2
 38
0
 10
694173.597660716
 20
2178055.97513822
 10
694175.426929009
 20
2178055.22630827
  0
LWPOLYLINE
  5
202C4
  8
0
100
AcDbEntity
100
AcDbPolyline
 70
0
 90
2
 38
0
 10
694173.780587545
 20
2178129.9220961
 10
694175.426929009
 20
2178129.17326614
  0
LWPOLYLINE
  5
202C5
  8
0
100
AcDbEntity
100
AcDbPolyline
 70
0
 90
2
 38
0
 10
694174.146441204
 20
2178183.27623026
 10
694176.524489984
 20
2178182.15298533
  0
LWPOLYLINE
  5
202C6
  8
0
100
AcDbEntity
100
AcDbPolyline
 70
0
 90
2
 38
0
 10
694174.512294862
 20
2178006.17794633
 10
694176.158636326
 20
2178005.61632387
  0
LWPOLYLINE
  5
202C7
  8
0
100
AcDbEntity
100
AcDbPolyline
 70
0
 90
2
 38
0
 10
694174.695221692
 20
2178155.19510702
 10
694176.158636326
 20
2178154.82069204
  0
LWPOLYLINE
  5
202C8
  8
0
100
AcDbEntity
100
AcDbPolyline
 70
0
 90
2
 38
0
 10
694175.975709497
 20
2178055.03910078
 10
694177.439124131
 20
2178054.29027082
  0
LWPOLYLINE
  5
202C9
  8
0
100
AcDbEntity
100
AcDbPolyline
 70
0
 90
2
 38
0
 10
694176.707416814
 20
2178103.52584025
 10
694179.085465594
 20
2178102.7770103
  0
LWPOLYLINE
  5
202CA
  8
0
100
AcDbEntity
100
AcDbPolyline
 70
0
 90
2
 38
0
 10
694176.707416814
 20
2178185.70992761
 10
694178.353758277
 20
2178185.14830515
  0
LWPOLYLINE
  5
202CB
  8
0
100
AcDbEntity
100
AcDbPolyline
 70
0
 90
2
 38
0
 10
694177.073270472
 20
2178045.67872636
 10
694179.268392423
 20
2178044.92989641
  0
LWPOLYLINE
  5
202CC
  8
0
100
AcDbEntity
100
AcDbPolyline
 70
0
 90
2
 38
0
 10
694177.073270472
 20
2178161.9345766
 10
694178.902538765
 20
2178161.56016162
  0
LWPOLYLINE
  5
202CD
  8
0
100
AcDbEntity
100
AcDbPolyline
 70
0
 90
2
 38
0
 10
694177.439124131
 20
2178004.30587145
 10
694178.719611936
 20
2178003.93145647
  0
LWPOLYLINE
  5
202CE
  8
0
100
AcDbEntity
100
AcDbPolyline
 70
0
 90
2
 38
0
 10
694177.439124131
 20
2178043.80665148
 10
694179.085465594
 20
2178043.24502902
  0
LWPOLYLINE
  5
202CF
  8
0
100
AcDbEntity
100
AcDbPolyline
 70
0
 90
2
 38
0
 10
694177.439124131
 20
2178134.41507582
 10
694179.451319253
 20
2178133.85345335
  0
ENDSEC
  0
SECTION
  2
OBJECTS
  0
DICTIONARY
  5
C
330
0
100
AcDbDictionary
281
     1
  3
ACAD_GROUP
350
D
  3
ACAD_LAYOUT
350
1A
  3
ACAD_MLEADERSTYLE
350
43
  3
ACAD_MLINESTYLE
350
17
  3
ACAD_PLOTSETTINGS
350
19
  3
ACAD_PLOTSTYLENAME
350
E
  3
ACAD_TABLESTYLE
350
42
  3
ACAD_VISUALSTYLE
350
2A
  0
DICTIONARY
  5
D
102
{ACAD_REACTORS
330
C
102
}
330
C
100
AcDbDictionary
281
     1
  0
DICTIONARY
  5
1A
102
{ACAD_REACTORS
330
C
102
}
330
C
100
AcDbDictionary
281
     1
  3
Layout1
350
1E
  3
Layout2
350
26
  3
Model
350
22
  0
DICTIONARY
  5
43
102
{ACAD_REACTORS
330
C
102
}
330
C
100
AcDbDictionary
281
     1
  0
DICTIONARY
  5
17
102
{ACAD_REACTORS
330
C
102
}
330
C
100
AcDbDictionary
281
     1
  3
Standard
350
18
  0
DICTIONARY
  5
19
102
{ACAD_REACTORS
330
C
102
}
330
C
100
AcDbDictionary
281
     1
  0
ACDBDICTIONARYWDFLT
  5
E
102
{ACAD_REACTORS
330
C
102
}
330
C
100
AcDbDictionary
281
     1
  3
Normal
350
F
100
AcDbDictionaryWithDefault
340
F
  0
DICTIONARY
  5
42
102
{ACAD_REACTORS
330
C
102
}
330
C
100
AcDbDictionary
281
     1
  0
DICTIONARY
  5
2A
102
{ACAD_REACTORS
330
C
102
}
330
C
100
AcDbDictionary
281
     1
  3
2dWireframe
350
2F
  3
3D Hidden
350
31
  3
3dWireframe
350
30
  3
Basic
350
32
  3
Brighten
350
36
  3
ColorChange
350
3A
  3
Conceptual
350
34
  3
Dim
350
35
  3
Facepattern
350
39
  3
Flat
350
2B
  3
FlatWithEdges
350
2C
  3
Gouraud
350
2D
  3
GouraudWithEdges
350
2E
  3
Linepattern
350
38
  3
Realistic
350
33
  3
Thicken
350
37
  0
LAYOUT
  5
1E
102
{ACAD_REACTORS
330
1A
102
}
330
1A
100
AcDbPlotSettings
  1

  2
none_device
  4

  6

 40
0.0
 41
0.0
 42
0.0
 43
0.0
 44
0.0
 45
0.0
 46
0.0
 47
0.0
 48
0.0
 49
0.0
140
0.0
141
0.0
142
1.0
143
1.0
 70
   688
 72
     0
 73
     0
 74
     5
  7

 75
    16
 76
     0
 77
     2
 78
   300
147
1.0
148
0.0
149
0.0
100
AcDbLayout
  1
Layout1
 70
     1
 71
     1
 10
0.0
 20
0.0
 11
12.0
 21
9.0
 12
0.0
 22
0.0
 32
0.0
 14
1.000000000000000E+20
 24
1.000000000000000E+20
 34
1.000000000000000E+20
 15
-1.000000000000000E+20
 25
-1.000000000000000E+20
 35
-1.000000000000000E+20
146
0.0
 13
0.0
 23
0.0
 33
0.0
 16
1.0
 26
0.0
 36
0.0
 17
0.0
 27
1.0
 37
0.0
 76
     0
330
1B
  0
LAYOUT
  5
26
102
{ACAD_REACTORS
330
1A
102
}
330
1A
100
AcDbPlotSettings
  1

  2
none_device
  4

  6

 40
0.0
 41
0.0
 42
0.0
 43
0.0
 44
0.0
 45
0.0
 46
0.0
 47
0.0
 48
0.0
 49
0.0
140
0.0
141
0.0
142
1.0
143
1.0
 70
   688
 72
     0
 73
     0
 74
     5
  7

 75
    16
 76
     0
 77
     2
 78
   300
147
1.0
148
0.0
149
0.0
100
AcDbLayout
  1
Layout2
 70
     1
 71
     2
 10
0.0
 20
0.0
 11
0.0
 21
0.0
 12
0.0
 22
0.0
 32
0.0
 14
0.0
 24
0.0
 34
0.0
 15
0.0
 25
0.0
 35
0.0
146
0.0
 13
0.0
 23
0.0
 33
0.0
 16
1.0
 26
0.0
 36
0.0
 17
0.0
 27
1.0
 37
0.0
 76
     0
330
23
  0
LAYOUT
  5
22
102
{ACAD_REACTORS
330
1A
102
}
330
1A
100
AcDbPlotSettings
  1

  2
none_device
  4

  6

 40
0.0
 41
0.0
 42
0.0
 43
0.0
 44
0.0
 45
0.0
 46
0.0
 47
0.0
 48
0.0
 49
0.0
140
0.0
141
0.0
142
1.0
143
1.0
 70
  1712
 72
     0
 73
     0
 74
     0
  7

 75
     0
 76
     0
 77
     2
 78
   300
147
1.0
148
0.0
149
0.0
100
AcDbLayout
  1
Model
 70
     1
 71
     0
 10
0.0
 20
0.0
 11
12.0
 21
9.0
 12
0.0
 22
0.0
 32
0.0
 14
30.0
 24
49.75
 34
0.0
 15
130.5
 25
163.1318914119703
 35
0.0
146
0.0
 13
0.0
 23
0.0
 33
0.0
 16
1.0
 26
0.0
 36
0.0
 17
0.0
 27
1.0
 37
0.0
 76
     0
330
1F
331
29
  0
MLINESTYLE
  5
18
102
{ACAD_REACTORS
330
17
102
}
330
17
100
AcDbMlineStyle
  2
Standard
 70
     0
  3

 62
   256
 51
90.0
 52
90.0
 71
     2
 49
0.5
 62
   256
  6
BYLAYER
 49
-0.5
 62
   256
  6
BYLAYER
  0
ACDBPLACEHOLDER
  5
F
102
{ACAD_REACTORS
330
E
102
}
330
E
  0
VISUALSTYLE
  5
2F
102
{ACAD_REACTORS
330
2A
102
}
330
2A
100
AcDbVisualStyle
  2
2dWireframe
 70
     4
 71
     0
 72
     2
 73
     0
 90
        0
 40
-0.6
 41
-30.0
 62
     5
 63
     7
421
 16777215
 74
     1
 91
        4
 64
     7
 65
   257
 75
     1
175
     1
 42
1.0
 92
        0
 66
   257
 43
1.0
 76
     1
 77
     6
 78
     2
 67
     7
 79
     5
170
     0
171
     0
290
     0
174
     0
 93
        1
 44
0.0
173
     0
291
     0
 45
0.0
1001
ACAD
1000
AcDbSavedByObjectVersion
1070
     0
  0
VISUALSTYLE
  5
31
102
{ACAD_REACTORS
330
2A
102
}
330
2A
100
AcDbVisualStyle
  2
3D Hidden
 70
     6
 71
     1
 72
     2
 73
     2
 90
        0
 40
-0.6
 41
-30.0
 62
     5
 63
     7
421
 16777215
 74
     2
 91
        2
 64
     7
 65
   257
 75
     2
175
     1
 42
40.0
 92
        0
 66
   257
 43
1.0
 76
     1
 77
     6
 78
     2
 67
     7
 79
     3
170
     0
171
     0
290
     0
174
     0
 93
        1
 44
0.0
173
     0
291
     0
 45
0.0
1001
ACAD
1000
AcDbSavedByObjectVersion
1070
     0
  0
VISUALSTYLE
  5
30
102
{ACAD_REACTORS
330
2A
102
}
330
2A
100
AcDbVisualStyle
  2
3dWireframe
 70
     5
 71
     0
 72
     2
 73
     0
 90
        0
 40
-0.6
 41
-30.0
 62
     5
 63
     7
421
 16777215
 74
     1
 91
        4
 64
     7
 65
   257
 75
     1
175
     1
 42
1.0
 92
        0
 66
   257
 43
1.0
 76
     1
 77
     6
 78
     2
 67
     7
 79
     5
170
     0
171
     0
290
     0
174
     0
 93
        1
 44
0.0
173
     0
291
     0
 45
0.0
1001
ACAD
1000
AcDbSavedByObjectVersion
1070
     0
  0
VISUALSTYLE
  5
32
102
{ACAD_REACTORS
330
2A
102
}
330
2A
100
AcDbVisualStyle
  2
Basic
 70
     7
 71
     1
 72
     0
 73
     1
 90
        0
 40
-0.6
 41
-30.0
 62
     5
 63
     7
421
 16777215
 74
     0
 91
        4
 64
     7
 65
   257
 75
     1
175
     1
 42
1.0
 92
        8
 66
     7
 43
1.0
 76
     1
 77
     6
 78
     2
 67
     7
 79
     5
170
     0
171
     0
290
     0
174
     0
 93
        1
 44
0.0
173
     0
291
     1
 45
0.0
1001
ACAD
1000
AcDbSavedByObjectVersion
1070
     0
  0
VISUALSTYLE
  5
36
102
{ACAD_REACTORS
330
2A
102
}
330
2A
100
AcDbVisualStyle
  2
Brighten
 70
    12
 71
     2
 72
     2
 73
     0
 90
        0
 40
-0.6
 41
-30.0
 62
     5
 63
     7
421
 16777215
 74
     1
 91
        4
 64
     7
 65
   257
 75
     1
175
     1
 42
1.0
 92
        8
 66
     7
 43
1.0
 76
     1
 77
     6
 78
     2
 67
     7
 79
     5
170
     0
171
     0
290
     0
174
     0
 93
        1
 44
50.0
173
     0
291
     1
 45
0.0
1001
ACAD
1000
AcDbSavedByObjectVersion
1070
     0
  0
VISUALSTYLE
  5
3A
102
{ACAD_REACTORS
330
2A
102
}
330
2A
100
AcDbVisualStyle
  2
ColorChange
 70
    16
 71
     2
 72
     2
 73
     3
 90
        0
 40
-0.6
 41
-30.0
 62
     5
 63
     8
421
  8421504
 74
     1
 91
        4
 64
     7
 65
   257
 75
     1
175
     1
 42
1.0
 92
        8
 66
     8
424
  8421504
 43
1.0
 76
     1
 77
     6
 78
     2
 67
     7
 79
     5
170
     0
171
     0
290
     0
174
     0
 93
        1
 44
0.0
173
     0
291
     1
 45
0.0
1001
ACAD
1000
AcDbSavedByObjectVersion
1070
     0
  0
VISUALSTYLE
  5
34
102
{ACAD_REACTORS
330
2A
102
}
330
2A
100
AcDbVisualStyle
  2
Conceptual
 70
     9
 71
     3
 72
     2
 73
     0
 90
        0
 40
-0.6
 41
-30.0
 62
     5
 63
     7
421
 16777215
 74
     2
 91
        2
 64
     7
 65
   257
 75
     1
175
     1
 42
40.0
 92
        8
 66
     7
 43
1.0
 76
     1
 77
     6
 78
     2
 67
     7
 79
     3
170
     0
171
     0
290
     0
174
     0
 93
        1
 44
0.0
173
     0
291
     0
 45
0.0
1001
ACAD
1000
AcDbSavedByObjectVersion
1070
     0
  0
VISUALSTYLE
  5
35
102
{ACAD_REACTORS
330
2A
102
}
330
2A
100
AcDbVisualStyle
  2
Dim
 70
    11
 71
     2
 72
     2
 73
     0
 90
        0
 40
-0.6
 41
-30.0
 62
     5
 63
     7
421
 16777215
 74
     1
 91
        4
 64
     7
 65
   257
 75
     1
175
     1
 42
1.0
 92
        8
 66
     7
 43
1.0
 76
     1
 77
     6
 78
     2
 67
     7
 79
     5
170
     0
171
     0
290
     0
174
     0
 93
        1
 44
-50.0
173
     0
291
     1
 45
0.0
1001
ACAD
1000
AcDbSavedByObjectVersion
1070
     0
  0
VISUALSTYLE
  5
39
102
{ACAD_REACTORS
330
2A
102
}
330
2A
100
AcDbVisualStyle
  2
Facepattern
 70
    15
 71
     2
 72
     2
 73
     0
 90
        0
 40
-0.6
 41
-30.0
 62
     5
 63
     7
421
 16777215
 74
     1
 91
        4
 64
     7
 65
   257
 75
     1
175
     1
 42
1.0
 92
        8
 66
     7
 43
1.0
 76
     1
 77
     6
 78
     2
 67
     7
 79
     5
170
     0
171
     0
290
     0
174
     0
 93
        1
 44
0.0
173
     0
291
     1
 45
0.0
1001
ACAD
1000
AcDbSavedByObjectVersion
1070
     0
  0
VISUALSTYLE
  5
2B
102
{ACAD_REACTORS
330
2A
102
}
330
2A
100
AcDbVisualStyle
  2
Flat
 70
     0
 71
     2
 72
     1
 73
     1
 90
        2
 40
-0.6
 41
30.0
 62
     5
 63
     7
421
 16777215
 74
     0
 91
        4
 64
     7
 65
   257
 75
     1
175
     1
 42
1.0
 92
        8
 66
     7
 43
1.0
 76
     1
 77
     6
 78
     2
 67
     7
 79
     5
170
     0
171
     0
290
     0
174
     0
 93
       13
 44
0.0
173
     0
291
     1
 45
0.0
1001
ACAD
1000
AcDbSavedByObjectVersion
1070
     0
  0
VISUALSTYLE
  5
2C
102
{ACAD_REACTORS
330
2A
102
}
330
2A
100
AcDbVisualStyle
  2
FlatWithEdges
 70
     1
 71
     2
 72
     1
 73
     1
 90
        2
 40
-0.6
 41
30.0
 62
     5
 63
     7
421
 16777215
 74
     1
 91
        4
 64
     7
 65
   257
 75
     1
175
     1
 42
1.0
 92
        0
 66
   257
 43
1.0
 76
     1
 77
     6
 78
     2
 67
     7
 79
     5
170
     0
171
     0
290
     0
174
     0
 93
       13
 44
0.0
173
     0
291
     1
 45
0.0
1001
ACAD
1000
AcDbSavedByObjectVersion
1070
     0
  0
VISUALSTYLE
  5
2D
102
{ACAD_REACTORS
330
2A
102
}
330
2A
100
AcDbVisualStyle
  2
Gouraud
 70
     2
 71
     2
 72
     2
 73
     1
 90
        2
 40
-0.6
 41
30.0
 62
     5
 63
     7
421
 16777215
 74
     0
 91
        4
 64
     7
 65
   257
 75
     1
175
     1
 42
1.0
 92
        0
 66
     7
 43
1.0
 76
     1
 77
     6
 78
     2
 67
     7
 79
     5
170
     0
171
     0
290
     0
174
     0
 93
       13
 44
0.0
173
     0
291
     1
 45
0.0
1001
ACAD
1000
AcDbSavedByObjectVersion
1070
     0
  0
VISUALSTYLE
  5
2E
102
{ACAD_REACTORS
330
2A
102
}
330
2A
100
AcDbVisualStyle
  2
GouraudWithEdges
 70
     3
 71
     2
 72
     2
 73
     1
 90
        2
 40
-0.6
 41
30.0
 62
     5
 63
     7
421
 16777215
 74
     1
 91
        4
 64
     7
 65
   257
 75
     1
175
     1
 42
1.0
 92
        0
 66
   257
 43
1.0
 76
     1
 77
     6
 78
     2
 67
     7
 79
     5
170
     0
171
     0
290
     0
174
     0
 93
       13
 44
0.0
173
     0
291
     1
 45
0.0
1001
ACAD
1000
AcDbSavedByObjectVersion
1070
     0
  0
VISUALSTYLE
  5
38
102
{ACAD_REACTORS
330
2A
102
}
330
2A
100
AcDbVisualStyle
  2
Linepattern
 70
    14
 71
     2
 72
     2
 73
     0
 90
        0
 40
-0.6
 41
-30.0
 62
     5
 63
     7
421
 16777215
 74
     1
 91
        4
 64
     7
 65
   257
 75
     7
175
     7
 42
1.0
 92
        8
 66
     7
 43
1.0
 76
     1
 77
     6
 78
     2
 67
     7
 79
     5
170
     0
171
     0
290
     0
174
     0
 93
        1
 44
0.0
173
     0
291
     1
 45
0.0
1001
ACAD
1000
AcDbSavedByObjectVersion
1070
     0
  0
VISUALSTYLE
  5
33
102
{ACAD_REACTORS
330
2A
102
}
330
2A
100
AcDbVisualStyle
  2
Realistic
 70
     8
 71
     2
 72
     2
 73
     0
 90
        0
 40
-0.6
 41
-30.0
 62
     5
 63
     7
421
 16777215
 74
     1
 91
        0
 64
     7
 65
   257
 75
     1
175
     1
 42
1.0
 92
        8
 66
     8
424
  7895160
 43
1.0
 76
     1
 77
     6
 78
     2
 67
     7
 79
     5
170
     0
171
     0
290
     0
174
     0
 93
       13
 44
0.0
173
     0
291
     0
 45
0.0
1001
ACAD
1000
AcDbSavedByObjectVersion
1070
     0
  0
VISUALSTYLE
  5
37
102
{ACAD_REACTORS
330
2A
102
}
330
2A
100
AcDbVisualStyle
  2
Thicken
 70
    13
 71
     2
 72
     2
 73
     0
 90
        0
 40
-0.6
 41
-30.0
 62
     5
 63
     7
421
 16777215
 74
     1
 91
        4
 64
     7
 65
   257
 75
     1
175
     1
 42
1.0
 92
       12
 66
     7
 43
1.0
 76
     1
 77
     6
 78
     2
 67
     7
 79
     5
170
     0
171
     0
290
     0
174
     0
 93
        1
 44
0.0
173
     0
291
     1
 45
0.0
1001
ACAD
1000
AcDbSavedByObjectVersion
1070
     0
  0
ENDSEC
  0
EOF
