  0
SECTION
  2
HEADER
  9
$ACADVER
  1
AC1014
  9
$ACADMAINTVER
 70
     9
  9
$DWGCODEPAGE
  3
ANSI_1252
  9
$INSBASE
 10
0.0
 20
0.0
 30
0.0
  9
$EXTMIN
 10
0.1831837800564244
 20
0.5615997272543609
 30
0.0
  9
$EXTMAX
 10
578.38177469722
 20
600.1873067445122
 30
0.0
  9
$LIMMIN
 10
0.0
 20
0.0
  9
$LIMMAX
 10
12.0
 20
9.0
  9
$ORTHOMODE
 70
     0
  9
$REGENMODE
 70
     1
  9
$FILLMODE
 70
     1
  9
$QTEXTMODE
 70
     0
  9
$MIRRTEXT
 70
     1
  9
$DRAGMODE
 70
     2
  9
$LTSCALE
 40
1.0
  9
$OSMODE
 70
    37
  9
$ATTMODE
 70
     1
  9
$TEXTSIZE
 40
0.2
  9
$TRACEWID
 40
0.05
  9
$TEXTSTYLE
  7
STANDARD
  9
$CLAYER
  8
0
  9
$CELTYPE
  6
BYLAYER
  9
$CECOLOR
 62
   256
  9
$CELTSCALE
 40
1.0
  9
$DELOBJ
 70
     1
  9
$DISPSILH
 70
     0
  9
$DIMSCALE
 40
1.0
  9
$DIMASZ
 40
0.18
  9
$DIMEXO
 40
0.0625
  9
$DIMDLI
 40
0.38
  9
$DIMRND
 40
0.0
  9
$DIMDLE
 40
0.0
  9
$DIMEXE
 40
0.18
  9
$DIMTP
 40
0.0
  9
$DIMTM
 40
0.0
  9
$DIMTXT
 40
0.18
  9
$DIMCEN
 40
0.09
  9
$DIMTSZ
 40
0.0
  9
$DIMTOL
 70
     0
  9
$DIMLIM
 70
     0
  9
$DIMTIH
 70
     1
  9
$DIMTOH
 70
     1
  9
$DIMSE1
 70
     0
  9
$DIMSE2
 70
     0
  9
$DIMTAD
 70
     0
  9
$DIMZIN
 70
     0
  9
$DIMBLK
  1

  9
$DIMASO
 70
     1
  9
$DIMSHO
 70
     1
  9
$DIMPOST
  1

  9
$DIMAPOST
  1

  9
$DIMALT
 70
     0
  9
$DIMALTD
 70
     2
  9
$DIMALTF
 40
25.4
  9
$DIMLFAC
 40
1.0
  9
$DIMTOFL
 70
     0
  9
$DIMTVP
 40
0.0
  9
$DIMTIX
 70
     0
  9
$DIMSOXD
 70
     0
  9
$DIMSAH
 70
     0
  9
$DIMBLK1
  1

  9
$DIMBLK2
  1

  9
$DIMSTYLE
  2
STANDARD
  9
$DIMCLRD
 70
     0
  9
$DIMCLRE
 70
     0
  9
$DIMCLRT
 70
     0
  9
$DIMTFAC
 40
1.0
  9
$DIMGAP
 40
0.09
  9
$DIMJUST
 70
     0
  9
$DIMSD1
 70
     0
  9
$DIMSD2
 70
     0
  9
$DIMTOLJ
 70
     1
  9
$DIMTZIN
 70
     0
  9
$DIMALTZ
 70
     0
  9
$DIMALTTZ
 70
     0
  9
$DIMFIT
 70
     3
  9
$DIMUPT
 70
     0
  9
$DIMUNIT
 70
     2
  9
$DIMDEC
 70
     4
  9
$DIMTDEC
 70
     4
  9
$DIMALTU
 70
     2
  9
$DIMALTTD
 70
     2
  9
$DIMTXSTY
  7
STANDARD
  9
$DIMAUNIT
 70
     0
  9
$LUNITS
 70
     2
  9
$LUPREC
 70
     4
  9
$SKETCHINC
 40
0.1
  9
$FILLETRAD
 40
0.5
  9
$AUNITS
 70
     0
  9
$AUPREC
 70
     0
  9
$MENU
  1
.
  9
$ELEVATION
 40
0.0
  9
$PELEVATION
 40
0.0
  9
$THICKNESS
 40
0.0
  9
$LIMCHECK
 70
     0
  9
$CHAMFERA
 40
0.0
  9
$CHAMFERB
 40
0.0
  9
$CHAMFERC
 40
0.0
  9
$CHAMFERD
 40
0.0
  9
$SKPOLY
 70
     0
  9
$TDCREATE
 40
2458589.57994625
  9
$TDUPDATE
 40
2458589.579947153
  9
$TDINDWG
 40
0.0000000116
  9
$TDUSRTIMER
 40
0.0000000116
  9
$USRTIMER
 70
     1
  9
$ANGBASE
 50
0.0
  9
$ANGDIR
 70
     0
  9
$PDMODE
 70
     0
  9
$PDSIZE
 40
0.0
  9
$PLINEWID
 40
0.0
  9
$COORDS
 70
     1
  9
$SPLFRAME
 70
     0
  9
$SPLINETYPE
 70
     6
  9
$SPLINESEGS
 70
     8
  9
$ATTDIA
 70
     0
  9
$ATTREQ
 70
     1
  9
$HANDLING
 70
     1
  9
$HANDSEED
  5
2AF
  9
$SURFTAB1
 70
     6
  9
$SURFTAB2
 70
     6
  9
$SURFTYPE
 70
     6
  9
$SURFU
 70
     6
  9
$SURFV
 70
     6
  9
$UCSNAME
  2

  9
$UCSORG
 10
0.0
 20
0.0
 30
0.0
  9
$UCSXDIR
 10
1.0
 20
0.0
 30
0.0
  9
$UCSYDIR
 10
0.0
 20
1.0
 30
0.0
  9
$PUCSNAME
  2

  9
$PUCSORG
 10
0.0
 20
0.0
 30
0.0
  9
$PUCSXDIR
 10
1.0
 20
0.0
 30
0.0
  9
$PUCSYDIR
 10
0.0
 20
1.0
 30
0.0
  9
$USERI1
 70
     0
  9
$USERI2
 70
     0
  9
$USERI3
 70
     0
  9
$USERI4
 70
     0
  9
$USERI5
 70
     0
  9
$USERR1
 40
0.0
  9
$USERR2
 40
0.0
  9
$USERR3
 40
0.0
  9
$USERR4
 40
0.0
  9
$USERR5
 40
0.0
  9
$WORLDVIEW
 70
     1
  9
$SHADEDGE
 70
     3
  9
$SHADEDIF
 70
    70
  9
$TILEMODE
 70
     1
  9
$MAXACTVP
 70
    64
  9
$PINSBASE
 10
0.0
 20
0.0
 30
0.0
  9
$PLIMCHECK
 70
     0
  9
$PEXTMIN
 10
1.000000000000000E+20
 20
1.000000000000000E+20
 30
1.000000000000000E+20
  9
$PEXTMAX
 10
-1.000000000000000E+20
 20
-1.000000000000000E+20
 30
-1.000000000000000E+20
  9
$PLIMMIN
 10
0.0
 20
0.0
  9
$PLIMMAX
 10
12.0
 20
9.0
  9
$UNITMODE
 70
     0
  9
$VISRETAIN
 70
     1
  9
$PLINEGEN
 70
     0
  9
$PSLTSCALE
 70
     1
  9
$TREEDEPTH
 70
  3020
  9
$PICKSTYLE
 70
     1
  9
$CMLSTYLE
  2
STANDARD
  9
$CMLJUST
 70
     0
  9
$CMLSCALE
 40
1.0
  9
$PROXYGRAPHICS
 70
     1
  9
$MEASUREMENT
 70
     0
  0
ENDSEC
  0
SECTION
  2
CLASSES
  0
CLASS
  1
ACDBDICTIONARYWDFLT
  2
AcDbDictionaryWithDefault
  3
ObjectDBX Classes
 90
        0
280
     0
281
     0
  0
CLASS
  1
VISUALSTYLE
  2
AcDbVisualStyle
  3
ObjectDBX Classes
 90
     4095
280
     0
281
     0
  0
CLASS
  1
MATERIAL
  2
AcDbMaterial
  3
ObjectDBX Classes
 90
     1153
280
     0
281
     0
  0
CLASS
  1
SCALE
  2
AcDbScale
  3
ObjectDBX Classes
 90
     1153
280
     0
281
     0
  0
CLASS
  1
TABLESTYLE
  2
AcDbTableStyle
  3
ObjectDBX Classes
 90
     4095
280
     0
281
     0
  0
CLASS
  1
MLEADERSTYLE
  2
AcDbMLeaderStyle
  3
ACDB_MLEADERSTYLE_CLASS
 90
     4095
280
     0
281
     0
  0
CLASS
  1
SUN
  2
AcDbSun
  3
SCENEOE
 90
     1153
280
     0
281
     0
  0
CLASS
  1
DICTIONARYVAR
  2
AcDbDictionaryVar
  3
ObjectDBX Classes
 90
        0
280
     0
281
     0
  0
CLASS
  1
XRECORD
  2
AcDbXrecord
  3
ObjectDBX Classes
 90
        0
280
     0
281
     0
  0
CLASS
  1
LWPOLYLINE
  2
AcDbPolyline
  3
ObjectDBX Classes
 90
        0
280
     0
281
     1
  0
CLASS
  1
HATCH
  2
AcDbHatch
  3
ObjectDBX Classes
 90
        0
280
     0
281
     1
  0
CLASS
  1
ACDBPLACEHOLDER
  2
AcDbPlaceHolder
  3
ObjectDBX Classes
 90
        0
280
     0
281
     0
  0
CLASS
  1
LAYOUT
  2
AcDbLayout
  3
ObjectDBX Classes
 90
        0
280
     0
281
     0
  0
ENDSEC
  0
SECTION
  2
TABLES
  0
TABLE
  2
VPORT
  5
8
102
{ACAD_XDICTIONARY
360
2A6
102
}
330
0
100
AcDbSymbolTable
 70
     1
  0
VPORT
  5
29
330
8
100
AcDbSymbolTableRecord
100
AcDbViewportTableRecord
  2
*ACTIVE
 70
     0
 10
0.0
 20
0.0
 11
1.0
 21
1.0
 12
289.2824792386382
 22
300.3744532358833
 13
0.0
 23
0.0
 14
0.5
 24
0.5
 15
0.5
 25
0.5
 16
0.0
 26
0.0
 36
1.0
 17
0.0
 27
0.0
 37
0.0
 40
611.618221157603
 41
0.9642658480960062
 42
50.0
 43
0.0
 44
0.0
 50
0.0
 51
0.0
 71
     0
 72
   100
 73
     1
 74
     3
 75
     0
 76
     0
 77
     0
 78
     0
  0
ENDTAB
  0
TABLE
  2
LTYPE
  5
5
330
0
100
AcDbSymbolTable
 70
     1
  0
LTYPE
  5
14
330
5
100
AcDbSymbolTableRecord
100
AcDbLinetypeTableRecord
  2
BYBLOCK
 70
     0
  3

 72
    65
 73
     0
 40
0.0
  0
LTYPE
  5
15
330
5
100
AcDbSymbolTableRecord
100
AcDbLinetypeTableRecord
  2
BYLAYER
 70
     0
  3

 72
    65
 73
     0
 40
0.0
  0
LTYPE
  5
16
330
5
100
AcDbSymbolTableRecord
100
AcDbLinetypeTableRecord
  2
CONTINUOUS
 70
     0
  3
Solid line
 72
    65
 73
     0
 40
0.0
  0
ENDTAB
  0
TABLE
  2
LAYER
  5
2
330
0
100
AcDbSymbolTable
 70
     2
  0
LAYER
  5
10
330
2
100
AcDbSymbolTableRecord
100
AcDbLayerTableRecord
  2
0
 70
     0
 62
     7
  6
CONTINUOUS
  0
LAYER
  5
A1
330
2
100
AcDbSymbolTableRecord
100
AcDbLayerTableRecord
  2
MARBLE_FSET5
 70
     0
 62
   136
  6
CONTINUOUS
  0
ENDTAB
  0
TABLE
  2
STYLE
  5
3
330
0
100
AcDbSymbolTable
 70
     1
  0
STYLE
  5
11
330
3
100
AcDbSymbolTableRecord
100
AcDbTextStyleTableRecord
  2
STANDARD
 70
     0
 40
0.0
 41
1.0
 50
0.0
 71
     0
 42
0.2
  3
txt
  4

  0
ENDTAB
  0
TABLE
  2
VIEW
  5
6
330
0
100
AcDbSymbolTable
 70
     0
  0
ENDTAB
  0
TABLE
  2
UCS
  5
7
330
0
100
AcDbSymbolTable
 70
     0
  0
ENDTAB
  0
TABLE
  2
APPID
  5
9
330
0
100
AcDbSymbolTable
 70
     2
  0
APPID
  5
12
330
9
100
AcDbSymbolTableRecord
100
AcDbRegAppTableRecord
  2
ACAD
 70
     0
  0
APPID
  5
2AE
330
9
100
AcDbSymbolTableRecord
100
AcDbRegAppTableRecord
  2
ACAD_MLEADERVER
 70
     0
  0
ENDTAB
  0
TABLE
  2
DIMSTYLE
  5
A
330
0
100
AcDbSymbolTable
 70
     1
  0
DIMSTYLE
105
27
330
A
100
AcDbSymbolTableRecord
100
AcDbDimStyleTableRecord
  2
STANDARD
 70
     0
  3

  4

  5

  6

  7

 40
1.0
 41
0.18
 42
0.0625
 43
0.38
 44
0.18
 45
0.0
 46
0.0
 47
0.0
 48
0.0
140
0.18
141
0.09
142
0.0
143
25.4
144
1.0
145
0.0
146
1.0
147
0.09
 71
     0
 72
     0
 73
     1
 74
     1
 75
     0
 76
     0
 77
     0
 78
     0
170
     0
171
     2
172
     0
173
     0
174
     0
175
     0
176
     0
177
     0
178
     0
270
     2
271
     4
272
     4
273
     2
274
     2
340
11
275
     0
280
     0
281
     0
282
     0
283
     1
284
     0
285
     0
286
     0
287
     3
288
     0
  0
ENDTAB
  0
TABLE
  2
BLOCK_RECORD
  5
1
330
0
100
AcDbSymbolTable
 70
     1
  0
BLOCK_RECORD
  5
1F
330
1
100
AcDbSymbolTableRecord
100
AcDbBlockTableRecord
  2
*MODEL_SPACE
  0
BLOCK_RECORD
  5
1B
330
1
100
AcDbSymbolTableRecord
100
AcDbBlockTableRecord
  2
*PAPER_SPACE
  0
ENDTAB
  0
ENDSEC
  0
SECTION
  2
BLOCKS
  0
BLOCK
  5
20
330
1F
100
AcDbEntity
  8
0
100
AcDbBlockBegin
  2
*MODEL_SPACE
 70
     0
 10
0.0
 20
0.0
 30
0.0
  3
*MODEL_SPACE
  1

  0
ENDBLK
  5
21
330
1F
100
AcDbEntity
  8
0
100
AcDbBlockEnd
  0
BLOCK
  5
1C
330
1B
100
AcDbEntity
 67
     1
  8
0
100
AcDbBlockBegin
  2
*PAPER_SPACE
 70
     0
 10
0.0
 20
0.0
 30
0.0
  3
*PAPER_SPACE
  1

  0
ENDBLK
  5
1D
330
1B
100
AcDbEntity
 67
     1
  8
0
100
AcDbBlockEnd
  0
ENDSEC
  0
SECTION
  2
ENTITIES
  0
LINE
  5
A2
330
1F
100
AcDbEntity
  8
MARBLE_FSET5
100
AcDbLine
 10
0.1831837800564244
 20
335.2886569066904
 30
0.0
 11
0.7328022125875577
 21
330.6084687472321
 31
0.0
  0
LINE
  5
A3
330
1F
100
AcDbEntity
  8
MARBLE_FSET5
100
AcDbLine
 10
0.5495960684493184
 20
209.4851991748437
 30
0.0
 11
1.099214500747621
 21
206.4898787527345
 31
0.0
  0
LINE
  5
A4
330
1F
100
AcDbEntity
  8
MARBLE_FSET5
100
AcDbLine
 10
1.832039077416994
 20
153.6973563116044
 30
0.0
 11
2.564863653969951
 21
149.3915832042694
 31
0.0
  0
LINE
  5
A5
330
1F
100
AcDbEntity
  8
MARBLE_FSET5
100
AcDbLine
 10
2.198451365577057
 20
199.7504078028724
 30
0.0
 11
2.74806979810819
 21
196.5678798542358
 31
0.0
  0
LINE
  5
A6
330
1F
100
AcDbEntity
  8
MARBLE_FSET5
100
AcDbLine
 10
2.564863653969951
 20
558.2528208340518
 30
0.0
 11
3.114482086384669
 21
555.0702928849496
 31
0.0
  0
LINE
  5
A7
330
1F
100
AcDbEntity
  8
MARBLE_FSET5
100
AcDbLine
 10
2.93127594224643
 20
195.2574271694757
 30
0.0
 11
3.297688230522908
 21
193.1981443790719
 31
0.0
  0
LINE
  5
A8
330
1F
100
AcDbEntity
  8
MARBLE_FSET5
100
AcDbLine
 10
4.030512807075866
 20
600.1873067445122
 30
0.0
 11
6.595398825011216
 21
586.7083648447879
 31
0.0
  0
LINE
  5
A9
330
1F
100
AcDbEntity
  8
MARBLE_FSET5
100
AcDbLine
 10
4.213718951214105
 20
51.66925443056971
 30
0.0
 11
5.49616196018178
 21
45.11699100676924
 31
0.0
  0
LINE
  5
AA
330
1F
100
AcDbEntity
  8
MARBLE_FSET5
100
AcDbLine
 10
4.396925095352344
 20
64.02495117206126
 30
0.0
 11
4.946543527883478
 21
60.28080064430833
 31
0.0
  0
LINE
  5
AB
330
1F
100
AcDbEntity
  8
MARBLE_FSET5
100
AcDbLine
 10
5.49616196018178
 20
55.78782001091167
 30
0.0
 11
6.045780392712913
 21
52.79249958880246
 31
0.0
  0
LINE
  5
AC
330
1F
100
AcDbEntity
  8
MARBLE_FSET5
100
AcDbLine
 10
5.862574248574674
 20
263.7753818267956
 30
0.0
 11
6.595398825011216
 21
260.0312312995084
 31
0.0
  0
LINE
  5
AD
330
1F
100
AcDbEntity
  8
MARBLE_FSET5
100
AcDbLine
 10
6.228986536851153
 20
124.1185671421699
 30
0.0
 11
6.778604969265871
 21
121.4976617726497
 31
0.0
  0
LINE
  5
AE
330
1F
100
AcDbEntity
  8
MARBLE_FSET5
100
AcDbLine
 10
6.778604969265871
 20
188.5179562196136
 30
0.0
 11
6.96181111340411
 21
186.6458809557371
 31
0.0
  0
LINE
  5
AF
330
1F
100
AcDbEntity
  8
MARBLE_FSET5
100
AcDbLine
 10
7.145017257542349
 20
33.32291684439406
 30
0.0
 11
7.511429545818828
 21
31.82525663357228
 31
0.0
  0
LINE
  5
B0
330
1F
100
AcDbEntity
  8
MARBLE_FSET5
100
AcDbLine
 10
7.511429545818828
 20
31.07642652792856
 30
0.0
 11
7.694635689957067
 21
29.95318136969581
 31
0.0
  0
LINE
  5
B1
330
1F
100
AcDbEntity
  8
MARBLE_FSET5
100
AcDbLine
 10
7.694635689957067
 20
552.4493875158951
 30
0.0
 11
8.793872554902919
 21
547.2075767768547
 31
0.0
  0
LINE
  5
B2
330
1F
100
AcDbEntity
  8
MARBLE_FSET5
100
AcDbLine
 10
7.694635689957067
 20
583.338629369624
 30
0.0
 11
8.610666410648264
 21
576.5991584197618
 31
0.0
  0
LINE
  5
B3
330
1F
100
AcDbEntity
  8
MARBLE_FSET5
100
AcDbLine
 10
7.877841834211722
 20
112.1372854537331
 30
0.0
 11
7.877841834211722
 21
113.8221531910822
 31
0.0
  0
LINE
  5
B4
330
1F
100
AcDbEntity
  8
MARBLE_FSET5
100
AcDbLine
 10
8.061047978233546
 20
179.9064100058749
 30
0.0
 11
8.977078699041158
 21
175.7878444250673
 31
0.0
  0
LINE
  5
B5
330
1F
100
AcDbEntity
  8
MARBLE_FSET5
100
AcDbLine
 10
8.427460266510025
 20
486.9267532806844
 30
0.0
 11
8.610666410648264
 21
485.6163005954586
 31
0.0
  0
LINE
  5
B6
330
1F
100
AcDbEntity
  8
MARBLE_FSET5
100
AcDbLine
 10
8.793872554902919
 20
23.213710419368
 30
0.0
 11
9.893109419732355
 21
16.66144699649885
 31
0.0
  0
LINE
  5
B7
330
1F
100
AcDbEntity
  8
MARBLE_FSET5
100
AcDbLine
 10
8.793872554902919
 20
484.4930554372258
 30
0.0
 11
9.343490987201221
 21
481.8721500677057
 31
0.0
  0
LINE
  5
B8
330
1F
100
AcDbEntity
  8
MARBLE_FSET5
100
AcDbLine
 10
9.160284843179397
 20
174.8518067933619
 30
0.0
 11
9.343490987201221
 21
172.6053164768964
 31
0.0
  0
LINE
  5
B9
330
1F
100
AcDbEntity
  8
MARBLE_FSET5
100
AcDbLine
 10
9.160284843179397
 20
286.2402849937789
 30
0.0
 11
9.7099032754777
 21
282.496134466026
 31
0.0
  0
LINE
  5
BA
330
1F
100
AcDbEntity
  8
MARBLE_FSET5
100
AcDbLine
 10
9.160284843179397
 20
325.5538655347191
 30
0.0
 11
10.6259339961689
 21
318.2527720057406
 31
0.0
  0
LINE
  5
BB
330
1F
100
AcDbEntity
  8
MARBLE_FSET5
100
AcDbLine
 10
9.893109419732355
 20
54.66457485314459
 30
0.0
 11
10.80914014030714
 21
49.23555658757687
 31
0.0
  0
LINE
  5
BC
330
1F
100
AcDbEntity
  8
MARBLE_FSET5
100
AcDbLine
 10
10.25952170800883
 20
517.4415800813586
 30
0.0
 11
12.45799543766771
 21
505.2730908659287
 31
0.0
  0
LINE
  5
BD
330
1F
100
AcDbEntity
  8
MARBLE_FSET5
100
AcDbLine
 10
10.44272785214707
 20
14.97657925914973
 30
0.0
 11
11.72517086111475
 21
6.177825518418103
 31
0.0
  0
LINE
  5
BE
330
1F
100
AcDbEntity
  8
MARBLE_FSET5
100
AcDbLine
 10
10.6259339961689
 20
394.4462352450937
 30
0.0
 11
11.54196471697651
 21
389.3916320325807
 31
0.0
  0
LINE
  5
BF
330
1F
100
AcDbEntity
  8
MARBLE_FSET5
100
AcDbLine
 10
11.72517086111475
 20
388.0811793478206
 30
0.0
 11
12.09158314950764
 21
386.0218965578824
 31
0.0
  0
LINE
  5
C0
330
1F
100
AcDbEntity
  8
MARBLE_FSET5
100
AcDbLine
 10
12.09158314950764
 20
3.182505096308887
 30
0.0
 11
12.64120158180594
 21
0.5615997272543609
 31
0.0
  0
LINE
  5
C1
330
1F
100
AcDbEntity
  8
MARBLE_FSET5
100
AcDbLine
 10
12.82440772594418
 20
471.3885285900906
 30
0.0
 11
13.92364459077362
 21
465.7723027984612
 31
0.0
  0
LINE
  5
C2
330
1F
100
AcDbEntity
  8
MARBLE_FSET5
100
AcDbLine
 10
13.19082001433708
 20
330.9828838002868
 30
0.0
 11
13.74043844663538
 21
328.1747709042393
 31
0.0
  0
LINE
  5
C3
330
1F
100
AcDbEntity
  8
MARBLE_FSET5
100
AcDbLine
 10
13.19082001433708
 20
499.2824500217102
 30
0.0
 11
13.74043844663538
 21
496.0999220735393
 31
0.0
  0
LINE
  5
C4
330
1F
100
AcDbEntity
  8
MARBLE_FSET5
100
AcDbLine
 10
13.55723230249714
 20
537.4727854048833
 30
0.0
 11
14.29005687916651
 21
532.9798047714867
 31
0.0
  0
LINE
  5
C5
330
1F
100
AcDbEntity
  8
MARBLE_FSET5
100
AcDbLine
 10
14.29005687916651
 20
89.1107597076334
 30
0.0
 11
15.02288145571947
 21
85.36660917988047
 31
0.0
  0
LINE
  5
C6
330
1F
100
AcDbEntity
  8
MARBLE_FSET5
100
AcDbLine
 10
15.02288145571947
 20
84.43057154864073
 30
0.0
 11
17.0381490412401
 21
72.63649738626555
 31
0.0
  0
LINE
  5
C7
330
1F
100
AcDbEntity
  8
MARBLE_FSET5
100
AcDbLine
 10
15.20608759985771
 20
193.1981443790719
 30
0.0
 11
16.85494289710186
 21
184.2121831127442
 31
0.0
  0
LINE
  5
C8
330
1F
100
AcDbEntity
  8
MARBLE_FSET5
100
AcDbLine
 10
15.93891217641067
 20
217.7223303359933
 30
0.0
 11
16.67173675296362
 21
212.854934649542
 31
0.0
  0
LINE
  5
C9
330
1F
100
AcDbEntity
  8
MARBLE_FSET5
100
AcDbLine
 10
16.12211832066532
 20
400.2496685632505
 30
0.0
 11
17.0381490412401
 21
396.1311029829085
 31
0.0
  0
LINE
  5
CA
330
1F
100
AcDbEntity
  8
MARBLE_FSET5
100
AcDbLine
 10
17.22135518549476
 20
208.7363690696657
 30
0.0
 11
17.77097361779306
 21
204.8050110149197
 31
0.0
  0
LINE
  5
CB
330
1F
100
AcDbEntity
  8
MARBLE_FSET5
100
AcDbLine
 10
17.58776747377124
 20
597.1919863219373
 30
0.0
 11
17.9541797619313
 21
595.8815336376429
 31
0.0
  0
LINE
  5
CC
330
1F
100
AcDbEntity
  8
MARBLE_FSET5
100
AcDbLine
 10
18.13738590618595
 20
556.7551606227644
 30
0.0
 11
18.50379819446243
 21
553.5726326741278
 31
0.0
  0
LINE
  5
CD
330
1F
100
AcDbEntity
  8
MARBLE_FSET5
100
AcDbLine
 10
18.32059205032419
 20
593.44783579465
 30
0.0
 11
18.68700433860067
 21
590.4525153725408
 31
0.0
  0
LINE
  5
CE
330
1F
100
AcDbEntity
  8
MARBLE_FSET5
100
AcDbLine
 10
20.70227192412131
 20
132.3556983033195
 30
0.0
 11
21.06868421239778
 21
129.7347929337993
 31
0.0
  0
LINE
  5
CF
330
1F
100
AcDbEntity
  8
MARBLE_FSET5
100
AcDbLine
 10
21.06868421239778
 20
35.94382221391425
 30
0.0
 11
21.43509650079068
 21
34.25895447656512
 31
0.0
  0
LINE
  5
D0
330
1F
100
AcDbEntity
  8
MARBLE_FSET5
100
AcDbLine
 10
21.06868421239778
 20
186.0842583766207
 30
0.0
 11
21.25189035653602
 21
184.3993906392716
 31
0.0
  0
LINE
  5
D1
330
1F
100
AcDbEntity
  8
MARBLE_FSET5
100
AcDbLine
 10
21.98471493308898
 20
552.8238025684841
 30
0.0
 11
23.26715794217307
 21
547.0203692503273
 31
0.0
  0
LINE
  5
D2
330
1F
100
AcDbEntity
  8
MARBLE_FSET5
100
AcDbLine
 10
22.16792107722722
 20
126.7394725121558
 30
0.0
 11
23.26715794217307
 21
120.7488316674717
 31
0.0
  0
LINE
  5
D3
330
1F
100
AcDbEntity
  8
MARBLE_FSET5
100
AcDbLine
 10
22.35112722148187
 20
318.2527720057406
 30
0.0
 11
23.26715794217307
 21
313.3853763192892
 31
0.0
  0
LINE
  5
D4
330
1F
100
AcDbEntity
  8
MARBLE_FSET5
100
AcDbLine
 10
22.35112722148187
 20
380.405670766253
 30
0.0
 11
22.90074565389659
 21
377.2231428176165
 31
0.0
  0
LINE
  5
D5
330
1F
100
AcDbEntity
  8
MARBLE_FSET5
100
AcDbLine
 10
22.90074565389659
 20
16.47423946997151
 30
0.0
 11
23.08395179803483
 21
15.3509943112731
 31
0.0
  0
LINE
  5
D6
330
1F
100
AcDbEntity
  8
MARBLE_FSET5
100
AcDbLine
 10
23.45036408642773
 20
311.7005085819401
 30
0.0
 11
23.99998251872603
 21
308.7051881602965
 31
0.0
  0
LINE
  5
D7
330
1F
100
AcDbEntity
  8
MARBLE_FSET5
100
AcDbLine
 10
23.45036408642773
 20
532.7925972449593
 30
0.0
 11
24.91601323941723
 21
522.6833908203989
 31
0.0
  0
LINE
  5
D8
330
1F
100
AcDbEntity
  8
MARBLE_FSET5
100
AcDbLine
 10
23.63357023044955
 20
32.94850179180503
 30
0.0
 11
24.36639480700251
 21
29.20435126405209
 31
0.0
  0
LINE
  5
D9
330
1F
100
AcDbEntity
  8
MARBLE_FSET5
100
AcDbLine
 10
24.54960095125716
 20
27.51948352670297
 30
0.0
 11
25.09921938355546
 21
23.58812547242269
 31
0.0
  0
LINE
  5
DA
330
1F
100
AcDbEntity
  8
MARBLE_FSET5
100
AcDbLine
 10
24.54960095125716
 20
473.6350189070217
 30
0.0
 11
24.91601323941723
 21
470.8269060114399
 31
0.0
  0
LINE
  5
DB
330
1F
100
AcDbEntity
  8
MARBLE_FSET5
100
AcDbLine
 10
25.6488378160866
 20
155.5694315754808
 30
0.0
 11
26.74807468091603
 21
150.5148283629678
 31
0.0
  0
LINE
  5
DC
330
1F
100
AcDbEntity
  8
MARBLE_FSET5
100
AcDbLine
 10
26.01525010436308
 20
20.59280505031347
 30
0.0
 11
26.74807468091603
 21
15.3509943112731
 31
0.0
  0
LINE
  5
DD
330
1F
100
AcDbEntity
  8
MARBLE_FSET5
100
AcDbLine
 10
26.1984562483849
 20
399.126423404552
 30
0.0
 11
26.74807468091603
 21
396.8799330880865
 31
0.0
  0
LINE
  5
DE
330
1F
100
AcDbEntity
  8
MARBLE_FSET5
100
AcDbLine
 10
26.93128082505427
 20
11.04522120440379
 30
0.0
 11
27.84731154574547
 21
5.616202939301729
 31
0.0
  0
LINE
  5
DF
330
1F
100
AcDbEntity
  8
MARBLE_FSET5
100
AcDbLine
 10
27.66410540172365
 20
233.6349700787105
 30
0.0
 11
28.39692997816019
 21
230.2652346040122
 31
0.0
  0
LINE
  5
E0
330
1F
100
AcDbEntity
  8
MARBLE_FSET5
100
AcDbLine
 10
28.76334226655308
 20
229.3291969718412
 30
0.0
 11
29.31296069885138
 21
226.7082916027866
 31
0.0
  0
LINE
  5
E1
330
1F
100
AcDbEntity
  8
MARBLE_FSET5
100
AcDbLine
 10
29.86257913138252
 20
222.21531096939
 30
0.0
 11
30.04578527552076
 21
220.3432357055135
 31
0.0
  0
LINE
  5
E2
330
1F
100
AcDbEntity
  8
MARBLE_FSET5
100
AcDbLine
 10
30.04578527552076
 20
205.5538411205634
 30
0.0
 11
30.77860985207371
 21
202.7457282249816
 31
0.0
  0
LINE
  5
E3
330
1F
100
AcDbEntity
  8
MARBLE_FSET5
100
AcDbLine
 10
30.228991419659
 20
219.5944055994041
 30
0.0
 11
30.41219756368082
 21
217.909537862055
 31
0.0
  0
LINE
  5
E4
330
1F
100
AcDbEntity
  8
MARBLE_FSET5
100
AcDbLine
 10
30.96181599621195
 20
180.4680325849913
 30
0.0
 11
31.87784671701957
 21
175.7878444250673
 31
0.0
  0
LINE
  5
E5
330
1F
100
AcDbEntity
  8
MARBLE_FSET5
100
AcDbLine
 10
30.96181599621195
 20
593.2606282681227
 30
0.0
 11
31.32822828448843
 21
591.0141379516572
 31
0.0
  0
LINE
  5
E6
330
1F
100
AcDbEntity
  8
MARBLE_FSET5
100
AcDbLine
 10
32.977083581849
 20
356.0686923358589
 30
0.0
 11
33.34349587000906
 21
354.3838245985098
 31
0.0
  0
LINE
  5
E7
330
1F
100
AcDbEntity
  8
MARBLE_FSET5
100
AcDbLine
 10
33.16028972598724
 20
561.2481412556954
 30
0.0
 11
34.07632044667844
 21
555.8191229905933
 31
0.0
  0
LINE
  5
E8
330
1F
100
AcDbEntity
  8
MARBLE_FSET5
100
AcDbLine
 10
33.8931143025402
 20
539.5320681948215
 30
0.0
 11
34.62593887897674
 21
535.0390875614248
 31
0.0
  0
LINE
  5
E9
330
1F
100
AcDbEntity
  8
MARBLE_FSET5
100
AcDbLine
 10
34.25952659081668
 20
396.6927255620249
 30
0.0
 11
34.80914502323139
 21
393.1357825603336
 31
0.0
  0
LINE
  5
EA
330
1F
100
AcDbEntity
  8
MARBLE_FSET5
100
AcDbLine
 10
34.25952659081668
 20
433.7598157864995
 30
0.0
 11
35.17555731150787
 21
428.7052125739865
 31
0.0
  0
LINE
  5
EB
330
1F
100
AcDbEntity
  8
MARBLE_FSET5
100
AcDbLine
 10
34.44273273495492
 20
466.7083404306322
 30
0.0
 11
34.62593887897674
 21
465.3978877458721
 31
0.0
  0
LINE
  5
EC
330
1F
100
AcDbEntity
  8
MARBLE_FSET5
100
AcDbLine
 10
34.62593887897674
 20
97.347890868783
 30
0.0
 11
36.09158803231549
 21
90.23400486633182
 31
0.0
  0
LINE
  5
ED
330
1F
100
AcDbEntity
  8
MARBLE_FSET5
100
AcDbLine
 10
34.80914502323139
 20
447.6131727388129
 30
0.0
 11
35.54196959978435
 21
442.9329845798202
 31
0.0
  0
LINE
  5
EE
330
1F
100
AcDbEntity
  8
MARBLE_FSET5
100
AcDbLine
 10
35.17555731150787
 20
462.2153597972356
 30
0.0
 11
35.72517574392259
 21
459.7816619542427
 31
0.0
  0
LINE
  5
EF
330
1F
100
AcDbEntity
  8
MARBLE_FSET5
100
AcDbLine
 10
35.90838188817725
 20
390.1404621382244
 30
0.0
 11
36.45800032047555
 21
388.2683868743479
 31
0.0
  0
LINE
  5
F0
330
1F
100
AcDbEntity
  8
MARBLE_FSET5
100
AcDbLine
 10
35.90838188817725
 20
543.6506337756291
 30
0.0
 11
36.27479417633731
 21
540.8425208795816
 31
0.0
  0
LINE
  5
F1
330
1F
100
AcDbEntity
  8
MARBLE_FSET5
100
AcDbLine
 10
36.45800032047555
 20
375.9126901328564
 30
0.0
 11
37.37403104128316
 21
369.5476342355832
 31
0.0
  0
LINE
  5
F2
330
1F
100
AcDbEntity
  8
MARBLE_FSET5
100
AcDbLine
 10
36.45800032047555
 20
387.5195567687042
 30
0.0
 11
36.64120646461379
 21
384.524236346595
 31
0.0
  0
LINE
  5
F3
330
1F
100
AcDbEntity
  8
MARBLE_FSET5
100
AcDbLine
 10
37.55723718530498
 20
124.680189721752
 30
0.0
 11
38.83968019427266
 21
117.7535112453625
 31
0.0
  0
LINE
  5
F4
330
1F
100
AcDbEntity
  8
MARBLE_FSET5
100
AcDbLine
 10
38.29006176197436
 20
268.2683624601923
 30
0.0
 11
38.65647405025084
 21
267.1451173019595
 31
0.0
  0
LINE
  5
F5
330
1F
100
AcDbEntity
  8
MARBLE_FSET5
100
AcDbLine
 10
38.4732679061126
 20
42.49608563771471
 30
0.0
 11
39.57250477094203
 21
36.50544479349628
 31
0.0
  0
LINE
  5
F6
330
1F
100
AcDbEntity
  8
MARBLE_FSET5
100
AcDbLine
 10
38.65647405025084
 20
186.8330884822644
 30
0.0
 11
39.75571091508027
 21
181.029655163642
 31
0.0
  0
LINE
  5
F7
330
1F
100
AcDbEntity
  8
MARBLE_FSET5
100
AcDbLine
 10
38.65647405025084
 20
266.3962871967815
 30
0.0
 11
39.02288633852731
 21
264.3370044063777
 31
0.0
  0
LINE
  5
F8
330
1F
100
AcDbEntity
  8
MARBLE_FSET5
100
AcDbLine
 10
39.75571091508027
 20
35.19499210827053
 30
0.0
 11
41.58777235657908
 21
24.89857815718278
 31
0.0
  0
LINE
  5
F9
330
1F
100
AcDbEntity
  8
MARBLE_FSET5
100
AcDbLine
 10
40.3053293476114
 20
564.6178767313249
 30
0.0
 11
40.48853549163323
 21
563.4946315726265
 31
0.0
  0
LINE
  5
FA
330
1F
100
AcDbEntity
  8
MARBLE_FSET5
100
AcDbLine
 10
40.85494777990971
 20
307.9563580541871
 30
0.0
 11
41.2213600683026
 21
304.5866225794889
 31
0.0
  0
LINE
  5
FB
330
1F
100
AcDbEntity
  8
MARBLE_FSET5
100
AcDbLine
 10
41.03815392404795
 20
286.4274925198406
 30
0.0
 11
41.58777235657908
 21
283.6193796237931
 31
0.0
  0
LINE
  5
FC
330
1F
100
AcDbEntity
  8
MARBLE_FSET5
100
AcDbLine
 10
41.03815392404795
 20
598.502439007163
 30
0.0
 11
41.40456621244084
 21
597.0047787958756
 31
0.0
  0
LINE
  5
FD
330
1F
100
AcDbEntity
  8
MARBLE_FSET5
100
AcDbLine
 10
41.2213600683026
 20
195.6318422220647
 30
0.0
 11
42.32059693313204
 21
189.453993851319
 31
0.0
  0
LINE
  5
FE
330
1F
100
AcDbEntity
  8
MARBLE_FSET5
100
AcDbLine
 10
41.2213600683026
 20
556.567953096237
 30
0.0
 11
43.23662765393965
 21
545.7099165655673
 31
0.0
  0
LINE
  5
FF
330
1F
100
AcDbEntity
  8
MARBLE_FSET5
100
AcDbLine
 10
41.58777235657908
 20
401.3729137214832
 30
0.0
 11
42.1373907889938
 21
397.6287631937303
 31
0.0
  0
LINE
  5
100
330
1F
100
AcDbEntity
  8
MARBLE_FSET5
100
AcDbLine
 10
42.1373907889938
 20
594.1966659002937
 30
0.0
 11
42.68700922140852
 21
591.7629680568352
 31
0.0
  0
LINE
  5
101
330
1F
100
AcDbEntity
  8
MARBLE_FSET5
100
AcDbLine
 10
42.87021536554676
 20
277.815946306102
 30
0.0
 11
43.60303994209971
 21
272.1997205144726
 31
0.0
  0
LINE
  5
102
330
1F
100
AcDbEntity
  8
MARBLE_FSET5
100
AcDbLine
 10
44.51907066290732
 20
175.9750519515947
 30
0.0
 11
46.7175443925662
 21
161.5600724196993
 31
0.0
  0
LINE
  5
103
330
1F
100
AcDbEntity
  8
MARBLE_FSET5
100
AcDbLine
 10
44.51907066290732
 20
584.4618745278567
 30
0.0
 11
45.61830752773676
 21
578.6584412101656
 31
0.0
  0
LINE
  5
104
330
1F
100
AcDbEntity
  8
MARBLE_FSET5
100
AcDbLine
 10
45.06868909520563
 20
231.2012722357176
 30
0.0
 11
45.25189523946028
 21
230.0780270774849
 31
0.0
  0
LINE
  5
105
330
1F
100
AcDbEntity
  8
MARBLE_FSET5
100
AcDbLine
 10
46.16792596003506
 20
94.53977797320113
 30
0.0
 11
46.90075053670444
 21
90.98283497197554
 31
0.0
  0
LINE
  5
106
330
1F
100
AcDbEntity
  8
MARBLE_FSET5
100
AcDbLine
 10
46.90075053670444
 20
246.1778743467294
 30
0.0
 11
47.99998740153387
 21
240.3744410285726
 31
0.0
  0
LINE
  5
107
330
1F
100
AcDbEntity
  8
MARBLE_FSET5
100
AcDbLine
 10
46.90075053670444
 20
417.098345937673
 30
0.0
 11
47.08395668084268
 21
415.9751007799059
 31
0.0
  0
LINE
  5
108
330
1F
100
AcDbEntity
  8
MARBLE_FSET5
100
AcDbLine
 10
47.08395668084268
 20
495.912714547012
 30
0.0
 11
47.63357511325739
 21
493.1046016509645
 31
0.0
  0
LINE
  5
109
330
1F
100
AcDbEntity
  8
MARBLE_FSET5
100
AcDbLine
 10
47.26716282498091
 20
383.4009911883622
 30
0.0
 11
47.63357511325739
 21
380.9672933449037
 31
0.0
  0
LINE
  5
10A
330
1F
100
AcDbEntity
  8
MARBLE_FSET5
100
AcDbLine
 10
47.63357511325739
 20
7.301070676650852
 30
0.0
 11
48.18319354567211
 21
4.118542728479952
 31
0.0
  0
LINE
  5
10B
330
1F
100
AcDbEntity
  8
MARBLE_FSET5
100
AcDbLine
 10
48.36639968992677
 20
2.808090043719858
 30
0.0
 11
48.73281197820324
 21
0.5615997272543609
 31
0.0
  0
LINE
  5
10C
330
1F
100
AcDbEntity
  8
MARBLE_FSET5
100
AcDbLine
 10
48.91601812222507
 20
406.4275169339962
 30
0.0
 11
49.28243041050155
 21
403.806611564476
 31
0.0
  0
LINE
  5
10D
330
1F
100
AcDbEntity
  8
MARBLE_FSET5
100
AcDbLine
 10
50.56487341958564
 20
176.7238820572384
 30
0.0
 11
52.21372871682979
 21
167.3635057373904
 31
0.0
  0
LINE
  5
10E
330
1F
100
AcDbEntity
  8
MARBLE_FSET5
100
AcDbLine
 10
51.48090414039325
 20
338.4711848557927
 30
0.0
 11
51.84731642855331
 21
335.4758644332178
 31
0.0
  0
LINE
  5
10F
330
1F
100
AcDbEntity
  8
MARBLE_FSET5
100
AcDbLine
 10
52.39693486096803
 20
205.1794260675088
 30
0.0
 11
53.49617172579747
 21
199.1887852232903
 31
0.0
  0
LINE
  5
110
330
1F
100
AcDbEntity
  8
MARBLE_FSET5
100
AcDbLine
 10
53.31296558165923
 20
351.7629192289896
 30
0.0
 11
53.67937787005212
 21
349.3292213855311
 31
0.0
  0
LINE
  5
111
330
1F
100
AcDbEntity
  8
MARBLE_FSET5
100
AcDbLine
 10
53.86258401419036
 20
347.0827310690656
 30
0.0
 11
54.0457901583286
 21
345.9594859108329
 31
0.0
  0
LINE
  5
112
330
1F
100
AcDbEntity
  8
MARBLE_FSET5
100
AcDbLine
 10
54.22899630246684
 20
29.39155879057944
 30
0.0
 11
54.41220244648866
 21
28.08110610581934
 31
0.0
  0
LINE
  5
113
330
1F
100
AcDbEntity
  8
MARBLE_FSET5
100
AcDbLine
 10
54.5954085906269
 20
89.1107597076334
 30
0.0
 11
55.32823316729628
 21
85.74102423293516
 31
0.0
  0
LINE
  5
114
330
1F
100
AcDbEntity
  8
MARBLE_FSET5
100
AcDbLine
 10
55.87785159982741
 20
498.7208274430595
 30
0.0
 11
56.42747003212571
 21
495.7255070204847
 31
0.0
  0
LINE
  5
115
330
1F
100
AcDbEntity
  8
MARBLE_FSET5
100
AcDbLine
 10
56.06105774384923
 20
300.0936419460922
 30
0.0
 11
56.61067617626395
 21
295.7878688392229
 31
0.0
  0
LINE
  5
116
330
1F
100
AcDbEntity
  8
MARBLE_FSET5
100
AcDbLine
 10
56.61067617626395
 20
131.0452456185594
 30
0.0
 11
57.52670689695515
 21
125.6162273534574
 31
0.0
  0
LINE
  5
117
330
1F
100
AcDbEntity
  8
MARBLE_FSET5
100
AcDbLine
 10
56.97708846465684
 20
284.1810022033751
 30
0.0
 11
58.25953147362452
 21
278.190361358691
 31
0.0
  0
LINE
  5
118
330
1F
100
AcDbEntity
  8
MARBLE_FSET5
100
AcDbLine
 10
57.52670689695515
 20
6.552240571472794
 30
0.0
 11
57.89311918534804
 21
4.305750254541636
 31
0.0
  0
LINE
  5
119
330
1F
100
AcDbEntity
  8
MARBLE_FSET5
100
AcDbLine
 10
57.52670689695515
 20
557.6911982544698
 30
0.0
 11
57.70991304109339
 21
556.0063305171207
 31
0.0
  0
LINE
  5
11A
330
1F
100
AcDbEntity
  8
MARBLE_FSET5
100
AcDbLine
 10
57.89311918534804
 20
124.8673972478136
 30
0.0
 11
58.07632532948628
 21
123.1825295104645
 31
0.0
  0
LINE
  5
11B
330
1F
100
AcDbEntity
  8
MARBLE_FSET5
100
AcDbLine
 10
59.35876833845396
 20
311.5133010554127
 30
0.0
 11
61.00762363581453
 21
301.9657172099687
 31
0.0
  0
LINE
  5
11C
330
1F
100
AcDbEntity
  8
MARBLE_FSET5
100
AcDbLine
 10
59.90838677098509
 20
76.00623286096379
 30
0.0
 11
60.27479905914515
 21
74.13415759708732
 31
0.0
  0
LINE
  5
11D
330
1F
100
AcDbEntity
  8
MARBLE_FSET5
100
AcDbLine
 10
59.90838677098509
 20
383.4009911883622
 30
0.0
 11
60.45800520328339
 21
380.2184632397257
 31
0.0
  0
LINE
  5
11E
330
1F
100
AcDbEntity
  8
MARBLE_FSET5
100
AcDbLine
 10
60.82441749155987
 20
396.8799330880865
 30
0.0
 11
61.55724206811283
 21
392.3869524551556
 31
0.0
  0
LINE
  5
11F
330
1F
100
AcDbEntity
  8
MARBLE_FSET5
100
AcDbLine
 10
61.92365435650572
 20
105.9594370829873
 30
0.0
 11
61.92365435650572
 21
107.6443048203364
 31
0.0
  0
LINE
  5
120
330
1F
100
AcDbEntity
  8
MARBLE_FSET5
100
AcDbLine
 10
62.10686050064396
 20
178.2215422680601
 30
0.0
 11
64.12212808628101
 21
165.1170154209249
 31
0.0
  0
LINE
  5
121
330
1F
100
AcDbEntity
  8
MARBLE_FSET5
100
AcDbLine
 10
62.2900666447822
 20
146.2090552560985
 30
0.0
 11
64.12212808628101
 21
135.9126413045451
 31
0.0
  0
LINE
  5
122
330
1F
100
AcDbEntity
  8
MARBLE_FSET5
100
AcDbLine
 10
63.93892194202635
 20
192.0748992208391
 30
0.0
 11
64.48854037444107
 21
188.8923712722026
 31
0.0
  0
LINE
  5
123
330
1F
100
AcDbEntity
  8
MARBLE_FSET5
100
AcDbLine
 10
63.93892194202635
 20
540.0936907744035
 30
0.0
 11
64.48854037444107
 21
537.4727854048833
 31
0.0
  0
LINE
  5
124
330
1F
100
AcDbEntity
  8
MARBLE_FSET5
100
AcDbLine
 10
64.12212808628101
 20
29.76597384316847
 30
0.0
 11
64.67174651857931
 21
26.58344589499757
 31
0.0
  0
LINE
  5
125
330
1F
100
AcDbEntity
  8
MARBLE_FSET5
100
AcDbLine
 10
64.48854037444107
 20
549.0796520407312
 30
0.0
 11
65.40457109524868
 21
544.9610864599235
 31
0.0
  0
LINE
  5
126
330
1F
100
AcDbEntity
  8
MARBLE_FSET5
100
AcDbLine
 10
64.67174651857931
 20
124.3057746686973
 30
0.0
 11
65.77098338340875
 21
118.8767564035952
 31
0.0
  0
LINE
  5
127
330
1F
100
AcDbEntity
  8
MARBLE_FSET5
100
AcDbLine
 10
64.85495266271755
 20
242.4337238189764
 30
0.0
 11
66.50380796007812
 21
232.3245173939504
 31
0.0
  0
LINE
  5
128
330
1F
100
AcDbEntity
  8
MARBLE_FSET5
100
AcDbLine
 10
64.85495266271755
 20
328.549185957294
 30
0.0
 11
66.50380796007812
 21
320.4992623222061
 31
0.0
  0
LINE
  5
129
330
1F
100
AcDbEntity
  8
MARBLE_FSET5
100
AcDbLine
 10
65.0381588069722
 20
479.0640371716581
 30
0.0
 11
67.41983868076932
 21
465.2106802193448
 31
0.0
  0
LINE
  5
12A
330
1F
100
AcDbEntity
  8
MARBLE_FSET5
100
AcDbLine
 10
66.50380796007812
 20
521.7473531882279
 30
0.0
 11
68.33586940157693
 21
510.8893166580237
 31
0.0
  0
LINE
  5
12B
330
1F
100
AcDbEntity
  8
MARBLE_FSET5
100
AcDbLine
 10
67.23663253674749
 20
561.4353487822227
 30
0.0
 11
67.60304482490756
 21
558.4400283601135
 31
0.0
  0
LINE
  5
12C
330
1F
100
AcDbEntity
  8
MARBLE_FSET5
100
AcDbLine
 10
67.60304482490756
 20
196.5678798542358
 30
0.0
 11
68.15266325743869
 21
193.5725594316609
 31
0.0
  0
LINE
  5
12D
330
1F
100
AcDbEntity
  8
MARBLE_FSET5
100
AcDbLine
 10
67.60304482490756
 20
369.3604267090559
 30
0.0
 11
68.51907554571517
 21
365.4290686552413
 31
0.0
  0
LINE
  5
12E
330
1F
100
AcDbEntity
  8
MARBLE_FSET5
100
AcDbLine
 10
67.60304482490756
 20
496.0999220735393
 30
0.0
 11
67.96945711318403
 21
493.6662242300808
 31
0.0
  0
LINE
  5
12F
330
1F
100
AcDbEntity
  8
MARBLE_FSET5
100
AcDbLine
 10
68.15266325743869
 20
109.5163800842129
 30
0.0
 11
68.33586940157693
 21
108.0187198729254
 31
0.0
  0
LINE
  5
130
330
1F
100
AcDbEntity
  8
MARBLE_FSET5
100
AcDbLine
 10
68.33586940157693
 20
191.8876916943118
 30
0.0
 11
69.25190012226813
 21
186.6458809557371
 31
0.0
  0
LINE
  5
131
330
1F
100
AcDbEntity
  8
MARBLE_FSET5
100
AcDbLine
 10
68.51907554571517
 20
364.3058234970085
 30
0.0
 11
68.88548783387523
 21
362.2465407066047
 31
0.0
  0
LINE
  5
132
330
1F
100
AcDbEntity
  8
MARBLE_FSET5
100
AcDbLine
 10
69.6183124105446
 20
356.6303149149753
 30
0.0
 11
70.5343431312358
 21
351.950126755517
 31
0.0
  0
LINE
  5
133
330
1F
100
AcDbEntity
  8
MARBLE_FSET5
100
AcDbLine
 10
70.35113698709756
 20
217.909537862055
 30
0.0
 11
71.08396156365052
 21
213.4165572286583
 31
0.0
  0
LINE
  5
134
330
1F
100
AcDbEntity
  8
MARBLE_FSET5
100
AcDbLine
 10
70.5343431312358
 20
550.3901047254913
 30
0.0
 11
71.26716770790517
 21
546.2715391451493
 31
0.0
  0
LINE
  5
135
330
1F
100
AcDbEntity
  8
MARBLE_FSET5
100
AcDbLine
 10
70.71754927537404
 20
99.03275860613212
 30
0.0
 11
71.26716770790517
 21
94.72698549972847
 31
0.0
  0
LINE
  5
136
330
1F
100
AcDbEntity
  8
MARBLE_FSET5
100
AcDbLine
 10
71.45037385204341
 20
481.1233199620619
 30
0.0
 11
72.36640457273461
 21
476.0687167500146
 31
0.0
  0
LINE
  5
137
330
1F
100
AcDbEntity
  8
MARBLE_FSET5
100
AcDbLine
 10
71.81678614020348
 20
171.1076562651433
 30
0.0
 11
72.91602300503291
 21
163.6193552101031
 31
0.0
  0
LINE
  5
138
330
1F
100
AcDbEntity
  8
MARBLE_FSET5
100
AcDbLine
 10
73.83205372584052
 20
387.1451417161152
 30
0.0
 11
74.56487830239348
 21
382.6521610827185
 31
0.0
  0
LINE
  5
139
330
1F
100
AcDbEntity
  8
MARBLE_FSET5
100
AcDbLine
 10
74.56487830239348
 20
298.4087742087431
 30
0.0
 11
76.0305274554994
 21
289.0483978888951
 31
0.0
  0
LINE
  5
13A
330
1F
100
AcDbEntity
  8
MARBLE_FSET5
100
AcDbLine
 10
75.1144967348082
 20
563.8690466252156
 30
0.0
 11
75.66411516733933
 21
560.6865186770447
 31
0.0
  0
LINE
  5
13B
330
1F
100
AcDbEntity
  8
MARBLE_FSET5
100
AcDbLine
 10
75.84732131136116
 20
226.3338765497319
 30
0.0
 11
76.0305274554994
 21
225.0234238645062
 31
0.0
  0
LINE
  5
13C
330
1F
100
AcDbEntity
  8
MARBLE_FSET5
100
AcDbLine
 10
76.21373359963764
 20
178.4087497945875
 30
0.0
 11
77.12976432032883
 21
173.7285616346635
 31
0.0
  0
LINE
  5
13D
330
1F
100
AcDbEntity
  8
MARBLE_FSET5
100
AcDbLine
 10
76.39693974377587
 20
287.1763226250187
 30
0.0
 11
77.12976432032883
 21
282.3089269394986
 31
0.0
  0
LINE
  5
13E
330
1F
100
AcDbEntity
  8
MARBLE_FSET5
100
AcDbLine
 10
76.58014588803053
 20
154.6333939437754
 30
0.0
 11
77.31297046446707
 21
151.0764509420842
 31
0.0
  0
LINE
  5
13F
330
1F
100
AcDbEntity
  8
MARBLE_FSET5
100
AcDbLine
 10
78.22900118527468
 20
73.57253501797095
 30
0.0
 11
78.96182576182764
 21
69.0795543845743
 31
0.0
  0
LINE
  5
140
330
1F
100
AcDbEntity
  8
MARBLE_FSET5
100
AcDbLine
 10
78.96182576182764
 20
248.0499496106058
 30
0.0
 11
79.32823805010412
 21
245.8034592936747
 31
0.0
  0
LINE
  5
141
330
1F
100
AcDbEntity
  8
MARBLE_FSET5
100
AcDbLine
 10
79.14503190596588
 20
527.5507865063846
 30
0.0
 11
79.69465033849701
 21
523.6194284521043
 31
0.0
  0
LINE
  5
142
330
1F
100
AcDbEntity
  8
MARBLE_FSET5
100
AcDbLine
 10
79.69465033849701
 20
365.8034837078303
 30
0.0
 11
81.34350563562475
 21
356.0686923358589
 31
0.0
  0
LINE
  5
143
330
1F
100
AcDbEntity
  8
MARBLE_FSET5
100
AcDbLine
 10
80.42747491493355
 20
33.32291684439406
 30
0.0
 11
81.89312406815588
 21
24.14974805153906
 31
0.0
  0
LINE
  5
144
330
1F
100
AcDbEntity
  8
MARBLE_FSET5
100
AcDbLine
 10
81.52671177976299
 20
355.1326547036879
 30
0.0
 11
81.70991792401765
 21
354.0094095454551
 31
0.0
  0
LINE
  5
145
330
1F
100
AcDbEntity
  8
MARBLE_FSET5
100
AcDbLine
 10
83.72518550953828
 20
71.70045975409448
 30
0.0
 11
83.90839165379293
 21
70.01559201674536
 31
0.0
  0
LINE
  5
146
330
1F
100
AcDbEntity
  8
MARBLE_FSET5
100
AcDbLine
 10
83.90839165379293
 20
69.26676191063598
 30
0.0
 11
84.64121623022947
 21
65.89702643593773
 31
0.0
  0
LINE
  5
147
330
1F
100
AcDbEntity
  8
MARBLE_FSET5
100
AcDbLine
 10
84.09159779793117
 20
117.1918886657804
 30
0.0
 11
84.64121623022947
 21
114.9453983497806
 31
0.0
  0
LINE
  5
148
330
1F
100
AcDbEntity
  8
MARBLE_FSET5
100
AcDbLine
 10
84.09159779793117
 20
543.8378413021564
 30
0.0
 11
84.45801008609124
 21
542.1529735643417
 31
0.0
  0
LINE
  5
149
330
1F
100
AcDbEntity
  8
MARBLE_FSET5
100
AcDbLine
 10
84.64121623022947
 20
463.151397428941
 30
0.0
 11
85.19083466276061
 21
459.9688694807701
 31
0.0
  0
LINE
  5
14A
330
1F
100
AcDbEntity
  8
MARBLE_FSET5
100
AcDbLine
 10
85.55724695092067
 20
360.7488804957829
 30
0.0
 11
85.55724695092067
 21
361.8721256540157
 31
0.0
  0
LINE
  5
14B
330
1F
100
AcDbEntity
  8
MARBLE_FSET5
100
AcDbLine
 10
85.74045309505891
 20
374.976652501151
 30
0.0
 11
86.47327767172828
 21
371.7941245525144
 31
0.0
  0
LINE
  5
14C
330
1F
100
AcDbEntity
  8
MARBLE_FSET5
100
AcDbLine
 10
86.47327767172828
 20
582.7770067905076
 30
0.0
 11
87.57251453655772
 21
576.5991584197618
 31
0.0
  0
LINE
  5
14D
330
1F
100
AcDbEntity
  8
MARBLE_FSET5
100
AcDbLine
 10
88.48854525724892
 20
566.8643670477904
 30
0.0
 11
88.8549575455254
 21
563.8690466252156
 31
0.0
  0
LINE
  5
14E
330
1F
100
AcDbEntity
  8
MARBLE_FSET5
100
AcDbLine
 10
89.95419441035483
 20
219.9688206524588
 30
0.0
 11
90.32060669874772
 21
217.7223303359933
 31
0.0
  0
LINE
  5
14F
330
1F
100
AcDbEntity
  8
MARBLE_FSET5
100
AcDbLine
 10
89.95419441035483
 20
449.6724555292167
 30
0.0
 11
90.87022513116244
 21
444.2434372641146
 31
0.0
  0
LINE
  5
150
330
1F
100
AcDbEntity
  8
MARBLE_FSET5
100
AcDbLine
 10
90.6870189870242
 20
58.40872538043186
 30
0.0
 11
91.6030497077154
 21
52.97970711486414
 31
0.0
  0
LINE
  5
151
330
1F
100
AcDbEntity
  8
MARBLE_FSET5
100
AcDbLine
 10
91.05343127530068
 20
443.3073996319436
 30
0.0
 11
91.41984356357716
 21
440.4992867363617
 31
0.0
  0
LINE
  5
152
330
1F
100
AcDbEntity
  8
MARBLE_FSET5
100
AcDbLine
 10
91.6030497077154
 20
339.0328074344434
 30
0.0
 11
92.88549271668307
 21
333.042166590225
 31
0.0
  0
LINE
  5
153
330
1F
100
AcDbEntity
  8
MARBLE_FSET5
100
AcDbLine
 10
91.78625585185364
 20
104.6489843982272
 30
0.0
 11
91.96946199599188
 21
102.9641166608781
 31
0.0
  0
LINE
  5
154
330
1F
100
AcDbEntity
  8
MARBLE_FSET5
100
AcDbLine
 10
91.78625585185364
 20
231.762894814834
 30
0.0
 11
93.06869886082131
 21
224.6490088123828
 31
0.0
  0
LINE
  5
155
330
1F
100
AcDbEntity
  8
MARBLE_FSET5
100
AcDbLine
 10
92.15266814024653
 20
296.9111139974557
 30
0.0
 11
92.15266814024653
 21
298.7831892617978
 31
0.0
  0
LINE
  5
156
330
1F
100
AcDbEntity
  8
MARBLE_FSET5
100
AcDbLine
 10
92.51908042852301
 20
100.1560037648305
 30
0.0
 11
92.88549271668307
 21
98.28392850095406
 31
0.0
  0
LINE
  5
157
330
1F
100
AcDbEntity
  8
MARBLE_FSET5
100
AcDbLine
 10
93.06869886082131
 20
43.99374584853649
 30
0.0
 11
93.25190500507597
 21
42.49608563771471
 31
0.0
  0
LINE
  5
158
330
1F
100
AcDbEntity
  8
MARBLE_FSET5
100
AcDbLine
 10
93.25190500507597
 20
291.2948882058263
 30
0.0
 11
94.16793572565075
 21
285.6786624141969
 31
0.0
  0
LINE
  5
159
330
1F
100
AcDbEntity
  8
MARBLE_FSET5
100
AcDbLine
 10
93.25190500507597
 20
525.1170886629261
 30
0.0
 11
94.16793572565075
 21
519.313655345235
 31
0.0
  0
LINE
  5
15A
330
1F
100
AcDbEntity
  8
MARBLE_FSET5
100
AcDbLine
 10
93.43511114921421
 20
572.6678003659472
 30
0.0
 11
93.80152343749069
 21
570.9829326281324
 31
0.0
  0
LINE
  5
15B
330
1F
100
AcDbEntity
  8
MARBLE_FSET5
100
AcDbLine
 10
93.61831729335245
 20
33.69733189744875
 30
0.0
 11
95.26717259071302
 21
24.52416310459375
 31
0.0
  0
LINE
  5
15C
330
1F
100
AcDbEntity
  8
MARBLE_FSET5
100
AcDbLine
 10
93.98472958151251
 20
427.2075523626991
 30
0.0
 11
95.63358487887308
 21
417.4727609907277
 31
0.0
  0
LINE
  5
15D
330
1F
100
AcDbEntity
  8
MARBLE_FSET5
100
AcDbLine
 10
94.16793572565075
 20
178.7831648476422
 30
0.0
 11
95.08396644645836
 21
174.6645992668346
 31
0.0
  0
LINE
  5
15E
330
1F
100
AcDbEntity
  8
MARBLE_FSET5
100
AcDbLine
 10
94.3511418699054
 20
383.9626137674786
 30
0.0
 11
94.53434801404364
 21
382.8393686092459
 31
0.0
  0
LINE
  5
15F
330
1F
100
AcDbEntity
  8
MARBLE_FSET5
100
AcDbLine
 10
94.71755415818188
 20
468.2060006419197
 30
0.0
 11
95.08396644645836
 21
466.1467178515159
 31
0.0
  0
LINE
  5
160
330
1F
100
AcDbEntity
  8
MARBLE_FSET5
100
AcDbLine
 10
94.90076030232012
 20
275.3822484631091
 30
0.0
 11
95.99999716714956
 21
270.3276452505961
 31
0.0
  0
LINE
  5
161
330
1F
100
AcDbEntity
  8
MARBLE_FSET5
100
AcDbLine
 10
94.90076030232012
 20
311.7005085819401
 30
0.0
 11
96.36640945554245
 21
302.9017548421398
 31
0.0
  0
LINE
  5
162
330
1F
100
AcDbEntity
  8
MARBLE_FSET5
100
AcDbLine
 10
94.90076030232012
 20
514.6334671857767
 30
0.0
 11
95.26717259071302
 21
512.9485994479619
 31
0.0
  0
LINE
  5
163
330
1F
100
AcDbEntity
  8
MARBLE_FSET5
100
AcDbLine
 10
95.08396644645836
 20
68.70513933198527
 30
0.0
 11
95.63358487887308
 21
65.89702643593773
 31
0.0
  0
LINE
  5
164
330
1F
100
AcDbEntity
  8
MARBLE_FSET5
100
AcDbLine
 10
95.08396644645836
 20
248.9859872423112
 30
0.0
 11
96.54961559968069
 21
241.6848937133327
 31
0.0
  0
LINE
  5
165
330
1F
100
AcDbEntity
  8
MARBLE_FSET5
100
AcDbLine
 10
95.26717259071302
 20
172.2309014238417
 30
0.0
 11
95.63358487887308
 21
170.7332412130199
 31
0.0
  0
LINE
  5
166
330
1F
100
AcDbEntity
  8
MARBLE_FSET5
100
AcDbLine
 10
95.45037873485126
 20
319.9376397430897
 30
0.0
 11
96.91602788784076
 21
311.8877161084674
 31
0.0
  0
LINE
  5
167
330
1F
100
AcDbEntity
  8
MARBLE_FSET5
100
AcDbLine
 10
95.99999716714956
 20
133.853358514607
 30
0.0
 11
96.91602788784076
 21
128.6115477755666
 31
0.0
  0
LINE
  5
168
330
1F
100
AcDbEntity
  8
MARBLE_FSET5
100
AcDbLine
 10
96.54961559968069
 20
408.2995921978727
 30
0.0
 11
96.73282174381893
 21
406.6147244605236
 31
0.0
  0
LINE
  5
169
330
1F
100
AcDbEntity
  8
MARBLE_FSET5
100
AcDbLine
 10
97.099234031979
 20
148.081130519975
 30
0.0
 11
97.83205860864837
 21
144.5241875187494
 31
0.0
  0
LINE
  5
16A
330
1F
100
AcDbEntity
  8
MARBLE_FSET5
100
AcDbLine
 10
97.28244017611723
 20
502.8393930234015
 30
0.0
 11
98.0152647527866
 21
498.7208274430595
 31
0.0
  0
LINE
  5
16B
330
1F
100
AcDbEntity
  8
MARBLE_FSET5
100
AcDbLine
 10
98.38167704106309
 20
431.7005329960957
 30
0.0
 11
99.29770776175428
 21
425.897099677939
 31
0.0
  0
LINE
  5
16C
330
1F
100
AcDbEntity
  8
MARBLE_FSET5
100
AcDbLine
 10
98.56488318520132
 20
20.78001257637516
 30
0.0
 11
99.847326194169
 21
12.54288141569123
 31
0.0
  0
LINE
  5
16D
330
1F
100
AcDbEntity
  8
MARBLE_FSET5
100
AcDbLine
 10
99.48091390600894
 20
425.1482695722952
 30
0.0
 11
100.0305323383072
 21
421.778534097597
 31
0.0
  0
LINE
  5
16E
330
1F
100
AcDbEntity
  8
MARBLE_FSET5
100
AcDbLine
 10
100.5801507708384
 20
119.8127940353006
 30
0.0
 11
101.1297692031367
 21
116.255851034075
 31
0.0
  0
LINE
  5
16F
330
1F
100
AcDbEntity
  8
MARBLE_FSET5
100
AcDbLine
 10
100.7633569149766
 20
406.8019319870509
 30
0.0
 11
101.3129753472749
 21
403.6194040379487
 31
0.0
  0
LINE
  5
170
330
1F
100
AcDbEntity
  8
MARBLE_FSET5
100
AcDbLine
 10
101.6793876356678
 20
574.7270831558853
 30
0.0
 11
102.9618306446355
 21
566.6771595212631
 31
0.0
  0
LINE
  5
171
330
1F
100
AcDbEntity
  8
MARBLE_FSET5
100
AcDbLine
 10
102.9618306446355
 20
280.8112667282112
 30
0.0
 11
103.5114490770502
 21
277.6287387795746
 31
0.0
  0
LINE
  5
172
330
1F
100
AcDbEntity
  8
MARBLE_FSET5
100
AcDbLine
 10
102.9618306446355
 20
365.4290686552413
 30
0.0
 11
104.6106859419961
 21
355.5070697567426
 31
0.0
  0
LINE
  5
173
330
1F
100
AcDbEntity
  8
MARBLE_FSET5
100
AcDbLine
 10
103.6946552213049
 20
276.8799086739309
 30
0.0
 11
104.2442736536032
 21
274.4462108314037
 31
0.0
  0
LINE
  5
174
330
1F
100
AcDbEntity
  8
MARBLE_FSET5
100
AcDbLine
 10
103.6946552213049
 20
344.4618257000111
 30
0.0
 11
104.0610675094649
 21
342.5897504361346
 31
0.0
  0
LINE
  5
175
330
1F
100
AcDbEntity
  8
MARBLE_FSET5
100
AcDbLine
 10
103.8778613654431
 20
80.68642102088779
 30
0.0
 11
104.4274797977414
 21
77.31668554525822
 31
0.0
  0
LINE
  5
176
330
1F
100
AcDbEntity
  8
MARBLE_FSET5
100
AcDbLine
 10
104.4274797977414
 20
339.7816375400871
 30
0.0
 11
104.6106859419961
 21
338.096769802738
 31
0.0
  0
LINE
  5
177
330
1F
100
AcDbEntity
  8
MARBLE_FSET5
100
AcDbLine
 10
104.9770982302725
 20
269.2044000918977
 30
0.0
 11
106.8091596716549
 21
258.5335710882209
 31
0.0
  0
LINE
  5
178
330
1F
100
AcDbEntity
  8
MARBLE_FSET5
100
AcDbLine
 10
104.9770982302725
 20
551.513349883724
 30
0.0
 11
105.7099228068255
 21
548.1436144090258
 31
0.0
  0
LINE
  5
179
330
1F
100
AcDbEntity
  8
MARBLE_FSET5
100
AcDbLine
 10
105.5267166625708
 20
396.5055180354975
 30
0.0
 11
105.8931289509637
 21
394.0718201925047
 31
0.0
  0
LINE
  5
17A
330
1F
100
AcDbEntity
  8
MARBLE_FSET5
100
AcDbLine
 10
105.7099228068255
 20
413.1669878838584
 30
0.0
 11
106.2595412392402
 21
411.1077050934546
 31
0.0
  0
LINE
  5
17B
330
1F
100
AcDbEntity
  8
MARBLE_FSET5
100
AcDbLine
 10
107.9083965366008
 20
255.5382506661117
 30
0.0
 11
108.4580149688991
 21
251.6068926118314
 31
0.0
  0
LINE
  5
17C
330
1F
100
AcDbEntity
  8
MARBLE_FSET5
100
AcDbLine
 10
108.091602680739
 20
104.8361919242889
 30
0.0
 11
108.4580149688991
 21
102.5897016078234
 31
0.0
  0
LINE
  5
17D
330
1F
100
AcDbEntity
  8
MARBLE_FSET5
100
AcDbLine
 10
108.091602680739
 20
424.2122319405898
 30
0.0
 11
108.4580149688991
 21
421.778534097597
 31
0.0
  0
LINE
  5
17E
330
1F
100
AcDbEntity
  8
MARBLE_FSET5
100
AcDbLine
 10
108.2748088247608
 20
134.9766036728397
 30
0.0
 11
109.5572518337285
 21
128.6115477755666
 31
0.0
  0
LINE
  5
17F
330
1F
100
AcDbEntity
  8
MARBLE_FSET5
100
AcDbLine
 10
108.4580149688991
 20
450.7957006879151
 30
0.0
 11
109.1908395455685
 21
447.6131727388129
 31
0.0
  0
LINE
  5
180
330
1F
100
AcDbEntity
  8
MARBLE_FSET5
100
AcDbLine
 10
108.824427257292
 20
421.0297039919533
 30
0.0
 11
109.0076334014302
 21
419.3448362546042
 31
0.0
  0
LINE
  5
181
330
1F
100
AcDbEntity
  8
MARBLE_FSET5
100
AcDbLine
 10
109.1908395455685
 20
297.6599441030994
 30
0.0
 11
109.9236641221214
 21
293.5413785222918
 31
0.0
  0
LINE
  5
182
330
1F
100
AcDbEntity
  8
MARBLE_FSET5
100
AcDbLine
 10
109.3740456897067
 20
445.17947489582
 30
0.0
 11
109.5572518337285
 21
444.0562297375873
 31
0.0
  0
LINE
  5
183
330
1F
100
AcDbEntity
  8
MARBLE_FSET5
100
AcDbLine
 10
109.7404579778668
 20
24.7113706311211
 30
0.0
 11
110.6564886986744
 21
19.84397494466975
 31
0.0
  0
LINE
  5
184
330
1F
100
AcDbEntity
  8
MARBLE_FSET5
100
AcDbLine
 10
110.1068702662596
 20
93.97815539408475
 30
0.0
 11
111.9389317077585
 21
83.12011886341497
 31
0.0
  0
LINE
  5
185
330
1F
100
AcDbEntity
  8
MARBLE_FSET5
100
AcDbLine
 10
110.2900764103979
 20
411.2949126199819
 30
0.0
 11
110.8396948426962
 21
408.2995921978727
 31
0.0
  0
LINE
  5
186
330
1F
100
AcDbEntity
  8
MARBLE_FSET5
100
AcDbLine
 10
110.8396948426962
 20
19.09514483902603
 30
0.0
 11
111.2061071310891
 21
16.66144699649885
 31
0.0
  0
LINE
  5
187
330
1F
100
AcDbEntity
  8
MARBLE_FSET5
100
AcDbLine
 10
111.5725194193656
 20
228.7675743922591
 30
0.0
 11
111.9389317077585
 21
226.3338765497319
 31
0.0
  0
LINE
  5
188
330
1F
100
AcDbEntity
  8
MARBLE_FSET5
100
AcDbLine
 10
112.3053439960349
 20
174.2901842142455
 30
0.0
 11
113.2213747167261
 21
169.7972035808489
 31
0.0
  0
LINE
  5
189
330
1F
100
AcDbEntity
  8
MARBLE_FSET5
100
AcDbLine
 10
113.7709931490244
 20
120.1872090883553
 30
0.0
 11
114.8702300139703
 21
112.8861155589111
 31
0.0
  0
LINE
  5
18A
330
1F
100
AcDbEntity
  8
MARBLE_FSET5
100
AcDbLine
 10
114.1374054374173
 20
213.6037647551857
 30
0.0
 11
114.687023869832
 21
210.9828593861312
 31
0.0
  0
LINE
  5
18B
330
1F
100
AcDbEntity
  8
MARBLE_FSET5
100
AcDbLine
 10
114.1374054374173
 20
536.9111628253013
 30
0.0
 11
114.3206115815556
 21
534.4774649827741
 31
0.0
  0
LINE
  5
18C
330
1F
100
AcDbEntity
  8
MARBLE_FSET5
100
AcDbLine
 10
114.3206115815556
 20
533.541427350603
 30
0.0
 11
114.5038177256938
 21
532.0437671397813
 31
0.0
  0
LINE
  5
18D
330
1F
100
AcDbEntity
  8
MARBLE_FSET5
100
AcDbLine
 10
114.687023869832
 20
292.9797559431754
 30
0.0
 11
115.2366423023632
 21
289.9844355210662
 31
0.0
  0
LINE
  5
18E
330
1F
100
AcDbEntity
  8
MARBLE_FSET5
100
AcDbLine
 10
116.3358791671926
 20
593.0734207415953
 30
0.0
 11
116.5190853113309
 21
591.3885530042462
 31
0.0
  0
LINE
  5
18F
330
1F
100
AcDbEntity
  8
MARBLE_FSET5
100
AcDbLine
 10
116.8854975994909
 20
590.4525153725408
 30
0.0
 11
117.0687037436292
 21
589.3292702138424
 31
0.0
  0
LINE
  5
190
330
1F
100
AcDbEntity
  8
MARBLE_FSET5
100
AcDbLine
 10
117.0687037436292
 20
128.9859628281556
 30
0.0
 11
117.4351160320221
 21
126.3650574591011
 31
0.0
  0
LINE
  5
191
330
1F
100
AcDbEntity
  8
MARBLE_FSET5
100
AcDbLine
 10
120.1832081940956
 20
162.4961100518703
 30
0.0
 11
120.5496204824885
 21
160.0624122088775
 31
0.0
  0
LINE
  5
192
330
1F
100
AcDbEntity
  8
MARBLE_FSET5
100
AcDbLine
 10
120.5496204824885
 20
186.6458809557371
 30
0.0
 11
121.8320634914562
 21
178.2215422680601
 31
0.0
  0
LINE
  5
193
330
1F
100
AcDbEntity
  8
MARBLE_FSET5
100
AcDbLine
 10
120.5496204824885
 20
375.35106755374
 30
0.0
 11
121.0992389147868
 21
370.6708793942817
 31
0.0
  0
LINE
  5
194
330
1F
100
AcDbEntity
  8
MARBLE_FSET5
100
AcDbLine
 10
122.9313003562856
 20
319.3760171639733
 30
0.0
 11
123.8473310769768
 21
315.070244057104
 31
0.0
  0
LINE
  5
195
330
1F
100
AcDbEntity
  8
MARBLE_FSET5
100
AcDbLine
 10
123.8473310769768
 20
51.29483937751502
 30
0.0
 11
124.7633617977845
 21
44.36816090159118
 31
0.0
  0
LINE
  5
196
330
1F
100
AcDbEntity
  8
MARBLE_FSET5
100
AcDbLine
 10
124.2137433652533
 20
29.57876631664112
 30
0.0
 11
124.9465679419227
 21
25.27299320977181
 31
0.0
  0
LINE
  5
197
330
1F
100
AcDbEntity
  8
MARBLE_FSET5
100
AcDbLine
 10
125.6793925184757
 20
439.1888340516016
 30
0.0
 11
127.511453959858
 21
428.8924201000482
 31
0.0
  0
LINE
  5
198
330
1F
100
AcDbEntity
  8
MARBLE_FSET5
100
AcDbLine
 10
125.8625986626139
 20
425.7098921518773
 30
0.0
 11
126.9618355274433
 21
420.0936663602479
 31
0.0
  0
LINE
  5
199
330
1F
100
AcDbEntity
  8
MARBLE_FSET5
100
AcDbLine
 10
126.0458048067521
 20
547.394784303382
 30
0.0
 11
126.4122170949122
 21
546.084331618622
 31
0.0
  0
LINE
  5
19A
330
1F
100
AcDbEntity
  8
MARBLE_FSET5
100
AcDbLine
 10
127.6946601041127
 20
397.6287631937303
 30
0.0
 11
128.9771031130804
 21
389.953254611697
 31
0.0
  0
LINE
  5
19B
330
1F
100
AcDbEntity
  8
MARBLE_FSET5
100
AcDbLine
 10
129.1603092572186
 20
389.2044245060533
 30
0.0
 11
129.3435154012404
 21
387.8939718217589
 31
0.0
  0
LINE
  5
19C
330
1F
100
AcDbEntity
  8
MARBLE_FSET5
100
AcDbLine
 10
129.7099276896333
 20
542.7145961439237
 30
0.0
 11
130.2595461220481
 21
540.0936907744035
 31
0.0
  0
LINE
  5
19D
330
1F
100
AcDbEntity
  8
MARBLE_FSET5
100
AcDbLine
 10
130.6259584102081
 20
198.2527475915849
 30
0.0
 11
130.8091645544628
 21
196.9422949068248
 31
0.0
  0
LINE
  5
19E
330
1F
100
AcDbEntity
  8
MARBLE_FSET5
100
AcDbLine
 10
131.5419891310157
 20
118.1279262979515
 30
0.0
 11
132.2748137075687
 21
113.2605306119658
 31
0.0
  0
LINE
  5
19F
330
1F
100
AcDbEntity
  8
MARBLE_FSET5
100
AcDbLine
 10
131.7251952752704
 20
165.1170154209249
 30
0.0
 11
132.2748137075687
 21
163.2449401570484
 31
0.0
  0
LINE
  5
1A0
330
1F
100
AcDbEntity
  8
MARBLE_FSET5
100
AcDbLine
 10
132.0916075635469
 20
161.9344874722883
 30
0.0
 11
132.8244321400998
 21
158.9391670506448
 31
0.0
  0
LINE
  5
1A1
330
1F
100
AcDbEntity
  8
MARBLE_FSET5
100
AcDbLine
 10
132.2748137075687
 20
234.9454227634706
 30
0.0
 11
132.6412259958452
 21
232.3245173939504
 31
0.0
  0
LINE
  5
1A2
330
1F
100
AcDbEntity
  8
MARBLE_FSET5
100
AcDbLine
 10
132.4580198517069
 20
396.8799330880865
 30
0.0
 11
132.8244321400998
 21
394.0718201925047
 31
0.0
  0
LINE
  5
1A3
330
1F
100
AcDbEntity
  8
MARBLE_FSET5
100
AcDbLine
 10
133.5572567165364
 20
229.3291969718412
 30
0.0
 11
134.2900812932057
 21
225.7722539706156
 31
0.0
  0
LINE
  5
1A4
330
1F
100
AcDbEntity
  8
MARBLE_FSET5
100
AcDbLine
 10
134.6564935814822
 20
369.3604267090559
 30
0.0
 11
134.8396997256204
 21
367.6755589717068
 31
0.0
  0
LINE
  5
1A5
330
1F
100
AcDbEntity
  8
MARBLE_FSET5
100
AcDbLine
 10
135.0229058697587
 20
366.552313813474
 30
0.0
 11
135.9389365905663
 21
361.6849181274883
 31
0.0
  0
LINE
  5
1A6
330
1F
100
AcDbEntity
  8
MARBLE_FSET5
100
AcDbLine
 10
135.2061120138969
 20
521.9345607147552
 30
0.0
 11
135.5725243021734
 21
519.8752779243514
 31
0.0
  0
LINE
  5
1A7
330
1F
100
AcDbEntity
  8
MARBLE_FSET5
100
AcDbLine
 10
135.7557304463116
 20
490.6709038084373
 30
0.0
 11
136.4885550228646
 21
486.3651307011023
 31
0.0
  0
LINE
  5
1A8
330
1F
100
AcDbEntity
  8
MARBLE_FSET5
100
AcDbLine
 10
135.9389365905663
 20
204.9922185414471
 30
0.0
 11
136.6717611670028
 21
199.7504078028724
 31
0.0
  0
LINE
  5
1A9
330
1F
100
AcDbEntity
  8
MARBLE_FSET5
100
AcDbLine
 10
135.9389365905663
 20
263.962589353323
 30
0.0
 11
136.6717611670028
 21
259.282401193399
 31
0.0
  0
LINE
  5
1AA
330
1F
100
AcDbEntity
  8
MARBLE_FSET5
100
AcDbLine
 10
137.4045857436722
 20
483.7442253315821
 30
0.0
 11
137.9542041760869
 21
480.0000748038292
 31
0.0
  0
LINE
  5
1AB
330
1F
100
AcDbEntity
  8
MARBLE_FSET5
100
AcDbLine
 10
137.7709980318323
 20
6.739448098000139
 30
0.0
 11
138.6870287526399
 21
3.182505096308887
 31
0.0
  0
LINE
  5
1AC
330
1F
100
AcDbEntity
  8
MARBLE_FSET5
100
AcDbLine
 10
139.0534410410328
 20
344.6490332265384
 30
0.0
 11
140.1526779058622
 21
338.096769802738
 31
0.0
  0
LINE
  5
1AD
330
1F
100
AcDbEntity
  8
MARBLE_FSET5
100
AcDbLine
 10
139.6030594733311
 20
600.1873067445122
 30
0.0
 11
139.9694717616076
 21
597.9408164280467
 31
0.0
  0
LINE
  5
1AE
330
1F
100
AcDbEntity
  8
MARBLE_FSET5
100
AcDbLine
 10
139.9694717616076
 20
96.4118532370776
 30
0.0
 11
140.8855024822988
 21
91.91887260368094
 31
0.0
  0
LINE
  5
1AF
330
1F
100
AcDbEntity
  8
MARBLE_FSET5
100
AcDbLine
 10
140.5190901941387
 20
595.3199110580608
 30
0.0
 11
141.0687086265534
 21
592.3245906364173
 31
0.0
  0
LINE
  5
1B0
330
1F
100
AcDbEntity
  8
MARBLE_FSET5
100
AcDbLine
 10
141.2519147706917
 20
19.65676741814241
 30
0.0
 11
142.3511516355211
 21
12.91729646828026
 31
0.0
  0
LINE
  5
1B1
330
1F
100
AcDbEntity
  8
MARBLE_FSET5
100
AcDbLine
 10
141.4351209148299
 20
154.2589788907208
 30
0.0
 11
141.6183270589681
 21
153.1357337320223
 31
0.0
  0
LINE
  5
1B2
330
1F
100
AcDbEntity
  8
MARBLE_FSET5
100
AcDbLine
 10
141.9847393471282
 20
152.3869036268443
 30
0.0
 11
142.9007700679358
 21
146.2090552560985
 31
0.0
  0
LINE
  5
1B3
330
1F
100
AcDbEntity
  8
MARBLE_FSET5
100
AcDbLine
 10
141.9847393471282
 20
274.8206258839928
 30
0.0
 11
142.9007700679358
 21
269.5788151449524
 31
0.0
  0
LINE
  5
1B4
330
1F
100
AcDbEntity
  8
MARBLE_FSET5
100
AcDbLine
 10
143.816800788627
 20
70.39000706933439
 30
0.0
 11
144.9160376534564
 21
64.39936622511595
 31
0.0
  0
LINE
  5
1B5
330
1F
100
AcDbEntity
  8
MARBLE_FSET5
100
AcDbLine
 10
144.9160376534564
 20
157.4415068388917
 30
0.0
 11
145.4656560859876
 21
154.4461864172481
 31
0.0
  0
LINE
  5
1B6
330
1F
100
AcDbEntity
  8
MARBLE_FSET5
100
AcDbLine
 10
145.6488622301258
 20
59.71917806519195
 30
0.0
 11
146.3816868066788
 21
56.16223506396636
 31
0.0
  0
LINE
  5
1B7
330
1F
100
AcDbEntity
  8
MARBLE_FSET5
100
AcDbLine
 10
145.8320683742641
 20
386.7707266635261
 30
0.0
 11
147.1145113832317
 21
379.469633134082
 31
0.0
  0
LINE
  5
1B8
330
1F
100
AcDbEntity
  8
MARBLE_FSET5
100
AcDbLine
 10
145.8320683742641
 20
425.897099677939
 30
0.0
 11
146.7480990949553
 21
420.0936663602479
 31
0.0
  0
LINE
  5
1B9
330
1F
100
AcDbEntity
  8
MARBLE_FSET5
100
AcDbLine
 10
146.1984806624241
 20
55.03898990526795
 30
0.0
 11
146.7480990949553
 21
52.97970711486414
 31
0.0
  0
LINE
  5
1BA
330
1F
100
AcDbEntity
  8
MARBLE_FSET5
100
AcDbLine
 10
146.1984806624241
 20
412.605365304742
 30
0.0
 11
148.2137482480612
 21
401.3729137214832
 31
0.0
  0
LINE
  5
1BB
330
1F
100
AcDbEntity
  8
MARBLE_FSET5
100
AcDbLine
 10
146.564892950817
 20
220.9048582841642
 30
0.0
 11
147.4809236716246
 21
214.9142174404114
 31
0.0
  0
LINE
  5
1BC
330
1F
100
AcDbEntity
  8
MARBLE_FSET5
100
AcDbLine
 10
146.9313052390935
 20
201.0608604871668
 30
0.0
 11
148.3969543923158
 21
193.1981443790719
 31
0.0
  0
LINE
  5
1BD
330
1F
100
AcDbEntity
  8
MARBLE_FSET5
100
AcDbLine
 10
147.8473359597847
 20
94.53977797320113
 30
0.0
 11
148.3969543923158
 21
90.79562744544819
 31
0.0
  0
LINE
  5
1BE
330
1F
100
AcDbEntity
  8
MARBLE_FSET5
100
AcDbLine
 10
147.8473359597847
 20
435.2574759973213
 30
0.0
 11
148.5801605364541
 21
431.1389104169793
 31
0.0
  0
LINE
  5
1BF
330
1F
100
AcDbEntity
  8
MARBLE_FSET5
100
AcDbLine
 10
148.0305421039229
 20
531.2949370336719
 30
0.0
 11
148.3969543923158
 21
527.7379940324463
 31
0.0
  0
LINE
  5
1C0
330
1F
100
AcDbEntity
  8
MARBLE_FSET5
100
AcDbLine
 10
148.2137482480612
 20
595.6943261111155
 30
0.0
 11
149.4961912571453
 21
589.3292702138424
 31
0.0
  0
LINE
  5
1C1
330
1F
100
AcDbEntity
  8
MARBLE_FSET5
100
AcDbLine
 10
148.7633666805923
 20
375.725482606329
 30
0.0
 11
149.6793974012835
 21
370.858086920809
 31
0.0
  0
LINE
  5
1C2
330
1F
100
AcDbEntity
  8
MARBLE_FSET5
100
AcDbLine
 10
148.7633666805923
 20
490.858111334499
 30
0.0
 11
149.4961912571453
 21
486.5523382276297
 31
0.0
  0
LINE
  5
1C3
330
1F
100
AcDbEntity
  8
MARBLE_FSET5
100
AcDbLine
 10
149.1297789687524
 20
90.6084199193865
 30
0.0
 11
150.5954281219747
 21
82.55849628476426
 31
0.0
  0
LINE
  5
1C4
330
1F
100
AcDbEntity
  8
MARBLE_FSET5
100
AcDbLine
 10
149.4961912571453
 20
229.5164044979028
 30
0.0
 11
150.2290158336982
 21
224.6490088123828
 31
0.0
  0
LINE
  5
1C5
330
1F
100
AcDbEntity
  8
MARBLE_FSET5
100
AcDbLine
 10
149.4961912571453
 20
336.7863171175122
 30
0.0
 11
150.7786342661129
 21
330.4212612207048
 31
0.0
  0
LINE
  5
1C6
330
1F
100
AcDbEntity
  8
MARBLE_FSET5
100
AcDbLine
 10
149.6793974012835
 20
509.3916564467363
 30
0.0
 11
150.9618404102512
 21
502.0905629177578
 31
0.0
  0
LINE
  5
1C7
330
1F
100
AcDbEntity
  8
MARBLE_FSET5
100
AcDbLine
 10
149.8626035454217
 20
110.826832768973
 30
0.0
 11
150.04580968956
 21
109.7035876102746
 31
0.0
  0
LINE
  5
1C8
330
1F
100
AcDbEntity
  8
MARBLE_FSET5
100
AcDbLine
 10
150.9618404102512
 20
107.0826822407544
 30
0.0
 11
151.8778711310588
 21
100.7176263439469
 31
0.0
  0
LINE
  5
1C9
330
1F
100
AcDbEntity
  8
MARBLE_FSET5
100
AcDbLine
 10
152.0610772750806
 20
400.9984986684285
 30
0.0
 11
152.9771079958882
 21
396.3183105089702
 31
0.0
  0
LINE
  5
1CA
330
1F
100
AcDbEntity
  8
MARBLE_FSET5
100
AcDbLine
 10
152.4274895633571
 20
22.27767278812826
 30
0.0
 11
153.1603141400265
 21
17.59748462820426
 31
0.0
  0
LINE
  5
1CB
330
1F
100
AcDbEntity
  8
MARBLE_FSET5
100
AcDbLine
 10
152.79390185175
 20
239.2511958703399
 30
0.0
 11
153.7099325724412
 21
234.0093851312995
 31
0.0
  0
LINE
  5
1CC
330
1F
100
AcDbEntity
  8
MARBLE_FSET5
100
AcDbLine
 10
153.7099325724412
 20
443.4946071584709
 30
0.0
 11
156.0916124463547
 21
430.0156652587466
 31
0.0
  0
LINE
  5
1CD
330
1F
100
AcDbEntity
  8
MARBLE_FSET5
100
AcDbLine
 10
154.0763448607177
 20
11.98125883657485
 30
0.0
 11
154.9923755814089
 21
7.862693256232888
 31
0.0
  0
LINE
  5
1CE
330
1F
100
AcDbEntity
  8
MARBLE_FSET5
100
AcDbLine
 10
154.9923755814089
 20
282.6833419920877
 30
0.0
 11
155.7252001580782
 21
278.9391914648004
 31
0.0
  0
LINE
  5
1CF
330
1F
100
AcDbEntity
  8
MARBLE_FSET5
100
AcDbLine
 10
155.3587878696853
 20
125.42901982693
 30
0.0
 11
156.0916124463547
 21
121.4976617726497
 31
0.0
  0
LINE
  5
1D0
330
1F
100
AcDbEntity
  8
MARBLE_FSET5
100
AcDbLine
 10
155.9084063022165
 20
505.085883339867
 30
0.0
 11
157.1908493111841
 21
497.2231672313064
 31
0.0
  0
LINE
  5
1D1
330
1F
100
AcDbEntity
  8
MARBLE_FSET5
100
AcDbLine
 10
156.0916124463547
 20
136.8486789362505
 30
0.0
 11
156.4580247345148
 21
134.789396146778
 31
0.0
  0
LINE
  5
1D2
330
1F
100
AcDbEntity
  8
MARBLE_FSET5
100
AcDbLine
 10
156.2748185903765
 20
429.0796276265755
 30
0.0
 11
156.4580247345148
 21
427.0203448361717
 31
0.0
  0
LINE
  5
1D3
330
1F
100
AcDbEntity
  8
MARBLE_FSET5
100
AcDbLine
 10
156.641230878653
 20
348.7675988064148
 30
0.0
 11
157.0076431670459
 21
347.269938595593
 31
0.0
  0
LINE
  5
1D4
330
1F
100
AcDbEntity
  8
MARBLE_FSET5
100
AcDbLine
 10
157.0076431670459
 20
571.5445552072488
 30
0.0
 11
157.9236738877371
 21
566.3027444686741
 31
0.0
  0
LINE
  5
1D5
330
1F
100
AcDbEntity
  8
MARBLE_FSET5
100
AcDbLine
 10
158.6564984642901
 20
490.2964887553826
 30
0.0
 11
159.9389414733741
 21
484.1186403846368
 31
0.0
  0
LINE
  5
1D6
330
1F
100
AcDbEntity
  8
MARBLE_FSET5
100
AcDbLine
 10
159.5725291849812
 20
414.2902330420911
 30
0.0
 11
159.9389414733741
 21
412.0437427256256
 31
0.0
  0
LINE
  5
1D7
330
1F
100
AcDbEntity
  8
MARBLE_FSET5
100
AcDbLine
 10
159.9389414733741
 20
249.734817347955
 30
0.0
 11
160.8549721940653
 21
245.054629188031
 31
0.0
  0
LINE
  5
1D8
330
1F
100
AcDbEntity
  8
MARBLE_FSET5
100
AcDbLine
 10
160.4885599056724
 20
554.6958778328262
 30
0.0
 11
161.4045906264801
 21
550.2028971994296
 31
0.0
  0
LINE
  5
1D9
330
1F
100
AcDbEntity
  8
MARBLE_FSET5
100
AcDbLine
 10
160.6717660498107
 20
185.1482207444496
 30
0.0
 11
161.2213844823418
 21
181.2168626901694
 31
0.0
  0
LINE
  5
1DA
330
1F
100
AcDbEntity
  8
MARBLE_FSET5
100
AcDbLine
 10
161.0381783382036
 20
396.8799330880865
 30
0.0
 11
162.137415203033
 21
391.2637072964571
 31
0.0
  0
LINE
  5
1DB
330
1F
100
AcDbEntity
  8
MARBLE_FSET5
100
AcDbLine
 10
161.5877967706183
 20
431.5133254695684
 30
0.0
 11
162.5038274913095
 21
427.0203448361717
 31
0.0
  0
LINE
  5
1DC
330
1F
100
AcDbEntity
  8
MARBLE_FSET5
100
AcDbLine
 10
162.6870336354477
 20
355.3198622302152
 30
0.0
 11
163.0534459238406
 21
352.6989568611607
 31
0.0
  0
LINE
  5
1DD
330
1F
100
AcDbEntity
  8
MARBLE_FSET5
100
AcDbLine
 10
164.5190950769465
 20
174.2901842142455
 30
0.0
 11
165.8015380859142
 21
164.7426003683358
 31
0.0
  0
LINE
  5
1DE
330
1F
100
AcDbEntity
  8
MARBLE_FSET5
100
AcDbLine
 10
165.4351257976377
 20
93.60374034103006
 30
0.0
 11
166.7175688066054
 21
86.30264681205153
 31
0.0
  0
LINE
  5
1DF
330
1F
100
AcDbEntity
  8
MARBLE_FSET5
100
AcDbLine
 10
165.4351257976377
 20
578.0968186310492
 30
0.0
 11
166.5343626624672
 21
568.7364423116669
 31
0.0
  0
LINE
  5
1E0
330
1F
100
AcDbEntity
  8
MARBLE_FSET5
100
AcDbLine
 10
165.618331941776
 20
304.0250000003725
 30
0.0
 11
166.5343626624672
 21
298.7831892617978
 31
0.0
  0
LINE
  5
1E1
330
1F
100
AcDbEntity
  8
MARBLE_FSET5
100
AcDbLine
 10
166.9007749507437
 20
289.0483978888951
 30
0.0
 11
168.1832179598277
 21
282.3089269394986
 31
0.0
  0
LINE
  5
1E2
330
1F
100
AcDbEntity
  8
MARBLE_FSET5
100
AcDbLine
 10
168.1832179598277
 20
475.1326791178435
 30
0.0
 11
169.4656609687954
 21
467.831585588865
 31
0.0
  0
LINE
  5
1E3
330
1F
100
AcDbEntity
  8
MARBLE_FSET5
100
AcDbLine
 10
168.366424103966
 20
281.1856817808002
 30
0.0
 11
169.0992486804025
 21
276.8799086739309
 31
0.0
  0
LINE
  5
1E4
330
1F
100
AcDbEntity
  8
MARBLE_FSET5
100
AcDbLine
 10
169.6488671129337
 20
590.8269304251298
 30
0.0
 11
171.4809285544325
 21
579.594478841871
 31
0.0
  0
LINE
  5
1E5
330
1F
100
AcDbEntity
  8
MARBLE_FSET5
100
AcDbLine
 10
171.4809285544325
 20
401.9345363005996
 30
0.0
 11
171.8473408425925
 21
400.2496685632505
 31
0.0
  0
LINE
  5
1E6
330
1F
100
AcDbEntity
  8
MARBLE_FSET5
100
AcDbLine
 10
172.9465777075384
 20
561.060933729168
 30
0.0
 11
173.6794022840913
 21
556.0063305171207
 31
0.0
  0
LINE
  5
1E7
330
1F
100
AcDbEntity
  8
MARBLE_FSET5
100
AcDbLine
 10
174.0458145723678
 20
53.35412216791883
 30
0.0
 11
174.961845293059
 21
45.86582111241296
 31
0.0
  0
LINE
  5
1E8
330
1F
100
AcDbEntity
  8
MARBLE_FSET5
100
AcDbLine
 10
174.4122268606443
 20
133.1045284084976
 30
0.0
 11
175.1450514371973
 21
128.2371327229775
 31
0.0
  0
LINE
  5
1E9
330
1F
100
AcDbEntity
  8
MARBLE_FSET5
100
AcDbLine
 10
174.961845293059
 20
337.1607321705669
 30
0.0
 11
175.3282575813355
 21
335.2886569066904
 31
0.0
  0
LINE
  5
1EA
330
1F
100
AcDbEntity
  8
MARBLE_FSET5
100
AcDbLine
 10
174.961845293059
 20
397.4415556672029
 30
0.0
 11
175.1450514371973
 21
396.3183105089702
 31
0.0
  0
LINE
  5
1EB
330
1F
100
AcDbEntity
  8
MARBLE_FSET5
100
AcDbLine
 10
175.1450514371973
 20
453.7910211100243
 30
0.0
 11
175.6946698697284
 21
451.3573232665658
 31
0.0
  0
LINE
  5
1EC
330
1F
100
AcDbEntity
  8
MARBLE_FSET5
100
AcDbLine
 10
175.6946698697284
 20
42.12167058466002
 30
0.0
 11
177.1603190228343
 21
33.69733189744875
 31
0.0
  0
LINE
  5
1ED
330
1F
100
AcDbEntity
  8
MARBLE_FSET5
100
AcDbLine
 10
176.0610821578884
 20
156.1310541545972
 30
0.0
 11
176.4274944461649
 21
153.6973563116044
 31
0.0
  0
LINE
  5
1EE
330
1F
100
AcDbEntity
  8
MARBLE_FSET5
100
AcDbLine
 10
176.0610821578884
 20
449.4852480026893
 30
0.0
 11
176.4274944461649
 21
446.6771351071075
 31
0.0
  0
LINE
  5
1EF
330
1F
100
AcDbEntity
  8
MARBLE_FSET5
100
AcDbLine
 10
176.6107005904196
 20
5.803410465829074
 30
0.0
 11
177.1603190228343
 21
2.995297570247203
 31
0.0
  0
LINE
  5
1F0
330
1F
100
AcDbEntity
  8
MARBLE_FSET5
100
AcDbLine
 10
176.9771128786961
 20
95.66302313143387
 30
0.0
 11
177.5267313111108
 21
93.41653281496838
 31
0.0
  0
LINE
  5
1F1
330
1F
100
AcDbEntity
  8
MARBLE_FSET5
100
AcDbLine
 10
177.3435251668561
 20
533.3542198240757
 30
0.0
 11
178.442762031802
 21
526.0531262950972
 31
0.0
  0
LINE
  5
1F2
330
1F
100
AcDbEntity
  8
MARBLE_FSET5
100
AcDbLine
 10
177.5267313111108
 20
378.9080105554312
 30
0.0
 11
177.8931435993873
 21
376.4743127119727
 31
0.0
  0
LINE
  5
1F3
330
1F
100
AcDbEntity
  8
MARBLE_FSET5
100
AcDbLine
 10
177.709937455249
 20
147.3323004143313
 30
0.0
 11
177.8931435993873
 21
146.2090552560985
 31
0.0
  0
LINE
  5
1F4
330
1F
100
AcDbEntity
  8
MARBLE_FSET5
100
AcDbLine
 10
178.442762031802
 20
387.7067642952316
 30
0.0
 11
179.3587927524932
 21
380.405670766253
 31
0.0
  0
LINE
  5
1F5
330
1F
100
AcDbEntity
  8
MARBLE_FSET5
100
AcDbLine
 10
178.6259681759402
 20
80.49921349436045
 30
0.0
 11
179.1755866083549
 21
78.25272317742929
 31
0.0
  0
LINE
  5
1F6
330
1F
100
AcDbEntity
  8
MARBLE_FSET5
100
AcDbLine
 10
178.8091743200785
 20
219.5944055994041
 30
0.0
 11
179.5419988966314
 21
216.0374625981785
 31
0.0
  0
LINE
  5
1F7
330
1F
100
AcDbEntity
  8
MARBLE_FSET5
100
AcDbLine
 10
179.5419988966314
 20
435.4446835238487
 30
0.0
 11
180.2748234731844
 21
432.2621555752121
 31
0.0
  0
LINE
  5
1F8
330
1F
100
AcDbEntity
  8
MARBLE_FSET5
100
AcDbLine
 10
180.2748234731844
 20
210.4212368070148
 30
0.0
 11
181.7404726264067
 21
202.5585206984542
 31
0.0
  0
LINE
  5
1F9
330
1F
100
AcDbEntity
  8
MARBLE_FSET5
100
AcDbLine
 10
180.2748234731844
 20
273.8845882518217
 30
0.0
 11
180.4580296173226
 21
272.7613430935889
 31
0.0
  0
LINE
  5
1FA
330
1F
100
AcDbEntity
  8
MARBLE_FSET5
100
AcDbLine
 10
180.4580296173226
 20
487.3011683328077
 30
0.0
 11
182.1068849146832
 21
477.940792013891
 31
0.0
  0
LINE
  5
1FB
330
1F
100
AcDbEntity
  8
MARBLE_FSET5
100
AcDbLine
 10
182.8397094912361
 20
120.1872090883553
 30
0.0
 11
183.7557402119273
 21
115.5070209284313
 31
0.0
  0
LINE
  5
1FC
330
1F
100
AcDbEntity
  8
MARBLE_FSET5
100
AcDbLine
 10
183.0229156353744
 20
306.4586978433654
 30
0.0
 11
184.1221525003202
 21
300.8424720512703
 31
0.0
  0
LINE
  5
1FD
330
1F
100
AcDbEntity
  8
MARBLE_FSET5
100
AcDbLine
 10
184.6717709326185
 20
515.1950897644274
 30
0.0
 11
185.4045955092879
 21
510.5149016054347
 31
0.0
  0
LINE
  5
1FE
330
1F
100
AcDbEntity
  8
MARBLE_FSET5
100
AcDbLine
 10
185.4045955092879
 20
552.2621799893677
 30
0.0
 11
186.8702446623938
 21
544.3994638812728
 31
0.0
  0
LINE
  5
1FF
330
1F
100
AcDbEntity
  8
MARBLE_FSET5
100
AcDbLine
 10
187.0534508066485
 20
106.5210596621037
 30
0.0
 11
187.6030692389468
 21
102.7769091343507
 31
0.0
  0
LINE
  5
200
330
1F
100
AcDbEntity
  8
MARBLE_FSET5
100
AcDbLine
 10
187.786275383085
 20
69.45396943716332
 30
0.0
 11
188.1526876714779
 21
68.14351675286889
 31
0.0
  0
LINE
  5
201
330
1F
100
AcDbEntity
  8
MARBLE_FSET5
100
AcDbLine
 10
187.786275383085
 20
350.6396740707569
 30
0.0
 11
189.9847491127439
 21
338.4711848557927
 31
0.0
  0
LINE
  5
202
330
1F
100
AcDbEntity
  8
MARBLE_FSET5
100
AcDbLine
 10
189.0687183921691
 20
405.8658943548799
 30
0.0
 11
189.2519245363073
 21
404.3682341435924
 31
0.0
  0
LINE
  5
203
330
1F
100
AcDbEntity
  8
MARBLE_FSET5
100
AcDbLine
 10
190.1679552569985
 20
274.071795778349
 30
0.0
 11
190.534367545275
 21
271.6380979353562
 31
0.0
  0
LINE
  5
204
330
1F
100
AcDbEntity
  8
MARBLE_FSET5
100
AcDbLine
 10
190.9007798335515
 20
205.7410486470908
 30
0.0
 11
192.0000166983809
 21
199.3759927498177
 31
0.0
  0
LINE
  5
205
330
1F
100
AcDbEntity
  8
MARBLE_FSET5
100
AcDbLine
 10
191.4503982660826
 20
166.6146756322123
 30
0.0
 11
191.8168105542427
 21
163.8065627361648
 31
0.0
  0
LINE
  5
206
330
1F
100
AcDbEntity
  8
MARBLE_FSET5
100
AcDbLine
 10
192.1832228426356
 20
262.2777216159739
 30
0.0
 11
192.9160474190721
 21
257.7847409825772
 31
0.0
  0
LINE
  5
207
330
1F
100
AcDbEntity
  8
MARBLE_FSET5
100
AcDbLine
 10
194.1984904281562
 20
95.66302313143387
 30
0.0
 11
194.7481088605709
 21
92.29328765673563
 31
0.0
  0
LINE
  5
208
330
1F
100
AcDbEntity
  8
MARBLE_FSET5
100
AcDbLine
 10
194.3816965722945
 20
563.8690466252156
 30
0.0
 11
195.6641395813785
 21
556.0063305171207
 31
0.0
  0
LINE
  5
209
330
1F
100
AcDbEntity
  8
MARBLE_FSET5
100
AcDbLine
 10
195.4809334372403
 20
90.6084199193865
 30
0.0
 11
196.2137580136769
 21
84.8049866007641
 31
0.0
  0
LINE
  5
20A
330
1F
100
AcDbEntity
  8
MARBLE_FSET5
100
AcDbLine
 10
196.9465825903462
 20
17.78469215426594
 30
0.0
 11
197.4962010227609
 21
16.09982441691682
 31
0.0
  0
LINE
  5
20B
330
1F
100
AcDbEntity
  8
MARBLE_FSET5
100
AcDbLine
 10
197.4962010227609
 20
247.3011195049621
 30
0.0
 11
198.4122317434521
 21
241.8721012398601
 31
0.0
  0
LINE
  5
20C
330
1F
100
AcDbEntity
  8
MARBLE_FSET5
100
AcDbLine
 10
199.6946747525362
 20
349.7036364385858
 30
0.0
 11
200.4274993289728
 21
345.3978633317165
 31
0.0
  0
LINE
  5
20D
330
1F
100
AcDbEntity
  8
MARBLE_FSET5
100
AcDbLine
 10
200.2442931848345
 20
209.4851991748437
 30
0.0
 11
201.7099423380569
 21
200.1248228554614
 31
0.0
  0
LINE
  5
20E
330
1F
100
AcDbEntity
  8
MARBLE_FSET5
100
AcDbLine
 10
202.6259730587481
 20
215.8502550721169
 30
0.0
 11
202.9923853470245
 21
213.2293497025967
 31
0.0
  0
LINE
  5
20F
330
1F
100
AcDbEntity
  8
MARBLE_FSET5
100
AcDbLine
 10
202.9923853470245
 20
582.0281766848639
 30
0.0
 11
204.2748283559922
 21
574.539875629358
 31
0.0
  0
LINE
  5
210
330
1F
100
AcDbEntity
  8
MARBLE_FSET5
100
AcDbLine
 10
204.4580345001305
 20
573.7910455237143
 30
0.0
 11
205.0076529326616
 21
570.421310049016
 31
0.0
  0
LINE
  5
211
330
1F
100
AcDbEntity
  8
MARBLE_FSET5
100
AcDbLine
 10
204.8244467885233
 20
8.611523361876607
 30
0.0
 11
205.5572713649599
 21
3.931335201952606
 31
0.0
  0
LINE
  5
212
330
1F
100
AcDbEntity
  8
MARBLE_FSET5
100
AcDbLine
 10
206.2900959416293
 20
515.7567123440094
 30
0.0
 11
207.2061266623205
 21
510.3276940789074
 31
0.0
  0
LINE
  5
213
330
1F
100
AcDbEntity
  8
MARBLE_FSET5
100
AcDbLine
 10
206.839714374044
 20
500.4056951804087
 30
0.0
 11
207.7557450948516
 21
495.35109196743
 31
0.0
  0
LINE
  5
214
330
1F
100
AcDbEntity
  8
MARBLE_FSET5
100
AcDbLine
 10
208.854981959681
 20
125.0546047738753
 30
0.0
 11
209.587806536234
 21
121.3104542465881
 31
0.0
  0
LINE
  5
215
330
1F
100
AcDbEntity
  8
MARBLE_FSET5
100
AcDbLine
 10
209.0381881038193
 20
408.1123846713454
 30
0.0
 11
209.4046003920957
 21
405.6786868283525
 31
0.0
  0
LINE
  5
216
330
1F
100
AcDbEntity
  8
MARBLE_FSET5
100
AcDbLine
 10
210.1374249686487
 20
38.1903125308454
 30
0.0
 11
211.7862802658929
 21
27.70669105276465
 31
0.0
  0
LINE
  5
217
330
1F
100
AcDbEntity
  8
MARBLE_FSET5
100
AcDbLine
 10
210.8702495453181
 20
59.15755548607558
 30
0.0
 11
211.4198679776164
 21
56.16223506396636
 31
0.0
  0
LINE
  5
218
330
1F
100
AcDbEntity
  8
MARBLE_FSET5
100
AcDbLine
 10
211.4198679776164
 20
73.57253501797095
 30
0.0
 11
211.7862802658929
 21
70.76442212238908
 31
0.0
  0
LINE
  5
219
330
1F
100
AcDbEntity
  8
MARBLE_FSET5
100
AcDbLine
 10
211.7862802658929
 20
439.750456630718
 30
0.0
 11
212.1526925542857
 21
437.8783813668415
 31
0.0
  0
LINE
  5
21A
330
1F
100
AcDbEntity
  8
MARBLE_FSET5
100
AcDbLine
 10
212.335898698424
 20
526.6147488746792
 30
0.0
 11
212.5191048425622
 21
524.368258557748
 31
0.0
  0
LINE
  5
21B
330
1F
100
AcDbEntity
  8
MARBLE_FSET5
100
AcDbLine
 10
213.0687232749769
 20
100.9048338700086
 30
0.0
 11
213.8015478515299
 21
95.47581560490653
 31
0.0
  0
LINE
  5
21C
330
1F
100
AcDbEntity
  8
MARBLE_FSET5
100
AcDbLine
 10
214.7175785722211
 20
90.23400486633182
 30
0.0
 11
215.4504031488905
 21
86.11543928598985
 31
0.0
  0
LINE
  5
21D
330
1F
100
AcDbEntity
  8
MARBLE_FSET5
100
AcDbLine
 10
214.9007847163593
 20
482.8081876998767
 30
0.0
 11
215.083990860614
 21
481.4977350151166
 31
0.0
  0
LINE
  5
21E
330
1F
100
AcDbEntity
  8
MARBLE_FSET5
100
AcDbLine
 10
215.6336092929123
 20
395.3822728767991
 30
0.0
 11
216.1832277254434
 21
392.1997449286282
 31
0.0
  0
LINE
  5
21F
330
1F
100
AcDbEntity
  8
MARBLE_FSET5
100
AcDbLine
 10
215.8168154370505
 20
83.30732638994232
 30
0.0
 11
216.5496400137199
 21
78.43993070395663
 31
0.0
  0
LINE
  5
220
330
1F
100
AcDbEntity
  8
MARBLE_FSET5
100
AcDbLine
 10
216.3664338695817
 20
391.0764997699298
 30
0.0
 11
216.7328461578581
 21
389.2044245060533
 31
0.0
  0
LINE
  5
221
330
1F
100
AcDbEntity
  8
MARBLE_FSET5
100
AcDbLine
 10
218.0152891668258
 20
353.6349944928661
 30
0.0
 11
218.5649075992405
 21
349.5164289120585
 31
0.0
  0
LINE
  5
222
330
1F
100
AcDbEntity
  8
MARBLE_FSET5
100
AcDbLine
 10
218.1984953109641
 20
577.7224035779946
 30
0.0
 11
218.5649075992405
 21
576.4119508932345
 31
0.0
  0
LINE
  5
223
330
1F
100
AcDbEntity
  8
MARBLE_FSET5
100
AcDbLine
 10
218.5649075992405
 20
153.6973563116044
 30
0.0
 11
219.1145260316553
 21
151.2636584681459
 31
0.0
  0
LINE
  5
224
330
1F
100
AcDbEntity
  8
MARBLE_FSET5
100
AcDbLine
 10
221.8626181938453
 20
142.2776972018182
 30
0.0
 11
222.9618550586747
 21
137.2230939893052
 31
0.0
  0
LINE
  5
225
330
1F
100
AcDbEntity
  8
MARBLE_FSET5
100
AcDbLine
 10
222.0458243379835
 20
322.3713375860825
 30
0.0
 11
222.5954427703982
 21
318.8143945848569
 31
0.0
  0
LINE
  5
226
330
1F
100
AcDbEntity
  8
MARBLE_FSET5
100
AcDbLine
 10
226.0763595091412
 20
99.78158871177584
 30
0.0
 11
226.6259779415559
 21
96.22464571055025
 31
0.0
  0
LINE
  5
227
330
1F
100
AcDbEntity
  8
MARBLE_FSET5
100
AcDbLine
 10
226.9923902298324
 20
15.16378678474575
 30
0.0
 11
228.4580393829383
 21
7.113863150123507
 31
0.0
  0
LINE
  5
228
330
1F
100
AcDbEntity
  8
MARBLE_FSET5
100
AcDbLine
 10
226.9923902298324
 20
318.4399795322679
 30
0.0
 11
227.5420086623635
 21
316.0062816888094
 31
0.0
  0
LINE
  5
229
330
1F
100
AcDbEntity
  8
MARBLE_FSET5
100
AcDbLine
 10
230.2901008244371
 20
341.6537128039636
 30
0.0
 11
231.9389561217977
 21
332.4805440111086
 31
0.0
  0
LINE
  5
22A
330
1F
100
AcDbEntity
  8
MARBLE_FSET5
100
AcDbLine
 10
230.4733069685753
 20
388.2683868743479
 30
0.0
 11
231.7557499776594
 21
380.405670766253
 31
0.0
  0
LINE
  5
22B
330
1F
100
AcDbEntity
  8
MARBLE_FSET5
100
AcDbLine
 10
230.4733069685753
 20
420.6552889393643
 30
0.0
 11
230.8397192568518
 21
418.2215910963714
 31
0.0
  0
LINE
  5
22C
330
1F
100
AcDbEntity
  8
MARBLE_FSET5
100
AcDbLine
 10
230.65651311283
 20
437.1295512611978
 30
0.0
 11
230.8397192568518
 21
435.8190985764377
 31
0.0
  0
LINE
  5
22D
330
1F
100
AcDbEntity
  8
MARBLE_FSET5
100
AcDbLine
 10
231.3893376892665
 20
233.8221776052378
 30
0.0
 11
232.3053684100742
 21
228.2059518136084
 31
0.0
  0
LINE
  5
22E
330
1F
100
AcDbEntity
  8
MARBLE_FSET5
100
AcDbLine
 10
231.3893376892665
 20
447.9875877918676
 30
0.0
 11
231.5725438334048
 21
446.8643426336348
 31
0.0
  0
LINE
  5
22F
330
1F
100
AcDbEntity
  8
MARBLE_FSET5
100
AcDbLine
 10
233.0381929866271
 20
327.9875633777119
 30
0.0
 11
235.4198728604242
 21
313.7597913723439
 31
0.0
  0
LINE
  5
230
330
1F
100
AcDbEntity
  8
MARBLE_FSET5
100
AcDbLine
 10
233.0381929866271
 20
556.9423681488261
 30
0.0
 11
233.9542237073183
 21
551.1389348306693
 31
0.0
  0
LINE
  5
231
330
1F
100
AcDbEntity
  8
MARBLE_FSET5
100
AcDbLine
 10
234.1374298514565
 20
22.09046526160091
 30
0.0
 11
234.8702544281259
 21
17.03586204862222
 31
0.0
  0
LINE
  5
232
330
1F
100
AcDbEntity
  8
MARBLE_FSET5
100
AcDbLine
 10
234.3206359955948
 20
435.2574759973213
 30
0.0
 11
234.8702544281259
 21
432.6365706282668
 31
0.0
  0
LINE
  5
233
330
1F
100
AcDbEntity
  8
MARBLE_FSET5
100
AcDbLine
 10
235.7862851487007
 20
266.7707022493705
 30
0.0
 11
235.9694912929554
 21
264.8986269850284
 31
0.0
  0
LINE
  5
234
330
1F
100
AcDbEntity
  8
MARBLE_FSET5
100
AcDbLine
 10
238.5343773108907
 20
502.2777704442851
 30
0.0
 11
238.7175834550289
 21
500.9673177590594
 31
0.0
  0
LINE
  5
235
330
1F
100
AcDbEntity
  8
MARBLE_FSET5
100
AcDbLine
 10
238.9007895991672
 20
420.4680814133026
 30
0.0
 11
240.3664387523895
 21
410.9204975673929
 31
0.0
  0
LINE
  5
236
330
1F
100
AcDbEntity
  8
MARBLE_FSET5
100
AcDbLine
 10
242.1985001937719
 20
380.9672933449037
 30
0.0
 11
242.9313247703249
 21
376.8487277645618
 31
0.0
  0
LINE
  5
237
330
1F
100
AcDbEntity
  8
MARBLE_FSET5
100
AcDbLine
 10
242.5649124820484
 20
424.5866469936445
 30
0.0
 11
243.480943202856
 21
418.5960061494261
 31
0.0
  0
LINE
  5
238
330
1F
100
AcDbEntity
  8
MARBLE_FSET5
100
AcDbLine
 10
244.0305616351543
 20
456.2247189530171
 30
0.0
 11
245.3130046442384
 21
448.1747953183949
 31
0.0
  0
LINE
  5
239
330
1F
100
AcDbEntity
  8
MARBLE_FSET5
100
AcDbLine
 10
245.1297984999837
 20
447.2387576862238
 30
0.0
 11
246.2290353649296
 21
440.686494262889
 31
0.0
  0
LINE
  5
23A
330
1F
100
AcDbEntity
  8
MARBLE_FSET5
100
AcDbLine
 10
246.5954476532061
 20
197.6911250124685
 30
0.0
 11
247.8778906622902
 21
190.39003148349
 31
0.0
  0
LINE
  5
23B
330
1F
100
AcDbEntity
  8
MARBLE_FSET5
100
AcDbLine
 10
246.9618599414825
 20
236.6302905012853
 30
0.0
 11
247.5114783740137
 21
233.6349700787105
 31
0.0
  0
LINE
  5
23C
330
1F
100
AcDbEntity
  8
MARBLE_FSET5
100
AcDbLine
 10
248.4275090947049
 20
425.1482695722952
 30
0.0
 11
249.8931582478108
 21
416.9111384111457
 31
0.0
  0
LINE
  5
23D
330
1F
100
AcDbEntity
  8
MARBLE_FSET5
100
AcDbLine
 10
249.7099521036725
 20
356.6303149149753
 30
0.0
 11
250.4427766803419
 21
352.324541808106
 31
0.0
  0
LINE
  5
23E
330
1F
100
AcDbEntity
  8
MARBLE_FSET5
100
AcDbLine
 10
251.9084258334478
 20
22.46488031418994
 30
0.0
 11
252.0916319775861
 21
20.40559752425179
 31
0.0
  0
LINE
  5
23F
330
1F
100
AcDbEntity
  8
MARBLE_FSET5
100
AcDbLine
 10
258.1374347342644
 20
47.55068884976208
 30
0.0
 11
258.5038470225409
 21
45.11699100676924
 31
0.0
  0
LINE
  5
240
330
1F
100
AcDbEntity
  8
MARBLE_FSET5
100
AcDbLine
 10
268.0305665179621
 20
179.7192024793476
 30
0.0
 11
268.7633910946315
 21
175.0390143194236
 31
0.0
  0
LINE
  5
241
330
1F
100
AcDbEntity
  8
MARBLE_FSET5
100
AcDbLine
 10
270.9618648242904
 20
39.31355768907815
 30
0.0
 11
270.9618648242904
 21
42.8705006907694
 31
0.0
  0
LINE
  5
242
330
1F
100
AcDbEntity
  8
MARBLE_FSET5
100
AcDbLine
 10
271.5114832568215
 20
488.6116210180335
 30
0.0
 11
272.2443078332581
 21
483.9314328581095
 31
0.0
  0
LINE
  5
243
330
1F
100
AcDbEntity
  8
MARBLE_FSET5
100
AcDbLine
 10
273.1603385540657
 20
456.7863415316679
 30
0.0
 11
274.6259877071716
 21
448.923625423573
 31
0.0
  0
LINE
  5
244
330
1F
100
AcDbEntity
  8
MARBLE_FSET5
100
AcDbLine
 10
274.0763692747569
 20
224.6490088123828
 30
0.0
 11
274.2595754188951
 21
223.5257636536844
 31
0.0
  0
LINE
  5
245
330
1F
100
AcDbEntity
  8
MARBLE_FSET5
100
AcDbLine
 10
279.3893474548822
 20
79.18876080913469
 30
0.0
 11
280.3053781756898
 21
74.6957801762037
 31
0.0
  0
LINE
  5
246
330
1F
100
AcDbEntity
  8
MARBLE_FSET5
100
AcDbLine
 10
279.5725535990205
 20
170.9204487395473
 30
0.0
 11
280.3053781756898
 21
166.2402605796233
 31
0.0
  0
LINE
  5
247
330
1F
100
AcDbEntity
  8
MARBLE_FSET5
100
AcDbLine
 10
279.5725535990205
 20
522.4961832938716
 30
0.0
 11
279.9389658874134
 21
520.4369005039334
 31
0.0
  0
LINE
  5
248
330
1F
100
AcDbEntity
  8
MARBLE_FSET5
100
AcDbLine
 10
280.6717904639663
 20
72.4492898597382
 30
0.0
 11
281.5878211846575
 21
67.20747912069783
 31
0.0
  0
LINE
  5
249
330
1F
100
AcDbEntity
  8
MARBLE_FSET5
100
AcDbLine
 10
281.7710273287958
 20
360.5616729692556
 30
0.0
 11
283.6030887701781
 21
349.7036364385858
 31
0.0
  0
LINE
  5
24A
330
1F
100
AcDbEntity
  8
MARBLE_FSET5
100
AcDbLine
 10
283.6030887701781
 20
337.7223547496833
 30
0.0
 11
284.3359133468475
 21
334.1654117484577
 31
0.0
  0
LINE
  5
24B
330
1F
100
AcDbEntity
  8
MARBLE_FSET5
100
AcDbLine
 10
290.3817161035258
 20
31.63804910704494
 30
0.0
 11
290.7481283918023
 21
30.51480394881219
 31
0.0
  0
LINE
  5
24C
330
1F
100
AcDbEntity
  8
MARBLE_FSET5
100
AcDbLine
 10
290.7481283918023
 20
273.8845882518217
 30
0.0
 11
291.4809529684717
 21
270.3276452505961
 31
0.0
  0
LINE
  5
24D
330
1F
100
AcDbEntity
  8
MARBLE_FSET5
100
AcDbLine
 10
290.9313345359406
 20
83.12011886341497
 30
0.0
 11
291.2977468243334
 21
79.93759091524407
 31
0.0
  0
LINE
  5
24E
330
1F
100
AcDbEntity
  8
MARBLE_FSET5
100
AcDbLine
 10
292.3969836891629
 20
118.3151338244788
 30
0.0
 11
292.7633959774394
 21
116.255851034075
 31
0.0
  0
LINE
  5
24F
330
1F
100
AcDbEntity
  8
MARBLE_FSET5
100
AcDbLine
 10
292.9466021215776
 20
114.9453983497806
 30
0.0
 11
293.1298082655994
 21
113.2605306119658
 31
0.0
  0
LINE
  5
250
330
1F
100
AcDbEntity
  8
MARBLE_FSET5
100
AcDbLine
 10
292.9466021215776
 20
152.1996961003169
 30
0.0
 11
293.6794266981306
 21
146.2090552560985
 31
0.0
  0
LINE
  5
251
330
1F
100
AcDbEntity
  8
MARBLE_FSET5
100
AcDbLine
 10
294.5954574188218
 20
443.6818146849982
 30
0.0
 11
295.6946942837676
 21
437.1295512611978
 31
0.0
  0
LINE
  5
252
330
1F
100
AcDbEntity
  8
MARBLE_FSET5
100
AcDbLine
 10
294.77866356296
 20
505.6475059189834
 30
0.0
 11
295.5114881396294
 21
500.592902706936
 31
0.0
  0
LINE
  5
253
330
1F
100
AcDbEntity
  8
MARBLE_FSET5
100
AcDbLine
 10
302.6565277612535
 20
454.539851215668
 30
0.0
 11
303.0229400494136
 21
452.1061533722095
 31
0.0
  0
LINE
  5
254
330
1F
100
AcDbEntity
  8
MARBLE_FSET5
100
AcDbLine
 10
306.8702690765494
 20
411.1077050934546
 30
0.0
 11
308.1527120855171
 21
403.9938190910034
 31
0.0
  0
LINE
  5
255
330
1F
100
AcDbEntity
  8
MARBLE_FSET5
100
AcDbLine
 10
307.2366813648259
 20
124.1185671421699
 30
0.0
 11
307.603093652986
 21
122.6209069313481
 31
0.0
  0
LINE
  5
256
330
1F
100
AcDbEntity
  8
MARBLE_FSET5
100
AcDbLine
 10
308.3359182296554
 20
546.2715391451493
 30
0.0
 11
308.5191243737936
 21
544.5866714078002
 31
0.0
  0
LINE
  5
257
330
1F
100
AcDbEntity
  8
MARBLE_FSET5
100
AcDbLine
 10
309.618361238623
 20
63.46332859294489
 30
0.0
 11
310.5343919593142
 21
58.40872538043186
 31
0.0
  0
LINE
  5
258
330
1F
100
AcDbEntity
  8
MARBLE_FSET5
100
AcDbLine
 10
310.1679796710378
 20
550.3901047254913
 30
0.0
 11
310.7175981034525
 21
547.5819918294437
 31
0.0
  0
LINE
  5
259
330
1F
100
AcDbEntity
  8
MARBLE_FSET5
100
AcDbLine
 10
311.0840103918454
 20
327.8003558511846
 30
0.0
 11
312.366453400813
 21
321.2480924278498
 31
0.0
  0
LINE
  5
25A
330
1F
100
AcDbEntity
  8
MARBLE_FSET5
100
AcDbLine
 10
311.8168349682819
 20
25.83461578935385
 30
0.0
 11
312.9160718331113
 21
19.28235236555338
 31
0.0
  0
LINE
  5
25B
330
1F
100
AcDbEntity
  8
MARBLE_FSET5
100
AcDbLine
 10
312.0000411125366
 20
121.8720768257044
 30
0.0
 11
312.366453400813
 21
119.8127940353006
 31
0.0
  0
LINE
  5
25C
330
1F
100
AcDbEntity
  8
MARBLE_FSET5
100
AcDbLine
 10
312.5496595449513
 20
118.6895488770679
 30
0.0
 11
313.2824841215042
 21
114.9453983497806
 31
0.0
  0
LINE
  5
25D
330
1F
100
AcDbEntity
  8
MARBLE_FSET5
100
AcDbLine
 10
314.1985148421954
 20
232.8861399730667
 30
0.0
 11
315.4809578512795
 21
225.7722539706156
 31
0.0
  0
LINE
  5
25E
330
1F
100
AcDbEntity
  8
MARBLE_FSET5
100
AcDbLine
 10
314.5649271304719
 20
54.2901598000899
 30
0.0
 11
315.6641639954178
 21
48.11231142934412
 31
0.0
  0
LINE
  5
25F
330
1F
100
AcDbEntity
  8
MARBLE_FSET5
100
AcDbLine
 10
315.8473701394396
 20
214.1653873347677
 30
0.0
 11
316.3969885719707
 21
210.6084443330765
 31
0.0
  0
LINE
  5
260
330
1F
100
AcDbEntity
  8
MARBLE_FSET5
100
AcDbLine
 10
316.2137824278325
 20
406.0531018814072
 30
0.0
 11
317.3130192926619
 21
400.6240836163051
 31
0.0
  0
LINE
  5
261
330
1F
100
AcDbEntity
  8
MARBLE_FSET5
100
AcDbLine
 10
325.923708067392
 20
373.1045772368088
 30
0.0
 11
327.2061510763597
 21
366.3651062874123
 31
0.0
  0
LINE
  5
262
330
1F
100
AcDbEntity
  8
MARBLE_FSET5
100
AcDbLine
 10
335.2672214187915
 20
469.7036608527415
 30
0.0
 11
338.1985197250033
 21
452.8549834778532
 31
0.0
  0
LINE
  5
263
330
1F
100
AcDbEntity
  8
MARBLE_FSET5
100
AcDbLine
 10
340.0305811665021
 20
538.9704456161708
 30
0.0
 11
340.9466118871933
 21
534.4774649827741
 31
0.0
  0
LINE
  5
264
330
1F
100
AcDbEntity
  8
MARBLE_FSET5
100
AcDbLine
 10
347.1756207880098
 20
320.6864698487334
 30
0.0
 11
347.3588269322645
 21
319.3760171639733
 31
0.0
  0
LINE
  5
265
330
1F
100
AcDbEntity
  8
MARBLE_FSET5
100
AcDbLine
 10
350.2901252384763
 20
400.9984986684285
 30
0.0
 11
351.2061559591675
 21
395.0078578246757
 31
0.0
  0
LINE
  5
266
330
1F
100
AcDbEntity
  8
MARBLE_FSET5
100
AcDbLine
 10
352.3053928241134
 20
594.7582884794101
 30
0.0
 11
352.6718051123898
 21
593.44783579465
 31
0.0
  0
LINE
  5
267
330
1F
100
AcDbEntity
  8
MARBLE_FSET5
100
AcDbLine
 10
360.549669310567
 20
48.48672648193315
 30
0.0
 11
361.0992877429817
 21
45.67861358635128
 31
0.0
  0
LINE
  5
268
330
1F
100
AcDbEntity
  8
MARBLE_FSET5
100
AcDbLine
 10
360.549669310567
 20
188.7051637461409
 30
0.0
 11
361.6489061753964
 21
182.1529003223404
 31
0.0
  0
LINE
  5
269
330
1F
100
AcDbEntity
  8
MARBLE_FSET5
100
AcDbLine
 10
375.5725731303683
 20
231.762894814834
 30
0.0
 11
375.9389854186447
 21
230.2652346040122
 31
0.0
  0
LINE
  5
26A
330
1F
100
AcDbEntity
  8
MARBLE_FSET5
100
AcDbLine
 10
390.9618892383296
 20
152.1996961003169
 30
0.0
 11
391.694713814999
 21
148.081130519975
 31
0.0
  0
LINE
  5
26B
330
1F
100
AcDbEntity
  8
MARBLE_FSET5
100
AcDbLine
 10
390.9618892383296
 20
391.0764997699298
 30
0.0
 11
391.1450953825843
 21
389.3916320325807
 31
0.0
  0
LINE
  5
26C
330
1F
100
AcDbEntity
  8
MARBLE_FSET5
100
AcDbLine
 10
391.8779199591372
 20
224.4618012858555
 30
0.0
 11
392.061126103159
 21
223.3385561271571
 31
0.0
  0
LINE
  5
26D
330
1F
100
AcDbEntity
  8
MARBLE_FSET5
100
AcDbLine
 10
403.9695254726103
 20
453.7910211100243
 30
0.0
 11
404.519143905025
 21
449.1108329501003
 31
0.0
  0
LINE
  5
26E
330
1F
100
AcDbEntity
  8
MARBLE_FSET5
100
AcDbLine
 10
405.0687623374397
 20
446.6771351071075
 30
0.0
 11
405.0687623374397
 21
447.9875877918676
 31
0.0
  0
LINE
  5
26F
330
1F
100
AcDbEntity
  8
MARBLE_FSET5
100
AcDbLine
 10
410.381740517565
 20
165.8658455265686
 30
0.0
 11
410.7481528058415
 21
163.4321476835757
 31
0.0
  0
LINE
  5
270
330
1F
100
AcDbEntity
  8
MARBLE_FSET5
100
AcDbLine
 10
411.6641835266491
 20
78.43993070395663
 30
0.0
 11
412.2138019590639
 21
74.32136512361467
 31
0.0
  0
LINE
  5
271
330
1F
100
AcDbEntity
  8
MARBLE_FSET5
100
AcDbLine
 10
412.3970081032021
 20
73.57253501797095
 30
0.0
 11
412.9466265357332
 21
71.13883717451245
 31
0.0
  0
LINE
  5
272
330
1F
100
AcDbEntity
  8
MARBLE_FSET5
100
AcDbLine
 10
414.2290695447009
 20
212.6677271234803
 30
0.0
 11
415.1451002653921
 21
206.6770862792619
 31
0.0
  0
LINE
  5
273
330
1F
100
AcDbEntity
  8
MARBLE_FSET5
100
AcDbLine
 10
418.2596047158586
 20
80.12479844130576
 30
0.0
 11
418.8092231481569
 21
76.38064791355282
 31
0.0
  0
LINE
  5
274
330
1F
100
AcDbEntity
  8
MARBLE_FSET5
100
AcDbLine
 10
419.9084600131027
 20
278.751983938273
 30
0.0
 11
419.9084600131027
 21
279.8752290965058
 31
0.0
  0
LINE
  5
275
330
1F
100
AcDbEntity
  8
MARBLE_FSET5
100
AcDbLine
 10
426.1374689139193
 20
55.60061248484999
 30
0.0
 11
427.419911922887
 21
48.86114153452218
 31
0.0
  0
LINE
  5
276
330
1F
100
AcDbEntity
  8
MARBLE_FSET5
100
AcDbLine
 10
437.8626621391159
 20
77.87830812484026
 30
0.0
 11
438.5954867156688
 21
73.19811996491626
 31
0.0
  0
LINE
  5
277
330
1F
100
AcDbEntity
  8
MARBLE_FSET5
100
AcDbLine
 10
441.8931973102735
 20
569.8596874698997
 30
0.0
 11
442.0764034544118
 21
568.3620272586122
 31
0.0
  0
LINE
  5
278
330
1F
100
AcDbEntity
  8
MARBLE_FSET5
100
AcDbLine
 10
456.732894986053
 20
348.5803912803531
 30
0.0
 11
457.4657195624895
 21
345.3978633317165
 31
0.0
  0
LINE
  5
279
330
1F
100
AcDbEntity
  8
MARBLE_FSET5
100
AcDbLine
 10
474.3206848236732
 20
112.1372854537331
 30
0.0
 11
475.0535094003426
 21
107.8315123468637
 31
0.0
  0
LINE
  5
27A
330
1F
100
AcDbEntity
  8
MARBLE_FSET5
100
AcDbLine
 10
492.8245053822175
 20
2.246467464603484
 30
0.0
 11
493.0077115263557
 21
0.5615997272543609
 31
0.0
  0
LINE
  5
27B
330
1F
100
AcDbEntity
  8
MARBLE_FSET5
100
AcDbLine
 10
496.6718344092369
 20
266.5834947228432
 30
0.0
 11
497.2214528416516
 21
262.2777216159739
 31
0.0
  0
LINE
  5
27C
330
1F
100
AcDbEntity
  8
MARBLE_FSET5
100
AcDbLine
 10
514.0764181029517
 20
531.2949370336719
 30
0.0
 11
514.62603653525
 21
526.6147488746792
 31
0.0
  0
LINE
  5
27D
330
1F
100
AcDbEntity
  8
MARBLE_FSET5
100
AcDbLine
 10
524.5191683191806
 20
137.9719240949489
 30
0.0
 11
525.8016113281483
 21
131.2324531450868
 31
0.0
  0
LINE
  5
27E
330
1F
100
AcDbEntity
  8
MARBLE_FSET5
100
AcDbLine
 10
524.7023744632024
 20
186.6458809557371
 30
0.0
 11
525.0687867514789
 21
184.2121831127442
 31
0.0
  0
LINE
  5
27F
330
1F
100
AcDbEntity
  8
MARBLE_FSET5
100
AcDbLine
 10
549.251997778425
 20
74.50857265014201
 30
0.0
 11
549.4352039226796
 21
73.3853274914436
 31
0.0
  0
LINE
  5
280
330
1F
100
AcDbEntity
  8
MARBLE_FSET5
100
AcDbLine
 10
551.0840592199238
 20
154.4461864172481
 30
0.0
 11
552.000089940615
 21
148.829960625153
 31
0.0
  0
LINE
  5
281
330
1F
100
AcDbEntity
  8
MARBLE_FSET5
100
AcDbLine
 10
551.8168837964768
 20
510.7021091314964
 30
0.0
 11
552.9161206613062
 21
505.6475059189834
 31
0.0
  0
LINE
  5
282
330
1F
100
AcDbEntity
  8
MARBLE_FSET5
100
AcDbLine
 10
571.4199412198504
 20
452.6677759517916
 30
0.0
 11
571.9695596522652
 21
449.2980404766276
 31
0.0
  0
LINE
  5
283
330
1F
100
AcDbEntity
  8
MARBLE_FSET5
100
AcDbLine
 10
577.4657439765288
 20
350.8268815972842
 30
0.0
 11
578.38177469722
 21
344.8362407521345
 31
0.0
  0
ENDSEC
  0
SECTION
  2
OBJECTS
  0
DICTIONARY
  5
C
330
0
100
AcDbDictionary
  3
ACAD_GROUP
350
D
  3
ACAD_LAYOUT
350
1A
  3
ACAD_MATERIAL
350
43
  3
ACAD_MLEADERSTYLE
350
6B
  3
ACAD_MLINESTYLE
350
17
  3
ACAD_PLOTSETTINGS
350
19
  3
ACAD_SCALELIST
350
47
  3
ACAD_VISUALSTYLE
350
2A
  3
ACDBHEADERROUNDTRIPXREC
350
285
  3
ACDBVARIABLEDICTIONARY
350
8F
  3
ESRI_PRJ
350
284
  0
DICTIONARY
  5
2A6
330
8
100
AcDbDictionary
280
     1
  3
ACAD_XREC_ROUNDTRIP
360
2A7
  0
DICTIONARY
  5
D
102
{ACAD_REACTORS
330
C
102
}
330
C
100
AcDbDictionary
  0
DICTIONARY
  5
1A
102
{ACAD_REACTORS
330
C
102
}
330
C
100
AcDbDictionary
  0
DICTIONARY
  5
43
102
{ACAD_REACTORS
330
C
102
}
330
C
100
AcDbDictionary
  3
BYBLOCK
350
45
  3
BYLAYER
350
44
  3
GLOBAL
350
46
  0
DICTIONARY
  5
6B
102
{ACAD_REACTORS
330
C
102
}
330
C
100
AcDbDictionary
  3
STANDARD
350
6C
  0
DICTIONARY
  5
17
102
{ACAD_REACTORS
330
C
102
}
330
C
100
AcDbDictionary
  3
STANDARD
350
18
  0
DICTIONARY
  5
19
102
{ACAD_REACTORS
330
C
102
}
330
C
100
AcDbDictionary
  0
DICTIONARY
  5
47
102
{ACAD_REACTORS
330
C
102
}
330
C
100
AcDbDictionary
  3
A0
350
48
  3
A1
350
49
  3
A2
350
4A
  3
A3
350
4B
  3
A4
350
4C
  3
A5
350
4D
  3
A6
350
4E
  3
A7
350
4F
  3
A8
350
50
  3
A9
350
51
  3
B0
350
52
  3
B1
350
53
  3
B2
350
54
  3
B3
350
55
  3
B4
350
56
  3
B5
350
57
  3
B6
350
58
  3
B7
350
59
  3
B8
350
5A
  3
B9
350
5B
  3
C0
350
5C
  3
C1
350
5D
  3
C2
350
5E
  3
C3
350
5F
  3
C4
350
60
  3
C5
350
61
  3
C6
350
62
  3
C7
350
63
  3
C8
350
64
  3
C9
350
65
  3
D0
350
66
  3
D1
350
67
  3
D2
350
68
  0
DICTIONARY
  5
2A
102
{ACAD_REACTORS
330
C
102
}
330
C
100
AcDbDictionary
  3
2DWIREFRAME
350
2F
  3
BASIC
350
32
  3
BRIGHTEN
350
36
  3
COLORCHANGE
350
3A
  3
CONCEPTUAL
350
34
  3
DIM
350
35
  3
EDGECOLOROFF
350
3D
  3
FACEPATTERN
350
39
  3
FLAT
350
2B
  3
FLATWITHEDGES
350
2C
  3
GOURAUD
350
2D
  3
GOURAUDWITHEDGES
350
2E
  3
HIDDEN
350
31
  3
JITTEROFF
350
3B
  3
LINEPATTERN
350
38
  3
OVERHANGOFF
350
3C
  3
REALISTIC
350
33
  3
SHADED
350
42
  3
SHADED_WITH_EDGES
350
41
  3
SHADES_OF_GRAY
350
3E
  3
SKETCHY
350
3F
  3
THICKEN
350
37
  3
WIREFRAME
350
30
  3
X-RAY
350
40
  0
DICTIONARY
  5
285
102
{ACAD_REACTORS
330
C
102
}
330
C
100
AcDbDictionary
  3
CEPSNID
350
28F
  3
CEPSNTYPE
350
28E
  3
DIMSTYLEDATA
350
2A5
  3
FINGERPRINTGUID
350
290
  3
HYPERLINKBASE
350
288
  3
INSUNITS
350
28D
  3
LAYOUTDICT
350
28A
  3
LWETCUNION
350
28C
  3
PLOTSETDICT
350
28B
  3
PSVPSCALE
350
292
  3
PUCSBASE
350
295
  3
PUCSORGBACK
350
29B
  3
PUCSORGBOTTOM
350
297
  3
PUCSORGFRONT
350
29A
  3
PUCSORGLEFT
350
298
  3
PUCSORGRIGHT
350
299
  3
PUCSORGTOP
350
296
  3
PUCSORTHOREF
350
293
  3
PUCSORTHOVIEW
350
294
  3
STYLESHEET
350
289
  3
TSTACKALIGN
350
286
  3
TSTACKSIZE
350
287
  3
UCSBASE
350
29E
  3
UCSORGBACK
350
2A4
  3
UCSORGBOTTOM
350
2A0
  3
UCSORGFRONT
350
2A3
  3
UCSORGLEFT
350
2A1
  3
UCSORGRIGHT
350
2A2
  3
UCSORGTOP
350
29F
  3
UCSORTHOREF
350
29C
  3
UCSORTHOVIEW
350
29D
  3
VERSIONGUID
350
291
  0
DICTIONARY
  5
8F
102
{ACAD_REACTORS
330
C
102
}
330
C
100
AcDbDictionary
  3
CANNOSCALE
350
98
  3
CMLEADERSTYLE
350
91
  3
CTABLESTYLE
350
90
  3
DIMASSOC
350
94
  3
HIDETEXT
350
95
  3
MSLTSCALE
350
99
  0
XRECORD
  5
284
102
{ACAD_REACTORS
330
C
102
}
330
C
100
AcDbXrecord
  1
PROJCS["WGS_1984_UTM_Zone_14N",GEOGCS["GCS_WGS_1984",DATUM["D_WGS_1984",SPHEROID["WGS_1984",6378137.0,298.257223563]],PRIMEM["Greenwich",0.0],UNIT["Degree",0.0174532925199433]],PROJECTION["Transverse_Mercator"],PARAMETER["False_Easting",500000.0],PARAMETER["False_Northing",0.0],PARAMETER["Central_Meridian",-99.0],PARAMETER["Scale_Factor",0.9996],PARAMETER["Latitude_Of_Origin",0.0],UNIT["Meter",1.0]]
  0
XRECORD
  5
2A7
102
{ACAD_REACTORS
330
2A6
102
}
330
2A6
100
AcDbXrecord
102
VTR_0.000_0.000_1.000_1.000_VISUALSTYLE
340
2F
102
VTR_0.000_0.000_1.000_1.000_GRIDDISPLAY
 70
     3
102
VTR_0.000_0.000_1.000_1.000_GRIDMAJOR
 70
     5
102
VTR_0.000_0.000_1.000_1.000_DEFAULTLIGHTING
280
     1
102
VTR_0.000_0.000_1.000_1.000_DEFAULTLIGHTINGTYPE
 70
     1
102
VTR_0.000_0.000_1.000_1.000_BRIGHTNESS
141
0.0
102
VTR_0.000_0.000_1.000_1.000_CONTRAST
142
0.0
  0
MATERIAL
  5
45
102
{ACAD_REACTORS
330
43
102
}
102
{ACAD_XDICTIONARY
360
2AA
102
}
330
43
100
AcDbMaterial
  1
BYBLOCK
  0
MATERIAL
  5
44
102
{ACAD_REACTORS
330
43
102
}
102
{ACAD_XDICTIONARY
360
2A8
102
}
330
43
100
AcDbMaterial
  1
BYLAYER
  0
MATERIAL
  5
46
102
{ACAD_REACTORS
330
43
102
}
102
{ACAD_XDICTIONARY
360
2AC
102
}
330
43
100
AcDbMaterial
  1
GLOBAL
  0
ACAD_PROXY_OBJECT
  5
6C
102
{ACAD_REACTORS
330
6B
102
}
330
6B
100
AcDbProxyObject
 90
      499
 91
      505
 93
      610
310
40901902A4063FBFFFFFE056BD1B81E855B9FC0AD7A3703D0AD73F4214DD185B99185C9900AD7A3703D0AC73F90141901A02B5E8DC0F42B1CFC02B5E8DC0F42B1CFE5764000000000000300FC0
340
14
340
0
340
11
340
0
 94
        0
1001
ACAD_MLEADERVER
1070
     2
  0
MLINESTYLE
  5
18
102
{ACAD_REACTORS
330
17
102
}
330
17
100
AcDbMlineStyle
  2
Standard
 70
     0
  3

 62
   256
 51
90.0
 52
90.0
 71
     2
 49
0.5
 62
   256
  6
BYLAYER
 49
-0.5
 62
   256
  6
BYLAYER
  0
ACAD_PROXY_OBJECT
  5
48
102
{ACAD_REACTORS
330
47
102
}
330
47
100
AcDbProxyObject
 90
      499
 91
      503
 93
       41
310
903313A31580
  0
ACAD_PROXY_OBJECT
  5
49
102
{ACAD_REACTORS
330
47
102
}
330
47
100
AcDbProxyObject
 90
      499
 91
      503
 93
      105
310
903313A324000000000000004000
  0
ACAD_PROXY_OBJECT
  5
4A
102
{ACAD_REACTORS
330
47
102
}
330
47
100
AcDbProxyObject
 90
      499
 91
      503
 93
      105
310
903313A344000000000000104000
  0
ACAD_PROXY_OBJECT
  5
4B
102
{ACAD_REACTORS
330
47
102
}
330
47
100
AcDbProxyObject
 90
      499
 91
      503
 93
      105
310
903313A354000000000000144000
  0
ACAD_PROXY_OBJECT
  5
4C
102
{ACAD_REACTORS
330
47
102
}
330
47
100
AcDbProxyObject
 90
      499
 91
      503
 93
      105
310
903313A384000000000000204000
  0
ACAD_PROXY_OBJECT
  5
4D
102
{ACAD_REACTORS
330
47
102
}
330
47
100
AcDbProxyObject
 90
      499
 91
      503
 93
      113
310
904313A31304000000000000244000
  0
ACAD_PROXY_OBJECT
  5
4E
102
{ACAD_REACTORS
330
47
102
}
330
47
100
AcDbProxyObject
 90
      499
 91
      503
 93
      113
310
904313A31364000000000000304000
  0
ACAD_PROXY_OBJECT
  5
4F
102
{ACAD_REACTORS
330
47
102
}
330
47
100
AcDbProxyObject
 90
      499
 91
      503
 93
      113
310
904313A32304000000000000344000
  0
ACAD_PROXY_OBJECT
  5
50
102
{ACAD_REACTORS
330
47
102
}
330
47
100
AcDbProxyObject
 90
      499
 91
      503
 93
      113
310
904313A333040000000000003E4000
  0
ACAD_PROXY_OBJECT
  5
51
102
{ACAD_REACTORS
330
47
102
}
330
47
100
AcDbProxyObject
 90
      499
 91
      503
 93
      113
310
904313A34304000000000000444000
  0
ACAD_PROXY_OBJECT
  5
52
102
{ACAD_REACTORS
330
47
102
}
330
47
100
AcDbProxyObject
 90
      499
 91
      503
 93
      113
310
904313A35304000000000000494000
  0
ACAD_PROXY_OBJECT
  5
53
102
{ACAD_REACTORS
330
47
102
}
330
47
100
AcDbProxyObject
 90
      499
 91
      503
 93
      121
310
905313A3130304000000000000594000
  0
ACAD_PROXY_OBJECT
  5
54
102
{ACAD_REACTORS
330
47
102
}
330
47
100
AcDbProxyObject
 90
      499
 91
      503
 93
      105
310
903323A310000000000000010100
  0
ACAD_PROXY_OBJECT
  5
55
102
{ACAD_REACTORS
330
47
102
}
330
47
100
AcDbProxyObject
 90
      499
 91
      503
 93
      105
310
903343A310000000000000410100
  0
ACAD_PROXY_OBJECT
  5
56
102
{ACAD_REACTORS
330
47
102
}
330
47
100
AcDbProxyObject
 90
      499
 91
      503
 93
      105
310
903383A310000000000000810100
  0
ACAD_PROXY_OBJECT
  5
57
102
{ACAD_REACTORS
330
47
102
}
330
47
100
AcDbProxyObject
 90
      499
 91
      503
 93
      113
310
90431303A310000000000000910100
  0
ACAD_PROXY_OBJECT
  5
58
102
{ACAD_REACTORS
330
47
102
}
330
47
100
AcDbProxyObject
 90
      499
 91
      503
 93
      121
310
9053130303A310000000000001650100
  0
ACAD_PROXY_OBJECT
  5
59
102
{ACAD_REACTORS
330
47
102
}
330
47
100
AcDbProxyObject
 90
      499
 91
      503
 93
      257
310
90E312F31323822203D2031272D3022000000000000200FC000000000000284000
  0
ACAD_PROXY_OBJECT
  5
5A
102
{ACAD_REACTORS
330
47
102
}
330
47
100
AcDbProxyObject
 90
      499
 91
      503
 93
      249
310
90D312F363422203D2031272D3022000000000000240FC000000000000284000
  0
ACAD_PROXY_OBJECT
  5
5B
102
{ACAD_REACTORS
330
47
102
}
330
47
100
AcDbProxyObject
 90
      499
 91
      503
 93
      249
310
90D312F333222203D2031272D3022000000000000280FC000000000000284000
  0
ACAD_PROXY_OBJECT
  5
5C
102
{ACAD_REACTORS
330
47
102
}
330
47
100
AcDbProxyObject
 90
      499
 91
      503
 93
      249
310
90D312F313622203D2031272D30220000000000002C0FC000000000000284000
  0
ACAD_PROXY_OBJECT
  5
5D
102
{ACAD_REACTORS
330
47
102
}
330
47
100
AcDbProxyObject
 90
      499
 91
      503
 93
      249
310
90D332F333222203D2031272D30220000000000002E0FC000000000000284000
  0
ACAD_PROXY_OBJECT
  5
5E
102
{ACAD_REACTORS
330
47
102
}
330
47
100
AcDbProxyObject
 90
      499
 91
      503
 93
      241
310
90C312F3822203D2031272D3022000000000000300FC000000000000284000
  0
ACAD_PROXY_OBJECT
  5
5F
102
{ACAD_REACTORS
330
47
102
}
330
47
100
AcDbProxyObject
 90
      499
 91
      503
 93
      249
310
90D332F313622203D2031272D3022000000000000320FC000000000000284000
  0
ACAD_PROXY_OBJECT
  5
60
102
{ACAD_REACTORS
330
47
102
}
330
47
100
AcDbProxyObject
 90
      499
 91
      503
 93
      241
310
90C312F3422203D2031272D3022000000000000340FC000000000000284000
  0
ACAD_PROXY_OBJECT
  5
61
102
{ACAD_REACTORS
330
47
102
}
330
47
100
AcDbProxyObject
 90
      499
 91
      503
 93
      241
310
90C332F3822203D2031272D3022000000000000360FC000000000000284000
  0
ACAD_PROXY_OBJECT
  5
62
102
{ACAD_REACTORS
330
47
102
}
330
47
100
AcDbProxyObject
 90
      499
 91
      503
 93
      241
310
90C312F3222203D2031272D3022000000000000380FC000000000000284000
  0
ACAD_PROXY_OBJECT
  5
63
102
{ACAD_REACTORS
330
47
102
}
330
47
100
AcDbProxyObject
 90
      499
 91
      503
 93
      241
310
90C332F3422203D2031272D30220000000000003A0FC000000000000284000
  0
ACAD_PROXY_OBJECT
  5
64
102
{ACAD_REACTORS
330
47
102
}
330
47
100
AcDbProxyObject
 90
      499
 91
      503
 93
      161
310
90A3122203D2031272D30224000000000000284000
  0
ACAD_PROXY_OBJECT
  5
65
102
{ACAD_REACTORS
330
47
102
}
330
47
100
AcDbProxyObject
 90
      499
 91
      503
 93
      257
310
90E312D312F3222203D2031272D30220000000000003E0FC000000000000284000
  0
ACAD_PROXY_OBJECT
  5
66
102
{ACAD_REACTORS
330
47
102
}
330
47
100
AcDbProxyObject
 90
      499
 91
      503
 93
      225
310
90A3322203D2031272D302200000000000002100000000000000284000
  0
ACAD_PROXY_OBJECT
  5
67
102
{ACAD_REACTORS
330
47
102
}
330
47
100
AcDbProxyObject
 90
      499
 91
      503
 93
      225
310
90A3622203D2031272D302200000000000006100000000000000284000
  0
ACAD_PROXY_OBJECT
  5
68
102
{ACAD_REACTORS
330
47
102
}
330
47
100
AcDbProxyObject
 90
      499
 91
      503
 93
      249
310
90D31272D3022203D2031272D30220000000000000A100000000000000284000
  0
ACAD_PROXY_OBJECT
  5
2F
102
{ACAD_REACTORS
330
2A
102
}
330
2A
100
AcDbProxyObject
 90
      499
 91
      501
 93
      436
310
42CC9915DA5C99599C985B595049028333333333333E33F0000000000000F90107901411070040501600405405064090741402480A0340
1001
ACAD
1000
AcDbSavedByObjectVersion
1070
     0
  0
ACAD_PROXY_OBJECT
  5
32
102
{ACAD_REACTORS
330
2A
102
}
330
2A
100
AcDbProxyObject
 90
      499
 91
      501
 93
      388
310
4150985CDA58D07406404333333333333E33F0000000000000F90107A41107004050150841D405064090741402480A0350
1001
ACAD
1000
AcDbSavedByObjectVersion
1070
     0
  0
ACAD_PROXY_OBJECT
  5
36
102
{ACAD_REACTORS
330
2A
102
}
330
2A
100
AcDbProxyObject
 90
      499
 91
      501
 93
      428
310
42109C9A59DA1D195B90C409028333333333333E33F0000000000000F9010790141107004050150841D405064090741402480A029950
1001
ACAD
1000
AcDbSavedByObjectVersion
1070
     0
  0
ACAD_PROXY_OBJECT
  5
3A
102
{ACAD_REACTORS
330
2A
102
}
330
2A
100
AcDbProxyObject
 90
      499
 91
      501
 93
      452
310
42D0DBDB1BDC90DA185B99D95104090240C333333333333E33F0000000000000F90108901411070040501508421405064090741402480A0350
1001
ACAD
1000
AcDbSavedByObjectVersion
1070
     0
  0
ACAD_PROXY_OBJECT
  5
34
102
{ACAD_REACTORS
330
2A
102
}
330
2A
100
AcDbProxyObject
 90
      499
 91
      501
 93
      500
310
4290DBDB98D95C1D1D585B10940D028333333333333E33F0000000000000F90107902409070040501000000000018199010841D405064090740C02480A0340
1001
ACAD
1000
AcDbSavedByObjectVersion
1070
     0
  0
ACAD_PROXY_OBJECT
  5
35
102
{ACAD_REACTORS
330
2A
102
}
330
2A
100
AcDbProxyObject
 90
      499
 91
      501
 93
      412
310
40D11A5B50B409028333333333333E33F0000000000000F9010790141107004050150841D405064090741402480A02677FFFFFD0
1001
ACAD
1000
AcDbSavedByObjectVersion
1070
     0
  0
ACAD_PROXY_OBJECT
  5
3D
102
{ACAD_REACTORS
330
2A
102
}
330
2A
100
AcDbProxyObject
 90
      499
 91
      501
 93
      452
310
43115919D950DBDB1BDC93D999916409028333333333333E33F0000000000000F9010790141107004050150841D405064090741402480A0350
1001
ACAD
1000
AcDbSavedByObjectVersion
1070
     0
  0
ACAD_PROXY_OBJECT
  5
39
102
{ACAD_REACTORS
330
2A
102
}
330
2A
100
AcDbProxyObject
 90
      499
 91
      501
 93
      444
310
42D19858D95C185D1D195C9B90F409028333333333333E33F0000000000000F9010790141107004050150841D405064090741402480A0350
1001
ACAD
1000
AcDbSavedByObjectVersion
1070
     0
  0
ACAD_PROXY_OBJECT
  5
2B
102
{ACAD_REACTORS
330
2A
102
}
330
2A
100
AcDbProxyObject
 90
      499
 91
      501
 93
      380
310
41119B185D240901404333333333333E33F0000000000000F9010740A907004050150841D405064090741402480A1B50
1001
ACAD
1000
AcDbSavedByObjectVersion
1070
     0
  0
ACAD_PROXY_OBJECT
  5
2C
102
{ACAD_REACTORS
330
2A
102
}
330
2A
100
AcDbProxyObject
 90
      499
 91
      501
 93
      468
310
43519B185D15DA5D1A115919D95CD0140901404333333333333E33F0000000000000F90107409019070040501600405405064090741402480A1B50
1001
ACAD
1000
AcDbSavedByObjectVersion
1070
     0
  0
ACAD_PROXY_OBJECT
  5
2D
102
{ACAD_REACTORS
330
2A
102
}
330
2A
100
AcDbProxyObject
 90
      499
 91
      501
 93
      404
310
41D1DBDD5C985D5910240902404333333333333E33F0000000000000F9010740A9070040501641D405064090741402480A1B50
1001
ACAD
1000
AcDbSavedByObjectVersion
1070
     0
  0
ACAD_PROXY_OBJECT
  5
2E
102
{ACAD_REACTORS
330
2A
102
}
330
2A
100
AcDbProxyObject
 90
      499
 91
      501
 93
      492
310
4411DBDD5C985D5915DA5D1A115919D95CD0340902404333333333333E33F0000000000000F90107409019070040501600405405064090741402480A1B50
1001
ACAD
1000
AcDbSavedByObjectVersion
1070
     0
  0
ACAD_PROXY_OBJECT
  5
31
102
{ACAD_REACTORS
330
2A
102
}
330
2A
100
AcDbProxyObject
 90
      499
 91
      501
 93
      476
310
41921A5919195B90640502408333333333333E33F0000000000000F901079024090700405020000000000001110200405405064090740C02480A0340
1001
ACAD
1000
AcDbSavedByObjectVersion
1070
     0
  0
ACAD_PROXY_OBJECT
  5
3B
102
{ACAD_REACTORS
330
2A
102
}
330
2A
100
AcDbProxyObject
 90
      499
 91
      501
 93
      428
310
42529A5D1D195C93D999914409028333333333333E33F0000000000000F9010790141107004050150A41D405064090741402480A0350
1001
ACAD
1000
AcDbSavedByObjectVersion
1070
     0
  0
ACAD_PROXY_OBJECT
  5
38
102
{ACAD_REACTORS
330
2A
102
}
330
2A
100
AcDbProxyObject
 90
      499
 91
      501
 93
      444
310
42D31A5B995C185D1D195C9B90E409028333333333333E33F0000000000000F9010790141107004050750841D405064090741402483A0350
1001
ACAD
1000
AcDbSavedByObjectVersion
1070
     0
  0
ACAD_PROXY_OBJECT
  5
3C
102
{ACAD_REACTORS
330
2A
102
}
330
2A
100
AcDbProxyObject
 90
      499
 91
      501
 93
      444
310
42D3DD995C9A185B99D3D999915409028333333333333E33F0000000000000F9010790141107004050150941D405064090741402480A0350
1001
ACAD
1000
AcDbSavedByObjectVersion
1070
     0
  0
ACAD_PROXY_OBJECT
  5
33
102
{ACAD_REACTORS
330
2A
102
}
330
2A
100
AcDbProxyObject
 90
      499
 91
      501
 93
      428
310
425499585B1A5CDD1A58D08409038333333333333E33F0000000000000F9010740A907004050150800405405064090740C02480A1B40
1001
ACAD
1000
AcDbSavedByObjectVersion
1070
     0
  0
ACAD_PROXY_OBJECT
  5
42
102
{ACAD_REACTORS
330
2A
102
}
330
2A
100
AcDbProxyObject
 90
      499
 91
      501
 93
      420
310
4194DA1859195911B40902404333333333333E33F0000000000000F9010740A41107004050150800405405064090840C02480A0B40
1001
ACAD
1000
AcDbSavedByObjectVersion
1070
     0
  0
ACAD_PROXY_OBJECT
  5
41
102
{ACAD_REACTORS
330
2A
102
}
330
2A
100
AcDbProxyObject
 90
      499
 91
      501
 93
      516
310
4454DA18591959081DDA5D1A08195919D95CD1A40902404333333333333E33F0000000000000F901074090142907004050250800405405064090740C02480A0B40
1001
ACAD
1000
AcDbSavedByObjectVersion
1070
     0
  0
ACAD_PROXY_OBJECT
  5
3E
102
{ACAD_REACTORS
330
2A
102
}
330
2A
100
AcDbProxyObject
 90
      499
 91
      501
 93
      532
310
4394DA1859195CC81BD98811DC985E5174090240C333333333333E33F0000000000000F901079024090741D01000000000000111010841D405064090740C02480A0340
1001
ACAD
1000
AcDbSavedByObjectVersion
1070
     0
  0
ACAD_PROXY_OBJECT
  5
3F
102
{ACAD_REACTORS
330
2A
102
}
330
2A
100
AcDbProxyObject
 90
      499
 91
      501
 93
      476
310
41D4DAD95D18DA1E51840502408333333333333E33F0000000000000F901079024090741D01000000000000111010B41D405064090741802480A0340
1001
ACAD
1000
AcDbSavedByObjectVersion
1070
     0
  0
ACAD_PROXY_OBJECT
  5
37
102
{ACAD_REACTORS
330
2A
102
}
330
2A
100
AcDbProxyObject
 90
      499
 91
      501
 93
      412
310
41D51A1A58DAD95B90D409028333333333333E33F0000000000000F9010790141107004050150C41D405064090741402480A0350
1001
ACAD
1000
AcDbSavedByObjectVersion
1070
     0
  0
ACAD_PROXY_OBJECT
  5
30
102
{ACAD_REACTORS
330
2A
102
}
330
2A
100
AcDbProxyObject
 90
      499
 91
      501
 93
      420
310
4255DA5C99599C985B595059028333333333333E33F0000000000000F90107901411070040501600405405064090740C02480A0340
1001
ACAD
1000
AcDbSavedByObjectVersion
1070
     0
  0
ACAD_PROXY_OBJECT
  5
40
102
{ACAD_REACTORS
330
2A
102
}
330
2A
100
AcDbProxyObject
 90
      499
 91
      501
 93
      404
310
41560B54985E51940902404000000000000E03F0000000000000F9010740501907004050150841D405064090740C02480A1B40
1001
ACAD
1000
AcDbSavedByObjectVersion
1070
     0
  0
XRECORD
  5
28F
102
{ACAD_REACTORS
330
285
102
}
330
285
100
AcDbXrecord
340
0
  0
XRECORD
  5
28E
102
{ACAD_REACTORS
330
285
102
}
330
285
100
AcDbXrecord
 90
        0
  0
XRECORD
  5
2A5
102
{ACAD_REACTORS
330
285
102
}
330
285
100
AcDbXrecord
1000
DSTYLE
1002
{
1070
   340
340
11
1002
}
  0
XRECORD
  5
290
102
{ACAD_REACTORS
330
285
102
}
330
285
100
AcDbXrecord
  1
{69EE234F-B712-408A-A58B-D9723169A69B}
  0
XRECORD
  5
288
102
{ACAD_REACTORS
330
285
102
}
330
285
100
AcDbXrecord
  1

  0
XRECORD
  5
28D
102
{ACAD_REACTORS
330
285
102
}
330
285
100
AcDbXrecord
 90
        1
  0
XRECORD
  5
28A
102
{ACAD_REACTORS
330
285
102
}
330
285
100
AcDbXrecord
340
1A
  0
XRECORD
  5
28C
102
{ACAD_REACTORS
330
285
102
}
330
285
100
AcDbXrecord
 90
    10781
  0
XRECORD
  5
28B
102
{ACAD_REACTORS
330
285
102
}
330
285
100
AcDbXrecord
340
19
  0
XRECORD
  5
292
102
{ACAD_REACTORS
330
285
102
}
330
285
100
AcDbXrecord
 40
0.0
  0
XRECORD
  5
295
102
{ACAD_REACTORS
330
285
102
}
330
285
100
AcDbXrecord
340
0
  0
XRECORD
  5
29B
102
{ACAD_REACTORS
330
285
102
}
330
285
100
AcDbXrecord
 10
0.0
 20
0.0
 30
0.0
  0
XRECORD
  5
297
102
{ACAD_REACTORS
330
285
102
}
330
285
100
AcDbXrecord
 10
0.0
 20
0.0
 30
0.0
  0
XRECORD
  5
29A
102
{ACAD_REACTORS
330
285
102
}
330
285
100
AcDbXrecord
 10
0.0
 20
0.0
 30
0.0
  0
XRECORD
  5
298
102
{ACAD_REACTORS
330
285
102
}
330
285
100
AcDbXrecord
 10
0.0
 20
0.0
 30
0.0
  0
XRECORD
  5
299
102
{ACAD_REACTORS
330
285
102
}
330
285
100
AcDbXrecord
 10
0.0
 20
0.0
 30
0.0
  0
XRECORD
  5
296
102
{ACAD_REACTORS
330
285
102
}
330
285
100
AcDbXrecord
 10
0.0
 20
0.0
 30
0.0
  0
XRECORD
  5
293
102
{ACAD_REACTORS
330
285
102
}
330
285
100
AcDbXrecord
340
0
  0
XRECORD
  5
294
102
{ACAD_REACTORS
330
285
102
}
330
285
100
AcDbXrecord
 70
     0
  0
XRECORD
  5
289
102
{ACAD_REACTORS
330
285
102
}
330
285
100
AcDbXrecord
  1

  0
XRECORD
  5
286
102
{ACAD_REACTORS
330
285
102
}
330
285
100
AcDbXrecord
 90
        1
  0
XRECORD
  5
287
102
{ACAD_REACTORS
330
285
102
}
330
285
100
AcDbXrecord
 90
       70
  0
XRECORD
  5
29E
102
{ACAD_REACTORS
330
285
102
}
330
285
100
AcDbXrecord
340
0
  0
XRECORD
  5
2A4
102
{ACAD_REACTORS
330
285
102
}
330
285
100
AcDbXrecord
 10
0.0
 20
0.0
 30
0.0
  0
XRECORD
  5
2A0
102
{ACAD_REACTORS
330
285
102
}
330
285
100
AcDbXrecord
 10
0.0
 20
0.0
 30
0.0
  0
XRECORD
  5
2A3
102
{ACAD_REACTORS
330
285
102
}
330
285
100
AcDbXrecord
 10
0.0
 20
0.0
 30
0.0
  0
XRECORD
  5
2A1
102
{ACAD_REACTORS
330
285
102
}
330
285
100
AcDbXrecord
 10
0.0
 20
0.0
 30
0.0
  0
XRECORD
  5
2A2
102
{ACAD_REACTORS
330
285
102
}
330
285
100
AcDbXrecord
 10
0.0
 20
0.0
 30
0.0
  0
XRECORD
  5
29F
102
{ACAD_REACTORS
330
285
102
}
330
285
100
AcDbXrecord
 10
0.0
 20
0.0
 30
0.0
  0
XRECORD
  5
29C
102
{ACAD_REACTORS
330
285
102
}
330
285
100
AcDbXrecord
340
0
  0
XRECORD
  5
29D
102
{ACAD_REACTORS
330
285
102
}
330
285
100
AcDbXrecord
 70
     0
  0
XRECORD
  5
291
102
{ACAD_REACTORS
330
285
102
}
330
285
100
AcDbXrecord
  1
{FAEB1C32-E019-11D5-929B-00C0DF256EC4}
  0
DICTIONARYVAR
  5
98
102
{ACAD_REACTORS
330
8F
102
}
330
8F
100
DictionaryVariables
280
     0
  1
1:1
  0
DICTIONARYVAR
  5
91
102
{ACAD_REACTORS
330
8F
102
}
330
8F
100
DictionaryVariables
280
     0
  1
Standard
  0
DICTIONARYVAR
  5
90
102
{ACAD_REACTORS
330
8F
102
}
330
8F
100
DictionaryVariables
280
     0
  1
Standard
  0
DICTIONARYVAR
  5
94
102
{ACAD_REACTORS
330
8F
102
}
330
8F
100
DictionaryVariables
280
     0
  1
2
  0
DICTIONARYVAR
  5
95
102
{ACAD_REACTORS
330
8F
102
}
330
8F
100
DictionaryVariables
280
     0
  1
1
  0
DICTIONARYVAR
  5
99
102
{ACAD_REACTORS
330
8F
102
}
330
8F
100
DictionaryVariables
280
     0
  1
1
  0
DICTIONARY
  5
2AA
330
45
100
AcDbDictionary
280
     1
  3
ACAD_XREC_ROUNDTRIP
360
2AB
  0
DICTIONARY
  5
2A8
330
44
100
AcDbDictionary
280
     1
  3
ACAD_XREC_ROUNDTRIP
360
2A9
  0
DICTIONARY
  5
2AC
330
46
100
AcDbDictionary
280
     1
  3
ACAD_XREC_ROUNDTRIP
360
2AD
  0
XRECORD
  5
2AB
102
{ACAD_REACTORS
330
2AA
102
}
330
2AA
100
AcDbXrecord
102
MATERIAL
148
0.0
149
0.0
149
0.0
 93
        0
 94
      127
282
     0
 72
     1
 77
     1
171
     1
175
     1
179
     1
273
     0
  0
XRECORD
  5
2A9
102
{ACAD_REACTORS
330
2A8
102
}
330
2A8
100
AcDbXrecord
102
MATERIAL
148
0.0
149
0.0
149
0.0
 93
        0
 94
      127
282
     0
 72
     1
 77
     1
171
     1
175
     1
179
     1
273
     0
  0
XRECORD
  5
2AD
102
{ACAD_REACTORS
330
2AC
102
}
330
2AC
100
AcDbXrecord
102
MATERIAL
148
0.0
149
0.0
149
0.0
 93
        0
 94
      127
282
     0
 72
     1
 77
     1
171
     1
175
     1
179
     1
273
     0
  0
ENDSEC
  0
EOF
