  0
SECTION
  2
HEADER
  9
$ACADVER
  1
AC1014
  9
$ACADMAINTVER
 70
     9
  9
$DWGCODEPAGE
  3
ANSI_1252
  9
$INSBASE
 10
0.0
 20
0.0
 30
0.0
  9
$EXTMIN
 10
0.5238737821346149
 20
1.872052411548793
 30
0.0
  9
$EXTMAX
 10
592.2683252621209
 20
599.8128916914575
 30
0.0
  9
$LIMMIN
 10
0.0
 20
0.0
  9
$LIMMAX
 10
12.0
 20
9.0
  9
$ORTHOMODE
 70
     0
  9
$REGENMODE
 70
     1
  9
$FILLMODE
 70
     1
  9
$QTEXTMODE
 70
     0
  9
$MIRRTEXT
 70
     1
  9
$DRAGMODE
 70
     2
  9
$LTSCALE
 40
1.0
  9
$OSMODE
 70
    37
  9
$ATTMODE
 70
     1
  9
$TEXTSIZE
 40
0.2
  9
$TRACEWID
 40
0.05
  9
$TEXTSTYLE
  7
STANDARD
  9
$CLAYER
  8
0
  9
$CELTYPE
  6
BYLAYER
  9
$CECOLOR
 62
   256
  9
$CELTSCALE
 40
1.0
  9
$DELOBJ
 70
     1
  9
$DISPSILH
 70
     0
  9
$DIMSCALE
 40
1.0
  9
$DIMASZ
 40
0.18
  9
$DIMEXO
 40
0.0625
  9
$DIMDLI
 40
0.38
  9
$DIMRND
 40
0.0
  9
$DIMDLE
 40
0.0
  9
$DIMEXE
 40
0.18
  9
$DIMTP
 40
0.0
  9
$DIMTM
 40
0.0
  9
$DIMTXT
 40
0.18
  9
$DIMCEN
 40
0.09
  9
$DIMTSZ
 40
0.0
  9
$DIMTOL
 70
     0
  9
$DIMLIM
 70
     0
  9
$DIMTIH
 70
     1
  9
$DIMTOH
 70
     1
  9
$DIMSE1
 70
     0
  9
$DIMSE2
 70
     0
  9
$DIMTAD
 70
     0
  9
$DIMZIN
 70
     0
  9
$DIMBLK
  1

  9
$DIMASO
 70
     1
  9
$DIMSHO
 70
     1
  9
$DIMPOST
  1

  9
$DIMAPOST
  1

  9
$DIMALT
 70
     0
  9
$DIMALTD
 70
     2
  9
$DIMALTF
 40
25.4
  9
$DIMLFAC
 40
1.0
  9
$DIMTOFL
 70
     0
  9
$DIMTVP
 40
0.0
  9
$DIMTIX
 70
     0
  9
$DIMSOXD
 70
     0
  9
$DIMSAH
 70
     0
  9
$DIMBLK1
  1

  9
$DIMBLK2
  1

  9
$DIMSTYLE
  2
STANDARD
  9
$DIMCLRD
 70
     0
  9
$DIMCLRE
 70
     0
  9
$DIMCLRT
 70
     0
  9
$DIMTFAC
 40
1.0
  9
$DIMGAP
 40
0.09
  9
$DIMJUST
 70
     0
  9
$DIMSD1
 70
     0
  9
$DIMSD2
 70
     0
  9
$DIMTOLJ
 70
     1
  9
$DIMTZIN
 70
     0
  9
$DIMALTZ
 70
     0
  9
$DIMALTTZ
 70
     0
  9
$DIMFIT
 70
     3
  9
$DIMUPT
 70
     0
  9
$DIMUNIT
 70
     2
  9
$DIMDEC
 70
     4
  9
$DIMTDEC
 70
     4
  9
$DIMALTU
 70
     2
  9
$DIMALTTD
 70
     2
  9
$DIMTXSTY
  7
STANDARD
  9
$DIMAUNIT
 70
     0
  9
$LUNITS
 70
     2
  9
$LUPREC
 70
     4
  9
$SKETCHINC
 40
0.1
  9
$FILLETRAD
 40
0.5
  9
$AUNITS
 70
     0
  9
$AUPREC
 70
     0
  9
$MENU
  1
.
  9
$ELEVATION
 40
0.0
  9
$PELEVATION
 40
0.0
  9
$THICKNESS
 40
0.0
  9
$LIMCHECK
 70
     0
  9
$CHAMFERA
 40
0.0
  9
$CHAMFERB
 40
0.0
  9
$CHAMFERC
 40
0.0
  9
$CHAMFERD
 40
0.0
  9
$SKPOLY
 70
     0
  9
$TDCREATE
 40
2458589.582128704
  9
$TDUPDATE
 40
2458589.582129433
  9
$TDINDWG
 40
0.0000000116
  9
$TDUSRTIMER
 40
0.0000000116
  9
$USRTIMER
 70
     1
  9
$ANGBASE
 50
0.0
  9
$ANGDIR
 70
     0
  9
$PDMODE
 70
     0
  9
$PDSIZE
 40
0.0
  9
$PLINEWID
 40
0.0
  9
$COORDS
 70
     1
  9
$SPLFRAME
 70
     0
  9
$SPLINETYPE
 70
     6
  9
$SPLINESEGS
 70
     8
  9
$ATTDIA
 70
     0
  9
$ATTREQ
 70
     1
  9
$HANDLING
 70
     1
  9
$HANDSEED
  5
23B
  9
$SURFTAB1
 70
     6
  9
$SURFTAB2
 70
     6
  9
$SURFTYPE
 70
     6
  9
$SURFU
 70
     6
  9
$SURFV
 70
     6
  9
$UCSNAME
  2

  9
$UCSORG
 10
0.0
 20
0.0
 30
0.0
  9
$UCSXDIR
 10
1.0
 20
0.0
 30
0.0
  9
$UCSYDIR
 10
0.0
 20
1.0
 30
0.0
  9
$PUCSNAME
  2

  9
$PUCSORG
 10
0.0
 20
0.0
 30
0.0
  9
$PUCSXDIR
 10
1.0
 20
0.0
 30
0.0
  9
$PUCSYDIR
 10
0.0
 20
1.0
 30
0.0
  9
$USERI1
 70
     0
  9
$USERI2
 70
     0
  9
$USERI3
 70
     0
  9
$USERI4
 70
     0
  9
$USERI5
 70
     0
  9
$USERR1
 40
0.0
  9
$USERR2
 40
0.0
  9
$USERR3
 40
0.0
  9
$USERR4
 40
0.0
  9
$USERR5
 40
0.0
  9
$WORLDVIEW
 70
     1
  9
$SHADEDGE
 70
     3
  9
$SHADEDIF
 70
    70
  9
$TILEMODE
 70
     1
  9
$MAXACTVP
 70
    64
  9
$PINSBASE
 10
0.0
 20
0.0
 30
0.0
  9
$PLIMCHECK
 70
     0
  9
$PEXTMIN
 10
1.000000000000000E+20
 20
1.000000000000000E+20
 30
1.000000000000000E+20
  9
$PEXTMAX
 10
-1.000000000000000E+20
 20
-1.000000000000000E+20
 30
-1.000000000000000E+20
  9
$PLIMMIN
 10
0.0
 20
0.0
  9
$PLIMMAX
 10
12.0
 20
9.0
  9
$UNITMODE
 70
     0
  9
$VISRETAIN
 70
     1
  9
$PLINEGEN
 70
     0
  9
$PSLTSCALE
 70
     1
  9
$TREEDEPTH
 70
  3020
  9
$PICKSTYLE
 70
     1
  9
$CMLSTYLE
  2
STANDARD
  9
$CMLJUST
 70
     0
  9
$CMLSCALE
 40
1.0
  9
$PROXYGRAPHICS
 70
     1
  9
$MEASUREMENT
 70
     0
  0
ENDSEC
  0
SECTION
  2
CLASSES
  0
CLASS
  1
ACDBDICTIONARYWDFLT
  2
AcDbDictionaryWithDefault
  3
ObjectDBX Classes
 90
        0
280
     0
281
     0
  0
CLASS
  1
VISUALSTYLE
  2
AcDbVisualStyle
  3
ObjectDBX Classes
 90
     4095
280
     0
281
     0
  0
CLASS
  1
MATERIAL
  2
AcDbMaterial
  3
ObjectDBX Classes
 90
     1153
280
     0
281
     0
  0
CLASS
  1
SCALE
  2
AcDbScale
  3
ObjectDBX Classes
 90
     1153
280
     0
281
     0
  0
CLASS
  1
TABLESTYLE
  2
AcDbTableStyle
  3
ObjectDBX Classes
 90
     4095
280
     0
281
     0
  0
CLASS
  1
MLEADERSTYLE
  2
AcDbMLeaderStyle
  3
ACDB_MLEADERSTYLE_CLASS
 90
     4095
280
     0
281
     0
  0
CLASS
  1
SUN
  2
AcDbSun
  3
SCENEOE
 90
     1153
280
     0
281
     0
  0
CLASS
  1
DICTIONARYVAR
  2
AcDbDictionaryVar
  3
ObjectDBX Classes
 90
        0
280
     0
281
     0
  0
CLASS
  1
XRECORD
  2
AcDbXrecord
  3
ObjectDBX Classes
 90
        0
280
     0
281
     0
  0
CLASS
  1
LWPOLYLINE
  2
AcDbPolyline
  3
ObjectDBX Classes
 90
        0
280
     0
281
     1
  0
CLASS
  1
HATCH
  2
AcDbHatch
  3
ObjectDBX Classes
 90
        0
280
     0
281
     1
  0
CLASS
  1
ACDBPLACEHOLDER
  2
AcDbPlaceHolder
  3
ObjectDBX Classes
 90
        0
280
     0
281
     0
  0
CLASS
  1
LAYOUT
  2
AcDbLayout
  3
ObjectDBX Classes
 90
        0
280
     0
281
     0
  0
ENDSEC
  0
SECTION
  2
TABLES
  0
TABLE
  2
VPORT
  5
8
102
{ACAD_XDICTIONARY
360
232
102
}
330
0
100
AcDbSymbolTable
 70
     1
  0
VPORT
  5
29
330
8
100
AcDbSymbolTableRecord
100
AcDbViewportTableRecord
  2
*ACTIVE
 70
     0
 10
0.0
 20
0.0
 11
1.0
 21
1.0
 12
296.3960995221278
 22
300.8424720515031
 13
0.0
 23
0.0
 14
0.5
 24
0.5
 15
0.5
 25
0.5
 16
0.0
 26
0.0
 36
1.0
 17
0.0
 27
0.0
 37
0.0
 40
609.8996560655069
 41
0.9896371222822234
 42
50.0
 43
0.0
 44
0.0
 50
0.0
 51
0.0
 71
     0
 72
   100
 73
     1
 74
     3
 75
     0
 76
     0
 77
     0
 78
     0
  0
ENDTAB
  0
TABLE
  2
LTYPE
  5
5
330
0
100
AcDbSymbolTable
 70
     1
  0
LTYPE
  5
14
330
5
100
AcDbSymbolTableRecord
100
AcDbLinetypeTableRecord
  2
BYBLOCK
 70
     0
  3

 72
    65
 73
     0
 40
0.0
  0
LTYPE
  5
15
330
5
100
AcDbSymbolTableRecord
100
AcDbLinetypeTableRecord
  2
BYLAYER
 70
     0
  3

 72
    65
 73
     0
 40
0.0
  0
LTYPE
  5
16
330
5
100
AcDbSymbolTableRecord
100
AcDbLinetypeTableRecord
  2
CONTINUOUS
 70
     0
  3
Solid line
 72
    65
 73
     0
 40
0.0
  0
ENDTAB
  0
TABLE
  2
LAYER
  5
2
330
0
100
AcDbSymbolTable
 70
     2
  0
LAYER
  5
10
330
2
100
AcDbSymbolTableRecord
100
AcDbLayerTableRecord
  2
0
 70
     0
 62
     7
  6
CONTINUOUS
  0
LAYER
  5
A1
330
2
100
AcDbSymbolTableRecord
100
AcDbLayerTableRecord
  2
SKARN_FSET7
 70
     0
 62
   224
  6
CONTINUOUS
  0
ENDTAB
  0
TABLE
  2
STYLE
  5
3
330
0
100
AcDbSymbolTable
 70
     1
  0
STYLE
  5
11
330
3
100
AcDbSymbolTableRecord
100
AcDbTextStyleTableRecord
  2
STANDARD
 70
     0
 40
0.0
 41
1.0
 50
0.0
 71
     0
 42
0.2
  3
txt
  4

  0
ENDTAB
  0
TABLE
  2
VIEW
  5
6
330
0
100
AcDbSymbolTable
 70
     0
  0
ENDTAB
  0
TABLE
  2
UCS
  5
7
330
0
100
AcDbSymbolTable
 70
     0
  0
ENDTAB
  0
TABLE
  2
APPID
  5
9
330
0
100
AcDbSymbolTable
 70
     2
  0
APPID
  5
12
330
9
100
AcDbSymbolTableRecord
100
AcDbRegAppTableRecord
  2
ACAD
 70
     0
  0
APPID
  5
23A
330
9
100
AcDbSymbolTableRecord
100
AcDbRegAppTableRecord
  2
ACAD_MLEADERVER
 70
     0
  0
ENDTAB
  0
TABLE
  2
DIMSTYLE
  5
A
330
0
100
AcDbSymbolTable
 70
     1
  0
DIMSTYLE
105
27
330
A
100
AcDbSymbolTableRecord
100
AcDbDimStyleTableRecord
  2
STANDARD
 70
     0
  3

  4

  5

  6

  7

 40
1.0
 41
0.18
 42
0.0625
 43
0.38
 44
0.18
 45
0.0
 46
0.0
 47
0.0
 48
0.0
140
0.18
141
0.09
142
0.0
143
25.4
144
1.0
145
0.0
146
1.0
147
0.09
 71
     0
 72
     0
 73
     1
 74
     1
 75
     0
 76
     0
 77
     0
 78
     0
170
     0
171
     2
172
     0
173
     0
174
     0
175
     0
176
     0
177
     0
178
     0
270
     2
271
     4
272
     4
273
     2
274
     2
340
11
275
     0
280
     0
281
     0
282
     0
283
     1
284
     0
285
     0
286
     0
287
     3
288
     0
  0
ENDTAB
  0
TABLE
  2
BLOCK_RECORD
  5
1
330
0
100
AcDbSymbolTable
 70
     1
  0
BLOCK_RECORD
  5
1F
330
1
100
AcDbSymbolTableRecord
100
AcDbBlockTableRecord
  2
*MODEL_SPACE
  0
BLOCK_RECORD
  5
1B
330
1
100
AcDbSymbolTableRecord
100
AcDbBlockTableRecord
  2
*PAPER_SPACE
  0
ENDTAB
  0
ENDSEC
  0
SECTION
  2
BLOCKS
  0
BLOCK
  5
20
330
1F
100
AcDbEntity
  8
0
100
AcDbBlockBegin
  2
*MODEL_SPACE
 70
     0
 10
0.0
 20
0.0
 30
0.0
  3
*MODEL_SPACE
  1

  0
ENDBLK
  5
21
330
1F
100
AcDbEntity
  8
0
100
AcDbBlockEnd
  0
BLOCK
  5
1C
330
1B
100
AcDbEntity
 67
     1
  8
0
100
AcDbBlockBegin
  2
*PAPER_SPACE
 70
     0
 10
0.0
 20
0.0
 30
0.0
  3
*PAPER_SPACE
  1

  0
ENDBLK
  5
1D
330
1B
100
AcDbEntity
 67
     1
  8
0
100
AcDbBlockEnd
  0
ENDSEC
  0
SECTION
  2
ENTITIES
  0
LINE
  5
A2
330
1F
100
AcDbEntity
  8
SKARN_FSET7
100
AcDbLine
 10
0.5415812053252012
 20
128.2371327229775
 30
0.0
 11
2.554706917959265
 21
128.6115477751009
 31
0.0
  0
LINE
  5
A3
330
1F
100
AcDbEntity
  8
SKARN_FSET7
100
AcDbLine
 10
0.5362689784960821
 20
133.2917359350249
 30
0.0
 11
2.183497038087808
 21
133.4789434615523
 31
0.0
  0
LINE
  5
A4
330
1F
100
AcDbEntity
  8
SKARN_FSET7
100
AcDbLine
 10
0.5238737821346149
 20
145.0858100974001
 30
0.0
 11
2.720046695671044
 21
145.4602251504548
 31
0.0
  0
LINE
  5
A5
330
1F
100
AcDbEntity
  8
SKARN_FSET7
100
AcDbLine
 10
0.8716705132974312
 20
162.4961100518703
 30
0.0
 11
3.434134577983059
 21
162.6833175783977
 31
0.0
  0
LINE
  5
A6
330
1F
100
AcDbEntity
  8
SKARN_FSET7
100
AcDbLine
 10
0.7836678838357329
 20
594.5710809528828
 30
0.0
 11
2.247848742408678
 21
594.7582884789445
 31
0.0
  0
LINE
  5
A7
330
1F
100
AcDbEntity
  8
SKARN_FSET7
100
AcDbLine
 10
1.712732089683414
 20
233.0733474995941
 30
0.0
 11
3.35996014950797
 21
233.2605550256558
 31
0.0
  0
LINE
  5
A8
330
1F
100
AcDbEntity
  8
SKARN_FSET7
100
AcDbLine
 10
3.669123553787358
 20
113.2605306119658
 30
0.0
 11
5.68205251719337
 21
113.8221531910822
 31
0.0
  0
LINE
  5
A9
330
1F
100
AcDbEntity
  8
SKARN_FSET7
100
AcDbLine
 10
3.935592393274419
 20
33.88453942397609
 30
0.0
 11
5.399773251847364
 21
34.07174695003778
 31
0.0
  0
LINE
  5
AA
330
1F
100
AcDbEntity
  8
SKARN_FSET7
100
AcDbLine
 10
4.05621435365174
 20
441.6225318945944
 30
0.0
 11
5.5203952123411
 21
441.8097394211218
 31
0.0
  0
LINE
  5
AB
330
1F
100
AcDbEntity
  8
SKARN_FSET7
100
AcDbLine
 10
4.665238191490062
 20
558.8144434127025
 30
0.0
 11
7.593403159640729
 21
559.3760659918189
 31
0.0
  0
LINE
  5
AC
330
1F
100
AcDbEntity
  8
SKARN_FSET7
100
AcDbLine
 10
4.841399172437377
 20
565.366706836503
 30
0.0
 11
6.305383281898685
 21
565.741121889092
 31
0.0
  0
LINE
  5
AD
330
1F
100
AcDbEntity
  8
SKARN_FSET7
100
AcDbLine
 10
5.176013710792176
 20
595.3199110580608
 30
0.0
 11
6.640194569481537
 21
595.5071185845882
 31
0.0
  0
LINE
  5
AE
330
1F
100
AcDbEntity
  8
SKARN_FSET7
100
AcDbLine
 10
6.106792898266576
 20
580.5305164735764
 30
0.0
 11
7.936871409765445
 21
580.9049315261655
 31
0.0
  0
LINE
  5
AF
330
1F
100
AcDbEntity
  8
SKARN_FSET7
100
AcDbLine
 10
9.297350734705105
 20
157.25429931283
 30
0.0
 11
10.94457879441325
 21
157.4415068388917
 31
0.0
  0
LINE
  5
B0
330
1F
100
AcDbEntity
  8
SKARN_FSET7
100
AcDbLine
 10
9.156155341188423
 20
465.7723027984612
 30
0.0
 11
11.35232825484127
 21
466.1467178515159
 31
0.0
  0
LINE
  5
B1
330
1F
100
AcDbEntity
  8
SKARN_FSET7
100
AcDbLine
 10
9.034957866417244
 20
581.0921390526928
 30
0.0
 11
10.68198917724658
 21
581.4665541057475
 31
0.0
  0
LINE
  5
B2
330
1F
100
AcDbEntity
  8
SKARN_FSET7
100
AcDbLine
 10
9.90054259239696
 20
454.1654361626133
 30
0.0
 11
11.73062110389583
 21
454.539851215668
 31
0.0
  0
LINE
  5
B3
330
1F
100
AcDbEntity
  8
SKARN_FSET7
100
AcDbLine
 10
11.22410357173067
 20
239.8128184494562
 30
0.0
 11
12.68848117953166
 21
239.8128184494562
 31
0.0
  0
LINE
  5
B4
330
1F
100
AcDbEntity
  8
SKARN_FSET7
100
AcDbLine
 10
11.07850920269266
 20
378.3463879758492
 30
0.0
 11
12.72573726251721
 21
378.5335955023766
 31
0.0
  0
LINE
  5
B5
330
1F
100
AcDbEntity
  8
SKARN_FSET7
100
AcDbLine
 10
12.67588923417497
 20
251.7941001383588
 30
0.0
 11
14.87206214759499
 21
252.1685151909478
 31
0.0
  0
LINE
  5
B6
330
1F
100
AcDbEntity
  8
SKARN_FSET7
100
AcDbLine
 10
16.43114658945706
 20
336.2246945388615
 30
0.0
 11
17.89513069891836
 21
336.5991095914505
 31
0.0
  0
LINE
  5
B7
330
1F
100
AcDbEntity
  8
SKARN_FSET7
100
AcDbLine
 10
16.94086786883418
 20
199.563200276345
 30
0.0
 11
18.58809592854232
 21
199.7504078028724
 31
0.0
  0
LINE
  5
B8
330
1F
100
AcDbEntity
  8
SKARN_FSET7
100
AcDbLine
 10
20.37640785996336
 20
588.2060250556096
 30
0.0
 11
21.84058871876914
 21
588.393232582137
 31
0.0
  0
LINE
  5
B9
330
1F
100
AcDbEntity
  8
SKARN_FSET7
100
AcDbLine
 10
23.37670927122235
 20
345.9594859108329
 30
0.0
 11
25.38963823451195
 21
346.5211084904149
 31
0.0
  0
LINE
  5
BA
330
1F
100
AcDbEntity
  8
SKARN_FSET7
100
AcDbLine
 10
25.01456386595964
 20
529.2356542437337
 30
0.0
 11
26.66179192555137
 21
529.4228617702611
 31
0.0
  0
LINE
  5
BB
330
1F
100
AcDbEntity
  8
SKARN_FSET7
100
AcDbLine
 10
26.14064446242992
 20
154.4461864172481
 30
0.0
 11
27.60482532123569
 21
154.6333939437754
 31
0.0
  0
LINE
  5
BC
330
1F
100
AcDbEntity
  8
SKARN_FSET7
100
AcDbLine
 10
27.77436732524075
 20
341.6537128039636
 30
0.0
 11
29.42159538483247
 21
341.8409203304909
 31
0.0
  0
LINE
  5
BD
330
1F
100
AcDbEntity
  8
SKARN_FSET7
100
AcDbLine
 10
28.43408194871154
 20
236.443082974758
 30
0.0
 11
29.89806605840567
 21
236.8174980268814
 31
0.0
  0
LINE
  5
BE
330
1F
100
AcDbEntity
  8
SKARN_FSET7
100
AcDbLine
 10
28.90287940553389
 20
138.7207542005926
 30
0.0
 11
31.09905231907032
 21
139.0951692531817
 31
0.0
  0
LINE
  5
BF
330
1F
100
AcDbEntity
  8
SKARN_FSET7
100
AcDbLine
 10
28.84424815967213
 20
194.508597063832
 30
0.0
 11
30.674326671171
 21
194.883012116421
 31
0.0
  0
LINE
  5
C0
330
1F
100
AcDbEntity
  8
SKARN_FSET7
100
AcDbLine
 10
30.88210850395262
 20
519.688070397824
 30
0.0
 11
33.44437581929378
 21
520.0624854508787
 31
0.0
  0
LINE
  5
C1
330
1F
100
AcDbEntity
  8
SKARN_FSET7
100
AcDbLine
 10
32.71499726432376
 20
169.0483734752052
 30
0.0
 11
34.72812297707424
 21
169.4227885277942
 31
0.0
  0
LINE
  5
C2
330
1F
100
AcDbEntity
  8
SKARN_FSET7
100
AcDbLine
 10
32.74897910596337
 20
485.0546780163422
 30
0.0
 11
34.39601041667629
 21
485.4290930689313
 31
0.0
  0
LINE
  5
C3
330
1F
100
AcDbEntity
  8
SKARN_FSET7
100
AcDbLine
 10
33.02469515521079
 20
396.8799330880865
 30
0.0
 11
34.48887601401657
 21
397.0671406141482
 31
0.0
  0
LINE
  5
C4
330
1F
100
AcDbEntity
  8
SKARN_FSET7
100
AcDbLine
 10
34.12146012892481
 20
49.98438669322059
 30
0.0
 11
35.58544423861895
 21
50.35880174580961
 31
0.0
  0
LINE
  5
C5
330
1F
100
AcDbEntity
  8
SKARN_FSET7
100
AcDbLine
 10
35.15698035690002
 20
109.7035876102746
 30
0.0
 11
38.26838927529752
 21
110.0780026633292
 31
0.0
  0
LINE
  5
C6
330
1F
100
AcDbEntity
  8
SKARN_FSET7
100
AcDbLine
 10
35.08307317167055
 20
354.1966170719825
 30
0.0
 11
37.09600213507656
 21
354.7582396506332
 31
0.0
  0
LINE
  5
C7
330
1F
100
AcDbEntity
  8
SKARN_FSET7
100
AcDbLine
 10
35.73760182328988
 20
79.75038338871673
 30
0.0
 11
37.20158593298402
 21
80.12479844130576
 31
0.0
  0
LINE
  5
C8
330
1F
100
AcDbEntity
  8
SKARN_FSET7
100
AcDbLine
 10
38.43793127918616
 20
297.0983215235174
 30
0.0
 11
40.26800979091786
 21
297.4727365765721
 31
0.0
  0
LINE
  5
C9
330
1F
100
AcDbEntity
  8
SKARN_FSET7
100
AcDbLine
 10
38.81071515229996
 20
290.7332656271756
 30
0.0
 11
40.45794321189169
 21
290.9204731527716
 31
0.0
  0
LINE
  5
CA
330
1F
100
AcDbEntity
  8
SKARN_FSET7
100
AcDbLine
 10
39.32791289931629
 20
146.9578853612766
 30
0.0
 11
40.7918970087776
 21
147.3323004143313
 31
0.0
  0
LINE
  5
CB
330
1F
100
AcDbEntity
  8
SKARN_FSET7
100
AcDbLine
 10
39.33919809467625
 20
310.3900558976457
 30
0.0
 11
40.80318220437039
 21
310.764470949769
 31
0.0
  0
LINE
  5
CC
330
1F
100
AcDbEntity
  8
SKARN_FSET7
100
AcDbLine
 10
39.14835142204538
 20
491.9813564927317
 30
0.0
 11
40.97862668265589
 21
492.1685640192591
 31
0.0
  0
LINE
  5
CD
330
1F
100
AcDbEntity
  8
SKARN_FSET7
100
AcDbLine
 10
39.65885969798546
 20
354.5710321250372
 30
0.0
 11
41.48913495871238
 21
354.7582396506332
 31
0.0
  0
LINE
  5
CE
330
1F
100
AcDbEntity
  8
SKARN_FSET7
100
AcDbLine
 10
41.89654668152798
 20
315.444659109693
 30
0.0
 11
43.54377474123612
 21
315.6318666362204
 31
0.0
  0
LINE
  5
CF
330
1F
100
AcDbEntity
  8
SKARN_FSET7
100
AcDbLine
 10
41.92967103235424
 20
458.0967942168936
 30
0.0
 11
44.30889114690945
 21
458.4712092694826
 31
0.0
  0
LINE
  5
D0
330
1F
100
AcDbEntity
  8
SKARN_FSET7
100
AcDbLine
 10
41.81732726946939
 20
564.9922917834483
 30
0.0
 11
43.46435857994948
 21
565.366706836503
 31
0.0
  0
LINE
  5
D1
330
1F
100
AcDbEntity
  8
SKARN_FSET7
100
AcDbLine
 10
42.52556843822822
 20
239.4384033964016
 30
0.0
 11
44.17279649781995
 21
239.6256109229289
 31
0.0
  0
LINE
  5
D2
330
1F
100
AcDbEntity
  8
SKARN_FSET7
100
AcDbLine
 10
42.28258324158378
 20
470.6396984849125
 30
0.0
 11
45.02770100883208
 21
471.2013210635632
 31
0.0
  0
LINE
  5
D3
330
1F
100
AcDbEntity
  8
SKARN_FSET7
100
AcDbLine
 10
42.43552782293409
 20
499.2824500217102
 30
0.0
 11
44.08255913353059
 21
499.6568650747649
 31
0.0
  0
LINE
  5
D4
330
1F
100
AcDbEntity
  8
SKARN_FSET7
100
AcDbLine
 10
46.36247668974102
 20
246.1778743467294
 30
0.0
 11
47.82665754831396
 21
246.3650818732567
 31
0.0
  0
LINE
  5
D5
330
1F
100
AcDbEntity
  8
SKARN_FSET7
100
AcDbLine
 10
46.59294043492991
 20
201.0608604871668
 30
0.0
 11
49.70434935356025
 21
201.4352755402215
 31
0.0
  0
LINE
  5
D6
330
1F
100
AcDbEntity
  8
SKARN_FSET7
100
AcDbLine
 10
47.93631731742062
 20
316.1934892153367
 30
0.0
 11
49.40030142699834
 21
316.5679042679258
 31
0.0
  0
LINE
  5
D7
330
1F
100
AcDbEntity
  8
SKARN_FSET7
100
AcDbLine
 10
48.32864985009655
 20
465.3978877458721
 30
0.0
 11
49.79263395967428
 21
465.7723027984612
 31
0.0
  0
LINE
  5
D8
330
1F
100
AcDbEntity
  8
SKARN_FSET7
100
AcDbLine
 10
48.97918775805738
 20
543.0890111960471
 30
0.0
 11
50.62641581776552
 21
543.2762187225744
 31
0.0
  0
LINE
  5
D9
330
1F
100
AcDbEntity
  8
SKARN_FSET7
100
AcDbLine
 10
49.72107303095981
 20
185.5226357970387
 30
0.0
 11
51.55134829168674
 21
185.709843323566
 31
0.0
  0
LINE
  5
DA
330
1F
100
AcDbEntity
  8
SKARN_FSET7
100
AcDbLine
 10
49.60597477981355
 20
295.0390387335792
 30
0.0
 11
51.25300609052647
 21
295.4134537861682
 31
0.0
  0
LINE
  5
DB
330
1F
100
AcDbEntity
  8
SKARN_FSET7
100
AcDbLine
 10
49.90182973642368
 20
361.8721256540157
 30
0.0
 11
51.36601059499662
 21
362.0593331800774
 31
0.0
  0
LINE
  5
DC
330
1F
100
AcDbEntity
  8
SKARN_FSET7
100
AcDbLine
 10
50.0506425856147
 20
394.4462352450937
 30
0.0
 11
52.06376829824876
 21
394.8206502976827
 31
0.0
  0
LINE
  5
DD
330
1F
100
AcDbEntity
  8
SKARN_FSET7
100
AcDbLine
 10
50.68982480384875
 20
134.6021886202507
 30
0.0
 11
52.7029505163664
 21
134.976603672374
 31
0.0
  0
LINE
  5
DE
330
1F
100
AcDbEntity
  8
SKARN_FSET7
100
AcDbLine
 10
50.64181801199447
 20
180.280825058464
 30
0.0
 11
52.28904607181903
 21
180.4680325849913
 31
0.0
  0
LINE
  5
DF
330
1F
100
AcDbEntity
  8
SKARN_FSET7
100
AcDbLine
 10
51.43986201949883
 20
465.9595103249885
 30
0.0
 11
53.45318448112812
 21
466.1467178515159
 31
0.0
  0
LINE
  5
E0
330
1F
100
AcDbEntity
  8
SKARN_FSET7
100
AcDbLine
 10
53.04419876507018
 20
506.9579586037435
 30
0.0
 11
55.78951328154653
 21
507.3323736563325
 31
0.0
  0
LINE
  5
E1
330
1F
100
AcDbEntity
  8
SKARN_FSET7
100
AcDbLine
 10
55.49975754867774
 20
434.6958534186706
 30
0.0
 11
56.9639384073671
 21
434.8830609447323
 31
0.0
  0
LINE
  5
E2
330
1F
100
AcDbEntity
  8
SKARN_FSET7
100
AcDbLine
 10
56.73288441449404
 20
480.5616973829456
 30
0.0
 11
58.1970652731834
 21
480.7489049094729
 31
0.0
  0
LINE
  5
E3
330
1F
100
AcDbEntity
  8
SKARN_FSET7
100
AcDbLine
 10
58.76843952969648
 20
459.5944544277154
 30
0.0
 11
60.41547084029298
 21
459.9688694807701
 31
0.0
  0
LINE
  5
E4
330
1F
100
AcDbEntity
  8
SKARN_FSET7
100
AcDbLine
 10
59.7019732054323
 20
442.1841544737108
 30
0.0
 11
61.5322484660428
 21
442.3713620002382
 31
0.0
  0
LINE
  5
E5
330
1F
100
AcDbEntity
  8
SKARN_FSET7
100
AcDbLine
 10
60.57483764947392
 20
308.3307731072418
 30
0.0
 11
62.22206570918206
 21
308.5179806333035
 31
0.0
  0
LINE
  5
E6
330
1F
100
AcDbEntity
  8
SKARN_FSET7
100
AcDbLine
 10
61.4822741827229
 20
489.9220737023279
 30
0.0
 11
63.12930549331941
 21
490.2964887553826
 31
0.0
  0
LINE
  5
E7
330
1F
100
AcDbEntity
  8
SKARN_FSET7
100
AcDbLine
 10
65.46792478929274
 20
355.1326547036879
 30
0.0
 11
67.2980033007916
 21
355.5070697567426
 31
0.0
  0
LINE
  5
E8
330
1F
100
AcDbEntity
  8
SKARN_FSET7
100
AcDbLine
 10
65.29242454993073
 20
522.1217682412826
 30
0.0
 11
66.93945586052723
 21
522.4961832938716
 31
0.0
  0
LINE
  5
E9
330
1F
100
AcDbEntity
  8
SKARN_FSET7
100
AcDbLine
 10
66.84022379643284
 20
442.7457770532928
 30
0.0
 11
69.58534156356473
 21
443.3073996319436
 31
0.0
  0
LINE
  5
EA
330
1F
100
AcDbEntity
  8
SKARN_FSET7
100
AcDbLine
 10
67.7619525231421
 20
436.5679286820814
 30
0.0
 11
69.5922277837526
 21
436.7551362081431
 31
0.0
  0
LINE
  5
EB
330
1F
100
AcDbEntity
  8
SKARN_FSET7
100
AcDbLine
 10
68.38145982660353
 20
195.4446346955374
 30
0.0
 11
70.39478228834923
 21
195.6318422220647
 31
0.0
  0
LINE
  5
EC
330
1F
100
AcDbEntity
  8
SKARN_FSET7
100
AcDbLine
 10
68.17356647213455
 20
567.4259896264412
 30
0.0
 11
69.63774733082391
 21
567.6131971529685
 31
0.0
  0
LINE
  5
ED
330
1F
100
AcDbEntity
  8
SKARN_FSET7
100
AcDbLine
 10
69.25884950114414
 20
57.28548022219911
 30
0.0
 11
71.08892801264301
 21
57.65989527478814
 31
0.0
  0
LINE
  5
EE
330
1F
100
AcDbEntity
  8
SKARN_FSET7
100
AcDbLine
 10
69.48643250355963
 20
189.0795787982643
 30
0.0
 11
70.95061336213257
 21
189.2667863247916
 31
0.0
  0
LINE
  5
EF
330
1F
100
AcDbEntity
  8
SKARN_FSET7
100
AcDbLine
 10
69.42787175171543
 20
418.9704212015495
 30
0.0
 11
71.44119421346113
 21
419.1576287280768
 31
0.0
  0
LINE
  5
F0
330
1F
100
AcDbEntity
  8
SKARN_FSET7
100
AcDbLine
 10
69.92040536121931
 20
124.4929821952246
 30
0.0
 11
71.5674366716994
 21
124.8673972478136
 31
0.0
  0
LINE
  5
F1
330
1F
100
AcDbEntity
  8
SKARN_FSET7
100
AcDbLine
 10
70.52996368566528
 20
589.5164777403697
 30
0.0
 11
72.17699499614537
 21
589.8908927929588
 31
0.0
  0
LINE
  5
F2
330
1F
100
AcDbEntity
  8
SKARN_FSET7
100
AcDbLine
 10
71.85214742098469
 20
376.4743127119727
 30
0.0
 11
73.49937548069283
 21
376.6615202380344
 31
0.0
  0
LINE
  5
F3
330
1F
100
AcDbEntity
  8
SKARN_FSET7
100
AcDbLine
 10
73.16088172013406
 20
2.059259938076138
 30
0.0
 11
74.80791303061415
 21
2.433674991130829
 31
0.0
  0
LINE
  5
F4
330
1F
100
AcDbEntity
  8
SKARN_FSET7
100
AcDbLine
 10
73.62549168395344
 20
256.6614958238788
 30
0.0
 11
76.00451504939701
 21
257.2231184034608
 31
0.0
  0
LINE
  5
F5
330
1F
100
AcDbEntity
  8
SKARN_FSET7
100
AcDbLine
 10
75.06186041876208
 20
109.1419650311582
 30
0.0
 11
76.89193893037736
 21
109.5163800842129
 31
0.0
  0
LINE
  5
F6
330
1F
100
AcDbEntity
  8
SKARN_FSET7
100
AcDbLine
 10
75.05275419726968
 20
466.1467178515159
 30
0.0
 11
76.51693505584262
 21
466.3339253780432
 31
0.0
  0
LINE
  5
F7
330
1F
100
AcDbEntity
  8
SKARN_FSET7
100
AcDbLine
 10
75.73581147519872
 20
164.5553928418085
 30
0.0
 11
77.19999233400449
 21
164.7426003678702
 31
0.0
  0
LINE
  5
F8
330
1F
100
AcDbEntity
  8
SKARN_FSET7
100
AcDbLine
 10
76.97713131108321
 20
28.45552115887403
 30
0.0
 11
78.99045377282891
 21
28.64272868447006
 31
0.0
  0
LINE
  5
F9
330
1F
100
AcDbEntity
  8
SKARN_FSET7
100
AcDbLine
 10
76.95759738469496
 20
395.3822728767991
 30
0.0
 11
78.60462869517505
 21
395.7566879298538
 31
0.0
  0
LINE
  5
FA
330
1F
100
AcDbEntity
  8
SKARN_FSET7
100
AcDbLine
 10
78.04296564101242
 20
581.8409691583365
 30
0.0
 11
79.69019370072056
 21
582.0281766848639
 31
0.0
  0
LINE
  5
FB
330
1F
100
AcDbEntity
  8
SKARN_FSET7
100
AcDbLine
 10
81.88144788553473
 20
587.0827798973769
 30
0.0
 11
83.7115263970336
 21
587.4571949499659
 31
0.0
  0
LINE
  5
FC
330
1F
100
AcDbEntity
  8
SKARN_FSET7
100
AcDbLine
 10
82.38920167344622
 20
452.2933608987369
 30
0.0
 11
84.40252413507551
 21
452.4805684252642
 31
0.0
  0
LINE
  5
FD
330
1F
100
AcDbEntity
  8
SKARN_FSET7
100
AcDbLine
 10
84.02605778921861
 20
114.0093607176095
 30
0.0
 11
86.77137230569497
 21
114.3837757701986
 31
0.0
  0
LINE
  5
FE
330
1F
100
AcDbEntity
  8
SKARN_FSET7
100
AcDbLine
 10
84.80941610469017
 20
587.8316100030206
 30
0.0
 11
86.27359696349595
 21
588.018817529548
 31
0.0
  0
LINE
  5
FF
330
1F
100
AcDbEntity
  8
SKARN_FSET7
100
AcDbLine
 10
85.1136607802473
 20
472.5117737483233
 30
0.0
 11
86.94373929186258
 21
472.8861888009124
 31
0.0
  0
LINE
  5
100
330
1F
100
AcDbEntity
  8
SKARN_FSET7
100
AcDbLine
 10
85.91320828674361
 20
582.5897992644459
 30
0.0
 11
87.37738914543297
 21
582.7770067900419
 31
0.0
  0
LINE
  5
101
330
1F
100
AcDbEntity
  8
SKARN_FSET7
100
AcDbLine
 10
88.21115627023391
 20
137.7847165684216
 30
0.0
 11
91.13951798772905
 21
138.1591316214763
 31
0.0
  0
LINE
  5
102
330
1F
100
AcDbEntity
  8
SKARN_FSET7
100
AcDbLine
 10
89.90594186261296
 20
441.0609093154781
 30
0.0
 11
91.5531699223211
 21
441.2481168415397
 31
0.0
  0
LINE
  5
103
330
1F
100
AcDbEntity
  8
SKARN_FSET7
100
AcDbLine
 10
90.1230971601326
 20
582.7770067900419
 30
0.0
 11
91.58727801882196
 21
582.9642143165693
 31
0.0
  0
LINE
  5
104
330
1F
100
AcDbEntity
  8
SKARN_FSET7
100
AcDbLine
 10
91.08986670838203
 20
11.23242873093113
 30
0.0
 11
93.10318917012773
 21
11.41963625745848
 31
0.0
  0
LINE
  5
105
330
1F
100
AcDbEntity
  8
SKARN_FSET7
100
AcDbLine
 10
91.0359016811708
 20
410.9204975669272
 30
0.0
 11
92.68312974099535
 21
411.1077050934546
 31
0.0
  0
LINE
  5
106
330
1F
100
AcDbEntity
  8
SKARN_FSET7
100
AcDbLine
 10
93.29929230886046
 20
173.1669390555471
 30
0.0
 11
94.76347316766623
 21
173.3541465820745
 31
0.0
  0
LINE
  5
107
330
1F
100
AcDbEntity
  8
SKARN_FSET7
100
AcDbLine
 10
93.94399823644198
 20
430.577287837863
 30
0.0
 11
95.7742734971689
 21
430.7644953639247
 31
0.0
  0
LINE
  5
108
330
1F
100
AcDbEntity
  8
SKARN_FSET7
100
AcDbLine
 10
96.58850669546518
 20
352.698956860695
 30
0.0
 11
98.23553800606169
 21
353.0733719132841
 31
0.0
  0
LINE
  5
109
330
1F
100
AcDbEntity
  8
SKARN_FSET7
100
AcDbLine
 10
97.68782940797973
 20
3.369712622370571
 30
0.0
 11
100.7992383263772
 21
3.744127675425261
 31
0.0
  0
LINE
  5
10A
330
1F
100
AcDbEntity
  8
SKARN_FSET7
100
AcDbLine
 10
97.94492478237953
 20
107.0826822407544
 30
0.0
 11
99.59195609309245
 21
107.4570972938091
 31
0.0
  0
LINE
  5
10B
330
1F
100
AcDbEntity
  8
SKARN_FSET7
100
AcDbLine
 10
98.55408960848581
 20
572.4805928394198
 30
0.0
 11
100.0182704672916
 21
572.6678003654815
 31
0.0
  0
LINE
  5
10C
330
1F
100
AcDbEntity
  8
SKARN_FSET7
100
AcDbLine
 10
99.91437218419742
 20
149.0171681516804
 30
0.0
 11
102.2935922987526
 21
149.3915832042694
 31
0.0
  0
LINE
  5
10D
330
1F
100
AcDbEntity
  8
SKARN_FSET7
100
AcDbLine
 10
100.9572426247178
 20
375.9126901328564
 30
0.0
 11
102.787321136333
 21
376.2871051859111
 31
0.0
  0
LINE
  5
10E
330
1F
100
AcDbEntity
  8
SKARN_FSET7
100
AcDbLine
 10
105.741512752953
 20
3.744127675425261
 30
0.0
 11
107.3885440634331
 21
4.118542728479952
 31
0.0
  0
LINE
  5
10F
330
1F
100
AcDbEntity
  8
SKARN_FSET7
100
AcDbLine
 10
105.7129283657996
 20
379.2824256075546
 30
0.0
 11
107.7260540782008
 21
379.6568406606093
 31
0.0
  0
LINE
  5
110
330
1F
100
AcDbEntity
  8
SKARN_FSET7
100
AcDbLine
 10
106.5503779634601
 20
279.1263989903964
 30
0.0
 11
108.1976060231682
 21
279.3136065169238
 31
0.0
  0
LINE
  5
111
330
1F
100
AcDbEntity
  8
SKARN_FSET7
100
AcDbLine
 10
107.0058669723803
 20
368.2371815508232
 30
0.0
 11
108.4698510818416
 21
368.6115966034122
 31
0.0
  0
LINE
  5
112
330
1F
100
AcDbEntity
  8
SKARN_FSET7
100
AcDbLine
 10
108.0455189323984
 20
424.0250244145282
 30
0.0
 11
110.4249357960653
 21
424.2122319405898
 31
0.0
  0
LINE
  5
113
330
1F
100
AcDbEntity
  8
SKARN_FSET7
100
AcDbLine
 10
108.6431870806264
 20
203.681765856687
 30
0.0
 11
110.8393599940464
 21
204.0561809097417
 31
0.0
  0
LINE
  5
114
330
1F
100
AcDbEntity
  8
SKARN_FSET7
100
AcDbLine
 10
108.5373360394733
 20
304.3994150529616
 30
0.0
 11
111.6485482086428
 21
304.9610376320779
 31
0.0
  0
LINE
  5
115
330
1F
100
AcDbEntity
  8
SKARN_FSET7
100
AcDbLine
 10
108.8080775991548
 20
569.2980648903176
 30
0.0
 11
110.4551089096349
 21
569.6724799433723
 31
0.0
  0
LINE
  5
116
330
1F
100
AcDbEntity
  8
SKARN_FSET7
100
AcDbLine
 10
109.4586712679593
 20
298.5959817352705
 30
0.0
 11
111.2889465285698
 21
298.7831892613322
 31
0.0
  0
LINE
  5
117
330
1F
100
AcDbEntity
  8
SKARN_FSET7
100
AcDbLine
 10
111.014073236729
 20
37.81589747779071
 30
0.0
 11
112.8443484974559
 21
38.00310500431806
 31
0.0
  0
LINE
  5
118
330
1F
100
AcDbEntity
  8
SKARN_FSET7
100
AcDbLine
 10
111.730072849663
 20
401.5601212480105
 30
0.0
 11
113.1942537084688
 21
401.7473287740722
 31
0.0
  0
LINE
  5
119
330
1F
100
AcDbEntity
  8
SKARN_FSET7
100
AcDbLine
 10
113.0075240345905
 20
56.91106516914442
 30
0.0
 11
114.654555345187
 21
57.28548022219911
 31
0.0
  0
LINE
  5
11A
330
1F
100
AcDbEntity
  8
SKARN_FSET7
100
AcDbLine
 10
113.0655797661748
 20
524.1810510312207
 30
0.0
 11
115.9939414836699
 21
524.5554660838097
 31
0.0
  0
LINE
  5
11B
330
1F
100
AcDbEntity
  8
SKARN_FSET7
100
AcDbLine
 10
113.4657117705792
 20
491.7941489662044
 30
0.0
 11
115.1129398304038
 21
491.9813564927317
 31
0.0
  0
LINE
  5
11C
330
1F
100
AcDbEntity
  8
SKARN_FSET7
100
AcDbLine
 10
114.7286035186844
 20
160.9984498405829
 30
0.0
 11
116.1925876281457
 21
161.3728648931719
 31
0.0
  0
LINE
  5
11D
330
1F
100
AcDbEntity
  8
SKARN_FSET7
100
AcDbLine
 10
114.6461656258907
 20
239.4384033964016
 30
0.0
 11
116.4764408866176
 21
239.6256109229289
 31
0.0
  0
LINE
  5
11E
330
1F
100
AcDbEntity
  8
SKARN_FSET7
100
AcDbLine
 10
117.2420065513579
 20
33.69733189744875
 30
0.0
 11
118.7061874102801
 21
33.88453942397609
 31
0.0
  0
LINE
  5
11F
330
1F
100
AcDbEntity
  8
SKARN_FSET7
100
AcDbLine
 10
118.2517526411684
 20
117.9407187714241
 30
0.0
 11
119.7159334998578
 21
118.1279262979515
 31
0.0
  0
LINE
  5
120
330
1F
100
AcDbEntity
  8
SKARN_FSET7
100
AcDbLine
 10
119.5636496599764
 20
263.0265517211519
 30
0.0
 11
121.2108777196845
 21
263.2137592476793
 31
0.0
  0
LINE
  5
121
330
1F
100
AcDbEntity
  8
SKARN_FSET7
100
AcDbLine
 10
119.8606851112563
 20
328.73639348289
 30
0.0
 11
121.3248659699457
 21
328.9236010094173
 31
0.0
  0
LINE
  5
122
330
1F
100
AcDbEntity
  8
SKARN_FSET7
100
AcDbLine
 10
122.481386923464
 20
273.5101731992327
 30
0.0
 11
124.1284182339441
 21
273.8845882518217
 31
0.0
  0
LINE
  5
123
330
1F
100
AcDbEntity
  8
SKARN_FSET7
100
AcDbLine
 10
123.4814218108077
 20
192.8237293260172
 30
0.0
 11
125.1286498705158
 21
193.0109368525445
 31
0.0
  0
LINE
  5
124
330
1F
100
AcDbEntity
  8
SKARN_FSET7
100
AcDbLine
 10
123.43636625621
 20
235.6942528691143
 30
0.0
 11
125.63253916963
 21
236.0686679217033
 31
0.0
  0
LINE
  5
125
330
1F
100
AcDbEntity
  8
SKARN_FSET7
100
AcDbLine
 10
123.2551602915628
 20
408.1123846713454
 30
0.0
 11
124.7191444011405
 21
408.4867997244
 31
0.0
  0
LINE
  5
126
330
1F
100
AcDbEntity
  8
SKARN_FSET7
100
AcDbLine
 10
123.8256770573789
 20
213.6037647551857
 30
0.0
 11
126.7538420258788
 21
214.1653873347677
 31
0.0
  0
LINE
  5
127
330
1F
100
AcDbEntity
  8
SKARN_FSET7
100
AcDbLine
 10
124.241296483553
 20
514.8206747118384
 30
0.0
 11
126.2544221961871
 21
515.1950897644274
 31
0.0
  0
LINE
  5
128
330
1F
100
AcDbEntity
  8
SKARN_FSET7
100
AcDbLine
 10
124.9044263369869
 20
580.5305164735764
 30
0.0
 11
126.9175520493882
 21
580.9049315261655
 31
0.0
  0
LINE
  5
129
330
1F
100
AcDbEntity
  8
SKARN_FSET7
100
AcDbLine
 10
126.7513547809795
 20
390.7020847178064
 30
0.0
 11
128.7646772427252
 21
390.8892922434025
 31
0.0
  0
LINE
  5
12A
330
1F
100
AcDbEntity
  8
SKARN_FSET7
100
AcDbLine
 10
127.0764548662119
 20
255.5382506661117
 30
0.0
 11
128.5406357249012
 21
255.7254581921734
 31
0.0
  0
LINE
  5
12B
330
1F
100
AcDbEntity
  8
SKARN_FSET7
100
AcDbLine
 10
127.0091666579247
 20
319.5632246905006
 30
0.0
 11
128.473347516614
 21
319.7504322165623
 31
0.0
  0
LINE
  5
12C
330
1F
100
AcDbEntity
  8
SKARN_FSET7
100
AcDbLine
 10
127.5255069140112
 20
2.433674991130829
 30
0.0
 11
128.9894910238218
 21
2.808090043254197
 31
0.0
  0
LINE
  5
12D
330
1F
100
AcDbEntity
  8
SKARN_FSET7
100
AcDbLine
 10
128.4785334885819
 20
488.9860360701568
 30
0.0
 11
130.4916592010995
 21
489.3604511232115
 31
0.0
  0
LINE
  5
12E
330
1F
100
AcDbEntity
  8
SKARN_FSET7
100
AcDbLine
 10
130.5670698854374
 20
69.26676191063598
 30
0.0
 11
132.5799988486106
 21
69.82838449021801
 31
0.0
  0
LINE
  5
12F
330
1F
100
AcDbEntity
  8
SKARN_FSET7
100
AcDbLine
 10
130.8178135261405
 20
527.3635789798573
 30
0.0
 11
133.7459784944076
 21
527.9252015589736
 31
0.0
  0
LINE
  5
130
330
1F
100
AcDbEntity
  8
SKARN_FSET7
100
AcDbLine
 10
130.7503285687417
 20
591.5757605307736
 30
0.0
 11
132.2147061765427
 21
591.5757605307736
 31
0.0
  0
LINE
  5
131
330
1F
100
AcDbEntity
  8
SKARN_FSET7
100
AcDbLine
 10
132.4334912282648
 20
383.4009911883622
 30
0.0
 11
134.2635697397636
 21
383.7754062409513
 31
0.0
  0
LINE
  5
132
330
1F
100
AcDbEntity
  8
SKARN_FSET7
100
AcDbLine
 10
133.5010110730072
 20
238.5023657646962
 30
0.0
 11
135.3312863337342
 21
238.6895732912235
 31
0.0
  0
LINE
  5
133
330
1F
100
AcDbEntity
  8
SKARN_FSET7
100
AcDbLine
 10
141.0633265702054
 20
9.734768519643694
 30
0.0
 11
142.5275074288948
 21
9.92197604617104
 31
0.0
  0
LINE
  5
134
330
1F
100
AcDbEntity
  8
SKARN_FSET7
100
AcDbLine
 10
141.7126282224199
 20
436.9423437346704
 30
0.0
 11
143.3598562820116
 21
437.1295512611978
 31
0.0
  0
LINE
  5
135
330
1F
100
AcDbEntity
  8
SKARN_FSET7
100
AcDbLine
 10
142.8338048233418
 20
589.3292702138424
 30
0.0
 11
144.4810328831663
 21
589.5164777403697
 31
0.0
  0
LINE
  5
136
330
1F
100
AcDbEntity
  8
SKARN_FSET7
100
AcDbLine
 10
146.0625319944229
 20
129.7347929337993
 30
0.0
 11
147.5267128532287
 21
129.9220004603267
 31
0.0
  0
LINE
  5
137
330
1F
100
AcDbEntity
  8
SKARN_FSET7
100
AcDbLine
 10
146.5971846545581
 20
317.6911494266242
 30
0.0
 11
148.427459915285
 21
317.8783569526859
 31
0.0
  0
LINE
  5
138
330
1F
100
AcDbEntity
  8
SKARN_FSET7
100
AcDbLine
 10
149.1707929265685
 20
133.1045284084976
 30
0.0
 11
150.6349737852579
 21
133.2917359350249
 31
0.0
  0
LINE
  5
139
330
1F
100
AcDbEntity
  8
SKARN_FSET7
100
AcDbLine
 10
150.9362672236748
 20
20.78001257637516
 30
0.0
 11
152.9493929361925
 21
21.15442762942985
 31
0.0
  0
LINE
  5
13A
330
1F
100
AcDbEntity
  8
SKARN_FSET7
100
AcDbLine
 10
151.0566219408065
 20
254.6022130344063
 30
0.0
 11
153.2527948543429
 21
254.9766280865297
 31
0.0
  0
LINE
  5
13B
330
1F
100
AcDbEntity
  8
SKARN_FSET7
100
AcDbLine
 10
151.9441163160373
 20
280.9984742542729
 30
0.0
 11
153.9572420285549
 21
281.3728893073276
 31
0.0
  0
LINE
  5
13C
330
1F
100
AcDbEntity
  8
SKARN_FSET7
100
AcDbLine
 10
153.9075907493243
 20
154.4461864172481
 30
0.0
 11
155.7376692608232
 21
154.8206014693715
 31
0.0
  0
LINE
  5
13D
330
1F
100
AcDbEntity
  8
SKARN_FSET7
100
AcDbLine
 10
154.4131802965421
 20
21.71605020854622
 30
0.0
 11
155.6941172053339
 21
22.09046526160091
 31
0.0
  0
LINE
  5
13E
330
1F
100
AcDbEntity
  8
SKARN_FSET7
100
AcDbLine
 10
155.0353305664612
 20
474.7582640647888
 30
0.0
 11
158.1467394848587
 21
475.1326791178435
 31
0.0
  0
LINE
  5
13F
330
1F
100
AcDbEntity
  8
SKARN_FSET7
100
AcDbLine
 10
157.0462215442676
 20
303.0889623682015
 30
0.0
 11
158.5104024028406
 21
303.2761698947288
 31
0.0
  0
LINE
  5
140
330
1F
100
AcDbEntity
  8
SKARN_FSET7
100
AcDbLine
 10
160.4143880995689
 20
59.15755548607558
 30
0.0
 11
161.8785689583747
 21
59.34476301213726
 31
0.0
  0
LINE
  5
141
330
1F
100
AcDbEntity
  8
SKARN_FSET7
100
AcDbLine
 10
161.9459981549298
 20
343.52578806784
 30
0.0
 11
164.1421710684663
 21
343.9002031208947
 31
0.0
  0
LINE
  5
142
330
1F
100
AcDbEntity
  8
SKARN_FSET7
100
AcDbLine
 10
162.1782326427056
 20
296.7239064709283
 30
0.0
 11
163.8252639533021
 21
297.0983215235174
 31
0.0
  0
LINE
  5
143
330
1F
100
AcDbEntity
  8
SKARN_FSET7
100
AcDbLine
 10
162.1729909100104
 20
475.8815092234872
 30
0.0
 11
164.3691638234304
 21
476.2559242765419
 31
0.0
  0
LINE
  5
144
330
1F
100
AcDbEntity
  8
SKARN_FSET7
100
AcDbLine
 10
163.2968515049433
 20
451.5445307930931
 30
0.0
 11
164.9440795646515
 21
451.7317383196205
 31
0.0
  0
LINE
  5
145
330
1F
100
AcDbEntity
  8
SKARN_FSET7
100
AcDbLine
 10
163.6863590553403
 20
429.2668351531029
 30
0.0
 11
165.3333903659368
 21
429.6412502056919
 31
0.0
  0
LINE
  5
146
330
1F
100
AcDbEntity
  8
SKARN_FSET7
100
AcDbLine
 10
165.063042304595
 20
164.3681853157468
 30
0.0
 11
167.259215218015
 21
164.7426003678702
 31
0.0
  0
LINE
  5
147
330
1F
100
AcDbEntity
  8
SKARN_FSET7
100
AcDbLine
 10
165.7863773969002
 20
172.7925240024924
 30
0.0
 11
167.4338022056036
 21
172.7925240024924
 31
0.0
  0
LINE
  5
148
330
1F
100
AcDbEntity
  8
SKARN_FSET7
100
AcDbLine
 10
167.1368372484576
 20
281.1856817808002
 30
0.0
 11
171.7120335273212
 21
282.1217194129713
 31
0.0
  0
LINE
  5
149
330
1F
100
AcDbEntity
  8
SKARN_FSET7
100
AcDbLine
 10
167.7122169821523
 20
430.3900803118013
 30
0.0
 11
169.3594450418605
 21
430.577287837863
 31
0.0
  0
LINE
  5
14A
330
1F
100
AcDbEntity
  8
SKARN_FSET7
100
AcDbLine
 10
168.1171414601849
 20
567.6131971529685
 30
0.0
 11
170.1304639219306
 21
567.8004046794958
 31
0.0
  0
LINE
  5
14B
330
1F
100
AcDbEntity
  8
SKARN_FSET7
100
AcDbLine
 10
170.3760068576084
 20
334.1654117484577
 30
0.0
 11
172.0230381680885
 21
334.5398268015124
 31
0.0
  0
LINE
  5
14C
330
1F
100
AcDbEntity
  8
SKARN_FSET7
100
AcDbLine
 10
174.1048998271581
 20
443.6818146849982
 30
0.0
 11
176.3010727405781
 21
444.0562297375873
 31
0.0
  0
LINE
  5
14D
330
1F
100
AcDbEntity
  8
SKARN_FSET7
100
AcDbLine
 10
176.0441741154063
 20
340.1560525931418
 30
0.0
 11
177.8742526270216
 21
340.5304676452652
 31
0.0
  0
LINE
  5
14E
330
1F
100
AcDbEntity
  8
SKARN_FSET7
100
AcDbLine
 10
177.1082787306514
 20
24.33695557806641
 30
0.0
 11
178.9385539913783
 21
24.52416310412809
 31
0.0
  0
LINE
  5
14F
330
1F
100
AcDbEntity
  8
SKARN_FSET7
100
AcDbLine
 10
176.9866319966968
 20
488.4244134915061
 30
0.0
 11
178.9997577093309
 21
488.7988285440952
 31
0.0
  0
LINE
  5
150
330
1F
100
AcDbEntity
  8
SKARN_FSET7
100
AcDbLine
 10
180.1594266491011
 20
430.3900803118013
 30
0.0
 11
184.9178668780951
 21
431.1389104169793
 31
0.0
  0
LINE
  5
151
330
1F
100
AcDbEntity
  8
SKARN_FSET7
100
AcDbLine
 10
183.3258548346348
 20
204.243388436269
 30
0.0
 11
185.1559333461337
 21
204.6178034883924
 31
0.0
  0
LINE
  5
152
330
1F
100
AcDbEntity
  8
SKARN_FSET7
100
AcDbLine
 10
184.3694417777006
 20
256.2870807717554
 30
0.0
 11
186.3827642392134
 21
256.4742882982828
 31
0.0
  0
LINE
  5
153
330
1F
100
AcDbEntity
  8
SKARN_FSET7
100
AcDbLine
 10
184.4940544818528
 20
311.8877161084674
 30
0.0
 11
186.1412825415609
 21
312.0749236349948
 31
0.0
  0
LINE
  5
154
330
1F
100
AcDbEntity
  8
SKARN_FSET7
100
AcDbLine
 10
184.9314983300865
 20
69.82838449021801
 30
0.0
 11
186.3956791887758
 21
70.01559201674536
 31
0.0
  0
LINE
  5
155
330
1F
100
AcDbEntity
  8
SKARN_FSET7
100
AcDbLine
 10
187.5020996038802
 20
236.443082974758
 30
0.0
 11
188.966280462686
 21
236.6302905008197
 31
0.0
  0
LINE
  5
156
330
1F
100
AcDbEntity
  8
SKARN_FSET7
100
AcDbLine
 10
192.3055953875883
 20
194.3213895377703
 30
0.0
 11
194.5017683011247
 21
194.6958045903593
 31
0.0
  0
LINE
  5
157
330
1F
100
AcDbEntity
  8
SKARN_FSET7
100
AcDbLine
 10
193.1332780220546
 20
277.6287387795746
 30
0.0
 11
195.6953485884005
 21
278.190361358691
 31
0.0
  0
LINE
  5
158
330
1F
100
AcDbEntity
  8
SKARN_FSET7
100
AcDbLine
 10
194.3547966880724
 20
334.5398268015124
 30
0.0
 11
195.8189775469946
 21
334.7270343280397
 31
0.0
  0
LINE
  5
159
330
1F
100
AcDbEntity
  8
SKARN_FSET7
100
AcDbLine
 10
196.2170158048393
 20
478.5024145930074
 30
0.0
 11
197.6811966636451
 21
478.6896221195348
 31
0.0
  0
LINE
  5
15A
330
1F
100
AcDbEntity
  8
SKARN_FSET7
100
AcDbLine
 10
196.8463605657453
 20
228.0187442870811
 30
0.0
 11
198.6766358263558
 21
228.2059518136084
 31
0.0
  0
LINE
  5
15B
330
1F
100
AcDbEntity
  8
SKARN_FSET7
100
AcDbLine
 10
197.1012212053174
 20
159.6879971558228
 30
0.0
 11
199.2975908680819
 21
159.8752046823502
 31
0.0
  0
LINE
  5
15C
330
1F
100
AcDbEntity
  8
SKARN_FSET7
100
AcDbLine
 10
197.4376064860262
 20
187.9563336404972
 30
0.0
 11
199.2676849976415
 21
188.3307486930862
 31
0.0
  0
LINE
  5
15D
330
1F
100
AcDbEntity
  8
SKARN_FSET7
100
AcDbLine
 10
198.1345771927154
 20
221.4664808632806
 30
0.0
 11
200.6968445082894
 21
221.8408959163353
 31
0.0
  0
LINE
  5
15E
330
1F
100
AcDbEntity
  8
SKARN_FSET7
100
AcDbLine
 10
199.576595892082
 20
416.9111384111457
 30
0.0
 11
202.1390599566512
 21
417.098345937673
 31
0.0
  0
LINE
  5
15F
330
1F
100
AcDbEntity
  8
SKARN_FSET7
100
AcDbLine
 10
201.7177348051919
 20
121.3104542465881
 30
0.0
 11
203.1819156638812
 21
121.4976617726497
 31
0.0
  0
LINE
  5
160
330
1F
100
AcDbEntity
  8
SKARN_FSET7
100
AcDbLine
 10
201.9752941720653
 20
398.7520083524287
 30
0.0
 11
204.7206086885417
 21
399.126423404552
 31
0.0
  0
LINE
  5
161
330
1F
100
AcDbEntity
  8
SKARN_FSET7
100
AcDbLine
 10
202.2197271069745
 20
340.3432601192035
 30
0.0
 11
204.0500023677014
 21
340.5304676452652
 31
0.0
  0
LINE
  5
162
330
1F
100
AcDbEntity
  8
SKARN_FSET7
100
AcDbLine
 10
204.9885252660606
 20
492.5429790718481
 30
0.0
 11
206.4527061248664
 21
492.7301865979098
 31
0.0
  0
LINE
  5
163
330
1F
100
AcDbEntity
  8
SKARN_FSET7
100
AcDbLine
 10
205.314679591218
 20
530.5461069284938
 30
0.0
 11
206.9619076508097
 21
530.7333144550212
 31
0.0
  0
LINE
  5
164
330
1F
100
AcDbEntity
  8
SKARN_FSET7
100
AcDbLine
 10
205.5825256744865
 20
449.859663055744
 30
0.0
 11
208.1445962408325
 21
450.4212856348604
 31
0.0
  0
LINE
  5
165
330
1F
100
AcDbEntity
  8
SKARN_FSET7
100
AcDbLine
 10
206.6526032582624
 20
302.5273397890851
 30
0.0
 11
208.1167841170682
 21
302.7145473156124
 31
0.0
  0
LINE
  5
166
330
1F
100
AcDbEntity
  8
SKARN_FSET7
100
AcDbLine
 10
206.6739226602949
 20
456.4119264795445
 30
0.0
 11
208.3211507200031
 21
456.5991340051405
 31
0.0
  0
LINE
  5
167
330
1F
100
AcDbEntity
  8
SKARN_FSET7
100
AcDbLine
 10
207.8084634701954
 20
73.57253501797095
 30
0.0
 11
210.1876835846342
 21
73.94695007055998
 31
0.0
  0
LINE
  5
168
330
1F
100
AcDbEntity
  8
SKARN_FSET7
100
AcDbLine
 10
207.4301148601808
 20
433.5726082599722
 30
0.0
 11
209.2601933716796
 21
433.9470233130269
 31
0.0
  0
LINE
  5
169
330
1F
100
AcDbEntity
  8
SKARN_FSET7
100
AcDbLine
 10
207.592109902529
 20
453.603813583497
 30
0.0
 11
209.0562907612184
 21
453.7910211100243
 31
0.0
  0
LINE
  5
16A
330
1F
100
AcDbEntity
  8
SKARN_FSET7
100
AcDbLine
 10
208.8820972717367
 20
445.3666824223474
 30
0.0
 11
210.3462781305425
 21
445.5538899488747
 31
0.0
  0
LINE
  5
16B
330
1F
100
AcDbEntity
  8
SKARN_FSET7
100
AcDbLine
 10
209.387096571736
 20
313.1981687932275
 30
0.0
 11
210.8512774304254
 21
313.3853763192892
 31
0.0
  0
LINE
  5
16C
330
1F
100
AcDbEntity
  8
SKARN_FSET7
100
AcDbLine
 10
209.9740140108624
 20
277.2543237265199
 30
0.0
 11
211.6210453213425
 21
277.6287387795746
 31
0.0
  0
LINE
  5
16D
330
1F
100
AcDbEntity
  8
SKARN_FSET7
100
AcDbLine
 10
214.1742621761514
 20
286.6147000463679
 30
0.0
 11
215.6382462857291
 21
286.989115098957
 31
0.0
  0
LINE
  5
16E
330
1F
100
AcDbEntity
  8
SKARN_FSET7
100
AcDbLine
 10
213.9659048293252
 20
484.8674704898149
 30
0.0
 11
215.4300856878981
 21
485.0546780163422
 31
0.0
  0
LINE
  5
16F
330
1F
100
AcDbEntity
  8
SKARN_FSET7
100
AcDbLine
 10
218.5409043589607
 20
485.9907156485133
 30
0.0
 11
220.7372740217252
 21
486.1779231750406
 31
0.0
  0
LINE
  5
170
330
1F
100
AcDbEntity
  8
SKARN_FSET7
100
AcDbLine
 10
219.2051999738906
 20
28.08110610581934
 30
0.0
 11
222.3162153940648
 21
28.8299362109974
 31
0.0
  0
LINE
  5
171
330
1F
100
AcDbEntity
  8
SKARN_FSET7
100
AcDbLine
 10
219.5602206626208
 20
386.9579341895878
 30
0.0
 11
220.8411575714126
 21
387.3323492421769
 31
0.0
  0
LINE
  5
172
330
1F
100
AcDbEntity
  8
SKARN_FSET7
100
AcDbLine
 10
220.9797394650523
 20
429.6412502056919
 30
0.0
 11
222.9928651776863
 21
430.0156652587466
 31
0.0
  0
LINE
  5
173
330
1F
100
AcDbEntity
  8
SKARN_FSET7
100
AcDbLine
 10
222.1199302393943
 20
389.7660470856354
 30
0.0
 11
223.767158298986
 21
389.953254611697
 31
0.0
  0
LINE
  5
174
330
1F
100
AcDbEntity
  8
SKARN_FSET7
100
AcDbLine
 10
222.4054837459698
 20
292.2309258379973
 30
0.0
 11
224.2355622575851
 21
292.6053408901207
 31
0.0
  0
LINE
  5
175
330
1F
100
AcDbEntity
  8
SKARN_FSET7
100
AcDbLine
 10
223.0665198527277
 20
534.1030499297194
 30
0.0
 11
224.530700711417
 21
534.2902574562468
 31
0.0
  0
LINE
  5
176
330
1F
100
AcDbEntity
  8
SKARN_FSET7
100
AcDbLine
 10
224.9457856510999
 20
487.6755833858624
 30
0.0
 11
226.5928169616964
 21
488.0499984389171
 31
0.0
  0
LINE
  5
177
330
1F
100
AcDbEntity
  8
SKARN_FSET7
100
AcDbLine
 10
225.7493239013711
 20
245.616251767613
 30
0.0
 11
227.579599162098
 21
245.8034592936747
 31
0.0
  0
LINE
  5
178
330
1F
100
AcDbEntity
  8
SKARN_FSET7
100
AcDbLine
 10
226.4459716038546
 20
453.603813583497
 30
0.0
 11
228.4592940656003
 21
453.7910211100243
 31
0.0
  0
LINE
  5
179
330
1F
100
AcDbEntity
  8
SKARN_FSET7
100
AcDbLine
 10
227.0448202468688
 20
232.1373098678887
 30
0.0
 11
228.5090011055581
 21
232.3245173939504
 31
0.0
  0
LINE
  5
17A
330
1F
100
AcDbEntity
  8
SKARN_FSET7
100
AcDbLine
 10
231.3864752879599
 20
455.2886813208461
 30
0.0
 11
233.399601000594
 21
455.6630963734351
 31
0.0
  0
LINE
  5
17B
330
1F
100
AcDbEntity
  8
SKARN_FSET7
100
AcDbLine
 10
231.6718320455402
 20
357.9407675997354
 30
0.0
 11
233.136012904346
 21
358.1279751262628
 31
0.0
  0
LINE
  5
17C
330
1F
100
AcDbEntity
  8
SKARN_FSET7
100
AcDbLine
 10
234.1899012969807
 20
574.539875629358
 30
0.0
 11
236.0203733068192
 21
574.539875629358
 31
0.0
  0
LINE
  5
17D
330
1F
100
AcDbEntity
  8
SKARN_FSET7
100
AcDbLine
 10
235.7840628479607
 20
276.8799086739309
 30
0.0
 11
239.6272670719773
 21
277.6287387795746
 31
0.0
  0
LINE
  5
17E
330
1F
100
AcDbEntity
  8
SKARN_FSET7
100
AcDbLine
 10
240.8982960290741
 20
113.2605306119658
 30
0.0
 11
243.2775161435129
 21
113.6349456645548
 31
0.0
  0
LINE
  5
17F
330
1F
100
AcDbEntity
  8
SKARN_FSET7
100
AcDbLine
 10
241.2908253108617
 20
262.2777216159739
 30
0.0
 11
242.7548094204394
 21
262.6521366690286
 31
0.0
  0
LINE
  5
180
330
1F
100
AcDbEntity
  8
SKARN_FSET7
100
AcDbLine
 10
241.7628412480699
 20
335.6630719597451
 30
0.0
 11
243.5929197596852
 21
336.0374870123342
 31
0.0
  0
LINE
  5
181
330
1F
100
AcDbEntity
  8
SKARN_FSET7
100
AcDbLine
 10
243.5583624038845
 20
543.0890111960471
 30
0.0
 11
245.0225432628067
 21
543.2762187225744
 31
0.0
  0
LINE
  5
182
330
1F
100
AcDbEntity
  8
SKARN_FSET7
100
AcDbLine
 10
243.9474059620406
 20
347.0827310690656
 30
0.0
 11
245.4113900716184
 21
347.4571461221203
 31
0.0
  0
LINE
  5
183
330
1F
100
AcDbEntity
  8
SKARN_FSET7
100
AcDbLine
 10
246.615271808696
 20
595.3199110580608
 30
0.0
 11
248.2624998682877
 21
595.5071185845882
 31
0.0
  0
LINE
  5
184
330
1F
100
AcDbEntity
  8
SKARN_FSET7
100
AcDbLine
 10
247.7388651603833
 20
397.0671406141482
 30
0.0
 11
251.0329277814599
 21
397.8159707202576
 31
0.0
  0
LINE
  5
185
330
1F
100
AcDbEntity
  8
SKARN_FSET7
100
AcDbLine
 10
250.5822312462842
 20
478.3152070664801
 30
0.0
 11
252.5955537079135
 21
478.5024145930074
 31
0.0
  0
LINE
  5
186
330
1F
100
AcDbEntity
  8
SKARN_FSET7
100
AcDbLine
 10
254.3849609069293
 20
169.2355810012668
 30
0.0
 11
256.7643777705962
 21
169.4227885277942
 31
0.0
  0
LINE
  5
187
330
1F
100
AcDbEntity
  8
SKARN_FSET7
100
AcDbLine
 10
254.7016712728655
 20
216.2246701247059
 30
0.0
 11
257.2639385884395
 21
216.5990851772949
 31
0.0
  0
LINE
  5
188
330
1F
100
AcDbEntity
  8
SKARN_FSET7
100
AcDbLine
 10
255.037733549485
 20
418.9704212015495
 30
0.0
 11
257.4169536640402
 21
419.3448362546042
 31
0.0
  0
LINE
  5
189
330
1F
100
AcDbEntity
  8
SKARN_FSET7
100
AcDbLine
 10
255.8410045563942
 20
2.995297569781542
 30
0.0
 11
257.4880358669907
 21
3.369712622370571
 31
0.0
  0
LINE
  5
18A
330
1F
100
AcDbEntity
  8
SKARN_FSET7
100
AcDbLine
 10
260.9791853727074
 20
164.9298078943975
 30
0.0
 11
262.9925078344531
 21
165.1170154209249
 31
0.0
  0
LINE
  5
18B
330
1F
100
AcDbEntity
  8
SKARN_FSET7
100
AcDbLine
 10
264.7158220531419
 20
441.2481168415397
 30
0.0
 11
267.6443805197487
 21
441.4353243680671
 31
0.0
  0
LINE
  5
18C
330
1F
100
AcDbEntity
  8
SKARN_FSET7
100
AcDbLine
 10
266.7459386864211
 20
599.6256841653958
 30
0.0
 11
268.2101195452269
 21
599.8128916914575
 31
0.0
  0
LINE
  5
18D
330
1F
100
AcDbEntity
  8
SKARN_FSET7
100
AcDbLine
 10
269.4133258075453
 20
151.6380735212006
 30
0.0
 11
272.158246825682
 21
152.3869036268443
 31
0.0
  0
LINE
  5
18E
330
1F
100
AcDbEntity
  8
SKARN_FSET7
100
AcDbLine
 10
269.4854769834783
 20
431.326117943041
 30
0.0
 11
271.3155554949772
 21
431.7005329960957
 31
0.0
  0
LINE
  5
18F
330
1F
100
AcDbEntity
  8
SKARN_FSET7
100
AcDbLine
 10
269.8607481013751
 20
248.4243646631949
 30
0.0
 11
272.4228186676046
 21
248.9859872423112
 31
0.0
  0
LINE
  5
190
330
1F
100
AcDbEntity
  8
SKARN_FSET7
100
AcDbLine
 10
271.3626490352908
 20
561.060933729168
 30
0.0
 11
273.3759714970365
 21
561.2481412556954
 31
0.0
  0
LINE
  5
191
330
1F
100
AcDbEntity
  8
SKARN_FSET7
100
AcDbLine
 10
274.8033455320401
 20
73.94695007055998
 30
0.0
 11
276.9995184454601
 21
74.32136512361467
 31
0.0
  0
LINE
  5
192
330
1F
100
AcDbEntity
  8
SKARN_FSET7
100
AcDbLine
 10
275.0094123833114
 20
52.04366948315874
 30
0.0
 11
277.3886324977502
 21
52.41808453621343
 31
0.0
  0
LINE
  5
193
330
1F
100
AcDbEntity
  8
SKARN_FSET7
100
AcDbLine
 10
275.9303541133413
 20
46.61465121805668
 30
0.0
 11
277.5775821730494
 21
46.80185874411836
 31
0.0
  0
LINE
  5
194
330
1F
100
AcDbEntity
  8
SKARN_FSET7
100
AcDbLine
 10
275.8650333965197
 20
108.7675499785691
 30
0.0
 11
278.0612063100561
 21
109.1419650311582
 31
0.0
  0
LINE
  5
195
330
1F
100
AcDbEntity
  8
SKARN_FSET7
100
AcDbLine
 10
276.8680900153704
 20
199.3759927498177
 30
0.0
 11
278.3320741248317
 21
199.7504078028724
 31
0.0
  0
LINE
  5
196
330
1F
100
AcDbEntity
  8
SKARN_FSET7
100
AcDbLine
 10
280.9052888983861
 20
15.53820183780044
 30
0.0
 11
282.9184146110201
 21
15.91261689085513
 31
0.0
  0
LINE
  5
197
330
1F
100
AcDbEntity
  8
SKARN_FSET7
100
AcDbLine
 10
281.26247382781
 20
372.3557471316308
 30
0.0
 11
283.6416939422488
 21
372.7301621842198
 31
0.0
  0
LINE
  5
198
330
1F
100
AcDbEntity
  8
SKARN_FSET7
100
AcDbLine
 10
283.1307921680855
 20
510.5149016054347
 30
0.0
 11
285.5098155334126
 21
511.0765241840854
 31
0.0
  0
LINE
  5
199
330
1F
100
AcDbEntity
  8
SKARN_FSET7
100
AcDbLine
 10
285.213370329584
 20
444.805059843231
 30
0.0
 11
287.0434488411993
 21
445.17947489582
 31
0.0
  0
LINE
  5
19A
330
1F
100
AcDbEntity
  8
SKARN_FSET7
100
AcDbLine
 10
288.0262960585533
 20
206.6770862792619
 30
0.0
 11
289.490280168131
 21
207.0515013313852
 31
0.0
  0
LINE
  5
19B
330
1F
100
AcDbEntity
  8
SKARN_FSET7
100
AcDbLine
 10
288.3441164252581
 20
78.43993070395663
 30
0.0
 11
289.9913444850827
 21
78.62713823048398
 31
0.0
  0
LINE
  5
19C
330
1F
100
AcDbEntity
  8
SKARN_FSET7
100
AcDbLine
 10
289.8637952767313
 20
548.3308219355531
 30
0.0
 11
293.3411018480547
 21
548.8924445142038
 31
0.0
  0
LINE
  5
19D
330
1F
100
AcDbEntity
  8
SKARN_FSET7
100
AcDbLine
 10
291.7448318175739
 20
500.2184876538813
 30
0.0
 11
293.2088159270352
 21
500.5929027064703
 31
0.0
  0
LINE
  5
19E
330
1F
100
AcDbEntity
  8
SKARN_FSET7
100
AcDbLine
 10
292.2402609032579
 20
551.3261423571967
 30
0.0
 11
295.3514730725437
 21
551.8877649367787
 31
0.0
  0
LINE
  5
19F
330
1F
100
AcDbEntity
  8
SKARN_FSET7
100
AcDbLine
 10
295.6059959747363
 20
135.5382262519561
 30
0.0
 11
297.2530272853328
 21
135.9126413045451
 31
0.0
  0
LINE
  5
1A0
330
1F
100
AcDbEntity
  8
SKARN_FSET7
100
AcDbLine
 10
295.975969598745
 20
480.1872823303565
 30
0.0
 11
298.1721425122814
 21
480.5616973829456
 31
0.0
  0
LINE
  5
1A1
330
1F
100
AcDbEntity
  8
SKARN_FSET7
100
AcDbLine
 10
300.4626140282489
 20
42.87050069030374
 30
0.0
 11
302.109645338729
 21
43.24491574289277
 31
0.0
  0
LINE
  5
1A2
330
1F
100
AcDbEntity
  8
SKARN_FSET7
100
AcDbLine
 10
301.6291134272469
 20
326.3026956403628
 30
0.0
 11
303.0932942860527
 21
326.4899031668901
 31
0.0
  0
LINE
  5
1A3
330
1F
100
AcDbEntity
  8
SKARN_FSET7
100
AcDbLine
 10
301.82868755667
 20
310.5772634237073
 30
0.0
 11
303.4759156162618
 21
310.764470949769
 31
0.0
  0
LINE
  5
1A4
330
1F
100
AcDbEntity
  8
SKARN_FSET7
100
AcDbLine
 10
301.7964911906747
 20
515.3822972909547
 30
0.0
 11
303.9926641040947
 21
515.7567123440094
 31
0.0
  0
LINE
  5
1A5
330
1F
100
AcDbEntity
  8
SKARN_FSET7
100
AcDbLine
 10
302.6340670433128
 20
240.936063607689
 30
0.0
 11
305.5622320115799
 21
241.4976861868054
 31
0.0
  0
LINE
  5
1A6
330
1F
100
AcDbEntity
  8
SKARN_FSET7
100
AcDbLine
 10
302.8673557708971
 20
367.3011439191177
 30
0.0
 11
304.3315366297029
 21
367.4883514451794
 31
0.0
  0
LINE
  5
1A7
330
1F
100
AcDbEntity
  8
SKARN_FSET7
100
AcDbLine
 10
303.6278764521703
 20
340.3432601192035
 30
0.0
 11
305.0920573108597
 21
340.5304676452652
 31
0.0
  0
LINE
  5
1A8
330
1F
100
AcDbEntity
  8
SKARN_FSET7
100
AcDbLine
 10
305.0644419359742
 20
192.6365217994899
 30
0.0
 11
307.6265125024365
 21
193.1981443790719
 31
0.0
  0
LINE
  5
1A9
330
1F
100
AcDbEntity
  8
SKARN_FSET7
100
AcDbLine
 10
306.0528128629085
 20
471.3885285900906
 30
0.0
 11
308.4320329772308
 21
471.7629436431453
 31
0.0
  0
LINE
  5
1AA
330
1F
100
AcDbEntity
  8
SKARN_FSET7
100
AcDbLine
 10
307.0303478533169
 20
237.9407431855798
 30
0.0
 11
309.5926151687745
 21
238.3151582386345
 31
0.0
  0
LINE
  5
1AB
330
1F
100
AcDbEntity
  8
SKARN_FSET7
100
AcDbLine
 10
309.742411763873
 20
269.9532301980071
 30
0.0
 11
311.755537476507
 21
270.3276452505961
 31
0.0
  0
LINE
  5
1AC
330
1F
100
AcDbEntity
  8
SKARN_FSET7
100
AcDbLine
 10
312.7688955448102
 20
525.3042961894535
 30
0.0
 11
315.8803044633241
 21
525.6787112425081
 31
0.0
  0
LINE
  5
1AD
330
1F
100
AcDbEntity
  8
SKARN_FSET7
100
AcDbLine
 10
313.4385033866856
 20
62.34008343471214
 30
0.0
 11
315.0857314463938
 21
62.52729096123949
 31
0.0
  0
LINE
  5
1AE
330
1F
100
AcDbEntity
  8
SKARN_FSET7
100
AcDbLine
 10
314.7231785291806
 20
59.15755548607558
 30
0.0
 11
317.4684930455405
 21
59.53197053866461
 31
0.0
  0
LINE
  5
1AF
330
1F
100
AcDbEntity
  8
SKARN_FSET7
100
AcDbLine
 10
314.9462363012135
 20
195.2574271694757
 30
0.0
 11
316.4104171597864
 21
195.4446346955374
 31
0.0
  0
LINE
  5
1B0
330
1F
100
AcDbEntity
  8
SKARN_FSET7
100
AcDbLine
 10
316.5114904607181
 20
447.6131727388129
 30
0.0
 11
318.7074666250264
 21
448.1747953183949
 31
0.0
  0
LINE
  5
1B1
330
1F
100
AcDbEntity
  8
SKARN_FSET7
100
AcDbLine
 10
319.6761479038978
 20
223.1513486010954
 30
0.0
 11
322.2386119683506
 21
223.3385561271571
 31
0.0
  0
LINE
  5
1B2
330
1F
100
AcDbEntity
  8
SKARN_FSET7
100
AcDbLine
 10
321.8710845615715
 20
573.0422154180706
 30
0.0
 11
325.8973359866068
 21
573.7910455237143
 31
0.0
  0
LINE
  5
1B3
330
1F
100
AcDbEntity
  8
SKARN_FSET7
100
AcDbLine
 10
323.3035183134489
 20
429.2668351531029
 30
0.0
 11
326.4149272318464
 21
429.6412502056919
 31
0.0
  0
LINE
  5
1B4
330
1F
100
AcDbEntity
  8
SKARN_FSET7
100
AcDbLine
 10
328.2134553857613
 20
285.8658699407242
 30
0.0
 11
330.7757227012189
 21
286.2402849937789
 31
0.0
  0
LINE
  5
1B5
330
1F
100
AcDbEntity
  8
SKARN_FSET7
100
AcDbLine
 10
328.3168896762654
 20
535.7879176675342
 30
0.0
 11
330.8789602426114
 21
536.3495402466506
 31
0.0
  0
LINE
  5
1B6
330
1F
100
AcDbEntity
  8
SKARN_FSET7
100
AcDbLine
 10
335.7572911962634
 20
597.1919863219373
 30
0.0
 11
339.0515505666845
 21
597.7536089015193
 31
0.0
  0
LINE
  5
1B7
330
1F
100
AcDbEntity
  8
SKARN_FSET7
100
AcDbLine
 10
336.5309793370543
 20
35.19499210827053
 30
0.0
 11
338.7269555013627
 21
35.75661468785256
 31
0.0
  0
LINE
  5
1B8
330
1F
100
AcDbEntity
  8
SKARN_FSET7
100
AcDbLine
 10
336.7561455888208
 20
517.6287876078859
 30
0.0
 11
340.050404959009
 21
518.1904101870023
 31
0.0
  0
LINE
  5
1B9
330
1F
100
AcDbEntity
  8
SKARN_FSET7
100
AcDbLine
 10
338.1050872082124
 20
279.1263989903964
 30
0.0
 11
340.1182129206136
 21
279.5008140434511
 31
0.0
  0
LINE
  5
1BA
330
1F
100
AcDbEntity
  8
SKARN_FSET7
100
AcDbLine
 10
341.1354912387906
 20
8.237108308821917
 30
0.0
 11
342.9657664995175
 21
8.424315835349262
 31
0.0
  0
LINE
  5
1BB
330
1F
100
AcDbEntity
  8
SKARN_FSET7
100
AcDbLine
 10
341.1282115203794
 20
15.16378678474575
 30
0.0
 11
343.8735260368558
 21
15.53820183780044
 31
0.0
  0
LINE
  5
1BC
330
1F
100
AcDbEntity
  8
SKARN_FSET7
100
AcDbLine
 10
344.4305376057746
 20
8.049900782294571
 30
0.0
 11
346.0777656653663
 21
8.237108308821917
 31
0.0
  0
LINE
  5
1BD
330
1F
100
AcDbEntity
  8
SKARN_FSET7
100
AcDbLine
 10
344.1330528951949
 20
291.1076806792989
 30
0.0
 11
346.3292258087313
 21
291.4820957323536
 31
0.0
  0
LINE
  5
1BE
330
1F
100
AcDbEntity
  8
SKARN_FSET7
100
AcDbLine
 10
345.5641094031744
 20
148.6427530986257
 30
0.0
 11
347.2113374628825
 21
148.829960625153
 31
0.0
  0
LINE
  5
1BF
330
1F
100
AcDbEntity
  8
SKARN_FSET7
100
AcDbLine
 10
346.466304203379
 20
509.3916564467363
 30
0.0
 11
347.9304850621847
 21
509.5788639732637
 31
0.0
  0
LINE
  5
1C0
330
1F
100
AcDbEntity
  8
SKARN_FSET7
100
AcDbLine
 10
347.5194613605272
 20
378.1591804493219
 30
0.0
 11
349.715437524952
 21
378.7208030289039
 31
0.0
  0
LINE
  5
1C1
330
1F
100
AcDbEntity
  8
SKARN_FSET7
100
AcDbLine
 10
347.9431327683851
 20
149.2043756782077
 30
0.0
 11
349.5905575773213
 21
149.2043756782077
 31
0.0
  0
LINE
  5
1C2
330
1F
100
AcDbEntity
  8
SKARN_FSET7
100
AcDbLine
 10
348.7219511201838
 20
104.8361919242889
 30
0.0
 11
350.0028880288592
 21
105.2106069768779
 31
0.0
  0
LINE
  5
1C3
330
1F
100
AcDbEntity
  8
SKARN_FSET7
100
AcDbLine
 10
349.2982441055356
 20
79.00155328307301
 30
0.0
 11
351.6774642200908
 21
79.37596833566204
 31
0.0
  0
LINE
  5
1C4
330
1F
100
AcDbEntity
  8
SKARN_FSET7
100
AcDbLine
 10
349.0206310588401
 20
343.1513730147853
 30
0.0
 11
351.582701625186
 21
343.7129955943674
 31
0.0
  0
LINE
  5
1C5
330
1F
100
AcDbEntity
  8
SKARN_FSET7
100
AcDbLine
 10
349.9161216550274
 20
187.7691261139698
 30
0.0
 11
351.9292473674286
 21
188.1435411665589
 31
0.0
  0
LINE
  5
1C6
330
1F
100
AcDbEntity
  8
SKARN_FSET7
100
AcDbLine
 10
351.0513379396871
 20
500.9673177590594
 30
0.0
 11
353.613408506033
 21
501.5289403386414
 31
0.0
  0
LINE
  5
1C7
330
1F
100
AcDbEntity
  8
SKARN_FSET7
100
AcDbLine
 10
351.5275413697818
 20
222.0281034428626
 30
0.0
 11
353.1745726803783
 21
222.4025184954517
 31
0.0
  0
LINE
  5
1C8
330
1F
100
AcDbEntity
  8
SKARN_FSET7
100
AcDbLine
 10
353.1666322203819
 20
55.78782001091167
 30
0.0
 11
354.8138602802064
 21
55.97502753743902
 31
0.0
  0
LINE
  5
1C9
330
1F
100
AcDbEntity
  8
SKARN_FSET7
100
AcDbLine
 10
360.2044849854428
 20
500.2184876538813
 30
0.0
 11
361.851713045151
 21
500.4056951804087
 31
0.0
  0
LINE
  5
1CA
330
1F
100
AcDbEntity
  8
SKARN_FSET7
100
AcDbLine
 10
362.1129254184198
 20
77.69110059831291
 30
0.0
 11
366.1389800943434
 21
78.62713823048398
 31
0.0
  0
LINE
  5
1CB
330
1F
100
AcDbEntity
  8
SKARN_FSET7
100
AcDbLine
 10
365.7236984056653
 20
125.42901982693
 30
0.0
 11
370.6649890864501
 21
126.3650574591011
 31
0.0
  0
LINE
  5
1CC
330
1F
100
AcDbEntity
  8
SKARN_FSET7
100
AcDbLine
 10
367.080327975098
 20
402.1217438271269
 30
0.0
 11
368.544508833671
 21
402.3089513536543
 31
0.0
  0
LINE
  5
1CD
330
1F
100
AcDbEntity
  8
SKARN_FSET7
100
AcDbLine
 10
370.7595696653007
 20
384.7114438726567
 30
0.0
 11
373.8709785836982
 21
385.0858589257114
 31
0.0
  0
LINE
  5
1CE
330
1F
100
AcDbEntity
  8
SKARN_FSET7
100
AcDbLine
 10
373.9399670402054
 20
145.2730176239274
 30
0.0
 11
375.4041478990112
 21
145.4602251504548
 31
0.0
  0
LINE
  5
1CF
330
1F
100
AcDbEntity
  8
SKARN_FSET7
100
AcDbLine
 10
375.0871145287529
 20
272.9485506196506
 30
0.0
 11
376.7345393376891
 21
272.9485506196506
 31
0.0
  0
LINE
  5
1D0
330
1F
100
AcDbEntity
  8
SKARN_FSET7
100
AcDbLine
 10
377.205107536749
 20
173.5413541086018
 30
0.0
 11
382.1463982176501
 21
174.4773917407729
 31
0.0
  0
LINE
  5
1D1
330
1F
100
AcDbEntity
  8
SKARN_FSET7
100
AcDbLine
 10
381.5373186189681
 20
405.6786868283525
 30
0.0
 11
384.2824363862164
 21
406.2403094074689
 31
0.0
  0
LINE
  5
1D2
330
1F
100
AcDbEntity
  8
SKARN_FSET7
100
AcDbLine
 10
382.3203244636534
 20
8.985938413999975
 30
0.0
 11
384.699544578325
 21
9.360353467054665
 31
0.0
  0
LINE
  5
1D3
330
1F
100
AcDbEntity
  8
SKARN_FSET7
100
AcDbLine
 10
382.8792477630777
 20
348.0187687012367
 30
0.0
 11
384.7093262745766
 21
348.3931837542914
 31
0.0
  0
LINE
  5
1D4
330
1F
100
AcDbEntity
  8
SKARN_FSET7
100
AcDbLine
 10
387.2568374041002
 20
362.8081632857211
 30
0.0
 11
388.7208215136779
 21
363.1825783383101
 31
0.0
  0
LINE
  5
1D5
330
1F
100
AcDbEntity
  8
SKARN_FSET7
100
AcDbLine
 10
390.0085036541568
 20
8.79873088747263
 30
0.0
 11
392.5707709696144
 21
9.17314594052732
 31
0.0
  0
LINE
  5
1D6
330
1F
100
AcDbEntity
  8
SKARN_FSET7
100
AcDbLine
 10
395.3342569018714
 20
166.4274681061506
 30
0.0
 11
397.3473826142726
 21
166.801883158274
 31
0.0
  0
LINE
  5
1D7
330
1F
100
AcDbEntity
  8
SKARN_FSET7
100
AcDbLine
 10
396.7359420257853
 20
400.2496685632505
 30
0.0
 11
398.5660205374006
 21
400.6240836158395
 31
0.0
  0
LINE
  5
1D8
330
1F
100
AcDbEntity
  8
SKARN_FSET7
100
AcDbLine
 10
397.8759918118594
 20
12.1684663631022
 30
0.0
 11
399.7062670724699
 21
12.35567388962954
 31
0.0
  0
LINE
  5
1D9
330
1F
100
AcDbEntity
  8
SKARN_FSET7
100
AcDbLine
 10
398.2180975511437
 20
557.5039907279424
 30
0.0
 11
400.9630185692804
 21
558.2528208340518
 31
0.0
  0
LINE
  5
1DA
330
1F
100
AcDbEntity
  8
SKARN_FSET7
100
AcDbLine
 10
399.2351791200927
 20
286.4274925198406
 30
0.0
 11
406.189595513395
 21
287.7379452046007
 31
0.0
  0
LINE
  5
1DB
330
1F
100
AcDbEntity
  8
SKARN_FSET7
100
AcDbLine
 10
401.8417149937013
 20
244.6802141354419
 30
0.0
 11
403.854840706219
 21
245.054629188031
 31
0.0
  0
LINE
  5
1DC
330
1F
100
AcDbEntity
  8
SKARN_FSET7
100
AcDbLine
 10
402.0362441391917
 20
407.925177144818
 30
0.0
 11
404.2322203036165
 21
408.4867997244
 31
0.0
  0
LINE
  5
1DD
330
1F
100
AcDbEntity
  8
SKARN_FSET7
100
AcDbLine
 10
402.7037582347402
 20
121.1232467200607
 30
0.0
 11
408.3770409702556
 21
122.2464918787591
 31
0.0
  0
LINE
  5
1DE
330
1F
100
AcDbEntity
  8
SKARN_FSET7
100
AcDbLine
 10
404.4765122503741
 20
1.872052411548793
 30
0.0
 11
407.2218267668504
 21
2.246467464603484
 31
0.0
  0
LINE
  5
1DF
330
1F
100
AcDbEntity
  8
SKARN_FSET7
100
AcDbLine
 10
404.86884478305
 20
151.0764509420842
 30
0.0
 11
407.6141592994099
 21
151.4508659946732
 31
0.0
  0
LINE
  5
1E0
330
1F
100
AcDbEntity
  8
SKARN_FSET7
100
AcDbLine
 10
405.0087481597438
 20
540.4681058269925
 30
0.0
 11
407.2049210735131
 21
540.8425208795816
 31
0.0
  0
LINE
  5
1E1
330
1F
100
AcDbEntity
  8
SKARN_FSET7
100
AcDbLine
 10
410.2159731935244
 20
114.1965682436712
 30
0.0
 11
413.3273821119219
 21
114.5709832967259
 31
0.0
  0
LINE
  5
1E2
330
1F
100
AcDbEntity
  8
SKARN_FSET7
100
AcDbLine
 10
410.9063249232713
 20
328.1747709042393
 30
0.0
 11
414.2005842934595
 21
328.73639348289
 31
0.0
  0
LINE
  5
1E3
330
1F
100
AcDbEntity
  8
SKARN_FSET7
100
AcDbLine
 10
415.4844019452576
 20
152.1996961003169
 30
0.0
 11
417.8636220596964
 21
152.574111152906
 31
0.0
  0
LINE
  5
1E4
330
1F
100
AcDbEntity
  8
SKARN_FSET7
100
AcDbLine
 10
416.0744673706358
 20
113.2605306119658
 30
0.0
 11
418.819585138117
 21
113.8221531910822
 31
0.0
  0
LINE
  5
1E5
330
1F
100
AcDbEntity
  8
SKARN_FSET7
100
AcDbLine
 10
416.5150739385281
 20
390.7020847178064
 30
0.0
 11
420.3582781627774
 21
391.4509148229845
 31
0.0
  0
LINE
  5
1E6
330
1F
100
AcDbEntity
  8
SKARN_FSET7
100
AcDbLine
 10
416.4344067882048
 20
467.4571705358103
 30
0.0
 11
418.0814380986849
 21
467.831585588865
 31
0.0
  0
LINE
  5
1E7
330
1F
100
AcDbEntity
  8
SKARN_FSET7
100
AcDbLine
 10
416.6671052685706
 20
594.3838734263554
 30
0.0
 11
418.8632781819906
 21
594.7582884789445
 31
0.0
  0
LINE
  5
1E8
330
1F
100
AcDbEntity
  8
SKARN_FSET7
100
AcDbLine
 10
417.9974819739582
 20
199.3759927498177
 30
0.0
 11
419.8277572345687
 21
199.563200276345
 31
0.0
  0
LINE
  5
1E9
330
1F
100
AcDbEntity
  8
SKARN_FSET7
100
AcDbLine
 10
418.15942125523
 20
567.8004046794958
 30
0.0
 11
421.8197750274558
 21
568.3620272586122
 31
0.0
  0
LINE
  5
1EA
330
1F
100
AcDbEntity
  8
SKARN_FSET7
100
AcDbLine
 10
418.8860305888811
 20
398.9392158780247
 30
0.0
 11
421.997439507395
 21
399.3136309310794
 31
0.0
  0
LINE
  5
1EB
330
1F
100
AcDbEntity
  8
SKARN_FSET7
100
AcDbLine
 10
421.2733174184104
 20
391.6381223495118
 30
0.0
 11
423.4694903319469
 21
392.0125374021009
 31
0.0
  0
LINE
  5
1EC
330
1F
100
AcDbEntity
  8
SKARN_FSET7
100
AcDbLine
 10
421.7282719407231
 20
132.9173208824359
 30
0.0
 11
423.5583504523383
 21
133.2917359350249
 31
0.0
  0
LINE
  5
1ED
330
1F
100
AcDbEntity
  8
SKARN_FSET7
100
AcDbLine
 10
422.9599510685075
 20
5.99061799235642
 30
0.0
 11
424.790226329118
 21
6.177825518418103
 31
0.0
  0
LINE
  5
1EE
330
1F
100
AcDbEntity
  8
SKARN_FSET7
100
AcDbLine
 10
427.7467936687171
 20
153.8845638376661
 30
0.0
 11
430.4921081851935
 21
154.2589788907208
 31
0.0
  0
LINE
  5
1EF
330
1F
100
AcDbEntity
  8
SKARN_FSET7
100
AcDbLine
 10
436.869515090948
 20
356.2558998623863
 30
0.0
 11
440.1637744611362
 21
356.817522441037
 31
0.0
  0
LINE
  5
1F0
330
1F
100
AcDbEntity
  8
SKARN_FSET7
100
AcDbLine
 10
439.6078023989685
 20
14.97657925868407
 30
0.0
 11
442.9018650201615
 21
15.72540936432779
 31
0.0
  0
LINE
  5
1F1
330
1F
100
AcDbEntity
  8
SKARN_FSET7
100
AcDbLine
 10
443.781756672659
 20
223.5257636536844
 30
0.0
 11
446.3440239882329
 21
223.9001787067391
 31
0.0
  0
LINE
  5
1F2
330
1F
100
AcDbEntity
  8
SKARN_FSET7
100
AcDbLine
 10
445.0512263698038
 20
583.1514218430966
 30
0.0
 11
450.5412651553052
 21
584.4618745278567
 31
0.0
  0
LINE
  5
1F3
330
1F
100
AcDbEntity
  8
SKARN_FSET7
100
AcDbLine
 10
450.4565220338991
 20
316.7551117944531
 30
0.0
 11
452.469844495412
 21
316.9423193205148
 31
0.0
  0
LINE
  5
1F4
330
1F
100
AcDbEntity
  8
SKARN_FSET7
100
AcDbLine
 10
451.2853146690177
 20
224.8362163384445
 30
0.0
 11
454.2132828881731
 21
225.5850464440882
 31
0.0
  0
LINE
  5
1F5
330
1F
100
AcDbEntity
  8
SKARN_FSET7
100
AcDbLine
 10
452.5442156731151
 20
246.1778743467294
 30
0.0
 11
454.9234357875539
 21
246.5522893997841
 31
0.0
  0
LINE
  5
1F6
330
1F
100
AcDbEntity
  8
SKARN_FSET7
100
AcDbLine
 10
454.8623172970256
 20
478.8768296455964
 30
0.0
 11
456.6923958085245
 21
479.2512446981855
 31
0.0
  0
LINE
  5
1F7
330
1F
100
AcDbEntity
  8
SKARN_FSET7
100
AcDbLine
 10
459.3660936353263
 20
547.7691993559711
 30
0.0
 11
464.8565259190509
 21
548.7052369876765
 31
0.0
  0
LINE
  5
1F8
330
1F
100
AcDbEntity
  8
SKARN_FSET7
100
AcDbLine
 10
467.4712547627278
 20
324.992242955137
 30
0.0
 11
469.1184828225523
 21
325.1794504816644
 31
0.0
  0
LINE
  5
1F9
330
1F
100
AcDbEntity
  8
SKARN_FSET7
100
AcDbLine
 10
475.9538659818936
 20
439.750456630718
 30
0.0
 11
478.3330860963324
 21
440.1248716837727
 31
0.0
  0
LINE
  5
1FA
330
1F
100
AcDbEntity
  8
SKARN_FSET7
100
AcDbLine
 10
476.9136230548611
 20
49.04834906104952
 30
0.0
 11
478.9267487674952
 21
49.42276411363855
 31
0.0
  0
LINE
  5
1FB
330
1F
100
AcDbEntity
  8
SKARN_FSET7
100
AcDbLine
 10
486.6943588524591
 20
321.9969225334935
 30
0.0
 11
488.5244373640744
 21
322.3713375860825
 31
0.0
  0
LINE
  5
1FC
330
1F
100
AcDbEntity
  8
SKARN_FSET7
100
AcDbLine
 10
500.3393362996867
 20
53.16691464139149
 30
0.0
 11
502.3522652629763
 21
53.72853722097352
 31
0.0
  0
LINE
  5
1FD
330
1F
100
AcDbEntity
  8
SKARN_FSET7
100
AcDbLine
 10
507.734556009993
 20
331.7317139054649
 30
0.0
 11
509.930728923413
 21
332.1061289585195
 31
0.0
  0
LINE
  5
1FE
330
1F
100
AcDbEntity
  8
SKARN_FSET7
100
AcDbLine
 10
507.6005698407535
 20
459.2200393751264
 30
0.0
 11
512.1759628688451
 21
459.9688694807701
 31
0.0
  0
LINE
  5
1FF
330
1F
100
AcDbEntity
  8
SKARN_FSET7
100
AcDbLine
 10
511.8751891836291
 20
397.8159707202576
 30
0.0
 11
515.1694485540502
 21
398.377593299374
 31
0.0
  0
LINE
  5
200
330
1F
100
AcDbEntity
  8
SKARN_FSET7
100
AcDbLine
 10
512.7230664861854
 20
287.7379452046007
 30
0.0
 11
515.2853338015266
 21
288.1123602571897
 31
0.0
  0
LINE
  5
201
330
1F
100
AcDbEntity
  8
SKARN_FSET7
100
AcDbLine
 10
516.5424640633864
 20
311.1388860028237
 30
0.0
 11
519.8367234336911
 21
311.7005085819401
 31
0.0
  0
LINE
  5
202
330
1F
100
AcDbEntity
  8
SKARN_FSET7
100
AcDbLine
 10
516.9980793272844
 20
225.9594614966772
 30
0.0
 11
522.6713620630326
 21
227.08270665491
 31
0.0
  0
LINE
  5
203
330
1F
100
AcDbEntity
  8
SKARN_FSET7
100
AcDbLine
 10
523.6415615740698
 20
348.9548063329421
 30
0.0
 11
526.7529704924673
 21
349.3292213855311
 31
0.0
  0
LINE
  5
204
330
1F
100
AcDbEntity
  8
SKARN_FSET7
100
AcDbLine
 10
528.8529330729507
 20
441.2481168415397
 30
0.0
 11
534.7094597587129
 21
442.1841544737108
 31
0.0
  0
LINE
  5
205
330
1F
100
AcDbEntity
  8
SKARN_FSET7
100
AcDbLine
 10
529.2573935586261
 20
404.7426491961814
 30
0.0
 11
531.8196608742
 21
405.1170642492361
 31
0.0
  0
LINE
  5
206
330
1F
100
AcDbEntity
  8
SKARN_FSET7
100
AcDbLine
 10
530.2384700337425
 20
167.9251283169724
 30
0.0
 11
531.885501344339
 21
168.2995433695614
 31
0.0
  0
LINE
  5
207
330
1F
100
AcDbEntity
  8
SKARN_FSET7
100
AcDbLine
 10
533.6050068351906
 20
273.8845882518217
 30
0.0
 11
535.801179748727
 21
274.2590033048764
 31
0.0
  0
LINE
  5
208
330
1F
100
AcDbEntity
  8
SKARN_FSET7
100
AcDbLine
 10
541.5290882530389
 20
49.23555658757687
 30
0.0
 11
543.1761195636354
 21
49.6099716401659
 31
0.0
  0
LINE
  5
209
330
1F
100
AcDbEntity
  8
SKARN_FSET7
100
AcDbLine
 10
544.0218473587884
 20
464.087435061112
 30
0.0
 11
548.2313427339541
 21
464.6490576397628
 31
0.0
  0
LINE
  5
20A
330
1F
100
AcDbEntity
  8
SKARN_FSET7
100
AcDbLine
 10
554.6786513477564
 20
251.7941001383588
 30
0.0
 11
558.7050995217869
 21
252.3557227174751
 31
0.0
  0
LINE
  5
20B
330
1F
100
AcDbEntity
  8
SKARN_FSET7
100
AcDbLine
 10
564.0311200128635
 20
583.9002519487403
 30
0.0
 11
565.8611985243624
 21
584.274667001795
 31
0.0
  0
LINE
  5
20C
330
1F
100
AcDbEntity
  8
SKARN_FSET7
100
AcDbLine
 10
574.0993620753288
 20
234.9454227630049
 30
0.0
 11
576.1124877878465
 21
235.3198378160596
 31
0.0
  0
LINE
  5
20D
330
1F
100
AcDbEntity
  8
SKARN_FSET7
100
AcDbLine
 10
575.3778822332388
 20
585.9595347391441
 30
0.0
 11
577.0249135437189
 21
586.3339497917332
 31
0.0
  0
LINE
  5
20E
330
1F
100
AcDbEntity
  8
SKARN_FSET7
100
AcDbLine
 10
586.4045893520815
 20
544.2122563547455
 30
0.0
 11
590.064549626084
 21
545.1482939864509
 31
0.0
  0
LINE
  5
20F
330
1F
100
AcDbEntity
  8
SKARN_FSET7
100
AcDbLine
 10
588.4251210381044
 20
363.3697858648375
 30
0.0
 11
592.2683252621209
 21
364.1186159704812
 31
0.0
  0
ENDSEC
  0
SECTION
  2
OBJECTS
  0
DICTIONARY
  5
C
330
0
100
AcDbDictionary
  3
ACAD_GROUP
350
D
  3
ACAD_LAYOUT
350
1A
  3
ACAD_MATERIAL
350
43
  3
ACAD_MLEADERSTYLE
350
6B
  3
ACAD_MLINESTYLE
350
17
  3
ACAD_PLOTSETTINGS
350
19
  3
ACAD_SCALELIST
350
47
  3
ACAD_VISUALSTYLE
350
2A
  3
ACDBHEADERROUNDTRIPXREC
350
211
  3
ACDBVARIABLEDICTIONARY
350
8F
  3
ESRI_PRJ
350
210
  0
DICTIONARY
  5
232
330
8
100
AcDbDictionary
280
     1
  3
ACAD_XREC_ROUNDTRIP
360
233
  0
DICTIONARY
  5
D
102
{ACAD_REACTORS
330
C
102
}
330
C
100
AcDbDictionary
  0
DICTIONARY
  5
1A
102
{ACAD_REACTORS
330
C
102
}
330
C
100
AcDbDictionary
  0
DICTIONARY
  5
43
102
{ACAD_REACTORS
330
C
102
}
330
C
100
AcDbDictionary
  3
BYBLOCK
350
45
  3
BYLAYER
350
44
  3
GLOBAL
350
46
  0
DICTIONARY
  5
6B
102
{ACAD_REACTORS
330
C
102
}
330
C
100
AcDbDictionary
  3
STANDARD
350
6C
  0
DICTIONARY
  5
17
102
{ACAD_REACTORS
330
C
102
}
330
C
100
AcDbDictionary
  3
STANDARD
350
18
  0
DICTIONARY
  5
19
102
{ACAD_REACTORS
330
C
102
}
330
C
100
AcDbDictionary
  0
DICTIONARY
  5
47
102
{ACAD_REACTORS
330
C
102
}
330
C
100
AcDbDictionary
  3
A0
350
48
  3
A1
350
49
  3
A2
350
4A
  3
A3
350
4B
  3
A4
350
4C
  3
A5
350
4D
  3
A6
350
4E
  3
A7
350
4F
  3
A8
350
50
  3
A9
350
51
  3
B0
350
52
  3
B1
350
53
  3
B2
350
54
  3
B3
350
55
  3
B4
350
56
  3
B5
350
57
  3
B6
350
58
  3
B7
350
59
  3
B8
350
5A
  3
B9
350
5B
  3
C0
350
5C
  3
C1
350
5D
  3
C2
350
5E
  3
C3
350
5F
  3
C4
350
60
  3
C5
350
61
  3
C6
350
62
  3
C7
350
63
  3
C8
350
64
  3
C9
350
65
  3
D0
350
66
  3
D1
350
67
  3
D2
350
68
  0
DICTIONARY
  5
2A
102
{ACAD_REACTORS
330
C
102
}
330
C
100
AcDbDictionary
  3
2DWIREFRAME
350
2F
  3
BASIC
350
32
  3
BRIGHTEN
350
36
  3
COLORCHANGE
350
3A
  3
CONCEPTUAL
350
34
  3
DIM
350
35
  3
EDGECOLOROFF
350
3D
  3
FACEPATTERN
350
39
  3
FLAT
350
2B
  3
FLATWITHEDGES
350
2C
  3
GOURAUD
350
2D
  3
GOURAUDWITHEDGES
350
2E
  3
HIDDEN
350
31
  3
JITTEROFF
350
3B
  3
LINEPATTERN
350
38
  3
OVERHANGOFF
350
3C
  3
REALISTIC
350
33
  3
SHADED
350
42
  3
SHADED_WITH_EDGES
350
41
  3
SHADES_OF_GRAY
350
3E
  3
SKETCHY
350
3F
  3
THICKEN
350
37
  3
WIREFRAME
350
30
  3
X-RAY
350
40
  0
DICTIONARY
  5
211
102
{ACAD_REACTORS
330
C
102
}
330
C
100
AcDbDictionary
  3
CEPSNID
350
21B
  3
CEPSNTYPE
350
21A
  3
DIMSTYLEDATA
350
231
  3
FINGERPRINTGUID
350
21C
  3
HYPERLINKBASE
350
214
  3
INSUNITS
350
219
  3
LAYOUTDICT
350
216
  3
LWETCUNION
350
218
  3
PLOTSETDICT
350
217
  3
PSVPSCALE
350
21E
  3
PUCSBASE
350
221
  3
PUCSORGBACK
350
227
  3
PUCSORGBOTTOM
350
223
  3
PUCSORGFRONT
350
226
  3
PUCSORGLEFT
350
224
  3
PUCSORGRIGHT
350
225
  3
PUCSORGTOP
350
222
  3
PUCSORTHOREF
350
21F
  3
PUCSORTHOVIEW
350
220
  3
STYLESHEET
350
215
  3
TSTACKALIGN
350
212
  3
TSTACKSIZE
350
213
  3
UCSBASE
350
22A
  3
UCSORGBACK
350
230
  3
UCSORGBOTTOM
350
22C
  3
UCSORGFRONT
350
22F
  3
UCSORGLEFT
350
22D
  3
UCSORGRIGHT
350
22E
  3
UCSORGTOP
350
22B
  3
UCSORTHOREF
350
228
  3
UCSORTHOVIEW
350
229
  3
VERSIONGUID
350
21D
  0
DICTIONARY
  5
8F
102
{ACAD_REACTORS
330
C
102
}
330
C
100
AcDbDictionary
  3
CANNOSCALE
350
98
  3
CMLEADERSTYLE
350
91
  3
CTABLESTYLE
350
90
  3
DIMASSOC
350
94
  3
HIDETEXT
350
95
  3
MSLTSCALE
350
99
  0
XRECORD
  5
210
102
{ACAD_REACTORS
330
C
102
}
330
C
100
AcDbXrecord
  1
PROJCS["WGS_1984_UTM_Zone_14N",GEOGCS["GCS_WGS_1984",DATUM["D_WGS_1984",SPHEROID["WGS_1984",6378137.0,298.257223563]],PRIMEM["Greenwich",0.0],UNIT["Degree",0.0174532925199433]],PROJECTION["Transverse_Mercator"],PARAMETER["False_Easting",500000.0],PARAMETER["False_Northing",0.0],PARAMETER["Central_Meridian",-99.0],PARAMETER["Scale_Factor",0.9996],PARAMETER["Latitude_Of_Origin",0.0],UNIT["Meter",1.0]]
  0
XRECORD
  5
233
102
{ACAD_REACTORS
330
232
102
}
330
232
100
AcDbXrecord
102
VTR_0.000_0.000_1.000_1.000_VISUALSTYLE
340
2F
102
VTR_0.000_0.000_1.000_1.000_GRIDDISPLAY
 70
     3
102
VTR_0.000_0.000_1.000_1.000_GRIDMAJOR
 70
     5
102
VTR_0.000_0.000_1.000_1.000_DEFAULTLIGHTING
280
     1
102
VTR_0.000_0.000_1.000_1.000_DEFAULTLIGHTINGTYPE
 70
     1
102
VTR_0.000_0.000_1.000_1.000_BRIGHTNESS
141
0.0
102
VTR_0.000_0.000_1.000_1.000_CONTRAST
142
0.0
  0
MATERIAL
  5
45
102
{ACAD_REACTORS
330
43
102
}
102
{ACAD_XDICTIONARY
360
236
102
}
330
43
100
AcDbMaterial
  1
BYBLOCK
  0
MATERIAL
  5
44
102
{ACAD_REACTORS
330
43
102
}
102
{ACAD_XDICTIONARY
360
234
102
}
330
43
100
AcDbMaterial
  1
BYLAYER
  0
MATERIAL
  5
46
102
{ACAD_REACTORS
330
43
102
}
102
{ACAD_XDICTIONARY
360
238
102
}
330
43
100
AcDbMaterial
  1
GLOBAL
  0
ACAD_PROXY_OBJECT
  5
6C
102
{ACAD_REACTORS
330
6B
102
}
330
6B
100
AcDbProxyObject
 90
      499
 91
      505
 93
      610
310
40901902A4063FBFFFFFE056BD1B81E855B9FC0AD7A3703D0AD73F4214DD185B99185C9900AD7A3703D0AC73F90141901A02B5E8DC0F42B1CFC02B5E8DC0F42B1CFE5764000000000000300FC0
340
14
340
0
340
11
340
0
 94
        0
1001
ACAD_MLEADERVER
1070
     2
  0
MLINESTYLE
  5
18
102
{ACAD_REACTORS
330
17
102
}
330
17
100
AcDbMlineStyle
  2
Standard
 70
     0
  3

 62
   256
 51
90.0
 52
90.0
 71
     2
 49
0.5
 62
   256
  6
BYLAYER
 49
-0.5
 62
   256
  6
BYLAYER
  0
ACAD_PROXY_OBJECT
  5
48
102
{ACAD_REACTORS
330
47
102
}
330
47
100
AcDbProxyObject
 90
      499
 91
      503
 93
       41
310
903313A31580
  0
ACAD_PROXY_OBJECT
  5
49
102
{ACAD_REACTORS
330
47
102
}
330
47
100
AcDbProxyObject
 90
      499
 91
      503
 93
      105
310
903313A324000000000000004000
  0
ACAD_PROXY_OBJECT
  5
4A
102
{ACAD_REACTORS
330
47
102
}
330
47
100
AcDbProxyObject
 90
      499
 91
      503
 93
      105
310
903313A344000000000000104000
  0
ACAD_PROXY_OBJECT
  5
4B
102
{ACAD_REACTORS
330
47
102
}
330
47
100
AcDbProxyObject
 90
      499
 91
      503
 93
      105
310
903313A354000000000000144000
  0
ACAD_PROXY_OBJECT
  5
4C
102
{ACAD_REACTORS
330
47
102
}
330
47
100
AcDbProxyObject
 90
      499
 91
      503
 93
      105
310
903313A384000000000000204000
  0
ACAD_PROXY_OBJECT
  5
4D
102
{ACAD_REACTORS
330
47
102
}
330
47
100
AcDbProxyObject
 90
      499
 91
      503
 93
      113
310
904313A31304000000000000244000
  0
ACAD_PROXY_OBJECT
  5
4E
102
{ACAD_REACTORS
330
47
102
}
330
47
100
AcDbProxyObject
 90
      499
 91
      503
 93
      113
310
904313A31364000000000000304000
  0
ACAD_PROXY_OBJECT
  5
4F
102
{ACAD_REACTORS
330
47
102
}
330
47
100
AcDbProxyObject
 90
      499
 91
      503
 93
      113
310
904313A32304000000000000344000
  0
ACAD_PROXY_OBJECT
  5
50
102
{ACAD_REACTORS
330
47
102
}
330
47
100
AcDbProxyObject
 90
      499
 91
      503
 93
      113
310
904313A333040000000000003E4000
  0
ACAD_PROXY_OBJECT
  5
51
102
{ACAD_REACTORS
330
47
102
}
330
47
100
AcDbProxyObject
 90
      499
 91
      503
 93
      113
310
904313A34304000000000000444000
  0
ACAD_PROXY_OBJECT
  5
52
102
{ACAD_REACTORS
330
47
102
}
330
47
100
AcDbProxyObject
 90
      499
 91
      503
 93
      113
310
904313A35304000000000000494000
  0
ACAD_PROXY_OBJECT
  5
53
102
{ACAD_REACTORS
330
47
102
}
330
47
100
AcDbProxyObject
 90
      499
 91
      503
 93
      121
310
905313A3130304000000000000594000
  0
ACAD_PROXY_OBJECT
  5
54
102
{ACAD_REACTORS
330
47
102
}
330
47
100
AcDbProxyObject
 90
      499
 91
      503
 93
      105
310
903323A310000000000000010100
  0
ACAD_PROXY_OBJECT
  5
55
102
{ACAD_REACTORS
330
47
102
}
330
47
100
AcDbProxyObject
 90
      499
 91
      503
 93
      105
310
903343A310000000000000410100
  0
ACAD_PROXY_OBJECT
  5
56
102
{ACAD_REACTORS
330
47
102
}
330
47
100
AcDbProxyObject
 90
      499
 91
      503
 93
      105
310
903383A310000000000000810100
  0
ACAD_PROXY_OBJECT
  5
57
102
{ACAD_REACTORS
330
47
102
}
330
47
100
AcDbProxyObject
 90
      499
 91
      503
 93
      113
310
90431303A310000000000000910100
  0
ACAD_PROXY_OBJECT
  5
58
102
{ACAD_REACTORS
330
47
102
}
330
47
100
AcDbProxyObject
 90
      499
 91
      503
 93
      121
310
9053130303A310000000000001650100
  0
ACAD_PROXY_OBJECT
  5
59
102
{ACAD_REACTORS
330
47
102
}
330
47
100
AcDbProxyObject
 90
      499
 91
      503
 93
      257
310
90E312F31323822203D2031272D3022000000000000200FC000000000000284000
  0
ACAD_PROXY_OBJECT
  5
5A
102
{ACAD_REACTORS
330
47
102
}
330
47
100
AcDbProxyObject
 90
      499
 91
      503
 93
      249
310
90D312F363422203D2031272D3022000000000000240FC000000000000284000
  0
ACAD_PROXY_OBJECT
  5
5B
102
{ACAD_REACTORS
330
47
102
}
330
47
100
AcDbProxyObject
 90
      499
 91
      503
 93
      249
310
90D312F333222203D2031272D3022000000000000280FC000000000000284000
  0
ACAD_PROXY_OBJECT
  5
5C
102
{ACAD_REACTORS
330
47
102
}
330
47
100
AcDbProxyObject
 90
      499
 91
      503
 93
      249
310
90D312F313622203D2031272D30220000000000002C0FC000000000000284000
  0
ACAD_PROXY_OBJECT
  5
5D
102
{ACAD_REACTORS
330
47
102
}
330
47
100
AcDbProxyObject
 90
      499
 91
      503
 93
      249
310
90D332F333222203D2031272D30220000000000002E0FC000000000000284000
  0
ACAD_PROXY_OBJECT
  5
5E
102
{ACAD_REACTORS
330
47
102
}
330
47
100
AcDbProxyObject
 90
      499
 91
      503
 93
      241
310
90C312F3822203D2031272D3022000000000000300FC000000000000284000
  0
ACAD_PROXY_OBJECT
  5
5F
102
{ACAD_REACTORS
330
47
102
}
330
47
100
AcDbProxyObject
 90
      499
 91
      503
 93
      249
310
90D332F313622203D2031272D3022000000000000320FC000000000000284000
  0
ACAD_PROXY_OBJECT
  5
60
102
{ACAD_REACTORS
330
47
102
}
330
47
100
AcDbProxyObject
 90
      499
 91
      503
 93
      241
310
90C312F3422203D2031272D3022000000000000340FC000000000000284000
  0
ACAD_PROXY_OBJECT
  5
61
102
{ACAD_REACTORS
330
47
102
}
330
47
100
AcDbProxyObject
 90
      499
 91
      503
 93
      241
310
90C332F3822203D2031272D3022000000000000360FC000000000000284000
  0
ACAD_PROXY_OBJECT
  5
62
102
{ACAD_REACTORS
330
47
102
}
330
47
100
AcDbProxyObject
 90
      499
 91
      503
 93
      241
310
90C312F3222203D2031272D3022000000000000380FC000000000000284000
  0
ACAD_PROXY_OBJECT
  5
63
102
{ACAD_REACTORS
330
47
102
}
330
47
100
AcDbProxyObject
 90
      499
 91
      503
 93
      241
310
90C332F3422203D2031272D30220000000000003A0FC000000000000284000
  0
ACAD_PROXY_OBJECT
  5
64
102
{ACAD_REACTORS
330
47
102
}
330
47
100
AcDbProxyObject
 90
      499
 91
      503
 93
      161
310
90A3122203D2031272D30224000000000000284000
  0
ACAD_PROXY_OBJECT
  5
65
102
{ACAD_REACTORS
330
47
102
}
330
47
100
AcDbProxyObject
 90
      499
 91
      503
 93
      257
310
90E312D312F3222203D2031272D30220000000000003E0FC000000000000284000
  0
ACAD_PROXY_OBJECT
  5
66
102
{ACAD_REACTORS
330
47
102
}
330
47
100
AcDbProxyObject
 90
      499
 91
      503
 93
      225
310
90A3322203D2031272D302200000000000002100000000000000284000
  0
ACAD_PROXY_OBJECT
  5
67
102
{ACAD_REACTORS
330
47
102
}
330
47
100
AcDbProxyObject
 90
      499
 91
      503
 93
      225
310
90A3622203D2031272D302200000000000006100000000000000284000
  0
ACAD_PROXY_OBJECT
  5
68
102
{ACAD_REACTORS
330
47
102
}
330
47
100
AcDbProxyObject
 90
      499
 91
      503
 93
      249
310
90D31272D3022203D2031272D30220000000000000A100000000000000284000
  0
ACAD_PROXY_OBJECT
  5
2F
102
{ACAD_REACTORS
330
2A
102
}
330
2A
100
AcDbProxyObject
 90
      499
 91
      501
 93
      436
310
42CC9915DA5C99599C985B595049028333333333333E33F0000000000000F90107901411070040501600405405064090741402480A0340
1001
ACAD
1000
AcDbSavedByObjectVersion
1070
     0
  0
ACAD_PROXY_OBJECT
  5
32
102
{ACAD_REACTORS
330
2A
102
}
330
2A
100
AcDbProxyObject
 90
      499
 91
      501
 93
      388
310
4150985CDA58D07406404333333333333E33F0000000000000F90107A41107004050150841D405064090741402480A0350
1001
ACAD
1000
AcDbSavedByObjectVersion
1070
     0
  0
ACAD_PROXY_OBJECT
  5
36
102
{ACAD_REACTORS
330
2A
102
}
330
2A
100
AcDbProxyObject
 90
      499
 91
      501
 93
      428
310
42109C9A59DA1D195B90C409028333333333333E33F0000000000000F9010790141107004050150841D405064090741402480A029950
1001
ACAD
1000
AcDbSavedByObjectVersion
1070
     0
  0
ACAD_PROXY_OBJECT
  5
3A
102
{ACAD_REACTORS
330
2A
102
}
330
2A
100
AcDbProxyObject
 90
      499
 91
      501
 93
      452
310
42D0DBDB1BDC90DA185B99D95104090240C333333333333E33F0000000000000F90108901411070040501508421405064090741402480A0350
1001
ACAD
1000
AcDbSavedByObjectVersion
1070
     0
  0
ACAD_PROXY_OBJECT
  5
34
102
{ACAD_REACTORS
330
2A
102
}
330
2A
100
AcDbProxyObject
 90
      499
 91
      501
 93
      500
310
4290DBDB98D95C1D1D585B10940D028333333333333E33F0000000000000F90107902409070040501000000000018199010841D405064090740C02480A0340
1001
ACAD
1000
AcDbSavedByObjectVersion
1070
     0
  0
ACAD_PROXY_OBJECT
  5
35
102
{ACAD_REACTORS
330
2A
102
}
330
2A
100
AcDbProxyObject
 90
      499
 91
      501
 93
      412
310
40D11A5B50B409028333333333333E33F0000000000000F9010790141107004050150841D405064090741402480A02677FFFFFD0
1001
ACAD
1000
AcDbSavedByObjectVersion
1070
     0
  0
ACAD_PROXY_OBJECT
  5
3D
102
{ACAD_REACTORS
330
2A
102
}
330
2A
100
AcDbProxyObject
 90
      499
 91
      501
 93
      452
310
43115919D950DBDB1BDC93D999916409028333333333333E33F0000000000000F9010790141107004050150841D405064090741402480A0350
1001
ACAD
1000
AcDbSavedByObjectVersion
1070
     0
  0
ACAD_PROXY_OBJECT
  5
39
102
{ACAD_REACTORS
330
2A
102
}
330
2A
100
AcDbProxyObject
 90
      499
 91
      501
 93
      444
310
42D19858D95C185D1D195C9B90F409028333333333333E33F0000000000000F9010790141107004050150841D405064090741402480A0350
1001
ACAD
1000
AcDbSavedByObjectVersion
1070
     0
  0
ACAD_PROXY_OBJECT
  5
2B
102
{ACAD_REACTORS
330
2A
102
}
330
2A
100
AcDbProxyObject
 90
      499
 91
      501
 93
      380
310
41119B185D240901404333333333333E33F0000000000000F9010740A907004050150841D405064090741402480A1B50
1001
ACAD
1000
AcDbSavedByObjectVersion
1070
     0
  0
ACAD_PROXY_OBJECT
  5
2C
102
{ACAD_REACTORS
330
2A
102
}
330
2A
100
AcDbProxyObject
 90
      499
 91
      501
 93
      468
310
43519B185D15DA5D1A115919D95CD0140901404333333333333E33F0000000000000F90107409019070040501600405405064090741402480A1B50
1001
ACAD
1000
AcDbSavedByObjectVersion
1070
     0
  0
ACAD_PROXY_OBJECT
  5
2D
102
{ACAD_REACTORS
330
2A
102
}
330
2A
100
AcDbProxyObject
 90
      499
 91
      501
 93
      404
310
41D1DBDD5C985D5910240902404333333333333E33F0000000000000F9010740A9070040501641D405064090741402480A1B50
1001
ACAD
1000
AcDbSavedByObjectVersion
1070
     0
  0
ACAD_PROXY_OBJECT
  5
2E
102
{ACAD_REACTORS
330
2A
102
}
330
2A
100
AcDbProxyObject
 90
      499
 91
      501
 93
      492
310
4411DBDD5C985D5915DA5D1A115919D95CD0340902404333333333333E33F0000000000000F90107409019070040501600405405064090741402480A1B50
1001
ACAD
1000
AcDbSavedByObjectVersion
1070
     0
  0
ACAD_PROXY_OBJECT
  5
31
102
{ACAD_REACTORS
330
2A
102
}
330
2A
100
AcDbProxyObject
 90
      499
 91
      501
 93
      476
310
41921A5919195B90640502408333333333333E33F0000000000000F901079024090700405020000000000001110200405405064090740C02480A0340
1001
ACAD
1000
AcDbSavedByObjectVersion
1070
     0
  0
ACAD_PROXY_OBJECT
  5
3B
102
{ACAD_REACTORS
330
2A
102
}
330
2A
100
AcDbProxyObject
 90
      499
 91
      501
 93
      428
310
42529A5D1D195C93D999914409028333333333333E33F0000000000000F9010790141107004050150A41D405064090741402480A0350
1001
ACAD
1000
AcDbSavedByObjectVersion
1070
     0
  0
ACAD_PROXY_OBJECT
  5
38
102
{ACAD_REACTORS
330
2A
102
}
330
2A
100
AcDbProxyObject
 90
      499
 91
      501
 93
      444
310
42D31A5B995C185D1D195C9B90E409028333333333333E33F0000000000000F9010790141107004050750841D405064090741402483A0350
1001
ACAD
1000
AcDbSavedByObjectVersion
1070
     0
  0
ACAD_PROXY_OBJECT
  5
3C
102
{ACAD_REACTORS
330
2A
102
}
330
2A
100
AcDbProxyObject
 90
      499
 91
      501
 93
      444
310
42D3DD995C9A185B99D3D999915409028333333333333E33F0000000000000F9010790141107004050150941D405064090741402480A0350
1001
ACAD
1000
AcDbSavedByObjectVersion
1070
     0
  0
ACAD_PROXY_OBJECT
  5
33
102
{ACAD_REACTORS
330
2A
102
}
330
2A
100
AcDbProxyObject
 90
      499
 91
      501
 93
      428
310
425499585B1A5CDD1A58D08409038333333333333E33F0000000000000F9010740A907004050150800405405064090740C02480A1B40
1001
ACAD
1000
AcDbSavedByObjectVersion
1070
     0
  0
ACAD_PROXY_OBJECT
  5
42
102
{ACAD_REACTORS
330
2A
102
}
330
2A
100
AcDbProxyObject
 90
      499
 91
      501
 93
      420
310
4194DA1859195911B40902404333333333333E33F0000000000000F9010740A41107004050150800405405064090840C02480A0B40
1001
ACAD
1000
AcDbSavedByObjectVersion
1070
     0
  0
ACAD_PROXY_OBJECT
  5
41
102
{ACAD_REACTORS
330
2A
102
}
330
2A
100
AcDbProxyObject
 90
      499
 91
      501
 93
      516
310
4454DA18591959081DDA5D1A08195919D95CD1A40902404333333333333E33F0000000000000F901074090142907004050250800405405064090740C02480A0B40
1001
ACAD
1000
AcDbSavedByObjectVersion
1070
     0
  0
ACAD_PROXY_OBJECT
  5
3E
102
{ACAD_REACTORS
330
2A
102
}
330
2A
100
AcDbProxyObject
 90
      499
 91
      501
 93
      532
310
4394DA1859195CC81BD98811DC985E5174090240C333333333333E33F0000000000000F901079024090741D01000000000000111010841D405064090740C02480A0340
1001
ACAD
1000
AcDbSavedByObjectVersion
1070
     0
  0
ACAD_PROXY_OBJECT
  5
3F
102
{ACAD_REACTORS
330
2A
102
}
330
2A
100
AcDbProxyObject
 90
      499
 91
      501
 93
      476
310
41D4DAD95D18DA1E51840502408333333333333E33F0000000000000F901079024090741D01000000000000111010B41D405064090741802480A0340
1001
ACAD
1000
AcDbSavedByObjectVersion
1070
     0
  0
ACAD_PROXY_OBJECT
  5
37
102
{ACAD_REACTORS
330
2A
102
}
330
2A
100
AcDbProxyObject
 90
      499
 91
      501
 93
      412
310
41D51A1A58DAD95B90D409028333333333333E33F0000000000000F9010790141107004050150C41D405064090741402480A0350
1001
ACAD
1000
AcDbSavedByObjectVersion
1070
     0
  0
ACAD_PROXY_OBJECT
  5
30
102
{ACAD_REACTORS
330
2A
102
}
330
2A
100
AcDbProxyObject
 90
      499
 91
      501
 93
      420
310
4255DA5C99599C985B595059028333333333333E33F0000000000000F90107901411070040501600405405064090740C02480A0340
1001
ACAD
1000
AcDbSavedByObjectVersion
1070
     0
  0
ACAD_PROXY_OBJECT
  5
40
102
{ACAD_REACTORS
330
2A
102
}
330
2A
100
AcDbProxyObject
 90
      499
 91
      501
 93
      404
310
41560B54985E51940902404000000000000E03F0000000000000F9010740501907004050150841D405064090740C02480A1B40
1001
ACAD
1000
AcDbSavedByObjectVersion
1070
     0
  0
XRECORD
  5
21B
102
{ACAD_REACTORS
330
211
102
}
330
211
100
AcDbXrecord
340
0
  0
XRECORD
  5
21A
102
{ACAD_REACTORS
330
211
102
}
330
211
100
AcDbXrecord
 90
        0
  0
XRECORD
  5
231
102
{ACAD_REACTORS
330
211
102
}
330
211
100
AcDbXrecord
1000
DSTYLE
1002
{
1070
   340
340
11
1002
}
  0
XRECORD
  5
21C
102
{ACAD_REACTORS
330
211
102
}
330
211
100
AcDbXrecord
  1
{27C605DF-9E83-4C9D-9A93-9CE52D8E807D}
  0
XRECORD
  5
214
102
{ACAD_REACTORS
330
211
102
}
330
211
100
AcDbXrecord
  1

  0
XRECORD
  5
219
102
{ACAD_REACTORS
330
211
102
}
330
211
100
AcDbXrecord
 90
        1
  0
XRECORD
  5
216
102
{ACAD_REACTORS
330
211
102
}
330
211
100
AcDbXrecord
340
1A
  0
XRECORD
  5
218
102
{ACAD_REACTORS
330
211
102
}
330
211
100
AcDbXrecord
 90
    10781
  0
XRECORD
  5
217
102
{ACAD_REACTORS
330
211
102
}
330
211
100
AcDbXrecord
340
19
  0
XRECORD
  5
21E
102
{ACAD_REACTORS
330
211
102
}
330
211
100
AcDbXrecord
 40
0.0
  0
XRECORD
  5
221
102
{ACAD_REACTORS
330
211
102
}
330
211
100
AcDbXrecord
340
0
  0
XRECORD
  5
227
102
{ACAD_REACTORS
330
211
102
}
330
211
100
AcDbXrecord
 10
0.0
 20
0.0
 30
0.0
  0
XRECORD
  5
223
102
{ACAD_REACTORS
330
211
102
}
330
211
100
AcDbXrecord
 10
0.0
 20
0.0
 30
0.0
  0
XRECORD
  5
226
102
{ACAD_REACTORS
330
211
102
}
330
211
100
AcDbXrecord
 10
0.0
 20
0.0
 30
0.0
  0
XRECORD
  5
224
102
{ACAD_REACTORS
330
211
102
}
330
211
100
AcDbXrecord
 10
0.0
 20
0.0
 30
0.0
  0
XRECORD
  5
225
102
{ACAD_REACTORS
330
211
102
}
330
211
100
AcDbXrecord
 10
0.0
 20
0.0
 30
0.0
  0
XRECORD
  5
222
102
{ACAD_REACTORS
330
211
102
}
330
211
100
AcDbXrecord
 10
0.0
 20
0.0
 30
0.0
  0
XRECORD
  5
21F
102
{ACAD_REACTORS
330
211
102
}
330
211
100
AcDbXrecord
340
0
  0
XRECORD
  5
220
102
{ACAD_REACTORS
330
211
102
}
330
211
100
AcDbXrecord
 70
     0
  0
XRECORD
  5
215
102
{ACAD_REACTORS
330
211
102
}
330
211
100
AcDbXrecord
  1

  0
XRECORD
  5
212
102
{ACAD_REACTORS
330
211
102
}
330
211
100
AcDbXrecord
 90
        1
  0
XRECORD
  5
213
102
{ACAD_REACTORS
330
211
102
}
330
211
100
AcDbXrecord
 90
       70
  0
XRECORD
  5
22A
102
{ACAD_REACTORS
330
211
102
}
330
211
100
AcDbXrecord
340
0
  0
XRECORD
  5
230
102
{ACAD_REACTORS
330
211
102
}
330
211
100
AcDbXrecord
 10
0.0
 20
0.0
 30
0.0
  0
XRECORD
  5
22C
102
{ACAD_REACTORS
330
211
102
}
330
211
100
AcDbXrecord
 10
0.0
 20
0.0
 30
0.0
  0
XRECORD
  5
22F
102
{ACAD_REACTORS
330
211
102
}
330
211
100
AcDbXrecord
 10
0.0
 20
0.0
 30
0.0
  0
XRECORD
  5
22D
102
{ACAD_REACTORS
330
211
102
}
330
211
100
AcDbXrecord
 10
0.0
 20
0.0
 30
0.0
  0
XRECORD
  5
22E
102
{ACAD_REACTORS
330
211
102
}
330
211
100
AcDbXrecord
 10
0.0
 20
0.0
 30
0.0
  0
XRECORD
  5
22B
102
{ACAD_REACTORS
330
211
102
}
330
211
100
AcDbXrecord
 10
0.0
 20
0.0
 30
0.0
  0
XRECORD
  5
228
102
{ACAD_REACTORS
330
211
102
}
330
211
100
AcDbXrecord
340
0
  0
XRECORD
  5
229
102
{ACAD_REACTORS
330
211
102
}
330
211
100
AcDbXrecord
 70
     0
  0
XRECORD
  5
21D
102
{ACAD_REACTORS
330
211
102
}
330
211
100
AcDbXrecord
  1
{FAEB1C32-E019-11D5-929B-00C0DF256EC4}
  0
DICTIONARYVAR
  5
98
102
{ACAD_REACTORS
330
8F
102
}
330
8F
100
DictionaryVariables
280
     0
  1
1:1
  0
DICTIONARYVAR
  5
91
102
{ACAD_REACTORS
330
8F
102
}
330
8F
100
DictionaryVariables
280
     0
  1
Standard
  0
DICTIONARYVAR
  5
90
102
{ACAD_REACTORS
330
8F
102
}
330
8F
100
DictionaryVariables
280
     0
  1
Standard
  0
DICTIONARYVAR
  5
94
102
{ACAD_REACTORS
330
8F
102
}
330
8F
100
DictionaryVariables
280
     0
  1
2
  0
DICTIONARYVAR
  5
95
102
{ACAD_REACTORS
330
8F
102
}
330
8F
100
DictionaryVariables
280
     0
  1
1
  0
DICTIONARYVAR
  5
99
102
{ACAD_REACTORS
330
8F
102
}
330
8F
100
DictionaryVariables
280
     0
  1
1
  0
DICTIONARY
  5
236
330
45
100
AcDbDictionary
280
     1
  3
ACAD_XREC_ROUNDTRIP
360
237
  0
DICTIONARY
  5
234
330
44
100
AcDbDictionary
280
     1
  3
ACAD_XREC_ROUNDTRIP
360
235
  0
DICTIONARY
  5
238
330
46
100
AcDbDictionary
280
     1
  3
ACAD_XREC_ROUNDTRIP
360
239
  0
XRECORD
  5
237
102
{ACAD_REACTORS
330
236
102
}
330
236
100
AcDbXrecord
102
MATERIAL
148
0.0
149
0.0
149
0.0
 93
        0
 94
      127
282
     0
 72
     1
 77
     1
171
     1
175
     1
179
     1
273
     0
  0
XRECORD
  5
235
102
{ACAD_REACTORS
330
234
102
}
330
234
100
AcDbXrecord
102
MATERIAL
148
0.0
149
0.0
149
0.0
 93
        0
 94
      127
282
     0
 72
     1
 77
     1
171
     1
175
     1
179
     1
273
     0
  0
XRECORD
  5
239
102
{ACAD_REACTORS
330
238
102
}
330
238
100
AcDbXrecord
102
MATERIAL
148
0.0
149
0.0
149
0.0
 93
        0
 94
      127
282
     0
 72
     1
 77
     1
171
     1
175
     1
179
     1
273
     0
  0
ENDSEC
  0
EOF
