  0
SECTION
  2
HEADER
  9
$ACADVER
  1
AC1014
  9
$ACADMAINTVER
 70
     9
  9
$DWGCODEPAGE
  3
ANSI_1252
  9
$INSBASE
 10
0.0
 20
0.0
 30
0.0
  9
$EXTMIN
 10
0.1516243956284598
 20
0.1871846741996706
 30
0.0
  9
$EXTMAX
 10
596.5591485291952
 20
599.8128916914575
 30
0.0
  9
$LIMMIN
 10
0.0
 20
0.0
  9
$LIMMAX
 10
12.0
 20
9.0
  9
$ORTHOMODE
 70
     0
  9
$REGENMODE
 70
     1
  9
$FILLMODE
 70
     1
  9
$QTEXTMODE
 70
     0
  9
$MIRRTEXT
 70
     1
  9
$DRAGMODE
 70
     2
  9
$LTSCALE
 40
1.0
  9
$OSMODE
 70
    37
  9
$ATTMODE
 70
     1
  9
$TEXTSIZE
 40
0.2
  9
$TRACEWID
 40
0.05
  9
$TEXTSTYLE
  7
STANDARD
  9
$CLAYER
  8
0
  9
$CELTYPE
  6
BYLAYER
  9
$CECOLOR
 62
   256
  9
$CELTSCALE
 40
1.0
  9
$DELOBJ
 70
     1
  9
$DISPSILH
 70
     0
  9
$DIMSCALE
 40
1.0
  9
$DIMASZ
 40
0.18
  9
$DIMEXO
 40
0.0625
  9
$DIMDLI
 40
0.38
  9
$DIMRND
 40
0.0
  9
$DIMDLE
 40
0.0
  9
$DIMEXE
 40
0.18
  9
$DIMTP
 40
0.0
  9
$DIMTM
 40
0.0
  9
$DIMTXT
 40
0.18
  9
$DIMCEN
 40
0.09
  9
$DIMTSZ
 40
0.0
  9
$DIMTOL
 70
     0
  9
$DIMLIM
 70
     0
  9
$DIMTIH
 70
     1
  9
$DIMTOH
 70
     1
  9
$DIMSE1
 70
     0
  9
$DIMSE2
 70
     0
  9
$DIMTAD
 70
     0
  9
$DIMZIN
 70
     0
  9
$DIMBLK
  1

  9
$DIMASO
 70
     1
  9
$DIMSHO
 70
     1
  9
$DIMPOST
  1

  9
$DIMAPOST
  1

  9
$DIMALT
 70
     0
  9
$DIMALTD
 70
     2
  9
$DIMALTF
 40
25.4
  9
$DIMLFAC
 40
1.0
  9
$DIMTOFL
 70
     0
  9
$DIMTVP
 40
0.0
  9
$DIMTIX
 70
     0
  9
$DIMSOXD
 70
     0
  9
$DIMSAH
 70
     0
  9
$DIMBLK1
  1

  9
$DIMBLK2
  1

  9
$DIMSTYLE
  2
STANDARD
  9
$DIMCLRD
 70
     0
  9
$DIMCLRE
 70
     0
  9
$DIMCLRT
 70
     0
  9
$DIMTFAC
 40
1.0
  9
$DIMGAP
 40
0.09
  9
$DIMJUST
 70
     0
  9
$DIMSD1
 70
     0
  9
$DIMSD2
 70
     0
  9
$DIMTOLJ
 70
     1
  9
$DIMTZIN
 70
     0
  9
$DIMALTZ
 70
     0
  9
$DIMALTTZ
 70
     0
  9
$DIMFIT
 70
     3
  9
$DIMUPT
 70
     0
  9
$DIMUNIT
 70
     2
  9
$DIMDEC
 70
     4
  9
$DIMTDEC
 70
     4
  9
$DIMALTU
 70
     2
  9
$DIMALTTD
 70
     2
  9
$DIMTXSTY
  7
STANDARD
  9
$DIMAUNIT
 70
     0
  9
$LUNITS
 70
     2
  9
$LUPREC
 70
     4
  9
$SKETCHINC
 40
0.1
  9
$FILLETRAD
 40
0.5
  9
$AUNITS
 70
     0
  9
$AUPREC
 70
     0
  9
$MENU
  1
.
  9
$ELEVATION
 40
0.0
  9
$PELEVATION
 40
0.0
  9
$THICKNESS
 40
0.0
  9
$LIMCHECK
 70
     0
  9
$CHAMFERA
 40
0.0
  9
$CHAMFERB
 40
0.0
  9
$CHAMFERC
 40
0.0
  9
$CHAMFERD
 40
0.0
  9
$SKPOLY
 70
     0
  9
$TDCREATE
 40
2458589.580633484
  9
$TDUPDATE
 40
2458589.580634387
  9
$TDINDWG
 40
0.0000000116
  9
$TDUSRTIMER
 40
0.0000000116
  9
$USRTIMER
 70
     1
  9
$ANGBASE
 50
0.0
  9
$ANGDIR
 70
     0
  9
$PDMODE
 70
     0
  9
$PDSIZE
 40
0.0
  9
$PLINEWID
 40
0.0
  9
$COORDS
 70
     1
  9
$SPLFRAME
 70
     0
  9
$SPLINETYPE
 70
     6
  9
$SPLINESEGS
 70
     8
  9
$ATTDIA
 70
     0
  9
$ATTREQ
 70
     1
  9
$HANDLING
 70
     1
  9
$HANDSEED
  5
22E
  9
$SURFTAB1
 70
     6
  9
$SURFTAB2
 70
     6
  9
$SURFTYPE
 70
     6
  9
$SURFU
 70
     6
  9
$SURFV
 70
     6
  9
$UCSNAME
  2

  9
$UCSORG
 10
0.0
 20
0.0
 30
0.0
  9
$UCSXDIR
 10
1.0
 20
0.0
 30
0.0
  9
$UCSYDIR
 10
0.0
 20
1.0
 30
0.0
  9
$PUCSNAME
  2

  9
$PUCSORG
 10
0.0
 20
0.0
 30
0.0
  9
$PUCSXDIR
 10
1.0
 20
0.0
 30
0.0
  9
$PUCSYDIR
 10
0.0
 20
1.0
 30
0.0
  9
$USERI1
 70
     0
  9
$USERI2
 70
     0
  9
$USERI3
 70
     0
  9
$USERI4
 70
     0
  9
$USERI5
 70
     0
  9
$USERR1
 40
0.0
  9
$USERR2
 40
0.0
  9
$USERR3
 40
0.0
  9
$USERR4
 40
0.0
  9
$USERR5
 40
0.0
  9
$WORLDVIEW
 70
     1
  9
$SHADEDGE
 70
     3
  9
$SHADEDIF
 70
    70
  9
$TILEMODE
 70
     1
  9
$MAXACTVP
 70
    64
  9
$PINSBASE
 10
0.0
 20
0.0
 30
0.0
  9
$PLIMCHECK
 70
     0
  9
$PEXTMIN
 10
1.000000000000000E+20
 20
1.000000000000000E+20
 30
1.000000000000000E+20
  9
$PEXTMAX
 10
-1.000000000000000E+20
 20
-1.000000000000000E+20
 30
-1.000000000000000E+20
  9
$PLIMMIN
 10
0.0
 20
0.0
  9
$PLIMMAX
 10
12.0
 20
9.0
  9
$UNITMODE
 70
     0
  9
$VISRETAIN
 70
     1
  9
$PLINEGEN
 70
     0
  9
$PSLTSCALE
 70
     1
  9
$TREEDEPTH
 70
  3020
  9
$PICKSTYLE
 70
     1
  9
$CMLSTYLE
  2
STANDARD
  9
$CMLJUST
 70
     0
  9
$CMLSCALE
 40
1.0
  9
$PROXYGRAPHICS
 70
     1
  9
$MEASUREMENT
 70
     0
  0
ENDSEC
  0
SECTION
  2
CLASSES
  0
CLASS
  1
ACDBDICTIONARYWDFLT
  2
AcDbDictionaryWithDefault
  3
ObjectDBX Classes
 90
        0
280
     0
281
     0
  0
CLASS
  1
VISUALSTYLE
  2
AcDbVisualStyle
  3
ObjectDBX Classes
 90
     4095
280
     0
281
     0
  0
CLASS
  1
MATERIAL
  2
AcDbMaterial
  3
ObjectDBX Classes
 90
     1153
280
     0
281
     0
  0
CLASS
  1
SCALE
  2
AcDbScale
  3
ObjectDBX Classes
 90
     1153
280
     0
281
     0
  0
CLASS
  1
TABLESTYLE
  2
AcDbTableStyle
  3
ObjectDBX Classes
 90
     4095
280
     0
281
     0
  0
CLASS
  1
MLEADERSTYLE
  2
AcDbMLeaderStyle
  3
ACDB_MLEADERSTYLE_CLASS
 90
     4095
280
     0
281
     0
  0
CLASS
  1
SUN
  2
AcDbSun
  3
SCENEOE
 90
     1153
280
     0
281
     0
  0
CLASS
  1
DICTIONARYVAR
  2
AcDbDictionaryVar
  3
ObjectDBX Classes
 90
        0
280
     0
281
     0
  0
CLASS
  1
XRECORD
  2
AcDbXrecord
  3
ObjectDBX Classes
 90
        0
280
     0
281
     0
  0
CLASS
  1
LWPOLYLINE
  2
AcDbPolyline
  3
ObjectDBX Classes
 90
        0
280
     0
281
     1
  0
CLASS
  1
HATCH
  2
AcDbHatch
  3
ObjectDBX Classes
 90
        0
280
     0
281
     1
  0
CLASS
  1
ACDBPLACEHOLDER
  2
AcDbPlaceHolder
  3
ObjectDBX Classes
 90
        0
280
     0
281
     0
  0
CLASS
  1
LAYOUT
  2
AcDbLayout
  3
ObjectDBX Classes
 90
        0
280
     0
281
     0
  0
ENDSEC
  0
SECTION
  2
TABLES
  0
TABLE
  2
VPORT
  5
8
102
{ACAD_XDICTIONARY
360
225
102
}
330
0
100
AcDbSymbolTable
 70
     1
  0
VPORT
  5
29
330
8
100
AcDbSymbolTableRecord
100
AcDbViewportTableRecord
  2
*ACTIVE
 70
     0
 10
0.0
 20
0.0
 11
1.0
 21
1.0
 12
298.3553864624118
 22
300.0000381828286
 13
0.0
 23
0.0
 14
0.5
 24
0.5
 15
0.5
 25
0.5
 16
0.0
 26
0.0
 36
1.0
 17
0.0
 27
0.0
 37
0.0
 40
611.618221157603
 41
0.9946330138184044
 42
50.0
 43
0.0
 44
0.0
 50
0.0
 51
0.0
 71
     0
 72
   100
 73
     1
 74
     3
 75
     0
 76
     0
 77
     0
 78
     0
  0
ENDTAB
  0
TABLE
  2
LTYPE
  5
5
330
0
100
AcDbSymbolTable
 70
     1
  0
LTYPE
  5
14
330
5
100
AcDbSymbolTableRecord
100
AcDbLinetypeTableRecord
  2
BYBLOCK
 70
     0
  3

 72
    65
 73
     0
 40
0.0
  0
LTYPE
  5
15
330
5
100
AcDbSymbolTableRecord
100
AcDbLinetypeTableRecord
  2
BYLAYER
 70
     0
  3

 72
    65
 73
     0
 40
0.0
  0
LTYPE
  5
16
330
5
100
AcDbSymbolTableRecord
100
AcDbLinetypeTableRecord
  2
CONTINUOUS
 70
     0
  3
Solid line
 72
    65
 73
     0
 40
0.0
  0
ENDTAB
  0
TABLE
  2
LAYER
  5
2
330
0
100
AcDbSymbolTable
 70
     2
  0
LAYER
  5
10
330
2
100
AcDbSymbolTableRecord
100
AcDbLayerTableRecord
  2
0
 70
     0
 62
     7
  6
CONTINUOUS
  0
LAYER
  5
A1
330
2
100
AcDbSymbolTableRecord
100
AcDbLayerTableRecord
  2
SKARN_FSET1
 70
     0
 62
   114
  6
CONTINUOUS
  0
ENDTAB
  0
TABLE
  2
STYLE
  5
3
330
0
100
AcDbSymbolTable
 70
     1
  0
STYLE
  5
11
330
3
100
AcDbSymbolTableRecord
100
AcDbTextStyleTableRecord
  2
STANDARD
 70
     0
 40
0.0
 41
1.0
 50
0.0
 71
     0
 42
0.2
  3
txt
  4

  0
ENDTAB
  0
TABLE
  2
VIEW
  5
6
330
0
100
AcDbSymbolTable
 70
     0
  0
ENDTAB
  0
TABLE
  2
UCS
  5
7
330
0
100
AcDbSymbolTable
 70
     0
  0
ENDTAB
  0
TABLE
  2
APPID
  5
9
330
0
100
AcDbSymbolTable
 70
     2
  0
APPID
  5
12
330
9
100
AcDbSymbolTableRecord
100
AcDbRegAppTableRecord
  2
ACAD
 70
     0
  0
APPID
  5
22D
330
9
100
AcDbSymbolTableRecord
100
AcDbRegAppTableRecord
  2
ACAD_MLEADERVER
 70
     0
  0
ENDTAB
  0
TABLE
  2
DIMSTYLE
  5
A
330
0
100
AcDbSymbolTable
 70
     1
  0
DIMSTYLE
105
27
330
A
100
AcDbSymbolTableRecord
100
AcDbDimStyleTableRecord
  2
STANDARD
 70
     0
  3

  4

  5

  6

  7

 40
1.0
 41
0.18
 42
0.0625
 43
0.38
 44
0.18
 45
0.0
 46
0.0
 47
0.0
 48
0.0
140
0.18
141
0.09
142
0.0
143
25.4
144
1.0
145
0.0
146
1.0
147
0.09
 71
     0
 72
     0
 73
     1
 74
     1
 75
     0
 76
     0
 77
     0
 78
     0
170
     0
171
     2
172
     0
173
     0
174
     0
175
     0
176
     0
177
     0
178
     0
270
     2
271
     4
272
     4
273
     2
274
     2
340
11
275
     0
280
     0
281
     0
282
     0
283
     1
284
     0
285
     0
286
     0
287
     3
288
     0
  0
ENDTAB
  0
TABLE
  2
BLOCK_RECORD
  5
1
330
0
100
AcDbSymbolTable
 70
     1
  0
BLOCK_RECORD
  5
1F
330
1
100
AcDbSymbolTableRecord
100
AcDbBlockTableRecord
  2
*MODEL_SPACE
  0
BLOCK_RECORD
  5
1B
330
1
100
AcDbSymbolTableRecord
100
AcDbBlockTableRecord
  2
*PAPER_SPACE
  0
ENDTAB
  0
ENDSEC
  0
SECTION
  2
BLOCKS
  0
BLOCK
  5
20
330
1F
100
AcDbEntity
  8
0
100
AcDbBlockBegin
  2
*MODEL_SPACE
 70
     0
 10
0.0
 20
0.0
 30
0.0
  3
*MODEL_SPACE
  1

  0
ENDBLK
  5
21
330
1F
100
AcDbEntity
  8
0
100
AcDbBlockEnd
  0
BLOCK
  5
1C
330
1B
100
AcDbEntity
 67
     1
  8
0
100
AcDbBlockBegin
  2
*PAPER_SPACE
 70
     0
 10
0.0
 20
0.0
 30
0.0
  3
*PAPER_SPACE
  1

  0
ENDBLK
  5
1D
330
1B
100
AcDbEntity
 67
     1
  8
0
100
AcDbBlockEnd
  0
ENDSEC
  0
SECTION
  2
ENTITIES
  0
LINE
  5
A2
330
1F
100
AcDbEntity
  8
SKARN_FSET1
100
AcDbLine
 10
0.1516243956284598
 20
499.2824500217102
 30
0.0
 11
1.615215006982908
 21
500.031280127354
 31
0.0
  0
LINE
  5
A3
330
1F
100
AcDbEntity
  8
SKARN_FSET1
100
AcDbLine
 10
1.213564770179801
 20
185.5226357970387
 30
0.0
 11
2.494108180515468
 21
186.2714659026824
 31
0.0
  0
LINE
  5
A4
330
1F
100
AcDbEntity
  8
SKARN_FSET1
100
AcDbLine
 10
1.370837833033875
 20
210.0468217539601
 30
0.0
 11
3.749861198244616
 21
210.6084443330765
 31
0.0
  0
LINE
  5
A5
330
1F
100
AcDbEntity
  8
SKARN_FSET1
100
AcDbLine
 10
2.562183385365643
 20
121.4976617726497
 30
0.0
 11
3.842530046589673
 21
122.4336994048208
 31
0.0
  0
LINE
  5
A6
330
1F
100
AcDbEntity
  8
SKARN_FSET1
100
AcDbLine
 10
2.989270023070276
 20
63.46332859294489
 30
0.0
 11
4.26961668417789
 21
64.39936622511595
 31
0.0
  0
LINE
  5
A7
330
1F
100
AcDbEntity
  8
SKARN_FSET1
100
AcDbLine
 10
2.979447298916057
 20
595.3199110580608
 30
0.0
 11
4.442644411930814
 21
596.4431562167592
 31
0.0
  0
LINE
  5
A8
330
1F
100
AcDbEntity
  8
SKARN_FSET1
100
AcDbLine
 10
5.410397705854848
 20
23.96254052547738
 30
0.0
 11
7.42253967281431
 21
25.27299320977181
 31
0.0
  0
LINE
  5
A9
330
1F
100
AcDbEntity
  8
SKARN_FSET1
100
AcDbLine
 10
5.800298754591495
 20
1.310429832432419
 30
0.0
 11
7.263889365945943
 21
2.059259938076138
 31
0.0
  0
LINE
  5
AA
330
1F
100
AcDbEntity
  8
SKARN_FSET1
100
AcDbLine
 10
5.855655759107322
 20
122.8081144574098
 30
0.0
 11
5.855459009995684
 21
122.9953219839372
 31
0.0
  0
LINE
  5
AB
330
1F
100
AcDbEntity
  8
SKARN_FSET1
100
AcDbLine
 10
5.358273915131576
 20
596.0687411641702
 30
0.0
 11
6.639014074578881
 21
596.6303637428209
 31
0.0
  0
LINE
  5
AC
330
1F
100
AcDbEntity
  8
SKARN_FSET1
100
AcDbLine
 10
5.597984870546497
 20
542.1529735643417
 30
0.0
 11
5.781032071448863
 21
542.1529735643417
 31
0.0
  0
LINE
  5
AD
330
1F
100
AcDbEntity
  8
SKARN_FSET1
100
AcDbLine
 10
5.970501500181854
 20
361.8721256540157
 30
0.0
 11
7.799202767782845
 21
363.5569933913648
 31
0.0
  0
LINE
  5
AE
330
1F
100
AcDbEntity
  8
SKARN_FSET1
100
AcDbLine
 10
6.904358180006966
 20
169.9844111073762
 30
0.0
 11
9.648885699803941
 21
171.1076562651433
 31
0.0
  0
LINE
  5
AF
330
1F
100
AcDbEntity
  8
SKARN_FSET1
100
AcDbLine
 10
6.483511754195206
 20
570.421310049016
 30
0.0
 11
9.04459857486654
 21
571.9189702598378
 31
0.0
  0
LINE
  5
B0
330
1F
100
AcDbEntity
  8
SKARN_FSET1
100
AcDbLine
 10
7.402218749630265
 20
392.9485750338063
 30
0.0
 11
9.414360716473311
 21
394.259027719032
 31
0.0
  0
LINE
  5
B1
330
1F
100
AcDbEntity
  8
SKARN_FSET1
100
AcDbLine
 10
7.377231607912108
 20
416.723930885084
 30
0.0
 11
9.389767073094845
 21
417.659968517255
 31
0.0
  0
LINE
  5
B2
330
1F
100
AcDbEntity
  8
SKARN_FSET1
100
AcDbLine
 10
7.733221309375949
 20
252.1685151909478
 30
0.0
 11
9.013764719595201
 21
252.9173452961259
 31
0.0
  0
LINE
  5
B3
330
1F
100
AcDbEntity
  8
SKARN_FSET1
100
AcDbLine
 10
8.395690420991741
 20
144.336979992222
 30
0.0
 11
10.04232823324855
 21
145.0858100974001
 31
0.0
  0
LINE
  5
B4
330
1F
100
AcDbEntity
  8
SKARN_FSET1
100
AcDbLine
 10
8.72747997730039
 20
2.808090043254197
 30
0.0
 11
10.19087383931037
 21
3.744127675425261
 31
0.0
  0
LINE
  5
B5
330
1F
100
AcDbEntity
  8
SKARN_FSET1
100
AcDbLine
 10
9.434091391973197
 20
27.14506847364828
 30
0.0
 11
12.7267767690355
 21
29.20435126405209
 31
0.0
  0
LINE
  5
B6
330
1F
100
AcDbEntity
  8
SKARN_FSET1
100
AcDbLine
 10
9.208757857559249
 20
589.8908927929588
 30
0.0
 11
10.48930126789492
 21
590.6397228990681
 31
0.0
  0
LINE
  5
B7
330
1F
100
AcDbEntity
  8
SKARN_FSET1
100
AcDbLine
 10
9.207380613544956
 20
591.2013454777189
 30
0.0
 11
9.390427814563736
 21
591.2013454777189
 31
0.0
  0
LINE
  5
B8
330
1F
100
AcDbEntity
  8
SKARN_FSET1
100
AcDbLine
 10
10.93658257357311
 20
339.2200149609707
 30
0.0
 11
12.58302363671828
 21
340.1560525931418
 31
0.0
  0
LINE
  5
B9
330
1F
100
AcDbEntity
  8
SKARN_FSET1
100
AcDbLine
 10
11.17911851103418
 20
456.7863415316679
 30
0.0
 11
13.19165397621691
 21
457.7223791638389
 31
0.0
  0
LINE
  5
BA
330
1F
100
AcDbEntity
  8
SKARN_FSET1
100
AcDbLine
 10
11.64621571975295
 20
534.8518800353631
 30
0.0
 11
17.13487726124004
 21
537.4727854048833
 31
0.0
  0
LINE
  5
BB
330
1F
100
AcDbEntity
  8
SKARN_FSET1
100
AcDbLine
 10
11.78558461007196
 20
576.4119508932345
 30
0.0
 11
13.4314354256494
 21
577.9096111045219
 31
0.0
  0
LINE
  5
BC
330
1F
100
AcDbEntity
  8
SKARN_FSET1
100
AcDbLine
 10
13.11726806533989
 20
5.99061799235642
 30
0.0
 11
15.13000027963426
 21
6.739448098000139
 31
0.0
  0
LINE
  5
BD
330
1F
100
AcDbEntity
  8
SKARN_FSET1
100
AcDbLine
 10
12.73072648525704
 20
547.9564068824984
 30
0.0
 11
14.37716754840221
 21
548.8924445142038
 31
0.0
  0
LINE
  5
BE
330
1F
100
AcDbEntity
  8
SKARN_FSET1
100
AcDbLine
 10
12.96256747480948
 20
501.5289403386414
 30
0.0
 11
15.88935519906227
 21
503.4010156020522
 31
0.0
  0
LINE
  5
BF
330
1F
100
AcDbEntity
  8
SKARN_FSET1
100
AcDbLine
 10
12.8669473893242
 20
592.511798162479
 30
0.0
 11
14.69643565325532
 21
593.44783579465
 31
0.0
  0
LINE
  5
C0
330
1F
100
AcDbEntity
  8
SKARN_FSET1
100
AcDbLine
 10
14.38588027178776
 20
192.2621067473665
 30
0.0
 11
15.84947088302579
 21
193.0109368525445
 31
0.0
  0
LINE
  5
C1
330
1F
100
AcDbEntity
  8
SKARN_FSET1
100
AcDbLine
 10
15.68531160021666
 20
175.0390143194236
 30
0.0
 11
16.96585501055233
 21
175.7878444250673
 31
0.0
  0
LINE
  5
C2
330
1F
100
AcDbEntity
  8
SKARN_FSET1
100
AcDbLine
 10
15.30381500383373
 20
538.0344079839997
 30
0.0
 11
16.76760236429982
 21
538.5960305631161
 31
0.0
  0
LINE
  5
C3
330
1F
100
AcDbEntity
  8
SKARN_FSET1
100
AcDbLine
 10
17.18301030807197
 20
317.5039419000968
 30
0.0
 11
19.01230182300787
 21
318.6271870587952
 31
0.0
  0
LINE
  5
C4
330
1F
100
AcDbEntity
  8
SKARN_FSET1
100
AcDbLine
 10
17.45571935921907
 20
580.5305164735764
 30
0.0
 11
18.91990021802485
 21
580.7177240001038
 31
0.0
  0
LINE
  5
C5
330
1F
100
AcDbEntity
  8
SKARN_FSET1
100
AcDbLine
 10
17.62401037430391
 20
594.5710809528828
 30
0.0
 11
18.90435703529511
 21
595.5071185845882
 31
0.0
  0
LINE
  5
C6
330
1F
100
AcDbEntity
  8
SKARN_FSET1
100
AcDbLine
 10
18.73783676279709
 20
579.7816863683984
 30
0.0
 11
20.20162412314676
 21
580.3433089475147
 31
0.0
  0
LINE
  5
C7
330
1F
100
AcDbEntity
  8
SKARN_FSET1
100
AcDbLine
 10
20.60692736634519
 20
194.6958045903593
 30
0.0
 11
22.07051797758322
 21
195.4446346955374
 31
0.0
  0
LINE
  5
C8
330
1F
100
AcDbEntity
  8
SKARN_FSET1
100
AcDbLine
 10
20.55793682869989
 20
241.310478660278
 30
0.0
 11
21.6554330381332
 21
242.0593087663874
 31
0.0
  0
LINE
  5
C9
330
1F
100
AcDbEntity
  8
SKARN_FSET1
100
AcDbLine
 10
21.11489263665862
 20
582.2153842113912
 30
0.0
 11
22.39523929764982
 21
583.1514218430966
 31
0.0
  0
LINE
  5
CA
330
1F
100
AcDbEntity
  8
SKARN_FSET1
100
AcDbLine
 10
22.60576088540256
 20
382.8393686087802
 30
0.0
 11
24.25220194831491
 21
383.7754062409513
 31
0.0
  0
LINE
  5
CB
330
1F
100
AcDbEntity
  8
SKARN_FSET1
100
AcDbLine
 10
23.35787711385638
 20
15.53820183780044
 30
0.0
 11
25.00412142788991
 21
16.66144699603319
 31
0.0
  0
LINE
  5
CC
330
1F
100
AcDbEntity
  8
SKARN_FSET1
100
AcDbLine
 10
23.53974382008892
 20
16.66144699603319
 30
0.0
 11
24.6372400294058
 21
17.41027710167691
 31
0.0
  0
LINE
  5
CD
330
1F
100
AcDbEntity
  8
SKARN_FSET1
100
AcDbLine
 10
23.88728804129642
 20
382.6521610827185
 30
0.0
 11
25.16783145151567
 21
383.4009911883622
 31
0.0
  0
LINE
  5
CE
330
1F
100
AcDbEntity
  8
SKARN_FSET1
100
AcDbLine
 10
24.78939761419315
 20
46.80185874411836
 30
0.0
 11
26.25239797797985
 21
48.11231142934412
 31
0.0
  0
LINE
  5
CF
330
1F
100
AcDbEntity
  8
SKARN_FSET1
100
AcDbLine
 10
24.69672876584809
 20
134.976603672374
 30
0.0
 11
25.79402822605334
 21
135.9126413045451
 31
0.0
  0
LINE
  5
D0
330
1F
100
AcDbEntity
  8
SKARN_FSET1
100
AcDbLine
 10
24.57993026659824
 20
420.2808738867752
 30
0.0
 11
26.4094185307622
 21
421.2169115184806
 31
0.0
  0
LINE
  5
D1
330
1F
100
AcDbEntity
  8
SKARN_FSET1
100
AcDbLine
 10
25.55832274782006
 20
360.1872579162009
 30
0.0
 11
27.02171660983004
 21
361.1232955479063
 31
0.0
  0
LINE
  5
D2
330
1F
100
AcDbEntity
  8
SKARN_FSET1
100
AcDbLine
 10
26.10161763732322
 20
17.41027710167691
 30
0.0
 11
27.5650114993332
 21
18.34631473384798
 31
0.0
  0
LINE
  5
D3
330
1F
100
AcDbEntity
  8
SKARN_FSET1
100
AcDbLine
 10
27.14121383638121
 20
421.5913265710697
 30
0.0
 11
28.60460769862402
 21
422.5273642032407
 31
0.0
  0
LINE
  5
D4
330
1F
100
AcDbEntity
  8
SKARN_FSET1
100
AcDbLine
 10
27.66037907474674
 20
275.9438710422255
 30
0.0
 11
30.03861544362735
 21
277.2543237265199
 31
0.0
  0
LINE
  5
D5
330
1F
100
AcDbEntity
  8
SKARN_FSET1
100
AcDbLine
 10
27.78105679608416
 20
335.2886569066904
 30
0.0
 11
29.79339551227167
 21
336.4119020653889
 31
0.0
  0
LINE
  5
D6
330
1F
100
AcDbEntity
  8
SKARN_FSET1
100
AcDbLine
 10
28.42385099327657
 20
246.1778743467294
 30
0.0
 11
26.96085062937345
 21
244.8674216615036
 31
0.0
  0
LINE
  5
D7
330
1F
100
AcDbEntity
  8
SKARN_FSET1
100
AcDbLine
 10
30.82923874421977
 20
221.6536883898079
 30
0.0
 11
32.1095854054438
 21
222.589726021979
 31
0.0
  0
LINE
  5
D8
330
1F
100
AcDbEntity
  8
SKARN_FSET1
100
AcDbLine
 10
31.01090870110784
 20
222.964141074568
 30
0.0
 11
32.29164886067156
 21
223.5257636536844
 31
0.0
  0
LINE
  5
D9
330
1F
100
AcDbEntity
  8
SKARN_FSET1
100
AcDbLine
 10
31.08660136198159
 20
499.2824500217102
 30
0.0
 11
32.36753827054054
 21
499.6568650747649
 31
0.0
  0
LINE
  5
DA
330
1F
100
AcDbEntity
  8
SKARN_FSET1
100
AcDbLine
 10
31.53119867364876
 20
424.5866469931789
 30
0.0
 11
32.99459253589157
 21
425.5226846253499
 31
0.0
  0
LINE
  5
DB
330
1F
100
AcDbEntity
  8
SKARN_FSET1
100
AcDbLine
 10
31.86771020945162
 20
278.5647764117457
 30
0.0
 11
33.51395452348515
 21
279.6880215699784
 31
0.0
  0
LINE
  5
DC
330
1F
100
AcDbEntity
  8
SKARN_FSET1
100
AcDbLine
 10
31.62846324651036
 20
506.2091284980997
 30
0.0
 11
32.90900665684603
 21
506.9579586037435
 31
0.0
  0
LINE
  5
DD
330
1F
100
AcDbEntity
  8
SKARN_FSET1
100
AcDbLine
 10
32.50531843444332
 20
20.21838999772444
 30
0.0
 11
33.78586184466258
 21
20.9672201029025
 31
0.0
  0
LINE
  5
DE
330
1F
100
AcDbEntity
  8
SKARN_FSET1
100
AcDbLine
 10
33.35090524132829
 20
86.48985433857888
 30
0.0
 11
34.63105515332427
 21
87.61309949681163
 31
0.0
  0
LINE
  5
DF
330
1F
100
AcDbEntity
  8
SKARN_FSET1
100
AcDbLine
 10
34.64425207942259
 20
597.566401374992
 30
0.0
 11
36.83963799639605
 21
598.6896465336904
 31
0.0
  0
LINE
  5
E0
330
1F
100
AcDbEntity
  8
SKARN_FSET1
100
AcDbLine
 10
36.82703131763265
 20
88.174722075928
 30
0.0
 11
38.10757472796831
 21
88.92355218157172
 31
0.0
  0
LINE
  5
E1
330
1F
100
AcDbEntity
  8
SKARN_FSET1
100
AcDbLine
 10
37.60507740615867
 20
567.0515745738521
 30
0.0
 11
39.06847126816865
 21
567.9876122060232
 31
0.0
  0
LINE
  5
E2
330
1F
100
AcDbEntity
  8
SKARN_FSET1
100
AcDbLine
 10
38.43091880413704
 20
477.940792013891
 30
0.0
 11
40.26021031907294
 21
479.0640371716581
 31
0.0
  0
LINE
  5
E3
330
1F
100
AcDbEntity
  8
SKARN_FSET1
100
AcDbLine
 10
39.59110749722458
 20
244.8674216615036
 30
0.0
 11
39.77415469824336
 21
244.8674216615036
 31
0.0
  0
LINE
  5
E4
330
1F
100
AcDbEntity
  8
SKARN_FSET1
100
AcDbLine
 10
40.82475411647465
 20
116.0686435075477
 30
0.0
 11
41.92205357656348
 21
117.0046811392531
 31
0.0
  0
LINE
  5
E5
330
1F
100
AcDbEntity
  8
SKARN_FSET1
100
AcDbLine
 10
40.34901467862073
 20
568.7364423112012
 30
0.0
 11
41.4465108878212
 21
569.485272416845
 31
0.0
  0
LINE
  5
E6
330
1F
100
AcDbEntity
  8
SKARN_FSET1
100
AcDbLine
 10
40.83092383400071
 20
284.3682097299024
 30
0.0
 11
41.92940378910862
 21
284.1810022033751
 31
0.0
  0
LINE
  5
E7
330
1F
100
AcDbEntity
  8
SKARN_FSET1
100
AcDbLine
 10
41.61104893579613
 20
64.58657375117764
 30
0.0
 11
42.89178909535985
 21
65.14819633029401
 31
0.0
  0
LINE
  5
E8
330
1F
100
AcDbEntity
  8
SKARN_FSET1
100
AcDbLine
 10
41.56271913973615
 20
284.7426247820258
 30
0.0
 11
43.02630975109059
 21
285.4914548876695
 31
0.0
  0
LINE
  5
E9
330
1F
100
AcDbEntity
  8
SKARN_FSET1
100
AcDbLine
 10
42.19796637503896
 20
28.64272868447006
 30
0.0
 11
43.84440743806772
 21
29.57876631664112
 31
0.0
  0
LINE
  5
EA
330
1F
100
AcDbEntity
  8
SKARN_FSET1
100
AcDbLine
 10
42.40737796179019
 20
3.556920148897916
 30
0.0
 11
43.50467742187902
 21
4.492957781068981
 31
0.0
  0
LINE
  5
EB
330
1F
100
AcDbEntity
  8
SKARN_FSET1
100
AcDbLine
 10
43.7359986579977
 20
132.7301133559085
 30
0.0
 11
46.29728222778067
 21
134.0405660406686
 31
0.0
  0
LINE
  5
EC
330
1F
100
AcDbEntity
  8
SKARN_FSET1
100
AcDbLine
 10
43.60909545817412
 20
253.4789678757079
 30
0.0
 11
44.7065916673746
 21
254.2277979813516
 31
0.0
  0
LINE
  5
ED
330
1F
100
AcDbEntity
  8
SKARN_FSET1
100
AcDbLine
 10
44.11645574762952
 20
119.0639639296569
 30
0.0
 11
44.29930619953666
 21
119.2511714561842
 31
0.0
  0
LINE
  5
EE
330
1F
100
AcDbEntity
  8
SKARN_FSET1
100
AcDbLine
 10
46.01074497541413
 20
232.5117249200121
 30
0.0
 11
46.92499723471701
 21
233.4477625521831
 31
0.0
  0
LINE
  5
EF
330
1F
100
AcDbEntity
  8
SKARN_FSET1
100
AcDbLine
 10
46.54958512855228
 20
68.14351675286889
 30
0.0
 11
48.3788766436046
 21
69.26676191063598
 31
0.0
  0
LINE
  5
F0
330
1F
100
AcDbEntity
  8
SKARN_FSET1
100
AcDbLine
 10
46.44230108242482
 20
518.564825240057
 30
0.0
 11
48.08913564379327
 21
519.1264478187077
 31
0.0
  0
LINE
  5
F1
330
1F
100
AcDbEntity
  8
SKARN_FSET1
100
AcDbLine
 10
54.08659047994297
 20
37.62868995126337
 30
0.0
 11
55.18507043493446
 21
37.44148242520168
 31
0.0
  0
LINE
  5
F2
330
1F
100
AcDbEntity
  8
SKARN_FSET1
100
AcDbLine
 10
54.87978625262622
 20
502.0905629177578
 30
0.0
 11
56.34318011486903
 21
503.0266005494632
 31
0.0
  0
LINE
  5
F3
330
1F
100
AcDbEntity
  8
SKARN_FSET1
100
AcDbLine
 10
55.17091922950931
 20
573.4166304711252
 30
0.0
 11
56.63450984086376
 21
574.165460576769
 31
0.0
  0
LINE
  5
F4
330
1F
100
AcDbEntity
  8
SKARN_FSET1
100
AcDbLine
 10
55.71868358843494
 20
574.7270831558853
 30
0.0
 11
56.9996204971103
 21
575.1014982084744
 31
0.0
  0
LINE
  5
F5
330
1F
100
AcDbEntity
  8
SKARN_FSET1
100
AcDbLine
 10
57.95537209301256
 20
14.04054162697867
 30
0.0
 11
59.60181315627415
 21
14.97657925868407
 31
0.0
  0
LINE
  5
F6
330
1F
100
AcDbEntity
  8
SKARN_FSET1
100
AcDbLine
 10
58.28055740566924
 20
575.4759132610634
 30
0.0
 11
59.56110081600491
 21
576.2247433671728
 31
0.0
  0
LINE
  5
F7
330
1F
100
AcDbEntity
  8
SKARN_FSET1
100
AcDbLine
 10
62.49824575090315
 20
394.0718201925047
 30
0.0
 11
63.96183636214118
 21
394.8206502976827
 31
0.0
  0
LINE
  5
F8
330
1F
100
AcDbEntity
  8
SKARN_FSET1
100
AcDbLine
 10
63.45787656889297
 20
177.6599196889438
 30
0.0
 11
64.73841997934505
 21
178.4087497945875
 31
0.0
  0
LINE
  5
F9
330
1F
100
AcDbEntity
  8
SKARN_FSET1
100
AcDbLine
 10
63.42331921320874
 20
384.7114438726567
 30
0.0
 11
64.88710657367483
 21
385.2730664522387
 31
0.0
  0
LINE
  5
FA
330
1F
100
AcDbEntity
  8
SKARN_FSET1
100
AcDbLine
 10
64.3393422147492
 20
383.9626137674786
 30
0.0
 11
65.80312957509886
 21
384.5242363461293
 31
0.0
  0
LINE
  5
FB
330
1F
100
AcDbEntity
  8
SKARN_FSET1
100
AcDbLine
 10
64.85687769914512
 20
588.2060250556096
 30
0.0
 11
66.13742110936437
 21
588.9548551607877
 31
0.0
  0
LINE
  5
FC
330
1F
100
AcDbEntity
  8
SKARN_FSET1
100
AcDbLine
 10
65.47021528484765
 20
178.7831648471765
 30
0.0
 11
67.29950679989997
 21
179.9064100058749
 31
0.0
  0
LINE
  5
FD
330
1F
100
AcDbEntity
  8
SKARN_FSET1
100
AcDbLine
 10
65.70146602694876
 20
132.9173208824359
 30
0.0
 11
66.98220618639607
 21
133.4789434615523
 31
0.0
  0
LINE
  5
FE
330
1F
100
AcDbEntity
  8
SKARN_FSET1
100
AcDbLine
 10
65.78003943071235
 20
232.3245173939504
 30
0.0
 11
65.77984268171713
 21
232.5117249200121
 31
0.0
  0
LINE
  5
FF
330
1F
100
AcDbEntity
  8
SKARN_FSET1
100
AcDbLine
 10
66.177149703959
 20
28.64272868447006
 30
0.0
 11
68.55499257426709
 21
30.3275964227505
 31
0.0
  0
LINE
  5
100
330
1F
100
AcDbEntity
  8
SKARN_FSET1
100
AcDbLine
 10
66.50881300517358
 20
61.40404580254108
 30
0.0
 11
67.97201011807192
 21
62.52729096123949
 31
0.0
  0
LINE
  5
101
330
1F
100
AcDbEntity
  8
SKARN_FSET1
100
AcDbLine
 10
66.13624061457813
 20
590.0781003194861
 30
0.0
 11
67.59963447670452
 21
591.0141379511915
 31
0.0
  0
LINE
  5
102
330
1F
100
AcDbEntity
  8
SKARN_FSET1
100
AcDbLine
 10
67.60709621105343
 20
61.40404580254108
 30
0.0
 11
70.16837978071999
 21
62.71449848776683
 31
0.0
  0
LINE
  5
103
330
1F
100
AcDbEntity
  8
SKARN_FSET1
100
AcDbLine
 10
67.84759416303132
 20
6.739448098000139
 30
0.0
 11
69.12833432247862
 21
7.301070676650852
 31
0.0
  0
LINE
  5
104
330
1F
100
AcDbEntity
  8
SKARN_FSET1
100
AcDbLine
 10
67.61051144066732
 20
232.3245173939504
 30
0.0
 11
69.98874780943152
 21
233.6349700787105
 31
0.0
  0
LINE
  5
105
330
1F
100
AcDbEntity
  8
SKARN_FSET1
100
AcDbLine
 10
68.3720158674987
 20
204.4305959623307
 30
0.0
 11
70.75005548715126
 21
205.9282561736181
 31
0.0
  0
LINE
  5
106
330
1F
100
AcDbEntity
  8
SKARN_FSET1
100
AcDbLine
 10
68.82081540545914
 20
299.9064344195649
 30
0.0
 11
70.46745321771596
 21
300.6552645252086
 31
0.0
  0
LINE
  5
107
330
1F
100
AcDbEntity
  8
SKARN_FSET1
100
AcDbLine
 10
69.25616550713312
 20
234.0093851312995
 30
0.0
 11
71.26771722652484
 21
235.881460395176
 31
0.0
  0
LINE
  5
108
330
1F
100
AcDbEntity
  8
SKARN_FSET1
100
AcDbLine
 10
69.63157761306502
 20
399.3136309310794
 30
0.0
 11
71.27841217454989
 21
399.8752535101958
 31
0.0
  0
LINE
  5
109
330
1F
100
AcDbEntity
  8
SKARN_FSET1
100
AcDbLine
 10
70.44495332078077
 20
147.8939229934476
 30
0.0
 11
71.5426462792093
 21
148.455545572564
 31
0.0
  0
LINE
  5
10A
330
1F
100
AcDbEntity
  8
SKARN_FSET1
100
AcDbLine
 10
71.11647289327811
 20
31.45084158051759
 30
0.0
 11
71.29971684340853
 21
31.26363405445591
 31
0.0
  0
LINE
  5
10B
330
1F
100
AcDbEntity
  8
SKARN_FSET1
100
AcDbLine
 10
70.53606290905736
 20
583.713044422213
 30
0.0
 11
71.99926002218854
 21
584.8362895804457
 31
0.0
  0
LINE
  5
10C
330
1F
100
AcDbEntity
  8
SKARN_FSET1
100
AcDbLine
 10
71.32470398512669
 20
7.488278203178197
 30
0.0
 11
73.33723945019301
 21
8.424315835349262
 31
0.0
  0
LINE
  5
10D
330
1F
100
AcDbEntity
  8
SKARN_FSET1
100
AcDbLine
 10
72.05519254074898
 20
183.2761454805732
 30
0.0
 11
73.88468080491293
 21
184.2121831127442
 31
0.0
  0
LINE
  5
10E
330
1F
100
AcDbEntity
  8
SKARN_FSET1
100
AcDbLine
 10
72.39740980195347
 20
31.82525663357228
 30
0.0
 11
73.67795321217272
 21
32.57408673875034
 31
0.0
  0
LINE
  5
10F
330
1F
100
AcDbEntity
  8
SKARN_FSET1
100
AcDbLine
 10
72.94603165145963
 20
206.4898787527345
 30
0.0
 11
75.14141756831668
 21
207.6131239109673
 31
0.0
  0
LINE
  5
110
330
1F
100
AcDbEntity
  8
SKARN_FSET1
100
AcDbLine
 10
73.49569300771691
 20
31.82525663357228
 30
0.0
 11
74.95928361907136
 21
32.57408673875034
 31
0.0
  0
LINE
  5
111
330
1F
100
AcDbEntity
  8
SKARN_FSET1
100
AcDbLine
 10
73.4739948407514
 20
400.8112911419012
 30
0.0
 11
74.9373887028778
 21
401.7473287740722
 31
0.0
  0
LINE
  5
112
330
1F
100
AcDbEntity
  8
SKARN_FSET1
100
AcDbLine
 10
74.98348376411013
 20
9.54756099358201
 30
0.0
 11
76.08097997342702
 21
10.29639109922573
 31
0.0
  0
LINE
  5
113
330
1F
100
AcDbEntity
  8
SKARN_FSET1
100
AcDbLine
 10
75.40677640703507
 20
303.4633774207905
 30
0.0
 11
75.59041385550518
 21
302.9017548416741
 31
0.0
  0
LINE
  5
114
330
1F
100
AcDbEntity
  8
SKARN_FSET1
100
AcDbLine
 10
76.07745322200935
 20
536.1623327201232
 30
0.0
 11
77.35779988323338
 21
537.0983703518286
 31
0.0
  0
LINE
  5
115
330
1F
100
AcDbEntity
  8
SKARN_FSET1
100
AcDbLine
 10
77.21376477426384
 20
151.6380735212006
 30
0.0
 11
79.2261034901021
 21
152.7613186794333
 31
0.0
  0
LINE
  5
116
330
1F
100
AcDbEntity
  8
SKARN_FSET1
100
AcDbLine
 10
77.23547767451964
 20
305.1482451586053
 30
0.0
 11
79.43066684238147
 21
306.4586978433654
 31
0.0
  0
LINE
  5
117
330
1F
100
AcDbEntity
  8
SKARN_FSET1
100
AcDbLine
 10
79.49394957360346
 20
72.07487480668351
 30
0.0
 11
80.95754018484149
 21
72.82370491186157
 31
0.0
  0
LINE
  5
118
330
1F
100
AcDbEntity
  8
SKARN_FSET1
100
AcDbLine
 10
79.75748190900777
 20
518.0032026604749
 30
0.0
 11
79.94052910991013
 21
518.0032026604749
 31
0.0
  0
LINE
  5
119
330
1F
100
AcDbEntity
  8
SKARN_FSET1
100
AcDbLine
 10
81.29989843419753
 20
269.5788151449524
 30
0.0
 11
82.39739464351442
 21
270.3276452505961
 31
0.0
  0
LINE
  5
11A
330
1F
100
AcDbEntity
  8
SKARN_FSET1
100
AcDbLine
 10
81.60315936396364
 20
155.1950165224262
 30
0.0
 11
84.1648364320863
 21
156.1310541545972
 31
0.0
  0
LINE
  5
11B
330
1F
100
AcDbEntity
  8
SKARN_FSET1
100
AcDbLine
 10
82.82441078685224
 20
38.1903125308454
 30
0.0
 11
84.47045835177414
 21
39.50076521513984
 31
0.0
  0
LINE
  5
11C
330
1F
100
AcDbEntity
  8
SKARN_FSET1
100
AcDbLine
 10
82.58103209186811
 20
269.7660226714797
 30
0.0
 11
85.50801656534895
 21
271.4508904088289
 31
0.0
  0
LINE
  5
11D
330
1F
100
AcDbEntity
  8
SKARN_FSET1
100
AcDbLine
 10
82.39274315803777
 20
448.923625423573
 30
0.0
 11
84.22183792386204
 21
450.2340781083331
 31
0.0
  0
LINE
  5
11E
330
1F
100
AcDbEntity
  8
SKARN_FSET1
100
AcDbLine
 10
83.9825762277469
 20
155.3822240489535
 30
0.0
 11
85.26311963808257
 21
156.1310541545972
 31
0.0
  0
LINE
  5
11F
330
1F
100
AcDbEntity
  8
SKARN_FSET1
100
AcDbLine
 10
83.85672726773191
 20
449.2980404766276
 30
0.0
 11
84.03977446863428
 21
449.2980404766276
 31
0.0
  0
LINE
  5
120
330
1F
100
AcDbEntity
  8
SKARN_FSET1
100
AcDbLine
 10
89.05464933055919
 20
380.2184632397257
 30
0.0
 11
90.88413759460673
 21
381.1545008714311
 31
0.0
  0
LINE
  5
121
330
1F
100
AcDbEntity
  8
SKARN_FSET1
100
AcDbLine
 10
90.18505840830039
 20
1.310429832432419
 30
0.0
 11
92.3806410743855
 21
2.246467464603484
 31
0.0
  0
LINE
  5
122
330
1F
100
AcDbEntity
  8
SKARN_FSET1
100
AcDbLine
 10
90.01592463592533
 20
336.4119020653889
 30
0.0
 11
90.93017689499538
 21
337.3479396970943
 31
0.0
  0
LINE
  5
123
330
1F
100
AcDbEntity
  8
SKARN_FSET1
100
AcDbLine
 10
90.51902693836018
 20
380.2184632397257
 30
0.0
 11
91.79976709780749
 21
380.7800858188421
 31
0.0
  0
LINE
  5
124
330
1F
100
AcDbEntity
  8
SKARN_FSET1
100
AcDbLine
 10
90.89705254416913
 20
194.6958045903593
 30
0.0
 11
91.99435200437438
 21
195.6318422220647
 31
0.0
  0
LINE
  5
125
330
1F
100
AcDbEntity
  8
SKARN_FSET1
100
AcDbLine
 10
92.01456140563823
 20
524.7426736103371
 30
0.0
 11
92.01436465641018
 21
524.9298811368644
 31
0.0
  0
LINE
  5
126
330
1F
100
AcDbEntity
  8
SKARN_FSET1
100
AcDbLine
 10
92.92840543331113
 20
3.556920148897916
 30
0.0
 11
94.02590164262801
 21
4.305750254541636
 31
0.0
  0
LINE
  5
127
330
1F
100
AcDbEntity
  8
SKARN_FSET1
100
AcDbLine
 10
93.61140695039649
 20
50.35880174580961
 30
0.0
 11
95.62374566635117
 21
51.48204690404236
 31
0.0
  0
LINE
  5
128
330
1F
100
AcDbEntity
  8
SKARN_FSET1
100
AcDbLine
 10
95.95220522035379
 20
435.631891050376
 30
0.0
 11
97.41481208591722
 21
437.3167587877251
 31
0.0
  0
LINE
  5
129
330
1F
100
AcDbEntity
  8
SKARN_FSET1
100
AcDbLine
 10
97.0101548510138
 20
474.0094339596108
 30
0.0
 11
97.0097613526741
 21
474.3838490126655
 31
0.0
  0
LINE
  5
12A
330
1F
100
AcDbEntity
  8
SKARN_FSET1
100
AcDbLine
 10
97.13614479941316
 20
528.2996166120283
 30
0.0
 11
98.78238911333028
 21
529.4228617702611
 31
0.0
  0
LINE
  5
12B
330
1F
100
AcDbEntity
  8
SKARN_FSET1
100
AcDbLine
 10
98.41667347645853
 20
6.552240571472794
 30
0.0
 11
99.88065758591983
 21
6.926655624061823
 31
0.0
  0
LINE
  5
12C
330
1F
100
AcDbEntity
  8
SKARN_FSET1
100
AcDbLine
 10
99.22534193773754
 20
282.1217194129713
 30
0.0
 11
101.6035783065017
 21
283.4321720977314
 31
0.0
  0
LINE
  5
12D
330
1F
100
AcDbEntity
  8
SKARN_FSET1
100
AcDbLine
 10
99.74332668120041
 20
137.5975090423599
 30
0.0
 11
99.9263738822192
 21
137.5975090423599
 31
0.0
  0
LINE
  5
12E
330
1F
100
AcDbEntity
  8
SKARN_FSET1
100
AcDbLine
 10
101.2840429582866
 20
64.96098880376667
 30
0.0
 11
101.6501373602077
 21
64.96098880376667
 31
0.0
  0
LINE
  5
12F
330
1F
100
AcDbEntity
  8
SKARN_FSET1
100
AcDbLine
 10
101.6506718468154
 20
412.7925728308037
 30
0.0
 11
102.7481680562487
 21
413.5414029364474
 31
0.0
  0
LINE
  5
130
330
1F
100
AcDbEntity
  8
SKARN_FSET1
100
AcDbLine
 10
103.136354123475
 20
44.18095337506384
 30
0.0
 11
105.3315432913369
 21
45.49140605982393
 31
0.0
  0
LINE
  5
131
330
1F
100
AcDbEntity
  8
SKARN_FSET1
100
AcDbLine
 10
103.2171622620663
 20
315.6318666362204
 30
0.0
 11
103.4002094629686
 21
315.6318666362204
 31
0.0
  0
LINE
  5
132
330
1F
100
AcDbEntity
  8
SKARN_FSET1
100
AcDbLine
 10
103.6624760761624
 20
66.08423396246508
 30
0.0
 11
105.3091138884192
 21
66.83306406764314
 31
0.0
  0
LINE
  5
133
330
1F
100
AcDbEntity
  8
SKARN_FSET1
100
AcDbLine
 10
103.5073819872923
 20
561.9969713613391
 30
0.0
 11
106.4341697115451
 21
563.8690466252156
 31
0.0
  0
LINE
  5
134
330
1F
100
AcDbEntity
  8
SKARN_FSET1
100
AcDbLine
 10
104.1325950161554
 20
315.444659109693
 30
0.0
 11
105.5961856275098
 21
316.1934892153367
 31
0.0
  0
LINE
  5
135
330
1F
100
AcDbEntity
  8
SKARN_FSET1
100
AcDbLine
 10
106.8264170167968
 20
16.47423946997151
 30
0.0
 11
108.4728580799419
 21
17.41027710167691
 31
0.0
  0
LINE
  5
136
330
1F
100
AcDbEntity
  8
SKARN_FSET1
100
AcDbLine
 10
107.9750122436089
 20
316.9423193205148
 30
0.0
 11
111.6335952735972
 21
319.188809637446
 31
0.0
  0
LINE
  5
137
330
1F
100
AcDbEntity
  8
SKARN_FSET1
100
AcDbLine
 10
108.5542564659845
 20
288.2995677837171
 30
0.0
 11
110.2006975292461
 21
289.2356054154225
 31
0.0
  0
LINE
  5
138
330
1F
100
AcDbEntity
  8
SKARN_FSET1
100
AcDbLine
 10
109.2664473510813
 20
481.4977350151166
 30
0.0
 11
111.4616365188267
 21
482.8081876994111
 31
0.0
  0
LINE
  5
139
330
1F
100
AcDbEntity
  8
SKARN_FSET1
100
AcDbLine
 10
109.934874698054
 20
19.65676741814241
 30
0.0
 11
111.5813157611992
 21
20.59280504984781
 31
0.0
  0
LINE
  5
13A
330
1F
100
AcDbEntity
  8
SKARN_FSET1
100
AcDbLine
 10
110.4526069315616
 20
223.7129711802118
 30
0.0
 11
111.9160007938044
 21
224.6490088119172
 31
0.0
  0
LINE
  5
13B
330
1F
100
AcDbEntity
  8
SKARN_FSET1
100
AcDbLine
 10
110.5366893116152
 20
317.8783569526859
 30
0.0
 11
112.1831303747604
 21
318.8143945843913
 31
0.0
  0
LINE
  5
13C
330
1F
100
AcDbEntity
  8
SKARN_FSET1
100
AcDbLine
 10
110.5351153184893
 20
319.3760171639733
 30
0.0
 11
112.7303044862347
 21
320.6864698482677
 31
0.0
  0
LINE
  5
13D
330
1F
100
AcDbEntity
  8
SKARN_FSET1
100
AcDbLine
 10
110.6575637821807
 20
377.0359352910891
 30
0.0
 11
111.9381071923999
 21
377.7847653967328
 31
0.0
  0
LINE
  5
13E
330
1F
100
AcDbEntity
  8
SKARN_FSET1
100
AcDbLine
 10
112.1009449921548
 20
48.67393400799483
 30
0.0
 11
113.5645356033929
 21
49.42276411363855
 31
0.0
  0
LINE
  5
13F
330
1F
100
AcDbEntity
  8
SKARN_FSET1
100
AcDbLine
 10
112.3138980634976
 20
20.21838999772444
 30
0.0
 11
113.960535875638
 21
20.9672201029025
 31
0.0
  0
LINE
  5
140
330
1F
100
AcDbEntity
  8
SKARN_FSET1
100
AcDbLine
 10
113.0959348957986
 20
146.9578853612766
 30
0.0
 11
113.2793755950406
 21
146.5834703091532
 31
0.0
  0
LINE
  5
141
330
1F
100
AcDbEntity
  8
SKARN_FSET1
100
AcDbLine
 10
112.915122429491
 20
319.0016021109186
 30
0.0
 11
114.3783195425058
 21
320.124847269617
 31
0.0
  0
LINE
  5
142
330
1F
100
AcDbEntity
  8
SKARN_FSET1
100
AcDbLine
 10
112.6536428129766
 20
567.8004046794958
 30
0.0
 11
114.1172334243311
 21
568.5492347846739
 31
0.0
  0
LINE
  5
143
330
1F
100
AcDbEntity
  8
SKARN_FSET1
100
AcDbLine
 10
112.8093418823555
 20
593.822250847239
 30
0.0
 11
114.2729324938264
 21
594.5710809528828
 31
0.0
  0
LINE
  5
144
330
1F
100
AcDbEntity
  8
SKARN_FSET1
100
AcDbLine
 10
114.9862891405355
 20
264.1497968798503
 30
0.0
 11
117.1814783083973
 21
265.4602495646104
 31
0.0
  0
LINE
  5
145
330
1F
100
AcDbEntity
  8
SKARN_FSET1
100
AcDbLine
 10
114.9258871523198
 20
321.6225074804388
 30
0.0
 11
118.9505645841127
 21
323.86899779737
 31
0.0
  0
LINE
  5
146
330
1F
100
AcDbEntity
  8
SKARN_FSET1
100
AcDbLine
 10
116.3617918946547
 20
0.3743922007270157
 30
0.0
 11
119.2887763681356
 21
2.059259938076138
 31
0.0
  0
LINE
  5
147
330
1F
100
AcDbEntity
  8
SKARN_FSET1
100
AcDbLine
 10
116.6141652896767
 20
108.5803424520418
 30
0.0
 11
116.6139685404487
 21
108.7675499785691
 31
0.0
  0
LINE
  5
148
330
1F
100
AcDbEntity
  8
SKARN_FSET1
100
AcDbLine
 10
117.5467857136391
 20
266.2090796702541
 30
0.0
 11
118.8273291239748
 21
266.9579097754322
 31
0.0
  0
LINE
  5
149
330
1F
100
AcDbEntity
  8
SKARN_FSET1
100
AcDbLine
 10
117.8500466435216
 20
151.8252810477279
 30
0.0
 11
120.0452358113835
 21
153.1357337320223
 31
0.0
  0
LINE
  5
14A
330
1F
100
AcDbEntity
  8
SKARN_FSET1
100
AcDbLine
 10
117.8849417367019
 20
292.7925484166481
 30
0.0
 11
119.1652883979259
 21
293.7285860488191
 31
0.0
  0
LINE
  5
14B
330
1F
100
AcDbEntity
  8
SKARN_FSET1
100
AcDbLine
 10
118.5036620437168
 20
52.41808453621343
 30
0.0
 11
121.0643553658156
 21
54.2901598000899
 31
0.0
  0
LINE
  5
14C
330
1F
100
AcDbEntity
  8
SKARN_FSET1
100
AcDbLine
 10
119.7421716304962
 20
267.3323248280212
 30
0.0
 11
121.3886126937578
 21
268.2683624601923
 31
0.0
  0
LINE
  5
14D
330
1F
100
AcDbEntity
  8
SKARN_FSET1
100
AcDbLine
 10
120.5951644108864
 20
152.3869036268443
 30
0.0
 11
121.8755110721104
 21
153.3229412585497
 31
0.0
  0
LINE
  5
14E
330
1F
100
AcDbEntity
  8
SKARN_FSET1
100
AcDbLine
 10
120.8388103492325
 20
94.72698549972847
 30
0.0
 11
122.3022042112425
 21
95.66302313143387
 31
0.0
  0
LINE
  5
14F
330
1F
100
AcDbEntity
  8
SKARN_FSET1
100
AcDbLine
 10
120.9019110644003
 20
383.0265761353076
 30
0.0
 11
122.3653049266431
 21
383.9626137674786
 31
0.0
  0
LINE
  5
150
330
1F
100
AcDbEntity
  8
SKARN_FSET1
100
AcDbLine
 10
121.1383477784693
 20
506.3963360246271
 30
0.0
 11
123.6996313481359
 21
507.7067887093872
 31
0.0
  0
LINE
  5
151
330
1F
100
AcDbEntity
  8
SKARN_FSET1
100
AcDbLine
 10
121.2251846464351
 20
597.9408164280467
 30
0.0
 11
122.5057280568872
 21
598.6896465336904
 31
0.0
  0
LINE
  5
152
330
1F
100
AcDbEntity
  8
SKARN_FSET1
100
AcDbLine
 10
122.1563573322492
 20
582.7770067900419
 30
0.0
 11
123.8026016463991
 21
583.9002519487403
 31
0.0
  0
LINE
  5
153
330
1F
100
AcDbEntity
  8
SKARN_FSET1
100
AcDbLine
 10
124.1067053336883
 20
120.3744166148826
 30
0.0
 11
125.5699024465866
 21
121.4976617726497
 31
0.0
  0
LINE
  5
154
330
1F
100
AcDbEntity
  8
SKARN_FSET1
100
AcDbLine
 10
124.3636039589765
 20
224.2745937593281
 30
0.0
 11
125.6441473693121
 21
225.0234238645062
 31
0.0
  0
LINE
  5
155
330
1F
100
AcDbEntity
  8
SKARN_FSET1
100
AcDbLine
 10
124.8024955454748
 20
155.0078089958988
 30
0.0
 11
124.8022987962468
 21
155.1950165224262
 31
0.0
  0
LINE
  5
156
330
1F
100
AcDbEntity
  8
SKARN_FSET1
100
AcDbLine
 10
124.6140803565504
 20
508.4556188150309
 30
0.0
 11
126.6258288250538
 21
510.14048655238
 31
0.0
  0
LINE
  5
157
330
1F
100
AcDbEntity
  8
SKARN_FSET1
100
AcDbLine
 10
125.5938500817865
 20
447.0515501596965
 30
0.0
 11
126.5082990899682
 21
447.8003802653402
 31
0.0
  0
LINE
  5
158
330
1F
100
AcDbEntity
  8
SKARN_FSET1
100
AcDbLine
 10
126.509535345831
 20
98.28392850095406
 30
0.0
 11
129.253275869065
 21
100.1560037648305
 31
0.0
  0
LINE
  5
159
330
1F
100
AcDbEntity
  8
SKARN_FSET1
100
AcDbLine
 10
126.4513680924429
 20
327.8003558511846
 30
0.0
 11
128.0976124064764
 21
328.9236010094173
 31
0.0
  0
LINE
  5
15A
330
1F
100
AcDbEntity
  8
SKARN_FSET1
100
AcDbLine
 10
126.3650657108519
 20
584.0874594752677
 30
0.0
 11
126.3648689618567
 21
584.274667001795
 31
0.0
  0
LINE
  5
15B
330
1F
100
AcDbEntity
  8
SKARN_FSET1
100
AcDbLine
 10
126.5463421696331
 20
585.7723272126168
 30
0.0
 11
128.0097360317595
 21
586.7083648447879
 31
0.0
  0
LINE
  5
15C
330
1F
100
AcDbEntity
  8
SKARN_FSET1
100
AcDbLine
 10
127.6562893360388
 20
226.3338765497319
 30
0.0
 11
129.4855808510911
 21
227.4571217079647
 31
0.0
  0
LINE
  5
15D
330
1F
100
AcDbEntity
  8
SKARN_FSET1
100
AcDbLine
 10
128.1569601547671
 20
98.28392850095406
 30
0.0
 11
129.9862516695866
 21
99.40717365918681
 31
0.0
  0
LINE
  5
15E
330
1F
100
AcDbEntity
  8
SKARN_FSET1
100
AcDbLine
 10
128.2396095297299
 20
542.1529735643417
 30
0.0
 11
129.5201529400656
 21
542.9018036699854
 31
0.0
  0
LINE
  5
15F
330
1F
100
AcDbEntity
  8
SKARN_FSET1
100
AcDbLine
 10
129.2791205015965
 20
249.734817347955
 30
0.0
 11
131.6571601211326
 21
251.2324775587767
 31
0.0
  0
LINE
  5
160
330
1F
100
AcDbEntity
  8
SKARN_FSET1
100
AcDbLine
 10
129.4629546991782
 20
248.9859872423112
 30
0.0
 11
130.5604509084951
 21
249.734817347955
 31
0.0
  0
LINE
  5
161
330
1F
100
AcDbEntity
  8
SKARN_FSET1
100
AcDbLine
 10
132.4112585746916
 20
404.5554416696541
 30
0.0
 11
132.4110618253471
 21
404.7426491961814
 31
0.0
  0
LINE
  5
162
330
1F
100
AcDbEntity
  8
SKARN_FSET1
100
AcDbLine
 10
132.7554433270125
 20
251.2324775587767
 30
0.0
 11
134.7677820429672
 21
252.3557227174751
 31
0.0
  0
LINE
  5
163
330
1F
100
AcDbEntity
  8
SKARN_FSET1
100
AcDbLine
 10
133.262747855857
 20
465.2106802193448
 30
0.0
 11
135.0920393707929
 21
466.3339253780432
 31
0.0
  0
LINE
  5
164
330
1F
100
AcDbEntity
  8
SKARN_FSET1
100
AcDbLine
 10
133.8635082294932
 20
590.2653078460135
 30
0.0
 11
135.1440516397124
 21
591.0141379511915
 31
0.0
  0
LINE
  5
165
330
1F
100
AcDbEntity
  8
SKARN_FSET1
100
AcDbLine
 10
136.3323754608864
 20
331.1700913263485
 30
0.0
 11
137.6131156203337
 21
331.7317139054649
 31
0.0
  0
LINE
  5
166
330
1F
100
AcDbEntity
  8
SKARN_FSET1
100
AcDbLine
 10
136.9741301513277
 20
591.3885530042462
 30
0.0
 11
139.3523665199755
 21
592.6990056885406
 31
0.0
  0
LINE
  5
167
330
1F
100
AcDbEntity
  8
SKARN_FSET1
100
AcDbLine
 10
138.4980522565311
 20
360.5616729687899
 30
0.0
 11
140.5099974741461
 21
362.0593331800774
 31
0.0
  0
LINE
  5
168
330
1F
100
AcDbEntity
  8
SKARN_FSET1
100
AcDbLine
 10
138.9201496713795
 20
133.1045284084976
 30
0.0
 11
140.7494411863154
 21
134.227773567196
 31
0.0
  0
LINE
  5
169
330
1F
100
AcDbEntity
  8
SKARN_FSET1
100
AcDbLine
 10
139.1039838689612
 20
132.3556983033195
 30
0.0
 11
140.7502281828783
 21
133.4789434615523
 31
0.0
  0
LINE
  5
16A
330
1F
100
AcDbEntity
  8
SKARN_FSET1
100
AcDbLine
 10
142.2138187942328
 20
134.227773567196
 30
0.0
 11
143.4947557026753
 21
134.6021886202507
 31
0.0
  0
LINE
  5
16B
330
1F
100
AcDbEntity
  8
SKARN_FSET1
100
AcDbLine
 10
142.1064642539714
 20
410.5460825148039
 30
0.0
 11
143.5700548653258
 21
411.2949126199819
 31
0.0
  0
LINE
  5
16C
330
1F
100
AcDbEntity
  8
SKARN_FSET1
100
AcDbLine
 10
142.9114502425073
 20
341.2792977509089
 30
0.0
 11
144.3748441045173
 21
342.2153353830799
 31
0.0
  0
LINE
  5
16D
330
1F
100
AcDbEntity
  8
SKARN_FSET1
100
AcDbLine
 10
143.4607885944424
 20
341.0920902248472
 30
0.0
 11
145.2898833603831
 21
342.4025429096073
 31
0.0
  0
LINE
  5
16E
330
1F
100
AcDbEntity
  8
SKARN_FSET1
100
AcDbLine
 10
144.2731805563672
 20
90.6084199193865
 30
0.0
 11
145.5537239667028
 21
91.35725002456456
 31
0.0
  0
LINE
  5
16F
330
1F
100
AcDbEntity
  8
SKARN_FSET1
100
AcDbLine
 10
146.6506299285684
 20
92.667702708859
 30
0.0
 11
146.8338738786988
 21
92.48049518326297
 31
0.0
  0
LINE
  5
170
330
1F
100
AcDbEntity
  8
SKARN_FSET1
100
AcDbLine
 10
148.7277696080273
 20
206.3026712262072
 30
0.0
 11
148.7273761096876
 21
206.6770862792619
 31
0.0
  0
LINE
  5
171
330
1F
100
AcDbEntity
  8
SKARN_FSET1
100
AcDbLine
 10
148.4051010067342
 20
513.3230145005509
 30
0.0
 11
150.2347860198934
 21
514.0718446066603
 31
0.0
  0
LINE
  5
172
330
1F
100
AcDbEntity
  8
SKARN_FSET1
100
AcDbLine
 10
151.4473099861061
 20
231.2012722357176
 30
0.0
 11
153.8255463549867
 21
232.5117249200121
 31
0.0
  0
LINE
  5
173
330
1F
100
AcDbEntity
  8
SKARN_FSET1
100
AcDbLine
 10
151.7932097200537
 20
424.5866469931789
 30
0.0
 11
153.073949879501
 21
425.1482695722952
 31
0.0
  0
LINE
  5
174
330
1F
100
AcDbEntity
  8
SKARN_FSET1
100
AcDbLine
 10
152.0177709910786
 20
385.0858589257114
 30
0.0
 11
153.1150704512838
 21
386.0218965578824
 31
0.0
  0
LINE
  5
175
330
1F
100
AcDbEntity
  8
SKARN_FSET1
100
AcDbLine
 10
152.7284436440095
 20
231.3884797617793
 30
0.0
 11
154.0093805525685
 21
231.762894814834
 31
0.0
  0
LINE
  5
176
330
1F
100
AcDbEntity
  8
SKARN_FSET1
100
AcDbLine
 10
152.9343137459364
 20
209.6724067013711
 30
0.0
 11
154.7636052609887
 21
210.7956518591382
 31
0.0
  0
LINE
  5
177
330
1F
100
AcDbEntity
  8
SKARN_FSET1
100
AcDbLine
 10
156.3584980475716
 20
260.7800614046864
 30
0.0
 11
158.9193881190149
 21
262.4649291425012
 31
0.0
  0
LINE
  5
178
330
1F
100
AcDbEntity
  8
SKARN_FSET1
100
AcDbLine
 10
157.0895063565113
 20
261.9033065633848
 30
0.0
 11
158.7357506704284
 21
263.0265517211519
 31
0.0
  0
LINE
  5
179
330
1F
100
AcDbEntity
  8
SKARN_FSET1
100
AcDbLine
 10
158.7021770604188
 20
469.1420382731594
 30
0.0
 11
162.3605633412953
 21
471.5757361166179
 31
0.0
  0
LINE
  5
17A
330
1F
100
AcDbEntity
  8
SKARN_FSET1
100
AcDbLine
 10
160.9323170823045
 20
263.0265517211519
 30
0.0
 11
162.7614118480124
 21
264.3370044063777
 31
0.0
  0
LINE
  5
17B
330
1F
100
AcDbEntity
  8
SKARN_FSET1
100
AcDbLine
 10
163.186994986725
 20
381.9033309770748
 30
0.0
 11
167.5771765731042
 21
384.7114438726567
 31
0.0
  0
LINE
  5
17C
330
1F
100
AcDbEntity
  8
SKARN_FSET1
100
AcDbLine
 10
163.4542508226587
 20
301.7785096834414
 30
0.0
 11
164.9180381831247
 21
302.3401322630234
 31
0.0
  0
LINE
  5
17D
330
1F
100
AcDbEntity
  8
SKARN_FSET1
100
AcDbLine
 10
169.3535425674636
 20
436.1935136294924
 30
0.0
 11
170.8167396804783
 21
437.3167587877251
 31
0.0
  0
LINE
  5
17E
330
1F
100
AcDbEntity
  8
SKARN_FSET1
100
AcDbLine
 10
169.5917500237701
 20
557.8784057809971
 30
0.0
 11
171.2381910870317
 21
558.8144434127025
 31
0.0
  0
LINE
  5
17F
330
1F
100
AcDbEntity
  8
SKARN_FSET1
100
AcDbLine
 10
170.0859281205339
 20
436.006306102965
 30
0.0
 11
171.7321724345675
 21
437.1295512611978
 31
0.0
  0
LINE
  5
180
330
1F
100
AcDbEntity
  8
SKARN_FSET1
100
AcDbLine
 10
174.5688343162183
 20
2.246467464603484
 30
0.0
 11
176.0322281783447
 21
3.182505096308887
 31
0.0
  0
LINE
  5
181
330
1F
100
AcDbEntity
  8
SKARN_FSET1
100
AcDbLine
 10
174.5716592983808
 20
173.7285616346635
 30
0.0
 11
175.6691555075813
 21
174.4773917407729
 31
0.0
  0
LINE
  5
182
330
1F
100
AcDbEntity
  8
SKARN_FSET1
100
AcDbLine
 10
177.4873733095592
 20
534.4774649827741
 30
0.0
 11
178.9503736734623
 21
535.7879176675342
 31
0.0
  0
LINE
  5
183
330
1F
100
AcDbEntity
  8
SKARN_FSET1
100
AcDbLine
 10
180.2019949590322
 20
564.0562541517429
 30
0.0
 11
181.6651920719305
 21
565.1794993099757
 31
0.0
  0
LINE
  5
184
330
1F
100
AcDbEntity
  8
SKARN_FSET1
100
AcDbLine
 10
188.6546150802169
 20
10.67080615181476
 30
0.0
 11
190.3008593942504
 21
11.79405131004751
 31
0.0
  0
LINE
  5
185
330
1F
100
AcDbEntity
  8
SKARN_FSET1
100
AcDbLine
 10
189.3565192488022
 20
561.9969713613391
 30
0.0
 11
190.6372594083659
 21
562.5585939409211
 31
0.0
  0
LINE
  5
186
330
1F
100
AcDbEntity
  8
SKARN_FSET1
100
AcDbLine
 10
193.7592780473642
 20
30.3275964227505
 30
0.0
 11
195.0394279594766
 21
31.45084158051759
 31
0.0
  0
LINE
  5
187
330
1F
100
AcDbEntity
  8
SKARN_FSET1
100
AcDbLine
 10
193.535251262947
 20
417.659968517255
 30
0.0
 11
193.7182984639658
 21
417.659968517255
 31
0.0
  0
LINE
  5
188
330
1F
100
AcDbEntity
  8
SKARN_FSET1
100
AcDbLine
 10
195.6531737766927
 20
144.1497724656947
 30
0.0
 11
197.1165676389355
 21
145.0858100974001
 31
0.0
  0
LINE
  5
189
330
1F
100
AcDbEntity
  8
SKARN_FSET1
100
AcDbLine
 10
197.4141933376668
 20
210.2340292804874
 30
0.0
 11
198.6949334971141
 21
210.7956518591382
 31
0.0
  0
LINE
  5
18A
330
1F
100
AcDbEntity
  8
SKARN_FSET1
100
AcDbLine
 10
200.3405875636963
 20
212.4805195969529
 30
0.0
 11
201.6215244722553
 21
212.854934649542
 31
0.0
  0
LINE
  5
18B
330
1F
100
AcDbEntity
  8
SKARN_FSET1
100
AcDbLine
 10
201.4378870236687
 20
213.4165572286583
 30
0.0
 11
203.0845248361584
 21
214.1653873347677
 31
0.0
  0
LINE
  5
18C
330
1F
100
AcDbEntity
  8
SKARN_FSET1
100
AcDbLine
 10
211.5518601157237
 20
517.6287876078859
 30
0.0
 11
213.1981044297572
 21
518.7520327661186
 31
0.0
  0
LINE
  5
18D
330
1F
100
AcDbEntity
  8
SKARN_FSET1
100
AcDbLine
 10
216.2235192375956
 20
78.43993070395663
 30
0.0
 11
217.5040626479313
 21
79.18876080913469
 31
0.0
  0
LINE
  5
18E
330
1F
100
AcDbEntity
  8
SKARN_FSET1
100
AcDbLine
 10
217.4920609500259
 20
90.6084199193865
 30
0.0
 11
219.321549213957
 21
91.54445755109191
 31
0.0
  0
LINE
  5
18F
330
1F
100
AcDbEntity
  8
SKARN_FSET1
100
AcDbLine
 10
226.2933500264771
 20
250.4836474535987
 30
0.0
 11
227.7567438886035
 21
251.4196850853041
 31
0.0
  0
LINE
  5
190
330
1F
100
AcDbEntity
  8
SKARN_FSET1
100
AcDbLine
 10
238.9935790966265
 20
9.734768519643694
 30
0.0
 11
241.1889650136
 21
10.85801367787644
 31
0.0
  0
LINE
  5
191
330
1F
100
AcDbEntity
  8
SKARN_FSET1
100
AcDbLine
 10
249.9772128855111
 20
531.4821445601992
 30
0.0
 11
251.4408034968656
 21
532.230974665843
 31
0.0
  0
LINE
  5
192
330
1F
100
AcDbEntity
  8
SKARN_FSET1
100
AcDbLine
 10
251.7747572935186
 20
388.642801926937
 30
0.0
 11
251.7745605445234
 21
388.8300094534643
 31
0.0
  0
LINE
  5
193
330
1F
100
AcDbEntity
  8
SKARN_FSET1
100
AcDbLine
 10
281.9461213533068
 20
70.20279954280704
 30
0.0
 11
281.9459246041952
 21
70.39000706933439
 31
0.0
  0
LINE
  5
194
330
1F
100
AcDbEntity
  8
SKARN_FSET1
100
AcDbLine
 10
387.6952649980085
 20
119.8127940353006
 30
0.0
 11
388.7929579565534
 21
120.3744166148826
 31
0.0
  0
LINE
  5
195
330
1F
100
AcDbEntity
  8
SKARN_FSET1
100
AcDbLine
 10
388.2432261062786
 20
120.9360391935334
 30
0.0
 11
389.5237695164979
 21
121.6848692991771
 31
0.0
  0
LINE
  5
196
330
1F
100
AcDbEntity
  8
SKARN_FSET1
100
AcDbLine
 10
389.6349327845965
 20
15.91261689085513
 30
0.0
 11
389.6345392862568
 21
16.28703194344416
 31
0.0
  0
LINE
  5
197
330
1F
100
AcDbEntity
  8
SKARN_FSET1
100
AcDbLine
 10
392.1543235192075
 20
579.594478841871
 30
0.0
 11
393.4348669295432
 21
580.3433089475147
 31
0.0
  0
LINE
  5
198
330
1F
100
AcDbEntity
  8
SKARN_FSET1
100
AcDbLine
 10
392.7044488679385
 20
578.6584412101656
 30
0.0
 11
393.9849922782741
 21
579.4072713153437
 31
0.0
  0
LINE
  5
199
330
1F
100
AcDbEntity
  8
SKARN_FSET1
100
AcDbLine
 10
408.1522271892754
 20
510.3276940789074
 30
0.0
 11
409.798668252537
 21
511.2637317106128
 31
0.0
  0
LINE
  5
19A
330
1F
100
AcDbEntity
  8
SKARN_FSET1
100
AcDbLine
 10
408.6999915482011
 20
511.6381467632018
 30
0.0
 11
409.9805349584203
 21
512.3869768688455
 31
0.0
  0
LINE
  5
19B
330
1F
100
AcDbEntity
  8
SKARN_FSET1
100
AcDbLine
 10
409.3244880745187
 20
439.9376641572453
 30
0.0
 11
409.5079287737608
 21
439.5632491041906
 31
0.0
  0
LINE
  5
19C
330
1F
100
AcDbEntity
  8
SKARN_FSET1
100
AcDbLine
 10
410.2403143268311
 20
439.3760415781289
 30
0.0
 11
414.6314796591178
 21
441.2481168415397
 31
0.0
  0
LINE
  5
19D
330
1F
100
AcDbEntity
  8
SKARN_FSET1
100
AcDbLine
 10
416.7196372908074
 20
544.3994638812728
 30
0.0
 11
418.0003774501383
 21
544.9610864599235
 31
0.0
  0
LINE
  5
19E
330
1F
100
AcDbEntity
  8
SKARN_FSET1
100
AcDbLine
 10
420.3799910629168
 20
544.9610864599235
 30
0.0
 11
422.574983481667
 21
546.4587466716766
 31
0.0
  0
LINE
  5
19F
330
1F
100
AcDbEntity
  8
SKARN_FSET1
100
AcDbLine
 10
427.4619713978609
 20
599.0640615858138
 30
0.0
 11
428.5594676071778
 21
599.8128916914575
 31
0.0
  0
LINE
  5
1A0
330
1F
100
AcDbEntity
  8
SKARN_FSET1
100
AcDbLine
 10
435.4454005641164
 20
143.7753574131057
 30
0.0
 11
437.4577392799547
 21
144.8986025708728
 31
0.0
  0
LINE
  5
1A1
330
1F
100
AcDbEntity
  8
SKARN_FSET1
100
AcDbLine
 10
435.8107079693582
 20
144.5241875182837
 30
0.0
 11
439.4692909994628
 21
146.7706778347492
 31
0.0
  0
LINE
  5
1A2
330
1F
100
AcDbEntity
  8
SKARN_FSET1
100
AcDbLine
 10
436.6420583435101
 20
50.17159421974793
 30
0.0
 11
438.288105908432
 21
51.48204690404236
 31
0.0
  0
LINE
  5
1A3
330
1F
100
AcDbEntity
  8
SKARN_FSET1
100
AcDbLine
 10
437.2238750382094
 20
541.5913509852253
 30
0.0
 11
439.2360170050524
 21
542.9018036699854
 31
0.0
  0
LINE
  5
1A4
330
1F
100
AcDbEntity
  8
SKARN_FSET1
100
AcDbLine
 10
438.1391110431869
 20
541.5913509852253
 30
0.0
 11
440.3343002109323
 21
542.9018036699854
 31
0.0
  0
LINE
  5
1A5
330
1F
100
AcDbEntity
  8
SKARN_FSET1
100
AcDbLine
 10
438.8679551115492
 20
544.7738789338619
 30
0.0
 11
440.6974433757132
 21
545.7099165655673
 31
0.0
  0
LINE
  5
1A6
330
1F
100
AcDbEntity
  8
SKARN_FSET1
100
AcDbLine
 10
439.0545437971596
 20
541.404143458698
 30
0.0
 11
441.7986778188497
 21
542.9018036699854
 31
0.0
  0
LINE
  5
1A7
330
1F
100
AcDbEntity
  8
SKARN_FSET1
100
AcDbLine
 10
440.5683612019056
 20
146.0218477295712
 30
0.0
 11
441.6658574112225
 21
146.7706778347492
 31
0.0
  0
LINE
  5
1A8
330
1F
100
AcDbEntity
  8
SKARN_FSET1
100
AcDbLine
 10
440.1508595115738
 20
543.2762187225744
 30
0.0
 11
442.3460486793192
 21
544.5866714073345
 31
0.0
  0
LINE
  5
1A9
330
1F
100
AcDbEntity
  8
SKARN_FSET1
100
AcDbLine
 10
440.9040857410291
 20
0.7488072528503835
 30
0.0
 11
444.3794248208869
 21
3.182505096308887
 31
0.0
  0
LINE
  5
1AA
330
1F
100
AcDbEntity
  8
SKARN_FSET1
100
AcDbLine
 10
442.185809646151
 20
0.3743922007270157
 30
0.0
 11
443.8324474585243
 21
1.123222305905074
 31
0.0
  0
LINE
  5
1AB
330
1F
100
AcDbEntity
  8
SKARN_FSET1
100
AcDbLine
 10
441.978970531607
 20
545.5227090395056
 30
0.0
 11
444.540057352162
 21
547.0203692503273
 31
0.0
  0
LINE
  5
1AC
330
1F
100
AcDbEntity
  8
SKARN_FSET1
100
AcDbLine
 10
442.52555439563
 20
547.9564068824984
 30
0.0
 11
443.9891450069845
 21
548.7052369876765
 31
0.0
  0
LINE
  5
1AD
330
1F
100
AcDbEntity
  8
SKARN_FSET1
100
AcDbLine
 10
443.4673368022777
 20
0.1871846741996706
 30
0.0
 11
445.6627227191348
 21
1.310429832432419
 31
0.0
  0
LINE
  5
1AE
330
1F
100
AcDbEntity
  8
SKARN_FSET1
100
AcDbLine
 10
444.3589776428416
 20
545.1482939864509
 30
0.0
 11
445.6393243039493
 21
546.084331618622
 31
0.0
  0
LINE
  5
1AF
330
1F
100
AcDbEntity
  8
SKARN_FSET1
100
AcDbLine
 10
444.5408443488413
 20
546.2715391451493
 30
0.0
 11
448.5657185298624
 21
548.3308219355531
 31
0.0
  0
LINE
  5
1B0
330
1F
100
AcDbEntity
  8
SKARN_FSET1
100
AcDbLine
 10
445.2718526580138
 20
547.394784303382
 30
0.0
 11
447.1011441729497
 21
548.5180294611491
 31
0.0
  0
LINE
  5
1B1
330
1F
100
AcDbEntity
  8
SKARN_FSET1
100
AcDbLine
 10
446.3937310281908
 20
2.433674991130829
 30
0.0
 11
447.857715137885
 21
2.808090043254197
 31
0.0
  0
LINE
  5
1B2
330
1F
100
AcDbEntity
  8
SKARN_FSET1
100
AcDbLine
 10
446.5752042360837
 20
3.931335201952606
 30
0.0
 11
448.2214485500008
 21
5.054580360185355
 31
0.0
  0
LINE
  5
1B3
330
1F
100
AcDbEntity
  8
SKARN_FSET1
100
AcDbLine
 10
446.7612026742427
 20
1.123222305905074
 30
0.0
 11
453.8955182821956
 21
5.428995412774384
 31
0.0
  0
LINE
  5
1B4
330
1F
100
AcDbEntity
  8
SKARN_FSET1
100
AcDbLine
 10
448.037614352419
 20
5.803410465829074
 30
0.0
 11
450.4156539720716
 21
7.301070676650852
 31
0.0
  0
LINE
  5
1B5
330
1F
100
AcDbEntity
  8
SKARN_FSET1
100
AcDbLine
 10
448.0159866794711
 20
548.8924445142038
 30
0.0
 11
449.2965300898068
 21
549.6412746198475
 31
0.0
  0
LINE
  5
1B6
330
1F
100
AcDbEntity
  8
SKARN_FSET1
100
AcDbLine
 10
449.4805610365001
 20
548.7052369876765
 30
0.0
 11
452.7730496644508
 21
550.9517273046076
 31
0.0
  0
LINE
  5
1B7
330
1F
100
AcDbEntity
  8
SKARN_FSET1
100
AcDbLine
 10
450.0310798835708
 20
547.394784303382
 30
0.0
 11
454.2393947638338
 21
549.0796520407312
 31
0.0
  0
LINE
  5
1B8
330
1F
100
AcDbEntity
  8
SKARN_FSET1
100
AcDbLine
 10
450.2147173319245
 20
546.8331617238
 30
0.0
 11
451.8615518934093
 21
547.394784303382
 31
0.0
  0
LINE
  5
1B9
330
1F
100
AcDbEntity
  8
SKARN_FSET1
100
AcDbLine
 10
450.9677468121517
 20
4.492957781068981
 30
0.0
 11
453.1631327292416
 21
5.616202939301729
 31
0.0
  0
LINE
  5
1BA
330
1F
100
AcDbEntity
  8
SKARN_FSET1
100
AcDbLine
 10
450.9447418953059
 20
548.8924445142038
 30
0.0
 11
454.6035216742894
 21
550.9517273046076
 31
0.0
  0
LINE
  5
1BB
330
1F
100
AcDbEntity
  8
SKARN_FSET1
100
AcDbLine
 10
452.2476999750361
 20
5.803410465829074
 30
0.0
 11
454.2598419418791
 21
7.113863150123507
 31
0.0
  0
LINE
  5
1BC
330
1F
100
AcDbEntity
  8
SKARN_FSET1
100
AcDbLine
 10
453.6900564116659
 20
549.2668595672585
 30
0.0
 11
455.336497474811
 21
550.2028971994296
 31
0.0
  0
LINE
  5
1BD
330
1F
100
AcDbEntity
  8
SKARN_FSET1
100
AcDbLine
 10
454.2356565301307
 20
552.6365950419568
 30
0.0
 11
455.3331527393311
 21
553.3854251476005
 31
0.0
  0
LINE
  5
1BE
330
1F
100
AcDbEntity
  8
SKARN_FSET1
100
AcDbLine
 10
506.9425554652698
 20
388.642801926937
 30
0.0
 11
508.0394614271354
 21
389.953254611697
 31
0.0
  0
LINE
  5
1BF
330
1F
100
AcDbEntity
  8
SKARN_FSET1
100
AcDbLine
 10
510.697152079083
 20
299.5320193669759
 30
0.0
 11
512.3433963930001
 21
300.6552645252086
 31
0.0
  0
LINE
  5
1C0
330
1F
100
AcDbEntity
  8
SKARN_FSET1
100
AcDbLine
 10
510.8485226673074
 20
329.672431115061
 30
0.0
 11
515.0562473002356
 21
331.9189214319922
 31
0.0
  0
LINE
  5
1C1
330
1F
100
AcDbEntity
  8
SKARN_FSET1
100
AcDbLine
 10
510.7841856962768
 20
390.8892922434025
 30
0.0
 11
512.9791781149106
 21
392.3869524551556
 31
0.0
  0
LINE
  5
1C2
330
1F
100
AcDbEntity
  8
SKARN_FSET1
100
AcDbLine
 10
511.2154040659079
 20
328.9236010094173
 30
0.0
 11
513.5934436855605
 21
330.4212612207048
 31
0.0
  0
LINE
  5
1C3
330
1F
100
AcDbEntity
  8
SKARN_FSET1
100
AcDbLine
 10
511.5820887152804
 20
328.3619784307666
 30
0.0
 11
513.228333029314
 21
329.4852235889994
 31
0.0
  0
LINE
  5
1C4
330
1F
100
AcDbEntity
  8
SKARN_FSET1
100
AcDbLine
 10
512.6126902145334
 20
392.7613675072789
 30
0.0
 11
513.893036875641
 21
393.69740513945
 31
0.0
  0
LINE
  5
1C5
330
1F
100
AcDbEntity
  8
SKARN_FSET1
100
AcDbLine
 10
512.7296297021676
 20
455.6630963734351
 30
0.0
 11
514.0103698616149
 21
456.2247189530171
 31
0.0
  0
LINE
  5
1C6
330
1F
100
AcDbEntity
  8
SKARN_FSET1
100
AcDbLine
 10
513.0945436091861
 20
456.7863415316679
 30
0.0
 11
517.3022682419978
 21
459.032831848599
 31
0.0
  0
LINE
  5
1C7
330
1F
100
AcDbEntity
  8
SKARN_FSET1
100
AcDbLine
 10
514.3252389910631
 20
330.7956762732938
 30
0.0
 11
516.8865225608461
 21
332.1061289585195
 31
0.0
  0
LINE
  5
1C8
330
1F
100
AcDbEntity
  8
SKARN_FSET1
100
AcDbLine
 10
515.2701841172529
 20
302.5273397890851
 30
0.0
 11
515.4532313182717
 21
302.5273397890851
 31
0.0
  0
LINE
  5
1C9
330
1F
100
AcDbEntity
  8
SKARN_FSET1
100
AcDbLine
 10
515.5386909422232
 20
395.3822728767991
 30
0.0
 11
520.6606678342214
 21
398.5648008259013
 31
0.0
  0
LINE
  5
1CA
330
1F
100
AcDbEntity
  8
SKARN_FSET1
100
AcDbLine
 10
515.9063593373867
 20
393.8846126659773
 30
0.0
 11
517.7350606049877
 21
395.5694804033265
 31
0.0
  0
LINE
  5
1CB
330
1F
100
AcDbEntity
  8
SKARN_FSET1
100
AcDbLine
 10
516.3682705741376
 20
302.7145473156124
 30
0.0
 11
516.5509242768167
 21
303.0889623682015
 31
0.0
  0
LINE
  5
1CC
330
1F
100
AcDbEntity
  8
SKARN_FSET1
100
AcDbLine
 10
516.3882127320394
 20
457.9095866903663
 30
0.0
 11
518.7666458499152
 21
459.032831848599
 31
0.0
  0
LINE
  5
1CD
330
1F
100
AcDbEntity
  8
SKARN_FSET1
100
AcDbLine
 10
516.3868354879087
 20
459.2200393751264
 30
0.0
 11
519.4966704132967
 21
461.0921146385372
 31
0.0
  0
LINE
  5
1CE
330
1F
100
AcDbEntity
  8
SKARN_FSET1
100
AcDbLine
 10
518.3804125409806
 20
304.0250000003725
 30
0.0
 11
516.5509242768167
 21
303.0889623682015
 31
0.0
  0
LINE
  5
1CF
330
1F
100
AcDbEntity
  8
SKARN_FSET1
100
AcDbLine
 10
518.5830084014451
 20
459.5944544277154
 30
0.0
 11
519.8635518118972
 21
460.3432845333591
 31
0.0
  0
LINE
  5
1D0
330
1F
100
AcDbEntity
  8
SKARN_FSET1
100
AcDbLine
 10
519.4771217536181
 20
305.5226602111943
 30
0.0
 11
516.5509242768167
 21
303.0889623682015
 31
0.0
  0
LINE
  5
1D1
330
1F
100
AcDbEntity
  8
SKARN_FSET1
100
AcDbLine
 10
520.7289397882996
 20
333.6037891693413
 30
0.0
 11
522.3753808514448
 21
334.5398268015124
 31
0.0
  0
LINE
  5
1D2
330
1F
100
AcDbEntity
  8
SKARN_FSET1
100
AcDbLine
 10
520.9110032435274
 20
334.5398268015124
 30
0.0
 11
522.1917434029747
 21
335.1014493801631
 31
0.0
  0
LINE
  5
1D3
330
1F
100
AcDbEntity
  8
SKARN_FSET1
100
AcDbLine
 10
523.1572209346341
 20
461.4665296915919
 30
0.0
 11
524.4377643449698
 21
462.2153597972356
 31
0.0
  0
LINE
  5
1D4
330
1F
100
AcDbEntity
  8
SKARN_FSET1
100
AcDbLine
 10
531.1381628561066
 20
182.7145229014568
 30
0.0
 11
534.2479977814946
 21
184.5865981648676
 31
0.0
  0
LINE
  5
1D5
330
1F
100
AcDbEntity
  8
SKARN_FSET1
100
AcDbLine
 10
531.6859272150323
 20
184.0249755862169
 30
0.0
 11
533.698265930987
 21
185.1482207444496
 31
0.0
  0
LINE
  5
1D6
330
1F
100
AcDbEntity
  8
SKARN_FSET1
100
AcDbLine
 10
531.4667486650869
 20
392.5741599807516
 30
0.0
 11
534.5767803394701
 21
394.259027719032
 31
0.0
  0
LINE
  5
1D7
330
1F
100
AcDbEntity
  8
SKARN_FSET1
100
AcDbLine
 10
531.8707451582886
 20
182.3401078488678
 30
0.0
 11
534.065934326034
 21
183.6505605331622
 31
0.0
  0
LINE
  5
1D8
330
1F
100
AcDbEntity
  8
SKARN_FSET1
100
AcDbLine
 10
534.4286839925917
 20
186.8330884817988
 30
0.0
 11
536.441219457658
 21
187.7691261139698
 31
0.0
  0
LINE
  5
1D9
330
1F
100
AcDbEntity
  8
SKARN_FSET1
100
AcDbLine
 10
535.162643538788
 20
185.1482207444496
 30
0.0
 11
536.6260374009144
 21
186.0842583766207
 31
0.0
  0
LINE
  5
1DA
330
1F
100
AcDbEntity
  8
SKARN_FSET1
100
AcDbLine
 10
535.8573237498058
 20
395.0078578242101
 30
0.0
 11
537.1376704110298
 21
395.9438954563811
 31
0.0
  0
LINE
  5
1DB
330
1F
100
AcDbEntity
  8
SKARN_FSET1
100
AcDbLine
 10
539.3340400735615
 20
396.1311029829085
 30
0.0
 11
543.1756703045685
 21
398.377593299374
 31
0.0
  0
LINE
  5
1DC
330
1F
100
AcDbEntity
  8
SKARN_FSET1
100
AcDbLine
 10
540.981268133386
 20
396.3183105089702
 30
0.0
 11
542.9934100999963
 21
397.6287631937303
 31
0.0
  0
LINE
  5
1DD
330
1F
100
AcDbEntity
  8
SKARN_FSET1
100
AcDbLine
 10
541.7110959475394
 20
398.5648008259013
 30
0.0
 11
543.7236314124893
 21
399.5008384576067
 31
0.0
  0
LINE
  5
1DE
330
1F
100
AcDbEntity
  8
SKARN_FSET1
100
AcDbLine
 10
561.2911177233327
 20
578.4712336836383
 30
0.0
 11
563.852007794776
 21
580.1561014209874
 31
0.0
  0
LINE
  5
1DF
330
1F
100
AcDbEntity
  8
SKARN_FSET1
100
AcDbLine
 10
561.6560316303512
 20
579.594478841871
 30
0.0
 11
564.0342679992318
 21
580.9049315261655
 31
0.0
  0
LINE
  5
1E0
330
1F
100
AcDbEntity
  8
SKARN_FSET1
100
AcDbLine
 10
564.7658665557392
 20
581.4665541057475
 30
0.0
 11
566.2294571669772
 21
582.2153842113912
 31
0.0
  0
LINE
  5
1E1
330
1F
100
AcDbEntity
  8
SKARN_FSET1
100
AcDbLine
 10
566.2286701704143
 20
582.9642143165693
 30
0.0
 11
568.2408121371409
 21
584.274667001795
 31
0.0
  0
LINE
  5
1E2
330
1F
100
AcDbEntity
  8
SKARN_FSET1
100
AcDbLine
 10
570.4371817996725
 20
584.4618745278567
 30
0.0
 11
573.3639695241582
 21
586.3339497917332
 31
0.0
  0
LINE
  5
1E3
330
1F
100
AcDbEntity
  8
SKARN_FSET1
100
AcDbLine
 10
572.0842131103855
 20
584.8362895804457
 30
0.0
 11
574.6452999310568
 21
586.3339497917332
 31
0.0
  0
LINE
  5
1E4
330
1F
100
AcDbEntity
  8
SKARN_FSET1
100
AcDbLine
 10
577.181258621742
 20
263.4009667742066
 30
0.0
 11
583.5837789239595
 21
267.3323248280212
 31
0.0
  0
LINE
  5
1E5
330
1F
100
AcDbEntity
  8
SKARN_FSET1
100
AcDbLine
 10
577.0217655573506
 20
589.3292702138424
 30
0.0
 11
578.4849626703653
 21
590.4525153725408
 31
0.0
  0
LINE
  5
1E6
330
1F
100
AcDbEntity
  8
SKARN_FSET1
100
AcDbLine
 10
578.0974783722777
 20
262.4649291425012
 30
0.0
 11
581.2073132975493
 21
264.3370044063777
 31
0.0
  0
LINE
  5
1E7
330
1F
100
AcDbEntity
  8
SKARN_FSET1
100
AcDbLine
 10
579.4015759193571
 20
589.142062687315
 30
0.0
 11
582.8775052465498
 21
591.0141379511915
 31
0.0
  0
LINE
  5
1E8
330
1F
100
AcDbEntity
  8
SKARN_FSET1
100
AcDbLine
 10
580.6801518381108
 20
591.7629680568352
 30
0.0
 11
581.7776480475441
 21
592.511798162479
 31
0.0
  0
LINE
  5
1E9
330
1F
100
AcDbEntity
  8
SKARN_FSET1
100
AcDbLine
 10
582.6709039087873
 20
265.0858345115557
 30
0.0
 11
584.1346912692534
 21
265.6474570906721
 31
0.0
  0
LINE
  5
1EA
330
1F
100
AcDbEntity
  8
SKARN_FSET1
100
AcDbLine
 10
583.9510538208997
 20
266.2090796702541
 30
0.0
 11
585.0485500301002
 21
266.9579097754322
 31
0.0
  0
LINE
  5
1EB
330
1F
100
AcDbEntity
  8
SKARN_FSET1
100
AcDbLine
 10
584.5217820690013
 20
594.0094583737664
 30
0.0
 11
587.0828688896727
 21
595.5071185845882
 31
0.0
  0
LINE
  5
1EC
330
1F
100
AcDbEntity
  8
SKARN_FSET1
100
AcDbLine
 10
588.912947401288
 20
595.8815336376429
 30
0.0
 11
590.0102468613768
 21
596.8175712693483
 31
0.0
  0
LINE
  5
1ED
330
1F
100
AcDbEntity
  8
SKARN_FSET1
100
AcDbLine
 10
590.924892618903
 20
597.3791938484646
 30
0.0
 11
592.5713336819317
 21
598.3152314806357
 31
0.0
  0
LINE
  5
1EE
330
1F
100
AcDbEntity
  8
SKARN_FSET1
100
AcDbLine
 10
595.278605118976
 20
460.7176995859481
 30
0.0
 11
596.5591485291952
 21
461.4665296915919
 31
0.0
  0
LINE
  5
1EF
330
1F
100
AcDbEntity
  8
SKARN_FSET1
100
AcDbLine
 10
595.1336009976221
 20
598.6896465336904
 30
0.0
 11
596.4141444078414
 21
599.4384766388685
 31
0.0
  0
LINE
  5
1F0
330
1F
100
AcDbEntity
  8
SKARN_FSET1
100
AcDbLine
 10
9.414360716473311
 20
394.259027719032
 30
0.0
 11
9.414360716473311
 21
394.259027719032
 31
0.0
  0
LINE
  5
1F1
330
1F
100
AcDbEntity
  8
SKARN_FSET1
100
AcDbLine
 10
26.96085062937345
 20
244.8674216615036
 30
0.0
 11
26.96085062937345
 21
244.8674216615036
 31
0.0
  0
LINE
  5
1F2
330
1F
100
AcDbEntity
  8
SKARN_FSET1
100
AcDbLine
 10
44.29930619953666
 20
119.2511714561842
 30
0.0
 11
44.29930619953666
 21
119.2511714561842
 31
0.0
  0
LINE
  5
1F3
330
1F
100
AcDbEntity
  8
SKARN_FSET1
100
AcDbLine
 10
106.4341697115451
 20
563.8690466252156
 30
0.0
 11
106.4341697115451
 21
563.8690466252156
 31
0.0
  0
LINE
  5
1F4
330
1F
100
AcDbEntity
  8
SKARN_FSET1
100
AcDbLine
 10
7.629196771304123
 20
2.808090043254197
 30
0.0
 11
7.629196771304123
 21
2.808090043254197
 31
0.0
  0
LINE
  5
1F5
330
1F
100
AcDbEntity
  8
SKARN_FSET1
100
AcDbLine
 10
40.87807313527446
 20
65.33540385682136
 30
0.0
 11
40.87807313527446
 21
65.33540385682136
 31
0.0
  0
LINE
  5
1F6
330
1F
100
AcDbEntity
  8
SKARN_FSET1
100
AcDbLine
 10
147.7489131344482
 20
92.667702708859
 30
0.0
 11
147.7489131344482
 21
92.667702708859
 31
0.0
  0
LINE
  5
1F7
330
1F
100
AcDbEntity
  8
SKARN_FSET1
100
AcDbLine
 10
86.60347478906624
 20
99.96879623830318
 30
0.0
 11
86.60347478906624
 21
99.96879623830318
 31
0.0
  0
LINE
  5
1F8
330
1F
100
AcDbEntity
  8
SKARN_FSET1
100
AcDbLine
 10
72.42246743780561
 20
182.1529003223404
 30
0.0
 11
72.42246743780561
 21
182.1529003223404
 31
0.0
  0
LINE
  5
1F9
330
1F
100
AcDbEntity
  8
SKARN_FSET1
100
AcDbLine
 10
154.7819029316306
 20
193.3853519055992
 30
0.0
 11
154.7819029316306
 21
193.3853519055992
 31
0.0
  0
LINE
  5
1FA
330
1F
100
AcDbEntity
  8
SKARN_FSET1
100
AcDbLine
 10
151.8372110349592
 20
208.5491615426727
 30
0.0
 11
151.8372110349592
 21
208.5491615426727
 31
0.0
  0
LINE
  5
1FB
330
1F
100
AcDbEntity
  8
SKARN_FSET1
100
AcDbLine
 10
144.1305374247022
 20
226.3338765497319
 30
0.0
 11
144.1305374247022
 21
226.3338765497319
 31
0.0
  0
LINE
  5
1FC
330
1F
100
AcDbEntity
  8
SKARN_FSET1
100
AcDbLine
 10
2.73172538948711
 20
308.5179806333035
 30
0.0
 11
2.73172538948711
 21
308.5179806333035
 31
0.0
  0
LINE
  5
1FD
330
1F
100
AcDbEntity
  8
SKARN_FSET1
100
AcDbLine
 10
512.1793076042086
 20
456.7863415316679
 30
0.0
 11
512.1793076042086
 21
456.7863415316679
 31
0.0
  0
LINE
  5
1FE
330
1F
100
AcDbEntity
  8
SKARN_FSET1
100
AcDbLine
 10
117.3154087165603
 20
486.3651307011023
 30
0.0
 11
117.3154087165603
 21
486.3651307011023
 31
0.0
  0
LINE
  5
1FF
330
1F
100
AcDbEntity
  8
SKARN_FSET1
100
AcDbLine
 10
210.9816663539968
 20
537.659992930945
 30
0.0
 11
210.9816663539968
 21
537.659992930945
 31
0.0
  0
LINE
  5
200
330
1F
100
AcDbEntity
  8
SKARN_FSET1
100
AcDbLine
 10
33.9466911253985
 20
564.6178767308593
 30
0.0
 11
33.9466911253985
 21
564.6178767308593
 31
0.0
  0
LINE
  5
201
330
1F
100
AcDbEntity
  8
SKARN_FSET1
100
AcDbLine
 10
13.4151052464731
 20
593.44783579465
 30
0.0
 11
13.4151052464731
 21
593.44783579465
 31
0.0
  0
LINE
  5
202
330
1F
100
AcDbEntity
  8
SKARN_FSET1
100
AcDbLine
 10
17.25732572481502
 20
595.1327035319991
 30
0.0
 11
17.25732572481502
 21
595.1327035319991
 31
0.0
  0
ENDSEC
  0
SECTION
  2
OBJECTS
  0
DICTIONARY
  5
C
330
0
100
AcDbDictionary
  3
ACAD_GROUP
350
D
  3
ACAD_LAYOUT
350
1A
  3
ACAD_MATERIAL
350
43
  3
ACAD_MLEADERSTYLE
350
6B
  3
ACAD_MLINESTYLE
350
17
  3
ACAD_PLOTSETTINGS
350
19
  3
ACAD_SCALELIST
350
47
  3
ACAD_VISUALSTYLE
350
2A
  3
ACDBHEADERROUNDTRIPXREC
350
204
  3
ACDBVARIABLEDICTIONARY
350
8F
  3
ESRI_PRJ
350
203
  0
DICTIONARY
  5
225
330
8
100
AcDbDictionary
280
     1
  3
ACAD_XREC_ROUNDTRIP
360
226
  0
DICTIONARY
  5
D
102
{ACAD_REACTORS
330
C
102
}
330
C
100
AcDbDictionary
  0
DICTIONARY
  5
1A
102
{ACAD_REACTORS
330
C
102
}
330
C
100
AcDbDictionary
  0
DICTIONARY
  5
43
102
{ACAD_REACTORS
330
C
102
}
330
C
100
AcDbDictionary
  3
BYBLOCK
350
45
  3
BYLAYER
350
44
  3
GLOBAL
350
46
  0
DICTIONARY
  5
6B
102
{ACAD_REACTORS
330
C
102
}
330
C
100
AcDbDictionary
  3
STANDARD
350
6C
  0
DICTIONARY
  5
17
102
{ACAD_REACTORS
330
C
102
}
330
C
100
AcDbDictionary
  3
STANDARD
350
18
  0
DICTIONARY
  5
19
102
{ACAD_REACTORS
330
C
102
}
330
C
100
AcDbDictionary
  0
DICTIONARY
  5
47
102
{ACAD_REACTORS
330
C
102
}
330
C
100
AcDbDictionary
  3
A0
350
48
  3
A1
350
49
  3
A2
350
4A
  3
A3
350
4B
  3
A4
350
4C
  3
A5
350
4D
  3
A6
350
4E
  3
A7
350
4F
  3
A8
350
50
  3
A9
350
51
  3
B0
350
52
  3
B1
350
53
  3
B2
350
54
  3
B3
350
55
  3
B4
350
56
  3
B5
350
57
  3
B6
350
58
  3
B7
350
59
  3
B8
350
5A
  3
B9
350
5B
  3
C0
350
5C
  3
C1
350
5D
  3
C2
350
5E
  3
C3
350
5F
  3
C4
350
60
  3
C5
350
61
  3
C6
350
62
  3
C7
350
63
  3
C8
350
64
  3
C9
350
65
  3
D0
350
66
  3
D1
350
67
  3
D2
350
68
  0
DICTIONARY
  5
2A
102
{ACAD_REACTORS
330
C
102
}
330
C
100
AcDbDictionary
  3
2DWIREFRAME
350
2F
  3
BASIC
350
32
  3
BRIGHTEN
350
36
  3
COLORCHANGE
350
3A
  3
CONCEPTUAL
350
34
  3
DIM
350
35
  3
EDGECOLOROFF
350
3D
  3
FACEPATTERN
350
39
  3
FLAT
350
2B
  3
FLATWITHEDGES
350
2C
  3
GOURAUD
350
2D
  3
GOURAUDWITHEDGES
350
2E
  3
HIDDEN
350
31
  3
JITTEROFF
350
3B
  3
LINEPATTERN
350
38
  3
OVERHANGOFF
350
3C
  3
REALISTIC
350
33
  3
SHADED
350
42
  3
SHADED_WITH_EDGES
350
41
  3
SHADES_OF_GRAY
350
3E
  3
SKETCHY
350
3F
  3
THICKEN
350
37
  3
WIREFRAME
350
30
  3
X-RAY
350
40
  0
DICTIONARY
  5
204
102
{ACAD_REACTORS
330
C
102
}
330
C
100
AcDbDictionary
  3
CEPSNID
350
20E
  3
CEPSNTYPE
350
20D
  3
DIMSTYLEDATA
350
224
  3
FINGERPRINTGUID
350
20F
  3
HYPERLINKBASE
350
207
  3
INSUNITS
350
20C
  3
LAYOUTDICT
350
209
  3
LWETCUNION
350
20B
  3
PLOTSETDICT
350
20A
  3
PSVPSCALE
350
211
  3
PUCSBASE
350
214
  3
PUCSORGBACK
350
21A
  3
PUCSORGBOTTOM
350
216
  3
PUCSORGFRONT
350
219
  3
PUCSORGLEFT
350
217
  3
PUCSORGRIGHT
350
218
  3
PUCSORGTOP
350
215
  3
PUCSORTHOREF
350
212
  3
PUCSORTHOVIEW
350
213
  3
STYLESHEET
350
208
  3
TSTACKALIGN
350
205
  3
TSTACKSIZE
350
206
  3
UCSBASE
350
21D
  3
UCSORGBACK
350
223
  3
UCSORGBOTTOM
350
21F
  3
UCSORGFRONT
350
222
  3
UCSORGLEFT
350
220
  3
UCSORGRIGHT
350
221
  3
UCSORGTOP
350
21E
  3
UCSORTHOREF
350
21B
  3
UCSORTHOVIEW
350
21C
  3
VERSIONGUID
350
210
  0
DICTIONARY
  5
8F
102
{ACAD_REACTORS
330
C
102
}
330
C
100
AcDbDictionary
  3
CANNOSCALE
350
98
  3
CMLEADERSTYLE
350
91
  3
CTABLESTYLE
350
90
  3
DIMASSOC
350
94
  3
HIDETEXT
350
95
  3
MSLTSCALE
350
99
  0
XRECORD
  5
203
102
{ACAD_REACTORS
330
C
102
}
330
C
100
AcDbXrecord
  1
PROJCS["WGS_1984_UTM_Zone_14N",GEOGCS["GCS_WGS_1984",DATUM["D_WGS_1984",SPHEROID["WGS_1984",6378137.0,298.257223563]],PRIMEM["Greenwich",0.0],UNIT["Degree",0.0174532925199433]],PROJECTION["Transverse_Mercator"],PARAMETER["False_Easting",500000.0],PARAMETER["False_Northing",0.0],PARAMETER["Central_Meridian",-99.0],PARAMETER["Scale_Factor",0.9996],PARAMETER["Latitude_Of_Origin",0.0],UNIT["Meter",1.0]]
  0
XRECORD
  5
226
102
{ACAD_REACTORS
330
225
102
}
330
225
100
AcDbXrecord
102
VTR_0.000_0.000_1.000_1.000_VISUALSTYLE
340
2F
102
VTR_0.000_0.000_1.000_1.000_GRIDDISPLAY
 70
     3
102
VTR_0.000_0.000_1.000_1.000_GRIDMAJOR
 70
     5
102
VTR_0.000_0.000_1.000_1.000_DEFAULTLIGHTING
280
     1
102
VTR_0.000_0.000_1.000_1.000_DEFAULTLIGHTINGTYPE
 70
     1
102
VTR_0.000_0.000_1.000_1.000_BRIGHTNESS
141
0.0
102
VTR_0.000_0.000_1.000_1.000_CONTRAST
142
0.0
  0
MATERIAL
  5
45
102
{ACAD_REACTORS
330
43
102
}
102
{ACAD_XDICTIONARY
360
229
102
}
330
43
100
AcDbMaterial
  1
BYBLOCK
  0
MATERIAL
  5
44
102
{ACAD_REACTORS
330
43
102
}
102
{ACAD_XDICTIONARY
360
227
102
}
330
43
100
AcDbMaterial
  1
BYLAYER
  0
MATERIAL
  5
46
102
{ACAD_REACTORS
330
43
102
}
102
{ACAD_XDICTIONARY
360
22B
102
}
330
43
100
AcDbMaterial
  1
GLOBAL
  0
ACAD_PROXY_OBJECT
  5
6C
102
{ACAD_REACTORS
330
6B
102
}
330
6B
100
AcDbProxyObject
 90
      499
 91
      505
 93
      610
310
40901902A4063FBFFFFFE056BD1B81E855B9FC0AD7A3703D0AD73F4214DD185B99185C9900AD7A3703D0AC73F90141901A02B5E8DC0F42B1CFC02B5E8DC0F42B1CFE5764000000000000300FC0
340
14
340
0
340
11
340
0
 94
        0
1001
ACAD_MLEADERVER
1070
     2
  0
MLINESTYLE
  5
18
102
{ACAD_REACTORS
330
17
102
}
330
17
100
AcDbMlineStyle
  2
Standard
 70
     0
  3

 62
   256
 51
90.0
 52
90.0
 71
     2
 49
0.5
 62
   256
  6
BYLAYER
 49
-0.5
 62
   256
  6
BYLAYER
  0
ACAD_PROXY_OBJECT
  5
48
102
{ACAD_REACTORS
330
47
102
}
330
47
100
AcDbProxyObject
 90
      499
 91
      503
 93
       41
310
903313A31580
  0
ACAD_PROXY_OBJECT
  5
49
102
{ACAD_REACTORS
330
47
102
}
330
47
100
AcDbProxyObject
 90
      499
 91
      503
 93
      105
310
903313A324000000000000004000
  0
ACAD_PROXY_OBJECT
  5
4A
102
{ACAD_REACTORS
330
47
102
}
330
47
100
AcDbProxyObject
 90
      499
 91
      503
 93
      105
310
903313A344000000000000104000
  0
ACAD_PROXY_OBJECT
  5
4B
102
{ACAD_REACTORS
330
47
102
}
330
47
100
AcDbProxyObject
 90
      499
 91
      503
 93
      105
310
903313A354000000000000144000
  0
ACAD_PROXY_OBJECT
  5
4C
102
{ACAD_REACTORS
330
47
102
}
330
47
100
AcDbProxyObject
 90
      499
 91
      503
 93
      105
310
903313A384000000000000204000
  0
ACAD_PROXY_OBJECT
  5
4D
102
{ACAD_REACTORS
330
47
102
}
330
47
100
AcDbProxyObject
 90
      499
 91
      503
 93
      113
310
904313A31304000000000000244000
  0
ACAD_PROXY_OBJECT
  5
4E
102
{ACAD_REACTORS
330
47
102
}
330
47
100
AcDbProxyObject
 90
      499
 91
      503
 93
      113
310
904313A31364000000000000304000
  0
ACAD_PROXY_OBJECT
  5
4F
102
{ACAD_REACTORS
330
47
102
}
330
47
100
AcDbProxyObject
 90
      499
 91
      503
 93
      113
310
904313A32304000000000000344000
  0
ACAD_PROXY_OBJECT
  5
50
102
{ACAD_REACTORS
330
47
102
}
330
47
100
AcDbProxyObject
 90
      499
 91
      503
 93
      113
310
904313A333040000000000003E4000
  0
ACAD_PROXY_OBJECT
  5
51
102
{ACAD_REACTORS
330
47
102
}
330
47
100
AcDbProxyObject
 90
      499
 91
      503
 93
      113
310
904313A34304000000000000444000
  0
ACAD_PROXY_OBJECT
  5
52
102
{ACAD_REACTORS
330
47
102
}
330
47
100
AcDbProxyObject
 90
      499
 91
      503
 93
      113
310
904313A35304000000000000494000
  0
ACAD_PROXY_OBJECT
  5
53
102
{ACAD_REACTORS
330
47
102
}
330
47
100
AcDbProxyObject
 90
      499
 91
      503
 93
      121
310
905313A3130304000000000000594000
  0
ACAD_PROXY_OBJECT
  5
54
102
{ACAD_REACTORS
330
47
102
}
330
47
100
AcDbProxyObject
 90
      499
 91
      503
 93
      105
310
903323A310000000000000010100
  0
ACAD_PROXY_OBJECT
  5
55
102
{ACAD_REACTORS
330
47
102
}
330
47
100
AcDbProxyObject
 90
      499
 91
      503
 93
      105
310
903343A310000000000000410100
  0
ACAD_PROXY_OBJECT
  5
56
102
{ACAD_REACTORS
330
47
102
}
330
47
100
AcDbProxyObject
 90
      499
 91
      503
 93
      105
310
903383A310000000000000810100
  0
ACAD_PROXY_OBJECT
  5
57
102
{ACAD_REACTORS
330
47
102
}
330
47
100
AcDbProxyObject
 90
      499
 91
      503
 93
      113
310
90431303A310000000000000910100
  0
ACAD_PROXY_OBJECT
  5
58
102
{ACAD_REACTORS
330
47
102
}
330
47
100
AcDbProxyObject
 90
      499
 91
      503
 93
      121
310
9053130303A310000000000001650100
  0
ACAD_PROXY_OBJECT
  5
59
102
{ACAD_REACTORS
330
47
102
}
330
47
100
AcDbProxyObject
 90
      499
 91
      503
 93
      257
310
90E312F31323822203D2031272D3022000000000000200FC000000000000284000
  0
ACAD_PROXY_OBJECT
  5
5A
102
{ACAD_REACTORS
330
47
102
}
330
47
100
AcDbProxyObject
 90
      499
 91
      503
 93
      249
310
90D312F363422203D2031272D3022000000000000240FC000000000000284000
  0
ACAD_PROXY_OBJECT
  5
5B
102
{ACAD_REACTORS
330
47
102
}
330
47
100
AcDbProxyObject
 90
      499
 91
      503
 93
      249
310
90D312F333222203D2031272D3022000000000000280FC000000000000284000
  0
ACAD_PROXY_OBJECT
  5
5C
102
{ACAD_REACTORS
330
47
102
}
330
47
100
AcDbProxyObject
 90
      499
 91
      503
 93
      249
310
90D312F313622203D2031272D30220000000000002C0FC000000000000284000
  0
ACAD_PROXY_OBJECT
  5
5D
102
{ACAD_REACTORS
330
47
102
}
330
47
100
AcDbProxyObject
 90
      499
 91
      503
 93
      249
310
90D332F333222203D2031272D30220000000000002E0FC000000000000284000
  0
ACAD_PROXY_OBJECT
  5
5E
102
{ACAD_REACTORS
330
47
102
}
330
47
100
AcDbProxyObject
 90
      499
 91
      503
 93
      241
310
90C312F3822203D2031272D3022000000000000300FC000000000000284000
  0
ACAD_PROXY_OBJECT
  5
5F
102
{ACAD_REACTORS
330
47
102
}
330
47
100
AcDbProxyObject
 90
      499
 91
      503
 93
      249
310
90D332F313622203D2031272D3022000000000000320FC000000000000284000
  0
ACAD_PROXY_OBJECT
  5
60
102
{ACAD_REACTORS
330
47
102
}
330
47
100
AcDbProxyObject
 90
      499
 91
      503
 93
      241
310
90C312F3422203D2031272D3022000000000000340FC000000000000284000
  0
ACAD_PROXY_OBJECT
  5
61
102
{ACAD_REACTORS
330
47
102
}
330
47
100
AcDbProxyObject
 90
      499
 91
      503
 93
      241
310
90C332F3822203D2031272D3022000000000000360FC000000000000284000
  0
ACAD_PROXY_OBJECT
  5
62
102
{ACAD_REACTORS
330
47
102
}
330
47
100
AcDbProxyObject
 90
      499
 91
      503
 93
      241
310
90C312F3222203D2031272D3022000000000000380FC000000000000284000
  0
ACAD_PROXY_OBJECT
  5
63
102
{ACAD_REACTORS
330
47
102
}
330
47
100
AcDbProxyObject
 90
      499
 91
      503
 93
      241
310
90C332F3422203D2031272D30220000000000003A0FC000000000000284000
  0
ACAD_PROXY_OBJECT
  5
64
102
{ACAD_REACTORS
330
47
102
}
330
47
100
AcDbProxyObject
 90
      499
 91
      503
 93
      161
310
90A3122203D2031272D30224000000000000284000
  0
ACAD_PROXY_OBJECT
  5
65
102
{ACAD_REACTORS
330
47
102
}
330
47
100
AcDbProxyObject
 90
      499
 91
      503
 93
      257
310
90E312D312F3222203D2031272D30220000000000003E0FC000000000000284000
  0
ACAD_PROXY_OBJECT
  5
66
102
{ACAD_REACTORS
330
47
102
}
330
47
100
AcDbProxyObject
 90
      499
 91
      503
 93
      225
310
90A3322203D2031272D302200000000000002100000000000000284000
  0
ACAD_PROXY_OBJECT
  5
67
102
{ACAD_REACTORS
330
47
102
}
330
47
100
AcDbProxyObject
 90
      499
 91
      503
 93
      225
310
90A3622203D2031272D302200000000000006100000000000000284000
  0
ACAD_PROXY_OBJECT
  5
68
102
{ACAD_REACTORS
330
47
102
}
330
47
100
AcDbProxyObject
 90
      499
 91
      503
 93
      249
310
90D31272D3022203D2031272D30220000000000000A100000000000000284000
  0
ACAD_PROXY_OBJECT
  5
2F
102
{ACAD_REACTORS
330
2A
102
}
330
2A
100
AcDbProxyObject
 90
      499
 91
      501
 93
      436
310
42CC9915DA5C99599C985B595049028333333333333E33F0000000000000F90107901411070040501600405405064090741402480A0340
1001
ACAD
1000
AcDbSavedByObjectVersion
1070
     0
  0
ACAD_PROXY_OBJECT
  5
32
102
{ACAD_REACTORS
330
2A
102
}
330
2A
100
AcDbProxyObject
 90
      499
 91
      501
 93
      388
310
4150985CDA58D07406404333333333333E33F0000000000000F90107A41107004050150841D405064090741402480A0350
1001
ACAD
1000
AcDbSavedByObjectVersion
1070
     0
  0
ACAD_PROXY_OBJECT
  5
36
102
{ACAD_REACTORS
330
2A
102
}
330
2A
100
AcDbProxyObject
 90
      499
 91
      501
 93
      428
310
42109C9A59DA1D195B90C409028333333333333E33F0000000000000F9010790141107004050150841D405064090741402480A029950
1001
ACAD
1000
AcDbSavedByObjectVersion
1070
     0
  0
ACAD_PROXY_OBJECT
  5
3A
102
{ACAD_REACTORS
330
2A
102
}
330
2A
100
AcDbProxyObject
 90
      499
 91
      501
 93
      452
310
42D0DBDB1BDC90DA185B99D95104090240C333333333333E33F0000000000000F90108901411070040501508421405064090741402480A0350
1001
ACAD
1000
AcDbSavedByObjectVersion
1070
     0
  0
ACAD_PROXY_OBJECT
  5
34
102
{ACAD_REACTORS
330
2A
102
}
330
2A
100
AcDbProxyObject
 90
      499
 91
      501
 93
      500
310
4290DBDB98D95C1D1D585B10940D028333333333333E33F0000000000000F90107902409070040501000000000018199010841D405064090740C02480A0340
1001
ACAD
1000
AcDbSavedByObjectVersion
1070
     0
  0
ACAD_PROXY_OBJECT
  5
35
102
{ACAD_REACTORS
330
2A
102
}
330
2A
100
AcDbProxyObject
 90
      499
 91
      501
 93
      412
310
40D11A5B50B409028333333333333E33F0000000000000F9010790141107004050150841D405064090741402480A02677FFFFFD0
1001
ACAD
1000
AcDbSavedByObjectVersion
1070
     0
  0
ACAD_PROXY_OBJECT
  5
3D
102
{ACAD_REACTORS
330
2A
102
}
330
2A
100
AcDbProxyObject
 90
      499
 91
      501
 93
      452
310
43115919D950DBDB1BDC93D999916409028333333333333E33F0000000000000F9010790141107004050150841D405064090741402480A0350
1001
ACAD
1000
AcDbSavedByObjectVersion
1070
     0
  0
ACAD_PROXY_OBJECT
  5
39
102
{ACAD_REACTORS
330
2A
102
}
330
2A
100
AcDbProxyObject
 90
      499
 91
      501
 93
      444
310
42D19858D95C185D1D195C9B90F409028333333333333E33F0000000000000F9010790141107004050150841D405064090741402480A0350
1001
ACAD
1000
AcDbSavedByObjectVersion
1070
     0
  0
ACAD_PROXY_OBJECT
  5
2B
102
{ACAD_REACTORS
330
2A
102
}
330
2A
100
AcDbProxyObject
 90
      499
 91
      501
 93
      380
310
41119B185D240901404333333333333E33F0000000000000F9010740A907004050150841D405064090741402480A1B50
1001
ACAD
1000
AcDbSavedByObjectVersion
1070
     0
  0
ACAD_PROXY_OBJECT
  5
2C
102
{ACAD_REACTORS
330
2A
102
}
330
2A
100
AcDbProxyObject
 90
      499
 91
      501
 93
      468
310
43519B185D15DA5D1A115919D95CD0140901404333333333333E33F0000000000000F90107409019070040501600405405064090741402480A1B50
1001
ACAD
1000
AcDbSavedByObjectVersion
1070
     0
  0
ACAD_PROXY_OBJECT
  5
2D
102
{ACAD_REACTORS
330
2A
102
}
330
2A
100
AcDbProxyObject
 90
      499
 91
      501
 93
      404
310
41D1DBDD5C985D5910240902404333333333333E33F0000000000000F9010740A9070040501641D405064090741402480A1B50
1001
ACAD
1000
AcDbSavedByObjectVersion
1070
     0
  0
ACAD_PROXY_OBJECT
  5
2E
102
{ACAD_REACTORS
330
2A
102
}
330
2A
100
AcDbProxyObject
 90
      499
 91
      501
 93
      492
310
4411DBDD5C985D5915DA5D1A115919D95CD0340902404333333333333E33F0000000000000F90107409019070040501600405405064090741402480A1B50
1001
ACAD
1000
AcDbSavedByObjectVersion
1070
     0
  0
ACAD_PROXY_OBJECT
  5
31
102
{ACAD_REACTORS
330
2A
102
}
330
2A
100
AcDbProxyObject
 90
      499
 91
      501
 93
      476
310
41921A5919195B90640502408333333333333E33F0000000000000F901079024090700405020000000000001110200405405064090740C02480A0340
1001
ACAD
1000
AcDbSavedByObjectVersion
1070
     0
  0
ACAD_PROXY_OBJECT
  5
3B
102
{ACAD_REACTORS
330
2A
102
}
330
2A
100
AcDbProxyObject
 90
      499
 91
      501
 93
      428
310
42529A5D1D195C93D999914409028333333333333E33F0000000000000F9010790141107004050150A41D405064090741402480A0350
1001
ACAD
1000
AcDbSavedByObjectVersion
1070
     0
  0
ACAD_PROXY_OBJECT
  5
38
102
{ACAD_REACTORS
330
2A
102
}
330
2A
100
AcDbProxyObject
 90
      499
 91
      501
 93
      444
310
42D31A5B995C185D1D195C9B90E409028333333333333E33F0000000000000F9010790141107004050750841D405064090741402483A0350
1001
ACAD
1000
AcDbSavedByObjectVersion
1070
     0
  0
ACAD_PROXY_OBJECT
  5
3C
102
{ACAD_REACTORS
330
2A
102
}
330
2A
100
AcDbProxyObject
 90
      499
 91
      501
 93
      444
310
42D3DD995C9A185B99D3D999915409028333333333333E33F0000000000000F9010790141107004050150941D405064090741402480A0350
1001
ACAD
1000
AcDbSavedByObjectVersion
1070
     0
  0
ACAD_PROXY_OBJECT
  5
33
102
{ACAD_REACTORS
330
2A
102
}
330
2A
100
AcDbProxyObject
 90
      499
 91
      501
 93
      428
310
425499585B1A5CDD1A58D08409038333333333333E33F0000000000000F9010740A907004050150800405405064090740C02480A1B40
1001
ACAD
1000
AcDbSavedByObjectVersion
1070
     0
  0
ACAD_PROXY_OBJECT
  5
42
102
{ACAD_REACTORS
330
2A
102
}
330
2A
100
AcDbProxyObject
 90
      499
 91
      501
 93
      420
310
4194DA1859195911B40902404333333333333E33F0000000000000F9010740A41107004050150800405405064090840C02480A0B40
1001
ACAD
1000
AcDbSavedByObjectVersion
1070
     0
  0
ACAD_PROXY_OBJECT
  5
41
102
{ACAD_REACTORS
330
2A
102
}
330
2A
100
AcDbProxyObject
 90
      499
 91
      501
 93
      516
310
4454DA18591959081DDA5D1A08195919D95CD1A40902404333333333333E33F0000000000000F901074090142907004050250800405405064090740C02480A0B40
1001
ACAD
1000
AcDbSavedByObjectVersion
1070
     0
  0
ACAD_PROXY_OBJECT
  5
3E
102
{ACAD_REACTORS
330
2A
102
}
330
2A
100
AcDbProxyObject
 90
      499
 91
      501
 93
      532
310
4394DA1859195CC81BD98811DC985E5174090240C333333333333E33F0000000000000F901079024090741D01000000000000111010841D405064090740C02480A0340
1001
ACAD
1000
AcDbSavedByObjectVersion
1070
     0
  0
ACAD_PROXY_OBJECT
  5
3F
102
{ACAD_REACTORS
330
2A
102
}
330
2A
100
AcDbProxyObject
 90
      499
 91
      501
 93
      476
310
41D4DAD95D18DA1E51840502408333333333333E33F0000000000000F901079024090741D01000000000000111010B41D405064090741802480A0340
1001
ACAD
1000
AcDbSavedByObjectVersion
1070
     0
  0
ACAD_PROXY_OBJECT
  5
37
102
{ACAD_REACTORS
330
2A
102
}
330
2A
100
AcDbProxyObject
 90
      499
 91
      501
 93
      412
310
41D51A1A58DAD95B90D409028333333333333E33F0000000000000F9010790141107004050150C41D405064090741402480A0350
1001
ACAD
1000
AcDbSavedByObjectVersion
1070
     0
  0
ACAD_PROXY_OBJECT
  5
30
102
{ACAD_REACTORS
330
2A
102
}
330
2A
100
AcDbProxyObject
 90
      499
 91
      501
 93
      420
310
4255DA5C99599C985B595059028333333333333E33F0000000000000F90107901411070040501600405405064090740C02480A0340
1001
ACAD
1000
AcDbSavedByObjectVersion
1070
     0
  0
ACAD_PROXY_OBJECT
  5
40
102
{ACAD_REACTORS
330
2A
102
}
330
2A
100
AcDbProxyObject
 90
      499
 91
      501
 93
      404
310
41560B54985E51940902404000000000000E03F0000000000000F9010740501907004050150841D405064090740C02480A1B40
1001
ACAD
1000
AcDbSavedByObjectVersion
1070
     0
  0
XRECORD
  5
20E
102
{ACAD_REACTORS
330
204
102
}
330
204
100
AcDbXrecord
340
0
  0
XRECORD
  5
20D
102
{ACAD_REACTORS
330
204
102
}
330
204
100
AcDbXrecord
 90
        0
  0
XRECORD
  5
224
102
{ACAD_REACTORS
330
204
102
}
330
204
100
AcDbXrecord
1000
DSTYLE
1002
{
1070
   340
340
11
1002
}
  0
XRECORD
  5
20F
102
{ACAD_REACTORS
330
204
102
}
330
204
100
AcDbXrecord
  1
{25F9417C-D8C2-4433-99DA-15D496253B9C}
  0
XRECORD
  5
207
102
{ACAD_REACTORS
330
204
102
}
330
204
100
AcDbXrecord
  1

  0
XRECORD
  5
20C
102
{ACAD_REACTORS
330
204
102
}
330
204
100
AcDbXrecord
 90
        1
  0
XRECORD
  5
209
102
{ACAD_REACTORS
330
204
102
}
330
204
100
AcDbXrecord
340
1A
  0
XRECORD
  5
20B
102
{ACAD_REACTORS
330
204
102
}
330
204
100
AcDbXrecord
 90
    10781
  0
XRECORD
  5
20A
102
{ACAD_REACTORS
330
204
102
}
330
204
100
AcDbXrecord
340
19
  0
XRECORD
  5
211
102
{ACAD_REACTORS
330
204
102
}
330
204
100
AcDbXrecord
 40
0.0
  0
XRECORD
  5
214
102
{ACAD_REACTORS
330
204
102
}
330
204
100
AcDbXrecord
340
0
  0
XRECORD
  5
21A
102
{ACAD_REACTORS
330
204
102
}
330
204
100
AcDbXrecord
 10
0.0
 20
0.0
 30
0.0
  0
XRECORD
  5
216
102
{ACAD_REACTORS
330
204
102
}
330
204
100
AcDbXrecord
 10
0.0
 20
0.0
 30
0.0
  0
XRECORD
  5
219
102
{ACAD_REACTORS
330
204
102
}
330
204
100
AcDbXrecord
 10
0.0
 20
0.0
 30
0.0
  0
XRECORD
  5
217
102
{ACAD_REACTORS
330
204
102
}
330
204
100
AcDbXrecord
 10
0.0
 20
0.0
 30
0.0
  0
XRECORD
  5
218
102
{ACAD_REACTORS
330
204
102
}
330
204
100
AcDbXrecord
 10
0.0
 20
0.0
 30
0.0
  0
XRECORD
  5
215
102
{ACAD_REACTORS
330
204
102
}
330
204
100
AcDbXrecord
 10
0.0
 20
0.0
 30
0.0
  0
XRECORD
  5
212
102
{ACAD_REACTORS
330
204
102
}
330
204
100
AcDbXrecord
340
0
  0
XRECORD
  5
213
102
{ACAD_REACTORS
330
204
102
}
330
204
100
AcDbXrecord
 70
     0
  0
XRECORD
  5
208
102
{ACAD_REACTORS
330
204
102
}
330
204
100
AcDbXrecord
  1

  0
XRECORD
  5
205
102
{ACAD_REACTORS
330
204
102
}
330
204
100
AcDbXrecord
 90
        1
  0
XRECORD
  5
206
102
{ACAD_REACTORS
330
204
102
}
330
204
100
AcDbXrecord
 90
       70
  0
XRECORD
  5
21D
102
{ACAD_REACTORS
330
204
102
}
330
204
100
AcDbXrecord
340
0
  0
XRECORD
  5
223
102
{ACAD_REACTORS
330
204
102
}
330
204
100
AcDbXrecord
 10
0.0
 20
0.0
 30
0.0
  0
XRECORD
  5
21F
102
{ACAD_REACTORS
330
204
102
}
330
204
100
AcDbXrecord
 10
0.0
 20
0.0
 30
0.0
  0
XRECORD
  5
222
102
{ACAD_REACTORS
330
204
102
}
330
204
100
AcDbXrecord
 10
0.0
 20
0.0
 30
0.0
  0
XRECORD
  5
220
102
{ACAD_REACTORS
330
204
102
}
330
204
100
AcDbXrecord
 10
0.0
 20
0.0
 30
0.0
  0
XRECORD
  5
221
102
{ACAD_REACTORS
330
204
102
}
330
204
100
AcDbXrecord
 10
0.0
 20
0.0
 30
0.0
  0
XRECORD
  5
21E
102
{ACAD_REACTORS
330
204
102
}
330
204
100
AcDbXrecord
 10
0.0
 20
0.0
 30
0.0
  0
XRECORD
  5
21B
102
{ACAD_REACTORS
330
204
102
}
330
204
100
AcDbXrecord
340
0
  0
XRECORD
  5
21C
102
{ACAD_REACTORS
330
204
102
}
330
204
100
AcDbXrecord
 70
     0
  0
XRECORD
  5
210
102
{ACAD_REACTORS
330
204
102
}
330
204
100
AcDbXrecord
  1
{FAEB1C32-E019-11D5-929B-00C0DF256EC4}
  0
DICTIONARYVAR
  5
98
102
{ACAD_REACTORS
330
8F
102
}
330
8F
100
DictionaryVariables
280
     0
  1
1:1
  0
DICTIONARYVAR
  5
91
102
{ACAD_REACTORS
330
8F
102
}
330
8F
100
DictionaryVariables
280
     0
  1
Standard
  0
DICTIONARYVAR
  5
90
102
{ACAD_REACTORS
330
8F
102
}
330
8F
100
DictionaryVariables
280
     0
  1
Standard
  0
DICTIONARYVAR
  5
94
102
{ACAD_REACTORS
330
8F
102
}
330
8F
100
DictionaryVariables
280
     0
  1
2
  0
DICTIONARYVAR
  5
95
102
{ACAD_REACTORS
330
8F
102
}
330
8F
100
DictionaryVariables
280
     0
  1
1
  0
DICTIONARYVAR
  5
99
102
{ACAD_REACTORS
330
8F
102
}
330
8F
100
DictionaryVariables
280
     0
  1
1
  0
DICTIONARY
  5
229
330
45
100
AcDbDictionary
280
     1
  3
ACAD_XREC_ROUNDTRIP
360
22A
  0
DICTIONARY
  5
227
330
44
100
AcDbDictionary
280
     1
  3
ACAD_XREC_ROUNDTRIP
360
228
  0
DICTIONARY
  5
22B
330
46
100
AcDbDictionary
280
     1
  3
ACAD_XREC_ROUNDTRIP
360
22C
  0
XRECORD
  5
22A
102
{ACAD_REACTORS
330
229
102
}
330
229
100
AcDbXrecord
102
MATERIAL
148
0.0
149
0.0
149
0.0
 93
        0
 94
      127
282
     0
 72
     1
 77
     1
171
     1
175
     1
179
     1
273
     0
  0
XRECORD
  5
228
102
{ACAD_REACTORS
330
227
102
}
330
227
100
AcDbXrecord
102
MATERIAL
148
0.0
149
0.0
149
0.0
 93
        0
 94
      127
282
     0
 72
     1
 77
     1
171
     1
175
     1
179
     1
273
     0
  0
XRECORD
  5
22C
102
{ACAD_REACTORS
330
22B
102
}
330
22B
100
AcDbXrecord
102
MATERIAL
148
0.0
149
0.0
149
0.0
 93
        0
 94
      127
282
     0
 72
     1
 77
     1
171
     1
175
     1
179
     1
273
     0
  0
ENDSEC
  0
EOF
